<?xml version="1.0" encoding="utf-8"?>
<!-- Generator: Adobe Illustrator 17.0.0, SVG Export Plug-In . SVG Version: 6.00 Build 0)  -->
<!DOCTYPE svg PUBLIC "-//W3C//DTD SVG 1.1//EN" "http://www.w3.org/Graphics/SVG/1.1/DTD/svg11.dtd">
<svg version="1.1" id="Camada_1" xmlns="http://www.w3.org/2000/svg" xmlns:xlink="http://www.w3.org/1999/xlink" x="0px" y="0px"
	 width="326px" height="262px" viewBox="0 0 326 262" enable-background="new 0 0 326 262" xml:space="preserve">
<g>
	<g>
		<path fill="#FFFFFF" d="M235.2,172.1c0,0-2.3,13-7.3,20.7c-1.8,2.8-4,5-6.6,5.5c-12.5,2.6-16.4-5-18.1-19.3
			c-2-17.1,14.8-72.4,14.8-72.4l4.9,1.4l10.2,3L235.2,172.1z"/>
	</g>
	<g opacity="0.35">
		<path fill="#181932" d="M235.2,172.1c0,0-2.3,13-7.3,20.7c-12.3,2.5-16.2-5.1-17.8-19.4c-1.5-13.4,8.4-50,12.8-65.4l10.2,3
			L235.2,172.1z"/>
	</g>
	<g>
		<path fill="#1F1F23" d="M216.8,200.7c-3,0-5.6-0.8-7.7-2.3c-4.2-3-6.5-8.7-7.7-19.2c-2-17.3,14.2-70.9,14.9-73.1l0.5-1.7l18,5.3
			l2.2,62.5v0.2c-0.5,2.6-4.7,25.5-15.3,27.7C219.9,200.5,218.3,200.7,216.8,200.7z M219.3,108.9c-2.8,9.4-16,55.1-14.3,70
			c1.1,9.2,3,14.3,6.2,16.6c2.3,1.6,5.5,2,9.7,1.1c6.9-1.5,11.3-18.1,12.5-24.6l-2.1-59.6L219.3,108.9z"/>
	</g>
	<g>
		<path fill="#FFFFFF" d="M216.1,174.3c0,0-3.4,37.8,2.3,59.8c0,0-15.2,9.3-5.5,16.5c10.5,7.9,38,7.6,42.9-2.5
			c5-10.4-2.6-58.8-1.8-93.1"/>
	</g>
	<g>
		<path fill="#1F1F23" d="M232.3,216.2c-5.8,0-11.9-0.8-17.7-3.2c-0.7-0.3-1-1.1-0.7-1.8s1.1-1,1.8-0.7c17.4,7.2,39.2-0.9,39.5-1
			c0.7-0.3,1.5,0.1,1.8,0.8s-0.1,1.5-0.8,1.8C255.5,212.3,244.8,216.2,232.3,216.2z"/>
	</g>
	<g>
		<path fill="#1F1F23" d="M241.2,236.6c-1.8-0.9-3.6-1.5-5.5-2s-3.8-0.7-5.7-0.8s-3.8,0-5.7,0.4c-0.9,0.1-1.8,0.4-2.7,0.6
			c-0.5,0.1-0.9,0.3-1.3,0.4l-1.3,0.5h-0.1c-0.9,0.3-2-0.1-2.3-1.1c-0.3-0.9,0.1-2,1.1-2.3c0.1,0,0.2-0.1,0.3-0.1l1.5-0.3
			c0.5-0.1,1-0.2,1.5-0.3c1-0.1,2.1-0.2,3.1-0.2c2.1-0.1,4.1,0.1,6.1,0.5s4,1,5.8,1.7C237.8,234.5,239.6,235.5,241.2,236.6z"/>
	</g>
	<g opacity="0.35">
		<path fill="#181932" d="M209.8,246.8c0.4,1.3,1.3,2.6,3,3.9c10.5,7.9,38,7.6,42.9-2.5c5-10.4-2.6-58.8-1.8-93.1L216,174.3
			c0,0-0.3,3.8-0.6,9.8c3.1,3.3,9.2,7.8,21,11.8c16,5.5,18.3,52-0.6,54.3C229.2,251,217.2,249.8,209.8,246.8z"/>
	</g>
	<g>
		<path fill="#1F1F23" d="M234.5,258c-8.8,0-17.7-2.2-22.7-5.9c-2.7-2-4-4.5-3.9-7.2c0.2-5.3,5.9-9.8,8.5-11.6
			c-5.2-22.2-2.2-57.6-2-59.1c0.1-1,1-1.7,2-1.6c1,0.1,1.7,1,1.6,2c0,0.4-3.3,37.7,2.2,59.2l0.3,1.3l-1.1,0.7
			c-2.1,1.3-7.7,5.6-7.9,9.4c-0.1,1.5,0.7,2.9,2.5,4.2c6.3,4.7,20.3,6.6,30.5,4.1c5-1.2,8.4-3.3,9.7-5.9c2.7-5.5,1.4-24.6,0-44.8
			c-1.1-15.4-2.3-32.9-1.9-47.6c0-1,0.9-1.8,1.8-1.8c1,0,1.8,0.8,1.8,1.8c-0.3,14.5,0.9,31.9,1.9,47.2c1.5,22.5,2.8,40.2-0.3,46.6
			c-1.8,3.6-5.9,6.4-12.1,7.9C242,257.6,238.2,258,234.5,258z"/>
	</g>
	<g>
		<path fill="#FFFFFF" d="M168.5,107.1c-1.1,6.6-8.7,10.3-12.9,11.9c-1.9,0.7-3.4,2.1-4.4,3.9c-3.8,7.2-14.2,25.5-25,29.1
			c-4.6,1.6-9.3,0.8-13.3-0.8c-6.5-2.5-11.2-7.1-11.2-7.1l-6.2-26.3L92,103.3L88.4,88c0,0,5.1,5.6,11.4,11.9c2.6,2.6,5.3,5.2,8,7.6
			c5.7,5.1,10.9,9,13.1,8.3c2.3-0.7,6.5-8.6,14.4-17.8c2-2.3,7.2-2.1,12.4-3.5c8.3-2.3,14.9-2.5,18.1,0c2.5,1.9,2.2,7,2.6,8.9
			C168.6,104.8,168.6,106,168.5,107.1z"/>
	</g>
	<g opacity="0.35">
		<path fill="#361B45" d="M168.5,107.1c-1.1,6.6-8.7,10.3-12.9,11.9c-1.9,0.7-3.4,2.1-4.4,3.9c-3.8,7.2-14.2,25.5-25,29.1
			c-12.1,4.1-24.5-7.9-24.5-7.9L92,103.3c15.3,7.3,17.5,33,30.9,31.6c22.5-2.2,21.8-25.3,21.1-35.4
			C143.8,96.4,155.6,117.9,168.5,107.1z"/>
	</g>
	<g>
		<path fill="#1F1F23" d="M120.8,154.6c-10.7,0-19.9-8.8-20.4-9.3c-0.7-0.7-0.7-1.8,0-2.5s1.8-0.7,2.5,0c0.1,0.1,11.7,11.2,22.6,7.5
			c10.4-3.5,21-22.5,24-28.3c1.1-2.2,3-3.9,5.3-4.7c4.9-1.8,13.1-6,11.7-13.4c-0.1-0.5-0.1-1.1-0.2-1.8c-0.2-1.9-0.4-5-1.7-6
			c-2.6-2-8.6-1.9-16.5,0.3c-2,0.6-3.9,0.9-5.6,1.2c-2.6,0.4-5,0.8-5.9,1.8c-3.6,4.2-6.5,8.1-8.7,11.3c-3,4.2-4.7,6.5-6.5,7.1
			c-2.2,0.7-6.4-0.4-20.1-13.7C93.9,97,87.1,89.5,87.1,89.5c-0.7-0.7-0.6-1.9,0.1-2.5c0.7-0.7,1.9-0.6,2.5,0.1
			c0.1,0.1,6.6,7.2,13.7,14.2c13.2,12.8,16.4,13.1,16.9,13.1c0.8-0.4,2.8-3.2,4.6-5.7c2.3-3.2,5.2-7.2,8.9-11.5c1.7-2,4.6-2.4,8-3
			c1.7-0.3,3.5-0.6,5.3-1.1c6.5-1.8,15.1-3.2,19.7,0.3c2.5,2,2.9,5.9,3.1,8.5c0.1,0.6,0.1,1.2,0.2,1.5c1.3,7.3-3.8,13.7-14,17.4
			c-1.5,0.5-2.7,1.6-3.4,3c-4,7.7-14.7,26.2-26.1,30C124.7,154.3,122.7,154.6,120.8,154.6z"/>
	</g>
	<g>
		<path fill="#FFFFFF" d="M115.9,246.8c-0.4,1.3-1.3,2.6-3,3.9c-10.5,7.9-38,7.6-42.9-2.5c-5-10.4,2.6-58.8,1.8-93.1l37.9,19.3
			c0,0,0.3,3.8,0.6,9.8c0.6,12.7,0.9,35-2.9,50C107.4,234.1,117.7,240.5,115.9,246.8z"/>
	</g>
	<g opacity="0.35">
		<path fill="#361B45" d="M115.9,246.8c-0.4,1.3-1.3,2.6-3,3.9c-10.5,7.9-38,7.6-42.9-2.5c-5-10.4,2.6-58.8,1.8-93.1l37.9,19.3
			c0,0,0.3,3.8,0.6,9.8c-3.1,3.3-9.2,7.8-21,11.8c-16,5.5-18.3,52,0.6,54.3C96.5,251,108.5,249.8,115.9,246.8z"/>
	</g>
	<g>
		<path fill="#1F1F23" d="M91.3,258c-3.7,0-7.5-0.4-10.9-1.2c-6.1-1.5-10.3-4.2-12.1-7.9c-3.1-6.4-1.9-24.1-0.3-46.6
			c1.1-15.3,2.3-32.7,1.9-47.2c0-1,0.8-1.8,1.8-1.8s1.8,0.8,1.8,1.8c0.3,14.7-0.9,32.1-1.9,47.6c-1.4,20.2-2.7,39.2,0,44.8
			c1.3,2.6,4.7,4.7,9.7,5.9c10.3,2.5,24.3,0.6,30.5-4.1c1.7-1.3,2.5-2.7,2.5-4.2c-0.2-3.8-5.7-8.1-7.9-9.4l-1.1-0.7l0.3-1.3
			c5.5-21.5,2.3-58.8,2.2-59.2c-0.1-1,0.6-1.9,1.6-2s1.9,0.6,2,1.6c0.1,1.5,3.2,37-2,59.1c2.5,1.8,8.2,6.3,8.5,11.6
			c0.1,2.7-1.2,5.2-3.9,7.2C109,255.8,100.1,258,91.3,258z"/>
	</g>
	<g>
		<path fill="#1F1F23" d="M93.4,216.2c-12.5,0-23.1-3.9-23.8-4.1c-0.7-0.3-1.1-1.1-0.8-1.8c0.3-0.7,1.1-1.1,1.8-0.8
			c0.2,0.1,22.1,8.1,39.5,1c0.7-0.3,1.5,0,1.8,0.7s0,1.5-0.7,1.8C105.4,215.4,99.2,216.2,93.4,216.2z"/>
	</g>
	<g>
		<path fill="#1F1F23" d="M84.5,236.6c1.6-1.2,3.4-2.1,5.2-2.9c1.9-0.8,3.8-1.4,5.8-1.7c2-0.4,4.1-0.6,6.1-0.5c1,0,2.1,0.1,3.1,0.2
			c0.5,0,1,0.2,1.5,0.3l1.5,0.3c1,0.2,1.6,1.1,1.4,2.1s-1.1,1.6-2.1,1.4c-0.1,0-0.2,0-0.3-0.1l-0.1-0.1l-1.3-0.5
			c-0.4-0.2-0.9-0.3-1.3-0.4c-0.9-0.2-1.8-0.5-2.7-0.6c-1.8-0.4-3.8-0.5-5.7-0.4c-1.9,0.1-3.8,0.3-5.7,0.8
			C88.2,235.1,86.3,235.7,84.5,236.6z"/>
	</g>
	<g>
		<path fill="#FFFFFF" d="M18.4,183.2c9.1,9.2,28.9,3.2,28.9,3.2L39,117.7l-1.7-13.9c0,0-11.5,1.7-19.9,6.5c-4,2.3-7.3,5.2-8.2,9
			C6.1,132.5,11,175.7,18.4,183.2z"/>
	</g>
	<g opacity="0.35">
		<path fill="#361B45" d="M9.3,148.4c1.6,15.1,5,30.6,9.1,34.8c9.1,9.2,28.9,3.2,28.9,3.2l-10-82.6c0,0-0.2,0-0.6,0.1l7.8,64.4
			c0,0-19.9,6-28.9-3.2C13.2,162.6,11,156.3,9.3,148.4z"/>
	</g>
	<g>
		<path fill="#1F1F23" d="M33.8,190.1c-5.9,0-12.3-1.2-16.6-5.6c-5.2-5.3-8.1-23.3-9.1-30.9c-1.9-14.5-2.1-28.2-0.6-34.7
			c3-12.7,28.5-16.7,29.6-16.9c1-0.2,1.9,0.5,2,1.5s-0.5,1.9-1.5,2c-6.7,1-24.6,5.5-26.6,14.1c-3,12.9,2,55.4,8.7,62.2
			c8.2,8.3,26.9,2.8,27.1,2.7c1-0.3,2,0.2,2.2,1.2c0.3,1-0.2,2-1.2,2.2C47.4,188.2,41,190.1,33.8,190.1z"/>
	</g>
	<g>
		<path fill="#FFFFFF" d="M11.6,154.6l14-0.7c1.2-0.1,2.4,0.7,2.7,1.9c1.4,4.4,4,14.6,0.1,18.6c-3.2,3.3-9.1,3.7-12.9,1.2
			c-4.2-2.8-5.9-12.9-6.4-18C8.8,156,10,154.6,11.6,154.6z"/>
	</g>
	<g opacity="0.35">
		<path fill="#361B45" d="M28.3,155.8c1.4,4.4,4,14.6,0.1,18.6c-3.2,3.3-9.1,3.7-12.9,1.2c-2.6-1.7-4.2-6.2-5.2-10.6
			c0.9,2.1,2.1,3.8,3.5,4.9c7.8,5.9,12-2.7,12-2.7s1.1,1.8,1.9,1.8c3.1,0.1,1.3-9.3,0.2-14.1C28,155.2,28.2,155.5,28.3,155.8z"/>
	</g>
	<g>
		<path fill="#1F1F23" d="M21.1,179c-2.3,0-4.7-0.6-6.6-1.9c-4.5-3-6.4-12.1-7.2-19.3c-0.1-1.2,0.2-2.5,1.1-3.4c0.8-1,2-1.5,3.2-1.6
			l0,0l14-0.7c2.1-0.1,3.9,1.2,4.6,3.2c1.8,5.7,4.1,15.9-0.4,20.4C27.5,177.8,24.3,179,21.1,179z M11.7,156.4
			c-0.4,0-0.6,0.2-0.7,0.3c-0.1,0.1-0.3,0.4-0.2,0.7c1,8.8,3.1,15,5.6,16.7c3.2,2.1,8.1,1.6,10.7-1c2.2-2.2,2-8.7-0.5-16.8
			c-0.1-0.4-0.5-0.7-0.9-0.7L11.7,156.4z"/>
	</g>
	<g>
		<path fill="#1F1F23" d="M25.1,159c0.2,1.6,0.5,3.3,0.7,5s0.4,3.5,0.3,5.3s-0.5,3.7-1.5,5.5c-0.5,0.9-1.2,1.7-1.9,2.3
			c-0.8,0.7-1.6,1.2-2.6,1.6c-0.9,0.4-2,0-2.4-0.9s0-2,0.9-2.4c0,0,0.1,0,0.1-0.1c1.3-0.5,2.4-1.2,3.2-2.3c0.8-1.1,1.2-2.5,1.5-4.1
			c0.2-1.5,0.2-3.2,0.1-4.8c-0.1-1.7-0.3-3.3-0.3-5.1c0-0.5,0.4-1,0.9-1C24.6,158.1,25.1,158.5,25.1,159L25.1,159z"/>
	</g>
	<g>
		<path fill="#181932" d="M15.3,117.5c2.6-0.5,5.2-0.9,7.9-1.2c1.3-0.1,2.7-0.2,4-0.3c1.3-0.1,2.7-0.1,4.1-0.1c1,0,1.8,0.8,1.8,1.8
			s-0.8,1.8-1.8,1.8c-0.1,0-0.3,0-0.4,0l0,0c-1.2-0.3-2.5-0.6-3.8-0.8c-1.3-0.2-2.6-0.4-3.9-0.6C20.6,117.8,17.9,117.5,15.3,117.5z"
			/>
	</g>
	<g opacity="0.35">
		<path fill="#361B45" d="M19.9,110c6.6,3.9,14,6.4,21.6,7.4l-1.7-13.9C39.8,103.5,28.3,105.3,19.9,110z"/>
	</g>
	<g opacity="0.35">
		<path fill="#361B45" d="M78,173.9c0.2,0.8,0.5,1.5,0.7,2.3C78.4,175.4,78.2,174.7,78,173.9z"/>
	</g>
	<g>
		<path fill="#FFFFFF" d="M113.4,173.3c-4.2,11-20.5,17.1-27.4,18.4c-1.6,0.3-3.1,0.5-4.5,0.7c-11.2,1.3-19.9-1.1-23.1-2.1
			c-6.2-1.9-11.6-5.2-15.9-9.9c-0.4-0.4-0.8-0.9-1.1-1.3c-0.3-0.4-0.6-0.8-1-1.2c-1.4-1.8-2.7-3.8-3.7-6c-0.1-0.1-0.1-0.2-0.2-0.3
			c-1.7-3.5-3-8.1-3.8-13.7c-1.3-8.5-1.5-19.1-0.6-31.2c0.3-3.2,0.6-6.4,1-9.8c0-0.1,0-0.3,0-0.4s0-0.2,0-0.4c0.3-2.3,0.6-4.7,1-7
			c0.1-0.4,0.1-0.7,0.2-1.1c1.1-7.1,2.6-14.5,4.5-22.1l53.7-9.6c2.7,8.3,5.1,16.1,7.3,23.5c1.1,3.7,2.2,7.3,3.2,10.8
			c0.1,0.4,0.2,0.8,0.4,1.2c0.3,1.1,0.6,2.1,0.9,3.1c0.1,0.4,0.2,0.9,0.4,1.3c3.9,13.8,6.6,25.5,8.2,34.8
			C114.7,161.8,114.9,169.4,113.4,173.3z"/>
	</g>
	<g opacity="0.35">
		<path fill="#361B45" d="M43.9,145.2c-0.7,7.9-1.9,23.5-2.7,34c-0.3-0.4-0.6-0.8-1-1.2c-1.4-1.8-2.7-3.8-3.7-6
			c-0.1-0.1-0.1-0.2-0.2-0.3c-1.7-3.5-3-8.1-3.8-13.7c-1.3-8.5-1.5-19.1-0.6-31.2C35.6,128,45.1,132.5,43.9,145.2z"/>
	</g>
	<g opacity="0.35">
		<path fill="#361B45" d="M36.6,172c4.6,9.1,12.3,15.5,21.8,18.4c3.7,1.1,14.4,4,27.7,1.4c6.9-1.3,23.1-7.4,27.4-18.4
			c1.3-3.4,1.3-9.5,0.1-18.1c0.5,5.1,0.2,8.9-0.9,11.2c-4.5,9.2-20,15.3-26.9,16.6c-13.3,2.4-24.7-0.5-28.4-1.4
			c-9.4-2.2-17-7.2-21.3-14.6c-1.8-3.1-3.1-7.3-3.8-12.5C33,161.8,34.5,167.7,36.6,172z"/>
	</g>
	<g opacity="0.35">
		<path fill="#361B45" d="M109.5,134.9c1.9,7.8,3.2,14.6,4,20.3C113,149.9,111.6,143.1,109.5,134.9z"/>
	</g>
	<g opacity="0.35">
		<path fill="#361B45" d="M32.2,154.5c-0.3-3.1-0.6-6.4-0.7-9.9C31.5,148.2,31.7,151.5,32.2,154.5z"/>
	</g>
	<g>
		<path fill="#1F1F23" d="M105.3,116.5c3.1,6.5,4.9,13.3,6.6,20.2c0.8,3.5,1.5,6.9,2.1,10.4c0.7,3.5,1.2,7,1.6,10.6
			s0.7,7.2,0.5,10.9L116,170c-0.1,0.5-0.2,1-0.2,1.4l-0.1,0.7l-0.2,0.7c-0.2,0.5-0.3,1-0.5,1.4c-0.7,1.8-1.8,3.5-3,5
			c-2.4,3-5.3,5.3-8.4,7.3c-3.1,1.9-6.4,3.5-9.8,4.8h-0.1h-0.1l-7,2.1h-0.1h-0.1c-6.1,1.2-12.4,1.4-18.5,0.6c-3.1-0.4-6.1-1-9.1-1.8
			c-1.5-0.4-3-1-4.5-1.5c-1.5-0.6-2.9-1.3-4.3-2.1c-2.8-1.6-5.3-3.5-7.6-5.7s-4.3-4.7-5.9-7.4l-0.6-1c-0.2-0.3-0.4-0.7-0.6-1
			c-0.4-0.7-0.7-1.4-1-2.1c-0.6-1.5-1.2-2.9-1.6-4.4c-0.9-3-1.5-6-2-9.1c-0.9-6.1-1.2-12.2-1.1-18.3c0-6.1,0.4-12.2,1.1-18.2
			c0.3-3,0.7-6,1.1-9s0.9-6,1.4-9s1-6,1.8-8.9s1.7-5.8,3.2-8.6c0.2-0.3,0.5-0.4,0.8-0.2c0.2,0.1,0.3,0.3,0.3,0.5l0,0
			c0.1,1.6-0.1,3.1-0.2,4.6c-0.1,1.5-0.4,3-0.6,4.5c-0.1,0.7-0.3,1.5-0.4,2.2c-0.1,0.7-0.3,1.5-0.4,2.2l-0.9,4.4
			c-0.6,2.9-1.1,5.9-1.5,8.8c-0.4,3-0.8,5.9-1.1,8.9c-0.6,5.9-1,11.9-1,17.9s0.2,11.9,1.1,17.7c0.4,2.9,1,5.8,1.8,8.6
			c0.4,1.4,0.9,2.7,1.5,4c0.3,0.6,0.6,1.3,0.9,1.9c0.2,0.3,0.3,0.6,0.5,0.9l0.6,0.9c1.5,2.5,3.3,4.7,5.3,6.7s4.4,3.7,6.8,5.1
			c1.2,0.7,2.5,1.3,3.9,1.9c1.3,0.5,2.7,1,4.1,1.4c2.8,0.8,5.7,1.4,8.6,1.7c5.8,0.7,11.7,0.5,17.4-0.6h-0.2l7-2.1h-0.1
			c3.2-1.2,6.3-2.7,9.2-4.5c2.9-1.8,5.5-3.9,7.5-6.5c1-1.3,1.9-2.6,2.5-4.1c0.2-0.4,0.2-0.7,0.4-1.1l0.2-0.5l0.1-0.6
			c0.1-0.4,0.1-0.8,0.2-1.2l0.1-1.2c0.2-3.3-0.1-6.8-0.5-10.2c-0.8-6.9-2.4-13.8-4-20.6c-1.5-6.8-3.3-13.6-4-20.8
			c0-0.3,0.2-0.6,0.6-0.7C104.9,116.1,105.2,116.3,105.3,116.5z"/>
	</g>
	<g>
		<path fill="#FFFFFF" d="M74,184.5c0,0,2.5,31.5-3.2,53.5c0,0,15.2,9.3,5.5,16.5c-10.5,7.9-38,7.6-42.9-2.5
			c-5-10.4,2.6-58.8,1.8-93.1"/>
	</g>
	<g opacity="0.35">
		<path fill="#361B45" d="M104.3,173l-34.9,6.2c-1.9,0.3-3.7-0.1-5.3-1c-1.3,1.2-3.4,2.5-6.3,2c-3.5-0.6-5.8-3-5.8-3
			s-7,7.2-11.3,8.3c-1.6,26.6-4.3,52.5-0.8,59.7c4.4,9.2,27.4,10.3,39.5,4.5c-0.2,1.6-1.1,3.3-3.2,4.9c-10.5,7.9-38,7.6-42.9-2.5
			c-5-10.4,2.6-58.8,1.8-93.1l6.6,4.3l0,0c3.9,0.1,11,0.2,17.1,0.3l-1.6-9.3c-0.6-3.6,1.4-7.1,4.7-8.4c0.5-0.2,1-0.3,1.5-0.4
			l34.9-6.2c4.1-0.7,8.1,2.1,8.8,6.2l2.6,14.7l0.7,3.9C111.2,168.2,108.5,172.2,104.3,173z"/>
	</g>
	<g>
		<path fill="#1F1F23" d="M74.6,184.4c0.6,2.2,1,4.5,1.3,6.7s0.4,4.5,0.5,6.8c0.2,4.5,0,9-0.2,13.6c-0.2,2.3-0.3,4.5-0.5,6.8
			s-0.4,4.5-0.7,6.8c-0.6,4.5-1.3,9-2.4,13.5l-0.8-2c0.8,0.5,1.5,1,2.2,1.6c0.7,0.5,1.4,1.1,2,1.7c1.3,1.2,2.6,2.5,3.6,4.1
			c0.5,0.8,1,1.7,1.3,2.7s0.5,2.1,0.4,3.2c-0.1,1.1-0.5,2.2-1,3.1c-0.5,1-1.2,1.7-2,2.4c-2.9,2.5-6.3,3.8-9.7,4.8
			c-1.7,0.5-3.4,0.9-5.1,1.1c-1.7,0.3-3.4,0.5-5.2,0.6c-3.5,0.2-6.9,0.1-10.4-0.3c-3.5-0.5-6.9-1.3-10.2-3c-1.6-0.8-3.2-1.9-4.5-3.4
			c-0.3-0.4-0.6-0.8-0.9-1.2l-0.4-0.7l-0.2-0.3l-0.1-0.3c-0.4-0.9-0.7-1.8-0.9-2.7c-0.7-3.6-0.8-7-0.9-10.4
			c-0.1-6.8,0.3-13.5,0.7-20.2c0.4-6.7,0.9-13.4,1.3-20.1c0.4-6.7,0.9-13.4,1.1-20c0.1-3.3,0-6.7,0.2-10c0.1-3.3,0.4-6.7,1.3-10l0,0
			c0.1-0.3,0.4-0.5,0.8-0.4c0.2,0.1,0.4,0.2,0.4,0.4c1.1,3.3,1.3,6.7,1.3,10.1c0,3.4-0.3,6.7-0.4,10.1c-0.3,6.7-0.7,13.4-1.2,20.1
			c-0.4,6.7-0.9,13.4-1.3,20.1c-0.4,6.7-0.8,13.4-0.7,20c0.1,3.3,0.2,6.6,0.8,9.6c0.2,0.7,0.4,1.5,0.6,2.1l0.1,0.2l0.1,0.2l0.2,0.4
			c0.2,0.3,0.4,0.5,0.6,0.8c0.9,1,2.1,1.9,3.5,2.6c2.7,1.4,5.9,2.2,9,2.6c3.2,0.4,6.4,0.5,9.7,0.3c1.6-0.1,3.2-0.3,4.8-0.5
			c1.6-0.3,3.2-0.6,4.7-1s3-1,4.4-1.6c1.4-0.7,2.7-1.5,3.8-2.4c0.5-0.5,1-1,1.2-1.5c0.3-0.5,0.5-1.1,0.5-1.6
			c0.1-1.1-0.4-2.4-1.1-3.6c-0.8-1.2-1.8-2.4-3-3.4c-0.6-0.5-1.2-1-1.8-1.5c-0.6-0.5-1.3-1-1.9-1.3l-1.1-0.7l0.3-1.3
			c1.1-4.3,1.8-8.6,2.4-13c0.5-4.4,0.9-8.8,1-13.3c0.1-4.4,0.1-8.9,0.2-13.3c0-4.5,0.1-8.9,0.8-13.4l0,0c0-0.3,0.4-0.6,0.7-0.5
			C74.3,184,74.5,184.2,74.6,184.4z"/>
	</g>
	<g>
		<path fill="#1F1F23" d="M56.9,220.1c-12.5,0-23.1-3.9-23.8-4.1c-0.7-0.3-1.1-1.1-0.8-1.8s1.1-1.1,1.8-0.8c0.2,0.1,22.1,8.1,39.5,1
			c0.7-0.3,1.5,0,1.8,0.7s0,1.5-0.7,1.8C68.8,219.3,62.6,220.1,56.9,220.1z"/>
	</g>
	<g>
		<circle fill="#FFFFFF" cx="111.7" cy="146.9" r="6.8"/>
	</g>
	<g opacity="0.35">
		<path fill="#361B45" d="M118.5,146.2c0.4,3.7-2.4,7-6.1,7.4s-7-2.4-7.4-6.1c-0.1-1,0-2,0.4-2.9c1.3,2.2,3.8,3.5,6.5,3.3
			c2.7-0.3,4.9-2.1,5.7-4.5C118,144.2,118.4,145.2,118.5,146.2z"/>
	</g>
	<g>
		<path fill="#1F1F23" d="M111.7,155c-4.1,0-7.7-3.2-8.1-7.4c-0.4-4.5,2.8-8.5,7.3-8.9s8.5,2.8,8.9,7.3c0.2,2.2-0.4,4.3-1.8,6
			s-3.3,2.7-5.5,2.9C112.2,155,112,155,111.7,155z M111.7,141.5c-0.2,0-0.4,0-0.5,0c-3,0.3-5.2,2.9-4.9,5.9c0.3,3,2.9,5.2,5.9,4.9
			c1.4-0.1,2.7-0.8,3.7-2c0.9-1.1,1.3-2.5,1.2-4C116.8,143.6,114.5,141.5,111.7,141.5z"/>
	</g>
	<g>
		<g opacity="0.35">
			<path fill="#361B45" d="M112.8,153c-2.1-7.4-3.2-14.4-3.6-20.7c0.6,3.6,1.4,7.3,2.5,11.2c1.3,4.5,2.1,9.3,2.2,14.1
				C113.6,156,113.2,154.5,112.8,153z"/>
		</g>
		<g>
			<path fill="#FFFFFF" d="M107.9,166.8L73,173c-4.1,0.7-8.1-2.1-8.8-6.2l-3.3-18.6c-0.6-3.6,1.4-7.1,4.7-8.4c0.5-0.2,1-0.3,1.5-0.4
				l34.9-6.2c4.1-0.7,8.1,2.1,8.8,6.2l2.6,14.7l0.7,3.9C114.8,162.1,112,166.1,107.9,166.8z"/>
		</g>
		<g opacity="0.35">
			<path fill="#361B45" d="M107.9,166.8L73,173c-4.1,0.7-8.1-2.1-8.8-6.2l-3.3-18.6c-0.6-3.6,1.4-7.1,4.7-8.4c2.2,1,3.6,1.6,3.6,1.6
				c4.3,14.6,9.9,21.3,28.5,18.3c8-1.3,12.9-3.4,15.7-5.6l0.7,3.9C114.8,162.1,112,166.1,107.9,166.8z"/>
		</g>
		<g>
			<path fill="#1F1F23" d="M71.6,174.8c-1.9,0-3.7-0.6-5.3-1.7c-2-1.4-3.4-3.5-3.8-6l-3.3-18.6c-0.9-5,2.5-9.9,7.5-10.7l34.9-6.2
				c2.4-0.4,4.9,0.1,6.9,1.5s3.4,3.5,3.8,6l3.3,18.6c0.4,2.4-0.1,4.9-1.5,6.9s-3.5,3.4-6,3.8l-34.9,6.2
				C72.7,174.7,72.2,174.8,71.6,174.8z M103.3,134.7c-0.3,0-0.7,0-1,0.1l-35,6.2c-3.3,0.6-5.4,3.7-4.9,7l3.3,18.6
				c0.6,3.3,3.7,5.4,6.9,4.9l0,0l34.9-6.2c1.6-0.3,2.9-1.2,3.9-2.5c0.9-1.3,1.3-2.9,1-4.5l-3.3-18.6c-0.3-1.6-1.2-2.9-2.5-3.9
				C105.7,135.1,104.5,134.7,103.3,134.7z"/>
		</g>
		<g>
			<path fill="#FFFFFF" d="M109.3,166.4c-0.4,0.2-0.9,0.3-1.4,0.4L73,173c-3,0.5-6-0.8-7.6-3.2c-0.6-0.9-1-1.9-1.2-3l-1.5-8.3
				l-0.5-2.7l-1.3-7.6c-0.7-4.1,2.1-8.1,6.2-8.8l7.5-1.3c-3.4,1.3-5.5,4.8-4.8,8.5l1.8,10l1.5,8.6c0.7,4.1,4.7,6.9,8.8,6.2
				L109.3,166.4z"/>
		</g>
		<g opacity="0.35">
			<path fill="#361B45" d="M109.3,166.4c-0.4,0.2-0.9,0.3-1.4,0.4L73,173c-4.1,0.7-8.1-2.1-8.8-6.2l-1.9-11c1.2,1.8,3.2,3.9,5.8,3.7
				c1.4-0.1,2.6-1.3,3.6-3l1.5,8.6c0.7,4.1,4.7,6.9,8.8,6.2L109.3,166.4z"/>
		</g>
		<g>
			<path fill="#1F1F23" d="M71.6,174.8c-1.9,0-3.7-0.6-5.3-1.7c-2-1.4-3.4-3.5-3.8-6l-3.3-18.6c-0.4-2.4,0.1-4.9,1.5-6.9
				s3.5-3.4,6-3.8l7.5-1.3l0.9,3.1c-2.7,1-4.3,3.8-3.8,6.7l3.3,18.6c0.3,1.6,1.2,2.9,2.5,3.9c1.3,0.9,2.9,1.3,4.5,1L109,165l0.9,3.1
				c-0.5,0.2-1.1,0.4-1.7,0.5l-34.9,6.2C72.7,174.7,72.2,174.8,71.6,174.8z M69.2,140.6l-1.9,0.3c-1.6,0.3-2.9,1.2-3.9,2.5
				c-0.9,1.3-1.3,2.9-1,4.5l3.3,18.6c0.3,1.6,1.2,2.9,2.5,3.9c1.3,0.9,2.9,1.3,4.5,1l2.1-0.4c-1.8-1.4-3-3.4-3.4-5.6l-3.3-18.6
				C67.8,144.6,68.2,142.5,69.2,140.6z"/>
		</g>
		<g>
			<path fill="#E41833" d="M85.2,153.5c0.1,0.7,0.1,6.4,0.1,6.4s-1.8,0.3-3.9,0.7c-2.7,0.5-5.4-2-6-5.4s1.1-6.6,3.8-7.1
				c1.8-0.3,3.9-0.7,3.9-0.7S85,152.4,85.2,153.5z"/>
		</g>
		<g opacity="0.35">
			<path fill="#90C154" d="M85.2,153.5c0.1,0.7,0.1,6.4,0.1,6.4s-1.8,0.3-3.9,0.7c-2.7,0.5-5.4-2-6-5.4s1.1-6.6,3.8-7.1
				c1.8-0.3,3.9-0.7,3.9-0.7S85,152.4,85.2,153.5z"/>
		</g>
		<g>
			<path fill="#1F1F23" d="M80.7,161.7c-3,0-5.7-2.7-6.4-6.4c-0.3-1.9,0-3.8,0.8-5.4c0.9-1.6,2.3-2.7,3.9-3l2.7-0.5
				c1.2-0.2,2.4,0.5,2.8,1.6c1,2.7,1.6,4.5,1.7,5.1c0,0.2,0.1,0.7,0.1,5.4c0,1.2-0.9,2.3-2.1,2.5l-2.7,0.5
				C81.3,161.7,81,161.7,80.7,161.7z M82.2,148.7L82.2,148.7l-2.8,0.5c-1,0.2-1.8,0.8-2.4,1.9c-0.6,1.1-0.8,2.5-0.6,4
				c0.5,2.8,2.6,4.9,4.7,4.5l2.7-0.5c0.2,0,0.3-0.2,0.3-0.3c0-3.3,0-4.8-0.1-5c0-0.2-0.2-1.1-1.6-4.8
				C82.5,148.8,82.4,148.7,82.2,148.7z"/>
		</g>
		<g>
			
				<ellipse transform="matrix(-0.1682 -0.9858 0.9858 -0.1682 -53.1541 262.5721)" fill="#90C154" cx="84.206" cy="153.713" rx="6.3" ry="5"/>
		</g>
		<g opacity="0.7">
			<path fill="#FFFFFF" d="M89.2,154.2c-1-2.7-3.3-4.5-5.6-4.1c-2.3,0.4-3.9,2.8-3.9,5.7c-0.1-0.4-0.3-0.9-0.3-1.3
				c-0.6-3.4,1.1-6.6,3.8-7.1c2.7-0.5,5.4,2,6,5.4C89.2,153.3,89.2,153.8,89.2,154.2z"/>
		</g>
		<g opacity="0.35">
			<path fill="#361B45" d="M85.3,159.9c-2.7,0.5-5.4-2-6-5.4c-0.2-0.9-0.2-1.7,0-2.5c1,2.5,3.2,4,5.5,3.7c2-0.3,3.5-2.2,3.8-4.6
				c0.2,0.5,0.4,1.1,0.5,1.7C89.7,156.3,88,159.5,85.3,159.9z"/>
		</g>
		<g>
			<path fill="#1F1F23" d="M84.6,161.1c-1.4,0-2.7-0.5-3.8-1.6c-1.3-1.2-2.2-2.9-2.5-4.8c-0.7-4,1.4-7.8,4.7-8.3
				c3.3-0.6,6.5,2.3,7.2,6.3c0.3,1.9,0,3.8-0.8,5.4c-0.9,1.6-2.3,2.7-3.9,3C85.2,161,84.9,161.1,84.6,161.1z M83.8,148.5
				c-0.2,0-0.3,0-0.5,0c-2.1,0.4-3.4,3-2.9,5.8c0.2,1.4,0.9,2.7,1.8,3.5s1.9,1.1,2.8,1c1-0.2,1.8-0.8,2.4-1.9c0.6-1.1,0.8-2.5,0.6-4
				C87.6,150.4,85.8,148.5,83.8,148.5z"/>
		</g>
		<g>
			<path fill="#1F1F23" d="M97,170c-0.7,0-1.2-0.5-1.3-1.1L94,157.5c-0.2-1.4,0.3-2.9,1.4-3.8l2.9-2.7c0.4-0.4,0.6-0.9,0.5-1.5
				l-2.6-15.2c-0.1-0.7,0.4-1.4,1.1-1.6c0.7-0.1,1.4,0.4,1.6,1.1l2.6,15.2c0.3,1.5-0.3,2.9-1.4,3.9l-2.9,2.7
				c-0.4,0.4-0.6,0.9-0.5,1.4l1.7,11.4c0.1,0.7-0.4,1.4-1.1,1.5C97.1,170,97.1,170,97,170z"/>
		</g>
	</g>
	<g>
		<path fill="#FFFFFF" d="M30.3,151.7c0,0-2.9,3-2.6,7c0.4,4.6,3.5,6.2,3.5,6.2s13.4,4.9,33.2-1.9c0,0,5-8.3-2.1-11.7
			C62.3,151.2,41.2,156.8,30.3,151.7z"/>
	</g>
	<g opacity="0.35">
		<path fill="#361B45" d="M27.7,158.7c0.4,4.6,3.5,6.1,3.5,6.1s13.4,4.9,33.2-1.9c0,0,1.7-2.7,1.7-5.7c-0.1,0.2-0.1,0.2-0.1,0.2
			c-14.4,5-25.5,3.7-30.4,2.7c-3.4-0.7-6-3.4-6.3-6.8v-0.1c0-0.1,0-0.2,0-0.2C28.5,154.2,27.5,156.3,27.7,158.7z"/>
	</g>
	<g>
		<path fill="#361B45" d="M43.8,168.4c-8,0-12.8-1.7-13.2-1.8l-0.2-0.1c-0.2-0.1-4-2-4.5-7.6c-0.4-4.8,2.9-8.3,3.1-8.4l0.9-0.9
			l1.2,0.5c10.2,4.8,30.6-0.5,30.8-0.6l0.6-0.2l0.6,0.3c2.4,1.1,3.9,2.8,4.5,5c1.3,4.4-1.5,9.1-1.6,9.3l-0.3,0.6l-0.6,0.2
			C56.7,167.5,49.4,168.4,43.8,168.4z M32,163.2c1.3,0.4,13.7,4.1,31.2-1.7c0.6-1.3,1.6-3.8,1-5.8c-0.3-1-1-1.9-2.1-2.5
			c-3.7,0.9-20.6,4.7-31.2,0.7c-0.7,1-1.5,2.7-1.4,4.7C29.8,161.7,31.6,162.9,32,163.2z"/>
	</g>
	<g>
		<path fill="#1F1F23" d="M48,241.6c1.6-1.2,3.4-2.1,5.2-2.9c1.9-0.8,3.8-1.4,5.8-1.7c2-0.4,4.1-0.6,6.1-0.5c1,0,2.1,0.1,3.1,0.2
			c0.5,0,1,0.2,1.5,0.3l1.5,0.3c1,0.2,1.6,1.1,1.4,2.1s-1.1,1.6-2.1,1.4c-0.1,0-0.2,0-0.3-0.1l-0.1-0.1l-1.3-0.5
			c-0.4-0.2-0.9-0.3-1.3-0.4c-0.9-0.2-1.8-0.5-2.7-0.6c-1.8-0.4-3.8-0.5-5.7-0.4s-3.8,0.3-5.7,0.8C51.6,240,49.7,240.7,48,241.6z"/>
	</g>
	<g>
		<path fill="#FFFFFF" d="M62.1,174.2c-4.4,3-8-1.5-10.4-1.2c-2.1,0.3-4.6,5.7-9.3,7.5c-0.7,0.3-1.4,0.4-2.1,0.5
			c-6,0.7-25.2-4.3-30.9-18c-6.1-14.7,8.9-36.2,19.6-48.9c2-2.3,3.8-4.4,5.3-6c2.5-2.7,4.2-4.3,4.2-4.3l2.2,17.4l1.9,15.1
			c0,0-3,3.2-3,7c0,2.6,3,4.6,3,4.6s7.1-3.5,9.8-3.3c2.7,0.1,10,1.6,11.7,5.7C65.6,154.4,66.5,171.2,62.1,174.2z"/>
	</g>
	<g opacity="0.35">
		<path fill="#361B45" d="M62.1,174.2c-4.4,3-8-1.5-10.4-1.2s-5.4,7.3-11.4,8s-25.2-4.3-30.9-18c-1.5-3.5-1.7-7.5-1.1-11.6
			c0.2,1.3,0.6,2.5,1.1,3.8c5.7,13.7,24.9,18.7,30.9,18s9-7.7,11.4-8s6,4.2,10.4,1.2c1.8-1.2,2.7-4.8,3-8.9
			C65.6,163.9,65.1,172.1,62.1,174.2z"/>
	</g>
	<g>
		<path fill="#1F1F23" d="M38.9,104.2c-2,3.2-4.3,6.2-6.7,9c-2.3,2.9-4.7,5.8-7,8.7c-4.6,5.9-8.6,12.1-11.6,18.8
			c-1.5,3.3-2.7,6.8-3.3,10.3c-0.3,1.7-0.5,3.5-0.4,5.2s0.4,3.4,0.9,5c1.1,3.2,3.2,6.1,5.8,8.5s5.6,4.3,8.9,5.9
			c3.3,1.5,6.8,2.6,10.3,3.2c0.9,0.1,1.8,0.3,2.6,0.3c0.9,0,1.7,0,2.4-0.1c1.4-0.3,2.8-1.1,4.1-2.2c0.6-0.6,1.3-1.2,1.9-1.8
			c0.6-0.7,1.2-1.4,2-2.1c0.4-0.4,0.8-0.8,1.4-1.1c0.3-0.2,0.6-0.4,1.1-0.5c0.5-0.2,0.9-0.1,1.4-0.1c0.4,0.1,0.8,0.1,1,0.2l0.4,0.1
			l0.4,0.2c0.5,0.2,0.9,0.4,1.4,0.6c0.8,0.4,1.6,0.7,2.3,0.9s1.3,0.2,1.9,0c0.1,0,0.1,0,0.2-0.1l0.2-0.1c0.1-0.1,0.3-0.1,0.4-0.2
			l0.4-0.3c0.1-0.1,0.2-0.1,0.2-0.2c0.4-0.4,0.7-1.1,1-1.8c0.5-1.5,0.8-3.3,1-5.1s0.2-3.6,0.2-5.4c0-1.8-0.2-3.6-0.4-5.4
			c-0.1-0.9-0.3-1.8-0.5-2.6c-0.1-0.4-0.2-0.8-0.3-1.1s-0.3-0.5-0.5-0.8c-0.8-1.1-2.3-1.9-3.8-2.5c-1.6-0.6-3.3-1-5-1.2
			c-0.4-0.1-0.9-0.1-1.1-0.1c-0.2,0-0.3,0-0.5,0.1l-0.6,0.1c-0.8,0.2-1.7,0.5-2.5,0.8c-1.7,0.6-3.4,1.4-5,2.2l-1,0.5l-0.9-0.7
			c-0.3-0.2-0.6-0.4-0.8-0.7c-0.3-0.2-0.5-0.4-0.7-0.7c-0.5-0.5-0.9-1-1.3-1.7c-0.4-0.6-0.7-1.4-0.8-2.2c0-0.2-0.1-0.4-0.1-0.6v-0.3
			v-0.3c0-0.4,0.1-0.7,0.1-1c0.3-1.4,0.8-2.6,1.6-3.6c0.7-1,1.6-1.9,2.7-2.5c0.3-0.2,0.7-0.1,0.8,0.2c0.1,0.2,0.1,0.4,0,0.5v0.1
			c-0.4,1-0.8,2-1.1,3s-0.5,1.9-0.5,2.8c0,0.2,0,0.4,0,0.6v0.2v0.1c0,0.1,0,0.1,0,0.2c0.1,0.3,0.2,0.6,0.4,0.9
			c0.2,0.3,0.5,0.7,0.8,1c0.1,0.2,0.3,0.3,0.5,0.5c0.2,0.1,0.4,0.3,0.5,0.4l-1.9-0.2c1.8-0.8,3.5-1.5,5.4-2.2
			c0.9-0.3,1.9-0.7,2.9-0.9l0.8-0.2c0.3,0,0.6-0.1,0.9-0.1c0.7,0,1.2,0,1.8,0.1c2,0.3,4,0.7,5.9,1.5c1,0.4,1.9,0.8,2.8,1.4
			c0.9,0.6,1.8,1.3,2.6,2.3c0.4,0.5,0.7,1.1,0.9,1.6c0.2,0.6,0.4,1.1,0.5,1.6c0.2,1,0.4,2,0.5,3c0.3,1.9,0.4,3.9,0.5,5.8
			c0,1.9,0,3.9-0.2,5.8c-0.2,2-0.5,3.9-1.2,6c-0.4,1-0.8,2.1-1.8,3.1c-0.2,0.3-0.5,0.5-0.8,0.7l-0.8,0.5c-0.2,0.2-0.5,0.3-0.8,0.4
			l-0.4,0.2c-0.1,0.1-0.3,0.1-0.5,0.1c-1.2,0.3-2.6,0.3-3.7,0c-1.1-0.3-2.1-0.8-3-1.2c-0.4-0.2-0.8-0.4-1.2-0.6
			c-0.4-0.2-0.7-0.2-0.8-0.3c0,0-0.1,0,0,0c0,0-0.1,0-0.2,0.1c-0.2,0.1-0.5,0.4-0.8,0.7c-1.2,1.2-2.5,2.8-4,4.1
			c-1.5,1.4-3.5,2.6-5.8,3c-0.6,0.1-1.1,0.2-1.7,0.2c-0.5,0-1.1,0-1.6,0c-1-0.1-2-0.2-3-0.3c-2-0.3-3.9-0.8-5.7-1.4
			c-1.9-0.6-3.7-1.3-5.5-2.1c-3.5-1.7-6.9-3.8-9.8-6.5s-5.4-6.1-6.7-10c-0.7-2-1-4-1.1-6s0.1-4,0.4-6c0.7-3.9,2-7.6,3.6-11.1
			c3.2-7.1,7.4-13.4,11.9-19.6c2.2-3.1,4.6-6,7.2-8.8s5.3-5.4,8.6-7.5c0.3-0.2,0.7-0.1,0.8,0.2C39,103.8,39,104,38.9,104.2
			L38.9,104.2z"/>
	</g>
	<g>
		<g opacity="0.35">
			<path fill="#361B45" d="M107.9,107.5c-0.5,0.6-1.1,1.2-1.7,1.8c-0.7,0.7-1.5,1.4-2.2,2.1c-0.2,0.2-0.4,0.3-0.6,0.5
				c-2.1,1.9-4.4,3.6-6.7,5.1c-0.4,0.3-0.8,0.5-1.2,0.7c-1.8,1.1-3.7,2.1-5.6,3c-2.8,1.3-5.7,2.4-8.6,3.3c-1.1,0.3-2.1,0.6-3.2,0.8
				c-12.5,2.9-25.7,1.6-37.4-3.7c-2.6-1.2-5.2-2.6-7.6-4.2c-1.4-0.9-2.7-1.8-4-2.9c2-2.3,3.8-4.4,5.3-6c1.1-7.1,2.6-14.5,4.5-22.1
				l53.7-9.6c2.7,8.3,5.1,16.1,7.3,23.5C102.4,102.5,105.2,105.1,107.9,107.5z"/>
		</g>
		<g>
			<path fill="#FFFFFF" d="M122.2,68.2c-1.6,9.4-5.6,18.5-11.9,26.3c-1.3,1.6-2.7,3.1-4.1,4.6c-0.7,0.7-1.5,1.4-2.2,2.1
				c-2.3,2.1-4.8,3.9-7.3,5.6c-2.2,1.4-4.5,2.7-6.8,3.8c-2.8,1.3-5.7,2.4-8.6,3.3c-1.1,0.3-2.1,0.6-3.2,0.8
				c-19.8,4.5-41.3-1.3-55.9-17.1c-21.5-23.3-19.7-59.4,4-80.7c4.6-4.1,9.6-7.4,14.9-9.8c0.6-0.3,1.3-0.6,1.9-0.8
				c1.7-0.7,3.4-1.3,5.2-1.8c4-1.2,8.1-2,12.3-2.3c4.1-0.3,8.3-0.2,12.4,0.3c1.3,0.2,2.6,0.4,3.9,0.6c1.9,0.4,3.9,0.9,5.8,1.5
				c9.5,2.9,18.3,8.3,25.5,16C120.3,33.9,125,51.5,122.2,68.2z"/>
			<path fill="#361B45" d="M64.8,116.3c-16.1,0-31.8-6.6-42.9-18.7C11.6,86.4,6.3,71.8,7,56.6c0.7-15.4,7.5-29.5,19-39.9
				c4.5-4,9.6-7.3,15-9.8c0.6-0.3,1.2-0.5,1.9-0.8c1.7-0.7,3.4-1.3,5.2-1.8c4-1.2,8.1-2,12.3-2.3c4.1-0.3,8.3-0.2,12.5,0.3
				c1.3,0.2,2.6,0.4,3.9,0.6c2,0.4,3.9,0.9,5.8,1.5c9.8,3,18.6,8.5,25.6,16.1c12,13,17.2,30.4,14.3,47.8
				c-1.6,9.6-5.7,18.8-11.9,26.4c-1.3,1.6-2.7,3.2-4.2,4.6c-0.7,0.7-1.4,1.4-2.2,2.1c-2.3,2.1-4.8,3.9-7.3,5.6
				c-2.1,1.4-4.4,2.7-6.8,3.8c-2.8,1.3-5.7,2.4-8.6,3.3c-1.1,0.3-2.2,0.6-3.2,0.8C73.7,115.9,69.2,116.3,64.8,116.3z M65.3,2.1
				c-1.6,0-3.2,0.1-4.8,0.2c-4.2,0.3-8.3,1.1-12.2,2.3c-1.7,0.5-3.5,1.1-5.1,1.8c-0.7,0.3-1.3,0.5-1.9,0.8C35.7,9.7,30.7,13,26.2,17
				C14.8,27.3,8.1,41.4,7.3,56.6c-0.7,15.1,4.6,29.6,14.9,40.8c14,15.2,35.4,21.7,55.7,17c1.1-0.2,2.2-0.5,3.2-0.8
				c3-0.9,5.8-2,8.6-3.3c2.3-1.1,4.6-2.4,6.8-3.8c2.6-1.6,5-3.5,7.3-5.6c0.8-0.8,1.6-1.5,2.2-2.1c1.4-1.4,2.8-3,4.1-4.6
				c6.1-7.6,10.2-16.7,11.8-26.2c2.9-17.3-2.3-34.6-14.2-47.5c-6.9-7.5-15.7-13-25.4-16c-1.8-0.6-3.8-1.1-5.8-1.5
				c-1.3-0.3-2.6-0.5-3.9-0.6C70.3,2.3,67.8,2.1,65.3,2.1z"/>
		</g>
		<g opacity="0.35">
			<path fill="#361B45" d="M22.1,97.6c14.6,15.8,36.1,21.6,55.9,17.1c1.1-0.2,2.2-0.5,3.2-0.8c2.9-0.9,5.8-1.9,8.6-3.3
				c2.3-1.1,4.6-2.4,6.8-3.8c2.5-1.6,5-3.5,7.3-5.6c0.8-0.7,1.5-1.4,2.2-2.1c1.5-1.5,2.9-3,4.1-4.6c6.3-7.8,10.3-16.9,11.9-26.3
				c0.9-5.2,1-10.5,0.4-15.7c-1.7,9-5.6,17.6-11.6,25c-1.3,1.6-2.7,3.1-4.1,4.6c-0.7,0.7-1.5,1.4-2.2,2.1c-2.3,2.1-4.8,3.9-7.3,5.6
				c-2.2,1.4-4.5,2.7-6.8,3.8c-2.8,1.3-5.7,2.4-8.6,3.3c-1.1,0.3-2.1,0.6-3.2,0.8c-19.8,4.5-41.3-1.3-55.9-17.1
				c-8.5-9.2-13.4-20.5-14.6-32C4.8,65.6,9.4,83.8,22.1,97.6z"/>
		</g>
		<g>
			<path fill="#361B45" d="M64.8,117.6c-16.5,0-32.5-6.8-43.8-19C10.5,87,5,72.1,5.8,56.6c0.7-15.7,7.6-30.1,19.4-40.7
				c4.6-4.1,9.7-7.5,15.3-10c0.6-0.3,1.2-0.6,1.9-0.8c1.7-0.7,3.5-1.3,5.3-1.9c4.1-1.2,8.3-2,12.6-2.4C64.5,0.4,68.8,0.5,73,1
				c1.4,0.2,2.7,0.4,4,0.7c2,0.4,4,0.9,5.9,1.5c10,3.1,19,8.7,26.1,16.4c12.2,13.3,17.5,31.1,14.6,48.8l0,0
				c-1.7,9.9-5.9,19.2-12.2,27c-1.3,1.6-2.8,3.2-4.2,4.7c-0.7,0.7-1.4,1.4-2.3,2.2c-2.3,2.1-4.9,4-7.5,5.7c-2.2,1.4-4.5,2.7-6.9,3.9
				c-2.8,1.3-5.8,2.5-8.8,3.3c-1.1,0.3-2.2,0.6-3.3,0.9C73.8,117.1,69.3,117.6,64.8,117.6z M65.3,3.3c-1.6,0-3.2,0.1-4.7,0.2
				c-4.1,0.3-8.1,1.1-12,2.3c-1.7,0.5-3.4,1.1-5,1.8c-0.7,0.3-1.3,0.5-1.8,0.8c-5.3,2.4-10.2,5.6-14.6,9.5
				C15.8,28,9.3,41.8,8.5,56.7c-0.7,14.8,4.5,29,14.6,39.9c13.7,14.9,34.6,21.3,54.6,16.7c1-0.2,2.1-0.5,3.2-0.8
				c2.9-0.8,5.7-1.9,8.4-3.2c2.3-1.1,4.5-2.3,6.6-3.7c2.5-1.6,4.9-3.5,7.1-5.5c0.8-0.7,1.5-1.4,2.2-2.1c1.4-1.4,2.8-2.9,4.1-4.5
				c6-7.4,10-16.3,11.6-25.7c2.8-16.9-2.2-33.9-13.9-46.5C100.3,14,91.7,8.6,82.1,5.7c-1.8-0.6-3.7-1-5.6-1.4
				c-1.2-0.2-2.5-0.5-3.8-0.6C70.2,3.5,67.7,3.3,65.3,3.3z M122.2,68.2L122.2,68.2L122.2,68.2z"/>
		</g>
		<g>
			<path fill="#1F1F23" d="M64.8,118c-16.6,0-32.7-6.8-44.1-19.2C10.1,87.2,4.6,72.2,5.4,56.5c0.7-15.8,7.7-30.4,19.6-41
				c4.6-4.2,9.8-7.5,15.4-10.1c0.6-0.3,1.2-0.6,2-0.8c1.7-0.7,3.5-1.3,5.3-1.9c4.1-1.2,8.4-2.1,12.7-2.4C64.5,0,68.8,0.1,73,0.6
				c1.4,0.2,2.7,0.4,4,0.7c2,0.4,4,0.9,5.9,1.5C93,5.9,102,11.6,109.2,19.3C121.6,32.6,127,50.6,124,68.5l0,0
				c-1.7,9.9-5.9,19.3-12.2,27.2c-1.3,1.7-2.8,3.3-4.3,4.7c-0.7,0.7-1.4,1.4-2.3,2.2c-2.4,2.1-4.9,4.1-7.5,5.8
				c-2.2,1.4-4.6,2.7-7,3.9c-2.8,1.3-5.8,2.5-8.9,3.4c-1.1,0.3-2.2,0.6-3.3,0.9C73.9,117.5,69.4,118,64.8,118z M65.3,3.7
				c-1.6,0-3.1,0.1-4.7,0.2c-4,0.3-8.1,1.1-11.9,2.3c-1.7,0.5-3.4,1.1-5,1.8c-0.7,0.3-1.3,0.5-1.8,0.8c-5.3,2.4-10.1,5.6-14.5,9.5
				C16.2,28.2,9.7,41.9,9,56.7c-0.7,14.7,4.4,28.8,14.5,39.6c13.6,14.8,34.4,21.1,54.2,16.6c1-0.2,2.1-0.5,3.1-0.8
				c2.9-0.8,5.7-1.9,8.3-3.2c2.3-1.1,4.5-2.3,6.6-3.7c2.5-1.6,4.9-3.4,7.1-5.4c0.8-0.7,1.5-1.4,2.2-2.1c1.4-1.4,2.8-2.9,4-4.5
				c6-7.4,9.9-16.2,11.5-25.5c2.8-16.8-2.2-33.6-13.8-46.2C99.9,14.5,91.4,9.1,82,6.2c-1.8-0.6-3.7-1-5.6-1.4
				c-1.2-0.2-2.5-0.5-3.8-0.6C70.2,3.9,67.7,3.7,65.3,3.7z M122.2,68.2L122.2,68.2L122.2,68.2z"/>
		</g>
		<g>
			<path fill="#1F1F23" d="M117.9,82.2c-24.3,33.1-73.5,32.4-89.2-4.9c-10.7-25.4,6.4-55.4,31.8-64C79,7,99.8,8.9,117.5,34.5
				c0,0,6,12.5,5.5,22.4s-2.8,19.5-2.8,19.5L117.9,82.2z"/>
		</g>
		<g>
			<path fill="#1F1F23" d="M28.7,77.3c15.7,37.3,64.8,38,89.2,4.9l0.5-1.2c-33.1,18.4-75.6,9.7-92.1-27.7
				C24.8,61.2,25.4,69.5,28.7,77.3z"/>
		</g>
		<g>
			<path fill="#1F1F23" d="M71.9,113.7c-7.2,0-14.2-1.3-20.7-3.9c-13.4-5.3-23.7-15.6-29.5-29.6c-5.4-12.9-5-27.6,1.2-41.4
				C29.7,23.6,43,11.4,58.3,6.1c8.5-2.9,16.7-4,24.3-3.3h0.2H83c10,3.1,19.1,8.8,26.2,16.5c12.3,13.3,17.6,31.2,14.6,49.1l0,0
				c-1.7,9.9-5.9,19.3-12.2,27.1c-1.3,1.7-2.8,3.2-4.3,4.7c-0.7,0.7-1.4,1.4-2.3,2.2c-2.4,2.1-4.9,4-7.5,5.8l-0.2,0.1
				C89.1,111.9,80.4,113.7,71.9,113.7z M78.1,5.9c-6,0-12.2,1.1-18.8,3.3c-14.5,4.9-27,16.5-33.5,31C20,53.2,19.6,67,24.6,79
				c5.5,13.2,15.1,22.8,27.7,27.8c13.4,5.3,29.3,4.8,43.5-1.5c2.5-1.6,4.8-3.4,7-5.4c0.8-0.7,1.5-1.4,2.2-2.1c1.4-1.4,2.8-2.9,4-4.5
				c6-7.4,10-16.2,11.5-25.6l0,0c2.8-16.8-2.2-33.7-13.8-46.3c-6.6-7-15.1-12.4-24.5-15.3C80.8,6,79.5,5.9,78.1,5.9z M122.2,68.2
				L122.2,68.2L122.2,68.2z"/>
		</g>
		<g>
			<path fill="#FFFFFF" d="M3.6,83.3c3.1,10.8,12.1,18.1,20.3,16.3c8.1-1.9,12.2-12.2,9.2-23c0-0.1,0-0.1-0.1-0.2
				c-3.1-10.7-12.1-17.9-20.2-16.1C6.5,61.7,2.6,68.2,2.6,76.1C2.6,78.4,2.9,80.9,3.6,83.3z"/>
		</g>
		<g opacity="0.35">
			<path fill="#361B45" d="M3.6,83.3c3.1,10.8,12.1,18.1,20.3,16.3c8.1-1.9,12.2-12.2,9.2-23c0-0.1,0-0.1-0.1-0.2
				c-0.6,1.3-1.7,2.7-3.6,2.8C25.8,79.3,18,73.7,18,73.7s-6.7,1-15.4,2.4C2.6,78.4,2.9,80.9,3.6,83.3z"/>
		</g>
		<g>
			<path fill="#1F1F23" d="M21.3,101.7c-8.2,0-16.5-7.4-19.4-17.9l0,0C0,77,0.6,70.3,3.6,65.2c2.1-3.5,5.1-5.8,8.8-6.7
				c9-2.1,19.1,5.8,22.4,17.5c1.9,6.8,1.3,13.5-1.7,18.6c-2.1,3.5-5.1,5.8-8.8,6.7C23.3,101.6,22.3,101.7,21.3,101.7z M15.4,61.8
				c-0.7,0-1.5,0.1-2.2,0.2c-2.7,0.6-4.9,2.3-6.5,5c-2.5,4.1-2.9,10-1.3,15.8l0,0C7.9,91.7,14.7,98,21.3,98c0.7,0,1.5-0.1,2.2-0.2
				c2.7-0.6,4.9-2.3,6.5-5c2.5-4.1,2.9-10,1.3-15.8C28.8,68.1,22,61.8,15.4,61.8z"/>
		</g>
		<g>
			<path fill="#FFFFFF" d="M4.9,91.5c4.9,7.3,13.1,9.3,18.2,4.6c5.1-4.8,5.3-14.5,0.3-21.8C18.5,67,10.3,65,5.2,69.7
				C0.1,74.4-0.1,84.2,4.9,91.5z"/>
			<path fill="#361B45" d="M16.6,98.8c-0.4,0-0.8,0-1.2-0.1c-4-0.5-7.9-3.1-10.6-7.2c-5-7.3-4.8-17.2,0.3-22.1
				c2.2-2,4.9-2.9,7.8-2.5c4,0.5,7.9,3.1,10.6,7.2c5,7.3,4.8,17.2-0.3,22.1C21.3,97.9,19.1,98.8,16.6,98.8z M11.7,67.3
				c-2.4,0-4.6,0.9-6.3,2.5c-5,4.7-5.2,14.4-0.3,21.6c2.7,4,6.5,6.6,10.4,7c2.9,0.3,5.5-0.5,7.5-2.4c5-4.7,5.2-14.4,0.3-21.6
				c-2.7-4-6.5-6.6-10.4-7C12.4,67.3,12,67.3,11.7,67.3z"/>
		</g>
		<g opacity="0.35">
			<path fill="#361B45" d="M27.1,86.4c-0.1-3.1-1-6.1-2.5-8.8c-0.4,7-5.6,11.3-12.1,9.6c-4.2-1.1-7.9-4.3-10.3-8.5
				c0,0.4,0,0.9,0,1.4C2.4,87.9,8.1,95.7,15,97.4C21.9,99.1,27.3,94.2,27.1,86.4z"/>
		</g>
		<g>
			<path fill="#1F1F23" d="M16.7,100.3c-6.4,0-13-6.1-15.5-14.9C-0.4,79.7,0,73.9,2.4,69.8C4,67.2,6.3,65.5,9,64.9
				c7.1-1.6,14.8,4.9,17.6,14.7c1.6,5.7,1.2,11.5-1.2,15.6c-1.6,2.6-3.8,4.3-6.5,4.9C18.2,100.2,17.4,100.3,16.7,100.3z M11.1,68
				c-0.5,0-0.9,0-1.4,0.1c-1.8,0.4-3.3,1.6-4.4,3.4c-2,3.3-2.3,8.1-0.9,13l0,0C6.7,92.4,13,98,18.2,96.9c1.8-0.4,3.3-1.6,4.4-3.4
				c2-3.3,2.3-8.1,0.9-13C21.4,73.3,16,68,11.1,68z"/>
		</g>
		<g opacity="0.5">
			<path fill="#FFFFFF" d="M51.2,28.3c0,0,24.7-6.7,42.7,2.5c0,0,0,0,0.1,0c3.8,1.9,7,4.9,9.3,8.4c3,4.7,4.4,8.4,5.4,11.7
				c3.3,10,2.9,15.3,2.9,15.3c4.1-7.1,5.4-14.2,2.7-22.6c-0.3-0.8-0.6-1.7-0.9-2.5c-0.1-0.2-0.2-0.4-0.2-0.6l0,0
				c-0.8-1.7-2-3.8-3.5-6.2c-4.5-7.1-12.2-15.7-23.5-17.2C65,14.4,50.1,27.5,51.2,28.3z"/>
		</g>
		<g opacity="0.5">
			<path fill="#FFFFFF" d="M48.7,58.2c0.2,4.9-3,9.1-7.3,9.3s-7.9-3.6-8.2-8.5c-0.2-4.9,3-9.1,7.3-9.3S48.5,53.3,48.7,58.2z"/>
		</g>
		<g opacity="0.5">
			<path fill="#FFFFFF" d="M45,74.8c-0.1,2-1.6,3.6-3.3,3.6c-1.8-0.1-3.1-1.7-3.1-3.8c0.1-2,1.6-3.6,3.3-3.6
				C43.7,71.1,45.1,72.8,45,74.8z"/>
		</g>
	</g>
	<g>
		<g>
			<path fill="#FFFFFF" d="M130.9,104.2c2.3-2.2,1.5-15.4,5.6-15.1c6.3,0.4,4.7,7.8,4.9,8c0.3,0.1,3.1,1.5,3.4,4.7"/>
		</g>
		<g>
			<path fill="#1F1F23" d="M129.6,102.9c0,0,0.1-0.1,0.1-0.3c0.1-0.2,0.2-0.5,0.2-0.8c0.1-0.6,0.3-1.2,0.4-1.9
				c0.2-1.3,0.4-2.7,0.6-4.1c0.2-1.4,0.5-2.9,1-4.4c0.3-0.8,0.5-1.6,1.1-2.4c0.3-0.4,0.7-0.9,1.3-1.3s1.4-0.6,2.1-0.6
				c0.1,0,0.2,0,0.2,0h0.2c0.1,0,0.2,0,0.3,0c0.2,0,0.4,0.1,0.7,0.1c0.5,0.1,0.9,0.2,1.4,0.4c0.9,0.4,1.8,1,2.4,1.8
				c0.6,0.8,1,1.7,1.3,2.6c0.2,0.9,0.3,1.7,0.3,2.5c0,0.4,0,0.8,0,1.2l-0.1,1l0,0v-0.1v-0.1v-0.1c0-0.1-0.1-0.2-0.1-0.3
				c0-0.1,0,0-0.1-0.2c-0.1-0.1-0.2-0.3-0.3-0.4s-0.3-0.2-0.3-0.2l0,0l0.2,0.1c0.2,0.1,0.4,0.2,0.6,0.4c0.4,0.3,0.7,0.5,1,0.9
				c1.2,1.2,2,3.2,1.7,4.8c-0.1,0.5-0.6,0.8-1.1,0.7c-0.3-0.1-0.5-0.2-0.7-0.5v-0.1c-0.6-1.1-1.2-1.9-2.1-2.5
				c-0.2-0.2-0.4-0.3-0.7-0.4c-0.1-0.1-0.2-0.1-0.3-0.2l-0.2-0.1l0,0c0,0-0.3-0.1-0.4-0.3c-0.1-0.1-0.2-0.2-0.3-0.4
				c-0.1-0.1-0.1-0.1-0.1-0.2s-0.1-0.2-0.1-0.3v-0.1V97v-0.1v-0.1c0-0.1,0-0.2,0-0.3v-1.1c0-0.3,0-0.6,0-0.9
				c-0.1-1.2-0.4-2.2-0.9-2.8c-0.3-0.3-0.5-0.5-0.9-0.7c-0.2-0.1-0.4-0.1-0.6-0.2c-0.1,0-0.2,0-0.4-0.1c-0.1,0-0.1,0-0.2,0h-0.1
				h-0.1h0.1c0,0-0.1,0-0.2,0.2c-0.2,0.3-0.4,0.8-0.6,1.4c-0.4,1.1-0.6,2.5-0.9,3.8c-0.2,1.4-0.5,2.7-0.7,4.2
				c-0.1,0.7-0.3,1.4-0.6,2.2c-0.1,0.4-0.3,0.8-0.5,1.2c-0.2,0.4-0.4,0.9-1,1.4c-0.7,0.7-1.8,0.7-2.5,0
				C128.9,104.8,128.9,103.6,129.6,102.9z"/>
		</g>
	</g>
	<g>
		<path fill="#FFFFFF" d="M311.3,176.5c-7.8,10.2-28.3,6.7-28.3,6.7l-0.3-69.2l-0.1-14c0,0,11.7,0.3,20.5,3.9c4.3,1.8,7.9,4.3,9.3,8
			C317.2,124.7,317.8,168.1,311.3,176.5z"/>
	</g>
	<g opacity="0.35">
		<path fill="#181932" d="M316.1,140.8c0.3,15.2-1.1,30.9-4.7,35.7c-7.8,10.3-28.3,6.7-28.3,6.7l-0.3-83.2c0,0,0.2,0,0.6,0l0.2,64.8
			c0,0,20.5,3.5,28.3-6.7C314,155.4,315.4,148.8,316.1,140.8z"/>
	</g>
	<g>
		<path fill="#1F1F23" d="M291,185.6c-4.5,0-7.9-0.6-8.3-0.6c-1-0.2-1.6-1.1-1.5-2.1c0.2-1,1.1-1.6,2.1-1.5c0.2,0,19.5,3.2,26.6-6
			c5.8-7.6,5.5-50.4,0.9-62.8c-3.1-8.3-21.4-10.6-28.1-10.7c-1,0-1.8-0.9-1.8-1.8c0-1,0.8-1.8,1.8-1.8c1.1,0,26.9,0.8,31.4,13.1
			c2.3,6.3,3.8,19.8,3.7,34.5c0,7.6-0.6,25.8-5.1,31.7C307.7,184.3,298,185.6,291,185.6z"/>
	</g>
	<g>
		<path fill="#FFFFFF" d="M293.7,143.3l-12.9,1c-1.1,0.1-2.1,0.9-2.3,2.1c-0.7,4.2-2,13.8,2.1,17c3.4,2.6,8.8,2.3,12-0.4
			c3.6-3,3.9-12.5,3.8-17.2C296.4,144.4,295.2,143.2,293.7,143.3z"/>
	</g>
	<g opacity="0.35">
		<path fill="#361B45" d="M278.5,146.4c-0.7,4.1-2,13.8,2.1,17c3.4,2.6,8.8,2.3,12-0.4c2.2-1.9,3.2-6.2,3.6-10.3
			c-0.6,2.1-1.5,3.7-2.6,4.8c-6.5,6.3-11.3-1.1-11.3-1.1s-0.8,1.8-1.5,1.9c-2.8,0.4-2.2-8.3-1.8-12.9
			C278.7,145.8,278.6,146.1,278.5,146.4z"/>
	</g>
	<g>
		<path fill="#181932" d="M286.3,166.9c-2.4,0-4.8-0.7-6.7-2.2c-4.6-3.6-3.6-13.2-2.7-18.6c0.3-1.9,1.9-3.3,3.8-3.4l12.9-1l0,0
			c1.1-0.1,2.3,0.3,3.1,1.1c0.8,0.8,1.3,1.9,1.4,3c0.1,6.7-0.6,15.3-4.4,18.5C291.6,166,288.9,166.9,286.3,166.9z M293.9,145
			C293.9,145,293.8,145,293.9,145L293.9,145l-12.9,1c-0.4,0-0.7,0.3-0.8,0.7c-1.4,7.7-0.8,13.6,1.5,15.4c2.7,2.1,7.2,1.9,9.9-0.3
			c2.1-1.8,3.4-7.8,3.2-15.9c0-0.3-0.2-0.5-0.3-0.6C294.4,145.1,294.2,145,293.9,145z M293.7,143.3L293.7,143.3L293.7,143.3z"/>
	</g>
	<g>
		<path fill="#361B45" d="M283.6,148.8c0.2,1.6,0.2,3.2,0.3,4.7c0.1,1.5,0.3,3,0.7,4.4c0.4,1.4,1,2.6,1.8,3.6
			c0.8,0.9,1.9,1.5,3.2,1.8c0.9,0.2,1.5,1.1,1.3,2s-1.1,1.5-2,1.3h-0.1c-0.9-0.3-1.7-0.7-2.5-1.2s-1.5-1.2-2.1-1.9
			c-1.1-1.5-1.7-3.2-2-4.8c-0.3-1.7-0.4-3.3-0.4-4.9c0-1.6,0.1-3.2,0.1-4.6l0,0c0-0.5,0.4-0.9,0.9-0.9
			C283.1,148,283.5,148.4,283.6,148.8z"/>
	</g>
	<g>
		<path fill="#361B45" d="M286.1,110.5c-1.2,0.1-2.4,0.3-3.6,0.5s-2.4,0.4-3.5,0.6c-1.2,0.2-2.3,0.5-3.5,0.8s-2.3,0.6-3.4,1l0,0
			c-0.9,0.3-1.8-0.2-2.1-1.1c-0.3-0.9,0.2-1.8,1.1-2.1c0.1,0,0.1,0,0.2-0.1c1.2-0.2,2.5-0.4,3.7-0.6s2.5-0.3,3.7-0.4
			s2.5-0.1,3.7-0.2c1.2,0,2.5,0,3.7,0c0.4,0,0.7,0.3,0.7,0.7C286.7,110.2,286.4,110.5,286.1,110.5L286.1,110.5z"/>
	</g>
	<g opacity="0.35">
		<path fill="#361B45" d="M300.8,104c-6.1,4.7-13.1,8.1-20.5,10l-0.1-14C280.2,100.1,291.9,100.4,300.8,104z"/>
	</g>
	<g opacity="0.35">
		<path fill="#361B45" d="M251.1,174.6c-0.1,0.8-0.3,1.6-0.4,2.3C250.8,176.2,251,175.4,251.1,174.6z"/>
	</g>
	<g>
		<path fill="#FFFFFF" d="M294.2,153.2c0,0.2,0,0.4,0,0.7c-0.2,5.3-0.9,9.9-2.1,13.4c0,0,0,0,0,0.1s-0.1,0.2-0.1,0.3
			c-0.8,2.3-1.8,4.4-3,6.4c-3.8,6.5-9.5,11.5-16.4,14.5c-3.1,1.4-11.5,4.8-22.7,5c-1.5,0-3,0-4.6-0.1c-7-0.5-23.8-4.5-29.4-14.9
			c-3.7-7-2.9-27.1,1.7-57.6c0.1-0.4,0.1-0.9,0.2-1.3c0.1-0.8,0.2-1.5,0.4-2.3c0.1-0.7,0.2-1.5,0.3-2.2c1.7-10.6,3.7-22.4,6.2-35.3
			l54.5,2.9c2.4,6.4,4.6,12.6,6.4,18.6c0.4,1.3,0.8,2.5,1.1,3.8c0.7,2.3,1.3,4.6,1.9,6.9c0,0.1,0.1,0.2,0.1,0.4
			C292.6,128.2,294.4,142.3,294.2,153.2z"/>
	</g>
	<g opacity="0.35">
		<path fill="#361B45" d="M291.9,167.6c-3.4,9.6-10.3,16.9-19.3,20.9c-3.5,1.6-13.8,5.8-27.3,4.8c-7-0.5-23.8-4.5-29.4-14.9
			c-1.7-3.2-2.5-9.3-2.3-17.9c0.1,5.1,1.4,11.5,2.6,13.8c5.9,11.3,22.2,9,29.2,9.4c13.5,0.8,23.8-2.7,27.3-4c9-3.3,16-9.3,19.3-17.2
			c1.4-3.3,2.2-7.6,2.2-12.9C294.3,157.1,293.5,163.1,291.9,167.6z"/>
	</g>
	<g opacity="0.35">
		<path fill="#361B45" d="M215,139.9c-0.9,8-1.4,14.9-1.5,20.6C213.4,155.2,213.9,148.3,215,139.9z"/>
	</g>
	<g>
		<path fill="#1F1F23" d="M249.2,195.3c-1.3,0-2.7,0-4-0.1H245l-7.3-1.2c-5-1.2-14.1-4.1-20-10.1c-1.4-1.4-2.5-2.9-3.3-4.5
			c-5.2-9.7-2.4-42.3,8.5-99.9c0.2-1,1.1-1.6,2.1-1.4s1.6,1.1,1.4,2.1c-10.6,55.9-13.6,88.8-8.9,97.6c0.7,1.3,1.6,2.5,2.8,3.7
			c5.2,5.4,13.6,8,18.2,9.1l7.1,1.1c11.4,0.8,20.6-2.1,26.4-4.7c8.7-3.9,15.2-11,18.4-19.9c4.6-13,2.4-44-12.9-83.7
			c-0.4-0.9,0.1-2,1-2.3c0.9-0.4,2,0.1,2.3,1c13.5,35.2,18.7,69.8,12.9,86.2c-3.5,9.9-10.7,17.7-20.3,22
			C267.9,192.6,259.5,195.3,249.2,195.3z"/>
	</g>
	<g>
		<path fill="#FFFFFF" d="M251.8,184.5c0,0-2.5,31.5,3.2,53.5c0,0-15.2,9.3-5.5,16.5c10.5,7.9,38,7.6,42.9-2.5
			c5-10.4-2.6-58.8-1.8-93.1L251.8,184.5z"/>
	</g>
	<g opacity="0.35">
		<path fill="#181932" d="M290.6,167.6c0.4,33.3,6.4,74.9,1.8,84.4c-4.9,10.2-32.4,10.4-42.9,2.5c-2.4-1.8-3.3-3.7-3.2-5.6
			c12,6,35.5,5,40-4.3c4.2-8.8-0.5-44.7-1.6-76.3c-4.8,0.4-10.7,0.2-17.4-1.1l-0.2,3.6c-0.2,4.2-3.8,7.5-8,7.2l-35.4-1.8
			c-4.2-0.2-7.5-3.8-7.2-8l0.2-3.9l0.8-14.9c0.2-4.2,3.8-7.5,8-7.2l35.4,1.8c0.5,0,1,0.1,1.5,0.2c3.4,0.9,5.9,4.1,5.7,7.8l-0.2,3.3
			c3.5,0.4,16.9,1.6,26.3-1.5c-0.2,5.3-0.9,9.9-2.1,13.4c0,0,0,0,0,0.1C291.6,167.4,291.1,167.5,290.6,167.6z"/>
	</g>
	<g>
		<path fill="#1F1F23" d="M252.4,184.5c0.6,4.5,0.7,9,0.8,13.4c0.1,4.5,0.1,8.9,0.2,13.3c0.2,4.4,0.5,8.9,1,13.3
			c0.6,4.4,1.3,8.7,2.4,13l0.3,1.3l-1.1,0.7c-0.6,0.4-1.3,0.9-1.9,1.3c-0.6,0.5-1.2,1-1.8,1.5c-1.2,1.1-2.2,2.2-3,3.4
			s-1.2,2.5-1.1,3.6c0.1,0.6,0.2,1.1,0.5,1.6s0.8,1,1.2,1.5c1.1,0.9,2.4,1.7,3.8,2.4c1.4,0.7,2.9,1.2,4.4,1.6s3.1,0.8,4.7,1
			c1.6,0.3,3.2,0.5,4.8,0.5c3.2,0.2,6.5,0.1,9.7-0.3s6.3-1.2,9-2.6c1.3-0.7,2.6-1.6,3.5-2.6c0.2-0.3,0.4-0.5,0.6-0.8l0.2-0.4
			l0.1-0.2l0.1-0.2c0.3-0.6,0.5-1.3,0.6-2.1c0.6-3,0.8-6.4,0.8-9.6c0.1-6.6-0.3-13.3-0.7-20c-0.4-6.7-0.9-13.4-1.3-20.1
			c-0.5-6.7-0.9-13.4-1.2-20.1c-0.1-3.4-0.4-6.7-0.4-10.1c0-3.4,0.3-6.8,1.3-10.1c0.1-0.3,0.5-0.5,0.8-0.4c0.2,0.1,0.4,0.2,0.4,0.4
			l0,0c0.9,3.4,1.2,6.7,1.3,10c0.2,3.3,0.1,6.7,0.2,10c0.3,6.7,0.7,13.4,1.1,20c0.4,6.7,0.9,13.4,1.3,20.1
			c0.4,6.7,0.8,13.4,0.7,20.2c-0.1,3.4-0.2,6.8-0.9,10.4c-0.2,0.9-0.4,1.8-0.9,2.7l-0.1,0.3l-0.2,0.3l-0.4,0.7
			c-0.3,0.4-0.6,0.8-0.9,1.2c-1.3,1.5-2.9,2.6-4.5,3.4c-3.3,1.7-6.8,2.5-10.2,3c-3.5,0.5-6.9,0.6-10.4,0.3c-1.7-0.1-3.5-0.3-5.2-0.6
			c-1.7-0.3-3.4-0.7-5.1-1.1c-3.4-1-6.7-2.3-9.7-4.8c-0.7-0.7-1.4-1.4-2-2.4c-0.5-0.9-0.9-2-1-3.1s0.1-2.2,0.4-3.2
			c0.3-1,0.8-1.9,1.3-2.7c1-1.6,2.3-2.9,3.6-4.1c0.7-0.6,1.3-1.2,2-1.7s1.4-1,2.2-1.6l-0.8,2c-1.1-4.5-1.9-9-2.4-13.5
			c-0.2-2.3-0.5-4.5-0.7-6.8s-0.3-4.5-0.5-6.8c-0.3-4.5-0.4-9-0.2-13.6c0.1-2.3,0.2-4.5,0.5-6.8c0.3-2.2,0.6-4.5,1.3-6.7
			c0.1-0.3,0.4-0.5,0.8-0.4C252.2,184.1,252.4,184.3,252.4,184.5L252.4,184.5z"/>
	</g>
	<g>
		<path fill="#1F1F23" d="M268.9,220.1c-5.8,0-11.9-0.8-17.7-3.2c-0.7-0.3-1-1.1-0.7-1.8s1.1-1,1.8-0.7c17.4,7.2,39.2-0.9,39.5-1
			c0.7-0.3,1.5,0.1,1.8,0.8s-0.1,1.5-0.8,1.8C292,216.2,281.4,220.1,268.9,220.1z"/>
	</g>
	<g>
		<circle fill="#FFFFFF" cx="214.3" cy="152" r="6.8"/>
	</g>
	<g opacity="0.35">
		<path fill="#181932" d="M207.5,152.2c0.1,3.7,3.2,6.7,7,6.6c3.7-0.1,6.7-3.2,6.6-7c0-1-0.3-2-0.7-2.9c-1,2.3-3.3,4-6,4
			c-2.7,0.1-5.1-1.5-6.2-3.7C207.7,150.2,207.5,151.2,207.5,152.2z"/>
	</g>
	<g>
		<path fill="#1F1F23" d="M214.3,160.6c-4.6,0-8.4-3.7-8.6-8.3c-0.1-2.3,0.8-4.5,2.3-6.1c1.6-1.7,3.7-2.6,6-2.7
			c2.3-0.1,4.5,0.8,6.1,2.3c1.7,1.6,2.6,3.7,2.7,6c0.1,4.7-3.6,8.7-8.3,8.8C214.4,160.6,214.4,160.6,214.3,160.6z M214.3,147h-0.1
			c-1.3,0-2.6,0.6-3.5,1.6s-1.4,2.2-1.4,3.6l0,0c0,1.3,0.6,2.6,1.6,3.5s2.2,1.4,3.6,1.4c2.7-0.1,4.9-2.4,4.8-5.1
			c0-1.3-0.6-2.6-1.6-3.5C216.8,147.5,215.6,147,214.3,147z"/>
	</g>
	<g>
		<g opacity="0.35">
			<path fill="#361B45" d="M214,158.2c1.1-7.6,1.4-14.7,1-21c-0.2,3.6-0.5,7.4-1.1,11.4c-0.7,4.7-0.9,9.5-0.5,14.3
				C213.6,161.4,213.8,159.8,214,158.2z"/>
		</g>
		<g>
			<path fill="#FFFFFF" d="M220.5,171.4l35.4,1.8c4.2,0.2,7.8-3,8-7.2l0.9-18.9c0.2-3.7-2.3-6.9-5.7-7.8c-0.5-0.1-1-0.2-1.5-0.2
				l-35.4-1.8c-4.2-0.2-7.8,3-8,7.2l-0.8,14.9l-0.2,3.9C213.1,167.5,216.3,171.1,220.5,171.4z"/>
		</g>
		<g>
			<path fill="#FFFFFF" d="M295.7,146.7c0,0,3.3,2.6,3.4,6.6c0.2,4.7-2.7,6.5-2.7,6.5s-12.7,6.5-33.2,2.2c0,0-6-7.6,0.7-11.9
				C263.9,150.2,285.4,153.1,295.7,146.7z"/>
		</g>
		<g>
			<path fill="#FFFFFF" d="M220.5,171.4l35.4,1.8c4.2,0.2,7.8-3,8-7.2l0.9-18.9c0.2-3.7-2.3-6.9-5.7-7.8c-0.5-0.1-1-0.2-1.5-0.2
				l-35.4-1.8c-4.2-0.2-7.8,3-8,7.2l-0.8,14.9l-0.2,3.9C213.1,167.5,216.3,171.1,220.5,171.4z"/>
		</g>
		<g opacity="0.35">
			<path fill="#181932" d="M220.5,171.4l35.4,1.8c4.2,0.2,7.8-3,8-7.2l0.9-18.9c0.2-3.7-2.3-6.9-5.7-7.8c-2.1,1.2-3.4,2-3.4,2
				c-2.5,15-7.2,22.4-26,21.7c-8.1-0.3-13.2-1.8-16.3-3.6l-0.2,3.9C213.1,167.5,216.3,171.1,220.5,171.4z"/>
		</g>
		<g>
			<path fill="#1F1F23" d="M256.4,174.8c-0.2,0-0.3,0-0.5,0l-35.4-1.8c-5.1-0.3-9.1-4.6-8.8-9.7l0.9-18.9c0.1-2.5,1.2-4.7,3-6.4
				s4.2-2.5,6.7-2.4l35.4,1.8c5.1,0.3,9.1,4.6,8.8,9.7l-0.9,18.9c-0.1,2.5-1.2,4.7-3,6.4C260.8,173.9,258.7,174.8,256.4,174.8z
				 M221.9,138.9c-1.5,0-2.9,0.5-4,1.6c-1.2,1.1-1.9,2.5-2,4.1l-0.9,18.9c-0.2,3.3,2.4,6.1,5.7,6.3l35.4,1.8
				c1.6,0.1,3.1-0.5,4.3-1.5c1.2-1.1,1.9-2.5,2-4.1l0.9-18.9c0.1-1.6-0.5-3.1-1.5-4.3c-1.1-1.2-2.5-1.9-4.1-2l-35.4-1.8
				C222.1,138.9,222,138.9,221.9,138.9z"/>
		</g>
		<g>
			<path fill="#FFFFFF" d="M219.1,171.1c0.5,0.1,0.9,0.2,1.4,0.2l35.4,1.8c3.1,0.2,5.8-1.6,7.2-4.1c0.5-0.9,0.8-2,0.8-3.1l0.4-8.4
				l0.1-2.8l0.4-7.7c0.2-4.2-3.1-7.8-7.2-8l-7.7-0.4c3.5,0.8,6,4.1,5.8,7.8l-0.5,10.2l-0.4,8.7c-0.2,4.2-3.8,7.5-8,7.2L219.1,171.1z
				"/>
		</g>
		<g opacity="0.35">
			<path fill="#361B45" d="M219.1,171.1c0.5,0.1,0.9,0.2,1.4,0.2l35.4,1.8c4.2,0.2,7.8-3,8-7.2l0.6-11.1c-1,1.9-2.7,4.3-5.3,4.4
				c-1.4,0.1-2.7-1-3.9-2.5l-0.4,8.7c-0.2,4.2-3.8,7.5-8,7.2L219.1,171.1z"/>
		</g>
		<g>
			<path fill="#1F1F23" d="M256.4,174.8c-0.2,0-0.3,0-0.5,0l-35.4-1.8c-0.6,0-1.2-0.1-1.7-0.3l0.5-3.2l27.8,1.4
				c1.6,0.1,3.1-0.5,4.3-1.5c1.2-1.1,1.9-2.6,2-4.1l0.9-18.9c0.1-2.9-1.8-5.5-4.6-6.1l0.5-3.2l7.7,0.4c2.5,0.1,4.7,1.2,6.4,3
				c1.7,1.8,2.5,4.2,2.4,6.7l-0.9,18.9l0,0c-0.1,2.5-1.2,4.7-3,6.4C260.8,173.9,258.7,174.8,256.4,174.8z M253.9,171.4l2.1,0.1
				c1.6,0.1,3.1-0.5,4.3-1.5c1.2-1.1,1.9-2.6,2-4.1l0,0l0.9-18.9c0.1-1.6-0.5-3.1-1.5-4.3c-1.1-1.2-2.6-1.9-4.1-2l-1.9-0.1
				c1.2,1.7,1.9,3.8,1.8,6l-0.9,18.9C256.4,167.7,255.5,169.8,253.9,171.4z"/>
		</g>
		<g>
			<path fill="#69B479" d="M241.4,155.3c0,0.7,0.7,6.4,0.7,6.4s1.8,0.1,4,0.2c2.7,0.1,5.1-2.6,5.2-6.1s-1.9-6.4-4.7-6.5
				c-1.8-0.1-4-0.2-4-0.2S241.5,154.2,241.4,155.3z"/>
		</g>
		<g opacity="0.35">
			<path fill="#EDDF5E" d="M241.4,155.3c0,0.7,0.7,6.4,0.7,6.4s1.8,0.1,4,0.2c2.7,0.1,5.1-2.6,5.2-6.1s-1.9-6.4-4.7-6.5
				c-1.8-0.1-4-0.2-4-0.2S241.5,154.2,241.4,155.3z"/>
		</g>
		<g>
			<path fill="#1F1F23" d="M246.3,163c-0.1,0-0.2,0-0.2,0l-2.8-0.1c-1.2-0.1-2.2-1-2.4-2.2c-0.6-4.7-0.6-5.2-0.6-5.3l0,0
				c0-0.7,0.4-2.5,1-5.3c0.3-1.2,1.4-2,2.6-2l2.8,0.1c1.7,0.1,3.2,0.9,4.3,2.5c1,1.4,1.5,3.3,1.5,5.2c-0.1,1.9-0.8,3.7-1.9,5.1
				C249.3,162.2,247.8,163,246.3,163z M242.5,155.4c0,0.3,0.1,1.7,0.5,5c0,0.2,0.2,0.3,0.3,0.3l2.8,0.1c1,0.1,1.9-0.4,2.7-1.3
				c0.8-1,1.3-2.3,1.4-3.7s-0.3-2.8-1.1-3.9c-0.7-1-1.6-1.5-2.6-1.6l-2.8-0.1c-0.2,0-0.3,0.1-0.4,0.3
				C242.9,153,242.5,154.9,242.5,155.4z"/>
		</g>
		<g>
			
				<ellipse transform="matrix(-0.0443 0.999 -0.999 -0.0443 408.3065 -79.9456)" fill="#EDDF5E" cx="242.393" cy="155.331" rx="6.3" ry="5"/>
		</g>
		<g opacity="0.7">
			<path fill="#FFFFFF" d="M237.5,156.5c0.6-2.8,2.7-4.9,5.1-4.8c2.4,0.1,4.3,2.3,4.6,5.2c0.1-0.4,0.2-0.9,0.2-1.3
				c0.2-3.5-1.9-6.4-4.7-6.5c-2.7-0.1-5.1,2.6-5.2,6.1C237.4,155.6,237.4,156.1,237.5,156.5z"/>
		</g>
		<g opacity="0.35">
			<path fill="#361B45" d="M242.1,161.7c2.7,0.1,5.1-2.6,5.2-6.1c0-0.9-0.1-1.7-0.3-2.5c-0.7,2.6-2.7,4.4-5,4.3
				c-2-0.1-3.7-1.8-4.4-4c-0.2,0.6-0.3,1.2-0.3,1.8C237.3,158.6,239.4,161.6,242.1,161.7z"/>
		</g>
		<g>
			<path fill="#1F1F23" d="M242.3,162.8c-0.1,0-0.2,0-0.2,0c-1.7-0.1-3.2-0.9-4.3-2.5c-1-1.4-1.5-3.3-1.5-5.2l0,0
				c0.2-4.1,3-7.3,6.4-7.2c1.7,0.1,3.2,0.9,4.3,2.5c1,1.4,1.5,3.3,1.5,5.2c-0.1,1.9-0.8,3.7-1.9,5.1
				C245.4,162.1,243.9,162.8,242.3,162.8z M238.5,155.2c-0.1,1.4,0.3,2.8,1.1,3.9c0.7,1,1.6,1.5,2.6,1.6c1,0,1.9-0.4,2.7-1.3
				c0.8-1,1.3-2.3,1.4-3.7c0.1-1.4-0.3-2.8-1.1-3.9c-0.7-1-1.6-1.5-2.6-1.6C240.5,150,238.7,152.3,238.5,155.2L238.5,155.2z"/>
		</g>
		<g>
			<path fill="#1F1F23" d="M231.6,173.1C231.5,173.1,231.5,173.1,231.6,173.1c-0.8,0-1.4-0.6-1.3-1.4l0.3-11.5c0-0.5-0.2-1-0.7-1.3
				l-3.3-2.3c-1.2-0.8-1.9-2.2-1.8-3.7l0.7-15.5c0-0.7,0.7-1.3,1.4-1.3s1.3,0.7,1.3,1.4l-0.7,15.5c0,0.5,0.2,1,0.7,1.3l3.3,2.3
				c1.2,0.8,1.8,2.2,1.8,3.6l-0.3,11.5C232.9,172.5,232.3,173.1,231.6,173.1z"/>
		</g>
	</g>
	<g>
		<path fill="#FFFFFF" d="M295.7,146.7c0,0,3.3,2.6,3.4,6.6c0.2,4.7-2.7,6.5-2.7,6.5s-12.7,6.5-33.2,2.2c0,0-6-7.6,0.7-11.9
			C263.9,150.2,285.4,153.1,295.7,146.7z"/>
	</g>
	<g opacity="0.35">
		<path fill="#361B45" d="M299.1,153.3c0.2,4.6-2.7,6.5-2.7,6.5s-12.7,6.5-33.2,2.2c0,0-2-2.5-2.4-5.4c0.1,0.1,0.2,0.2,0.2,0.2
			c14.9,3.2,25.8,0.5,30.5-1.2c3.3-1.1,5.5-4.1,5.4-7.5V148c0-0.1,0-0.2,0-0.2C297.8,149,299,150.9,299.1,153.3z"/>
	</g>
	<g>
		<path fill="#1F1F23" d="M276.9,165.4c-4.2,0-8.9-0.4-14.1-1.5l-0.6-0.1l-0.4-0.5c-0.1-0.2-3.5-4.5-2.8-9c0.4-2.3,1.7-4.1,3.9-5.5
			l0.6-0.4l0.7,0.1c0.2,0,21.1,2.8,30.6-3.2l1.1-0.7l1,0.8c0.2,0.1,3.9,3.2,4.1,8c0.2,5.6-3.4,8-3.6,8.1l-0.2,0.1
			C296.8,161.7,289.4,165.4,276.9,165.4z M264.2,160.5c18.2,3.7,30-1.6,31.2-2.2c0.3-0.3,2-1.7,1.9-4.9c-0.1-2-1.1-3.5-1.9-4.5
			c-10,5.3-27.3,3.6-31.1,3.1c-1,0.8-1.6,1.7-1.8,2.7C262.2,157,263.6,159.4,264.2,160.5z"/>
	</g>
	<g>
		<path fill="#1F1F23" d="M277.8,240.6c-1.8-0.9-3.6-1.5-5.5-2s-3.8-0.7-5.7-0.8c-1.9-0.1-3.8,0-5.7,0.4c-0.9,0.1-1.8,0.4-2.7,0.6
			c-0.5,0.1-0.9,0.3-1.3,0.4l-1.3,0.5h-0.1c-0.9,0.3-2-0.1-2.3-1.1c-0.3-0.9,0.1-2,1.1-2.3c0.1,0,0.2-0.1,0.3-0.1l1.5-0.3
			c0.5-0.1,1-0.2,1.5-0.3c1-0.1,2.1-0.2,3.1-0.2c2.1-0.1,4.1,0.1,6.1,0.5s4,1,5.8,1.7C274.4,238.5,276.2,239.4,277.8,240.6z"/>
	</g>
	<g>
		<g opacity="0.35">
			<path fill="#181932" d="M285.5,101.2c-13.2,15.6-30.8,23.4-47.5,22.2c-1.1-0.1-2.2-0.2-3.3-0.4c-3-0.4-6-1.2-8.9-2.2
				c-2.4-0.9-4.8-2-7.1-3.3c-0.2-0.1-0.3-0.2-0.5-0.3c0.1-0.7,0.2-1.5,0.3-2.2c1.7-10.6,3.7-22.4,6.2-35.3l54.5,2.9
				C281.5,89,283.6,95.2,285.5,101.2z"/>
		</g>
		<g>
			<path fill="#FFFFFF" d="M189.3,75.2c2.7,9.2,7.8,17.7,15.1,24.6c1.5,1.4,3,2.8,4.7,4c0.8,0.6,1.6,1.2,2.5,1.8
				c2.6,1.8,5.2,3.3,7.9,4.6c2.3,1.1,4.8,2.1,7.2,2.9c2.9,1,5.9,1.7,9,2.2c1.1,0.2,2.2,0.3,3.3,0.4c20.2,2,40.8-6.4,53.3-23.9
				c18.4-25.8,12.1-61.4-14-79.6c-5-3.5-10.5-6.1-16-7.8c-0.7-0.2-1.3-0.4-2-0.6c-1.8-0.5-3.6-0.9-5.3-1.2c-4.1-0.7-8.3-1-12.5-0.8
				c-4.1,0.2-8.3,0.8-12.3,1.8c-1.3,0.3-2.5,0.7-3.8,1.1c-1.9,0.6-3.7,1.3-5.5,2.2c-9,4.1-17.2,10.5-23.3,19.1
				C186.9,41,184.5,59.1,189.3,75.2z"/>
			<path fill="#361B45" d="M244.9,116.3c-2,0-4-0.1-6-0.3c-1.1-0.1-2.2-0.3-3.3-0.4c-3.1-0.5-6.1-1.2-9-2.2
				c-2.5-0.8-4.9-1.8-7.2-2.9c-2.8-1.3-5.4-2.9-8-4.6c-0.9-0.7-1.7-1.2-2.5-1.8c-1.6-1.3-3.2-2.6-4.7-4.1
				c-7.1-6.8-12.3-15.3-15.1-24.7c-5.1-16.9-2.1-34.8,8.2-49.2c5.9-8.3,14-14.9,23.4-19.1c1.8-0.8,3.6-1.5,5.6-2.2
				c1.2-0.4,2.5-0.8,3.8-1.1c4-1,8.2-1.7,12.3-1.8c4.2-0.2,8.4,0.1,12.5,0.8c1.8,0.3,3.6,0.7,5.4,1.2c0.7,0.2,1.4,0.4,2,0.6
				c5.7,1.8,11.1,4.4,16.1,7.8c12.7,8.8,21.2,22.1,23.8,37.2c2.6,15-0.9,30.2-9.8,42.6C281.5,107.3,263.7,116.3,244.9,116.3z
				 M189.5,75.2c2.8,9.3,8,17.8,15,24.6c1.5,1.4,3.1,2.8,4.7,4c0.7,0.6,1.5,1.2,2.5,1.8c2.5,1.7,5.2,3.3,7.9,4.6
				c2.3,1.1,4.7,2.1,7.2,2.9c2.9,0.9,5.9,1.7,8.9,2.2c1.1,0.2,2.2,0.3,3.3,0.4c20.8,2.1,41.2-7,53.2-23.8
				c8.8-12.4,12.3-27.4,9.7-42.3c-2.6-15-11-28.2-23.7-37c-4.9-3.4-10.3-6-16-7.8c-0.6-0.2-1.3-0.4-2-0.6c-1.8-0.5-3.5-0.9-5.3-1.2
				c-4.1-0.7-8.3-1-12.4-0.8c-4.1,0.2-8.2,0.8-12.2,1.8c-1.3,0.3-2.6,0.7-3.8,1.1c-1.9,0.6-3.8,1.4-5.5,2.2
				c-9.3,4.2-17.3,10.7-23.2,19C187.4,40.5,184.5,58.4,189.5,75.2z"/>
		</g>
		<g opacity="0.35">
			<path fill="#361B45" d="M292.3,91.9c-12.5,17.5-33.2,26-53.4,23.9c-1.1-0.1-2.2-0.3-3.3-0.4c-3-0.5-6-1.2-9-2.2
				c-2.4-0.8-4.8-1.8-7.2-2.9c-2.7-1.3-5.4-2.9-8-4.6c-0.8-0.6-1.7-1.2-2.5-1.8c-1.7-1.3-3.2-2.6-4.7-4.1
				c-7.2-7-12.3-15.5-15.1-24.6c-1.5-5-2.3-10.3-2.4-15.5c2.8,8.7,7.8,16.7,14.7,23.4c1.5,1.4,3,2.8,4.7,4.1
				c0.8,0.6,1.6,1.2,2.5,1.8c2.6,1.8,5.2,3.3,7.9,4.6c2.4,1.1,4.8,2.1,7.2,2.9c2.9,1,5.9,1.7,9,2.2c1.1,0.2,2.2,0.3,3.3,0.4
				c20.2,2,40.8-6.4,53.4-23.9c7.3-10.2,10.7-22,10.6-33.6C305.4,58.1,303.2,76.7,292.3,91.9z"/>
		</g>
		<g>
			<path fill="#361B45" d="M244.9,117.5c-2,0-4-0.1-6.1-0.3c-1.1-0.1-2.3-0.3-3.4-0.4c-3.1-0.5-6.2-1.2-9.2-2.2
				c-2.5-0.8-5-1.8-7.4-3c-2.8-1.4-5.5-2.9-8.1-4.7c-0.9-0.7-1.8-1.3-2.5-1.9c-1.7-1.3-3.3-2.7-4.8-4.1
				c-7.2-6.9-12.6-15.7-15.4-25.2c-5.2-17.3-2.1-35.6,8.4-50.3c6.1-8.5,14.3-15.2,23.9-19.5c1.8-0.8,3.7-1.6,5.7-2.2
				c1.3-0.4,2.6-0.8,3.9-1.1c4.1-1.1,8.3-1.7,12.6-1.9s8.6,0.1,12.8,0.8c1.8,0.3,3.7,0.7,5.5,1.2c0.7,0.2,1.4,0.4,2,0.6
				c5.8,1.8,11.3,4.5,16.4,8c13,9,21.7,22.5,24.3,38c2.7,15.3-0.9,30.8-10,43.5C282.2,108.4,264,117.5,244.9,117.5z M190.6,74.8
				c2.7,9.1,7.8,17.4,14.7,24c1.5,1.4,3,2.7,4.6,4c0.7,0.6,1.5,1.2,2.4,1.8c2.5,1.7,5.1,3.2,7.8,4.5c2.2,1.1,4.6,2,7,2.8
				c2.8,0.9,5.8,1.6,8.7,2.1c1.1,0.2,2.1,0.3,3.2,0.4c20.4,2.1,40.3-6.9,52.1-23.3c8.7-12.1,12-26.8,9.5-41.4
				C298,35,289.8,22.1,277.4,13.5c-4.8-3.4-10.1-5.9-15.7-7.6c-0.6-0.2-1.2-0.4-1.9-0.6c-1.7-0.5-3.5-0.9-5.2-1.2
				c-4-0.7-8.1-1-12.2-0.8c-4,0.2-8.1,0.8-12,1.8c-1.3,0.3-2.5,0.7-3.7,1.1c-1.9,0.6-3.7,1.3-5.4,2.1c-9.1,4.1-16.9,10.5-22.7,18.6
				C188.6,40.9,185.7,58.4,190.6,74.8z"/>
		</g>
		<g>
			<path fill="#1F1F23" d="M244.9,117.9c-2,0-4.1-0.1-6.1-0.3c-1.1-0.1-2.3-0.3-3.4-0.4c-3.1-0.5-6.3-1.3-9.2-2.2
				c-2.5-0.8-5-1.8-7.4-3c-2.8-1.4-5.6-3-8.2-4.8c-1-0.7-1.8-1.3-2.6-1.9c-1.7-1.3-3.3-2.7-4.8-4.2c-7.3-7-12.6-15.8-15.5-25.4
				c-5.2-17.4-2.1-35.8,8.4-50.6c6.1-8.6,14.4-15.3,24-19.7c1.8-0.8,3.7-1.6,5.7-2.2c1.3-0.4,2.6-0.8,3.9-1.2
				c4.1-1.1,8.4-1.7,12.7-1.9C246.6,0,251,0.3,255.2,1c1.8,0.3,3.7,0.7,5.5,1.2c0.7,0.2,1.4,0.4,2,0.6c5.8,1.8,11.4,4.5,16.5,8.1
				c13.1,9.1,21.8,22.7,24.5,38.3c2.7,15.5-0.9,31-10,43.8C282.5,108.7,264.2,117.9,244.9,117.9z M191,74.7
				c2.7,9,7.7,17.3,14.6,23.9c1.4,1.4,3,2.7,4.5,3.9c0.7,0.6,1.5,1.1,2.4,1.8c2.4,1.7,5,3.2,7.7,4.5c2.2,1.1,4.6,2,7,2.8
				c2.8,0.9,5.7,1.6,8.7,2.1c1.1,0.2,2.1,0.3,3.2,0.4c20.2,2.1,40-6.8,51.7-23.2c8.6-12,11.9-26.6,9.4-41.1
				c-2.5-14.6-10.7-27.4-23-35.9c-4.8-3.3-10-5.9-15.5-7.6c-0.6-0.2-1.2-0.4-1.9-0.6c-1.7-0.5-3.5-0.9-5.2-1.2
				c-4-0.7-8-0.9-12.1-0.8c-4,0.2-8,0.8-11.9,1.8c-1.2,0.3-2.5,0.7-3.7,1.1c-1.9,0.6-3.7,1.3-5.4,2.1c-9,4-16.8,10.4-22.6,18.5
				C189,41.1,186.2,58.4,191,74.7z"/>
		</g>
		<g>
			<path fill="#1F1F23" d="M195.3,88.6c28.3,29.8,77,23,87.9-15.9c7.4-26.5-13.2-54.2-39.5-59.6c-19.1-3.9-39.6,0.5-53.9,28.1
				c0,0-4.4,13.2-2.6,23s5.2,19,5.2,19L195.3,88.6z"/>
		</g>
		<g>
			<path fill="#1F1F23" d="M283.2,72.7c-10.9,39-59.6,45.8-87.9,15.9l-0.6-1.1c35.2,14.1,76.2,0.2,88-39
				C285.1,56.2,285.5,64.5,283.2,72.7z"/>
		</g>
		<g>
			<path fill="#1F1F23" d="M237.3,114.6c-6.1,0-12.3-0.9-18.3-2.7l-0.2-0.1c-2.8-1.4-5.6-3-8.2-4.8c-1-0.7-1.8-1.3-2.6-1.9
				c-1.7-1.3-3.3-2.7-4.8-4.2c-7.3-7-12.6-15.7-15.5-25.4c-5.2-17.3-2.1-35.7,8.4-50.5c6.1-8.5,14.4-15.3,24-19.6l0.2-0.1h0.2
				c7.5-1.6,15.7-1.6,24.6,0.2c15.9,3.3,30.5,13.8,39.3,28.1c7.9,12.9,10.1,27.4,6.4,40.9c-4.1,14.6-13,26.1-25.6,33
				C256.7,112.3,247.1,114.6,237.3,114.6z M220.1,108.8c14.9,4.5,30.7,3,43.3-3.9c11.9-6.5,20.2-17.3,24.1-31
				c3.5-12.6,1.4-26.2-6-38.3C273.2,22,259.3,12,244.3,8.9c-8.3-1.7-16-1.8-23-0.3c-9,4.1-16.8,10.4-22.5,18.4
				c-9.9,13.9-12.8,31.3-7.9,47.6c2.7,9.1,7.8,17.3,14.6,23.9c1.5,1.4,3,2.7,4.6,3.9c0.7,0.6,1.5,1.1,2.4,1.8
				C214.9,106.1,217.4,107.5,220.1,108.8z"/>
		</g>
		<g>
			<path fill="#FFFFFF" d="M308.8,75.5c-1.7,11.1-9.8,19.5-18.1,18.7c-8.3-0.8-13.6-10.6-12-21.7c0-0.1,0-0.1,0-0.2
				c1.8-11,9.8-19.3,18-18.4c6.4,0.6,11.1,6.6,12.1,14.4C309.2,70.5,309.2,73,308.8,75.5z"/>
		</g>
		<g opacity="0.35">
			<path fill="#181932" d="M308.8,75.5c-1.7,11.1-9.8,19.5-18.1,18.7c-8.3-0.8-13.6-10.6-12-21.7c0-0.1,0-0.1,0-0.2
				c0.7,1.2,2,2.5,4,2.3c3.5-0.3,10.6-6.9,10.6-6.9s6.7,0.2,15.5,0.5C309.2,70.5,309.2,73,308.8,75.5z"/>
		</g>
		<g>
			<path fill="#1F1F23" d="M291.9,96c-0.4,0-0.9,0-1.3-0.1c-3.7-0.4-7-2.3-9.6-5.5c-3.6-4.6-5-11.3-4-18.2
				c1.8-12.1,10.8-21.1,20-20.2c3.7,0.4,7,2.3,9.6,5.5c3.6,4.6,5,11.3,4,18.2l0,0C308.9,87.2,300.6,96,291.9,96z M295.7,55.5
				c-7,0-13.7,7.4-15.1,17.2c-0.9,5.9,0.3,11.7,3.3,15.5c1.9,2.4,4.3,3.9,7.1,4.2c7.3,0.7,14.6-6.9,16.1-17.1l0,0
				c0.9-5.9-0.3-11.7-3.3-15.5c-1.9-2.4-4.3-3.9-7.1-4.2C296.4,55.6,296,55.5,295.7,55.5z M308.8,75.5L308.8,75.5L308.8,75.5z"/>
		</g>
		<g>
			<path fill="#FFFFFF" d="M308.6,83.8c-4,7.8-11.8,10.9-17.5,6.8s-7-13.8-3-21.6s11.8-10.9,17.5-6.8
				C311.2,66.2,312.6,75.9,308.6,83.8z"/>
			<path fill="#361B45" d="M296.7,92.6c-2,0-3.9-0.6-5.6-1.9c-5.7-4.1-7.1-13.9-3.1-21.8c2.2-4.4,5.8-7.5,9.7-8.4
				c2.9-0.7,5.7-0.2,8.1,1.6c5.7,4.1,7.1,13.9,3.1,21.8c-2.2,4.4-5.8,7.5-9.7,8.4C298.3,92.5,297.5,92.6,296.7,92.6z M300.1,60.5
				c-0.8,0-1.6,0.1-2.4,0.3c-3.8,0.9-7.2,3.9-9.4,8.2c-3.9,7.8-2.6,17.3,3,21.4c2.3,1.7,5,2.2,7.8,1.5c3.8-0.9,7.2-3.9,9.4-8.2l0,0
				c3.9-7.8,2.6-17.3-3-21.4C303.8,61.1,302,60.5,300.1,60.5z"/>
		</g>
		<g opacity="0.35">
			<path fill="#181932" d="M285.9,81.5c-0.3-3.1,0.2-6.2,1.4-9.1c1.3,6.9,7,10.5,13.2,8.1c4-1.6,7.3-5.3,9.1-9.7
				c0.1,0.4,0.1,0.9,0.2,1.4c0.8,7.8-4,16.2-10.6,18.8C292.6,93.5,286.7,89.2,285.9,81.5z"/>
		</g>
		<g>
			<path fill="#1F1F23" d="M296.7,94.1c-0.3,0-0.6,0-0.9,0c-2.8-0.3-5.2-1.7-7.1-4.1c-2.9-3.7-4.1-9.4-3.2-15.3
				c1.6-10.1,8.5-17.4,15.7-16.8c2.8,0.3,5.2,1.7,7.1,4.1c2.9,3.7,4.1,9.4,3.2,15.3l0,0C310,86.9,303.6,94.1,296.7,94.1z
				 M300.3,61.1c-5.1,0-10.3,6.2-11.6,14c-0.8,5,0.2,9.8,2.5,12.8c1.3,1.7,3,2.7,4.8,2.8c5.3,0.5,10.9-5.9,12.1-14l0,0
				c0.8-5-0.2-9.8-2.5-12.8c-1.3-1.7-3-2.7-4.8-2.8C300.7,61.1,300.5,61.1,300.3,61.1z"/>
		</g>
		<g opacity="0.5">
			<path fill="#FFFFFF" d="M254,27.4c0,0-25-3.5-41.6,7.7c0,0,0,0-0.1,0c-3.5,2.4-6.2,5.6-8,9.4c-2.4,5-3.3,8.8-3.9,12.1
				c-2,10.2-1,15.4-1,15.4c-4.9-6.5-7-13.3-5.4-21.8c0.2-0.8,0.3-1.7,0.6-2.6c0.1-0.2,0.1-0.4,0.2-0.6l0,0c0.6-1.7,1.4-4,2.6-6.5
				c3.6-7.5,10.1-16.8,21-19.7C238.8,15.5,255.1,26.5,254,27.4z"/>
		</g>
		<g opacity="0.5">
			<path fill="#FFFFFF" d="M261.5,56.1c0.4,4.9,4.1,8.6,8.4,8.3c4.3-0.3,7.4-4.5,7.1-9.4c-0.4-4.9-4.1-8.6-8.4-8.3
				C264.3,47,261.2,51.2,261.5,56.1z"/>
		</g>
		<g opacity="0.5">
			<path fill="#FFFFFF" d="M267.3,72.2c0.3,2,2,3.4,3.7,3.1s2.9-2.1,2.6-4.1s-2-3.4-3.7-3.1C268.1,68.3,267,70.1,267.3,72.2z"/>
		</g>
	</g>
	<g>
		<path fill="#FFFFFF" d="M318.8,117.5c-11.5,19.1-35.7,18.7-35.7,18.7l-8-27.7c0,0,9.2-5.3,11.5-13.2c3.3-11.3-3.5-32.8-3.5-32.8
			s-4.4,2.5-9.2-1.2c-16-12.3-4.3-22.2-3.8-22.6l0,0c-0.3,0-11.4,1.2-12.4-5.6c-0.1-0.6,0-1.2,0.1-1.7c2-6.3,20.4-9.1,27.5-7
			C315.1,33.1,333.5,93,318.8,117.5z"/>
	</g>
	<g opacity="0.35">
		<path fill="#361B45" d="M281.5,33.9c-4.2,0.7-8.5,3-11.4,4.8c-0.3,0-11.4,1.2-12.4-5.6c-0.1-0.6,0-1.2,0.1-1.7
			c2.3,2.7,7.2,3.2,12.6,2.2C277.5,32.1,281.5,33.9,281.5,33.9z"/>
	</g>
	<g opacity="0.35">
		<path fill="#181932" d="M273.9,61.3c-10.1-7.7-9.2-14.5-7-18.6c1.3,2.1,0.5,6.6,5.6,9.9c8.6,5.5,18.4-1.5,19.5,1.1
			c2.1,4.6-8.2,12.7-5.3,25.3c-1.2-8.7-3.7-16.6-3.7-16.6S278.7,65,273.9,61.3z"/>
	</g>
	<g opacity="0.35">
		<path fill="#181932" d="M318.8,117.5c-11.5,19.1-35.7,18.7-35.7,18.7l0,0c-1.9-4.5,0.6-9.6,5.4-10.8c9.1-2.3,22.6-7.7,29.8-19.7
			c3.3-5.4,4.9-12.6,5.2-20.5C324.9,97.7,323.6,109.5,318.8,117.5z"/>
	</g>
	<g>
		<path fill="#1F1F23" d="M283.1,135.6c4-0.7,7.9-1.7,11.7-2.9c3.8-1.2,7.4-2.8,10.8-4.8c3.3-2,6.4-4.5,8.9-7.5
			c1.2-1.5,2.4-3.1,3.3-4.8l0.7-1.3c0.2-0.4,0.4-0.9,0.6-1.3s0.4-0.9,0.6-1.3l0.5-1.4c1.2-3.7,1.8-7.7,2.1-11.7c0.2-4,0.1-8-0.3-12
			s-1.1-8-2.1-11.9c-0.9-3.9-2.1-7.8-3.5-11.6c-1.4-3.8-3-7.5-4.9-11.1s-4-7-6.3-10.2c-2.4-3.2-5-6.2-8-8.8s-6.3-4.8-9.9-6.2
			l-1.4-0.5c-0.4-0.1-0.9-0.4-1.3-0.4c-0.8-0.2-1.8-0.3-2.7-0.4c-1.9-0.1-3.9-0.1-5.9,0.1c-3.9,0.3-7.9,1.1-11.4,2.6
			c-0.9,0.4-1.7,0.8-2.5,1.3s-1.4,1-1.9,1.6c-0.4,0.6-0.6,1.1-0.6,1.6v0.2l0.1,0.3c0,0.2,0.1,0.3,0.1,0.5c0.1,0.3,0.3,0.6,0.5,0.9
			c0.8,1.1,2.4,1.8,4.2,2.2c0.9,0.2,1.8,0.3,2.8,0.3c0.5,0,0.9,0,1.4,0s1,0,1.4-0.1c1-0.1,1.9,0.6,2,1.6c0.1,0.6-0.2,1.2-0.6,1.6
			l0,0c-0.1,0.1-0.2,0.2-0.3,0.3c-0.1,0.1-0.2,0.2-0.3,0.3c-0.2,0.2-0.5,0.5-0.7,0.8c-0.4,0.5-0.8,1.1-1.1,1.6
			c-0.7,1.1-1.1,2.4-1.3,3.6c-0.4,2.5,0.4,5.1,2,7.4c0.8,1.1,1.7,2.2,2.7,3.2c0.5,0.5,1.1,1,1.6,1.5l0.9,0.7l0.4,0.3l0.4,0.3
			c1.1,0.7,2.2,1.2,3.4,1.3c0.6,0.1,1.2,0.1,1.8,0c0.3-0.1,0.6-0.1,0.9-0.2c0.1,0,0.3-0.1,0.4-0.1s0.3-0.1,0.3-0.1l0.3-0.1
			c0.9-0.4,1.9,0.1,2.3,1v0.1c1.3,4.2,2.3,8.4,3.1,12.6c0.8,4.3,1.3,8.6,1.4,13c0,0.6,0,1.1,0,1.7s0,1.1-0.1,1.7l-0.2,1.7
			c0,0.6-0.2,1.1-0.3,1.7c-0.1,0.6-0.2,1.1-0.4,1.7c-0.2,0.6-0.4,1.2-0.6,1.7c-0.5,1.1-1.1,2.1-1.7,3.1c-1.3,1.9-2.9,3.6-4.7,4.9
			c-0.9,0.7-1.8,1.3-2.8,1.8s-2,1-3.1,1.4c-0.3,0.1-0.7-0.1-0.8-0.4c-0.1-0.2,0-0.5,0.1-0.6l0,0c3-3,5.9-5.9,8-9.2
			c0.5-0.8,1-1.7,1.3-2.5c0.1-0.2,0.2-0.4,0.3-0.6l0.2-0.7c0.1-0.2,0.1-0.5,0.2-0.7l0.2-0.7c0.3-0.9,0.3-1.9,0.5-2.9
			c0.1-0.5,0.1-1,0.1-1.5s0.1-1,0.1-1.5c0-4.1-0.6-8.3-1.3-12.4c-0.8-4.1-1.8-8.2-3-12.2l2.6,1l-0.2,0.1l-0.2,0.1
			c-0.1,0-0.2,0.1-0.3,0.1c-0.2,0.1-0.4,0.2-0.7,0.2c-0.4,0.1-0.9,0.2-1.4,0.3c-0.9,0.2-1.9,0.2-2.8,0.1c-1.9-0.2-3.6-0.9-5.1-1.9
			l-0.5-0.4l-0.5-0.4l-0.9-0.8c-0.6-0.5-1.2-1.1-1.8-1.6c-1.2-1.1-2.2-2.4-3.2-3.8c-0.9-1.4-1.7-2.9-2.2-4.6
			c-0.5-1.7-0.6-3.5-0.3-5.3c0.3-1.8,0.9-3.4,1.8-4.9c0.4-0.7,0.9-1.5,1.5-2.1c0.3-0.3,0.6-0.7,0.9-1c0.1-0.2,0.3-0.3,0.5-0.5
			s0.3-0.3,0.5-0.5l1.3,3.2c-0.6,0.1-1.1,0.1-1.7,0.1s-1.1,0-1.7,0c-1.1,0-2.2-0.2-3.3-0.4c-1.1-0.2-2.3-0.6-3.4-1.1
			c-1.1-0.6-2.2-1.3-3-2.5c-0.4-0.5-0.7-1.2-1-1.8c-0.1-0.3-0.2-0.6-0.3-1l-0.1-0.5c0-0.2,0-0.4,0-0.6c0-0.2,0-0.4,0-0.6l0.1-0.6
			c0-0.4,0.2-0.7,0.3-1.1c0.1-0.4,0.3-0.7,0.5-1s0.4-0.6,0.6-0.9c0.8-1,1.8-1.8,2.8-2.4s2-1.1,3-1.5c2-0.8,4.1-1.4,6.2-1.9
			c2.1-0.4,4.2-0.8,6.3-0.9c2.1-0.2,4.3-0.2,6.4-0.1c1.1,0.1,2.2,0.2,3.3,0.5c0.6,0.1,1.1,0.3,1.6,0.5l1.5,0.5
			c4.1,1.6,7.7,4,10.9,6.8c3.2,2.8,6,6,8.5,9.4c2.5,3.4,4.7,7,6.6,10.7s3.6,7.6,5,11.5c1.5,3.9,2.7,7.9,3.6,12
			c1,4.1,1.7,8.2,2.1,12.4c0.4,4.2,0.6,8.4,0.3,12.6c-0.3,4.2-0.9,8.4-2.2,12.5l-0.5,1.5c-0.2,0.5-0.4,1-0.6,1.5s-0.4,1-0.6,1.5
			l-0.8,1.4c-1,1.9-2.2,3.7-3.6,5.4c-2.7,3.4-6,6.3-9.7,8.5s-7.7,3.8-11.9,4.8c-2.1,0.5-4.2,0.8-6.3,0.9c-2.1,0.1-4.2,0.1-6.3-0.2
			c-0.3-0.1-0.6-0.4-0.5-0.7C282.6,135.9,282.8,135.7,283.1,135.6L283.1,135.6z"/>
	</g>
	<g>
		<path fill="#181932" d="M291,56.8c-0.2,0.5-0.4,0.8-0.6,1.2s-0.5,0.7-0.7,1.1c-0.5,0.7-1.1,1.3-1.7,1.9c-0.6,0.6-1.3,1.1-2,1.6
			c-0.3,0.3-0.7,0.5-1.1,0.7l-1.1,0.7c-0.8,0.5-2,0.3-2.5-0.6c-0.5-0.8-0.3-2,0.6-2.5c0.1-0.1,0.2-0.1,0.3-0.1h0.1l1-0.4
			c0.3-0.2,0.7-0.3,1-0.5c0.7-0.3,1.3-0.7,1.9-1.1c0.6-0.4,1.2-0.8,1.7-1.3c0.3-0.2,0.5-0.5,0.8-0.8c0.2-0.2,0.5-0.6,0.6-0.8
			l0.1-0.1c0.3-0.4,0.8-0.5,1.2-0.2C291.1,56,291.2,56.5,291,56.8z"/>
	</g>
	<g>
		<path fill="#1F1F23" d="M308.8,95.3c-10.7,0-21.3-5.3-22-5.7c-0.7-0.3-0.9-1.2-0.6-1.8c0.3-0.7,1.2-0.9,1.8-0.6
			c0.2,0.1,24.1,12,34.6-0.2c0.5-0.6,1.4-0.6,1.9-0.1c0.6,0.5,0.6,1.4,0.1,1.9C320.5,93.7,314.6,95.3,308.8,95.3z"/>
	</g>
	<g>
		<path fill="#181932" d="M282,34.1c-2.3,0.6-4.4,1.4-6.4,2.6c-1.9,1.2-3.7,2.7-5.3,4.3c-0.7,0.7-1.8,0.7-2.5,0s-0.7-1.8,0-2.5
			c0.1-0.1,0.1-0.1,0.2-0.1c2-1.5,4.1-2.9,6.4-4c2.3-1,4.8-1.6,7.2-1.9l0,0c0.5-0.1,0.9,0.3,1,0.8C282.7,33.6,282.5,34,282,34.1z"/>
	</g>
	<g>
		<path fill="#1F1F23" d="M130.9,151.2c-0.3,0-0.5-0.1-0.7-0.2c-14.7-9.5-9.8-34.5-9.6-35.6c0.2-0.7,0.9-1.2,1.6-1.1
			c0.7,0.2,1.2,0.9,1.1,1.6c0,0.2-4.8,24.2,8.4,32.7c0.6,0.4,0.8,1.3,0.4,1.9C131.8,150.9,131.3,151.2,130.9,151.2z"/>
	</g>
	<g>
		<path fill="#1F1F23" d="M36.3,156.1c0.1-0.5,0.1-0.9,0.3-1.4c0.1-0.4,0.2-0.9,0.4-1.3c0.3-0.8,0.7-1.7,1.1-2.5
			c0.4-0.8,0.9-1.5,1.5-2.3c0.3-0.4,0.6-0.7,0.8-1.1c0.3-0.3,0.6-0.7,0.9-1c0.7-0.7,1.8-0.8,2.6-0.1c0.7,0.7,0.8,1.8,0.1,2.6
			c-0.1,0.1-0.1,0.1-0.2,0.2l-0.1,0.1c-0.3,0.2-0.6,0.5-0.9,0.7c-0.3,0.3-0.6,0.5-0.9,0.8c-0.6,0.5-1.1,1.1-1.6,1.7
			c-0.5,0.6-0.9,1.2-1.3,1.9c-0.2,0.3-0.4,0.7-0.5,1c-0.2,0.3-0.3,0.7-0.4,1v0.1c-0.1,0.5-0.7,0.7-1.1,0.6
			C36.5,156.9,36.3,156.5,36.3,156.1z"/>
	</g>
	<g>
		<path fill="#1F1F23" d="M8.6,151.2c-0.3,0-0.7-0.1-0.9-0.4c-0.5-0.5-0.6-1.4,0-1.9c3.9-4,19.3-11.6,32.7-5.6
			c0.7,0.3,1,1.1,0.7,1.8s-1.1,1-1.8,0.7c-12.2-5.4-26.1,1.3-29.6,5C9.3,151.1,9,151.2,8.6,151.2z"/>
	</g>
</g>
</svg>
