<?xml version="1.0" encoding="utf-8"?>
<!-- Generator: Adobe Illustrator 17.0.0, SVG Export Plug-In . SVG Version: 6.00 Build 0)  -->
<!DOCTYPE svg PUBLIC "-//W3C//DTD SVG 1.1//EN" "http://www.w3.org/Graphics/SVG/1.1/DTD/svg11.dtd">
<svg version="1.1" id="Camada_1" xmlns="http://www.w3.org/2000/svg" xmlns:xlink="http://www.w3.org/1999/xlink" x="0px" y="0px"
	 width="383px" height="267px" viewBox="0 0 383 267" enable-background="new 0 0 383 267" xml:space="preserve">
<g>
	<g>
		<g>
			<g>
				<g>
					<g>
						<path fill="#262B5F" d="M301.4,113.1c-2.2,0-4.2-0.8-5.8-2.3l0,0c-1.6-1.5-2.5-3.6-2.6-5.9c-0.1-2.2,0.8-4.4,2.3-6
							c3.2-3.3,8.5-3.5,11.8-0.3c1.6,1.5,2.5,3.6,2.6,5.9c0.1,2.2-0.8,4.4-2.3,6s-3.6,2.5-5.9,2.6
							C301.5,113.1,301.5,113.1,301.4,113.1z M301.4,98.8c-1.6,0-3.1,0.6-4.3,1.8c-1.1,1.1-1.7,2.6-1.6,4.2c0,1.6,0.7,3,1.8,4.1l0,0
							c1.1,1.1,2.6,1.7,4.2,1.6c1.6,0,3-0.7,4.1-1.8c1.1-1.1,1.7-2.6,1.6-4.2c0-1.6-0.7-3-1.8-4.1C304.3,99.4,302.9,98.8,301.4,98.8
							z"/>
					</g>
				</g>
			</g>
		</g>
		<g>
			<g>
				<g>
					<g>
						<path fill="#1F1F23" d="M111.7,73.8c0,0-56.8,1.2-72.1,22.5s8.7,30-6,40.4c-14.7,10.4-52.4,42.5-20.2,49.4
							c25.5,5.5,49.5,22.1,36.2,32.1S14.3,261,153.7,265.9c136.4,4.8,100.1-23,135.4-27.3c21.7-2.7,62.8-4.8,69.6-28.6
							c6.9-23.8-16-27.4-8.7-40.1s52.2-27.7,21.1-59.9c-20.6-21.3-54.3-16.2-42.1-27.3c17.3-15.9-55.9-40.9-105.5-42.1
							C174,39.3,173.1,69,111.7,73.8z"/>
					</g>
				</g>
			</g>
		</g>
		<g>
			<g>
				<g>
					<g>
						<g>
							<path fill="#EDDF5E" d="M282.9,72.9c0-0.4,0.9-0.7,2.2-0.9c0.7-0.1,1.2-0.6,1.3-1.3c0.2-1.3,0.5-2.2,0.9-2.2s0.7,0.9,0.9,2.2
								c0.1,0.7,0.6,1.2,1.3,1.3c1.3,0.2,2.2,0.5,2.2,0.9s-0.9,0.7-2.2,0.9c-0.7,0.1-1.2,0.6-1.3,1.3c-0.2,1.3-0.5,2.2-0.9,2.2
								s-0.7-0.9-0.9-2.2c-0.1-0.7-0.6-1.2-1.3-1.3C283.8,73.6,282.9,73.2,282.9,72.9z"/>
						</g>
					</g>
				</g>
			</g>
			<g>
				<g>
					<g>
						<g>
							<path fill="#EDDF5E" d="M85,236.3c0-0.4,0.9-0.7,2.2-0.9c0.7-0.1,1.2-0.6,1.3-1.3c0.2-1.3,0.5-2.2,0.9-2.2s0.7,0.9,0.9,2.2
								c0.1,0.7,0.6,1.2,1.3,1.3c1.3,0.2,2.2,0.5,2.2,0.9s-0.9,0.7-2.2,0.9c-0.7,0.1-1.2,0.6-1.3,1.3c-0.2,1.3-0.5,2.2-0.9,2.2
								s-0.7-0.9-0.9-2.2c-0.1-0.7-0.6-1.2-1.3-1.3C85.9,237,85,236.7,85,236.3z"/>
						</g>
					</g>
				</g>
			</g>
			<g>
				<g>
					<g>
						<g>
							<path fill="#EDDF5E" d="M125.8,223.1c0-0.4,0.9-0.7,2.2-0.9c0.7-0.1,1.2-0.6,1.3-1.3c0.2-1.3,0.5-2.2,0.9-2.2
								s0.7,0.9,0.9,2.2c0.1,0.7,0.6,1.2,1.3,1.3c1.3,0.2,2.2,0.5,2.2,0.9s-0.9,0.7-2.2,0.9c-0.7,0.1-1.2,0.6-1.3,1.3
								c-0.2,1.3-0.5,2.2-0.9,2.2s-0.7-0.9-0.9-2.2c-0.1-0.7-0.6-1.2-1.3-1.3C126.7,223.8,125.8,223.5,125.8,223.1z"/>
						</g>
					</g>
				</g>
			</g>
			<g>
				<g>
					<g>
						<g>
							<path fill="#EDDF5E" d="M51.6,151c0-0.4,0.9-0.7,2.2-0.9c0.7-0.1,1.2-0.6,1.3-1.3c0.2-1.3,0.5-2.2,0.9-2.2s0.7,0.9,0.9,2.2
								c0.1,0.7,0.6,1.2,1.3,1.3c1.3,0.2,2.2,0.5,2.2,0.9s-0.9,0.7-2.2,0.9c-0.7,0.1-1.2,0.6-1.3,1.3c-0.2,1.3-0.5,2.2-0.9,2.2
								s-0.7-0.9-0.9-2.2c-0.1-0.7-0.6-1.2-1.3-1.3C52.5,151.7,51.6,151.4,51.6,151z"/>
						</g>
					</g>
				</g>
			</g>
			<g>
				<g>
					<g>
						<g>
							<path fill="#EDDF5E" d="M33.3,170.1c0-0.3,0.6-0.5,1.5-0.6c0.4-0.1,0.8-0.4,0.8-0.8c0.1-0.9,0.3-1.5,0.6-1.5s0.5,0.6,0.6,1.5
								c0.1,0.4,0.4,0.8,0.8,0.8c0.9,0.1,1.5,0.3,1.5,0.6s-0.6,0.5-1.5,0.6c-0.4,0.1-0.8,0.4-0.8,0.8c-0.1,0.9-0.3,1.5-0.6,1.5
								s-0.5-0.6-0.6-1.5c-0.1-0.4-0.4-0.8-0.8-0.8C33.8,170.6,33.3,170.4,33.3,170.1z"/>
						</g>
					</g>
				</g>
			</g>
			<g>
				<g>
					<g>
						<g>
							<path fill="#EDDF5E" d="M175.7,234.8c0-0.3,0.6-0.5,1.5-0.6c0.4-0.1,0.8-0.4,0.8-0.8c0.1-0.9,0.3-1.5,0.6-1.5
								s0.5,0.6,0.6,1.5c0.1,0.4,0.4,0.8,0.8,0.8c0.9,0.1,1.5,0.3,1.5,0.6s-0.6,0.5-1.5,0.6c-0.4,0.1-0.8,0.4-0.8,0.8
								c-0.1,0.9-0.3,1.5-0.6,1.5s-0.5-0.6-0.6-1.5c-0.1-0.4-0.4-0.8-0.8-0.8C176.3,235.2,175.7,235,175.7,234.8z"/>
						</g>
					</g>
				</g>
			</g>
			<g>
				<g>
					<g>
						<g>
							<path fill="#EDDF5E" d="M56.4,100.7c0-0.3,0.6-0.5,1.5-0.6c0.4-0.1,0.8-0.4,0.8-0.8c0.1-0.9,0.3-1.5,0.6-1.5s0.5,0.6,0.6,1.5
								c0.1,0.4,0.4,0.8,0.8,0.8c0.9,0.1,1.5,0.3,1.5,0.6c0,0.3-0.6,0.5-1.5,0.6c-0.4,0.1-0.8,0.4-0.8,0.8c-0.1,0.9-0.3,1.5-0.6,1.5
								s-0.5-0.6-0.6-1.5c-0.1-0.4-0.4-0.8-0.8-0.8C57,101.2,56.4,101,56.4,100.7z"/>
						</g>
					</g>
				</g>
			</g>
			<g>
				<g>
					<g>
						<g>
							<path fill="#EDDF5E" d="M262.5,219.6c0-0.3,0.6-0.5,1.5-0.6c0.4-0.1,0.8-0.4,0.8-0.8c0.1-0.9,0.3-1.5,0.6-1.5
								s0.5,0.6,0.6,1.5c0.1,0.4,0.4,0.8,0.8,0.8c0.9,0.1,1.5,0.3,1.5,0.6s-0.6,0.5-1.5,0.6c-0.4,0.1-0.8,0.4-0.8,0.8
								c-0.1,0.9-0.3,1.5-0.6,1.5s-0.5-0.6-0.6-1.5c-0.1-0.4-0.4-0.8-0.8-0.8C263.1,220.1,262.5,219.8,262.5,219.6z"/>
						</g>
					</g>
				</g>
			</g>
			<g>
				<g>
					<g>
						<g>
							<circle fill="#EDDF5E" cx="67.7" cy="197" r="1.2"/>
						</g>
					</g>
				</g>
			</g>
			<g>
				<g>
					<g>
						<g>
							<path fill="#EDDF5E" d="M354.8,121.3c0-0.3-0.6-0.5-1.5-0.6c-0.4-0.1-0.8-0.4-0.8-0.8c-0.1-0.9-0.3-1.5-0.6-1.5
								s-0.5,0.6-0.6,1.5c-0.1,0.4-0.4,0.8-0.8,0.8c-0.9,0.1-1.5,0.3-1.5,0.6c0,0.3,0.6,0.5,1.5,0.6c0.4,0.1,0.8,0.4,0.8,0.8
								c0.1,0.9,0.3,1.5,0.6,1.5s0.5-0.6,0.6-1.5c0.1-0.4,0.4-0.8,0.8-0.8C354.2,121.8,354.8,121.6,354.8,121.3z"/>
						</g>
					</g>
				</g>
			</g>
			<g>
				<g>
					<g>
						<g>
							<circle fill="#EDDF5E" cx="336.8" cy="142.3" r="1.2"/>
						</g>
					</g>
				</g>
			</g>
			<g>
				<g>
					<g>
						<g>
							<circle fill="#EDDF5E" cx="301" cy="88.1" r="1.2"/>
						</g>
					</g>
				</g>
			</g>
			<g>
				<g>
					<g>
						<g>
							<circle fill="#EDDF5E" cx="218.7" cy="248.1" r="1.2"/>
						</g>
					</g>
				</g>
			</g>
			<g>
				<g>
					<g>
						<g>
							<circle fill="#EDDF5E" cx="86.5" cy="98.6" r="1.2"/>
						</g>
					</g>
				</g>
			</g>
			<g>
				<g>
					<g>
						<g>
							<circle fill="#EDDF5E" cx="304.9" cy="219.1" r="1.2"/>
						</g>
					</g>
				</g>
			</g>
			<g>
				<g>
					<g>
						<g>
							<circle fill="#EDDF5E" cx="327.5" cy="200.7" r="1.2"/>
						</g>
					</g>
				</g>
			</g>
			<g>
				<g>
					<g>
						<g>
							<path fill="#EDDF5E" d="M315.9,179.6c0-0.3,0.7-0.6,1.7-0.7c0.5-0.1,0.9-0.5,1-1c0.1-1,0.4-1.7,0.7-1.7
								c0.3,0,0.6,0.7,0.7,1.7c0.1,0.5,0.5,0.9,1,1c1,0.1,1.7,0.4,1.7,0.7s-0.7,0.6-1.7,0.7c-0.5,0.1-0.9,0.5-1,1
								c-0.1,1-0.4,1.7-0.7,1.7c-0.3,0-0.6-0.7-0.7-1.7c-0.1-0.5-0.5-0.9-1-1C316.6,180.1,315.9,179.9,315.9,179.6z"/>
						</g>
					</g>
				</g>
			</g>
		</g>
		<g opacity="0.3">
			<g>
				<g>
					<g>
						<path fill="#181932" d="M315.2,153.4c0,19.2-10,36.7-28.7,49.8c-13.6,9.5-31.9,16.7-54.2,20.3c-10.9,1.8-22.7,2.7-35.4,2.7
							c-12.7,0-24.6-0.9-35.4-2.7c-22.7-3.7-41.2-11-54.9-20.8c-18.2-13-28-30.3-28-49.3c0-17.8,8.6-32.5,24.7-43.4
							c20.2-13.6,52.2-21.2,93.7-21.2c41.3,0,73.2,7.5,93.4,21C306.4,120.7,315.2,135.4,315.2,153.4z"/>
					</g>
				</g>
			</g>
		</g>
		<g>
			<g>
				<g>
					<g>
						<path fill="#FFFFFF" d="M315.2,141.1c0,19.2-10,36.7-28.7,49.8c-13.6,9.5-31.9,16.7-54.2,20.3c-10.9,1.8-22.7,2.7-35.4,2.7
							c-12.7,0-24.6-0.9-35.4-2.7c-22.7-3.7-41.2-11-54.9-20.8c-18.2-13-28-30.3-28-49.3c0-17.8,8.6-32.5,24.7-43.4
							c20.2-13.6,52.2-21.2,93.7-21.2c41.3,0,73.2,7.5,93.4,21C306.4,108.3,315.2,123.1,315.2,141.1z"/>
					</g>
				</g>
			</g>
		</g>
		<g>
			<g>
				<g>
					<g>
						<g>
							<path fill="#EDDF5E" d="M232.2,211.1c-10.9,1.8-22.7,2.7-35.4,2.7c-12.7,0-24.6-0.9-35.4-2.7c1-32,7.2-64,15.9-96
								c13.2,3.2,25.8,3.2,39,0C225,147.1,231.2,179,232.2,211.1z"/>
						</g>
					</g>
				</g>
			</g>
		</g>
		<g>
			<g>
				<g>
					<g>
						<g>
							<path fill="#EDDF5E" d="M159.2,123.3c-27.4,7.1-47.6,36.5-52.8,67.1c-18.2-13-28-30.3-28-49.3c0-17.8,8.6-32.5,24.7-43.4
								C123,108.9,149.9,125.5,159.2,123.3z"/>
						</g>
					</g>
				</g>
			</g>
		</g>
		<g>
			<g>
				<g>
					<g>
						<g>
							<path fill="#EDDF5E" d="M315.2,141.1c0,19.2-10,36.7-28.7,49.8c-5-30.7-25.3-60.4-52.9-67.6c9.3,2.2,36.6-14.5,56.5-25.8
								C306.4,108.3,315.2,123.1,315.2,141.1z"/>
						</g>
					</g>
				</g>
			</g>
		</g>
		<g opacity="0.5">
			<g>
				<g>
					<g>
						<path fill="#FFFFFF" d="M131.9,124.9c0,0,12.9,18.7,67.2,18.7c0,0,44.1-0.4,61.3-17.7v-4.5l-21-6l-46.6,6.5l-24.9,2.4l-15.6-4
							L131.9,124.9z"/>
					</g>
				</g>
			</g>
		</g>
		<g>
			<g>
				<g>
					<g>
						<path fill="#1F1F23" d="M196.8,215.5c-35.9,0-66.3-7.5-88.1-21.6c-20.6-13.4-31.9-32.2-31.9-52.8c0-41.5,44.9-66.2,120-66.2
							s120,24.8,120,66.2c0,20.7-11.3,39.5-31.9,52.8C263.1,208,232.7,215.5,196.8,215.5z M196.8,78.1
							c-73.1,0-116.7,23.5-116.7,62.9c0,19.5,10.8,37.3,30.5,50.1c21.2,13.8,51,21.1,86.3,21.1s65.1-7.3,86.3-21.1
							c19.6-12.8,30.5-30.6,30.5-50.1C313.5,101.7,269.9,78.1,196.8,78.1z"/>
					</g>
				</g>
			</g>
		</g>
		<g>
			<g>
				<g>
					<g>
						<path fill="#FFFFFF" d="M250.3,127.4c-4.9,2.3-13.5,5.7-25.1,8.1c-8,1.6-17.5,2.8-28.4,2.8c-10.8,0-20.4-1.2-28.4-2.8
							c-11.6-2.4-20-5.7-25-8c-3.3-1.5,0-5.7,0-5.7l35.4,0.1l36.1,0.1l35.4,0.1C250.3,121.9,253.5,125.9,250.3,127.4z"/>
					</g>
				</g>
			</g>
			<g>
				<g>
					<g>
						<path fill="#361B45" d="M196.8,138.6c-9.8,0-19.3-0.9-28.4-2.8c-11.5-2.3-20-5.7-25.1-8c-0.9-0.4-1.4-1-1.6-1.8
							c-0.5-1.9,1.4-4.3,1.5-4.4l0.1-0.1l107.2,0.2l0.1,0.1c0.1,0.1,1.9,2.3,1.4,4.2c-0.2,0.8-0.7,1.4-1.5,1.8
							c-5.1,2.4-13.6,5.7-25.2,8.1C216.1,137.6,206.5,138.6,196.8,138.6z M143.5,122c-0.3,0.5-1.6,2.3-1.3,3.8
							c0.1,0.6,0.6,1.1,1.2,1.4c5.1,2.4,13.5,5.7,24.9,8c9.1,1.9,18.6,2.8,28.3,2.8s19.3-0.9,28.3-2.8c11.5-2.3,20-5.7,25.1-8.1l0,0
							c0.7-0.3,1.1-0.8,1.2-1.4c0.3-1.4-0.9-3.1-1.2-3.6L143.5,122z"/>
					</g>
				</g>
			</g>
		</g>
		<g>
			<g>
				<g>
					<g>
						<path fill="#262B5F" d="M196.8,139.9c-26.6,0-45.3-6.9-54.1-11c-1.6-0.7-2.1-1.9-2.3-2.7c-0.6-2.5,1.5-5.2,1.7-5.5
							c0.6-0.7,1.6-0.8,2.3-0.3c0.7,0.6,0.8,1.6,0.3,2.3c-0.6,0.7-1.3,2.1-1.1,2.7c0,0.1,0.1,0.3,0.5,0.5c8.6,4,26.8,10.7,52.7,10.7
							c26,0,44.3-6.7,52.8-10.7c0.4-0.2,0.5-0.4,0.5-0.4c0.1-0.6-0.6-1.9-1-2.5c-0.6-0.7-0.5-1.7,0.2-2.3c0.7-0.6,1.7-0.5,2.3,0.2
							c0.4,0.5,2.3,2.9,1.7,5.3c-0.2,0.8-0.7,2-2.3,2.7C242.2,133,223.4,139.9,196.8,139.9z"/>
					</g>
				</g>
			</g>
		</g>
		<g>
			<g>
				<g>
					<g>
						<path fill="#FFFFFF" d="M244,125.4c17.2-8.8,29.9,16.4,46.2,13.8c3.9-0.6,4-4.1,4-4.1s4.3,2.3,7.1,0.5c3-1.9,2.1-5.9,2.1-5.9
							s9.1,3.1,4.7-8.8c-2.2-6.1-9.1-13.3-15.5-18.2c-31-23.9-54.2-3.6-54.2-3.6h-86.7c0,0-23.2-20.3-54.2,3.6
							C91,107.8,84.2,115,82,121c-4.4,11.9,4.7,8.8,4.7,8.8s-0.9,4,2.1,5.9c2.8,1.8,7.1-0.5,7.1-0.5s0.1,3.5,4,4.1
							c16.3,2.5,28.9-22.7,46.2-13.8"/>
					</g>
				</g>
			</g>
			<g>
				<g>
					<g>
						<path fill="#361B45" d="M287.9,139.7c-6.5,0-12.5-4.1-18.3-8c-7.9-5.3-16.1-10.9-25.4-6.1l-0.3-0.5c9.7-4.9,18,0.7,26,6.1
							c6.4,4.3,13.1,8.8,20.2,7.7c3.6-0.6,3.8-3.8,3.8-3.9v-0.5l0.4,0.2c0,0,4.2,2.2,6.8,0.5c2.8-1.7,2-5.5,2-5.6l-0.1-0.5l0.5,0.2
							c0,0,3.1,1.1,4.7-0.5c1.2-1.3,1.1-4-0.3-7.9c-2.3-6.4-9.7-13.7-15.4-18c-15.9-12.3-29.7-12.6-38.5-10.7
							c-9.5,2.1-15.3,7.1-15.4,7.1l-0.1,0.1h-87l-0.1-0.1c-0.1-0.1-5.9-5.1-15.4-7.1c-8.8-1.9-22.6-1.6-38.5,10.7
							c-5.6,4.3-13,11.7-15.4,18c-1.4,3.9-1.6,6.7-0.3,7.9c1.5,1.5,4.6,0.5,4.7,0.5l0.5-0.2l-0.1,0.5c0,0-0.8,3.8,2,5.6
							c2.6,1.6,6.8-0.5,6.8-0.5l0.4-0.2v0.5c0,0.1,0.2,3.3,3.8,3.9c7.2,1.1,13.8-3.4,20.3-7.7c8-5.4,16.4-11,26-6.1l-0.3,0.5
							c-9.4-4.8-17.5,0.7-25.4,6.1c-6.5,4.4-13.3,9-20.7,7.8c-3.2-0.5-4-3-4.2-4c-1.1,0.5-4.6,1.9-7,0.3c-2.5-1.6-2.4-4.6-2.3-5.7
							c-1,0.3-3.4,0.7-4.8-0.8c-1.4-1.4-1.4-4.3,0.2-8.5c2.4-6.5,9.9-13.9,15.6-18.3c16.1-12.4,30.1-12.7,39-10.8
							c9,2,14.8,6.5,15.5,7.2h86.5c0.8-0.6,6.5-5.2,15.5-7.2c8.9-1.9,22.9-1.6,39,10.8c5.7,4.4,13.2,11.8,15.6,18.3
							c1.5,4.2,1.6,7.1,0.2,8.5c-1.4,1.4-3.8,1-4.8,0.8c0.1,1.1,0.2,4.1-2.3,5.7c-2.4,1.5-5.9,0.2-7-0.3c-0.2,1-1,3.5-4.2,4
							C289.4,139.7,288.7,139.7,287.9,139.7z"/>
					</g>
				</g>
			</g>
		</g>
		<g opacity="0.3">
			<g>
				<g>
					<g>
						<path fill="#361B45" d="M145,124.9L145,124.9c-16.7-7.3-29.2,16.8-45.1,14.4c-3.9-0.6-4-4.1-4-4.1s-4.3,2.3-7.1,0.5
							c-3-1.9-2.1-5.9-2.1-5.9s-8.1,2.8-5.3-6.9c0.9,4.9,9.2,2.4,9.2,2.4s-2.1,6.6,1.4,6.4c2.6-0.1,5.7-2.1,5.7-2.1s1,4.7,4.8,5.3
							c13.4,2.1,21.8-16,34.8-17.2C141.4,117.4,145,120.7,145,124.9z"/>
					</g>
				</g>
			</g>
		</g>
		<g opacity="0.3">
			<g>
				<g>
					<g>
						<path fill="#361B45" d="M303.4,129.8c0,0,0.9,4-2.1,5.9c-2.8,1.8-7.1-0.5-7.1-0.5s-0.1,3.5-4,4.1c-16,2.5-28.5-21.9-45.4-14.2
							V125c0-4.1,3.4-7.4,7.4-7.2c13.3,0.6,22.5,18.5,36.1,16.3c3.9-0.6,2.8-4.6,2.8-4.6s4.2,2.6,6.9,0.9c3-1.9,2.1-5.4,2.1-5.4
							s7.5,3.2,8.6-1.9C311.5,132.6,303.4,129.8,303.4,129.8z"/>
					</g>
				</g>
			</g>
		</g>
		<g opacity="0.6">
			<g>
				<g>
					<g>
						<path fill="#FFFFFF" d="M308.8,128.7c-0.2-0.6-0.4-1.2-0.6-1.9c-2.2-6.1-9.1-13.2-15.5-18.2c-31-23.9-54.2-9.4-54.2-9.4h-86.7
							c0,0-23.2-14.6-54.2,9.4c-6.4,4.9-13.2,12.1-15.5,18.2c-0.3,0.7-0.5,1.3-0.6,1.9c-0.8-1.3-0.9-3.6,0.6-7.7
							c2.2-6.1,9.1-13.3,15.5-18.2c31-23.9,54.2-3.6,54.2-3.6h86.7c0,0,23.2-20.3,54.2,3.6c6.4,4.9,13.2,12.1,15.5,18.2
							C309.6,125.2,309.5,127.5,308.8,128.7z"/>
					</g>
				</g>
			</g>
		</g>
		<g>
			<g>
				<g>
					<g>
						<path fill="#1F1F23" d="M287.9,141.1c-6.9,0-13.1-4.2-19-8.2c-7.9-5.4-15.4-10.4-24-6c-0.8,0.4-1.8,0.1-2.2-0.7
							c-0.4-0.8-0.1-1.8,0.7-2.2c10.4-5.3,19,0.5,27.4,6.2c6.5,4.4,12.6,8.5,19.3,7.5c2.4-0.4,2.6-2.2,2.6-2.6l0.2-2.5l2.2,1.1
							c0.9,0.5,3.9,1.6,5.5,0.6c1.9-1.2,1.4-4,1.4-4.1l-0.6-2.8l2.7,0.9c0.8,0.3,2.6,0.6,3.2-0.2c0.3-0.3,1.1-1.7-0.6-6.5
							c-2.2-6.1-9.4-13.2-14.9-17.4c-12.4-9.6-24.9-13.1-37.3-10.5c-9.2,2-14.9,6.8-14.9,6.8l-0.5,0.4h-0.6H151l-0.5-0.4
							c-0.1,0-5.7-4.9-14.9-6.8c-12.3-2.6-24.8,0.9-37.3,10.5c-5.5,4.2-12.7,11.3-14.9,17.4c-1.8,4.8-0.9,6.2-0.6,6.5
							c0.7,0.7,2.5,0.4,3.3,0.2l2.7-0.9l-0.6,2.8c0,0.1-0.6,2.9,1.4,4.1c1.6,1,4.6-0.1,5.5-0.6l2.3-1.2l0.1,2.6
							c0,0.3,0.3,2.2,2.6,2.6c6.7,1,12.8-3.1,19.3-7.5c8.4-5.7,17-11.5,27.4-6.2c0.8,0.4,1.1,1.4,0.7,2.2c-0.4,0.8-1.4,1.1-2.2,0.7
							c-8.6-4.4-16.1,0.6-24,6c-6.7,4.5-13.7,9.3-21.6,8c-2.7-0.4-4.2-2-4.9-3.5c-1.8,0.6-4.6,1.1-6.9-0.3c-2.2-1.4-2.8-3.6-3-5.2
							c-1.4,0.1-3.1-0.1-4.4-1.4c-1.8-1.9-1.9-5.1-0.1-9.9c2.5-6.8,9.9-14.2,16-18.9c16.5-12.7,30.9-13,40.1-11.1
							c8.5,1.8,14.1,5.8,15.7,7.1h85.6c1.6-1.3,7.2-5.3,15.7-7.1c9.2-2,23.6-1.7,40.1,11.1c6.1,4.7,13.5,12.1,16,18.9
							c1.8,4.8,1.7,8.1-0.1,9.9c-1.3,1.3-3,1.5-4.4,1.4c-0.1,1.7-0.8,3.8-3,5.2c-2.3,1.4-5.1,0.9-6.9,0.3c-0.7,1.5-2.1,3.1-4.9,3.5
							C289.6,141,288.7,141.1,287.9,141.1z"/>
					</g>
				</g>
			</g>
		</g>
		<g opacity="0.3">
			<g>
				<g>
					<g>
						<path fill="#181932" d="M315.2,135.8c0,19.2-10,36.7-28.7,49.8c-13.6,9.5-31.9,16.7-54.2,20.3c-10.9,1.8-22.7,2.7-35.4,2.7
							c-12.7,0-24.6-0.9-35.4-2.7c-22.7-3.7-41.2-11-54.9-20.8c-18.2-13-28-30.3-28-49.3c0-3,0.2-5.8,0.7-8.6
							c2.5,15.5,11.9,29.6,27.3,40.5c13.7,9.8,32.2,17.1,54.9,20.8c10.9,1.8,22.7,2.7,35.4,2.7s24.6-0.9,35.4-2.7
							c22.3-3.6,40.6-10.8,54.2-20.3c15.8-11,25.4-25.2,28-41C314.9,129.9,315.2,132.8,315.2,135.8z"/>
					</g>
				</g>
			</g>
		</g>
		<g>
			<g>
				<g>
					<g>
						<path fill="#1F1F23" d="M196.8,139.9c-36.9,0-58.4-13.1-59.3-13.7c-0.8-0.5-1-1.5-0.5-2.3s1.5-1,2.3-0.5
							c0.2,0.1,21.7,13.2,57.6,13.2s57.3-13.1,57.6-13.2c0.8-0.5,1.8-0.2,2.3,0.5c0.5,0.8,0.2,1.8-0.5,2.3
							C255.2,126.8,233.7,139.9,196.8,139.9z"/>
					</g>
				</g>
			</g>
		</g>
		<g>
			<g>
				<g>
					<g>
						<g>
							<path fill="#FFFFFF" d="M254.9,80.6L254.9,80.6c-0.7,0-1.2-0.5-1.2-1.2l-0.1-35.2c0-0.7,0.5-1.2,1.2-1.2l0,0
								c7.1,0,12.8,5.7,12.9,12.8v12C267.7,74.8,262,80.6,254.9,80.6z"/>
						</g>
					</g>
				</g>
				<g>
					<g>
						<g>
							<path fill="#361B45" d="M254.9,80.9c-0.4,0-0.8-0.2-1.1-0.4c-0.3-0.3-0.4-0.7-0.4-1.1l-0.1-35.2c0-0.4,0.2-0.8,0.4-1.1
								c0.3-0.3,0.7-0.4,1.1-0.4l0,0c7.2,0,13.1,5.8,13.1,13v12C268,75,262.1,80.9,254.9,80.9L254.9,80.9L254.9,80.9z M254.8,43.3
								L254.8,43.3c-0.3,0-0.5,0.1-0.7,0.3s-0.3,0.4-0.3,0.7l0.1,35.2c0,0.2,0.1,0.5,0.3,0.7s0.4,0.3,0.7,0.3l0,0l0,0
								c6.9,0,12.5-5.7,12.5-12.6v-12c0-3.3-1.3-6.5-3.7-8.8C261.3,44.6,258.2,43.3,254.8,43.3z"/>
						</g>
					</g>
				</g>
			</g>
			<g opacity="0.2">
				<g>
					<g>
						<g>
							<path fill="#361B45" d="M267.7,62.1v5.6c0,7.1-5.7,12.8-12.8,12.9c-0.7,0-1.2-0.5-1.2-1.2v-9.3c0.2,0.4,0.6,0.7,1.1,0.7h0.8
								C261.2,70.7,265.9,67.1,267.7,62.1z"/>
						</g>
					</g>
				</g>
			</g>
			<g>
				<g>
					<g>
						<g>
							<path fill="#1F1F23" d="M254.9,82.2c-0.8,0-1.5-0.3-2-0.8s-0.8-1.2-0.8-2L252,44.2c0-0.8,0.3-1.5,0.8-2s1.2-0.8,2-0.8
								c0,0,0,0,0.1,0c7.9,0,14.4,6.4,14.4,14.4v12C269.3,75.7,262.9,82.2,254.9,82.2L254.9,82.2L254.9,82.2z M254.9,79L254.9,79
								L254.9,79z M255.2,44.6l0.1,34.4c6-0.2,10.8-5.2,10.8-11.2v-12C266,49.7,261.2,44.8,255.2,44.6z"/>
						</g>
					</g>
				</g>
			</g>
			<g>
				<g>
					<g>
						<g>
							<path fill="#FFFFFF" d="M138.7,43.4L138.7,43.4c0.7,0,1.2,0.5,1.2,1.2l0.1,35.2c0,0.7-0.5,1.2-1.2,1.2l0,0
								c-7.1,0-12.8-5.7-12.9-12.8v-12C125.9,49.2,131.7,43.4,138.7,43.4z"/>
						</g>
					</g>
				</g>
				<g>
					<g>
						<g>
							<path fill="#361B45" d="M138.8,81.3c-7.2,0-13.1-5.8-13.1-13v-12c0-7.2,5.8-13.1,13-13.1l0,0l0,0c0.4,0,0.8,0.2,1.1,0.4
								c0.3,0.3,0.4,0.7,0.4,1.1l0.1,35.2C140.4,80.6,139.7,81.3,138.8,81.3C138.9,81.3,138.8,81.3,138.8,81.3z M138.7,43.7
								c-6.9,0-12.5,5.7-12.5,12.6v12c0,6.9,5.6,12.5,12.5,12.5l0,0c0.5,0,0.9-0.4,0.9-0.9l-0.1-35.2c0-0.2-0.1-0.5-0.3-0.7
								C139.2,43.8,139,43.7,138.7,43.7L138.7,43.7L138.7,43.7z"/>
						</g>
					</g>
				</g>
			</g>
			<g opacity="0.2">
				<g>
					<g>
						<g>
							<path fill="#361B45" d="M140.1,70v9.8c0,0.7-0.5,1.2-1.2,1.2c-3.7,0-7.1-1.6-9.4-4.1c-2.1-2.3-3.4-5.3-3.4-8.7v-5.1
								c2,4.4,6.5,7.5,11.7,7.5h1.3C139.4,70.7,139.8,70.4,140.1,70z"/>
						</g>
					</g>
				</g>
			</g>
			<g>
				<g>
					<g>
						<g>
							<path fill="#1F1F23" d="M138.8,82.6c-7.9,0-14.4-6.4-14.4-14.4v-12c0-7.9,6.4-14.4,14.4-14.5l0,0l0,0c0.8,0,1.5,0.3,2,0.8
								s0.8,1.2,0.8,2l0.1,35.2C141.7,81.3,140.4,82.6,138.8,82.6C138.9,82.6,138.8,82.6,138.8,82.6z M138.4,45
								c-6,0.2-10.8,5.2-10.8,11.2v12c0,6,4.9,11,10.9,11.2L138.4,45z M138.7,45L138.7,45L138.7,45z"/>
						</g>
					</g>
				</g>
			</g>
			<g>
				<g>
					<g>
						<g>
							<circle fill="#FFFFFF" cx="196.8" cy="62" r="59.9"/>
						</g>
					</g>
				</g>
				<g>
					<g>
						<g>
							<path fill="#361B45" d="M196.9,122.2c-1.4,0-2.7,0-4.1-0.1c-33.1-2.2-58.2-31-56-64.1s31-58.3,64.1-56
								c33.1,2.2,58.2,31,56,64.1C254.8,97.8,228.2,122.2,196.9,122.2z M196.8,2.4c-31.1,0-57.3,24.2-59.5,55.6
								c-2.2,32.8,22.7,61.3,55.5,63.5s61.3-22.7,63.5-55.5c2.2-32.8-22.7-61.3-55.5-63.5C199.5,2.4,198.1,2.4,196.8,2.4z"/>
						</g>
					</g>
				</g>
			</g>
			<g opacity="0.2">
				<g>
					<g>
						<g>
							<path fill="#361B45" d="M256.6,57.7c0.2,2.7,0.2,5.5,0,8.3c-2.2,33-30.8,58-63.8,55.7c-33-2.2-58-30.8-55.7-63.8
								c0.1-0.9,0.1-1.9,0.3-2.8c2.1,29.4,25.5,53.5,55.7,55.5C225.1,112.8,253,89.3,256.6,57.7z"/>
						</g>
					</g>
				</g>
			</g>
			<g>
				<g>
					<g>
						<g>
							<path fill="#1F1F23" d="M196.9,123.5c-1.4,0-2.8,0-4.2-0.1c-33.8-2.3-59.5-31.7-57.2-65.5C137.7,24,167.2-1.7,201,0.6
								s59.5,31.7,57.2,65.5l0,0C256,98.6,228.9,123.5,196.9,123.5z M196.8,3.7c-30.4,0-56.1,23.6-58.1,54.4
								c-2.2,32.1,22.2,59.9,54.2,62.1C225,122.4,252.8,98,255,65.9c2.2-32.1-22.2-59.9-54.2-62.1C199.4,3.7,198.1,3.7,196.8,3.7z
								 M256.6,66L256.6,66L256.6,66z"/>
						</g>
					</g>
				</g>
			</g>
			<g>
				<g>
					<g>
						<g>
							<path fill="#1F1F23" d="M256.3,67.6c-0.6,11.7-5,22.4-12,31c-5.2,6.5-25.9,17.2-50.6,16.2c-22.9-1-43.2-14.3-47.7-21.3
								c-6-9.3-9.3-20.4-8.6-32.1c1.6-31,28.9-42.4,61.8-40.7C232,22.3,258,36.6,256.3,67.6z"/>
						</g>
					</g>
				</g>
			</g>
			<g>
				<g>
					<g>
						<g>
							<path fill="#1F1F23" d="M197.3,116.4c-1.2,0-2.4,0-3.6-0.1c-23.8-1-44.2-14.7-49-22.1c-6.4-10-9.5-21.4-8.9-33.1
								c0.8-15.2,7.5-26.6,20-33.9c10.9-6.4,25.9-9.2,43.5-8.3c17.6,0.9,32.2,5.4,42.4,12.8c11.6,8.6,17.1,20.6,16.3,35.8l0,0
								c-0.6,11.7-4.9,22.7-12.3,32C240.7,105.7,221.8,116.4,197.3,116.4z M192.9,22.1c-14.3,0-26.5,2.7-35.5,8
								c-11.5,6.7-17.6,17.2-18.4,31.3c-0.6,11,2.3,21.8,8.4,31.2c4.3,6.7,24,19.6,46.4,20.6c24.8,1.1,44.7-9.8,49.3-15.6
								c7-8.7,11-19.1,11.6-30.1c2-38.1-38.3-44.3-55.6-45.3C197,22.1,194.9,22.1,192.9,22.1z M256.3,67.6L256.3,67.6L256.3,67.6z"
								/>
						</g>
					</g>
				</g>
			</g>
			<g opacity="0.7">
				<g>
					<g>
						<g>
							
								<ellipse transform="matrix(-0.2296 0.9733 -0.9733 -0.2296 352.4066 -154.1998)" fill="#FFFFFF" cx="237.232" cy="62.374" rx="10.6" ry="7.7"/>
						</g>
					</g>
				</g>
			</g>
			<g opacity="0.7">
				<g>
					<g>
						<g>
							
								<ellipse transform="matrix(-0.3618 0.9322 -0.9322 -0.3618 386.026 -98.5275)" fill="#FFFFFF" cx="226.737" cy="82.865" rx="4.9" ry="4.2"/>
						</g>
					</g>
				</g>
			</g>
			<g opacity="0.35">
				<g>
					<g>
						<g>
							<path fill="#1F1F23" d="M246.3,38c6.9,7.3,10.7,17.1,10,29.5c-0.6,11.7-5,22.4-12,31c-5.2,6.5-25.9,17.2-50.6,16.2
								c-8.7-0.4-17.1-2.5-24.3-5.5c30.5,0.7,55.6-12.5,62.1-20.6c8.8-11,14.4-24.5,15.2-39.4C246.9,45.3,246.7,41.6,246.3,38z"/>
						</g>
					</g>
				</g>
			</g>
			<g>
				<g>
					<g>
						<g>
							<path fill="#1F1F23" d="M252.6,41.6c-0.4,0-0.7-0.1-1-0.4l-0.2-0.1l-0.1-0.2C242,26.2,223,17.1,199.1,15.8
								c-24-1.3-43.9,6.1-54.6,20.2l-0.1,0.1c-0.6,0.6-1.5,0.6-2.1,0.1s-0.6-1.4-0.1-2c11.3-14.9,32.1-22.6,57.1-21.3
								c24.8,1.3,44.7,10.9,54.6,26.3c0.4,0.6,0.4,1.3-0.1,1.9C253.4,41.4,253,41.6,252.6,41.6z M143.2,35.1L143.2,35.1L143.2,35.1z
								"/>
						</g>
					</g>
				</g>
			</g>
			<g opacity="0.7">
				<g>
					<g>
						<g>
							<path fill="#FFFFFF" d="M149.8,80.5c0,0-8-31.1,9.1-42.4s40.8-10,40.2-8.5c0,0-26.6,5-37.9,25.2
								C152.4,70.3,149.8,80.5,149.8,80.5z"/>
						</g>
					</g>
				</g>
			</g>
		</g>
		<g>
			<g>
				<g>
					<g>
						<path fill="#1F1F23" d="M124.6,130.2L124.6,130.2c-1-0.1-1.7-0.8-1.6-1.7c1.3-24.1-21.7-26.5-22.7-26.6
							c-0.9-0.1-1.6-0.9-1.5-1.8s0.9-1.6,1.8-1.5c0.3,0,27.1,2.8,25.6,30C126.2,129.5,125.5,130.2,124.6,130.2z"/>
					</g>
				</g>
			</g>
		</g>
		<g>
			<g>
				<g>
					<g>
						<path fill="#1F1F23" d="M266.4,130.7c-0.9,0-1.6-0.7-1.6-1.5c-1.8-27.7,25.3-30.5,25.6-30.6c0.9-0.1,1.7,0.6,1.8,1.5
							c0.1,0.9-0.6,1.7-1.5,1.8c-1,0.1-24.3,2.6-22.6,27.1c0.1,0.9-0.6,1.7-1.5,1.7C266.5,130.7,266.4,130.7,266.4,130.7z"/>
					</g>
				</g>
			</g>
		</g>
	</g>
</g>
</svg>
