<?xml version="1.0" encoding="utf-8"?>
<!-- Generator: Adobe Illustrator 17.0.0, SVG Export Plug-In . SVG Version: 6.00 Build 0)  -->
<!DOCTYPE svg PUBLIC "-//W3C//DTD SVG 1.1//EN" "http://www.w3.org/Graphics/SVG/1.1/DTD/svg11.dtd">
<svg version="1.1" id="Camada_1" xmlns="http://www.w3.org/2000/svg" xmlns:xlink="http://www.w3.org/1999/xlink" x="0px" y="0px"
	 width="266px" height="263px" viewBox="0 0 266 263" enable-background="new 0 0 266 263" xml:space="preserve">
<g>
	<g>
		<g>
			<g>
				<g>
					<g>
						<path fill="#FFFFFF" d="M157.8,227H88.1c-12,0-21.8-9.8-21.8-21.8v-61.6c0-12,9.8-21.8,21.8-21.8h69.8
							c12,0,21.8,9.8,21.8,21.8v61.6C179.6,217.2,169.8,227,157.8,227z"/>
					</g>
				</g>
			</g>
		</g>
		<g>
			<g>
				<g>
					<g>
						<path fill="#1F1F23" d="M157.8,121.9c12,0,21.8,9.8,21.8,21.8v61.6c0,12-9.8,21.8-21.8,21.8H88.1c-12,0-21.8-9.8-21.8-21.8
							v-61.6c0-12,9.8-21.8,21.8-21.8L157.8,121.9 M157.8,118.5H88.1c-3.4,0-6.7,0.7-9.8,2c-3,1.3-5.7,3.1-8,5.4
							c-2.3,2.3-4.1,5-5.4,8c-1.3,3.1-2,6.4-2,9.8v61.6c0,3.4,0.7,6.7,2,9.8c1.3,3,3.1,5.7,5.4,8s5,4.1,8,5.4c3.1,1.3,6.4,2,9.8,2
							h69.8c3.4,0,6.7-0.7,9.8-2c3-1.3,5.7-3.1,8-5.4c2.3-2.3,4.1-5,5.4-8c1.3-3.1,2-6.4,2-9.8v-61.6c0-3.4-0.7-6.7-2-9.8
							c-1.3-3-3.1-5.7-5.4-8c-2.3-2.3-5-4.1-8-5.4C164.5,119.1,161.2,118.5,157.8,118.5L157.8,118.5z"/>
					</g>
				</g>
			</g>
		</g>
		<g>
			<g>
				<g>
					<g>
						<path fill="#FFFFFF" d="M178,188.9c-10.9,1.3-21.7,1.6-21.7,1.6s-5.5-27.5-7-49c-1.1-16-0.1-28.7,7-24.5
							c3.3,1.9,7,5.5,11,10.1c14.7,17.1,31.7,47.8,32.6,54.2C200.5,185.2,189.3,187.6,178,188.9z"/>
					</g>
				</g>
			</g>
		</g>
		<g>
			<g>
				<g>
					<g>
						<path fill="#1F1F23" d="M154.9,192.3l-0.3-1.5c0-0.2-3.4-17.1-5.6-34.6c-1.3-10.3-1.9-18.8-1.9-25.3c0.1-8.8,1.3-13.9,4-15.8
							c1.2-0.8,3.2-1.5,6.1,0.2c9.5,5.5,21.5,23.1,27.8,33.1c4.2,6.7,8.2,13.7,11.4,19.7c2.2,4.3,4.9,9.9,5.3,12.7
							c0.1,0.8,0,2-1,3.3c-1.5,1.8-4.7,3.2-9.9,4.5c-3.9,0.9-8.8,1.7-14.7,2.3c-10,1.1-19.5,1.3-19.6,1.3L154.9,192.3z M153.9,117.9
							c-0.3,0-0.5,0.1-0.6,0.2c-1.2,0.8-4.7,6-0.7,37.7c1.8,14.4,4.4,28.3,5.3,32.8c3-0.1,10.3-0.5,17.8-1.3
							c17.5-1.9,21.4-4.5,22.3-5.5c0.2-0.3,0.2-0.4,0.2-0.5c-0.5-3.5-7.1-16.8-16.1-31c-10.4-16.5-20.1-28.2-26.6-31.9
							C154.7,118,154.2,117.9,153.9,117.9z"/>
					</g>
				</g>
			</g>
		</g>
		<g>
			<g>
				<g>
					<g>
						<path fill="#FFFFFF" d="M101.1,115.9l-2.2,16.6l-1.3,9.5L95,162.2c0,0-4.9,3.3-13,5.9c-3,1-6.5,1.9-10.4,2.4
							c-6.3,0.9-13.6,1.1-21.5-0.5c-20.3-4.2-32.5-19.2-37.7-26.8c-10.2-14.6-11.8-18.6-8.9-24.7c2.2-4.7,5.9-5.6,5.9-5.6
							s-0.2-3.8,2.8-5.1c8.9-4,20.5,6.7,20.5,6.7s0.4-11.5,6.6-8.9c4.3,1.8,5.2,14.4,5.2,14.4s5.7,7.3,14.8,8.3
							c4.7,0.5,11.3-0.9,17.8-2.9c0.1,0,0.2,0,0.2-0.1c3.5-1.1,6.9-2.3,10.1-3.5c1.4-0.5,2.8-1.1,4-1.6
							C97.1,117.9,101.1,115.9,101.1,115.9z"/>
					</g>
				</g>
			</g>
		</g>
		<g opacity="0.35">
			<g>
				<g>
					<g>
						<path fill="#361B45" d="M12.4,143.2c5.3,7.6,17.4,22.6,37.7,26.8c12.7,2.6,23.8,0.7,31.8-1.9c8.1-2.6,13-5.9,13-5.9l0.4-15.9
							c0,0-5.5-5.3-10.7-3.2c-6.2,2.6-4.2,11.5-13,13.9c-24.5,6.9-44.5-5.7-50.9-11.2c-8.9-7.6-11.2-12.4-12.5-14.4
							c-2.6-4.1-4.6-7.3-5.7-10.2C1.4,126.1,3.8,130.9,12.4,143.2z"/>
					</g>
				</g>
			</g>
		</g>
		<g>
			<g>
				<g>
					<g>
						<path fill="#1F1F23" d="M62.4,173c-4.2,0-8.5-0.4-12.6-1.3c-9.1-1.9-17.6-6.1-25.3-12.5c-4.9-4.1-9.5-9.2-13.6-15
							c-5-7.1-8.1-12-9.6-16c-1.4-3.8-1.2-6.8,0.5-10.6c1.7-3.7,4.2-5.4,5.8-6.1c0.3-1.9,1.2-4.3,3.8-5.5c7.3-3.3,15.7,1.8,19.8,4.9
							c0-0.2,0.1-0.4,0.1-0.6c0.7-3.1,1.9-5.2,3.5-6.2c1-0.6,2.7-1.2,5-0.2s4.1,4,5.2,9.1c0.6,2.6,0.9,5.1,1,6.2
							c1.3,1.4,6.2,6.5,13.2,7.3c12.9,1.4,40.6-12.1,40.9-12.2c0.6-0.3,1.3-0.2,1.8,0.2c0.5,0.4,0.8,1,0.7,1.7l-6.1,46.3
							c-0.1,0.5-0.3,1-0.8,1.2c-0.2,0.1-5.1,3.4-13.3,6.1c-4.8,1.6-9.7,2.6-14.6,3C66.2,173,64.3,173,62.4,173z M9.8,114.6
							c-0.2,0.1-3,0.9-4.7,4.6c-2.3,5-1.7,7.9,8.8,23c9.9,14.2,22.5,23.2,36.6,26.1c12.8,2.6,24,0.4,31.1-1.9c6-2,10.2-4.3,11.7-5.2
							l5.6-42.2c-2.9,1.3-7.7,3.4-13,5.4c-11.9,4.5-20.9,6.4-26.8,5.8c-9.7-1-15.7-8.7-16-9c-0.2-0.3-0.3-0.6-0.4-1
							c0,0-0.2-3.1-1-6.3c-1.2-5.4-2.7-6.4-3.2-6.6c-1.1-0.5-1.5-0.2-1.7-0.1c-1.5,0.9-2.3,4.9-2.4,7.4c0,0.7-0.5,1.3-1.1,1.6
							c-0.6,0.3-1.4,0.1-1.9-0.3c-0.1-0.1-10.8-9.9-18.5-6.4c-1.8,0.8-1.8,3.2-1.7,3.4C11.2,113.7,10.6,114.4,9.8,114.6z"/>
					</g>
				</g>
			</g>
		</g>
		<g>
			<g>
				<g>
					<g>
						<path fill="#181932" d="M34.1,114.5c0,0.5,0,1-0.1,1.4c0,0.2-0.1,0.4-0.2,0.6c-0.1,0.2-0.1,0.3-0.2,0.5
							c-0.3,0.6-0.6,1.2-0.9,1.7c-0.3,0.5-0.6,1-0.8,1.5l-0.2,0.4c-0.1,0.1-0.1,0.2-0.2,0.4l-0.2,0.4l-0.2,0.4l-0.1,0.4l-0.1,0.4
							c0,0.1-0.1,0.3-0.1,0.4s-0.1,0.3-0.1,0.4c-0.1,0.5-0.3,1.1-0.3,1.7c-0.1,0.6-0.1,1.1-0.1,1.7c0,0.3,0,0.6,0,0.9
							c0,0.2,0,0.3,0,0.5c0,0.2,0,0.3,0,0.5l0,0c0,0.1-0.1,0.2-0.2,0.2s-0.2,0-0.2-0.1c-0.3-0.6-0.5-1.1-0.7-1.7s-0.4-1.2-0.5-1.9
							c-0.2-1.3-0.2-2.6,0-4l0.1-0.5c0-0.2,0.1-0.3,0.1-0.5s0.1-0.3,0.1-0.5s0.1-0.3,0.2-0.5c0.2-0.6,0.5-1.2,0.8-1.8
							c0.3-0.6,0.6-1.1,0.8-1.5c0.2-0.5,0.4-0.8,0.5-1l0.2-0.4c0.3-0.7,1.1-1.1,1.9-0.8C33.7,113.5,34.1,114,34.1,114.5z"/>
					</g>
				</g>
			</g>
		</g>
		<g>
			<g>
				<g>
					<g>
						<path fill="#1F1F23" d="M48.2,171.2c-0.5,0-0.9-0.2-1.1-0.7c-0.3-0.6-0.1-1.3,0.6-1.6c5-2.5,8.3-10.2,9.8-22.2
							c1.1-9.4,0.7-18.1,0.7-18.2c0-0.7,0.5-1.3,1.2-1.3s1.3,0.5,1.3,1.2c0,0.1,0.5,9-0.7,18.6c-0.7,5.7-1.8,10.5-3.3,14.3
							c-1.9,4.9-4.6,8.3-7.9,9.9C48.6,171.2,48.4,171.2,48.2,171.2z"/>
					</g>
				</g>
			</g>
		</g>
		<g opacity="0.35">
			<g>
				<g>
					<g>
						<path fill="#361B45" d="M206.7,250.3V250C204.7,250.1,206.7,250.3,206.7,250.3z"/>
					</g>
				</g>
			</g>
		</g>
		<g>
			<g>
				<g>
					<g>
						<g>
							<path fill="#FFFFFF" d="M181.9,220.1h-118c0,0,0.7-20.4,7.7-49.6c2.8-11.7,6.6-24.8,11.8-38.7c1.2-3.3,2.6-6.7,4-10.1
								c3.9-9.4,8.5-19.1,13.8-28.8h43.4c4.4,8,8.3,16,11.7,23.9c2.2,5.1,4.2,10.1,6.1,15.1c8.1,21.6,12.8,41.5,15.6,56.9
								C181.5,207.9,181.9,220.1,181.9,220.1z"/>
						</g>
					</g>
				</g>
			</g>
		</g>
		<g>
			<g>
				<g>
					<g>
						<g>
							<path fill="#1F1F23" d="M165.7,147.2c2.3,2.5,3.3,5.5,4.3,8.5c0.5,1.5,1,3,1.4,4.5c0.2,0.7,0.5,1.5,0.7,2.3s0.4,1.5,0.6,2.3
								l0.6,2.3c0.2,0.8,0.4,1.5,0.6,2.3l1.1,4.6c0.2,0.8,0.4,1.5,0.5,2.3l0.5,2.3l0.5,2.3c0.2,0.8,0.4,1.5,0.5,2.3l1,4.6
								c0.2,0.8,0.3,1.5,0.5,2.3l0.5,2.3l0.2,1.1l0.1,0.6l0.1,0.6l0.4,2.3c0.1,0.8,0.3,1.5,0.5,2.3s0.3,1.5,0.5,2.3
								c0.7,3.1,1.2,6.2,1.4,9.3c0,0.4,0.1,0.8,0.1,1.2l0.1,1.2c0,0.8,0,1.6,0,2.4c0,0.8,0,1.6-0.1,2.4c0,0.8-0.1,1.6-0.2,2.4
								c0,0.2-0.2,0.3-0.3,0.2c-0.1,0-0.2-0.1-0.2-0.2l0,0c-0.6-1.5-1-3-1.5-4.5c-0.2-0.8-0.4-1.5-0.6-2.3l-0.3-1.1
								c-0.1-0.4-0.2-0.8-0.3-1.1c-0.4-1.5-0.7-3-1-4.6c-0.1-0.8-0.3-1.5-0.4-2.3c-0.1-0.8-0.2-1.5-0.4-2.3
								c-0.1-0.8-0.2-1.5-0.4-2.3c-0.1-0.8-0.3-1.5-0.4-2.3l-0.4-2.3l-0.1-0.6l-0.1-0.6l-0.2-1.1l-0.5-2.3c-0.2-0.8-0.3-1.5-0.5-2.3
								l-1-4.5c-0.2-0.8-0.4-1.5-0.5-2.3l-0.6-2.3l-0.6-2.3c-0.1-0.4-0.2-0.8-0.3-1.1l-0.3-1.1l-1.2-4.5c-0.4-1.5-0.9-3-1.3-4.5
								c-0.2-0.7-0.4-1.5-0.6-2.2l-0.1-0.6l-0.2-0.6l-0.3-1.1c-0.4-1.5-0.8-3-1.2-4.5l-0.3-1.1c-0.1-0.4-0.2-0.7-0.3-1.1
								c-0.2-0.8-0.4-1.5-0.5-2.3s-0.2-1.6-0.2-2.4c0-0.4,0-0.8,0-1.2s0-0.8,0.1-1.3l0,0c0-0.2,0.2-0.3,0.3-0.2
								C165.6,147.1,165.7,147.1,165.7,147.2z"/>
						</g>
					</g>
				</g>
			</g>
			<g>
				<g>
					<g>
						<g>
							<path fill="#1F1F23" d="M63.6,220.1c-0.2-0.4-0.3-0.8-0.4-1.2c-0.1-0.4-0.2-0.8-0.3-1.2c-0.2-0.8-0.2-1.6-0.3-2.4
								c0-0.4,0-0.8,0-1.2s0-0.8,0-1.2l0.1-1.2c0-0.4,0-0.8,0.1-1.2c0.1-1.6,0.2-3.2,0.4-4.7c0.1-0.8,0.2-1.6,0.3-2.4
								c0-0.4,0.1-0.8,0.2-1.2l0.2-1.2l0.3-2.3c0.1-0.8,0.3-1.6,0.4-2.3c0.3-1.6,0.5-3.1,0.8-4.7c0.3-1.6,0.6-3.1,0.9-4.7
								c0.3-1.5,0.6-3.1,0.9-4.7c0.1-0.4,0.1-0.8,0.2-1.2l0.2-1.2l0.5-2.3l0.5-2.3c0-0.2,0.1-0.4,0.1-0.6l0.1-0.6l0.3-1.2l1.1-4.6
								c0.1-0.4,0.2-0.8,0.3-1.2c0.1-0.4,0.2-0.8,0.3-1.2c0.2-0.8,0.4-1.5,0.5-2.3c0.2-0.8,0.4-1.5,0.5-2.3c0.2-0.8,0.4-1.5,0.6-2.3
								s0.5-1.5,0.7-2.3c0.3-0.7,0.5-1.5,0.8-2.2l0.4-1.1c0.1-0.2,0.1-0.4,0.2-0.6c0.1-0.2,0.2-0.4,0.2-0.5c0.3-0.7,0.6-1.5,1-2.2
								c0.3-0.7,0.7-1.4,1.1-2.1c0.4-0.7,0.8-1.4,1.2-2.1c0.1-0.1,0.3-0.2,0.4-0.1c0.1,0.1,0.1,0.2,0.1,0.3l0,0
								c-0.2,3.2-0.8,6.3-1.4,9.4c-0.2,0.8-0.3,1.5-0.5,2.3s-0.4,1.5-0.6,2.3c-0.4,1.5-0.8,3-1.3,4.5c-0.2,0.8-0.4,1.5-0.6,2.3
								c-0.1,0.4-0.2,0.8-0.3,1.1c-0.1,0.4-0.2,0.8-0.3,1.1l-1.1,4.6l-0.3,1.1l-0.1,0.6c0,0.2-0.1,0.4-0.1,0.6l-0.5,2.3l-0.5,2.3
								l-0.2,1.1c-0.1,0.4-0.2,0.8-0.2,1.2c-1.3,6.1-2.1,12.3-2.9,18.5l-0.3,2.3c-0.1,0.8-0.2,1.5-0.3,2.3l-0.6,4.6
								c-0.1,0.8-0.2,1.5-0.3,2.3c-0.1,0.4-0.1,0.8-0.2,1.2s-0.1,0.8-0.2,1.2c-0.2,0.8-0.4,1.5-0.6,2.3c-0.1,0.4-0.3,0.8-0.4,1.1
								c-0.2,0.4-0.3,0.8-0.5,1.1l0,0c-0.1,0.1-0.3,0.2-0.4,0.1C63.7,220.2,63.7,220.2,63.6,220.1z"/>
						</g>
					</g>
				</g>
			</g>
		</g>
		<g>
			<g>
				<g>
					<g>
						<g>
							<path fill="#FFFFFF" d="M97.9,194.4c-6.7,2.7-17.1,2.2-24.2,1.3c-4.3-0.5-7.2-4.4-6.6-8.7l0,0c0.6-3.9,4-6.7,7.9-6.5
								c6.6,0.3,16.6,0.5,22.9-0.9"/>
						</g>
					</g>
				</g>
			</g>
			<g opacity="0.35">
				<g>
					<g>
						<g>
							<path fill="#361B45" d="M97.9,194.4c-6.7,2.7-17.1,2.2-24.2,1.3c-4.3-0.5-7.2-4.4-6.6-8.7c0.1-0.9,0.4-1.7,0.8-2.4
								c1.1,2.1,3.2,3.7,5.8,4c7.1,0.9,17.5,1.4,24.2-1.3L97.9,194.4z"/>
						</g>
					</g>
				</g>
			</g>
			<g>
				<g>
					<g>
						<g>
							<path fill="#361B45" d="M84.5,198.2c-3.9,0-7.8-0.3-11.1-0.7c-2.5-0.3-4.8-1.6-6.3-3.6c-1.6-2-2.2-4.6-1.8-7.1
								c0.3-2.3,1.5-4.4,3.3-5.9s4.1-2.2,6.4-2.1c9.8,0.5,17.7,0.1,22.4-0.9c0.9-0.2,3.3-0.2,4.7,4.2c1.4,4.5,1.2,12.1-3.5,14l0,0
								C94.6,197.7,89.5,198.2,84.5,198.2z M74.6,182.3c-2.9,0-5.3,2.1-5.8,5c-0.2,1.6,0.2,3.1,1.1,4.4c1,1.3,2.4,2.1,3.9,2.2
								c10.2,1.2,18.4,0.8,23.4-1.2l0,0c1.5-0.6,1.9-3,2-3.9c0.4-3.5-0.7-6.7-1.3-7.4c-6.4,1.3-16,1.2-23.1,0.9
								C74.7,182.3,74.7,182.3,74.6,182.3z"/>
						</g>
					</g>
				</g>
			</g>
			<g>
				<g>
					<g>
						<g>
							<path fill="#FFFFFF" d="M149.4,194.4c6.7,2.7,17.1,2.2,24.2,1.3c4.3-0.5,7.2-4.4,6.6-8.7l0,0c-0.6-3.9-4-6.7-7.9-6.5
								c-6.6,0.3-16.6,0.5-22.9-0.9"/>
						</g>
					</g>
				</g>
			</g>
			<g opacity="0.35">
				<g>
					<g>
						<g>
							<path fill="#361B45" d="M173.6,195.7c-7.1,0.9-17.5,1.4-24.2-1.3v-7.1c6.7,2.7,17.1,2.1,24.2,1.3c2.6-0.3,4.7-1.9,5.8-4
								c0.4,0.7,0.7,1.6,0.8,2.5C180.8,191.3,177.9,195.2,173.6,195.7z"/>
						</g>
					</g>
				</g>
			</g>
			<g>
				<g>
					<g>
						<g>
							<path fill="#361B45" d="M162.7,198.2c-5,0-10.1-0.5-14-2.1c-4.8-1.9-4.9-9.5-3.5-14c1.4-4.4,3.7-4.4,4.7-4.2
								c4.7,1,12.7,1.4,22.4,0.9c2.3-0.1,4.6,0.6,6.4,2.1c1.8,1.5,3,3.6,3.3,5.9c0.4,2.5-0.3,5.1-1.8,7.1c-1.6,2-3.8,3.3-6.3,3.6
								C170.5,197.9,166.6,198.2,162.7,198.2z M149.4,181.4c-0.7,0.8-1.7,4-1.3,7.4c0.1,1,0.5,3.4,2,3.9l0,0
								c4.9,2,13.2,2.4,23.4,1.2c1.6-0.2,3-1,3.9-2.2c1-1.3,1.4-2.8,1.1-4.4c-0.4-3-3-5.1-6-5C165.4,182.6,155.8,182.7,149.4,181.4z
								"/>
						</g>
					</g>
				</g>
			</g>
			<g>
				<g>
					<g>
						<g>
							<path fill="#FFFFFF" d="M152,174.7v23.8c0,4.4-3.6,8-8,8h-43.8c-4.4,0-8-3.6-8-8v-23.8c0-4.4,3.6-8,8-8H144
								c2.6,0,4.9,1.3,6.4,3.2C151.4,171.2,152,172.9,152,174.7z"/>
						</g>
					</g>
				</g>
			</g>
			<g opacity="0.35">
				<g>
					<g>
						<g>
							<path fill="#361B45" d="M152,174.7v23.8c0,4.4-3.6,8-8,8h-43.8c-4.4,0-8-3.6-8-8v-8.9c6.6,6.7,19.5,10.9,31.4,11
								c3.8,0,6.9-3,7.2-6.8v-0.1c0.3-3.3,3-6,6.4-6.3c3.8-0.3,7,2.5,7.4,6.2c5.7-7.1,4.1-19.4,5.9-23.7
								C151.4,171.2,152,172.9,152,174.7z"/>
						</g>
					</g>
				</g>
			</g>
			<g>
				<g>
					<g>
						<g>
							<path fill="#361B45" d="M143.9,208.3h-43.8c-5.4,0-9.8-4.4-9.8-9.8v-23.8c0-5.4,4.4-9.8,9.8-9.8h43.8c5.4,0,9.8,4.4,9.8,9.8
								v23.8C153.7,203.9,149.3,208.3,143.9,208.3z M100.1,168.5c-3.4,0-6.2,2.8-6.2,6.2v23.8c0,3.4,2.8,6.2,6.2,6.2h43.8
								c3.4,0,6.2-2.8,6.2-6.2v-23.8c0-3.4-2.8-6.2-6.2-6.2H100.1z"/>
						</g>
					</g>
				</g>
			</g>
			<g>
				<g>
					<g>
						<g>
							<circle fill="#3DA2DB" cx="137.6" cy="186.6" r="6.9"/>
						</g>
					</g>
				</g>
			</g>
			<g opacity="0.7">
				<g>
					<g>
						<g>
							<path fill="#FFFFFF" d="M144.5,186.6c0,0.5,0,0.9-0.1,1.4c-0.6-3.2-3.4-5.5-6.8-5.5c-3.4,0-6.1,2.4-6.8,5.5
								c-0.1-0.4-0.1-0.9-0.1-1.4c0-3.8,3.1-6.9,6.9-6.9C141.4,179.7,144.5,182.8,144.5,186.6z"/>
						</g>
					</g>
				</g>
			</g>
			<g opacity="0.35">
				<g>
					<g>
						<g>
							<path fill="#361B45" d="M144.5,186.6c0,3.8-3.1,6.9-6.9,6.9s-6.9-3.1-6.9-6.9c0-0.9,0.2-1.7,0.5-2.5c1,2.6,3.5,4.4,6.4,4.4
								s5.4-1.8,6.4-4.4C144.3,184.8,144.5,185.7,144.5,186.6z"/>
						</g>
					</g>
				</g>
			</g>
			<g>
				<g>
					<g>
						<g>
							<path fill="#361B45" d="M137.6,194.8c-4.6,0-8.3-3.7-8.3-8.3s3.7-8.3,8.3-8.3s8.3,3.7,8.3,8.3S142.1,194.8,137.6,194.8z
								 M137.6,181c-3.1,0-5.6,2.5-5.6,5.6s2.5,5.6,5.6,5.6s5.6-2.5,5.6-5.6C143.1,183.5,140.6,181,137.6,181z"/>
						</g>
					</g>
				</g>
			</g>
			<g>
				<g>
					<g>
						<g>
							<path fill="#361B45" d="M118,207.8c-0.7,0-1.3-0.6-1.3-1.3v-16.3l-8.8-6.6v-16.9c0-0.7,0.6-1.3,1.3-1.3s1.3,0.6,1.3,1.3v15.6
								l8.8,6.6v17.6C119.3,207.2,118.7,207.8,118,207.8z"/>
						</g>
					</g>
				</g>
			</g>
		</g>
		<g>
			<g>
				<g>
					<g>
						<path fill="none" stroke="#361B45" stroke-width="3.5743" stroke-linecap="round" stroke-miterlimit="10" d="M117.4,216.5"/>
					</g>
				</g>
			</g>
		</g>
		<g>
			<g>
				<g>
					<g>
						<g>
							<path fill="#FFFFFF" d="M122.9,219.3c7.7,0,15.2-2.9,21-8c8.1-7.1,21.6-15.5,36.6-10.1c6,2.2,10.1,6.2,12.9,10.6
								c7.2-16.7,22.3-17.7,28.8-8.2c0,0-11,52.4-14.6,53.6c-5.1,1.7-17.4-0.1-17.4-0.1s-42.9-5.8-67.3-5.8S55.6,257,55.6,257
								s-12.3,1.8-17.4,0.1c-3.6-1.2-14.6-53.6-14.6-53.6c6.5-9.4,21.6-8.4,28.8,8.2c2.8-4.4,6.9-8.4,12.9-10.6
								c15-5.4,28.5,3,36.6,10.1C107.7,216.4,115.2,219.3,122.9,219.3L122.9,219.3z"/>
						</g>
					</g>
				</g>
			</g>
			<g opacity="0.35">
				<g>
					<g>
						<g>
							<path fill="#1F1F23" d="M222.2,203.5c0,0-11,52.4-14.6,53.6c-5.1,1.7-17.4-0.1-17.4-0.1s-42.9-5.8-67.3-5.8
								c-24.5,0-67.3,5.8-67.3,5.8s-12.3,1.8-17.4,0.1c-3.6-1.2-14.6-53.6-14.6-53.6c1.1-1.6,2.4-2.8,3.8-3.8
								c3.5,15.4,8.5,35.4,10.7,36.1c5.1,1.7,17.4-0.1,17.4-0.1s42.9-11.6,67.3-11.6c24.5,0,67.3,11.6,67.3,11.6s12.3,1.8,17.4,0.1
								c2.2-0.7,7.2-20.8,10.7-36.1C219.9,200.7,221.2,202,222.2,203.5z"/>
						</g>
					</g>
				</g>
			</g>
			<g>
				<g>
					<g>
						<g>
							<path fill="#1F1F23" d="M44.7,259.6c-2.7,0-5.3-0.2-7.2-0.8c-1.3-0.4-2.3-1.8-4.3-8c-1.2-3.6-2.6-8.7-4.1-15
								c-2.9-11.4-5.6-24.2-6.7-29.1c-0.6-2.6,0.3-5.3,2.2-7c3.7-3.3,8.7-4.6,13.6-3.5c3.1,0.7,6.2,2.3,8.8,4.7
								c2.2,2,4.1,4.5,5.6,7.4c3.2-4.1,7.2-7,12-8.7c5.4-2,11.1-2.3,16.8-1.2c4.6,1,9.4,3,14,5.9c0.8,0.5,1.1,1.6,0.5,2.5
								c-0.5,0.8-1.6,1.1-2.5,0.5c-9.6-6.1-19-7.6-27.7-4.4c-5,1.8-9,5.1-12,9.8c-0.4,0.6-1,0.9-1.7,0.8c-0.7-0.1-1.2-0.5-1.5-1.1
								c-3-7-7.8-11.6-13.3-12.8c-3.8-0.8-7.6,0.1-10.5,2.7c-1,0.9-1.4,2.3-1.1,3.6c1,4.7,3.6,16.8,6.4,27.8c1.5,6.1,2.8,11,4,14.7
								c1.6,5.1,2.4,6.6,2.7,7.1c4,1.1,13.1,0.2,16.4-0.2l0,0c0.4-0.1,43.3-5.8,67.6-5.8s67.1,5.8,67.6,5.8l0,0
								c3.2,0.5,12.3,1.4,16.4,0.2c0.3-0.4,1.1-1.9,2.6-6.8c1.1-3.6,2.4-8.3,3.9-14.2c2.6-10.5,5.1-21.9,6.4-27.8
								c0.4-1.9-0.3-3.9-1.8-5c-2.9-2.2-6.5-2.8-10.2-1.8c-5.2,1.4-9.7,5.9-12.7,12.7c-0.3,0.6-0.8,1-1.5,1.1s-1.3-0.3-1.7-0.8
								c-3-4.7-7-8.1-12-9.8c-8.9-3.2-18.3-1.7-28,4.6c-0.8,0.5-1.9,0.3-2.5-0.5c-0.5-0.8-0.3-1.9,0.5-2.5c4.7-3,9.5-5.1,14.1-6.1
								c5.8-1.2,11.5-0.9,17,1.1c4.8,1.7,8.8,4.7,12,8.7c3.4-6.2,8.1-10.4,13.6-11.9c4.7-1.3,9.5-0.4,13.3,2.4
								c2.7,2,3.9,5.4,3.2,8.7c-1.3,6.2-4,18.3-6.7,29.1c-1.6,6.1-2.9,11-4.1,14.5c-1.9,6-3,7.3-4.2,7.7c-5.4,1.8-17.6,0.1-18.2,0
								c-0.7-0.1-43.1-5.8-67.1-5.8s-66.4,5.7-67.1,5.8C55.4,258.8,50,259.6,44.7,259.6z M39.1,255.6L39.1,255.6L39.1,255.6z"/>
						</g>
					</g>
				</g>
			</g>
			<g>
				<g>
					<g>
						<g>
							<path fill="#AFAFB2" d="M204.5,257.1h3.2c3.7,0,7.1-2.2,8.6-5.6c4.8-10.7,13.5-34.1,5.3-48.4c-0.2-0.4-0.5-0.8-0.8-1.2
								c0,0-7.8-7.1-13.4,2.9C202.2,214.2,191.2,254.3,204.5,257.1z"/>
						</g>
					</g>
				</g>
			</g>
			<g opacity="0.7">
				<g>
					<g>
						<g>
							<path fill="#FFFFFF" d="M204.6,211.5c0.1-0.2,0.3-0.4,0.4-0.6c6.9-10.1,16.5-2.9,16.5-2.9c0.3,0.4,0.6,0.8,0.9,1.2
								c1,1.4,1.7,2.8,2.3,4.4c-0.4-3.8-1.4-7.3-3.1-10.4c-0.2-0.4-0.5-0.8-0.8-1.2c0,0-7.8-7.1-13.4,2.9
								C206.6,206.3,205.6,208.7,204.6,211.5z"/>
						</g>
					</g>
				</g>
			</g>
			<g>
				<g>
					<g>
						<g>
							<path fill="#1F1F23" d="M224.7,214.6c-0.1,0-0.2,0-0.2,0l-19.5-3.3c-0.8-0.1-1.3-0.9-1.2-1.7s0.9-1.3,1.7-1.2l19.5,3.3
								c0.8,0.1,1.3,0.9,1.2,1.7C226.1,214.1,225.4,214.6,224.7,214.6z"/>
						</g>
					</g>
				</g>
			</g>
			<g>
				<g>
					<g>
						<g>
							<path fill="#1F1F23" d="M224.6,225.1c-0.1,0-0.1,0-0.2,0l-22.8-3.1c-0.8-0.1-1.4-0.9-1.3-1.7c0.1-0.8,0.8-1.4,1.7-1.3
								l22.8,3.1c0.8,0.1,1.4,0.9,1.3,1.7C226,224.6,225.3,225.1,224.6,225.1z"/>
						</g>
					</g>
				</g>
			</g>
			<g>
				<g>
					<g>
						<g>
							<path fill="#1F1F23" d="M222.6,235.4c-0.1,0-0.1,0-0.2,0l-23.2-2.8c-0.8-0.1-1.4-0.8-1.3-1.6c0.1-0.8,0.8-1.4,1.6-1.3
								l23.2,2.8c0.8,0.1,1.4,0.8,1.3,1.6C224,234.9,223.3,235.4,222.6,235.4z"/>
						</g>
					</g>
				</g>
			</g>
			<g>
				<g>
					<g>
						<g>
							<path fill="#1F1F23" d="M218.9,246.7h-0.1l-20.7-1.9c-0.8-0.1-1.4-0.8-1.3-1.6c0.1-0.8,0.8-1.4,1.6-1.3l20.7,1.9
								c0.8,0.1,1.4,0.8,1.3,1.6C220.3,246.1,219.7,246.7,218.9,246.7z"/>
						</g>
					</g>
				</g>
			</g>
			<g opacity="0.35">
				<g>
					<g>
						<g>
							<path fill="#1F1F23" d="M204.5,257.1h3.2c3.7,0,7.1-2.2,8.6-5.6c1.2-2.8,2.7-6.4,4.1-10.5c-1.9,3.2-5.8,5.2-10.1,5.2h-3.8
								c-5.4-0.9-7.4-6.2-7.5-13.2C197.3,244.7,197.8,255.7,204.5,257.1z"/>
						</g>
					</g>
				</g>
			</g>
			<g>
				<g>
					<g>
						<g>
							<path fill="#1F1F23" d="M207.7,258.6h-3.2c-0.1,0-0.2,0-0.3,0c-2.6-0.5-4.5-2.2-5.8-5c-3-6.5-1.5-17.8,0.2-26.2
								c2.1-10.2,5.4-19.4,7.5-23.3c2-3.5,4.4-5.6,7.4-6c4.5-0.7,8.2,2.6,8.3,2.7c0.1,0.1,0.2,0.2,0.2,0.2c0.3,0.4,0.6,0.9,0.8,1.3
								c3.7,6.5,4.5,15.5,2.3,26.6c-1.8,9-5.1,17.6-7.6,23.2C215.9,256,212,258.6,207.7,258.6z M204.7,255.6h3c3.2,0,6-1.9,7.3-4.7
								c2.4-5.4,5.7-13.8,7.4-22.5c2-10.4,1.3-18.7-2-24.6c-0.2-0.3-0.4-0.6-0.6-0.9c-0.6-0.5-3.1-2.3-5.8-1.9
								c-2,0.3-3.8,1.9-5.3,4.6c-2,3.6-5.2,12.6-7.2,22.4c-2.3,11.2-2.5,19.9-0.4,24.4C201.9,254.2,203.1,255.3,204.7,255.6z"/>
						</g>
					</g>
				</g>
			</g>
			<g>
				<g>
					<g>
						<g>
							<path fill="#AFAFB2" d="M41.3,257.1h-3.2c-3.7,0-7.1-2.2-8.6-5.6c-4.8-10.7-13.5-34.1-5.3-48.4c0.2-0.4,0.5-0.8,0.8-1.2
								c0,0,7.8-7.1,13.4,2.9C43.6,214.2,54.6,254.3,41.3,257.1z"/>
						</g>
					</g>
				</g>
			</g>
			<g opacity="0.7">
				<g>
					<g>
						<g>
							<path fill="#FFFFFF" d="M41.2,211.5c-0.1-0.2-0.3-0.4-0.4-0.6c-6.9-10.1-16.5-2.9-16.5-2.9c-0.3,0.4-0.6,0.8-0.9,1.2
								c-1,1.4-1.7,2.8-2.3,4.4c0.4-3.8,1.4-7.3,3.1-10.4c0.2-0.4,0.5-0.8,0.8-1.2c0,0,7.8-7.1,13.4,2.9
								C39.2,206.3,40.2,208.7,41.2,211.5z"/>
						</g>
					</g>
				</g>
			</g>
			<g>
				<g>
					<g>
						<g>
							<path fill="#1F1F23" d="M21.1,214.6c-0.7,0-1.3-0.5-1.5-1.2c-0.1-0.8,0.4-1.6,1.2-1.7l19.5-3.3c0.8-0.1,1.6,0.4,1.7,1.2
								c0.1,0.8-0.4,1.6-1.2,1.7l-19.5,3.3C21.2,214.6,21.1,214.6,21.1,214.6z"/>
						</g>
					</g>
				</g>
			</g>
			<g>
				<g>
					<g>
						<g>
							<path fill="#1F1F23" d="M21.2,225.1c-0.7,0-1.4-0.5-1.5-1.3s0.5-1.5,1.3-1.7l22.8-3.1c0.8-0.1,1.5,0.5,1.7,1.3
								c0.1,0.8-0.5,1.5-1.3,1.7l-22.8,3.1C21.3,225.1,21.3,225.1,21.2,225.1z"/>
						</g>
					</g>
				</g>
			</g>
			<g>
				<g>
					<g>
						<g>
							<path fill="#1F1F23" d="M23.2,235.4c-0.7,0-1.4-0.5-1.5-1.3s0.5-1.5,1.3-1.6l23.2-2.8c0.8-0.1,1.5,0.5,1.6,1.3
								s-0.5,1.5-1.3,1.6l-23.2,2.8C23.3,235.4,23.3,235.4,23.2,235.4z"/>
						</g>
					</g>
				</g>
			</g>
			<g>
				<g>
					<g>
						<g>
							<path fill="#1F1F23" d="M26.9,246.7c-0.8,0-1.4-0.6-1.5-1.3c-0.1-0.8,0.5-1.5,1.3-1.6l20.7-1.9c0.8-0.1,1.5,0.5,1.6,1.3
								s-0.5,1.5-1.3,1.6L27,246.7H26.9z"/>
						</g>
					</g>
				</g>
			</g>
			<g opacity="0.35">
				<g>
					<g>
						<g>
							<path fill="#361B45" d="M41.3,257.1h-3.2c-3.7,0-7.1-2.2-8.6-5.6c-1.2-2.8-2.7-6.4-4.1-10.5c1.9,3.2,5.8,5.2,10.1,5.2h3.8
								c5.4-0.9,7.4-6.2,7.5-13.2C48.5,244.7,48,255.7,41.3,257.1z"/>
						</g>
					</g>
				</g>
			</g>
			<g>
				<g>
					<g>
						<g>
							<path fill="#1F1F23" d="M41.3,258.6h-3.2c-4.3,0-8.2-2.5-10-6.5c-2.5-5.6-5.8-14.1-7.6-23.2c-2.2-11.1-1.4-20,2.3-26.6
								c0.3-0.5,0.5-0.9,0.8-1.3c0.1-0.1,0.1-0.2,0.2-0.2c0.2-0.1,3.9-3.4,8.3-2.7c2.9,0.5,5.4,2.5,7.4,6c2.1,3.8,5.4,13.1,7.5,23.3
								c1.7,8.4,3.2,19.7,0.2,26.2c-1.3,2.8-3.2,4.4-5.8,5C41.5,258.6,41.4,258.6,41.3,258.6z M26,202.9c-0.2,0.3-0.4,0.6-0.6,0.9
								c-3.4,5.9-4,14.2-2,24.6c1.7,8.8,5,17.1,7.4,22.5c1.3,2.9,4.1,4.7,7.3,4.7h3c1.6-0.4,2.7-1.4,3.6-3.3
								c2.1-4.5,1.9-13.2-0.4-24.4c-2-9.8-5.2-18.9-7.2-22.4c-1.5-2.7-3.3-4.2-5.3-4.6C29.1,200.5,26.6,202.4,26,202.9z"/>
						</g>
					</g>
				</g>
			</g>
			<g>
				<g>
					<g>
						<g>
							<path fill="#1F1F23" d="M77.2,255.7c-0.2,0-0.4,0-0.6-0.2c-0.7-0.3-0.9-1.2-0.6-1.8c5.6-10.7,5.7-22.7,0.2-35.7
								c-4.1-9.8-10-16.5-10-16.6c-0.5-0.6-0.4-1.4,0.1-1.9c0.6-0.5,1.4-0.4,1.9,0.1c0.3,0.3,6.2,7.1,10.5,17.3
								c2.5,6,3.9,12,4.2,17.7c0.3,7.2-1.2,14.1-4.5,20.4C78.2,255.5,77.7,255.7,77.2,255.7z"/>
						</g>
					</g>
				</g>
			</g>
			<g>
				<g>
					<g>
						<g>
							<path fill="#1F1F23" d="M169.1,255.7c-0.5,0-0.9-0.3-1.2-0.7c-3.3-6.3-4.8-13.2-4.5-20.4c0.3-5.7,1.7-11.7,4.2-17.7
								c4.3-10.2,10.2-17,10.5-17.3c0.5-0.6,1.3-0.6,1.9-0.1c0.6,0.5,0.6,1.3,0.1,1.9l0,0c-0.1,0.1-5.9,6.8-10,16.6
								c-5.4,13-5.4,25.1,0.2,35.7c0.3,0.7,0.1,1.5-0.6,1.8C169.5,255.7,169.3,255.7,169.1,255.7z"/>
						</g>
					</g>
				</g>
			</g>
		</g>
		<g opacity="0.35">
			<g>
				<g>
					<g>
						<path fill="#361B45" d="M167.3,127c-1.5,1.8-3.2,3.4-4.9,5c-4,3.7-8.4,6.9-13.1,9.5c-8,4.3-16.8,6.7-26.1,6.7
							c-9.1,0-17.7-2.2-25.6-6.2c-5.1-2.6-9.9-6-14.2-10.1c-2.2-2-4.2-4.2-6.1-6.5c3.5-1.1,6.9-2.3,10.1-3.5
							c3.9-9.4,8.5-19.1,13.8-28.8h43.4c4.4,8,8.3,16,11.7,23.9C159.6,118.8,163.4,122.4,167.3,127z"/>
					</g>
				</g>
			</g>
		</g>
		<g>
			<g>
				<g>
					<g>
						<g>
							<path fill="#FFFFFF" d="M189.2,83.8L189.2,83.8c-0.8,0.1-1.4-0.5-1.5-1.2l-4.2-39.4c-0.1-0.8,0.5-1.4,1.2-1.5l0,0
								c7.9-0.9,15.1,4.9,15.9,12.8L202,68C202.9,75.9,197.2,83,189.2,83.8z"/>
						</g>
					</g>
				</g>
				<g>
					<g>
						<g>
							<path fill="#361B45" d="M189.1,84.2c-0.4,0-0.8-0.1-1.1-0.4c-0.4-0.3-0.6-0.7-0.6-1.2l-4.2-39.4c0-0.5,0.1-0.9,0.4-1.3
								c0.3-0.4,0.7-0.6,1.2-0.6c8.1-0.9,15.4,5,16.3,13.1l1.4,13.5c0.4,3.9-0.7,7.8-3.2,10.9s-6,5-9.9,5.4v-0.3v0.3
								C189.2,84.2,189.1,84.2,189.1,84.2z M186.2,41.9c-0.5,0-1,0-1.5,0.1c-0.3,0-0.5,0.2-0.7,0.4s-0.3,0.5-0.2,0.8l4.2,39.4
								c0,0.3,0.2,0.5,0.4,0.7s0.5,0.3,0.8,0.2l0,0c3.7-0.4,7.1-2.2,9.5-5.2c2.4-2.9,3.4-6.6,3-10.4l-1.4-13.5
								C199.5,47.3,193.4,41.9,186.2,41.9z"/>
						</g>
					</g>
				</g>
			</g>
			<g opacity="0.35">
				<g>
					<g>
						<g>
							<path fill="#361B45" d="M201.4,61.6l0.7,6.3c0.9,7.9-4.9,15.1-12.8,15.9c-0.8,0.1-1.4-0.5-1.5-1.2l-1.1-10.5
								c0.3,0.5,0.8,0.7,1.3,0.7l0.9-0.1C195.1,72,200,67.4,201.4,61.6z"/>
						</g>
					</g>
				</g>
			</g>
			<g>
				<g>
					<g>
						<g>
							<path fill="#1F1F23" d="M189.1,85.7c-0.7,0-1.5-0.3-2-0.7c-0.7-0.5-1.1-1.3-1.2-2.2l-4.2-39.4c-0.1-0.9,0.2-1.7,0.7-2.4
								s1.3-1.1,2.2-1.2c9-1,17,5.5,18,14.5l1.4,13.5c0.5,4.3-0.8,8.6-3.5,12s-6.6,5.5-11,6l0,0C189.3,85.7,189.2,85.7,189.1,85.7z
								 M189,81.9L189,81.9L189,81.9L189,81.9z M185.4,43.5l4.1,38.4c3.1-0.5,5.9-2.1,7.9-4.5c2.1-2.6,3.1-5.9,2.7-9.2l-1.4-13.5
								C198,48,192.1,43,185.4,43.5z"/>
						</g>
					</g>
				</g>
			</g>
			<g>
				<g>
					<g>
						<g>
							<path fill="#FFFFFF" d="M54.5,55.6L54.5,55.6c0.8-0.1,1.4,0.5,1.5,1.2l4.2,39.4c0.1,0.8-0.5,1.4-1.2,1.5l0,0
								c-7.9,1-15-4.8-15.9-12.7l-1.4-13.5C40.8,63.6,46.6,56.5,54.5,55.6z"/>
						</g>
					</g>
				</g>
				<g>
					<g>
						<g>
							<path fill="#361B45" d="M57.5,98.2c-7.5,0-13.9-5.6-14.7-13.2l-1.4-13.5c-0.9-8.1,5-15.4,13.1-16.3v0.3v-0.3
								c0.9-0.1,1.8,0.6,1.9,1.5l4.2,39.4c0.1,0.9-0.6,1.8-1.5,1.9C58.5,98.2,58,98.2,57.5,98.2z M54.6,56h-0.1
								c-7.7,0.8-13.4,7.8-12.5,15.5L43.4,85c0.8,7.7,7.8,13.4,15.5,12.5c0.6-0.1,1-0.6,0.9-1.1L55.6,57C55.6,56.4,55.2,56,54.6,56z
								"/>
						</g>
					</g>
				</g>
			</g>
			<g opacity="0.35">
				<g>
					<g>
						<g>
							<path fill="#181932" d="M59.1,85.4l1.2,10.9c0.1,0.8-0.5,1.4-1.2,1.5c-4.2,0.4-8.1-0.9-11-3.5c-2.6-2.3-4.5-5.6-4.9-9.3
								l-0.6-5.7c2.8,4.7,8.2,7.7,14,7l1.4-0.2C58.5,86.2,58.9,85.8,59.1,85.4z"/>
						</g>
					</g>
				</g>
			</g>
			<g>
				<g>
					<g>
						<g>
							<path fill="#1F1F23" d="M57.5,99.8c-8.2,0-15.3-6.2-16.2-14.6l-1.4-13.5c-1-9,5.5-17,14.5-18l0,0c1.8-0.2,3.4,1.1,3.6,2.9
								L62.2,96c0.2,1.8-1.1,3.4-2.9,3.6C58.6,99.8,58,99.8,57.5,99.8z M54.2,57.6c-6.6,1-11.4,7-10.6,13.8L45,84.8
								c0.7,6.7,6.6,11.6,13.3,11.2L54.2,57.6z"/>
						</g>
					</g>
				</g>
			</g>
			<g>
				<g>
					<g>
						<g>
							<circle fill="#FFFFFF" cx="121.9" cy="69.7" r="67.6"/>
						</g>
					</g>
				</g>
				<g>
					<g>
						<g>
							<path fill="#361B45" d="M121.8,137.7c-8.3,0-16.4-1.5-24.1-4.4c-8.2-3.1-15.6-7.8-22.1-13.8S64,106.4,60.3,98.4
								c-3.8-8.2-6-17.1-6.3-26.2c-0.3-9.2,1.1-18.1,4.4-26.6c3.1-8.2,7.8-15.6,13.8-22.1S85.3,11.9,93.3,8.2
								c8.2-3.8,17.1-6,26.2-6.3c9.2-0.3,18.1,1.1,26.6,4.4c8.2,3.1,15.6,7.8,22.1,13.8s11.6,13.1,15.3,21.1
								c3.8,8.2,6,17.1,6.3,26.2c0.3,9.2-1.1,18.1-4.4,26.6c-3.1,8.2-7.8,15.6-13.8,22.1s-13.1,11.6-21.1,15.3
								c-8.2,3.8-17.1,6-26.2,6.3C123.5,137.7,122.6,137.7,121.8,137.7z M121.9,2.5c-0.8,0-1.6,0-2.5,0c-37,1.3-66.1,32.6-64.8,69.7
								c0.6,18,8.2,34.6,21.4,46.8c12.5,11.7,28.7,18,45.8,18c0.8,0,1.7,0,2.5,0c18-0.6,34.6-8.2,46.8-21.4
								c12.2-13.2,18.6-30.3,18-48.2C187.8,31.1,157.9,2.5,121.9,2.5z"/>
						</g>
					</g>
				</g>
			</g>
			<g opacity="0.35">
				<g>
					<g>
						<g>
							<path fill="#361B45" d="M188.4,58c0.5,3,0.9,6.2,1,9.3c1.3,37.3-27.8,68.7-65.1,70s-68.7-27.8-70-65.1c0-1.1-0.1-2.1,0-3.2
								c5.7,32.7,34.9,57,69,55.8C159.5,123.5,188.1,93.9,188.4,58z"/>
						</g>
					</g>
				</g>
			</g>
			<g>
				<g>
					<g>
						<g>
							<path fill="#1F1F23" d="M121.8,139.2c-8.5,0-16.8-1.5-24.7-4.5c-8.4-3.2-16-7.9-22.6-14.1c-6.6-6.1-11.9-13.4-15.7-21.5
								c-3.9-8.4-6.1-17.5-6.4-26.8c-0.3-9.4,1.2-18.5,4.5-27.2c3.2-8.4,7.9-16,14.1-22.6c6.1-6.6,13.4-11.9,21.5-15.7
								c8.4-3.9,17.5-6.1,26.8-6.4c9.4-0.3,18.5,1.2,27.2,4.5c8.4,3.2,16,7.9,22.6,14.1c6.6,6.1,11.9,13.4,15.7,21.5
								c3.9,8.4,6.1,17.5,6.4,26.8c0.3,9.4-1.2,18.5-4.5,27.2c-3.2,8.4-7.9,16-14.1,22.6c-6.1,6.6-13.4,11.9-21.5,15.7
								c-8.4,3.9-17.5,6.1-26.8,6.4C123.5,139.2,122.7,139.2,121.8,139.2z M121.9,4c-0.8,0-1.6,0-2.4,0C83.3,5.3,54.9,35.8,56.2,72
								c0.6,17.5,8.1,33.8,20.9,45.7c12.3,11.4,28.1,17.6,44.7,17.6c0.8,0,1.6,0,2.4,0c17.5-0.6,33.8-8.1,45.7-20.9
								c12-12.9,18.2-29.6,17.6-47.1C186.3,32,157,4,121.9,4z"/>
						</g>
					</g>
				</g>
			</g>
			<g>
				<g>
					<g>
						<g>
							<path fill="#1F1F23" d="M189.3,69c0.7,13.2-3,25.7-9.8,36.2c-5.1,7.9-27,22.4-54.9,24c-25.9,1.6-50.1-11-56-18.4
								c-7.9-9.8-12.8-21.8-13.4-35c-1.8-35,27.5-51,64.6-52.9C156.7,21.1,187.5,34.1,189.3,69z"/>
						</g>
					</g>
				</g>
			</g>
			<g>
				<g>
					<g>
						<g>
							<path fill="#1F1F23" d="M120.1,130.7c-12.9,0-24.1-3.2-31.5-6.1c-9.4-3.6-17.7-8.7-21.1-12.9C59.2,101.4,54.4,89,53.8,76
								c-0.4-8.7,1-16.5,4.2-23.4c3.1-6.4,7.8-12,14-16.6c11.4-8.3,27.8-13.3,47.6-14.3s36.6,2.2,48.8,9.4c6.7,3.9,11.9,9,15.6,15.1
								c3.9,6.5,6.2,14.2,6.6,22.8l0,0c0.7,13.1-2.8,25.9-10,37c-3,4.6-10.4,10.3-19.4,14.8c-7.9,4-20.6,8.9-36.5,9.8
								C123.1,130.7,121.6,130.7,120.1,130.7z M126.5,24.1c-2.2,0-4.5,0.1-6.8,0.2c-19.2,1-35.2,5.8-46.2,13.8
								c-12.2,9-18,21.7-17.2,37.7c0.6,12.5,5.2,24.4,13.2,34.3c2.4,3,9,7.9,20,12.1c8.1,3.1,20.7,6.6,35,5.8
								c15.4-0.9,27.8-5.7,35.5-9.6c10.3-5.2,16.3-10.7,18.4-13.9c6.9-10.7,10.2-22.9,9.6-35.5l0,0c-0.8-16.1-7.9-28.1-21-35.8
								C156.7,27.3,142.8,24.1,126.5,24.1z"/>
						</g>
					</g>
				</g>
			</g>
			<g opacity="0.5">
				<g>
					<g>
						<g>
							
								<ellipse transform="matrix(-0.1277 0.9918 -0.9918 -0.1277 253.4879 -92.1083)" fill="#FFFFFF" cx="167.249" cy="65.417" rx="12" ry="8.7"/>
						</g>
					</g>
				</g>
			</g>
			<g opacity="0.5">
				<g>
					<g>
						<g>
							
								<ellipse transform="matrix(-0.2636 0.9646 -0.9646 -0.2636 285.9482 -39.0172)" fill="#FFFFFF" cx="157.867" cy="89.637" rx="5.5" ry="4.7"/>
						</g>
					</g>
				</g>
			</g>
			<g opacity="0.35">
				<g>
					<g>
						<g>
							<path fill="#1F1F23" d="M174.6,37.1c8.6,7.4,14,17.9,14.7,31.9c0.7,13.2-3,25.7-9.8,36.2c-5.1,7.9-27,22.4-54.9,24
								c-9.9,0.6-19.5-0.9-27.9-3.3c34.3-2.8,61-20.6,67.3-30.3c8.7-13.4,13.3-29.2,12.4-46C176.1,45.2,175.5,41,174.6,37.1z"/>
						</g>
					</g>
				</g>
			</g>
			<g>
				<g>
					<g>
						<g>
							<path fill="#1F1F23" d="M58.6,47.7c-0.4,0-0.8-0.1-1.1-0.4c-0.8-0.6-1-1.7-0.4-2.5c2.8-4.6,6.4-8.8,10.6-12.5
								c4.1-3.6,9-6.7,14.3-9.3c5.3-2.5,11.1-4.6,17.3-6.1c6.1-1.5,12.7-2.4,19.5-2.7c6.7-0.3,13.2-0.1,19.4,0.7
								c6.3,0.8,12.3,2.2,17.8,4.1c5.6,2,10.8,4.5,15.3,7.5c4.7,3.1,8.7,6.8,12,10.9c0.6,0.6,0.6,1.6,0.1,2.3
								c-0.6,0.8-1.7,1-2.5,0.3l-0.2-0.1l-0.1-0.2c-12.2-15.3-34.6-23.3-61.5-22C92,19.1,70.6,29.6,60.3,46.6v0.1l-0.1,0.1
								C59.7,47.4,59.2,47.7,58.6,47.7z"/>
						</g>
					</g>
				</g>
			</g>
			<g opacity="0.5">
				<g>
					<g>
						<g>
							<path fill="#FFFFFF" d="M71.2,95.9c0,0-12.6-33.9,5.3-48.6s44.6-16,44.1-14.3c0,0-29.2,8.7-39.6,32.7
								C73,84.2,71.2,95.9,71.2,95.9z"/>
						</g>
					</g>
				</g>
			</g>
		</g>
		<g>
			<g>
				<g>
					<g>
						<path fill="#361B45" d="M194.8,212.2c0,0.3-0.1,0.6-0.2,0.9c-0.1,0.3-0.1,0.6-0.2,0.9c-0.1,0.6-0.3,1.2-0.4,1.8
							c-0.3,1.2-0.7,2.4-1,3.7c-0.3,1.2-0.7,2.4-1,3.7l-0.2,0.9c-0.1,0.3-0.2,0.6-0.2,0.9l-0.1,0.5l-0.1,0.2l-0.1,0.2
							c-0.1,0.3-0.1,0.6-0.2,1l0,0c0,0.1-0.1,0.2-0.3,0.2c-0.1,0-0.1-0.1-0.2-0.2c-0.1-0.6-0.2-1.3-0.3-2l-0.1-0.5
							c0-0.2,0-0.3,0-0.5c0-0.3,0-0.7,0-1c0-1.3,0-2.6,0.1-4c0.1-1.3,0.3-2.6,0.5-3.9c0.1-0.6,0.3-1.3,0.4-1.9
							c0.1-0.3,0.2-0.6,0.3-0.9c0.1-0.3,0.2-0.6,0.3-0.9c0.3-0.8,1.2-1.1,1.9-0.8C194.6,210.8,194.9,211.5,194.8,212.2L194.8,212.2z
							"/>
					</g>
				</g>
			</g>
		</g>
		<g>
			<g>
				<g>
					<g>
						<path fill="#1F1F23" d="M53.9,211.4c0.1,0.3,0.2,0.6,0.3,0.9c0.1,0.3,0.2,0.6,0.3,0.9c0.2,0.6,0.3,1.3,0.4,1.9
							c0.3,1.3,0.4,2.6,0.5,3.9c0.1,1.3,0.2,2.6,0.1,4c0,0.3,0,0.7,0,1c0,0.2,0,0.3,0,0.5l-0.1,0.5c-0.1,0.7-0.2,1.3-0.3,2
							c0,0.1-0.1,0.2-0.3,0.2c-0.1,0-0.1-0.1-0.2-0.2l0,0c-0.1-0.3-0.2-0.6-0.2-1l-0.1-0.2l-0.1-0.2l-0.1-0.5
							c-0.1-0.3-0.1-0.6-0.2-0.9l-0.2-0.9c-0.3-1.2-0.7-2.5-1-3.7s-0.7-2.4-1-3.7c-0.2-0.6-0.3-1.2-0.4-1.8
							c-0.1-0.3-0.1-0.6-0.2-0.9c-0.1-0.3-0.1-0.6-0.2-0.9l0,0c-0.1-0.8,0.5-1.6,1.3-1.7C53,210.4,53.7,210.7,53.9,211.4z"/>
					</g>
				</g>
			</g>
		</g>
		<g>
			<g>
				<g>
					<g>
						<g>
							<path fill="#EDDF5E" d="M183.1,261H63.2c-3.9,0-7-3.1-7-7l0,0c0-2.2,1.8-4.1,4.1-4.1h125.9c2.2,0,4.1,1.8,4.1,4.1l0,0
								C190.2,257.8,187,261,183.1,261z"/>
						</g>
					</g>
				</g>
			</g>
			<g opacity="0.3">
				<g>
					<g>
						<g>
							<path fill="#FFFFFF" d="M190.2,254c0,0.8-0.1,1.5-0.4,2.2c-0.6-1.4-2-2.4-3.7-2.4H60.3c-1.1,0-2.1,0.5-2.9,1.2
								c-0.3,0.3-0.6,0.8-0.8,1.2c-0.2-0.7-0.4-1.4-0.4-2.2c0-1.1,0.5-2.1,1.2-2.9c0.7-0.7,1.7-1.2,2.9-1.2h125.9
								C188.4,249.9,190.2,251.7,190.2,254z"/>
						</g>
					</g>
				</g>
			</g>
			<g opacity="0.35">
				<g>
					<g>
						<g>
							<path fill="#EDDF5E" d="M190.2,254c0,1.9-0.8,3.7-2.1,5s-3,2.1-5,2.1H63.2c-3.9,0-7-3.1-7-7c0-0.7,0.2-1.4,0.6-2.1
								c1.1,2.5,3.6,4.3,6.5,4.3h119.9c1.9,0,3.7-0.8,5-2.1c0.6-0.6,1.1-1.4,1.5-2.2C190,252.5,190.2,253.2,190.2,254z"/>
						</g>
					</g>
				</g>
			</g>
			<g>
				<g>
					<g>
						<g>
							<path fill="#1F1F23" d="M183.1,262.8H63.2c-4.9,0-8.8-4-8.8-8.8c0-3.2,2.6-5.8,5.8-5.8h125.9c3.2,0,5.8,2.6,5.8,5.8
								C192,258.8,188,262.8,183.1,262.8z M60.2,251.7c-1.2,0-2.3,1-2.3,2.3c0,2.9,2.4,5.2,5.2,5.2H183c2.9,0,5.2-2.4,5.2-5.2
								c0-1.2-1-2.3-2.3-2.3L60.2,251.7L60.2,251.7z"/>
						</g>
					</g>
				</g>
			</g>
			<g>
				<g>
					<g>
						<g>
							<path fill="#EB69A2" d="M197.2,170.8l-11.7,79.1H60.9l-0.4-2.9l-11.3-76.3c-0.4-2.5,1.6-4.8,4.1-4.8h139.8
								C195.6,166,197.5,168.2,197.2,170.8z"/>
						</g>
					</g>
				</g>
			</g>
			<g>
				<g>
					<g>
						<g>
							<path fill="#EDDF5E" d="M197.2,170.8l-11.7,79.1H60.9l-0.4-2.9l-11.3-76.3c-0.4-2.5,1.6-4.8,4.1-4.8h139.8
								C195.6,166,197.5,168.2,197.2,170.8z"/>
						</g>
					</g>
				</g>
			</g>
			<g opacity="0.5">
				<g>
					<g>
						<g>
							<path fill="#FFFFFF" d="M53.6,175.7c-0.4-2.5,1.6-4.8,4.1-4.8h139.4v-0.2c0.4-2.5-1.6-4.8-4.1-4.8H53.3
								c-2.5,0-4.5,2.2-4.1,4.8L60.5,247l0.4,2.9h3.7L53.6,175.7z"/>
						</g>
					</g>
				</g>
			</g>
			<g>
				<g opacity="0.35">
					<g>
						<g>
							<g>
								<path fill="#361B45" d="M189.1,166h-9.8c3.7,13.6,1.7,44.4-22.3,60.5c-30.1,20.2-84.5,20.1-96,20.5l0.4,2.9h120.1l11.7-79.1
									C193.6,168.2,191.7,166,189.1,166z"/>
							</g>
						</g>
					</g>
				</g>
			</g>
			<g>
				<g>
					<g>
						<g>
							<path fill="#1F1F23" d="M187,251.7H59.4l-12-80.7c-0.3-1.7,0.2-3.4,1.4-4.7c1.1-1.3,2.8-2.1,4.5-2.1h139.8
								c1.7,0,3.4,0.7,4.5,2.1c1.1,1.3,1.6,3,1.4,4.7L187,251.7z M62.5,248.1h121.4l11.5-77.6c0.1-0.7-0.1-1.4-0.5-1.9
								c-0.5-0.5-1.1-0.8-1.8-0.8H53.3c-0.7,0-1.3,0.3-1.8,0.8s-0.6,1.2-0.5,1.9L62.5,248.1z"/>
						</g>
					</g>
				</g>
			</g>
			<g opacity="0.3">
				<g>
					<g>
						<g>
							<path fill="#FFFFFF" d="M70.8,231.4c-4.7-10.4-8.2-28.2-7.4-38.6c0.8-10.5,6.8-7.3,8.7,6.1C77.2,234.6,72.9,236.1,70.8,231.4
								z"/>
						</g>
					</g>
				</g>
			</g>
			<g>
				<g>
					<g>
						<g>
							<g>
								<path fill="#1F1F23" d="M139.4,199c0.2-1.3,0.3-2.7,0.1-4c-0.1-0.1-0.2-0.3-0.3-0.4c-0.4-0.1-0.8-0.3-1.2-0.4
									c-2.8-0.7-5.7-1-8.6-0.8c-3.8,0.3-7.3,1.5-10.3,3.9c-1.1,0.9-2.1,1.9-3.1,2.8c-0.3,0.3-0.5,0.4-0.9,0.2
									c-0.9-0.4-1.9-0.6-2.9-0.6c-2.6-0.1-5,0.7-7.2,2.1c-2.4,1.5-4.3,3.5-6.1,5.6c-0.8,0.9-0.5,1.9,0.7,2.3
									c0.7,0.2,1.4,0.5,2.1,0.7c1.7,0.6,3.4,1.1,5.1,1.7c0,0.1,0,0.1,0,0.1s0,0.1-0.1,0.1c-0.7,0.9-0.5,1.8,0.2,2.6
									c0.1,0.1,0.2,0.2,0.2,0.3c0.4,0.5,0.8,1,1.2,1.6c-0.6,0.4-1.1,0.8-1.6,1.3c-0.2,0.2-0.5,0.6-0.6,0.9
									c-0.2,0.5,0.1,1.1,0.6,1.3c0.5,0.3,1,0.3,1.5,0c0.6-0.4,1.1-0.9,1.7-1.3c0.6,0.7,1.1,1.4,1.6,2.1c0.6,0.8,1,0.9,2,0.7
									c0.2-0.1,0.3-0.1,0.6-0.1c0,0.2,0,0.4,0,0.5c0.1,2.5,0.2,4.9,0.4,7.4c0.1,1.2,1,1.7,2,1.2c1-0.4,1.9-0.9,2.8-1.4
									c2.2-1.2,4.1-2.6,5.7-4.5c2-2.4,3-5.1,2.5-8.2c0-0.1,0.1-0.3,0.2-0.4c1-0.6,1.9-1.2,2.9-1.8c2.2-1.4,3.9-3.3,5.3-5.4
									C138,205.7,139.1,202.4,139.4,199z M108.4,209.6c-2-0.6-4-1.3-6.1-2c2.2-2.3,4.5-4.3,7.6-5.2c1.3-0.4,2.9-0.3,3.8,0
									C111.9,204.9,110.1,207.2,108.4,209.6z M125,219.8c-0.5,1.6-1.5,2.9-2.6,4.1c-1.5,1.4-3.2,2.5-5,3.5
									c-0.1-2.3-0.2-4.5-0.3-6.7c2.8-1.1,5.5-2.1,8.3-3.2C125.3,218.2,125.2,219,125,219.8z M135.3,204.6
									c-0.9,2.1-2.1,4.1-3.8,5.7c-1.3,1.2-2.8,2.2-4.3,3.1c-4.2,2.4-8.7,4-13.3,5.4c-0.2,0.1-0.4,0.1-0.5-0.2
									c-0.3-0.5-0.7-0.9-1-1.3c0,0,0-0.1-0.1-0.1c0.1-0.1,0.2-0.2,0.4-0.3c2.6-2,5.3-4,7.9-6.1c0.8-0.6,0.8-1.6,0.1-2.1
									c-0.5-0.4-1.1-0.4-1.7,0c-1.6,1.2-3.2,2.4-4.7,3.6c-1.2,0.9-2.3,1.8-3.6,2.7c-0.4-0.5-0.8-1-1.2-1.6c-0.1-0.1,0-0.3,0.1-0.4
									c1.4-2.1,2.8-4.2,4.2-6.2c1.4-2,3.1-3.9,4.9-5.7c1.7-1.6,3.5-3.1,5.7-3.9c1.4-0.6,2.9-0.9,4.4-1.1c0.1,0,0.3,0.1,0.4,0.2
									c1.5,2,3.1,4,4.6,6c0.5,0.6,0.9,1.2,1.4,1.8C135.4,204.2,135.4,204.4,135.3,204.6z M136.2,201.8c-1.5-2-3-3.9-4.5-5.9v-0.1
									c1.7,0.2,3.5,0.4,5.2,0.6C136.9,198.3,136.6,200.1,136.2,201.8z"/>
							</g>
						</g>
					</g>
				</g>
				<g>
					<g>
						<g>
							<g>
								<path fill="#FFFFFF" d="M135.2,204.1c-0.5-0.6-0.9-1.2-1.4-1.8c-1.5-2-3-4-4.6-6c-0.1-0.1-0.3-0.3-0.4-0.2
									c-1.5,0.2-3,0.5-4.4,1.1c-2.2,0.9-4,2.3-5.7,3.9c-1.8,1.7-3.4,3.6-4.9,5.7c-1.5,2.1-2.8,4.2-4.2,6.2
									c-0.1,0.1-0.1,0.4-0.1,0.4c0.4,0.5,0.8,1,1.2,1.6c1.2-0.9,2.4-1.8,3.6-2.7c1.6-1.2,3.2-2.4,4.7-3.6c0.6-0.4,1.2-0.4,1.7,0
									c0.7,0.6,0.7,1.6-0.1,2.1c-2.6,2-5.3,4-7.9,6.1c-0.1,0.1-0.3,0.2-0.4,0.3c0,0.1,0,0.1,0.1,0.1c0.3,0.5,0.7,0.9,1,1.3
									c0.1,0.2,0.3,0.2,0.5,0.2c4.6-1.4,9.1-3,13.3-5.4c1.5-0.9,3-1.9,4.3-3.1c1.7-1.6,2.9-3.5,3.8-5.7
									C135.4,204.4,135.4,204.2,135.2,204.1z M130.6,207.1c-2,1.5-4.9,1.1-6.4-0.8c-1.5-2-1.1-4.8,0.9-6.4c2-1.5,4.8-1.1,6.3,0.9
									C132.9,202.7,132.6,205.6,130.6,207.1z"/>
							</g>
						</g>
					</g>
				</g>
				<g>
					<g>
						<g>
							<g>
								<path fill="#90C154" d="M136.2,201.8c-1.5-2-3-3.9-4.5-5.9v-0.1c1.7,0.2,3.5,0.4,5.2,0.6
									C136.9,198.3,136.6,200.1,136.2,201.8z"/>
							</g>
						</g>
					</g>
				</g>
				<g>
					<g>
						<g>
							<g>
								<path fill="#90C154" d="M113.6,202.5c-1.7,2.4-3.5,4.7-5.2,7.1c-2-0.6-4-1.3-6.1-2c2.2-2.3,4.5-4.3,7.6-5.2
									C111.1,202.1,112.7,202.1,113.6,202.5z"/>
							</g>
						</g>
					</g>
				</g>
				<g>
					<g>
						<g>
							<g>
								<path fill="#90C154" d="M122.3,223.9c-1.5,1.4-3.2,2.5-5,3.5c-0.1-2.3-0.2-4.5-0.3-6.7c2.8-1.1,5.5-2.1,8.3-3.2
									c0.1,0.8,0,1.6-0.3,2.3C124.5,221.4,123.5,222.7,122.3,223.9z"/>
							</g>
						</g>
					</g>
				</g>
				<g>
					<g>
						<g>
							<g>
								<path fill="#1F1F23" d="M131.4,200.8c-1.5-2-4.4-2.4-6.3-0.9c-2,1.5-2.4,4.4-0.9,6.4s4.4,2.4,6.4,0.8
									C132.6,205.6,132.9,202.7,131.4,200.8z M129.3,205.4c-1,0.8-2.5,0.6-3.3-0.4s-0.6-2.6,0.5-3.4c1-0.8,2.5-0.5,3.3,0.5
									C130.5,203.1,130.3,204.6,129.3,205.4z"/>
							</g>
						</g>
					</g>
				</g>
				<g>
					<g>
						<g>
							<g>
								<path fill="#EDDF5E" d="M129.2,205.4c-1,0.8-2.5,0.6-3.3-0.5c-0.8-1-0.6-2.6,0.5-3.4c1-0.8,2.5-0.5,3.3,0.5
									C130.5,203.1,130.3,204.6,129.2,205.4z"/>
							</g>
						</g>
					</g>
				</g>
			</g>
		</g>
		<g>
			<g>
				<g>
					<g>
						<path fill="#FFFFFF" d="M196.5,174.9c0,0-9.6-4.6-18.7-0.5c-8.7,3.9-14.8,31.9-3.6,39c6.9,4.4,11.7,0.5,15.6,1.6
							C195.7,216.8,207.6,188,196.5,174.9z"/>
					</g>
				</g>
			</g>
		</g>
		<g opacity="0.35">
			<g>
				<g>
					<g>
						<path fill="#361B45" d="M200.9,193.2c-1.1,11.7-7.3,23.1-11,22c-3.9-1.1-8.6,2.7-15.6-1.6c-5.4-3.4-6.8-11.5-5.8-19.6
							c0.6,4.7,2.4,8.7,5.8,10.8c6.9,4.4,11.6,2.3,15.6,1.6C194.8,205.5,198.9,200.1,200.9,193.2z"/>
					</g>
				</g>
			</g>
		</g>
		<g>
			<g>
				<g>
					<g>
						<path fill="#1F1F23" d="M181.4,217.4c-2.3,0-5.1-0.5-8.1-2.4c-2.7-1.7-4.7-4.5-5.8-8.2c-1-3.1-1.3-7-1-11.1
							c0.3-4.8,1.5-9.8,3.4-14c1.4-3.2,3.8-7.3,7.3-8.9c9.7-4.4,19.8,0.3,20.2,0.5l0.3,0.2l0.2,0.3c5.1,6,5.4,14.2,4.7,20.1
							c-0.7,6.6-3.1,13.6-6.1,18.3s-5.6,5.1-7.2,4.7c-1-0.3-2.3-0.1-3.9,0.2C184.3,217.2,182.9,217.4,181.4,217.4z M186.1,174.5
							c-2.7,0-5.2,0.5-7.5,1.6c-1.9,0.9-3.9,3.4-5.5,7.1c-1.6,3.8-2.8,8.4-3.1,12.8c-0.5,7.7,1.4,13.6,5.2,16c3.9,2.4,6.8,2,9.7,1.5
							c1.9-0.3,3.6-0.6,5.4-0.1c0.2,0,1.7-0.5,3.8-4.2c4.9-8.5,8-24.5,1.3-32.9c-0.8-0.3-2.7-1.1-5.3-1.5
							C188.8,174.7,187.4,174.5,186.1,174.5z"/>
					</g>
				</g>
			</g>
		</g>
	</g>
	<g>
		<g>
			<g>
				<g>
					<g>
						<path fill="#EA5F5F" d="M223.5,73c-3.4-3.6-5.8-8.2-6.4-13.5c-1.5-12.9,7.7-24.5,20.5-26c12.9-1.5,24.5,7.7,26,20.5
							c1.5,12.9-7.7,24.5-20.5,26c-3.6,0.4-7.1,0-10.3-1.1l-10.1,4.7L223.5,73z"/>
					</g>
				</g>
			</g>
		</g>
		<g opacity="0.5">
			<g>
				<g>
					<g>
						<g>
							<path fill="#FFFFFF" d="M238.2,37.9c-12,1.4-20.8,11.7-20.7,23.5c-0.2-0.8-0.3-1.6-0.4-2.5c-1.5-12.9,7.7-24.5,20.5-26
								c12.9-1.5,24.5,7.7,26,20.5c0.1,0.8,0.2,1.7,0.2,2.5C261.1,44.4,250.2,36.5,238.2,37.9z"/>
						</g>
					</g>
				</g>
			</g>
		</g>
		<g>
			<g>
				<g>
					<g>
						<path fill="#1F1F23" d="M222.8,85.4c-0.3,0-0.7-0.1-1-0.3c-0.5-0.3-0.8-0.9-0.7-1.5l0.6-9.9c-3.5-3.9-5.7-8.7-6.4-14
							c-0.8-6.7,1.1-13.3,5.2-18.5c4.2-5.3,10.1-8.6,16.8-9.4c6.7-0.8,13.3,1.1,18.5,5.2c5.3,4.2,8.6,10.1,9.4,16.8
							s-1.1,13.3-5.2,18.5c-4.2,5.3-10.1,8.6-16.8,9.4c-3.5,0.4-7,0.1-10.3-0.9l-9.4,4.5C223.3,85.3,223.1,85.4,222.8,85.4z
							 M240.4,35c-0.8,0-1.7,0-2.6,0.2c-5.8,0.7-10.9,3.6-14.5,8.1c-3.6,4.6-5.2,10.2-4.5,16c0.6,4.8,2.6,9.1,5.9,12.5
							c0.3,0.3,0.5,0.8,0.5,1.3l-0.5,7.8l7.4-3.5c0.4-0.2,0.9-0.2,1.3-0.1c3.1,1,6.3,1.4,9.5,1c11.9-1.4,20.4-12.2,19-24.1
							C260.6,43.1,251.2,35,240.4,35z"/>
					</g>
				</g>
			</g>
		</g>
		<g opacity="0.3">
			<g>
				<g>
					<g>
						<path fill="#1F1F23" d="M223.4,72.8c7.4,3.9,16.6,4.3,24.7,0.2c9-4.5,14.4-13.3,14.9-22.6c0.3,1.2,0.6,2.3,0.7,3.6
							c1.5,12.9-7.7,24.5-20.5,26c-3.6,0.4-7.1,0-10.3-1.1l-10.1,4.7l0.7-10.7C223.5,72.9,223.4,72.9,223.4,72.8z"/>
					</g>
				</g>
			</g>
		</g>
		<g>
			<g>
				<g>
					<g>
						<path fill="#FFFFFF" d="M233,50.1L233,50.1c2-2,5.3-1.7,7.3,0.4l0.3,0.3l0.3-0.3c2-2,5.3-2.4,7.3-0.4l0,0c2,2,2,5.3,0,7.3
							l-0.3,0.3l-6.4,6.4c-0.5,0.5-1.4,0.5-1.9,0l-6.4-6.4l-0.3-0.3C230.9,55.5,230.9,52.2,233,50.1z"/>
					</g>
				</g>
			</g>
		</g>
	</g>
</g>
</svg>
