<?xml version="1.0" encoding="utf-8"?>
<!-- Generator: Adobe Illustrator 17.0.0, SVG Export Plug-In . SVG Version: 6.00 Build 0)  -->
<!DOCTYPE svg PUBLIC "-//W3C//DTD SVG 1.1//EN" "http://www.w3.org/Graphics/SVG/1.1/DTD/svg11.dtd">
<svg version="1.1" id="Camada_1" xmlns="http://www.w3.org/2000/svg" xmlns:xlink="http://www.w3.org/1999/xlink" x="0px" y="0px"
	 width="46px" height="46px" viewBox="0 0 46 46" enable-background="new 0 0 46 46" xml:space="preserve">
<g>
	<path fill="#3C5A98" stroke="#3C5A98" stroke-miterlimit="10" d="M45.4,23c0,12.4-10,22.4-22.4,22.4S0.6,35.4,0.6,23
		c0-12.4,10-22.4,22.4-22.4S45.4,10.6,45.4,23L45.4,23z M45.4,23"/>
	<path fill="#FFFFFF" d="M27.2,22.5l-2.7,0l0,10l-4.2,0l0-10l-2,0l0-3.5l2,0l0-2.3c0-1.6,0.8-4.2,4.2-4.2l3.1,0l0,3.4l-2.2,0
		c-0.4,0-0.9,0.2-0.9,1l0,2.1l3.1,0L27.2,22.5z M27.2,22.5"/>
</g>
</svg>
