<?xml version="1.0" encoding="utf-8"?>
<!-- Generator: Adobe Illustrator 17.0.0, SVG Export Plug-In . SVG Version: 6.00 Build 0)  -->
<!DOCTYPE svg PUBLIC "-//W3C//DTD SVG 1.1//EN" "http://www.w3.org/Graphics/SVG/1.1/DTD/svg11.dtd">
<svg version="1.1" id="Camada_1" xmlns="http://www.w3.org/2000/svg" xmlns:xlink="http://www.w3.org/1999/xlink" x="0px" y="0px"
	 width="46px" height="46px" viewBox="0 0 46 46" enable-background="new 0 0 46 46" xml:space="preserve">
<g display="none">
	<path display="inline" fill="#FFFFFF" stroke="#F1D5D9" stroke-miterlimit="10" d="M23,0.6c12.4,0,22.4,10,22.4,22.4
		S35.4,45.4,23,45.4S0.6,35.4,0.6,23S10.6,0.6,23,0.6L23,0.6z"/>
	<path display="inline" fill="#C8232C" d="M22.8,12.4c-5.7,0-8.6,4-8.6,7.3c0,2,0.8,3.8,2.5,4.5c0.3,0.1,0.5,0,0.6-0.3l0.2-0.9
		c0.1-0.3,0-0.4-0.2-0.6c-0.5-0.6-0.8-1.3-0.8-2.3c0-2.9,2.3-5.6,5.9-5.6c3.2,0,5,1.9,5,4.5c0,3.4-1.5,6.2-3.8,6.2
		c-1.3,0-2.2-1-1.9-2.2c0.4-1.5,1.1-3.1,1.1-4.1s-0.5-1.7-1.6-1.7c-1.3,0-2.3,1.3-2.3,3c0,1.1,0.4,1.8,0.4,1.8l-1.5,6.3
		c-0.5,1.9-0.1,4.2,0,4.4c0,0.1,0.2,0.2,0.3,0.1c0.1-0.2,1.7-2,2.2-3.8c0.1-0.5,0.8-3.2,0.8-3.2c0.4,0.8,1.6,1.5,2.9,1.5
		c3.9,0,6.5-3.4,6.5-8C30.4,15.7,27.4,12.4,22.8,12.4L22.8,12.4z"/>
</g>
<g>
	<path fill="#FFFFFF" stroke="#E5E1E2" stroke-miterlimit="10" d="M23,0.624c12.358,0,22.376,10.019,22.376,22.376
		c0,12.358-10.017,22.376-22.376,22.376C10.642,45.376,0.624,35.358,0.624,23C0.624,10.643,10.642,0.624,23,0.624L23,0.624z"/>
	<path fill="#3C5A98" d="M27.254,22.98l-2.744,0.001v10.047l-4.158,0.001V22.982h-1.977V19.45h1.977v-2.285
		c0-1.634,0.776-4.193,4.195-4.194l3.079,0.013v3.427l-2.234,0.001c-0.367,0-0.882,0.183-0.882,0.962v2.079l3.109-0.001
		L27.254,22.98z"/>
</g>
</svg>
