<?xml version="1.0" encoding="utf-8"?>
<!-- Generator: Adobe Illustrator 17.0.0, SVG Export Plug-In . SVG Version: 6.00 Build 0)  -->
<!DOCTYPE svg PUBLIC "-//W3C//DTD SVG 1.1//EN" "http://www.w3.org/Graphics/SVG/1.1/DTD/svg11.dtd">
<svg version="1.1" id="Camada_1" xmlns="http://www.w3.org/2000/svg" xmlns:xlink="http://www.w3.org/1999/xlink" x="0px" y="0px"
	 width="46px" height="46px" viewBox="0 0 46 46" enable-background="new 0 0 46 46" xml:space="preserve">
<path fill="#E74335" stroke="#E74335" stroke-miterlimit="10" d="M23,0.6c12.4,0,22.4,10,22.4,22.4c0,12.4-10,22.4-22.4,22.4
	c-12.4,0-22.4-10-22.4-22.4C0.6,10.6,10.6,0.6,23,0.6L23,0.6z M23,0.6"/>
<path id="LOGO_1_" fill-rule="evenodd" clip-rule="evenodd" fill="#FFFFFF" d="M34.2,16.9v2v10.9c0,0.8-0.7,1.5-1.5,1.5h-3.5v-8.6
	L23,27.3l-6.1-4.6v8.6h-3.5c-0.8,0-1.5-0.7-1.5-1.5V18.9v-2c0-0.5,0.2-1,0.5-1.4c0.8-1,2.2-1.2,3.2-0.5l1.4,1.1l6.1,4.6l6.1-4.6
	l1.4-1.1c0.4-0.3,0.9-0.5,1.4-0.5C33.1,14.6,34.2,15.7,34.2,16.9z"/>
</svg>
