<?xml version="1.0" encoding="utf-8"?>
<!-- Generator: Adobe Illustrator 17.0.0, SVG Export Plug-In . SVG Version: 6.00 Build 0)  -->
<!DOCTYPE svg PUBLIC "-//W3C//DTD SVG 1.1//EN" "http://www.w3.org/Graphics/SVG/1.1/DTD/svg11.dtd">
<svg version="1.1" id="Camada_1" xmlns="http://www.w3.org/2000/svg" xmlns:xlink="http://www.w3.org/1999/xlink" x="0px" y="0px"
	 width="46px" height="46px" viewBox="0 0 46 46" enable-background="new 0 0 46 46" xml:space="preserve">
<g>
	<path fill="#FFFFFF" stroke="#B2B2B2" stroke-miterlimit="10" d="M23,0.624c12.358,0,22.376,10.019,22.376,22.376
		c0,12.358-10.017,22.376-22.376,22.376C10.642,45.376,0.624,35.358,0.624,23C0.624,10.643,10.642,0.624,23,0.624L23,0.624z"/>
	<path fill="#1F1F23" d="M23.001,12.891c-4.141,0-8.074-0.368-9.576,3.487c-0.62,1.592-0.531,3.66-0.531,6.621
		c0,2.598-0.083,5.04,0.53,6.62c1.498,3.857,5.463,3.488,9.574,3.488c3.965,0,8.054,0.413,9.575-3.488
		c0.622-1.608,0.53-3.645,0.53-6.62c0-3.949,0.218-6.498-1.697-8.412c-1.939-1.939-4.561-1.696-8.41-1.696
		C22.996,12.891,23.001,12.891,23.001,12.891z M22.095,14.712c8.638-0.014,9.738-0.974,9.131,12.367
		c-0.216,4.718-3.808,4.2-8.224,4.2c-8.052,0-8.284-0.23-8.283-8.286c0-8.149,0.639-8.277,7.377-8.284L22.095,14.712L22.095,14.712z
		 M28.395,16.39c-0.669,0-1.212,0.543-1.212,1.212s0.543,1.212,1.212,1.212s1.212-0.543,1.212-1.212
		C29.608,16.933,29.065,16.39,28.395,16.39L28.395,16.39z M23,17.808c-2.866,0-5.19,2.325-5.19,5.191s2.323,5.19,5.189,5.19
		s5.188-2.323,5.189-5.19S25.867,17.808,23,17.808L23,17.808z M23,19.629c4.454,0,4.459,6.738,0,6.738
		C18.547,26.368,18.541,19.629,23,19.629L23,19.629z"/>
</g>
</svg>
