<?xml version="1.0" encoding="utf-8"?>
<!-- Generator: Adobe Illustrator 17.0.0, SVG Export Plug-In . SVG Version: 6.00 Build 0)  -->
<!DOCTYPE svg PUBLIC "-//W3C//DTD SVG 1.1//EN" "http://www.w3.org/Graphics/SVG/1.1/DTD/svg11.dtd">
<svg version="1.1" id="Camada_1" xmlns="http://www.w3.org/2000/svg" xmlns:xlink="http://www.w3.org/1999/xlink" x="0px" y="0px"
	 width="46px" height="46px" viewBox="0 0 46 46" enable-background="new 0 0 46 46" xml:space="preserve">
<path fill="#D33F8E" stroke="#D33F8E" stroke-miterlimit="10" d="M23,0.6c12.4,0,22.4,10,22.4,22.4c0,12.4-10,22.4-22.4,22.4
	c-12.4,0-22.4-10-22.4-22.4C0.6,10.6,10.6,0.6,23,0.6L23,0.6z M23,0.6"/>
<path fill="#FFFFFF" d="M23,12.9c-4.1,0-8.1-0.4-9.6,3.5C12.8,18,12.9,20,12.9,23c0,2.6-0.1,5,0.5,6.6c1.5,3.9,5.5,3.5,9.6,3.5
	c4,0,8.1,0.4,9.6-3.5c0.6-1.6,0.5-3.6,0.5-6.6c0-3.9,0.2-6.5-1.7-8.4C29.5,12.6,26.8,12.9,23,12.9L23,12.9z M22.1,14.7
	c8.6,0,9.7-1,9.1,12.4c-0.2,4.7-3.8,4.2-8.2,4.2c-8.1,0-8.3-0.2-8.3-8.3C14.7,14.8,15.4,14.7,22.1,14.7L22.1,14.7z M28.4,16.4
	c-0.7,0-1.2,0.5-1.2,1.2c0,0.7,0.5,1.2,1.2,1.2c0.7,0,1.2-0.5,1.2-1.2C29.6,16.9,29.1,16.4,28.4,16.4L28.4,16.4z M23,17.8
	c-2.9,0-5.2,2.3-5.2,5.2s2.3,5.2,5.2,5.2s5.2-2.3,5.2-5.2C28.2,20.1,25.9,17.8,23,17.8L23,17.8z M23,19.6c4.5,0,4.5,6.7,0,6.7
	C18.5,26.4,18.5,19.6,23,19.6L23,19.6z M23,19.6"/>
</svg>
