<?xml version="1.0" encoding="utf-8"?>
<!-- Generator: Adobe Illustrator 17.0.0, SVG Export Plug-In . SVG Version: 6.00 Build 0)  -->
<!DOCTYPE svg PUBLIC "-//W3C//DTD SVG 1.1//EN" "http://www.w3.org/Graphics/SVG/1.1/DTD/svg11.dtd">
<svg version="1.1" id="Camada_1" xmlns="http://www.w3.org/2000/svg" xmlns:xlink="http://www.w3.org/1999/xlink" x="0px" y="0px"
	 width="46px" height="46px" viewBox="0 0 46 46" enable-background="new 0 0 46 46" xml:space="preserve">
<g display="none">
	<path display="inline" fill="#FFFFFF" stroke="#F1D5D9" stroke-miterlimit="10" d="M23,0.6c12.4,0,22.4,10,22.4,22.4
		S35.4,45.4,23,45.4S0.6,35.4,0.6,23S10.6,0.6,23,0.6L23,0.6z"/>
	<path display="inline" fill="#C8232C" d="M22.8,12.4c-5.7,0-8.6,4-8.6,7.3c0,2,0.8,3.8,2.5,4.5c0.3,0.1,0.5,0,0.6-0.3l0.2-0.9
		c0.1-0.3,0-0.4-0.2-0.6c-0.5-0.6-0.8-1.3-0.8-2.3c0-2.9,2.3-5.6,5.9-5.6c3.2,0,5,1.9,5,4.5c0,3.4-1.5,6.2-3.8,6.2
		c-1.3,0-2.2-1-1.9-2.2c0.4-1.5,1.1-3.1,1.1-4.1s-0.5-1.7-1.6-1.7c-1.3,0-2.3,1.3-2.3,3c0,1.1,0.4,1.8,0.4,1.8l-1.5,6.3
		c-0.5,1.9-0.1,4.2,0,4.4c0,0.1,0.2,0.2,0.3,0.1c0.1-0.2,1.7-2,2.2-3.8c0.1-0.5,0.8-3.2,0.8-3.2c0.4,0.8,1.6,1.5,2.9,1.5
		c3.9,0,6.5-3.4,6.5-8C30.4,15.7,27.4,12.4,22.8,12.4L22.8,12.4z"/>
</g>
<g>
	<path fill="#FFFFFF" stroke="#E5E1E2" stroke-miterlimit="10" d="M23,0.624c12.358,0,22.376,10.019,22.376,22.376
		c0,12.358-10.017,22.376-22.376,22.376C10.642,45.376,0.624,35.358,0.624,23C0.624,10.643,10.642,0.624,23,0.624L23,0.624z"/>
	<path fill="#C8232C" d="M22.769,12.437c-5.716-0.001-8.596,3.969-8.596,7.278c0,2.004,0.783,3.787,2.464,4.451
		c0.275,0.109,0.523,0.004,0.602-0.291l0.245-0.936c0.081-0.291,0.05-0.394-0.172-0.649c-0.486-0.553-0.794-1.27-0.794-2.285
		c0-2.944,2.274-5.58,5.922-5.579c3.231,0,5.005,1.913,5.005,4.465c0,3.359-1.534,6.194-3.814,6.194c-1.257,0-2.2-1.008-1.898-2.246
		c0.361-1.474,1.062-3.068,1.062-4.134c0-0.952-0.528-1.749-1.623-1.75c-1.287,0-2.319,1.289-2.319,3.016
		c0,1.1,0.384,1.843,0.384,1.843l-1.548,6.35c-0.459,1.883-0.068,4.193-0.035,4.427c0.02,0.138,0.203,0.17,0.286,0.067
		c0.119-0.15,1.65-1.982,2.171-3.814c0.148-0.518,0.847-3.203,0.847-3.203c0.418,0.774,1.639,1.454,2.938,1.454
		c3.866,0,6.49-3.414,6.49-7.984C30.383,15.657,27.362,12.438,22.769,12.437L22.769,12.437z"/>
</g>
</svg>
