<?xml version="1.0" encoding="utf-8"?>
<!-- Generator: Adobe Illustrator 17.0.0, SVG Export Plug-In . SVG Version: 6.00 Build 0)  -->
<!DOCTYPE svg PUBLIC "-//W3C//DTD SVG 1.1//EN" "http://www.w3.org/Graphics/SVG/1.1/DTD/svg11.dtd">
<svg version="1.1" id="Camada_1" xmlns="http://www.w3.org/2000/svg" xmlns:xlink="http://www.w3.org/1999/xlink" x="0px" y="0px"
	 width="46px" height="46px" viewBox="0 0 46 46" enable-background="new 0 0 46 46" xml:space="preserve">
<path fill="#FFFFFF" stroke="#E5E1E2" stroke-miterlimit="10" d="M23,0.6c12.4,0,22.4,10,22.4,22.4S35.4,45.4,23,45.4
	S0.6,35.4,0.6,23S10.6,0.6,23,0.6L23,0.6z"/>
<g>
	<g id="WA_Logo_2_">
		<g>
			<path fill="#FFFFFF" d="M30.3,15.7c-1.9-1.9-4.5-3-7.3-3c-5.7,0-10.3,4.6-10.3,10.3c0,1.8,0.5,3.6,1.4,5.1l-1.5,5.3L18,32
				c1.5,0.8,3.2,1.2,4.9,1.2l0,0c5.7,0,10.3-4.6,10.3-10.3C33.3,20.2,32.2,17.6,30.3,15.7z M23,31.4L23,31.4c-1.5,0-3-0.4-4.3-1.2
				L18.4,30l-3.2,0.8l0.9-3.1l-0.2-0.3c-0.9-1.4-1.3-2.9-1.3-4.5c0-4.7,3.8-8.5,8.5-8.5c2.3,0,4.4,0.9,6,2.5s2.5,3.8,2.5,6
				C31.6,27.6,27.7,31.4,23,31.4z M27.7,25.1c-0.3-0.1-1.5-0.7-1.8-0.8s-0.4-0.1-0.6,0.1c-0.2,0.3-0.7,0.8-0.8,1
				c-0.1,0.2-0.3,0.2-0.6,0.1c-0.3-0.1-1.1-0.4-2.1-1.3c-0.8-0.7-1.3-1.5-1.4-1.8s0-0.4,0.1-0.5s0.3-0.3,0.4-0.4s0.2-0.3,0.3-0.4
				c0.1-0.2,0-0.3,0-0.4c-0.1-0.1-0.6-1.4-0.8-1.9c-0.2-0.5-0.4-0.4-0.6-0.4c-0.1,0-0.3,0-0.5,0s-0.4,0.1-0.7,0.3
				c-0.2,0.3-0.9,0.9-0.9,2.1s0.9,2.5,1,2.7s1.8,2.8,4.4,3.9c0.6,0.3,1.1,0.4,1.5,0.5c0.6,0.2,1.2,0.2,1.6,0.1
				c0.5-0.1,1.5-0.6,1.7-1.2s0.2-1.1,0.1-1.2C28.2,25.2,28,25.2,27.7,25.1z"/>
		</g>
	</g>
</g>
<g>
	<g>
		<path fill="#4998D2" d="M19,31.8c8.1,0,12.6-6.8,12.6-12.6c0-0.2,0-0.4,0-0.6c0.9-0.6,1.6-1.4,2.2-2.3c-0.8,0.4-1.6,0.6-2.5,0.7
			c0.9-0.5,1.6-1.4,1.9-2.5c-0.9,0.5-1.8,0.9-2.8,1.1c-0.8-0.9-2-1.4-3.2-1.4c-2.4,0-4.4,2-4.4,4.4c0,0.3,0,0.7,0.1,1
			c-3.7-0.2-6.9-1.9-9.1-4.6c-0.4,0.7-0.6,1.4-0.6,2.2c0,1.5,0.8,2.9,2,3.7c-0.7,0-1.4-0.2-2-0.6c0,0,0,0,0,0.1
			c0,2.1,1.5,3.9,3.6,4.3c-0.4,0.1-0.8,0.2-1.2,0.2c-0.3,0-0.6,0-0.8-0.1c0.6,1.8,2.2,3,4.1,3.1c-1.5,1.2-3.4,1.9-5.5,1.9
			c-0.4,0-0.7,0-1.1-0.1C14.2,31,16.5,31.8,19,31.8"/>
	</g>
</g>
</svg>
