<?xml version="1.0" encoding="utf-8"?>
<!-- Generator: Adobe Illustrator 17.0.0, SVG Export Plug-In . SVG Version: 6.00 Build 0)  -->
<!DOCTYPE svg PUBLIC "-//W3C//DTD SVG 1.1//EN" "http://www.w3.org/Graphics/SVG/1.1/DTD/svg11.dtd">
<svg version="1.1" id="Camada_1" xmlns="http://www.w3.org/2000/svg" xmlns:xlink="http://www.w3.org/1999/xlink" x="0px" y="0px"
	 width="46px" height="46px" viewBox="0 0 46 46" enable-background="new 0 0 46 46" xml:space="preserve">
<path fill="#4DAC3B" stroke="#4DAC3B" stroke-miterlimit="10" d="M23,0.6c12.4,0,22.4,10,22.4,22.4c0,12.4-10,22.4-22.4,22.4
	c-12.4,0-22.4-10-22.4-22.4C0.6,10.6,10.6,0.6,23,0.6L23,0.6z M23,0.6"/>
<g>
	<g id="WA_Logo_2_">
		<g>
			<path fill-rule="evenodd" clip-rule="evenodd" fill="#FFFFFF" d="M30.3,15.7c-1.9-1.9-4.5-3-7.3-3c-5.7,0-10.3,4.6-10.3,10.3
				c0,1.8,0.5,3.6,1.4,5.1l-1.5,5.3l5.4-1.4c1.5,0.8,3.2,1.2,4.9,1.2h0c5.7,0,10.3-4.6,10.3-10.3C33.3,20.2,32.2,17.6,30.3,15.7z
				 M23,31.4L23,31.4c-1.5,0-3-0.4-4.3-1.2l-0.3-0.2l-3.2,0.8l0.9-3.1l-0.2-0.3c-0.9-1.4-1.3-2.9-1.3-4.5c0-4.7,3.8-8.5,8.5-8.5
				c2.3,0,4.4,0.9,6,2.5c1.6,1.6,2.5,3.8,2.5,6C31.6,27.6,27.7,31.4,23,31.4z M27.7,25.1c-0.3-0.1-1.5-0.7-1.8-0.8s-0.4-0.1-0.6,0.1
				c-0.2,0.3-0.7,0.8-0.8,1c-0.1,0.2-0.3,0.2-0.6,0.1c-0.3-0.1-1.1-0.4-2.1-1.3c-0.8-0.7-1.3-1.5-1.4-1.8c-0.1-0.3,0-0.4,0.1-0.5
				c0.1-0.1,0.3-0.3,0.4-0.4c0.1-0.1,0.2-0.3,0.3-0.4c0.1-0.2,0-0.3,0-0.4c-0.1-0.1-0.6-1.4-0.8-1.9c-0.2-0.5-0.4-0.4-0.6-0.4
				c-0.1,0-0.3,0-0.5,0c-0.2,0-0.4,0.1-0.7,0.3c-0.2,0.3-0.9,0.9-0.9,2.1s0.9,2.5,1,2.7c0.1,0.2,1.8,2.8,4.4,3.9
				c0.6,0.3,1.1,0.4,1.5,0.5c0.6,0.2,1.2,0.2,1.6,0.1c0.5-0.1,1.5-0.6,1.7-1.2c0.2-0.6,0.2-1.1,0.1-1.2C28.2,25.2,28,25.2,27.7,25.1
				z"/>
		</g>
	</g>
</g>
</svg>
