<?xml version="1.0" encoding="utf-8"?>
<!-- Generator: Adobe Illustrator 17.0.0, SVG Export Plug-In . SVG Version: 6.00 Build 0)  -->
<!DOCTYPE svg PUBLIC "-//W3C//DTD SVG 1.1//EN" "http://www.w3.org/Graphics/SVG/1.1/DTD/svg11.dtd">
<svg version="1.1" id="Camada_1" xmlns="http://www.w3.org/2000/svg" xmlns:xlink="http://www.w3.org/1999/xlink" x="0px" y="0px"
	 width="134px" height="32px" viewBox="0 209 134 32" enable-background="new 0 209 134 32" xml:space="preserve">
<g>
	<g>
		<path fill="#EDDF5E" d="M13.609,209.942c-7.477,0-13.538,6.061-13.538,13.538c0,0.194,0.007,0.387,0.015,0.579v12.1
			c0,0.467,0.379,0.846,0.846,0.846h12.147c0.176,0.007,0.353,0.013,0.53,0.013c7.477,0,13.538-6.061,13.538-13.538
			C27.147,216.003,21.086,209.942,13.609,209.942z"/>
		<path fill="#1F1F23" d="M13.609,212.175c6.234,0,11.305,5.071,11.305,11.305s-5.071,11.305-11.305,11.305
			c-0.149,0-0.297-0.006-0.444-0.012l-0.043-0.002h-0.043H2.319v-10.713v-0.047l-0.002-0.047c-0.006-0.149-0.013-0.322-0.013-0.485
			C2.304,217.246,7.375,212.175,13.609,212.175 M13.609,209.942c-7.477,0-13.538,6.061-13.538,13.538
			c0,0.194,0.007,0.387,0.015,0.579v12.1c0,0.467,0.379,0.846,0.846,0.846h12.147c0.176,0.007,0.352,0.013,0.53,0.013
			c7.477,0,13.538-6.061,13.538-13.538C27.147,216.003,21.086,209.942,13.609,209.942L13.609,209.942z"/>
	</g>
	<text transform="matrix(1 0 0 1 30.3195 233.9259)" fill="#1F1F23" font-family="'AsapCondensed-Medium'" font-size="29.1701">fraseteca</text>
	<g>
		<g>
			<g>
				<g>
					<path fill="#1F1F23" d="M6.714,219.203h13.79c0.392,0,0.587,0.358,0.587,1.073v0.405c0,0.715-0.196,1.073-0.587,1.073H6.714
						c-0.392,0-0.587-0.358-0.587-1.073v-0.405C6.127,219.56,6.322,219.203,6.714,219.203z"/>
				</g>
			</g>
			<g>
				<g>
					<path fill="#1F1F23" d="M6.714,225.206h9.017c0.392,0,0.587,0.358,0.587,1.073v0.405c0,0.716-0.196,1.073-0.587,1.073H6.714
						c-0.392,0-0.587-0.358-0.587-1.073v-0.405C6.127,225.563,6.322,225.206,6.714,225.206z"/>
				</g>
			</g>
		</g>
	</g>
</g>
</svg>
