<?xml version="1.0" encoding="utf-8"?>
<!-- Generator: Adobe Illustrator 17.0.0, SVG Export Plug-In . SVG Version: 6.00 Build 0)  -->
<!DOCTYPE svg PUBLIC "-//W3C//DTD SVG 1.1//EN" "http://www.w3.org/Graphics/SVG/1.1/DTD/svg11.dtd">
<svg version="1.1" id="Camada_1" xmlns="http://www.w3.org/2000/svg" xmlns:xlink="http://www.w3.org/1999/xlink" x="0px" y="0px"
	 width="150.25px" height="33.25px" viewBox="-8.25 -1.25 150.25 33.25" enable-background="new -8.25 -1.25 150.25 33.25"
	 xml:space="preserve">
<g>
	<g>
		<g>
			<path fill="#EDDF5E" d="M8.274-0.625c-8.837,0-16,7.163-16,16c0,0.229,0.008,0.457,0.017,0.684v14.3c0,0.552,0.448,1,1,1H7.647
				c0.208,0.008,0.417,0.016,0.627,0.016c8.837,0,16-7.163,16-16S17.11-0.625,8.274-0.625z"/>
			<path fill="#1F1F23" d="M8.274,2.014c7.367,0,13.361,5.994,13.361,13.361S15.641,28.736,8.274,28.736
				c-0.176,0-0.351-0.007-0.525-0.014L7.698,28.72H7.647H-5.07V16.059v-0.056l-0.002-0.056c-0.007-0.176-0.015-0.381-0.015-0.573
				C-5.087,8.008,0.907,2.014,8.274,2.014 M8.274-0.625c-8.837,0-16,7.163-16,16c0,0.229,0.008,0.457,0.017,0.684v14.3
				c0,0.552,0.448,1,1,1H7.647c0.208,0.008,0.417,0.016,0.627,0.016c8.837,0,16-7.163,16-16S17.11-0.625,8.274-0.625L8.274-0.625z"
				/>
		</g>
		<g>
			<path fill="#1F1F23" d="M31.057,27.304V12.997H30.23c-0.276,0-0.478-0.098-0.603-0.293c-0.127-0.195-0.19-0.511-0.19-0.948
				v-0.448c0-0.436,0.063-0.753,0.19-0.948c0.126-0.195,0.328-0.293,0.603-0.293h0.827V6.722c0-1.724,0.408-2.942,1.224-3.654
				c0.816-0.712,1.81-1.069,2.982-1.069c0.643,0,1.246,0.103,1.81,0.31c0.563,0.207,0.845,0.517,0.845,0.931
				c0,0.253-0.086,0.633-0.258,1.138c-0.172,0.506-0.374,0.758-0.603,0.758c-0.069,0-0.219-0.035-0.448-0.103
				c-0.23-0.069-0.471-0.103-0.724-0.103c-0.437,0-0.764,0.138-0.983,0.414c-0.218,0.276-0.327,0.793-0.327,1.551v3.172h1.965
				c0.276,0,0.477,0.098,0.603,0.293c0.126,0.196,0.19,0.512,0.19,0.948v0.448c0,0.437-0.063,0.753-0.19,0.948
				c-0.126,0.196-0.327,0.293-0.603,0.293h-1.965v14.307c0,0.574-0.529,0.862-1.586,0.862h-0.345
				C31.586,28.165,31.057,27.878,31.057,27.304z"/>
			<path fill="#1F1F23" d="M39.607,27.304V15.479c0-1.517-0.069-2.62-0.207-3.309c-0.138-0.69-0.207-1.08-0.207-1.172
				c0-0.321,0.287-0.552,0.862-0.689c0.574-0.138,1.103-0.207,1.586-0.207c0.345,0,0.591,0.167,0.741,0.5
				c0.149,0.334,0.264,0.69,0.345,1.069c0.08,0.379,0.132,0.638,0.155,0.776c1.011-1.746,2.137-2.62,3.379-2.62
				c0.62,0,1.074,0.144,1.362,0.431c0.287,0.288,0.431,0.649,0.431,1.086c0,0.414-0.075,0.885-0.224,1.414
				c-0.149,0.529-0.327,0.793-0.534,0.793c-0.115,0-0.327-0.057-0.638-0.172c-0.31-0.115-0.649-0.173-1.017-0.173
				c-0.552,0-1.069,0.23-1.552,0.69c-0.482,0.46-0.805,0.897-0.965,1.31v12.101c0,0.574-0.517,0.862-1.552,0.862h-0.379
				C40.135,28.165,39.607,27.878,39.607,27.304z"/>
			<path fill="#1F1F23" d="M50.724,26.924c-0.885-0.942-1.327-2.264-1.327-3.965c0-2.229,0.804-3.838,2.413-4.826
				c1.608-0.988,3.78-1.494,6.516-1.517v-1.31c0-0.758-0.219-1.373-0.655-1.844c-0.437-0.471-1.138-0.707-2.103-0.707
				c-0.713,0-1.339,0.086-1.879,0.259c-0.541,0.172-1.029,0.368-1.465,0.586c-0.437,0.219-0.701,0.328-0.793,0.328
				c-0.253,0-0.546-0.264-0.879-0.793c-0.333-0.528-0.5-0.931-0.5-1.207c0-0.321,0.27-0.643,0.81-0.965
				c0.54-0.322,1.246-0.592,2.12-0.81c0.873-0.218,1.781-0.327,2.724-0.327c2,0,3.522,0.483,4.568,1.448
				c1.046,0.965,1.569,2.299,1.569,3.999v7.446c0,1.54,0.069,2.654,0.207,3.344c0.138,0.689,0.207,1.081,0.207,1.172
				c0,0.322-0.282,0.552-0.845,0.69c-0.563,0.138-1.086,0.207-1.569,0.207c-0.345,0-0.598-0.155-0.758-0.465
				c-0.161-0.31-0.322-0.81-0.483-1.5c-1.126,1.448-2.54,2.172-4.24,2.172C52.821,28.337,51.609,27.867,50.724,26.924z
				 M58.326,23.58v-4.309c-1.678,0.023-3.005,0.282-3.982,0.775c-0.977,0.494-1.465,1.419-1.465,2.775
				c0,1.655,0.781,2.482,2.344,2.482C56.51,25.304,57.544,24.729,58.326,23.58z"/>
			<path fill="#1F1F23" d="M66.858,28.079c-0.724-0.218-1.31-0.5-1.758-0.845c-0.448-0.345-0.672-0.677-0.672-1
				c0-0.321,0.172-0.747,0.517-1.275c0.345-0.529,0.632-0.793,0.862-0.793c0.069,0,0.276,0.115,0.621,0.345
				c0.345,0.23,0.718,0.431,1.12,0.603c0.402,0.172,0.856,0.258,1.362,0.258c0.735,0,1.298-0.184,1.689-0.552
				c0.391-0.367,0.586-0.908,0.586-1.62c0-0.735-0.23-1.345-0.69-1.827c-0.46-0.483-1.161-0.965-2.103-1.448
				c-1.172-0.552-2.063-1.207-2.672-1.965s-0.913-1.781-0.913-3.069c0-1.539,0.488-2.769,1.465-3.689
				c0.977-0.919,2.235-1.379,3.775-1.379c0.988,0,1.901,0.155,2.741,0.465c0.838,0.31,1.258,0.695,1.258,1.155
				c0,0.322-0.144,0.758-0.431,1.31c-0.288,0.552-0.535,0.827-0.741,0.827c-0.046,0-0.31-0.132-0.793-0.396
				c-0.483-0.264-1.034-0.397-1.655-0.397c-0.62,0-1.126,0.161-1.517,0.483c-0.391,0.322-0.586,0.77-0.586,1.344
				c0,0.713,0.218,1.288,0.655,1.724c0.436,0.437,1.08,0.896,1.931,1.379c1.264,0.598,2.206,1.299,2.827,2.103
				c0.621,0.805,0.931,1.885,0.931,3.24c0,1.586-0.517,2.873-1.551,3.861c-1.034,0.988-2.356,1.482-3.964,1.482
				C68.345,28.407,67.581,28.297,66.858,28.079z"/>
			<path fill="#1F1F23" d="M78.113,26.062c-1.218-1.517-1.827-3.803-1.827-6.861c0-3.148,0.591-5.499,1.775-7.05
				c1.183-1.552,2.89-2.327,5.119-2.327c2.069,0,3.614,0.775,4.637,2.327c1.022,1.551,1.534,3.809,1.534,6.774
				c0,0.23-0.172,0.552-0.517,0.965c-0.345,0.414-0.62,0.62-0.827,0.62H80.01c0.092,1.724,0.431,2.971,1.017,3.741
				c0.586,0.77,1.476,1.155,2.672,1.155c0.758,0,1.39-0.103,1.896-0.31c0.505-0.207,0.936-0.431,1.293-0.672
				c0.356-0.241,0.569-0.362,0.638-0.362c0.276,0,0.574,0.265,0.897,0.793c0.321,0.529,0.483,0.931,0.483,1.207
				c0,0.345-0.259,0.696-0.776,1.052c-0.517,0.356-1.184,0.649-2,0.879c-0.816,0.229-1.637,0.345-2.465,0.345
				C81.182,28.337,79.331,27.579,78.113,26.062z M85.801,17.857c0-1.746-0.219-3.045-0.655-3.896
				c-0.437-0.85-1.115-1.275-2.034-1.275c-0.989,0-1.736,0.414-2.241,1.241c-0.506,0.827-0.805,2.137-0.897,3.93H85.801z"/>
			<path fill="#1F1F23" d="M93.558,27.286c-0.782-0.701-1.172-1.867-1.172-3.499v-10.79h-0.897c-0.276,0-0.477-0.098-0.603-0.293
				c-0.127-0.195-0.19-0.511-0.19-0.948v-0.448c0-0.436,0.063-0.753,0.19-0.948c0.126-0.195,0.327-0.293,0.603-0.293h0.897
				l0.448-3.516c0.046-0.574,0.483-0.862,1.31-0.862h0.552c0.827,0,1.241,0.288,1.241,0.862v3.516h2
				c0.276,0,0.471,0.098,0.586,0.293c0.115,0.196,0.172,0.512,0.172,0.948v0.448c0,0.437-0.057,0.753-0.172,0.948
				c-0.115,0.196-0.31,0.293-0.586,0.293h-2v10.515c0,0.713,0.103,1.207,0.31,1.482c0.207,0.276,0.505,0.414,0.896,0.414
				c0.229,0,0.448-0.029,0.655-0.086c0.207-0.057,0.356-0.086,0.448-0.086c0.229,0,0.419,0.247,0.569,0.741
				c0.149,0.494,0.224,0.879,0.224,1.155c0,0.437-0.288,0.747-0.862,0.931c-0.575,0.184-1.172,0.276-1.793,0.276
				C95.282,28.337,94.339,27.987,93.558,27.286z"/>
			<path fill="#1F1F23" d="M102.314,26.062c-1.219-1.517-1.827-3.803-1.827-6.861c0-3.148,0.591-5.499,1.775-7.05
				c1.183-1.552,2.89-2.327,5.119-2.327c2.069,0,3.614,0.775,4.637,2.327c1.022,1.551,1.534,3.809,1.534,6.774
				c0,0.23-0.172,0.552-0.517,0.965c-0.345,0.414-0.621,0.62-0.828,0.62h-7.998c0.092,1.724,0.431,2.971,1.017,3.741
				c0.586,0.77,1.476,1.155,2.672,1.155c0.758,0,1.39-0.103,1.896-0.31c0.506-0.207,0.936-0.431,1.293-0.672
				c0.356-0.241,0.569-0.362,0.638-0.362c0.276,0,0.574,0.265,0.896,0.793c0.321,0.529,0.483,0.931,0.483,1.207
				c0,0.345-0.258,0.696-0.776,1.052c-0.517,0.356-1.184,0.649-1.999,0.879c-0.816,0.229-1.638,0.345-2.465,0.345
				C105.382,28.337,103.532,27.579,102.314,26.062z M110.002,17.857c0-1.746-0.219-3.045-0.655-3.896
				c-0.437-0.85-1.115-1.275-2.034-1.275c-0.989,0-1.736,0.414-2.241,1.241c-0.506,0.827-0.805,2.137-0.896,3.93H110.002z"/>
			<path fill="#1F1F23" d="M117.069,26.114c-1.195-1.482-1.793-3.844-1.793-7.084c0-3.286,0.62-5.642,1.862-7.067
				c1.241-1.425,3.022-2.137,5.344-2.137c1.126,0,2.16,0.184,3.103,0.552c0.942,0.368,1.413,0.793,1.413,1.275
				c0,0.322-0.149,0.747-0.448,1.275c-0.299,0.529-0.552,0.793-0.758,0.793c-0.115,0-0.264-0.057-0.448-0.172
				c-0.437-0.229-0.856-0.419-1.258-0.569c-0.402-0.149-0.868-0.224-1.396-0.224c-1.241,0-2.166,0.483-2.775,1.448
				s-0.913,2.551-0.913,4.757c0,2.275,0.287,3.919,0.862,4.93c0.574,1.012,1.528,1.517,2.861,1.517c0.598,0,1.109-0.069,1.534-0.207
				c0.425-0.138,0.833-0.321,1.224-0.552c0.115-0.046,0.212-0.103,0.293-0.172c0.08-0.069,0.143-0.103,0.189-0.103
				c0.276,0,0.557,0.253,0.845,0.758c0.287,0.506,0.431,0.919,0.431,1.241c0,0.322-0.258,0.633-0.776,0.931
				c-0.517,0.299-1.15,0.546-1.896,0.741c-0.747,0.195-1.43,0.293-2.051,0.293C120.079,28.337,118.264,27.596,117.069,26.114z"/>
			<path fill="#1F1F23" d="M129.944,26.924c-0.885-0.942-1.327-2.264-1.327-3.965c0-2.229,0.804-3.838,2.413-4.826
				c1.608-0.988,3.78-1.494,6.516-1.517v-1.31c0-0.758-0.219-1.373-0.655-1.844c-0.437-0.471-1.138-0.707-2.103-0.707
				c-0.712,0-1.339,0.086-1.879,0.259c-0.541,0.172-1.029,0.368-1.465,0.586c-0.437,0.219-0.701,0.328-0.793,0.328
				c-0.253,0-0.546-0.264-0.879-0.793c-0.333-0.528-0.5-0.931-0.5-1.207c0-0.321,0.27-0.643,0.81-0.965
				c0.54-0.322,1.246-0.592,2.12-0.81c0.873-0.218,1.781-0.327,2.724-0.327c2,0,3.522,0.483,4.568,1.448
				c1.046,0.965,1.569,2.299,1.569,3.999v7.446c0,1.54,0.069,2.654,0.207,3.344c0.138,0.689,0.207,1.081,0.207,1.172
				c0,0.322-0.282,0.552-0.845,0.69c-0.564,0.138-1.086,0.207-1.569,0.207c-0.345,0-0.598-0.155-0.758-0.465
				c-0.161-0.31-0.322-0.81-0.483-1.5c-1.126,1.448-2.54,2.172-4.241,2.172C132.042,28.337,130.829,27.867,129.944,26.924z
				 M137.546,23.58v-4.309c-1.678,0.023-3.005,0.282-3.982,0.775c-0.977,0.494-1.465,1.419-1.465,2.775
				c0,1.655,0.781,2.482,2.344,2.482C135.73,25.304,136.764,24.729,137.546,23.58z"/>
		</g>
		<g>
			<g>
				<g>
					<path fill="#1F1F23" d="M0.125,10.32h16.297c0.463,0,0.694,0.423,0.694,1.269v0.479c0,0.846-0.231,1.269-0.694,1.269H0.125
						c-0.463,0-0.694-0.423-0.694-1.269v-0.479C-0.569,10.742-0.338,10.32,0.125,10.32z"/>
				</g>
				<g>
					<path fill="#1F1F23" d="M0.125,17.414h10.656c0.463,0,0.694,0.423,0.694,1.269v0.479c0,0.846-0.231,1.269-0.694,1.269H0.125
						c-0.463,0-0.694-0.423-0.694-1.269v-0.479C-0.569,17.837-0.338,17.414,0.125,17.414z"/>
				</g>
			</g>
		</g>
	</g>
</g>
</svg>
