<?xml version="1.0" encoding="utf-8"?>
<!-- Generator: Adobe Illustrator 17.0.0, SVG Export Plug-In . SVG Version: 6.00 Build 0)  -->
<!DOCTYPE svg PUBLIC "-//W3C//DTD SVG 1.1//EN" "http://www.w3.org/Graphics/SVG/1.1/DTD/svg11.dtd">
<svg version="1.1" id="Camada_1" xmlns="http://www.w3.org/2000/svg" xmlns:xlink="http://www.w3.org/1999/xlink" x="0px" y="0px"
	 width="143.2px" height="32px" viewBox="0 0 143.2 32" enable-background="new 0 0 143.2 32" xml:space="preserve">
<g>
	<g>
		<g>
			<circle fill="#E41833" cx="16.6" cy="16" r="14.5"/>
		</g>
		<path fill="#E41833" d="M18,29.6c0,0.5-0.5,0.9-1,0.9H3c-0.5,0-0.9-0.4-0.9-0.9V16.4c0-0.5,0.4-0.9,0.9-0.9l10.9,2.2
			c0.5,0,0.9,0.4,0.9,0.9L18,29.6z"/>
	</g>
	<g>
		<path fill="#1E1C2D" d="M36.8,26.3V14h-0.6c-0.3,0-0.5-0.1-0.6-0.3c-0.1-0.2-0.2-0.6-0.2-1v-0.5c0-0.5,0.1-0.8,0.2-1
			c0.1-0.2,0.3-0.3,0.6-0.3h0.6V8.2c0-1.6,0.4-2.8,1.1-3.6c0.7-0.7,1.7-1.1,3-1.1c0.6,0,1.2,0.1,1.8,0.3c0.6,0.2,0.9,0.6,0.9,1
			c0,0.2-0.1,0.6-0.2,1.2S43,6.8,42.8,6.8c-0.1,0-0.3,0-0.5-0.1c-0.2-0.1-0.4-0.1-0.5-0.1c-0.4,0-0.6,0.1-0.8,0.3
			c-0.2,0.2-0.3,0.6-0.3,1.2v2.6h1.4c0.3,0,0.5,0.1,0.6,0.3c0.1,0.2,0.2,0.6,0.2,1v0.5c0,0.5-0.1,0.8-0.2,1
			c-0.1,0.2-0.3,0.3-0.6,0.3h-1.4v12.3c0,0.6-0.6,0.9-1.7,0.9h-0.6C37.4,27.2,36.8,26.9,36.8,26.3z"/>
		<path fill="#1E1C2D" d="M45.2,26.3V16c0-1.4-0.1-2.4-0.2-3.1c-0.1-0.6-0.2-1-0.2-1.2c0-0.3,0.3-0.5,1-0.7c0.7-0.2,1.3-0.2,1.8-0.2
			c0.3,0,0.6,0.1,0.7,0.4c0.1,0.3,0.3,0.6,0.3,1c0.1,0.3,0.1,0.6,0.1,0.7c0.4-0.7,0.8-1.3,1.2-1.7c0.5-0.4,1-0.6,1.7-0.6
			c0.6,0,1,0.1,1.2,0.4c0.2,0.2,0.3,0.6,0.3,1.1c0,0.4-0.1,0.9-0.2,1.5c-0.1,0.6-0.3,0.9-0.5,0.9c-0.1,0-0.3,0-0.6-0.1
			c-0.3-0.1-0.6-0.1-0.9-0.1c-0.4,0-0.8,0.2-1.2,0.5c-0.4,0.4-0.6,0.7-0.7,1.2v10.4c0,0.6-0.6,0.9-1.7,0.9h-0.6
			C45.8,27.2,45.2,26.9,45.2,26.3z"/>
		<path fill="#1E1C2D" d="M55.4,26.1c-0.8-0.9-1.1-2.1-1.1-3.6c0-1.8,0.6-3.2,1.9-4.2c1.2-1,3.2-1.6,5.8-1.6v-0.8
			c0-1.4-0.7-2.1-2.2-2.1c-0.6,0-1.1,0.1-1.5,0.2s-0.9,0.3-1.3,0.5c-0.3,0.2-0.5,0.2-0.6,0.2c-0.3,0-0.6-0.3-0.9-0.9
			c-0.3-0.6-0.5-1-0.5-1.3c0-0.3,0.2-0.6,0.7-1c0.5-0.3,1.1-0.5,1.9-0.7c0.8-0.2,1.6-0.3,2.4-0.3c2,0,3.5,0.5,4.4,1.4
			s1.4,2.2,1.4,3.8V22c0,1.4,0.1,2.4,0.2,3.1c0.1,0.7,0.2,1.1,0.2,1.2c0,0.3-0.3,0.5-1,0.7c-0.7,0.2-1.3,0.2-1.8,0.2
			c-0.3,0-0.5-0.1-0.7-0.4c-0.1-0.3-0.3-0.7-0.4-1.3c-0.4,0.5-0.8,1-1.5,1.3c-0.6,0.4-1.3,0.5-2.1,0.5C57.2,27.4,56.2,27,55.4,26.1z
			 M61,24c0.4-0.2,0.7-0.5,1-0.9v-3.8c-2.7,0-4,1-4,3c0,0.7,0.2,1.2,0.5,1.5c0.3,0.4,0.8,0.5,1.4,0.5C60.2,24.4,60.6,24.2,61,24z"/>
		<path fill="#1E1C2D" d="M69.9,26.8c-0.9-0.4-1.4-0.9-1.4-1.4c0-0.4,0.2-0.8,0.5-1.4c0.4-0.6,0.7-0.8,1-0.8c0.1,0,0.2,0.1,0.5,0.3
			c0.3,0.2,0.6,0.4,0.9,0.5c0.3,0.1,0.7,0.2,1.1,0.2c0.6,0,1-0.1,1.4-0.4c0.3-0.3,0.5-0.7,0.5-1.2c0-0.6-0.2-1-0.6-1.3
			c-0.4-0.3-1-0.7-1.9-1.2c-1-0.5-1.7-1.1-2.3-1.8c-0.5-0.7-0.8-1.6-0.8-2.8c0-1.5,0.5-2.7,1.4-3.5c0.9-0.9,2.1-1.3,3.6-1.3
			c0.9,0,1.8,0.1,2.6,0.4c0.8,0.3,1.2,0.7,1.2,1.2c0,0.4-0.1,0.8-0.4,1.4c-0.3,0.6-0.5,0.9-0.7,0.9c-0.1,0-0.3-0.1-0.7-0.3
			s-0.9-0.3-1.4-0.3c-0.5,0-0.9,0.1-1.3,0.3c-0.3,0.2-0.5,0.6-0.5,1c0,0.5,0.2,0.8,0.5,1.1c0.3,0.3,0.8,0.6,1.5,1l0.6,0.3
			c1,0.5,1.7,1.2,2.2,1.9c0.5,0.7,0.8,1.7,0.8,2.8c0,1.5-0.5,2.7-1.4,3.7c-0.9,0.9-2.2,1.4-3.8,1.4C71.8,27.4,70.8,27.2,69.9,26.8z"
			/>
		<path fill="#1E1C2D" d="M81.5,25.3c-1.1-1.4-1.7-3.4-1.7-6.2c0-5.7,2.1-8.5,6.4-8.5c3.8,0,5.7,2.8,5.7,8.3c0,0.2-0.2,0.6-0.5,1
			c-0.4,0.4-0.7,0.7-0.9,0.7h-6.5c0.1,1.3,0.3,2.2,0.8,2.8c0.5,0.6,1.2,0.9,2.1,0.9c0.5,0,1-0.1,1.4-0.2c0.4-0.2,0.8-0.3,1.2-0.5
			c0.4-0.2,0.6-0.3,0.6-0.3c0.3,0,0.6,0.3,0.9,0.8s0.5,1,0.5,1.3c0,0.4-0.3,0.8-0.8,1.1c-0.5,0.3-1.1,0.6-1.9,0.8
			c-0.8,0.2-1.5,0.3-2.1,0.3C84.4,27.4,82.6,26.7,81.5,25.3z M88.2,18c0-1.5-0.2-2.6-0.5-3.3c-0.3-0.7-0.8-1.1-1.5-1.1
			c-0.7,0-1.3,0.3-1.7,1c-0.4,0.7-0.6,1.8-0.7,3.4H88.2z"/>
		<path fill="#1E1C2D" d="M95.8,26.3c-0.7-0.7-1-1.9-1-3.4V14h-0.6c-0.3,0-0.5-0.1-0.6-0.3c-0.1-0.2-0.2-0.6-0.2-1v-0.5
			c0-0.5,0.1-0.8,0.2-1c0.1-0.2,0.3-0.3,0.6-0.3h0.6l0.4-3.1c0.1-0.6,0.5-0.9,1.4-0.9h0.8c0.9,0,1.3,0.3,1.3,0.9v3.1h1.5
			c0.3,0,0.5,0.1,0.6,0.3c0.1,0.2,0.2,0.6,0.2,1v0.5c0,0.5-0.1,0.8-0.2,1c-0.1,0.2-0.3,0.3-0.6,0.3h-1.5v8.8c0,0.5,0.1,0.9,0.2,1.1
			s0.4,0.3,0.7,0.3c0.2,0,0.3,0,0.5-0.1c0.2,0,0.3-0.1,0.4-0.1c0.2,0,0.4,0.3,0.6,0.8c0.2,0.5,0.2,0.9,0.2,1.2c0,0.5-0.3,0.8-0.9,1
			c-0.6,0.2-1.3,0.3-1.9,0.3C97.4,27.4,96.5,27,95.8,26.3z"/>
		<path fill="#1E1C2D" d="M104.3,25.3c-1.1-1.4-1.7-3.4-1.7-6.2c0-5.7,2.1-8.5,6.4-8.5c3.8,0,5.7,2.8,5.7,8.3c0,0.2-0.2,0.6-0.5,1
			c-0.4,0.4-0.7,0.7-0.9,0.7h-6.5c0.1,1.3,0.3,2.2,0.8,2.8c0.5,0.6,1.2,0.9,2.1,0.9c0.5,0,1-0.1,1.4-0.2c0.4-0.2,0.8-0.3,1.2-0.5
			c0.4-0.2,0.6-0.3,0.6-0.3c0.3,0,0.6,0.3,0.9,0.8c0.3,0.6,0.5,1,0.5,1.3c0,0.4-0.3,0.8-0.8,1.1c-0.5,0.3-1.1,0.6-1.9,0.8
			c-0.8,0.2-1.5,0.3-2.1,0.3C107.2,27.4,105.5,26.7,104.3,25.3z M111,18c0-1.5-0.2-2.6-0.5-3.3c-0.3-0.7-0.8-1.1-1.5-1.1
			c-0.7,0-1.3,0.3-1.7,1c-0.4,0.7-0.6,1.8-0.7,3.4H111z"/>
		<path fill="#1E1C2D" d="M118.1,25.3c-1.1-1.4-1.6-3.5-1.6-6.3c0-2.9,0.6-5,1.7-6.3c1.1-1.4,2.8-2,5-2c1.1,0,2.1,0.2,3,0.6
			c0.9,0.4,1.3,0.8,1.3,1.3c0,0.3-0.1,0.8-0.4,1.3c-0.3,0.5-0.6,0.8-0.8,0.8c-0.1,0-0.2-0.1-0.5-0.2c-0.4-0.2-0.7-0.4-1-0.5
			c-0.3-0.1-0.7-0.2-1.2-0.2c-1,0-1.7,0.4-2.2,1.2c-0.5,0.8-0.7,2.1-0.7,4c0,1.9,0.2,3.2,0.7,4c0.5,0.8,1.2,1.2,2.2,1.2
			c0.5,0,0.9-0.1,1.3-0.2c0.3-0.1,0.7-0.3,1.1-0.5c0.1,0,0.2-0.1,0.3-0.2c0.1-0.1,0.2-0.1,0.2-0.1c0.3,0,0.5,0.3,0.8,0.8
			c0.3,0.5,0.4,1,0.4,1.3c0,0.3-0.2,0.7-0.7,1c-0.5,0.3-1.1,0.5-1.8,0.7c-0.7,0.2-1.4,0.3-1.9,0.3C120.9,27.4,119.2,26.7,118.1,25.3
			z"/>
		<path fill="#1E1C2D" d="M130.4,26.1c-0.8-0.9-1.1-2.1-1.1-3.6c0-1.8,0.6-3.2,1.9-4.2c1.2-1,3.2-1.6,5.8-1.6v-0.8
			c0-1.4-0.7-2.1-2.2-2.1c-0.6,0-1,0.1-1.5,0.2s-0.9,0.3-1.3,0.5c-0.3,0.2-0.5,0.2-0.6,0.2c-0.3,0-0.6-0.3-0.9-0.9
			c-0.3-0.6-0.5-1-0.5-1.3c0-0.3,0.2-0.6,0.7-1c0.5-0.3,1.1-0.5,1.9-0.7s1.6-0.3,2.4-0.3c2,0,3.5,0.5,4.4,1.4c1,0.9,1.4,2.2,1.4,3.8
			V22c0,1.4,0.1,2.4,0.2,3.1c0.1,0.7,0.2,1.1,0.2,1.2c0,0.3-0.3,0.5-1,0.7c-0.7,0.2-1.3,0.2-1.8,0.2c-0.3,0-0.5-0.1-0.7-0.4
			c-0.1-0.3-0.3-0.7-0.4-1.3c-0.4,0.5-0.8,1-1.5,1.3c-0.6,0.4-1.3,0.5-2.1,0.5C132.2,27.4,131.1,27,130.4,26.1z M135.9,24
			c0.4-0.2,0.7-0.5,1-0.9v-3.8c-2.7,0-4,1-4,3c0,0.7,0.2,1.2,0.5,1.5c0.3,0.4,0.8,0.5,1.4,0.5C135.1,24.4,135.5,24.2,135.9,24z"/>
	</g>
	<g>
		<g>
			<path fill="#FFFFFF" d="M9.2,11.4h14.7c0.4,0,0.6,0.4,0.6,1.1V13c0,0.8-0.2,1.1-0.6,1.1H9.2c-0.4,0-0.6-0.4-0.6-1.1v-0.4
				C8.6,11.8,8.8,11.4,9.2,11.4z"/>
		</g>
		<g>
			<path fill="#FFFFFF" d="M9.2,17.8h9.6c0.4,0,0.6,0.4,0.6,1.1v0.4c0,0.8-0.2,1.1-0.6,1.1H9.2c-0.4,0-0.6-0.4-0.6-1.1V19
				C8.6,18.2,8.8,17.8,9.2,17.8z"/>
		</g>
	</g>
</g>
</svg>
