<?xml version="1.0" encoding="utf-8"?>
<!-- Generator: Adobe Illustrator 17.0.0, SVG Export Plug-In . SVG Version: 6.00 Build 0)  -->
<!DOCTYPE svg PUBLIC "-//W3C//DTD SVG 1.1//EN" "http://www.w3.org/Graphics/SVG/1.1/DTD/svg11.dtd">
<svg version="1.1" id="Camada_1" xmlns="http://www.w3.org/2000/svg" xmlns:xlink="http://www.w3.org/1999/xlink" x="0px" y="0px"
	 width="41px" height="41px" viewBox="0 0 41 41" enable-background="new 0 0 41 41" xml:space="preserve">
<g>
	<g>
		<circle fill="#EDECEC" cx="20.5" cy="20.5" r="20"/>
	</g>
	<g>
		<path fill="none" stroke="#1F1F23" stroke-width="1.5" stroke-miterlimit="10" d="M20.3,9.7c-2.7,0-5,2.1-5.1,4.8v0.1v5"/>
		<path fill="none" stroke="#1F1F23" stroke-width="1.5" stroke-miterlimit="10" d="M20.1,9.7c2.8,0,5,2.2,5.1,5v5.6"/>
		<g>
			<path fill="#EDECEC" stroke="#1F1F23" stroke-width="1.5" stroke-miterlimit="10" d="M28.4,29.2c0,1.2-0.9,2.1-2.1,2.1H14.7
				c-1.2,0-2.1-0.9-2.1-2.1v-9.5c0-1.2,0.9-2.1,2.1-2.1h11.6c1.2,0,2.1,0.9,2.1,2.1C28.4,19.7,28.4,29.2,28.4,29.2z"/>
		</g>
		<circle fill="#1F1F23" cx="20.2" cy="24.3" r="1.9"/>
	</g>
</g>
</svg>
