<?xml version="1.0" encoding="utf-8"?>
<!-- Generator: Adobe Illustrator 17.0.0, SVG Export Plug-In . SVG Version: 6.00 Build 0)  -->
<!DOCTYPE svg PUBLIC "-//W3C//DTD SVG 1.1//EN" "http://www.w3.org/Graphics/SVG/1.1/DTD/svg11.dtd">
<svg version="1.1" id="Camada_1" xmlns="http://www.w3.org/2000/svg" xmlns:xlink="http://www.w3.org/1999/xlink" x="0px" y="0px"
	 width="41px" height="41px" viewBox="0 0 41 41" enable-background="new 0 0 41 41" xml:space="preserve">
<g>
	<g>
		<g>
			<circle fill="#EA5F5F" cx="20.5" cy="20.5" r="20"/>
		</g>
	</g>
</g>
<g>
	<path fill="none" stroke="#1F1F23" stroke-width="1.5" stroke-miterlimit="10" d="M12.55,18.2c1.3,0,2.3,1,2.3,2.3
		c0,1.2-1,2.3-2.3,2.3c-1.2,0-2.2-1-2.2-2.3C10.35,19.3,11.35,18.2,12.55,18.2z"/>
	<path fill="none" stroke="#1F1F23" stroke-width="1.5" stroke-miterlimit="10" d="M20.45,18.2c1.3,0,2.3,1,2.3,2.3
		c0,1.2-1,2.3-2.3,2.3c-1.2,0-2.2-1-2.2-2.3C18.15,19.3,19.25,18.2,20.45,18.2z"/>
	<path fill="none" stroke="#1F1F23" stroke-width="1.5" stroke-miterlimit="10" d="M28.35,18.2c1.3,0,2.3,1,2.3,2.3
		c0,1.2-1,2.3-2.3,2.3c-1.2,0-2.2-1-2.2-2.3C26.05,19.3,27.05,18.2,28.35,18.2z"/>
</g>
</svg>
