<?xml version="1.0" encoding="utf-8"?>
<!-- Generator: Adobe Illustrator 17.0.0, SVG Export Plug-In . SVG Version: 6.00 Build 0)  -->
<!DOCTYPE svg PUBLIC "-//W3C//DTD SVG 1.1//EN" "http://www.w3.org/Graphics/SVG/1.1/DTD/svg11.dtd">
<svg version="1.1" id="Camada_1" xmlns="http://www.w3.org/2000/svg" xmlns:xlink="http://www.w3.org/1999/xlink" x="0px" y="0px"
	 width="41px" height="41px" viewBox="0 0 41 41" enable-background="new 0 0 41 41" xml:space="preserve">
<g>
	<g>
		<g>
			<g>
				<circle fill="#90C155" cx="20.5" cy="20.5" r="20"/>
				<circle fill="#90C155" stroke="#FFFFFF" stroke-width="0.25" stroke-miterlimit="10" cx="20.5" cy="20.5" r="20"/>
			</g>
		</g>
	</g>
	<g>
		<path fill="#1F1F23" stroke="#1F1F23" stroke-width="0.75" stroke-miterlimit="10" d="M27,24.8c-0.6,0-1.1,0.1-1.6,0.4
			c-0.4,0.2-0.7,0.5-0.9,0.8l-7.6-4.4c0-0.1,0.1-0.2,0.1-0.4c0.2-0.7,0.1-1.4-0.2-2.1l7.6-4.4C25,15.5,26,16,27,16
			c0.6,0,1.1-0.1,1.6-0.4c0.7-0.4,1.3-1.1,1.5-1.9c0.2-0.8,0.1-1.7-0.3-2.4c-0.6-1-1.6-1.6-2.7-1.6c-0.6,0-1.1,0.1-1.6,0.4
			c-1.4,0.8-1.9,2.5-1.4,3.9l-7.6,4.4c-0.6-0.8-1.5-1.3-2.5-1.3c-0.6,0-1.1,0.1-1.6,0.4c-1.5,0.9-2,2.8-1.2,4.3
			c0.6,1,1.6,1.6,2.7,1.6c0.6,0,1.1-0.1,1.6-0.4c0.4-0.2,0.7-0.5,1-0.9l7.6,4.4c-0.4,0.9-0.4,1.9,0.2,2.8c0.6,1,1.6,1.6,2.7,1.6
			c0.6,0,1.1-0.1,1.6-0.4c0.7-0.4,1.3-1.1,1.5-1.9s0.1-1.7-0.3-2.4C29.2,25.4,28.2,24.8,27,24.8z M25.8,10.9
			c0.4-0.2,0.8-0.3,1.2-0.3c0.9,0,1.7,0.5,2.1,1.2c0.3,0.6,0.4,1.2,0.2,1.8c-0.2,0.6-0.6,1.1-1.1,1.5c-0.4,0.2-0.8,0.3-1.2,0.3
			c-0.9,0-1.7-0.5-2.1-1.2C24.3,13.1,24.7,11.6,25.8,10.9z M15.2,22.6c-0.4,0.2-0.8,0.3-1.2,0.3c-0.9,0-1.7-0.5-2.1-1.2
			c-0.7-1.2-0.3-2.6,0.9-3.3c0.4-0.2,0.8-0.3,1.2-0.3c0.9,0,1.7,0.5,2.1,1.2c0.3,0.6,0.4,1.2,0.2,1.8C16.1,21.7,15.7,22.3,15.2,22.6
			z M29.4,28.6c-0.2,0.6-0.6,1.1-1.1,1.5c-0.4,0.2-0.8,0.3-1.2,0.3c-0.9,0-1.7-0.5-2.1-1.2c-0.7-1.2-0.3-2.6,0.9-3.3
			c0.4-0.2,0.8-0.3,1.2-0.3c0.9,0,1.7,0.5,2.1,1.2C29.5,27.3,29.5,28,29.4,28.6z"/>
	</g>
</g>
</svg>
