<?xml version="1.0" encoding="utf-8"?>
<!-- Generator: Adobe Illustrator 17.0.0, SVG Export Plug-In . SVG Version: 6.00 Build 0)  -->
<!DOCTYPE svg PUBLIC "-//W3C//DTD SVG 1.1//EN" "http://www.w3.org/Graphics/SVG/1.1/DTD/svg11.dtd">
<svg version="1.1" id="Camada_1" xmlns="http://www.w3.org/2000/svg" xmlns:xlink="http://www.w3.org/1999/xlink" x="0px" y="0px"
	 width="31px" height="31px" viewBox="0 0 31 31" enable-background="new 0 0 31 31" xml:space="preserve">
<g>
	<path fill="#1F1F23" stroke="#1F1F23" stroke-width="0.5" stroke-miterlimit="10" d="M29.4,28l-6.3-6.3c-0.3-0.3-0.7-0.5-1.1-0.5
		c-0.2,0-0.5,0.1-0.7,0.1l-1.6-1.6c2.3-2,3.7-5,3.7-8.3c0-6.1-5-11.1-11.1-11.1S1.1,5.3,1.1,11.4s5,11.1,11.1,11.1
		c2.5,0,4.8-0.8,6.7-2.2l1.7,1.7c-0.1,0.2-0.2,0.5-0.2,0.8c0,0.4,0.2,0.8,0.5,1.1l6.3,6.3c0.3,0.3,0.7,0.5,1.1,0.5s0.8-0.2,1.1-0.5
		s0.5-0.7,0.5-1.1C29.9,28.7,29.7,28.3,29.4,28z M2.2,11.4c0-5.6,4.5-10.1,10.1-10.1s10.1,4.5,10.1,10.1s-4.5,10.1-10.1,10.1
		S2.2,17,2.2,11.4z M28.7,29.5c-0.1,0.1-0.2,0.2-0.4,0.2c-0.2,0-0.3-0.1-0.4-0.2l-6.3-6.3c-0.1-0.1-0.2-0.2-0.2-0.4
		c0-0.2,0.1-0.3,0.2-0.4s0.2-0.2,0.4-0.2c0.2,0,0.3,0.1,0.4,0.2l6.3,6.3c0.1,0.1,0.2,0.2,0.2,0.4C28.8,29.2,28.8,29.4,28.7,29.5z"/>
</g>
</svg>
