<?xml version="1.0" encoding="utf-8"?>
<!-- Generator: Adobe Illustrator 17.0.0, SVG Export Plug-In . SVG Version: 6.00 Build 0)  -->
<!DOCTYPE svg PUBLIC "-//W3C//DTD SVG 1.1//EN" "http://www.w3.org/Graphics/SVG/1.1/DTD/svg11.dtd">
<svg version="1.1" id="Camada_1" xmlns="http://www.w3.org/2000/svg" xmlns:xlink="http://www.w3.org/1999/xlink" x="0px" y="0px"
	 width="31px" height="31px" viewBox="0 0 31 31" enable-background="new 0 0 31 31" xml:space="preserve">
<path fill="#FFFFFF" stroke="#1F1F23" stroke-width="1.5" stroke-miterlimit="10" d="M28.698,13.262l-11.9-11.9
	c-0.7-0.7-1.8-0.7-2.5,0l-12,11.9c-0.6,0.6-0.7,1.5-0.2,2.2c0.1,0.1,0.1,0.2,0.2,0.3h1.9v11.5c0,1.6,1.3,2.9,2.9,2.9h5.7v-6.7
	c0-1.6,1.3-2.9,2.9-2.9s2.9,1.3,2.9,2.9v6.7h5.3c1.6,0,2.9-1.3,2.9-2.9v-11.5h1.9C29.398,15.062,29.398,13.962,28.698,13.262z"/>
</svg>
