<?xml version="1.0" encoding="utf-8"?>
<!-- Generator: Adobe Illustrator 17.0.0, SVG Export Plug-In . SVG Version: 6.00 Build 0)  -->
<!DOCTYPE svg PUBLIC "-//W3C//DTD SVG 1.1//EN" "http://www.w3.org/Graphics/SVG/1.1/DTD/svg11.dtd">
<svg version="1.1" id="Camada_1" xmlns="http://www.w3.org/2000/svg" xmlns:xlink="http://www.w3.org/1999/xlink" x="0px" y="0px"
	 width="31px" height="31px" viewBox="0 0 31 31" enable-background="new 0 0 31 31" xml:space="preserve">
<g>
	<path fill="none" stroke="#1F1F23" stroke-width="1.5" stroke-miterlimit="10" d="M30,7c0,1.2-1,2.2-2.2,2.2H3.3C2,9.3,1,8.3,1,7
		l0,0c0-1.2,1-2.2,2.2-2.2h24.5C29,4.8,30,5.8,30,7L30,7z"/>
	<path fill="none" stroke="#1F1F23" stroke-width="1.5" stroke-miterlimit="10" d="M30,15.5c0,1.2-1,2.2-2.2,2.2H3.3
		c-1.2,0-2.2-1-2.2-2.2l0,0c0-1.2,1-2.2,2.2-2.2h24.5C29,13.3,30,14.3,30,15.5L30,15.5z"/>
	<path fill="none" stroke="#1F1F23" stroke-width="1.5" stroke-miterlimit="10" d="M21.8,24c0,1.2-1,2.2-2.2,2.2H4
		c-1.2,0-2.2-1-2.2-2.2l0,0c0-1.2,1-2.2,2.2-2.2h15.6C20.8,21.7,21.8,22.7,21.8,24L21.8,24z"/>
</g>
</svg>
