<?xml version="1.0" encoding="utf-8"?>
<!-- Generator: Adobe Illustrator 17.0.0, SVG Export Plug-In . SVG Version: 6.00 Build 0)  -->
<!DOCTYPE svg PUBLIC "-//W3C//DTD SVG 1.1//EN" "http://www.w3.org/Graphics/SVG/1.1/DTD/svg11.dtd">
<svg version="1.1" id="Camada_1" xmlns="http://www.w3.org/2000/svg" xmlns:xlink="http://www.w3.org/1999/xlink" x="0px" y="0px"
	 width="59.667px" height="59.667px" viewBox="-43.667 -43.667 59.667 59.667"
	 enable-background="new -43.667 -43.667 59.667 59.667" xml:space="preserve">
<g>
	<g>
		<path fill="#EDDF5E" d="M-13.833-43.333c-16.291,0-29.5,13.209-29.5,29.5c0,0.424,0.015,0.844,0.033,1.261v26.366
			c0,1.018,0.826,1.844,1.844,1.844h26.469c0.384,0.015,0.767,0.029,1.154,0.029c16.291,0,29.5-13.209,29.5-29.5
			S2.458-43.333-13.833-43.333z"/>
		<path fill="#1F1F23" d="M-13.833-38.466c13.585,0,24.633,11.051,24.633,24.632S-0.249,10.799-13.833,10.799
			c-0.324,0-0.645-0.015-0.97-0.026l-0.092-0.004h-0.092h-23.449v-23.342v-0.103l-0.004-0.1c-0.015-0.324-0.026-0.704-0.026-1.058
			C-38.466-27.418-27.418-38.466-13.833-38.466 M-13.833-43.333c-16.291,0-29.5,13.209-29.5,29.5c0,0.424,0.015,0.844,0.033,1.261
			v26.366c0,1.018,0.826,1.844,1.844,1.844h26.469c0.384,0.015,0.767,0.029,1.154,0.029c16.291,0,29.5-13.209,29.5-29.5
			S2.458-43.333-13.833-43.333L-13.833-43.333z"/>
	</g>
	<g>
		<g>
			<g>
				<g>
					<path fill="#1F1F23" d="M-28.856-23.155H1.193c0.852,0,1.28,0.778,1.28,2.338v0.881c0,1.56-0.428,2.338-1.28,2.338h-30.049
						c-0.855,0-1.28-0.782-1.28-2.338v-0.878C-30.136-22.374-29.712-23.155-28.856-23.155z"/>
				</g>
			</g>
			<g>
				<g>
					<path fill="#1F1F23" d="M-28.856-10.072h19.647c0.852,0,1.28,0.778,1.28,2.338v0.881c0,1.56-0.428,2.338-1.28,2.338h-19.647
						c-0.855,0-1.28-0.782-1.28-2.338v-0.881C-30.136-9.294-29.712-10.072-28.856-10.072z"/>
				</g>
			</g>
		</g>
	</g>
</g>
</svg>
