<?xml version="1.0" encoding="utf-8"?>
<!-- Generator: Adobe Illustrator 17.0.0, SVG Export Plug-In . SVG Version: 6.00 Build 0)  -->
<!DOCTYPE svg PUBLIC "-//W3C//DTD SVG 1.1//EN" "http://www.w3.org/Graphics/SVG/1.1/DTD/svg11.dtd">
<svg version="1.1" id="Camada_1" xmlns="http://www.w3.org/2000/svg" xmlns:xlink="http://www.w3.org/1999/xlink" x="0px" y="0px"
	 width="59.667px" height="59.667px" viewBox="-43.667 -43.667 59.667 59.667"
	 enable-background="new -43.667 -43.667 59.667 59.667" xml:space="preserve">
<g>
	<g>
		<path fill="#EDDF5E" d="M-13.833-37.25c-12.932,0-23.417,10.485-23.417,23.417c0,0.337,0.012,0.67,0.026,1.001V8.096
			c0,0.808,0.656,1.464,1.464,1.464h21.011c0.304,0.012,0.609,0.023,0.916,0.023c12.932,0,23.417-10.485,23.417-23.417
			S-0.901-37.25-13.833-37.25z"/>
		<path fill="#1F1F23" d="M-13.833-33.386c10.783,0,19.553,8.772,19.553,19.553S-3.05,5.72-13.833,5.72
			c-0.258,0-0.512-0.012-0.77-0.02l-0.073-0.003h-0.073h-18.613v-18.528v-0.082l-0.003-0.079c-0.012-0.258-0.02-0.559-0.02-0.84
			C-33.386-24.617-24.617-33.386-13.833-33.386 M-13.833-37.25c-12.932,0-23.417,10.485-23.417,23.417
			c0,0.337,0.012,0.67,0.026,1.001V8.096c0,0.808,0.656,1.464,1.464,1.464h21.011c0.304,0.012,0.609,0.023,0.916,0.023
			c12.932,0,23.417-10.485,23.417-23.417S-0.901-37.25-13.833-37.25L-13.833-37.25z"/>
	</g>
	<g>
		<g>
			<g>
				<g>
					<path fill="#1F1F23" d="M-25.758-21.233h23.853c0.676,0,1.016,0.618,1.016,1.856v0.7c0,1.238-0.34,1.856-1.016,1.856h-23.853
						c-0.679,0-1.016-0.621-1.016-1.856v-0.697C-26.774-20.612-26.437-21.233-25.758-21.233z"/>
				</g>
			</g>
			<g>
				<g>
					<path fill="#1F1F23" d="M-25.758-10.848h15.595c0.676,0,1.016,0.618,1.016,1.856v0.7c0,1.238-0.34,1.856-1.016,1.856h-15.595
						c-0.679,0-1.016-0.621-1.016-1.856v-0.7C-26.774-10.23-26.437-10.848-25.758-10.848z"/>
				</g>
			</g>
		</g>
	</g>
</g>
</svg>
