<?xml version="1.0" encoding="utf-8"?>
<!-- Generator: Adobe Illustrator 17.0.0, SVG Export Plug-In . SVG Version: 6.00 Build 0)  -->
<!DOCTYPE svg PUBLIC "-//W3C//DTD SVG 1.1//EN" "http://www.w3.org/Graphics/SVG/1.1/DTD/svg11.dtd">
<svg version="1.1" id="Camada_1" xmlns="http://www.w3.org/2000/svg" xmlns:xlink="http://www.w3.org/1999/xlink" x="0px" y="0px"
	 width="14px" height="15px" viewBox="0 0 14 15" enable-background="new 0 0 14 15" xml:space="preserve">
<g>
	<circle fill="#EDDF5E" cx="7" cy="7.5" r="6.917"/>
	<g>
		
			<path fill="none" stroke="#1F1F23" stroke-width="1.2" stroke-linecap="round" stroke-linejoin="round" stroke-miterlimit="10" d="
			M8.607,6.97"/>
		
			<path fill="none" stroke="#1F1F23" stroke-width="1.2" stroke-linecap="round" stroke-linejoin="round" stroke-miterlimit="10" d="
			M5.089,6.944L3.506,6.222C3.23,6.129,3.054,6.331,3.109,6.602l1.503,3.613c0,0,0.061,0.115,0.232,0.115c0.172,0,1.865,0,1.865,0
			h0.515c0,0,1.694,0,1.865,0c0.172,0,0.232-0.115,0.232-0.115l1.503-3.613c0.055-0.271-0.121-0.473-0.397-0.38L8.901,6.927
			L8.857,6.939c0,0-0.151,0.052-0.281-0.059L8.528,6.832l-0.04-0.047L7.195,5.011C7.045,4.833,6.83,4.85,6.682,5.033L5.407,6.832
			L5.359,6.88c-0.13,0.112-0.281,0.059-0.281,0.059"/>
	</g>
</g>
</svg>
