<?xml version="1.0" encoding="utf-8"?>
<!-- Generator: Adobe Illustrator 17.0.0, SVG Export Plug-In . SVG Version: 6.00 Build 0)  -->
<!DOCTYPE svg PUBLIC "-//W3C//DTD SVG 1.1//EN" "http://www.w3.org/Graphics/SVG/1.1/DTD/svg11.dtd">
<svg version="1.1" id="Camada_1" xmlns="http://www.w3.org/2000/svg" xmlns:xlink="http://www.w3.org/1999/xlink" x="0px" y="0px"
	 width="16px" height="16px" viewBox="0 0 16 16" enable-background="new 0 0 16 16" xml:space="preserve">
<g>
	<g>
		<path fill="#EDDF5E" d="M8,0C3.582,0,0,3.582,0,8c0,0.115,0.004,0.229,0.009,0.342v7.15c0,0.276,0.224,0.5,0.5,0.5h7.178
			C7.791,15.996,7.895,16,8,16c4.418,0,8-3.582,8-8S12.418,0,8,0z"/>
		<path fill="#1F1F23" d="M8,1.32c3.684,0,6.68,2.997,6.68,6.68S11.684,14.68,8,14.68c-0.088,0-0.175-0.004-0.263-0.007
			l-0.025-0.001H7.687H1.328v-6.33V8.314L1.327,8.287C1.323,8.199,1.32,8.096,1.32,8C1.32,4.316,4.316,1.32,8,1.32 M8,0
			C3.582,0,0,3.582,0,8c0,0.115,0.004,0.229,0.009,0.342v7.15c0,0.276,0.224,0.5,0.5,0.5h7.178C7.791,15.996,7.895,16,8,16
			c4.418,0,8-3.582,8-8S12.418,0,8,0L8,0z"/>
	</g>
	<g>
		<g>
			<g>
				<g>
					<path fill="#1F1F23" d="M3.926,5.472h8.149c0.231,0,0.347,0.211,0.347,0.634v0.239c0,0.423-0.116,0.634-0.347,0.634H3.926
						c-0.232,0-0.347-0.212-0.347-0.634V6.107C3.579,5.684,3.694,5.472,3.926,5.472z"/>
				</g>
			</g>
			<g>
				<g>
					<path fill="#1F1F23" d="M3.926,9.02h5.328c0.231,0,0.347,0.211,0.347,0.634v0.239c0,0.423-0.116,0.634-0.347,0.634H3.926
						c-0.232,0-0.347-0.212-0.347-0.634V9.654C3.579,9.231,3.694,9.02,3.926,9.02z"/>
				</g>
			</g>
		</g>
	</g>
</g>
</svg>
