<?xml version="1.0" encoding="utf-8"?>
<!-- Generator: Adobe Illustrator 17.0.0, SVG Export Plug-In . SVG Version: 6.00 Build 0)  -->
<!DOCTYPE svg PUBLIC "-//W3C//DTD SVG 1.1//EN" "http://www.w3.org/Graphics/SVG/1.1/DTD/svg11.dtd">
<svg version="1.1" id="Camada_1" xmlns="http://www.w3.org/2000/svg" xmlns:xlink="http://www.w3.org/1999/xlink" x="0px" y="0px"
	 width="128.9px" height="119.4px" viewBox="0 0 128.9 119.4" enable-background="new 0 0 128.9 119.4" xml:space="preserve">
<rect x="0" y="0" fill="#EDEDED" width="128.9" height="119.4"/>
<g opacity="0.4">
	<g>
		<path fill="none" stroke="#B2B2B2" stroke-width="1.6044" stroke-linecap="round" stroke-miterlimit="10" d="M44.2,67.2
			c-1.9,1.9-1.9,4.9,0,6.7c1.9,1.9,4.9,1.9,6.7,0L68.8,56"/>
		<path fill="none" stroke="#B2B2B2" stroke-width="1.6044" stroke-linecap="round" stroke-miterlimit="10" d="M58.8,45.9L35.4,69.3
			c-3.7,3.7-3.7,9.7,0,13.4c3.7,3.7,9.7,3.7,13.4,0L78,53.5c2.8-2.8,2.8-7.3,0-10.1s-7.3-2.8-10.1,0L44.2,67.2"/>
	</g>
	<g>
		<path fill="#B2B2B2" d="M32.5,44.9c0,0.1,0.1,0.3,0.2,0.2l2.4-0.5c0.2,0,0.2-0.2,0.1-0.3l-1.9-1.9c-0.1-0.1-0.3-0.1-0.3,0.1
			L32.5,44.9z M32.5,44.9c0,0.1,0.1,0.3,0.2,0.2l2.4-0.5c0.2,0,0.2-0.2,0.1-0.3l-1.9-1.9c-0.1-0.1-0.3-0.1-0.3,0.1L32.5,44.9z
			 M31.6,45.5c-0.1,0.3,0.2,0.7,0.6,0.6l4-0.8c0.4-0.1,0.5-0.6,0.3-0.8l-3.3-3.3c-0.3-0.3-0.8-0.1-0.8,0.3L31.6,45.5z"/>
		<path fill="#FAF1F3" d="M32.5,44.9c0,0.1,0.1,0.3,0.2,0.2l2.4-0.5c0.2,0,0.2-0.2,0.1-0.3l-1.9-1.9c-0.1-0.1-0.3-0.1-0.3,0.1
			L32.5,44.9z"/>
		<path fill="#B2B2B2" d="M44.8,29c1.1-1.1,2.9-1.1,4,0s1.1,2.9,0,4L36.5,45.2l-0.6-0.6l12.2-12.2c0.8-0.8,0.8-2,0-2.8s-2-0.8-2.8,0
			L33.1,41.8l-0.6-0.6L44.8,29z"/>
	</g>
	<g>
		<path fill="#B2B2B2" d="M116.1,76.7c0-0.1-0.1-0.3-0.2-0.2l-2.4,0.5c-0.2,0-0.2,0.2-0.1,0.3l1.9,1.9c0.1,0.1,0.3,0.1,0.3-0.1
			L116.1,76.7z M116.1,76.7c0-0.1-0.1-0.3-0.2-0.2l-2.4,0.5c-0.2,0-0.2,0.2-0.1,0.3l1.9,1.9c0.1,0.1,0.3,0.1,0.3-0.1L116.1,76.7z
			 M117,76.1c0.1-0.3-0.2-0.7-0.6-0.6l-4,0.8c-0.4,0.1-0.5,0.6-0.3,0.8l3.3,3.3c0.3,0.3,0.8,0.1,0.8-0.3L117,76.1z"/>
		<path fill="#FAF1F3" d="M116.1,76.7c0-0.1-0.1-0.3-0.2-0.2l-2.4,0.5c-0.2,0-0.2,0.2-0.1,0.3l1.9,1.9c0.1,0.1,0.3,0.1,0.3-0.1
			L116.1,76.7z"/>
		<path fill="#B2B2B2" d="M103.9,92.6c-1.1,1.1-2.9,1.1-4,0s-1.1-2.9,0-4l12.2-12.2l0.6,0.6l-12.2,12.2c-0.8,0.8-0.8,2,0,2.8
			s2,0.8,2.8,0l12.2-12.2l0.6,0.6L103.9,92.6z"/>
	</g>
	<g>
		<path fill="#B2B2B2" d="M40.6,17c-0.4-0.2-0.8,0-1,0.4s0,0.8,0.4,1c2.6,1,5.6,0.9,8.2-0.4c2.6-1.3,4.5-3.6,5.3-6.3
			c0.1-0.4-0.1-0.8-0.5-0.9c-0.4-0.1-0.8,0.1-0.9,0.5c-0.7,2.3-2.3,4.2-4.5,5.3C45.3,17.8,42.8,17.9,40.6,17z"/>
		<path fill="#B2B2B2" d="M34.1,7.3c-0.9,0.4-1.3,1.5-0.8,2.5l1.4,2.7c0.4,0.9,1.5,1.3,2.5,0.8c0.9-0.4,1.3-1.5,0.8-2.5l-1.4-2.7
			C36.1,7.2,35,6.8,34.1,7.3z"/>
		<path fill="#B2B2B2" d="M47.5,0.6c-0.9,0.4-1.3,1.5-0.8,2.5l1.4,2.7c0.4,0.9,1.5,1.3,2.5,0.8s1.3-1.5,0.8-2.5L50,1.4
			C49.5,0.5,48.4,0.2,47.5,0.6z"/>
	</g>
	<g>
		<path fill="none" stroke="#B2B2B2" stroke-miterlimit="10" d="M95.7,17.4"/>
		<path fill="none" stroke="#B2B2B2" stroke-miterlimit="10" d="M80.3,14.1L74,9.5c-1.1-0.7-2,0-2,1.3L75.2,28c0,0,0.2,0.6,0.9,0.7
			s8.2,1.7,8.2,1.7l2.3,0.5c0,0,7.4,1.5,8.2,1.7s1.1-0.3,1.1-0.3l9.9-14.5c0.5-1.1-0.1-2.2-1.4-2L97,17.5h-0.2c0,0-0.7,0.1-1.2-0.5
			l-0.2-0.3l-0.1-0.2l-4-9c-0.5-0.9-1.5-1-2.3-0.4l-7.2,6.7L81.6,14C80.9,14.4,80.3,14,80.3,14.1"/>
	</g>
	<g>
		<path fill="#EDEDED" stroke="#B2B2B2" stroke-miterlimit="10" d="M118.8,18l-7.2-13.7c-0.5-1-0.1-2.2,0.8-2.7
			c1-0.5,2.2-0.1,2.7,0.9l7.2,13.7c0.5,1,0.2,2.2-0.8,2.7C120.5,19.4,119.3,19,118.8,18z M125.3,21.3c0.6,1.1,0.1,2.4-0.9,2.9
			c-1.1,0.6-2.3,0.2-2.9-0.9c-0.5-1-0.2-2.3,0.9-2.9C123.4,19.9,124.8,20.3,125.3,21.3z"/>
	</g>
	<g>
		<path fill="#EDEDED" stroke="#B2B2B2" stroke-width="0.6219" stroke-miterlimit="10" d="M104.7,40.7c0.7,0.1,1.2,0.8,1,1.5
			c-0.1,0.4-0.3,0.7-0.7,0.9l-0.7,0.2l0.6,0.5c0.3,0.3,0.4,0.7,0.3,1.1c-0.1,0.7-0.8,1.1-1.5,1c-0.2,0-0.5-0.2-0.7-0.4l-0.3-0.2
			l-0.1,0.5c-0.1,0.7-0.8,1.1-1.5,1s-1.1-0.8-1-1.5l0.1-0.5L99.8,45c-0.3,0.1-0.5,0.1-0.8,0.1c-0.7-0.1-1.1-0.8-1-1.5
			c0.1-0.4,0.3-0.7,0.7-0.9l0.7-0.3l-0.5-0.5c-0.3-0.3-0.4-0.7-0.4-1.1c0.1-0.7,0.8-1.2,1.5-1c0.2,0,0.5,0.2,0.7,0.4l0.3,0.3
			l0.1-0.5c0.1-0.7,0.8-1.1,1.5-1s1.1,0.8,1,1.5l-0.1,0.5l0.3-0.1C104.1,40.7,104.4,40.7,104.7,40.7z"/>
		<path fill="#EDEDED" stroke="#B2B2B2" stroke-width="0.6219" stroke-miterlimit="10" d="M112.5,42.2c0.7,0.1,1.2,0.8,1,1.5
			c-0.1,0.4-0.3,0.7-0.7,0.9l-0.7,0.2l0.6,0.5c0.3,0.3,0.4,0.7,0.3,1.1c-0.1,0.7-0.8,1.1-1.5,1c-0.2,0-0.5-0.2-0.7-0.4l-0.3-0.2
			l-0.1,0.5c-0.1,0.7-0.8,1.1-1.5,1s-1.1-0.8-1-1.5l0.1-0.5l-0.4,0.1c-0.3,0.1-0.5,0.1-0.8,0.1c-0.7-0.1-1.1-0.8-1-1.5
			c0.1-0.4,0.3-0.7,0.7-0.9l0.7-0.3l-0.5-0.5c-0.3-0.3-0.4-0.7-0.4-1.1c0.1-0.7,0.8-1.2,1.5-1c0.2,0,0.5,0.2,0.7,0.4l0.3,0.3
			l0.1-0.5c0.1-0.7,0.8-1.1,1.5-1s1.1,0.8,1,1.5l-0.1,0.5l0.3-0.1C111.9,42.2,112.2,42.2,112.5,42.2z"/>
		<path fill="#EDEDED" stroke="#B2B2B2" stroke-width="0.6219" stroke-miterlimit="10" d="M120.3,43.7c0.7,0.1,1.2,0.8,1,1.5
			c-0.1,0.4-0.3,0.7-0.7,0.9l-0.7,0.2l0.6,0.5c0.3,0.3,0.4,0.7,0.3,1.1c-0.1,0.7-0.8,1.1-1.5,1c-0.2,0-0.5-0.2-0.7-0.4l-0.3-0.2
			l-0.1,0.5c-0.1,0.7-0.8,1.1-1.5,1s-1.1-0.8-1-1.5l0.1-0.5l-0.4,0.1c-0.3,0.1-0.5,0.1-0.8,0.1c-0.7-0.1-1.1-0.8-1-1.5
			c0.1-0.4,0.3-0.7,0.7-0.9l0.7-0.3l-0.5-0.5c-0.3-0.3-0.4-0.7-0.4-1.1c0.1-0.7,0.8-1.2,1.5-1c0.2,0,0.5,0.2,0.7,0.4l0.3,0.3
			l0.1-0.5c0.1-0.7,0.8-1.1,1.5-1s1.1,0.8,1,1.5l-0.1,0.5l0.3-0.1C119.7,43.7,120,43.7,120.3,43.7z"/>
	</g>
	<g>
		<path fill="#B2B2B2" d="M122.3,98.5c0-0.1-0.2-0.2-0.3-0.2l-5.2,2.9c-0.3,0.2-0.7,0.2-1,0.1l-5.8-2c-0.1-0.1-0.3,0.1-0.3,0.2
			l1.4,5.8c0.1,0.4,0,0.8-0.2,1.1l-3.7,4.7c-0.1,0.1,0,0.3,0.1,0.3l6.3,0.8c0.4,0,0.7,0.2,0.9,0.6l3.3,4.8c0.1,0.1,0.3,0.1,0.3,0
			l2.2-5.2c0.2-0.4,0.5-0.6,0.8-0.7l5.9-1.7c0.2,0,0.2-0.2,0.1-0.3l-4.1-3.5c-0.3-0.2-0.4-0.6-0.5-0.9L122.3,98.5z M123,97.7
			c0-0.4-0.4-0.6-0.7-0.4l-6,3.2c-0.1,0.1-0.3,0.1-0.4,0l-6.7-2.3c-0.4-0.1-0.7,0.2-0.7,0.6l1.6,6.7c0,0.1,0,0.3-0.1,0.4l-4.2,5.4
			c-0.2,0.3-0.1,0.8,0.3,0.8l7.2,0.9c0.1,0,0.3,0.1,0.3,0.2l3.8,5.6c0.2,0.3,0.7,0.3,0.9-0.1l2.5-6c0.1-0.1,0.2-0.2,0.3-0.3l6.8-1.9
			c0.4-0.1,0.5-0.6,0.2-0.9l-4.8-4.1c-0.1-0.1-0.2-0.2-0.2-0.4L123,97.7z"/>
		<path fill="#EDEDED" d="M122.3,98.5c0-0.1-0.2-0.2-0.3-0.2l-5.2,2.9c-0.3,0.2-0.7,0.2-1,0.1l-5.8-2c-0.1-0.1-0.3,0.1-0.3,0.2
			l1.4,5.8c0.1,0.4,0,0.8-0.2,1.1l-3.7,4.7c-0.1,0.1,0,0.3,0.1,0.3l6.3,0.8c0.4,0,0.7,0.2,0.9,0.6l3.3,4.8c0.1,0.1,0.3,0.1,0.3,0
			l2.2-5.2c0.2-0.4,0.5-0.6,0.8-0.7l5.9-1.7c0.2,0,0.2-0.2,0.1-0.3l-4.1-3.5c-0.3-0.2-0.4-0.6-0.5-0.9L122.3,98.5z"/>
	</g>
	<g>
		<path fill="#B2B2B2" d="M99.8,56.3l-4.5,3.8c-0.2,0.2-0.4,0.4-0.4,0.7c0,0.2,0,0.3,0.1,0.5l-1.2,1c-1.2-1.6-3.1-2.8-5.3-2.9
			c-4.1-0.3-7.7,2.7-8.1,6.8c-0.3,4.1,2.7,7.7,6.8,8.1c4.1,0.3,7.7-2.7,8.1-6.8c0.1-1.7-0.3-3.2-1.1-4.6l1.2-1
			c0.2,0.1,0.3,0.2,0.5,0.2c0.3,0,0.6-0.1,0.8-0.3l4.5-3.8c0.2-0.2,0.4-0.4,0.4-0.7s-0.1-0.6-0.3-0.8c-0.2-0.2-0.4-0.4-0.7-0.4
			C100.3,56.1,100,56.2,99.8,56.3z M87.3,73.5c-3.7-0.3-6.5-3.6-6.2-7.3c0.3-3.7,3.6-6.5,7.3-6.2c3.7,0.3,6.5,3.6,6.2,7.3
			C94.2,71.1,91,73.9,87.3,73.5z M100.8,56.9c0.1,0.1,0.1,0.2,0.1,0.3s-0.1,0.2-0.1,0.3l-4.5,3.8c-0.1,0.1-0.2,0.1-0.3,0.1
			c-0.1,0-0.2-0.1-0.3-0.1c-0.1-0.1-0.1-0.2-0.1-0.3s0.1-0.2,0.1-0.3l4.5-3.8c0.1-0.1,0.2-0.1,0.3-0.1
			C100.6,56.8,100.7,56.8,100.8,56.9z"/>
	</g>
	<g>
		<path fill="#FFFFFF" stroke="#B2B2B2" stroke-miterlimit="10" d="M24.9,113.7c0.8,0.9,0.6,2.2-0.2,2.9c-0.9,0.8-2.1,0.7-2.9-0.2
			L7,99.4c-0.8-0.9-0.7-2.1,0.2-2.9s2.2-0.7,2.9,0.2L24.9,113.7z"/>
		<path fill="#FFFFFF" stroke="#B2B2B2" stroke-miterlimit="10" d="M14.6,116.1c-0.9,0.8-2.2,0.6-2.9-0.2L1.5,104.2
			c-0.8-0.9-0.7-2.2,0.2-2.9c0.8-0.7,2.2-0.7,2.9,0.2l10.2,11.7C15.5,114,15.4,115.4,14.6,116.1z M14.6,116.1
			c-0.9,0.8-2.2,0.6-2.9-0.2L1.5,104.2c-0.8-0.9-0.7-2.2,0.2-2.9c0.8-0.7,2.2-0.7,2.9,0.2l10.2,11.7C15.5,114,15.4,115.4,14.6,116.1
			z"/>
	</g>
	<g>
		<path fill="#B2B2B2" d="M17.2,19.7c-0.5,0-1,0.1-1.5,0.4c-0.4,0.2-0.7,0.5-0.9,0.8l-7.2-4.2c0-0.1,0.1-0.2,0.1-0.3
			c0.2-0.7,0.1-1.3-0.1-1.9l7.2-4.2c0.6,0.8,1.5,1.3,2.4,1.3c0.5,0,1-0.1,1.5-0.4c0.7-0.4,1.2-1,1.4-1.8c0.2-0.8,0.1-1.6-0.3-2.3
			c-0.5-0.9-1.5-1.5-2.6-1.5c-0.5,0-1,0.1-1.5,0.4c-1.3,0.8-1.8,2.3-1.3,3.7l-7.2,4.2c-0.6-0.7-1.4-1.2-2.4-1.2
			c-0.5,0-1,0.1-1.5,0.4c-1.4,0.8-1.9,2.7-1.1,4.1c0.5,0.9,1.5,1.5,2.6,1.5c0.5,0,1-0.1,1.5-0.4c0.4-0.2,0.7-0.5,0.9-0.9l7.2,4.2
			c-0.4,0.8-0.3,1.8,0.2,2.7c0.5,0.9,1.5,1.5,2.6,1.5c0.5,0,1-0.1,1.5-0.4c0.7-0.4,1.2-1,1.4-1.8c0.2-0.8,0.1-1.6-0.3-2.3
			C19.3,20.3,18.3,19.7,17.2,19.7z M16.1,6.6c0.3-0.2,0.7-0.3,1.1-0.3c0.8,0,1.6,0.4,2,1.1c0.3,0.5,0.4,1.1,0.2,1.7
			c-0.2,0.6-0.5,1.1-1.1,1.4c-0.3,0.2-0.7,0.3-1.1,0.3c-0.8,0-1.6-0.4-2-1.1C14.6,8.7,15,7.3,16.1,6.6z M6,17.6
			c-0.3,0.2-0.7,0.3-1.1,0.3c-0.8,0-1.6-0.4-2-1.1c-0.6-1.1-0.3-2.5,0.8-3.1c0.3-0.2,0.7-0.3,1.1-0.3c0.8,0,1.6,0.4,2,1.1
			C7.1,15,7.2,15.6,7,16.2C6.9,16.8,6.6,17.3,6,17.6z M19.4,23.3c-0.2,0.6-0.5,1.1-1.1,1.4C18,24.9,17.6,25,17.2,25
			c-0.8,0-1.6-0.4-2-1.1c-0.6-1.1-0.3-2.5,0.8-3.1c0.3-0.2,0.7-0.3,1.1-0.3c0.8,0,1.6,0.4,2,1.1C19.5,22.1,19.6,22.7,19.4,23.3z"/>
	</g>
	<g>
		<path fill="#FAF1F3" stroke="#B2B2B2" stroke-miterlimit="10" d="M5.5,39.5c-0.8,0.8-2.1,0.8-2.9,0s-0.8-2.1,0-2.9
			c0.8-0.8,2.1-0.8,2.9,0C6.3,37.4,6.3,38.7,5.5,39.5z M10.5,52.8c1.5,1.5,3.8,1.6,5.4,0c1.4-1.4,1.6-3.9,0-5.4
			c-0.8-0.8-0.8-1.9-0.1-2.7c0.8-0.8,2-0.8,2.8,0l0.1,0.1c2.9,3,2.9,7.8-0.1,10.7c-3,3-7.8,3-10.8,0S5,47.7,8,44.8l0.1-0.1l-1.1-1
			c-0.8-0.8-0.8-1.9-0.1-2.7c0.8-0.8,2-0.8,2.7,0l2.4,2.4c0.8,0.8,0.7,2,0,2.7l-1.4,1.4C9.2,49,9.1,51.4,10.5,52.8z"/>
	</g>
	<g>
		<path fill="none" stroke="#B2B2B2" stroke-width="0.8483" stroke-miterlimit="10" d="M53.2,90.4c-2-0.1-4,0.7-5.4,2.1
			c-1.1,1.1-1.7,2.4-1.9,4c-0.1,0.8-0.1,1.6,0.1,2.4c-0.8-0.1-1.7-0.2-2.4-0.1c-1.6,0.2-2.9,0.9-4,1.9c-1.5,1.5-2.2,3.4-2.1,5.4
			c0.1,2,1,4,2.5,5.5c1.6,1.6,3.6,2.5,6.5,2.7c2.5,0.2,5.5,0,9.1-0.3c1.2-0.1,2.6-0.2,4-0.3c0.4,0,0.7-0.2,1-0.5s0.4-0.6,0.5-1
			c0.1-1.4,0.2-2.8,0.3-4c0.3-3.5,0.5-6.5,0.3-9.1c-0.3-2.8-1.1-4.9-2.7-6.5C57.2,91.4,55.2,90.5,53.2,90.4L53.2,90.4z"/>
	</g>
	<g>
		<path fill="none" stroke="#B2B2B2" stroke-width="1.2363" stroke-miterlimit="10" d="M74,83.5c0.8,1.3,0.4,3-1,3.8
			c-1.3,0.8-3,0.4-3.8-1c-0.8-1.3-0.3-3,1-3.8S73.2,82.2,74,83.5z"/>
		<path fill="none" stroke="#B2B2B2" stroke-width="1.2363" stroke-miterlimit="10" d="M79,91.8c0.8,1.3,0.4,3-1,3.8
			c-1.3,0.8-3,0.4-3.8-1c-0.8-1.3-0.3-3,1-3.8C76.5,90.1,78.2,90.5,79,91.8z"/>
		<path fill="none" stroke="#B2B2B2" stroke-width="1.2363" stroke-miterlimit="10" d="M84,100.2c0.8,1.3,0.4,3-1,3.8
			c-1.3,0.8-3,0.4-3.8-1c-0.8-1.3-0.3-3,1-3.8C81.5,98.4,83.2,98.9,84,100.2z"/>
	</g>
	<path fill="#FAF1F3" stroke="#B2B2B2" stroke-width="0.75" stroke-miterlimit="10" d="M9.2,83c-0.7,0.7-1.9,0.5-2.8-0.4l0,0
		c-0.9-0.9-1.1-2.2-0.4-2.8L9.8,76c0.7-0.7,1.9-0.5,2.8,0.4l0,0c0.9,0.9,1.1,2.2,0.4,2.8L9.2,83z"/>
	<path fill="#FAF1F3" stroke="#B2B2B2" stroke-width="0.75" stroke-miterlimit="10" d="M18,74.2c-0.7,0.7-1.9,0.5-2.8-0.4l0,0
		c-0.9-0.9-1.1-2.2-0.4-2.8l3.8-3.8c0.7-0.7,1.9-0.5,2.8,0.4l0,0c0.9,0.9,1.1,2.2,0.4,2.8L18,74.2z"/>
	
		<line fill="none" stroke="#B2B2B2" stroke-width="0.75" stroke-linecap="round" stroke-miterlimit="10" x1="10.7" y1="77.9" x2="16.2" y2="72.4"/>
</g>
</svg>
