<?xml version="1.0" encoding="utf-8"?>
<!-- Generator: Adobe Illustrator 17.0.0, SVG Export Plug-In . SVG Version: 6.00 Build 0)  -->
<!DOCTYPE svg PUBLIC "-//W3C//DTD SVG 1.1//EN" "http://www.w3.org/Graphics/SVG/1.1/DTD/svg11.dtd">
<svg version="1.1" id="Camada_1" xmlns="http://www.w3.org/2000/svg" xmlns:xlink="http://www.w3.org/1999/xlink" x="0px" y="0px"
	 width="24px" height="24px" viewBox="0 0 24 24" enable-background="new 0 0 24 24" xml:space="preserve">
<path fill="#FFFFFF" stroke="#1F1F23" stroke-width="1.5" stroke-miterlimit="10" d="M21.45,19.6c0,1.1-0.9,1.9-1.9,1.9H4.35
	c-1.1,0-1.9-0.9-1.9-1.9V4.4c0-1.1,0.9-1.9,1.9-1.9h15.3c1.1,0,1.9,0.9,1.9,1.9v15.2H21.45z"/>
<g>
	<g>
		<path fill="#1E1E1E" stroke="#1F1F23" stroke-width="0.75" stroke-miterlimit="10" d="M21.5,17.155l-6.5-6.5c0,0-0.1,0-0.1-0.1
			c-0.1-0.1-0.3,0-0.4,0.1l-2.5,2.7c-0.1,0.1-0.1,0.3,0,0.5c0.1,0.1,0.2,0.1,0.2,0.1c0.1,0,1.5-1.3,1.5-1.4l1.1-1.1l6.1,6.1l0.6,0.6
			 M2.5,18.455l7-7l6.1,6.1c0.1,0.1,0.2,0.1,0.2,0.1c0.1,0,0.2,0,0.2-0.1c0.1-0.1,0.1-0.3,0-0.5l-6.3-6.3c-0.1-0.1-0.2-0.1-0.2-0.1
			c-0.1,0-0.2,0-0.2,0.1l-6.8,6.8"/>
		<path fill="#1E1E1E" stroke="#1F1F23" stroke-width="0.75" stroke-miterlimit="10" d="M14.1,7.555c0-1-0.8-1.9-1.9-1.9
			s-1.9,0.8-1.9,1.9s0.8,1.9,1.9,1.9S14.1,8.555,14.1,7.555z M12.2,8.755c-0.7,0-1.2-0.5-1.2-1.2s0.5-1.2,1.2-1.2s1.2,0.5,1.2,1.2
			C13.4,8.155,12.9,8.755,12.2,8.755z"/>
	</g>
</g>
</svg>
