<?xml version="1.0" encoding="utf-8"?>
<!-- Generator: Adobe Illustrator 17.0.0, SVG Export Plug-In . SVG Version: 6.00 Build 0)  -->
<!DOCTYPE svg PUBLIC "-//W3C//DTD SVG 1.1//EN" "http://www.w3.org/Graphics/SVG/1.1/DTD/svg11.dtd">
<svg version="1.1" id="Camada_1" xmlns="http://www.w3.org/2000/svg" xmlns:xlink="http://www.w3.org/1999/xlink" x="0px" y="0px"
	 width="24px" height="24px" viewBox="0 0 24 24" enable-background="new 0 0 24 24" xml:space="preserve">
<rect x="-0.5" y="-0.5" fill="none" width="25" height="25"/>
<g>
	<path fill="#1F1F23" stroke="#1F1F23" stroke-width="0.75" stroke-miterlimit="10" d="M18.439,16.3c-0.6,0-1.1,0.1-1.6,0.4
		c-0.4,0.2-0.7,0.5-0.9,0.8l-7.6-4.4c0-0.1,0.1-0.2,0.1-0.4c0.2-0.7,0.1-1.4-0.2-2.1l7.7-4.2c0.6,0.8,1.6,1.3,2.6,1.3
		c0.6,0,1.1-0.1,1.6-0.4c0.7-0.4,1.3-1.1,1.5-1.9s0.1-1.7-0.3-2.4c-0.6-1-1.6-1.6-2.7-1.6c-0.6,0-1.1,0.1-1.6,0.4
		c-1.4,0.8-1.9,2.5-1.4,3.9l-7.7,4.4c-0.6-0.8-1.5-1.3-2.5-1.3c-0.6,0-1.1,0.2-1.6,0.5c-1.5,0.9-2,2.8-1.2,4.3
		c0.6,1,1.6,1.6,2.7,1.6c0.6,0,1.2-0.2,1.6-0.5c0.4-0.2,0.7-0.5,1-0.9l7.6,4.4c-0.4,0.9-0.4,1.9,0.2,2.8c0.6,1,1.6,1.6,2.7,1.6
		c0.6,0,1.1-0.1,1.6-0.4c0.7-0.4,1.3-1.1,1.5-1.9s0.1-1.7-0.3-2.4C20.639,16.9,19.639,16.3,18.439,16.3z M17.239,2.4
		c0.4-0.2,0.8-0.3,1.2-0.3c0.9,0,1.7,0.5,2.1,1.2c0.4,0.6,0.4,1.2,0.3,1.8c-0.2,0.6-0.6,1.1-1.1,1.5c-0.4,0.2-0.8,0.3-1.2,0.3
		c-0.9,0-1.7-0.5-2.1-1.2C15.739,4.6,16.139,3.1,17.239,2.4z M6.639,14.1c-0.4,0.2-0.8,0.3-1.2,0.3c-0.9,0-1.7-0.5-2.1-1.2
		c-0.7-1.2-0.3-2.6,0.9-3.3c0.3-0.2,0.7-0.3,1.2-0.3c0.9,0,1.7,0.5,2.1,1.2c0.3,0.5,0.4,1.2,0.2,1.8
		C7.539,13.2,7.139,13.8,6.639,14.1z M20.839,20.1c-0.2,0.6-0.6,1.1-1.1,1.5c-0.4,0.2-0.8,0.3-1.2,0.3c-0.9,0-1.7-0.5-2.1-1.2
		c-0.7-1.2-0.3-2.6,0.9-3.3c0.4-0.2,0.8-0.3,1.2-0.3c0.9,0,1.7,0.5,2.1,1.2C20.939,18.8,20.939,19.5,20.839,20.1z"/>
</g>
</svg>
