<?xml version="1.0" encoding="utf-8"?>
<!-- Generator: Adobe Illustrator 17.0.0, SVG Export Plug-In . SVG Version: 6.00 Build 0)  -->
<!DOCTYPE svg PUBLIC "-//W3C//DTD SVG 1.1//EN" "http://www.w3.org/Graphics/SVG/1.1/DTD/svg11.dtd">
<svg version="1.1" id="Camada_1" xmlns="http://www.w3.org/2000/svg" xmlns:xlink="http://www.w3.org/1999/xlink" x="0px" y="0px"
	 width="24px" height="24px" viewBox="0 0 24 24" enable-background="new 0 0 24 24" xml:space="preserve">
<g>
	<path fill="#FFFFFF" stroke="#1F1F23" stroke-width="1.5" stroke-miterlimit="10" d="M19.315,12.034
		c0,4.034-3.31,7.345-7.345,7.345s-7.345-3.31-7.345-7.345c0-3.103,1.966-5.793,4.655-6.828c0.103,0,0.207-0.103,0.31-0.103
		c0.828-0.31,1.552-0.414,2.379-0.414c0.931,0,1.862,0.207,2.69,0.517c0.103,0,0.207,0.103,0.31,0.103
		C17.556,6.448,19.315,9.034,19.315,12.034z"/>
	<path fill="#FFFFFF" stroke="#1F1F23" stroke-width="1.5" stroke-miterlimit="10" d="M9.286,5.75c0-1.5,1.2-2.7,2.7-2.7l0,0
		c1.5,0,2.6,1.2,2.6,2.6"/>
	<path fill="#FFFFFF" stroke="#1F1F23" stroke-width="1.5" stroke-miterlimit="10" d="M14.686,18.35c0,1.5-1.2,2.6-2.6,2.6l0,0
		c-1.5,0-2.6-1.2-2.6-2.6"/>
	<path fill="#FFFFFF" stroke="#1F1F23" stroke-width="1.5" stroke-miterlimit="10" d="M15.886,6.35c1.2-0.8,2.9-0.4,3.7,0.8l0,0
		c0.8,1.2,0.4,2.9-0.8,3.7"/>
	<path fill="#FFFFFF" stroke="#1F1F23" stroke-width="1.5" stroke-miterlimit="10" d="M8.086,17.75c-1.2,0.8-2.9,0.4-3.7-0.8l0,0
		c-0.7-1.3-0.4-2.9,0.9-3.7"/>
	<path fill="#FFFFFF" stroke="#1F1F23" stroke-width="1.5" stroke-miterlimit="10" d="M18.786,13.15c1.2,0.8,1.6,2.4,0.9,3.6l0,0
		c-0.8,1.2-2.4,1.6-3.6,0.9"/>
	<path fill="#FFFFFF" stroke="#1F1F23" stroke-width="1.5" stroke-miterlimit="10" d="M5.186,11.05c-1.2-0.8-1.6-2.4-0.8-3.7l0,0
		c0.7-1.2,2.4-1.6,3.6-0.8"/>
	<path fill="#FFFFFF" stroke="#1F1F23" stroke-width="1.5" stroke-miterlimit="10" d="M16.386,11.95c0,2.4-1.9,4.3-4.3,4.3
		s-4.3-1.9-4.3-4.3c0-1.8,1.2-3.4,2.8-4.1c0.1,0,0.1,0,0.2-0.1c0.4-0.1,0.9-0.2,1.4-0.2c0.6,0,1.1,0.1,1.6,0.3c0.1,0,0.1,0,0.2,0.1
		C15.386,8.65,16.386,10.15,16.386,11.95z"/>
</g>
</svg>
