<?xml version="1.0" encoding="utf-8"?>
<!-- Generator: Adobe Illustrator 17.0.0, SVG Export Plug-In . SVG Version: 6.00 Build 0)  -->
<!DOCTYPE svg PUBLIC "-//W3C//DTD SVG 1.1//EN" "http://www.w3.org/Graphics/SVG/1.1/DTD/svg11.dtd">
<svg version="1.1" id="Camada_1" xmlns="http://www.w3.org/2000/svg" xmlns:xlink="http://www.w3.org/1999/xlink" x="0px" y="0px"
	 width="24px" height="24px" viewBox="0 0 24 24" enable-background="new 0 0 24 24" xml:space="preserve">
<rect x="-0.5" y="-0.5" fill="none" width="25" height="25"/>
<g>
	<path fill="#FFFFFF" stroke="#1F1F23" stroke-width="1.5" stroke-miterlimit="10" d="M15.95,19.8c0,1.2-1,2.2-2.2,2.2H3.65
		c-1.2,0-2.2-1-2.2-2.2V9.7c0-1.2,1-2.2,2.2-2.2h10.1c1.2,0,2.2,1,2.2,2.2V19.8z"/>
	<path fill="#FFFFFF" stroke="#1F1F23" stroke-width="1.5" stroke-miterlimit="10" d="M22.55,14.3c0,1.2-1,2.2-2.2,2.2h-10.1
		c-1.2,0-2.2-1-2.2-2.2L7.95,4.2c0-1.2,1-2.2,2.2-2.2h10.1c1.2,0,2.2,1,2.2,2.2L22.55,14.3z"/>
</g>
</svg>
