<?xml version="1.0" encoding="utf-8"?>
<!-- Generator: Adobe Illustrator 17.0.0, SVG Export Plug-In . SVG Version: 6.00 Build 0)  -->
<!DOCTYPE svg PUBLIC "-//W3C//DTD SVG 1.1//EN" "http://www.w3.org/Graphics/SVG/1.1/DTD/svg11.dtd">
<svg version="1.1" id="Camada_1" xmlns="http://www.w3.org/2000/svg" xmlns:xlink="http://www.w3.org/1999/xlink" x="0px" y="0px"
	 width="24px" height="24px" viewBox="0 0 24 24" enable-background="new 0 0 24 24" xml:space="preserve">
<rect x="-0.5" y="-0.5" fill="none" width="25" height="25"/>
<g>
	<path fill="#EA5F5F" stroke="#1F1F23" stroke-width="1.5" stroke-miterlimit="10" d="M21.1,4.3c-1.1-1.2-2.7-1.9-4.3-1.9
		c-1.2,0-2.4,0.4-3.4,1.2C12.9,4,12.4,4.5,12,5c-0.4-0.6-0.9-1-1.4-1.4c-1-0.8-2.1-1.2-3.4-1.2C5.6,2.4,4,3.1,2.9,4.3
		S1.2,7.1,1.2,8.9s0.7,3.5,2.1,5.3c1.3,1.6,3.2,3.2,5.4,5c0.7,0.6,1.6,1.4,2.5,2.1c0.2,0.2,0.5,0.3,0.8,0.3s0.6-0.1,0.8-0.3
		c0.9-0.8,1.7-1.5,2.5-2.1c2.2-1.9,4.1-3.5,5.4-5c1.5-1.8,2.1-3.4,2.1-5.3C22.8,7.1,22.2,5.5,21.1,4.3L21.1,4.3z"/>
</g>
</svg>
