<?xml version="1.0" encoding="utf-8"?>
<!-- Generator: Adobe Illustrator 17.0.0, SVG Export Plug-In . SVG Version: 6.00 Build 0)  -->
<!DOCTYPE svg PUBLIC "-//W3C//DTD SVG 1.1//EN" "http://www.w3.org/Graphics/SVG/1.1/DTD/svg11.dtd">
<svg version="1.1" id="Camada_1" xmlns="http://www.w3.org/2000/svg" xmlns:xlink="http://www.w3.org/1999/xlink" x="0px" y="0px"
	 width="24px" height="24px" viewBox="0 0 24 24" enable-background="new 0 0 24 24" xml:space="preserve">
<g>
	<path fill="#EDDF5E" stroke="#1F1F23" stroke-width="1.5" stroke-miterlimit="10" d="M22,20.2c0,1.1-0.9,2-2,2H4c-1.1,0-2-0.9-2-2
		V3.8c0-1.1,0.9-2,2-2h16c1.1,0,2,0.9,2,2V20.2z"/>
	<g>
		<g>
			<path fill="#1F1F23" stroke="#1F1F23" stroke-width="0.75" stroke-miterlimit="10" d="M22,17.5l-6.8-6.9c0,0-0.1,0-0.1-0.1
				c-0.1-0.1-0.3,0-0.4,0.1L12,13.4c-0.1,0.1-0.1,0.4,0,0.5s0.2,0.1,0.2,0.1c0.1,0,1.5-1.4,1.6-1.5l1.1-1.2l6.4,6.5l0.6,0.6 M2,18.9
				l7.4-7.5l6.4,6.5c0,0.1,0.1,0.1,0.2,0.1s0.2,0,0.2-0.1c0.1-0.1,0.1-0.4,0-0.5l-6.6-6.8c-0.1-0.1-0.2-0.1-0.2-0.1
				c-0.1,0-0.2,0-0.2,0.1L2,17.9"/>
			<path fill="#1F1F23" stroke="#1F1F23" stroke-width="0.75" stroke-miterlimit="10" d="M14.2,7.1c0-1.1-0.9-2-2-2s-2,0.9-2,2
				s0.9,2,2,2C13.3,9.2,14.2,8.2,14.2,7.1z M12.2,8.4c-0.7,0-1.3-0.6-1.3-1.3s0.6-1.3,1.3-1.3s1.3,0.6,1.3,1.3S12.9,8.4,12.2,8.4z"
				/>
		</g>
	</g>
</g>
</svg>
