<?xml version="1.0" encoding="utf-8"?>
<!-- Generator: Adobe Illustrator 17.0.0, SVG Export Plug-In . SVG Version: 6.00 Build 0)  -->
<!DOCTYPE svg PUBLIC "-//W3C//DTD SVG 1.1//EN" "http://www.w3.org/Graphics/SVG/1.1/DTD/svg11.dtd">
<svg version="1.1" id="Camada_1" xmlns="http://www.w3.org/2000/svg" xmlns:xlink="http://www.w3.org/1999/xlink" x="0px" y="0px"
	 width="24px" height="24px" viewBox="0 0 24 24" enable-background="new 0 0 24 24" xml:space="preserve">
<path fill="#FFFFFF" stroke="#1F1F23" stroke-width="1.5" stroke-miterlimit="10" d="M20.418,10.6l-7.6-7.6c-0.4-0.4-1.2-0.4-1.6,0
	l-7.6,7.6c-0.4,0.4-0.4,1-0.1,1.4c0,0.1,0.1,0.1,0.1,0.2h1.2v7.3c0,1,0.8,1.8,1.8,1.8h3.6v-4.2c0-1,0.8-1.8,1.8-1.8s1.8,0.8,1.8,1.8
	v4.2h3.4c1,0,1.8-0.8,1.8-1.8v-7.3h1.2C20.818,11.7,20.818,11,20.418,10.6z"/>
</svg>
