<?xml version="1.0" encoding="utf-8"?>
<!-- Generator: Adobe Illustrator 17.0.0, SVG Export Plug-In . SVG Version: 6.00 Build 0)  -->
<!DOCTYPE svg PUBLIC "-//W3C//DTD SVG 1.1//EN" "http://www.w3.org/Graphics/SVG/1.1/DTD/svg11.dtd">
<svg version="1.1" id="Camada_1" xmlns="http://www.w3.org/2000/svg" xmlns:xlink="http://www.w3.org/1999/xlink" x="0px" y="0px"
	 width="24px" height="24px" viewBox="0 0 24 24" enable-background="new 0 0 24 24" xml:space="preserve">
<g>
	<g>
		<path fill="#EDECEC" stroke="#585756" stroke-width="1.5" stroke-miterlimit="10" d="M22.4,20.1c0,1.3-1,2.3-2.3,2.3H3.9
			c-1.3,0-2.3-1-2.3-2.3V3.9c0-1.3,1-2.3,2.3-2.3h16.2c1.3,0,2.3,1,2.3,2.3V20.1z"/>
	</g>
	<path fill="#585756" stroke="#585756" stroke-width="0.25" stroke-miterlimit="10" d="M16.3,13.5c-0.2-0.2-0.4-0.1-0.6,0
		c-0.9,1-2.2,1.5-3.5,1.5s-2.6-0.6-3.5-1.5c-0.2-0.2-0.4-0.2-0.6,0c-0.2,0.2-0.2,0.4,0,0.6c1,1.2,2.6,1.8,4.2,1.8s3.1-0.7,4.2-1.8
		C16.5,14,16.5,13.7,16.3,13.5z"/>
	<path fill="#585756" stroke="#585756" stroke-width="0.25" stroke-miterlimit="10" d="M7.9,7.2c-0.6,0-1,0.5-1,1v1.7
		c0,0.6,0.5,1,1,1c0.5,0,1-0.5,1-1V8.2C8.9,7.6,8.4,7.2,7.9,7.2z"/>
	<path fill="#585756" stroke="#585756" stroke-width="0.25" stroke-miterlimit="10" d="M16.2,7.2c-0.6,0-1,0.5-1,1v1.7
		c0,0.6,0.5,1,1,1s1-0.5,1-1V8.2C17.2,7.6,16.7,7.2,16.2,7.2z"/>
</g>
</svg>
