<?xml version="1.0" encoding="utf-8"?>
<!-- Generator: Adobe Illustrator 17.0.0, SVG Export Plug-In . SVG Version: 6.00 Build 0)  -->
<!DOCTYPE svg PUBLIC "-//W3C//DTD SVG 1.1//EN" "http://www.w3.org/Graphics/SVG/1.1/DTD/svg11.dtd">
<svg version="1.1" id="Camada_1" xmlns="http://www.w3.org/2000/svg" xmlns:xlink="http://www.w3.org/1999/xlink" x="0px" y="0px"
	 width="24px" height="24px" viewBox="0 0 24 24" enable-background="new 0 0 24 24" xml:space="preserve">
<g>
	<path fill="#1F1F23" stroke="#1F1F23" stroke-width="0.75" stroke-miterlimit="10" d="M3.768,20.012c0,0.1,0.1,0.3,0.2,0.2l2.4-0.5
		c0.2,0,0.2-0.2,0.1-0.3l-1.9-1.9c-0.1-0.1-0.3-0.1-0.3,0.1L3.768,20.012z M3.768,20.012c0,0.1,0.1,0.3,0.2,0.2l2.4-0.5
		c0.2,0,0.2-0.2,0.1-0.3l-1.9-1.9c-0.1-0.1-0.3-0.1-0.3,0.1L3.768,20.012z M2.768,20.612c0,0.3,0.3,0.6,0.6,0.6l4-0.8
		c0.4-0.1,0.5-0.6,0.3-0.8l-3.3-3.3c-0.3-0.3-0.8-0.1-0.8,0.3L2.768,20.612z"/>
	<path fill="#FFFFFF" d="M3.503,20.246c0,0.1,0.1,0.3,0.2,0.2l2.4-0.5c0.2,0,0.2-0.2,0.1-0.3l-1.9-1.9c-0.1-0.1-0.3-0.1-0.3,0.1
		L3.503,20.246z"/>
	<path fill="#1F1F23" stroke="#1F1F23" stroke-width="0.75" stroke-miterlimit="10" d="M16.188,3.862c1.1-1.1,2.9-1.1,4,0
		s1.1,2.9,0,4l-12.3,12.1l-0.6-0.6l12.3-12.2c0.8-0.8,0.8-2,0-2.8s-2-0.8-2.8,0l-12.3,12.2l-0.5-0.5L16.188,3.862z"/>
</g>
</svg>
