<?xml version="1.0" encoding="utf-8"?>
<!-- Generator: Adobe Illustrator 17.0.0, SVG Export Plug-In . SVG Version: 6.00 Build 0)  -->
<!DOCTYPE svg PUBLIC "-//W3C//DTD SVG 1.1//EN" "http://www.w3.org/Graphics/SVG/1.1/DTD/svg11.dtd">
<svg version="1.1" id="Camada_1" xmlns="http://www.w3.org/2000/svg" xmlns:xlink="http://www.w3.org/1999/xlink" x="0px" y="0px"
	 width="24px" height="24px" viewBox="0 0 24 24" enable-background="new 0 0 24 24" xml:space="preserve">
<g>
	<path fill="#FFFFFF" stroke="#1F1F23" stroke-width="1.7" stroke-linecap="round" stroke-miterlimit="10" d="M6.7,21
		c-0.8,0.8-2.2,0.5-3.2-0.5l0,0c-1-1-1.2-2.5-0.5-3.2L7.3,13c0.8-0.8,2.2-0.5,3.2,0.5l0,0c1,1,1.2,2.5,0.5,3.2L6.7,21z"/>
	<path fill="#FFFFFF" stroke="#1F1F23" stroke-width="1.7" stroke-linecap="round" stroke-miterlimit="10" d="M16.7,11
		c-0.8,0.8-2.2,0.5-3.2-0.5l0,0c-1-1-1.2-2.5-0.5-3.2L17.3,3c0.8-0.8,2.2-0.5,3.2,0.5l0,0c1,1,1.2,2.5,0.5,3.2L16.7,11z"/>
	
		<line fill="none" stroke="#1F1F23" stroke-width="1.7" stroke-linecap="round" stroke-miterlimit="10" x1="8.4" y1="15.3" x2="14.7" y2="9"/>
</g>
</svg>
