<?xml version="1.0" encoding="utf-8"?>
<!-- Generator: Adobe Illustrator 17.0.0, SVG Export Plug-In . SVG Version: 6.00 Build 0)  -->
<!DOCTYPE svg PUBLIC "-//W3C//DTD SVG 1.1//EN" "http://www.w3.org/Graphics/SVG/1.1/DTD/svg11.dtd">
<svg version="1.1" id="Camada_1" xmlns="http://www.w3.org/2000/svg" xmlns:xlink="http://www.w3.org/1999/xlink" x="0px" y="0px"
	 width="24px" height="24px" viewBox="0 0 24 24" enable-background="new 0 0 24 24" xml:space="preserve">
<g>
	<g>
		<path fill="#FFFFFF" stroke="#1F1F23" stroke-width="1.5" stroke-miterlimit="10" d="M19.5,20.8c0,1.1-0.9,1.9-1.9,1.9H6.7
			c-1.1,0-1.9-0.9-1.9-1.9V7.4c0-1.1,0.9-1.9,1.9-1.9h10.9c1.1,0,1.9,0.9,1.9,1.9C19.5,7.4,19.5,20.8,19.5,20.8z"/>
	</g>
	<path fill="#FFFFFF" stroke="#1F1F23" stroke-width="1.5" stroke-miterlimit="10" d="M16.1,3.2c0,1.1-0.9,1.9-1.9,1.9H9.6
		c-1.1,0-1.9-0.9-1.9-1.9l0,0c0-1.1,0.9-1.9,1.9-1.9h4.5C15.2,1.3,16.1,2.2,16.1,3.2L16.1,3.2z"/>
	<path fill="#FFFFFF" stroke="#1F1F23" stroke-width="1.5" stroke-miterlimit="10" d="M20.9,6.3c0,0.8-0.7,1.5-1.7,1.5H4.8
		c-0.9,0-1.7-0.7-1.7-1.5l0,0c0-0.8,0.7-1.5,1.7-1.5h14.4C20.1,4.7,20.9,5.4,20.9,6.3L20.9,6.3z"/>
	
		<line fill="none" stroke="#1F1F23" stroke-width="1.7" stroke-linecap="round" stroke-miterlimit="10" x1="8.7" y1="9.925" x2="8.7" y2="20.225"/>
	
		<line fill="none" stroke="#1F1F23" stroke-width="1.7" stroke-linecap="round" stroke-miterlimit="10" x1="15.7" y1="9.925" x2="15.7" y2="20.225"/>
	
		<line fill="none" stroke="#1F1F23" stroke-width="1.7" stroke-linecap="round" stroke-miterlimit="10" x1="12" y1="9.925" x2="12" y2="20.225"/>
</g>
</svg>
