<?xml version="1.0" encoding="utf-8"?>
<!-- Generator: Adobe Illustrator 17.0.0, SVG Export Plug-In . SVG Version: 6.00 Build 0)  -->
<!DOCTYPE svg PUBLIC "-//W3C//DTD SVG 1.1//EN" "http://www.w3.org/Graphics/SVG/1.1/DTD/svg11.dtd">
<svg version="1.1" id="Camada_1" xmlns="http://www.w3.org/2000/svg" xmlns:xlink="http://www.w3.org/1999/xlink" x="0px" y="0px"
	 width="24px" height="24px" viewBox="0 0 24 24" enable-background="new 0 0 24 24" xml:space="preserve">
<g>
	<path fill="#FFFFFF" stroke="#1F1F23" stroke-width="1.5" stroke-miterlimit="10" d="M20.4,4.55c0.9,0,1.6,0.7,1.6,1.5
		c0,0.9-0.7,1.5-1.5,1.5H3.6C2.7,7.65,2,6.95,2,6.05s0.7-1.6,1.5-1.6h16.9V4.55z"/>
	<path fill="#FFFFFF" stroke="#1F1F23" stroke-width="1.5" stroke-miterlimit="10" d="M20.4,10.55c0.9,0,1.5,0.7,1.5,1.6
		c0,0.9-0.7,1.5-1.5,1.5H3.6c-0.9,0-1.6-0.7-1.6-1.6s0.7-1.6,1.5-1.6h16.9V10.55z"/>
	<path fill="#FFFFFF" stroke="#1F1F23" stroke-width="1.5" stroke-miterlimit="10" d="M16.7,18.05c0,0.9-0.7,1.5-1.6,1.5H3.6
		c-0.9,0-1.6-0.7-1.6-1.5s0.7-1.6,1.5-1.6h11.6C16,16.45,16.7,17.15,16.7,18.05z M16.7,18.05c0,0.9-0.7,1.5-1.6,1.5H3.6
		c-0.9,0-1.6-0.7-1.6-1.5s0.7-1.6,1.5-1.6h11.6C16,16.45,16.7,17.15,16.7,18.05z"/>
</g>
</svg>
