<?xml version="1.0" encoding="utf-8"?>
<!-- Generator: Adobe Illustrator 17.0.0, SVG Export Plug-In . SVG Version: 6.00 Build 0)  -->
<!DOCTYPE svg PUBLIC "-//W3C//DTD SVG 1.1//EN" "http://www.w3.org/Graphics/SVG/1.1/DTD/svg11.dtd">
<svg version="1.1" id="Camada_1" xmlns="http://www.w3.org/2000/svg" xmlns:xlink="http://www.w3.org/1999/xlink" x="0px" y="0px"
	 width="24px" height="24px" viewBox="0 0 24 24" enable-background="new 0 0 24 24" xml:space="preserve">
<g>
	<path fill="#FFFFFF" stroke="#1F1F23" stroke-width="1.5" stroke-miterlimit="10" d="M8,16.8c-1.2,0-2.2-0.8-2.2-1.8V3.3
		c0-1,1-1.8,2.2-1.8h8c1.2,0,2.2,0.8,2.2,1.8V15c0,1-1,1.8-2.2,1.8H8z"/>
	<g>
		<path fill="#FFFFFF" stroke="#1F1F23" stroke-width="1.5" stroke-miterlimit="10" d="M22.8,15.7c0,1-0.8,1.9-1.8,1.9H3
			c-1,0-1.8-0.8-1.8-1.9v-7c0-1,0.8-1.9,1.8-1.9h18c1,0,1.8,0.8,1.8,1.9V15.7z"/>
		<rect x="6.1" y="13.1" fill="#FFFFFF" width="11.7" height="8.7"/>
		<path fill="#FFFFFF" stroke="#1F1F23" stroke-width="1.5" stroke-miterlimit="10" d="M8.4,22.5c-1.2,0-2.2-0.8-2.2-1.8v-5.5
			c0-1,1-1.8,2.2-1.8H16c1.2,0,2.2,0.8,2.2,1.8v5.5c0,1-1,1.8-2.2,1.8H8.4z"/>
		<path fill="#1F1F23" stroke="#1F1F23" stroke-width="0.5" stroke-miterlimit="10" d="M14.9,18.7H9.6c-0.2,0-0.4-0.2-0.4-0.4
			S9.3,18,9.6,18h5.3c0.2,0,0.4,0,0.4,0.2S15.1,18.7,14.9,18.7L14.9,18.7z"/>
	</g>
</g>
</svg>
