<?xml version="1.0" encoding="utf-8"?>
<!-- Generator: Adobe Illustrator 17.0.0, SVG Export Plug-In . SVG Version: 6.00 Build 0)  -->
<!DOCTYPE svg PUBLIC "-//W3C//DTD SVG 1.1//EN" "http://www.w3.org/Graphics/SVG/1.1/DTD/svg11.dtd">
<svg version="1.1" id="Camada_1" xmlns="http://www.w3.org/2000/svg" xmlns:xlink="http://www.w3.org/1999/xlink" x="0px" y="0px"
	 width="24px" height="24px" viewBox="0 0 24 24" enable-background="new 0 0 24 24" xml:space="preserve">
<g>
	<path fill="#1F1F23" stroke="#1F1F23" stroke-width="0.5" stroke-miterlimit="10" d="M12.215,3.181c-0.1-0.1-0.3-0.1-0.3,0
		l-2.9,4.9c-0.2,0.3-0.5,0.5-0.8,0.6l-5.8,1.2c-0.1,0-0.2,0.2-0.1,0.3l3.9,4.1c0.3,0.3,0.4,0.6,0.3,1l-0.7,5.6
		c0.1,0.1,0.2,0.2,0.4,0.1l5.5-2.4c0.3-0.1,0.7-0.1,1,0l5.1,2.3c0.1,0.1,0.3-0.1,0.3-0.2l-0.8-5.3c-0.1-0.4,0.1-0.8,0.3-1l4-4.2
		c0.1-0.1,0-0.3-0.1-0.3l-5.1-0.9c-0.3-0.1-0.6-0.3-0.8-0.6L12.215,3.181z M12.415,2.081c-0.2-0.3-0.6-0.3-0.8,0l-3.3,5.6
		c0,0.1-0.2,0.2-0.3,0.2l-6.6,1.4c-0.4,0.1-0.5,0.5-0.2,0.8l4.5,4.7c0.1,0.1,0.1,0.2,0.1,0.4l-0.8,6.4c0,0.4,0.3,0.6,0.7,0.5
		l6.3-2.7c0.1-0.1,0.3-0.1,0.4,0l5.9,2.7c0.3,0.2,0.7-0.1,0.7-0.5l-0.9-6.2c0-0.1,0-0.3,0.1-0.4l4.6-4.9c0.3-0.3,0.1-0.7-0.3-0.8
		l-6-1c-0.1,0-0.2-0.1-0.3-0.2L12.415,2.081z"/>
	<path fill="#FFFFFF" stroke="#1E1E1E" stroke-width="0.5" stroke-miterlimit="10" d="M12.215,3.181c-0.1-0.1-0.3-0.1-0.3,0
		l-2.9,4.9c-0.2,0.3-0.5,0.5-0.8,0.6l-5.8,1.2c-0.1,0-0.2,0.2-0.1,0.3l3.9,4.1c0.3,0.3,0.4,0.6,0.3,1l-0.7,5.6
		c0.1,0.1,0.2,0.2,0.4,0.1l5.5-2.4c0.3-0.1,0.7-0.1,1,0l5.1,2.3c0.1,0.1,0.3-0.1,0.3-0.2l-0.8-5.3c-0.1-0.4,0.1-0.8,0.3-1l4-4.2
		c0.1-0.1,0-0.3-0.1-0.3l-5.1-0.9c-0.3-0.1-0.6-0.3-0.8-0.6L12.215,3.181z"/>
</g>
</svg>
