<?xml version="1.0" encoding="utf-8"?>
<!-- Generator: Adobe Illustrator 17.0.0, SVG Export Plug-In . SVG Version: 6.00 Build 0)  -->
<!DOCTYPE svg PUBLIC "-//W3C//DTD SVG 1.1//EN" "http://www.w3.org/Graphics/SVG/1.1/DTD/svg11.dtd">
<svg version="1.1" id="Camada_1" xmlns="http://www.w3.org/2000/svg" xmlns:xlink="http://www.w3.org/1999/xlink" x="0px" y="0px"
	 width="181px" height="275px" viewBox="0 0 181 275" enable-background="new 0 0 181 275" xml:space="preserve">
<g>
	<g>
		<path fill="#FFFFFF" d="M117.75,65.417l6.2,38.9c0,0,11.2,1.3,12,4.7c0.2,0.9,0,1.9-0.7,3.2c-4.9,7.9-34.9,6.7-34.9,6.7l-0.8-49.5
			"/>
	</g>
	<g opacity="0.35">
		<path fill="#361B45" d="M135.85,110.517c-0.1,0.5-0.4,1-0.7,1.6c-4.9,7.9-34.9,6.7-34.9,6.7l-0.1-6.4c0.4,0.2,2.1,2.3,2.5,2.3
			C118.25,116.817,122.65,109.217,135.85,110.517z"/>
	</g>
	<g>
		<path fill="#1F1F23" d="M105.35,120.217c-2.6,0-4.4-0.1-5.1-0.1l-1.2-0.1l-0.8-50.7c0-0.7,0.5-1.3,1.3-1.3l0,0
			c0.7,0,1.3,0.6,1.3,1.3l0.8,48.3c8.9,0.3,29.1-0.4,32.6-6.1c0.5-0.9,0.7-1.6,0.6-2.2c-0.4-1.5-6.1-3.1-10.9-3.7l-1-0.1l-6.3-39.9
			c-0.1-0.7,0.4-1.3,1.1-1.5c0.7-0.1,1.3,0.4,1.5,1.1l6,38c3.6,0.5,11.3,1.9,12.2,5.5c0.3,1.3,0,2.7-0.9,4.2
			C132.25,119.317,114.45,120.217,105.35,120.217z"/>
	</g>
	<g>
		<path fill="#1F1F23" d="M114.85,114.717c0.8-0.4,1.6-0.9,2.3-1.4c0.7-0.5,1.3-1.1,1.5-1.7l0.2-0.5l0.7,0.1
			c1.8,0.3,3.6,0.5,5.3,0.5c0.8,0,1.7,0,2.4-0.2c0.3-0.1,0.6-0.2,0.7-0.4c0.1-0.1,0.2-0.2,0.2-0.2c0-0.1,0-0.1,0-0.2
			s-0.1-0.4-0.3-0.7c-0.2-0.3-0.5-0.6-0.8-0.8c-0.6-0.5-1.4-1-2.1-1.4c-0.8-0.4-1.6-0.8-2.4-1.1c-0.8-0.3-1.7-0.5-2.6-0.6
			c0.9-0.3,1.9-0.3,2.8-0.3c0.9,0.1,1.9,0.3,2.8,0.6c0.9,0.3,1.8,0.7,2.7,1.2c0.4,0.3,0.8,0.6,1.2,1s0.8,1,0.9,1.8
			c0.2,1.8-1.3,2.8-2.4,3c-0.5,0.2-1.1,0.2-1.6,0.3c-0.5,0-1,0-1.5,0c-2-0.1-3.8-0.6-5.6-1.2l0.9-0.4c-0.3,0.5-0.7,0.9-1.1,1.2
			c-0.4,0.3-0.9,0.5-1.3,0.7s-0.9,0.3-1.3,0.4C115.75,114.617,115.35,114.717,114.85,114.717z"/>
	</g>
	<g>
		<g>
			<path fill="#EDDF5E" d="M144.15,192.317c0.9,2.4,1.6,4.8,2.2,7.2c-10.4,7.2-30.5,16.9-54.4,25.6c-23.9,8.8-45.5,14.4-58,15.6
				c-1.1-2.2-2.1-4.5-3-6.9c0-0.1-0.1-0.2-0.1-0.3c-0.4-1.1-0.7-2.1-1-3.2c-0.7-2.5-1.3-5-1.7-7.5c0-0.1,0-0.2,0-0.3
				c-0.6-3.7-0.8-7.4-0.7-11.1c0.2-7,1.6-13.8,4.1-20.3c6.1-15.6,18.5-28.6,35.4-34.8c16.8-6.2,34.5-4.4,49.2,3.4
				c6,3.2,11.5,7.4,16.2,12.5c2.5,2.7,4.8,5.7,6.7,8.9c0.2,0.3,0.3,0.5,0.5,0.8c1.3,2.2,2.5,4.5,3.5,6.8c0.4,0.9,0.8,1.8,1.1,2.7
				C143.95,191.817,144.05,192.117,144.15,192.317z"/>
		</g>
		<g>
			<path fill="#EDDF5E" d="M147.05,222.917c-0.4,2.4-1,4.8-1.7,7.2c-1,3.3-2.2,6.5-3.8,9.6c-6.6,13.4-18.2,24.4-33.3,30
				c-15.2,5.6-31.2,4.7-44.9-1.3c-3-1.3-5.9-2.9-8.7-4.7c-2.2-1.4-4.3-2.9-6.2-4.6c15-2.6,32.5-7.4,50.8-14.1
				C117.45,238.417,133.85,230.617,147.05,222.917z"/>
		</g>
		<g>
			<path fill="#1F1F23" d="M87.55,274.717c-14.4,0-28.6-5-39.9-14.6l-2.1-1.8l2.7-0.5c15.5-2.7,33-7.6,50.5-14
				c17.6-6.5,34-14.1,47.6-22l2.3-1.4l-0.4,2.7c-3.6,21.9-18.8,40.2-39.6,47.8C101.85,273.517,94.65,274.717,87.55,274.717z
				 M51.45,259.917c16,12.3,37.4,15.7,56.4,8.7c19.1-7,33.2-23.4,37.4-43.1c-13.2,7.5-28.9,14.7-45.6,20.8
				C82.95,252.417,66.35,257.117,51.45,259.917z"/>
		</g>
		<g>
			<path fill="#EDDF5E" d="M179.25,188.517c3,8.3-9.9,21.4-32.2,34.4c-13.2,7.7-29.6,15.4-47.8,22.1c-18.2,6.7-35.7,11.4-50.8,14.1
				c-25.4,4.5-43.7,2.9-46.8-5.4c-2.8-7.5,7.7-19,26.3-30.8c0.4,2.5,1,5,1.7,7.5c-5.2,3.6-7.8,6.6-7.1,8.5c0.7,1.9,4.8,2.5,11.3,1.9
				c12.6-1.2,34.2-6.9,58-15.6c23.9-8.8,44-18.4,54.4-25.6c5.4-3.7,8.1-6.8,7.4-8.7c-0.7-1.9-4.6-2.5-10.9-1.9
				c-1-2.4-2.2-4.7-3.5-6.8C161.05,179.017,176.45,181.017,179.25,188.517z"/>
		</g>
		<g>
			<path fill="#F18E1B" d="M28.95,227.717l-0.5-0.7c0.1-0.1,0.2-0.1,0.3-0.2L28.95,227.717z"/>
		</g>
		<g>
			<path fill="#1F1F23" d="M24.05,262.817c-13.2,0-21.4-3-23.5-8.7c-2.9-8,6.6-19.5,26.8-32.3l1.6-1l0.3,1.9c0.4,2.5,1,4.9,1.7,7.3
				l0.3,0.9l-0.8,0.5c-5.8,4.1-6.9,6.3-6.6,7s2.7,1.8,10,1c12.8-1.2,35-7.2,57.7-15.6c22.8-8.4,43.5-18.1,54.1-25.5
				c6-4.2,7.2-6.5,6.9-7.2s-2.6-1.7-9.6-1.1l-0.9,0.1l-0.4-0.8c-1-2.3-2.2-4.5-3.4-6.7l-1-1.6l1.9-0.3c23.7-3.3,38.4-0.7,41.3,7.3
				l0,0c3.2,8.8-8.7,21.9-32.7,35.9c-13.7,8-30.3,15.7-48,22.2s-35.3,11.4-51,14.1C39.25,262.017,30.95,262.817,24.05,262.817z
				 M27.05,225.017c-17.5,11.4-26.5,21.9-24.2,28.3c2.7,7.3,20.1,9,45.4,4.6c15.5-2.7,33-7.6,50.5-14c17.6-6.5,34-14.1,47.6-22
				c22.2-13,34.3-25.6,31.6-32.9l0,0c-2.3-6.4-16-8.6-36.7-5.9c0.8,1.5,1.6,3,2.3,4.5c6.8-0.5,10.4,0.4,11.3,2.8
				c0.9,2.6-1.5,5.8-7.9,10.2c-10.9,7.6-31.4,17.2-54.7,25.8s-45.1,14.4-58.4,15.7c-7.7,0.7-11.7-0.1-12.6-2.7
				c-0.9-2.4,1.3-5.5,6.8-9.5C27.75,228.317,27.35,226.617,27.05,225.017z"/>
		</g>
		<g opacity="0.41">
			<g>
				<path fill="#FFFFFF" d="M146.25,199.717c-1.2,0.8-2.5,1.7-4,2.6c-0.4-1.6-1-3.2-1.6-4.9c-0.1-0.3-0.2-0.5-0.3-0.7
					c-0.3-0.9-0.7-1.8-1.1-2.7c-1-2.4-2.2-4.7-3.5-6.8c-0.2-0.3-0.3-0.5-0.5-0.8c-2-3.2-4.3-6.2-6.8-8.9
					c-4.7-5.1-10.1-9.3-16.1-12.5c-14.6-7.8-32.4-9.6-49.2-3.4c-11.2,4.1-20.5,11.2-27.2,20c6.9-11.1,17.4-20.2,30.6-25
					c16.8-6.2,34.5-4.4,49.2,3.4c6,3.2,11.5,7.4,16.2,12.5c2.5,2.7,4.8,5.7,6.7,8.9c0.2,0.3,0.3,0.5,0.5,0.8
					c1.3,2.2,2.5,4.4,3.5,6.8c0.4,0.9,0.8,1.8,1.1,2.7c0.1,0.2,0.2,0.5,0.3,0.7C145.05,194.917,145.75,197.317,146.25,199.717z"/>
			</g>
		</g>
		<g>
			<path fill="#1F1F23" d="M33.15,242.117l-0.4-0.8c-1.2-2.3-2.2-4.6-3.1-7c-0.4-1.2-0.8-2.4-1.2-3.6c-0.8-2.5-1.3-5.1-1.8-7.6
				c-4.8-29.1,11.8-57.7,39.6-67.9c27.8-10.2,58.9,0.8,74.1,26.1c1.3,2.2,2.5,4.6,3.6,7c0.5,1.1,1,2.3,1.4,3.5l0,0
				c0.9,2.4,1.6,4.9,2.2,7.4l0.2,0.8l-0.7,0.5c-10.9,7.6-31.3,17.2-54.7,25.8c-23.3,8.6-45.1,14.4-58.4,15.7L33.15,242.117z
				 M87.45,154.017c-6.8,0-13.7,1.2-20.3,3.6c-26.6,9.8-42.6,37.1-37.9,65c0.4,2.5,1,4.9,1.7,7.3c0.3,1.1,0.7,2.3,1.1,3.4
				c0.7,2,1.6,4,2.6,6c12.9-1.4,34.6-7.3,56.9-15.5s42.6-17.7,53.4-25c-0.5-2.1-1.2-4.2-1.9-6.2c-0.4-1.1-0.9-2.3-1.4-3.4
				c-1-2.3-2.2-4.5-3.4-6.7C127.25,164.517,107.75,154.017,87.45,154.017z"/>
		</g>
		<g>
			<g opacity="0.3">
				<path fill="#181932" d="M72.05,231.917L72.05,231.917c-15.7,4.9-29.2,8-38.2,8.9c-6.5,0.6-10.6,0.1-11.3-1.9
					c-0.7-1.9,1.9-4.9,7.1-8.5c-0.4-1.4-0.8-2.9-1.1-4.3l0,0c-16.8,11.1-26,21.8-23.4,28.9c0.8,2.1,2.5,3.7,5,5
					c-0.2-0.1-0.5-0.1-0.7-0.2c8.2,2.6,22,2.3,39-0.7c15-2.6,32.5-7.4,50.8-14.1c1.4-0.5,2.8-1,4.2-1.6
					C52.25,254.517,72.05,231.917,72.05,231.917z"/>
			</g>
		</g>
		<g opacity="0.3">
			<path fill="#361B45" d="M73.55,223.617c18.1-0.2,55.9-16.1,71.5-23.2c0.4-0.3,0.9-0.6,1.3-0.9c-0.4-1.7,0.9-0.3,0.3-2
				c-9.9,4.8-56,25.3-76.6,25.6c-0.9,0-1.8,0-2.7-0.1C69.35,223.417,71.45,223.617,73.55,223.617z"/>
		</g>
		<g>
			<g opacity="0.3">
				<path fill="#1F1F23" d="M146.65,197.517c-9.9,4.8-56,25.3-76.6,25.6c-10.8,0.1-21.6-5-23.9-15.6c0-0.2-0.1-0.4-0.1-0.5
					s0-0.2,0-0.3c-0.6-3.7-0.8-7.4-0.7-11.1c0.2-7,1.6-13.8,4.1-20.3c1.3-3.3,2.8-6.5,4.7-9.5c-8.7,6.8-15.3,15.7-19.2,25.8
					c-2.5,6.4-3.9,13.3-4.1,20.3c-0.1,3.7,0.1,7.4,0.7,11.1c0,0.1,0,0.2,0,0.3c0.4,2.5,1,5,1.7,7.5c0.3,1.1,0.7,2.1,1,3.2
					c0,0.1,0.1,0.2,0.1,0.3c0.8,2.1,1.7,4.1,2.6,6.1c-0.5,0.1-1,0.1-1.5,0.2c12.7-1.5,33.6-7.1,56.4-15.5
					c23.9-8.8,44-18.4,54.4-25.6C145.95,197.917,147.15,199.217,146.65,197.517z"/>
			</g>
		</g>
		<g>
			<g opacity="0.3">
				<path fill="#1F1F23" d="M54.25,259.817c2.8,1.8,5.7,3.4,8.7,4.7c13.7,6,29.7,6.9,44.9,1.3c15.1-5.6,26.7-16.6,33.3-30
					c1.5-3.1,2.8-6.3,3.8-9.6c0.3-1.1,0.6-2.1,0.9-3.2c-13,7.6-29.1,15.1-47,21.7c-16.8,6.2-32.9,10.7-47.1,13.4
					C52.55,258.617,53.35,259.217,54.25,259.817z"/>
			</g>
		</g>
	</g>
	<g>
		<path fill="#FFFFFF" d="M108.75,113.717c0,0,3.7,14.8-1.5,32.3c0,0,11,15.6-0.9,18.5c-16.2,3.9-22.3-7-22.3-18.7
			c0-4.5,2.1-34.5,1.3-48.9"/>
	</g>
	<g opacity="0.35">
		<path fill="#361B45" d="M111.65,159.317c-0.4,2.3-1.9,4.2-5.4,5.1c-16.2,3.9-22.4-7-22.4-18.7c0-4.5,2.1-34.5,1.3-48.9l23.5,16.9
			c0,0,0.7,2.8,1.1,7.3c-3.7,3.3-9.9,5-13.9,5.9c-2.1,0.4-3.5,2.2-3.6,4.4c-0.1,8.3-2.8,13.6-2.5,15.5c1.6,9.3,4.2,17,20.4,13.1
			C110.75,159.617,111.25,159.517,111.65,159.317z"/>
	</g>
	<g>
		<path fill="#1F1F23" d="M99.95,166.517c-4.1,0-7.5-1.1-10.3-3.3c-4.5-3.5-7-9.7-7-17.5c0-1.3,0.2-4.5,0.4-9
			c0.6-11.1,1.5-29.6,0.9-39.9c0-0.7,0.5-1.3,1.2-1.3s1.3,0.5,1.3,1.2c0.5,10.5-0.4,29.1-0.9,40.2c-0.2,4.3-0.4,7.6-0.4,8.8
			c0,6.9,2.1,12.4,6,15.5c3.6,2.8,8.6,3.5,14.8,2c2.2-0.5,3.6-1.6,4.2-3.1c1.5-4.1-2.4-11-4-13.3l-0.4-0.5l0.2-0.6
			c5.1-16.9,1.6-31.4,1.5-31.6c-0.2-0.7,0.2-1.4,0.9-1.5c0.7-0.2,1.4,0.2,1.5,0.9c0.2,0.6,3.7,15-1.4,32.4c1.4,2.1,6,9.8,4,15.2
			c-0.9,2.4-2.9,4-6,4.7C104.15,166.217,101.95,166.517,99.95,166.517z"/>
	</g>
	<g>
		<path fill="#1F1F23" d="M100.55,132.917c-9.2,0-16-3.6-16.3-3.8c-0.4-0.2-0.6-0.8-0.4-1.2c0.2-0.4,0.8-0.6,1.2-0.4
			c0.1,0.1,11.6,6.1,24.5,2.3c0.5-0.1,1,0.1,1.1,0.6s-0.1,1-0.6,1.1C106.75,132.617,103.55,132.917,100.55,132.917z"/>
	</g>
	<g>
		<path fill="#FFFFFF" d="M52.25,103.117c3.3,7.4,16.2,8.2,16.2,8.2l10.2-41.9l2.1-8.5c0,0-7.1-1.5-13-0.6c-2.8,0.4-5.4,1.5-6.8,3.5
			C56.15,70.817,49.55,97.117,52.25,103.117z"/>
	</g>
	<g opacity="0.35">
		<path fill="#361B45" d="M54.55,80.817c-2.4,9.2-3.8,18.9-2.3,22.3c3.3,7.4,16.2,8.2,16.2,8.2l12.2-50.3c0,0-0.1,0-0.4-0.1
			l-9.6,39.3c0,0-12.9-0.8-16.2-8.2C53.65,90.017,53.75,85.817,54.55,80.817z"/>
	</g>
	<g>
		<path fill="#1F1F23" d="M68.35,112.617L68.35,112.617c-0.6,0-13.8-1-17.3-9c-3-6.8,4-33.4,8.8-40.5c4.6-6.8,20.4-3.6,21.1-3.4
			c0.7,0.1,1.1,0.8,1,1.5s-0.8,1.1-1.5,1c-4.1-0.9-15.5-2.2-18.5,2.3c-4.6,6.8-11,32.7-8.6,38.1c2.9,6.6,15,7.4,15.1,7.4
			c0.7,0,1.2,0.7,1.2,1.4C69.65,112.117,69.05,112.617,68.35,112.617z"/>
	</g>
	<g>
		<path fill="#FFFFFF" d="M54.55,84.917l8.3,2.7c0.7,0.2,1.2,0.9,1.2,1.7c-0.2,2.8-0.9,9.4-4,10.9c-2.6,1.2-6.1,0.1-7.8-2.1
			c-1.9-2.5-0.6-8.8,0.2-11.9C52.55,85.117,53.55,84.617,54.55,84.917z"/>
	</g>
	<g opacity="0.35">
		<path fill="#361B45" d="M63.95,89.317c-0.2,2.8-0.9,9.4-4,10.8c-2.6,1.2-6.1,0.1-7.8-2.1c-1.1-1.6-1.1-4.5-0.7-7.3
			c0.1,1.4,0.4,2.7,1,3.6c3.3,5.2,7.6,1.1,7.6,1.1s0.3,1.3,0.7,1.5c1.8,0.7,2.8-5.1,3.2-8.2C63.95,88.917,63.95,89.117,63.95,89.317
			z"/>
	</g>
	<g>
		<path fill="#1F1F23" d="M57.55,101.917c-2.5,0-5-1.2-6.4-3.2c-2-2.8-1.1-8.6,0-13c0.2-0.8,0.7-1.5,1.4-1.9s1.6-0.5,2.4-0.2
			l8.3,2.7c1.3,0.4,2.1,1.7,2.1,3c-0.2,3.7-1.1,10.2-4.8,11.9C59.55,101.717,58.55,101.917,57.55,101.917z M53.95,86.117
			c-0.1,0-0.2,0-0.2,0.1c-0.1,0-0.2,0.1-0.2,0.3c-1.3,5.2-1.5,9.4-0.4,10.8c1.3,1.8,4.3,2.6,6.2,1.7c1.7-0.8,3-4.5,3.3-9.8
			c0-0.2-0.1-0.4-0.3-0.4l-8.3-2.7C54.05,86.117,54.05,86.117,53.95,86.117z"/>
	</g>
	<g>
		<path fill="#1F1F23" d="M60.85,90.317c-0.2,1-0.3,2.1-0.5,3.1s-0.4,2.1-0.8,3.1c-0.4,1-1,2.1-1.9,2.9s-2.2,1.3-3.4,1.4l0,0
			c-0.6,0.1-1.1-0.4-1.2-1c-0.1-0.6,0.4-1.1,1-1.2c0.1,0,0.1,0,0.2,0c0.9,0.1,1.7-0.1,2.5-0.6s1.4-1.2,1.9-2
			c0.5-0.9,0.9-1.8,1.3-2.8C60.15,92.317,60.45,91.317,60.85,90.317z"/>
	</g>
	<g>
		<path fill="#361B45" d="M64.95,63.517c0.8,0.2,1.6,0.4,2.4,0.6s1.6,0.4,2.4,0.7c1.6,0.5,3.2,1.1,4.7,1.8c0.6,0.3,0.9,1,0.7,1.7
			c-0.3,0.6-1,0.9-1.7,0.7c-0.1,0-0.1-0.1-0.2-0.1l0,0c-1.3-0.8-2.8-1.6-4.2-2.3c-0.7-0.3-1.5-0.7-2.2-1s-1.5-0.6-2.3-0.9l0,0
			c-0.3-0.1-0.4-0.4-0.3-0.7C64.45,63.617,64.75,63.517,64.95,63.517z"/>
	</g>
	<g opacity="0.35">
		<path fill="#361B45" d="M90.45,111.417c0.1,0.5,0.2,1,0.3,1.5C90.65,112.417,90.55,111.917,90.45,111.417z"/>
	</g>
	<g opacity="0.35">
		<path fill="#361B45" d="M63.65,95.917c0-1.9,0.1-4,0.4-6.2C63.65,92.017,63.55,94.017,63.65,95.917z"/>
	</g>
	<g>
		<path fill="#FFFFFF" d="M98.65,122.417c-3.8,1-11.9,1.5-21.5-2.3c-5.7-2.3-10.9-6.8-12.1-13c-3.7-19.3,5.9-27,14.1-41.9
			c1.8-3.3,3.5-6.9,5.1-11.1l31.6,6.1c0.9,4.7,1.6,9.2,2.1,13.4C120.85,99.817,115.75,117.717,98.65,122.417z"/>
	</g>
	<g opacity="0.35">
		<path fill="#361B45" d="M87.75,54.817c-1.5,3.9-4.5,6.2-6.2,9.3c-5.5,10.1-10.7,17.2-12.6,27.3l-3.4-1.8c2.6-8.4,8.3-15,13.5-24.5
			c1.8-3.3,3.5-6.9,5.1-11.1L87.75,54.817z"/>
	</g>
	<g opacity="0.35">
		<path fill="#361B45" d="M114.15,109.917c-3.2,6.3-8.3,10.6-15.5,12.5c-3.8,1-11.9,1.5-21.5-2.3c-5.7-2.3-10.9-6.8-12.1-13
			c-1.1-6-1-10.9,0-15.3c-0.1,2.9,0.1,6,0.8,9.6c1.2,6.2,6.3,10.8,12.1,13c9.6,3.8,17.7,3,21.5,2.3
			C107.25,115.217,110.75,112.517,114.15,109.917z"/>
	</g>
	<g>
		<path fill="#1F1F23" d="M92.05,124.417c-3.9,0-9.3-0.7-15.4-3.1c-6.9-2.7-11.7-8-12.9-14c-2.9-15.5,2.4-23.9,8.7-33.6
			c3.5-5.5,7.4-11.7,10.5-20.1c0.2-0.7,1-1,1.6-0.8c0.7,0.2,1,1,0.8,1.6c-3.1,8.6-7.2,14.9-10.8,20.5c-6.2,9.7-11.1,17.3-8.3,31.8
			c1,5.2,5.2,9.7,11.3,12.1c8.7,3.4,16.6,3.3,20.7,2.2c9.2-2.5,15-8.9,17.5-19.6c2.4-10,2-23.8-1.3-41.1c-0.1-0.7,0.3-1.4,1-1.5
			s1.4,0.3,1.5,1c3.4,17.6,3.8,31.8,1.3,42.1c-2.8,11.6-9.3,18.8-19.4,21.5C98.15,123.817,95.65,124.417,92.05,124.417z"/>
	</g>
	<g>
		<path fill="#FFFFFF" d="M87.65,116.317c0,0,3.7,14.8-1.5,32.3c0,0,11,15.6-0.9,18.5c-16.2,3.9-22.3-7-22.3-18.7
			c0-4.5,2.1-34.5,1.3-48.9L87.65,116.317z"/>
	</g>
	<g opacity="0.35">
		<path fill="#361B45" d="M90.65,161.417c-0.3,2.5-1.8,4.7-5.5,5.6c-16.2,3.9-22.4-7-22.4-18.7c0-4.5,2.1-34.5,1.3-48.9v-4.5
			l26.1,2.9c1.1,8.3-14.6,2-19,8.6c-4.8,7.2-4.2,34.2-4.2,36.6c0,11.7,6.1,22.6,22.3,18.7
			C89.95,161.717,90.35,161.617,90.65,161.417z"/>
	</g>
	<g>
		<path fill="#1F1F23" d="M78.85,169.117c-4.1,0-7.5-1.1-10.3-3.3c-4.5-3.5-7-9.7-7-17.5c0-1.3,0.2-4.5,0.4-9
			c0.6-11.1,1.5-29.6,0.9-39.9c0-0.7,0.5-1.3,1.2-1.3s1.3,0.5,1.3,1.2c0.5,10.5-0.4,29.1-0.9,40.2c-0.2,4.3-0.4,7.6-0.4,8.8
			c0,6.9,2.1,12.4,6,15.5c3.6,2.8,8.6,3.5,14.8,2c2.2-0.5,3.6-1.6,4.2-3.1c1.5-4.1-2.4-11-4-13.3l-0.4-0.5l0.2-0.6
			c3-9.9,3-18.9,2.5-24.7c-0.1-0.7,0.5-1.3,1.2-1.4s1.3,0.5,1.4,1.2c0.5,5.9,0.5,15-2.5,25.1c1.4,2.1,6,9.8,4,15.2
			c-0.9,2.4-2.9,4-6,4.7C83.15,168.817,80.95,169.117,78.85,169.117z"/>
	</g>
	<g>
		<path fill="#1F1F23" d="M87.65,116.317c0.5,1,0.9,2,1.2,3c0.4,1,0.7,2,1,3.1l0,0c0.2,0.7-0.2,1.5-0.9,1.7
			c-0.7,0.2-1.5-0.2-1.7-0.9c-0.1-0.2-0.1-0.4-0.1-0.6c0.1-1,0.2-2.1,0.3-3.1C87.65,118.417,87.65,117.417,87.65,116.317z"/>
	</g>
	<g>
		<path fill="#1F1F23" d="M79.55,135.617c-9.2,0-16-3.6-16.3-3.8c-0.4-0.2-0.6-0.8-0.4-1.2c0.2-0.4,0.8-0.6,1.2-0.4
			c0.1,0.1,11.6,6.1,24.5,2.3c0.5-0.1,1,0.1,1.1,0.6s-0.1,1-0.6,1.1C85.75,135.217,82.55,135.617,79.55,135.617z"/>
	</g>
	<g>
		<g opacity="0.35">
			<path fill="#361B45" d="M117.85,73.617c-0.7,0.5-1.4,0.9-2.1,1.3c-1.2,0.7-2.5,1.2-3.7,1.7c-1.5,0.5-3.1,0.9-4.7,1.2
				c-0.6,0.1-1.2,0.2-1.7,0.2c-9.6,0.8-19.5-3.7-26.5-12.8c1.8-3.3,3.5-6.9,5.1-11.1l31.6,6.1
				C116.65,64.917,117.35,69.417,117.85,73.617z"/>
		</g>
		<g>
			<path fill="#FFFFFF" d="M138.95,47.217c-1.7,5.7-4.9,11-9.4,15.4c-0.9,0.9-1.9,1.7-2.9,2.5c-0.5,0.4-1,0.8-1.5,1.1
				c-1.6,1.1-3.3,2.1-5,2.9c-1.5,0.7-3,1.3-4.5,1.8c-1.8,0.6-3.7,1.1-5.6,1.4c-0.7,0.1-1.4,0.2-2.1,0.3c-12.6,1.3-25.5-4-33.3-14.9
				c-11.5-16.1-7.6-38.3,8.7-49.6c3.1-2.2,6.5-3.8,10-4.9c0.4-0.1,0.8-0.2,1.2-0.4c1.1-0.3,2.2-0.5,3.3-0.7c2.6-0.4,5.2-0.6,7.8-0.5
				c2.6,0.1,5.2,0.5,7.7,1.1c0.8,0.2,1.6,0.4,2.4,0.7c1.2,0.4,2.3,0.8,3.5,1.3c5.6,2.5,10.7,6.5,14.5,11.9
				C140.45,25.917,141.95,37.217,138.95,47.217z"/>
			<path fill="#361B45" d="M104.25,72.917c-11.7,0-22.8-5.6-29.6-15.1c-5.6-7.8-7.7-17.2-6.1-26.6c1.6-9.5,6.9-17.7,14.8-23.2
				c3.1-2.2,6.5-3.8,10-4.9c0.4-0.1,0.8-0.2,1.2-0.4c1.2-0.3,2.3-0.5,3.4-0.7c2.6-0.4,5.2-0.6,7.8-0.5c2.6,0.1,5.2,0.5,7.7,1.1
				c0.8,0.2,1.6,0.4,2.4,0.7c1.2,0.4,2.4,0.9,3.5,1.3c5.8,2.6,10.9,6.7,14.6,11.9c6.4,9,8.3,20.2,5.2,30.7l0,0
				c-1.7,5.8-5,11.2-9.4,15.4c-0.9,0.9-1.9,1.8-2.9,2.5c-0.5,0.4-1,0.7-1.5,1.1c-1.6,1.1-3.3,2.1-5,2.9c-1.4,0.7-3,1.3-4.5,1.8
				c-1.8,0.6-3.7,1.1-5.6,1.4c-0.7,0.1-1.4,0.2-2.1,0.3C106.75,72.917,105.55,72.917,104.25,72.917z M104.25,1.717
				c-2.1,0-4.2,0.2-6.2,0.5c-1.1,0.2-2.3,0.5-3.3,0.8c-0.4,0.1-0.8,0.2-1.2,0.4c-3.5,1.1-6.9,2.7-10,4.9
				c-7.9,5.5-13.1,13.7-14.7,23.1c-1.6,9.3,0.6,18.7,6.1,26.4c7.5,10.5,20.2,16.2,33.2,14.8c0.7-0.1,1.4-0.2,2.1-0.3
				c1.9-0.3,3.8-0.8,5.6-1.4c1.5-0.5,3-1.1,4.5-1.8c1.7-0.8,3.4-1.8,4.9-2.9c0.6-0.4,1.1-0.8,1.5-1.1c1-0.8,2-1.6,2.9-2.5
				c4.4-4.2,7.6-9.5,9.3-15.3h0.1h-0.1c3.1-10.5,1.3-21.6-5.1-30.5c-3.7-5.1-8.7-9.2-14.5-11.8c-1.1-0.5-2.3-0.9-3.4-1.3
				c-0.8-0.3-1.6-0.5-2.4-0.7c-2.5-0.6-5.1-1-7.6-1.1C105.25,1.717,104.75,1.717,104.25,1.717z"/>
		</g>
		<g opacity="0.35">
			<path fill="#361B45" d="M74.75,57.717c7.8,10.9,20.7,16.2,33.3,14.9c0.7-0.1,1.4-0.2,2.1-0.3c1.9-0.3,3.7-0.8,5.6-1.4
				c1.5-0.5,3-1.1,4.5-1.8c1.7-0.8,3.4-1.8,5-2.9c0.5-0.4,1-0.8,1.5-1.1c1-0.8,2-1.6,2.9-2.5c4.5-4.3,7.7-9.7,9.4-15.4
				c0.9-3.1,1.4-6.4,1.5-9.7c-1.7,5.4-4.8,10.4-9.1,14.6c-0.9,0.9-1.9,1.7-2.9,2.5c-0.5,0.4-1,0.8-1.5,1.1c-1.6,1.1-3.3,2.1-5,2.9
				c-1.5,0.7-3,1.3-4.5,1.8c-1.8,0.6-3.7,1.1-5.6,1.4c-0.7,0.1-1.4,0.2-2.1,0.3c-12.6,1.3-25.5-4-33.3-14.9
				c-4.6-6.4-6.7-13.7-6.6-20.9C66.55,36.617,67.95,48.317,74.75,57.717z"/>
		</g>
		<g>
			<path fill="#361B45" d="M104.25,73.817c-12,0-23.4-5.7-30.3-15.5c-5.7-8-7.9-17.6-6.3-27.2c1.7-9.7,7.1-18.1,15.2-23.8
				c3.2-2.2,6.6-3.9,10.3-5c0.4-0.1,0.8-0.3,1.3-0.4c1.1-0.3,2.3-0.6,3.4-0.8c2.6-0.5,5.3-0.6,8-0.5c2.6,0.1,5.3,0.5,7.9,1.2
				c0.8,0.2,1.6,0.5,2.4,0.7c1.2,0.4,2.4,0.9,3.6,1.4c6,2.7,11.1,6.9,14.9,12.2c6.6,9.2,8.5,20.6,5.3,31.4l0,0
				c-1.8,6-5.1,11.5-9.6,15.8c-1,0.9-2,1.8-3,2.6c-0.5,0.4-1,0.8-1.6,1.2c-1.6,1.1-3.3,2.1-5.1,3c-1.5,0.7-3,1.3-4.6,1.9
				c-1.9,0.6-3.8,1.1-5.7,1.4c-0.7,0.1-1.4,0.2-2.1,0.3C106.85,73.717,105.55,73.817,104.25,73.817z M104.25,2.617
				c-2,0-4.1,0.2-6.1,0.5c-1.1,0.2-2.2,0.4-3.2,0.7c-0.4,0.1-0.8,0.2-1.2,0.3c-3.5,1.1-6.7,2.7-9.7,4.8
				c-7.7,5.4-12.8,13.4-14.4,22.5s0.5,18.2,5.9,25.7c7.3,10.2,19.7,15.8,32.4,14.5c0.7-0.1,1.3-0.2,2-0.3c1.8-0.3,3.7-0.7,5.4-1.3
				c1.5-0.5,3-1.1,4.4-1.8c1.7-0.8,3.3-1.8,4.8-2.8c0.6-0.4,1.1-0.8,1.5-1.1c1-0.8,1.9-1.6,2.8-2.5c4.3-4.1,7.4-9.3,9.1-14.9
				c3-10.2,1.2-21.1-5-29.7c-3.6-5-8.5-9-14.1-11.5c-1.1-0.5-2.2-0.9-3.4-1.3c-0.7-0.2-1.5-0.5-2.3-0.7c-2.4-0.6-4.9-1-7.5-1.1
				C105.25,2.617,104.75,2.617,104.25,2.617z M138.95,47.217L138.95,47.217L138.95,47.217z"/>
		</g>
		<g>
			<path fill="#1F1F23" d="M104.25,74.117c-12.1,0-23.5-5.8-30.6-15.6c-5.7-8-8-17.8-6.3-27.4c1.7-9.8,7.1-18.3,15.3-24
				c3.3-2.3,6.7-4,10.4-5.1c0.4-0.1,0.8-0.3,1.3-0.4c1.1-0.3,2.3-0.6,3.4-0.8c2.6-0.5,5.4-0.6,8.1-0.5s5.3,0.5,7.9,1.2
				c0.8,0.2,1.7,0.5,2.4,0.7c1.2,0.4,2.4,0.9,3.6,1.4c6,2.7,11.2,6.9,15,12.3c6.6,9.3,8.6,20.8,5.3,31.7l0,0
				c-1.8,6-5.2,11.5-9.7,15.9c-1,0.9-2,1.8-3,2.6c-0.5,0.4-1,0.8-1.6,1.2c-1.6,1.1-3.4,2.1-5.1,3c-1.5,0.7-3,1.4-4.6,1.9
				c-1.9,0.6-3.8,1.1-5.8,1.4c-0.7,0.1-1.4,0.2-2.1,0.3C106.85,74.017,105.55,74.117,104.25,74.117z M104.25,2.917
				c-2,0-4.1,0.2-6,0.5c-1.1,0.2-2.2,0.4-3.2,0.7c-0.4,0.1-0.8,0.2-1.2,0.3c-3.4,1.1-6.7,2.6-9.7,4.7c-7.6,5.4-12.7,13.3-14.2,22.4
				c-1.6,9,0.5,18.1,5.9,25.5c7.3,10.1,19.6,15.6,32.1,14.3c0.7-0.1,1.3-0.2,2-0.3c1.8-0.3,3.6-0.7,5.4-1.3c1.5-0.5,2.9-1.1,4.3-1.8
				c1.7-0.8,3.3-1.7,4.8-2.8c0.6-0.4,1-0.7,1.5-1.1c1-0.8,1.9-1.6,2.8-2.4c4.2-4.1,7.4-9.2,9-14.8c3-10.1,1.2-20.9-5-29.5
				c-3.6-5-8.4-8.9-14-11.4c-1.1-0.5-2.2-0.9-3.3-1.3c-0.7-0.2-1.5-0.5-2.3-0.7c-2.4-0.6-4.9-1-7.4-1.1
				C105.25,2.917,104.75,2.917,104.25,2.917z M138.95,47.217L138.95,47.217L138.95,47.217z"/>
		</g>
		<g>
			<path fill="#1F1F23" d="M135.25,55.617c-17.6,18.6-48,14.4-54.8-9.9c-4.7-16.5,8.2-33.7,24.5-37.1c12-2.5,24.7,0.2,33.7,17.4
				c0,0,2.8,8.2,1.7,14.3s-3.2,11.8-3.2,11.8L135.25,55.617z"/>
		</g>
		<g>
			<path fill="#1F1F23" d="M80.45,45.717c6.8,24.3,37.2,28.5,54.8,9.9l0.4-0.7c-21.9,8.8-47.5,0.2-54.9-24.2
				C79.25,35.517,78.95,40.617,80.45,45.717z"/>
		</g>
		<g>
			<path fill="#1F1F23" d="M108.95,71.917c-6.1,0-12.1-1.4-17.2-4.3c-7.9-4.3-13.5-11.5-16-20.6c-2.4-8.4-1-17.5,3.9-25.6
				c5.4-9,14.6-15.5,24.5-17.6c5.5-1.1,10.7-1.2,15.3-0.2h0.1h0.1c6,2.7,11.2,6.9,15,12.2c6.6,9.2,8.5,20.7,5.3,31.5l0,0
				c-1.8,6-5.1,11.5-9.7,15.9c-1,0.9-2,1.8-3,2.6c-0.5,0.4-1,0.8-1.6,1.2c-1.6,1.1-3.3,2.1-5.1,3l-0.2,0.1
				C116.65,71.417,112.85,71.917,108.95,71.917z M112.55,5.217c-2.5,0-5.2,0.3-7.9,0.9c-9.4,1.9-18,8.1-23.1,16.5
				c-4.6,7.5-5.9,16-3.7,23.8c2.4,8.6,7.6,15.2,15,19.3c7.9,4.3,17.7,5.2,27,2.4c1.6-0.8,3.2-1.7,4.7-2.8c0.6-0.4,1-0.8,1.5-1.1
				c1-0.8,1.9-1.6,2.8-2.5c4.3-4.1,7.4-9.3,9.1-14.9l0,0c3-10.2,1.2-21-5-29.6c-3.6-5-8.4-8.9-14-11.5
				C116.85,5.417,114.75,5.217,112.55,5.217z M138.95,47.217L138.95,47.217L138.95,47.217z"/>
		</g>
		<g>
			<path fill="#FFFFFF" d="M64.45,47.517c1.1,6.9,6.1,12.1,11.3,11.6s8.5-6.6,7.4-13.5v-0.1c-1.1-6.9-6.1-12-11.3-11.5
				c-4,0.4-6.9,4.1-7.5,9C64.15,44.417,64.15,45.917,64.45,47.517z"/>
		</g>
		<g opacity="0.35">
			<path fill="#361B45" d="M64.45,47.517c1.1,6.9,6.1,12.1,11.3,11.6s8.5-6.6,7.4-13.5v-0.1c-0.5,0.8-1.2,1.6-2.5,1.4
				c-2.2-0.2-6.6-4.3-6.6-4.3s-4.2,0.1-9.7,0.3C64.15,44.417,64.15,45.917,64.45,47.517z"/>
		</g>
		<g>
			<path fill="#1F1F23" d="M74.95,60.417c-5.5,0-10.7-5.5-11.8-12.7l0,0c-0.7-4.4,0.2-8.6,2.5-11.5c1.6-2.1,3.7-3.3,6.1-3.5
				c5.8-0.6,11.5,5.1,12.7,12.7c0.7,4.4-0.2,8.6-2.5,11.5c-1.6,2.1-3.7,3.3-6.1,3.5C75.55,60.417,75.25,60.417,74.95,60.417z
				 M65.65,47.317c1,6.3,5.4,11,9.9,10.5c1.7-0.2,3.2-1,4.3-2.5c1.8-2.3,2.6-5.9,2-9.5c-1-6.3-5.4-11-9.9-10.5
				c-1.7,0.2-3.2,1-4.3,2.5C65.85,40.117,65.15,43.717,65.65,47.317L65.65,47.317z"/>
		</g>
		<g>
			<path fill="#FFFFFF" d="M64.55,52.717c2.5,4.9,7.4,6.8,10.9,4.2s4.4-8.6,1.9-13.5s-7.4-6.8-10.9-4.2S62.05,47.817,64.55,52.717z"
				/>
			<path fill="#361B45" d="M72.05,58.217c-0.5,0-1-0.1-1.5-0.2c-2.4-0.6-4.6-2.5-6-5.3c-2.5-4.9-1.7-11.1,1.9-13.6
				c1.5-1.1,3.2-1.4,5-1c2.4,0.6,4.6,2.5,6,5.3c2.5,4.9,1.7,11.1-1.9,13.6C74.45,57.817,73.25,58.217,72.05,58.217z M69.85,38.217
				c-1.2,0-2.4,0.4-3.4,1.1c-3.5,2.5-4.3,8.5-1.8,13.3c1.4,2.7,3.5,4.5,5.9,5.1c1.7,0.4,3.4,0.1,4.8-0.9c3.5-2.5,4.3-8.5,1.8-13.3
				c-1.4-2.7-3.5-4.5-5.9-5.1C70.85,38.317,70.35,38.217,69.85,38.217z"/>
		</g>
		<g opacity="0.35">
			<path fill="#361B45" d="M78.75,51.217c0.2-1.9-0.2-3.9-0.9-5.7c-0.8,4.3-4.3,6.5-8.2,5c-2.5-1-4.6-3.3-5.7-6.1
				c-0.1,0.3-0.1,0.6-0.1,0.8c-0.5,4.9,2.5,10.1,6.6,11.7C74.55,58.717,78.25,56.117,78.75,51.217z"/>
		</g>
		<g>
			<path fill="#1F1F23" d="M71.95,59.217c-4.3,0-8.3-4.5-9.3-10.5l0,0c-0.6-3.7,0.2-7.3,2-9.6c1.2-1.5,2.7-2.4,4.5-2.6
				c4.5-0.4,8.9,4.2,9.9,10.5c0.6,3.7-0.2,7.3-2,9.6c-1.2,1.5-2.7,2.4-4.5,2.6C72.35,59.217,72.15,59.217,71.95,59.217z
				 M69.75,38.617c-0.1,0-0.2,0-0.4,0c-1.1,0.1-2.1,0.7-3,1.7c-1.4,1.9-2,4.8-1.5,7.9l0,0c0.8,5,4.2,9,7.5,8.7
				c1.1-0.1,2.1-0.7,3-1.7c1.4-1.9,2-4.8,1.5-7.9C76.05,42.517,72.85,38.617,69.75,38.617z"/>
		</g>
		<g opacity="0.5">
			<path fill="#FFFFFF" d="M98.75,17.617c0,0,15.5-2.2,25.7,4.7l0,0c2.2,1.5,3.9,3.5,5,5.8c1.5,3.1,2,5.4,2.4,7.5
				c1.2,6.3,0.6,9.5,0.6,9.5c3-4,4.3-8.2,3.3-13.5c-0.1-0.5-0.2-1.1-0.4-1.6c0-0.1-0.1-0.2-0.1-0.4l0,0c-0.4-1.1-0.9-2.5-1.6-4
				c-2.2-4.6-6.2-10.4-13-12.2C108.05,10.217,98.05,17.117,98.75,17.617z"/>
		</g>
		<g opacity="0.5">
			<path fill="#FFFFFF" d="M93.95,35.417c-0.2,3.1-2.6,5.4-5.2,5.2c-2.7-0.2-4.6-2.8-4.4-5.9s2.6-5.4,5.2-5.2
				C92.15,29.717,94.15,32.317,93.95,35.417z"/>
		</g>
		<g opacity="0.5">
			<path fill="#FFFFFF" d="M90.35,45.417c-0.2,1.2-1.2,2.1-2.3,2c-1.1-0.2-1.8-1.3-1.6-2.6c0.2-1.2,1.2-2.1,2.3-2
				C89.85,43.017,90.55,44.117,90.35,45.417z"/>
		</g>
	</g>
	<g>
		
			<ellipse transform="matrix(-0.9959 -0.0906 0.0906 -0.9959 226.4264 200.1231)" fill="#FFFFFF" cx="117.755" cy="94.923" rx="4.1" ry="4.5"/>
	</g>
	<g opacity="0.35">
		<path fill="#361B45" d="M121.75,95.317c-0.2,2.5-2.2,4.4-4.5,4.2c-2.2-0.2-3.9-2.4-3.7-4.9c0.1-0.7,0.3-1.3,0.6-1.9
			c0.5,1.6,1.8,2.8,3.4,2.9s3.1-0.8,3.9-2.3C121.75,93.917,121.85,94.617,121.75,95.317z"/>
	</g>
	<g>
		<path fill="#1F1F23" d="M117.65,100.517c-0.1,0-0.3,0-0.4,0c-2.8-0.3-4.9-3-4.6-6.1s2.8-5.4,5.7-5.1c2.8,0.3,4.9,3,4.6,6.1l0,0
			C122.65,98.317,120.35,100.517,117.65,100.517z M117.85,91.517c-1.5,0-2.9,1.4-3,3.2c-0.2,1.9,1,3.5,2.7,3.7
			c1.6,0.1,3.1-1.3,3.3-3.2l0,0c0.2-1.9-1-3.5-2.7-3.7C117.95,91.517,117.85,91.517,117.85,91.517z M121.75,95.317L121.75,95.317
			L121.75,95.317z"/>
	</g>
	<g>
		<path fill="#FFFFFF" d="M113.65,106.517l-21.6-0.7c-2.6-0.1-4.6-2.2-4.5-4.8l0.4-11.5c0.1-2.2,1.7-4.1,3.9-4.4
			c0.3-0.1,0.6-0.1,0.9-0.1l21.6,0.7c2.6,0.1,4.6,2.2,4.5,4.8l-0.3,9.1l-0.1,2.4C118.45,104.517,116.25,106.617,113.65,106.517z"/>
	</g>
	<g opacity="0.35">
		<path fill="#181932" d="M113.65,106.517l-21.6-0.7c-2.6-0.1-4.6-2.2-4.5-4.8l0.4-11.5c0.1-2.2,1.7-4.1,3.9-4.4
			c1.2,0.9,2,1.4,2,1.4c0.8,9.2,0.1,16.1,14.5,15.6c4.9-0.2,8.3-1.5,10.3-2.5l-0.1,2.4
			C118.45,104.517,116.25,106.617,113.65,106.517z"/>
	</g>
	<g>
		<path fill="#1F1F23" d="M113.85,107.617c-0.1,0-0.1,0-0.2,0l-21.6-0.7c-1.5,0-3-0.7-4-1.8c-1.1-1.1-1.6-2.6-1.6-4.1l0.4-11.5
			c0.1-3.2,2.7-5.7,5.9-5.6l21.6,0.7c1.5,0,3,0.7,4,1.8c1.1,1.1,1.6,2.6,1.6,4.1l-0.4,11.5
			C119.45,105.117,116.95,107.617,113.85,107.617z M92.65,86.117c-1.9,0-3.5,1.5-3.5,3.4l-0.4,11.5c0,0.9,0.3,1.8,1,2.5
			s1.5,1.1,2.5,1.1l0,0l21.6,0.7c2,0.1,3.6-1.5,3.7-3.4l0.4-11.5c0-0.9-0.3-1.8-1-2.5s-1.5-1.1-2.5-1.1l-21.6-0.7
			C92.65,86.117,92.65,86.117,92.65,86.117z"/>
	</g>
	<g>
		<path fill="#FFFFFF" d="M114.55,106.417c-0.3,0-0.6,0.1-0.9,0.1l-21.6-0.7c-1.9-0.1-3.5-1.2-4.1-2.9c-0.2-0.6-0.4-1.2-0.4-1.9
			l0.2-5.1l0.1-1.7l0.1-4.7c0.1-2.6,2.2-4.6,4.8-4.5l4.7,0.1c-2.2,0.3-3.9,2.2-3.9,4.4l-0.2,6.2l-0.2,5.3c-0.1,2.6,1.9,4.7,4.5,4.8
			L114.55,106.417z"/>
	</g>
	<g opacity="0.35">
		<path fill="#361B45" d="M114.55,106.417c-0.3,0-0.6,0.1-0.9,0.1l-21.6-0.7c-2.6-0.1-4.6-2.2-4.5-4.8l0.2-6.8
			c0.5,1.2,1.4,2.7,3,2.9c0.9,0.1,1.7-0.5,2.5-1.3l-0.2,5.3c-0.1,2.6,1.9,4.7,4.5,4.8L114.55,106.417z"/>
	</g>
	<g>
		<path fill="#1F1F23" d="M113.85,107.617c-0.1,0-0.1,0-0.2,0l-21.6-0.7c-1.5,0-2.9-0.7-4-1.8c-1.1-1.1-1.6-2.6-1.6-4.1l0.4-11.5
			c0-1.5,0.7-3,1.8-4c1.1-1.1,2.6-1.6,4.1-1.6l4.7,0.1l0.1,2.2c-1.7,0.3-2.9,1.7-3,3.4l-0.4,11.5c0,0.9,0.3,1.8,1,2.5
			s1.5,1.1,2.5,1.1l16.9,0.5l0.1,2.2C114.45,107.617,114.15,107.617,113.85,107.617z M92.65,86.117c-0.9,0-1.8,0.3-2.4,1
			c-0.7,0.7-1.1,1.5-1.1,2.5l-0.4,11.5c0,0.9,0.3,1.8,1,2.5s1.5,1.1,2.5,1.1h1.1c-0.8-1.1-1.2-2.3-1.2-3.7l0.4-11.5
			c0-1.3,0.5-2.5,1.3-3.4h-0.9C92.65,86.117,92.65,86.117,92.65,86.117z M87.65,101.017L87.65,101.017L87.65,101.017z"/>
	</g>
	<g>
		<g>
			<path fill="#3DA2DB" d="M102.75,95.717c0,0.4-0.7,3.8-0.7,3.8s-1.1,0-2.4-0.1c-1.7-0.1-3-1.8-2.9-4c0.1-2.1,1.5-3.8,3.2-3.7
				c1.1,0,2.4,0.1,2.4,0.1S102.75,95.017,102.75,95.717z"/>
		</g>
		<g>
			<g opacity="0.35">
				<path fill="#90C154" d="M102.75,95.717c0,0.4-0.7,3.8-0.7,3.8s-1.1,0-2.4-0.1c-1.7-0.1-3-1.8-2.9-4c0.1-2.1,1.5-3.8,3.2-3.7
					c1.1,0,2.4,0.1,2.4,0.1S102.75,95.017,102.75,95.717z"/>
			</g>
			<g>
				<path fill="#1F1F23" d="M101.95,100.217L101.95,100.217l-2.4-0.1c-2-0.1-3.6-2.2-3.5-4.6c0-1.2,0.4-2.3,1.1-3.1
					c0.7-0.9,1.7-1.3,2.7-1.3l2.4,0.1c0.3,0,0.6,0.2,0.6,0.6c0.1,0.3,0.5,3.3,0.5,4c0,0.4-0.6,3.1-0.8,3.9
					C102.55,100.017,102.25,100.217,101.95,100.217z M99.75,92.417c-0.6,0-1.1,0.3-1.6,0.8c-0.5,0.6-0.8,1.4-0.8,2.3
					c-0.1,1.8,0.9,3.2,2.2,3.3l1.9,0.1c0.3-1.5,0.6-2.9,0.6-3.2c0-0.4-0.2-2-0.4-3.2L99.75,92.417L99.75,92.417z M102.75,95.717
					L102.75,95.717L102.75,95.717z"/>
			</g>
			<g>
				
					<ellipse transform="matrix(-0.9993 -0.037 0.037 -0.9993 200.6812 195.151)" fill="#90C154" cx="102.146" cy="95.719" rx="3" ry="3.9"/>
			</g>
			<g opacity="0.35">
				<path fill="#181932" d="M99.05,95.617c-0.1,2.1,1.2,3.9,2.9,4c1.7,0.1,3.1-1.6,3.2-3.7c0-0.3,0-0.6,0-0.8
					c-0.5,1.4-1.6,2.4-2.9,2.4c-1.4-0.1-2.6-1.4-2.8-3.1C99.15,94.717,99.15,95.117,99.05,95.617z"/>
			</g>
			<g>
				<path fill="#FFFFFF" d="M99.05,95.617c0,0.1,0,0.3,0,0.4c0.4-1.7,1.6-2.8,3-2.8c1.6,0.1,2.8,1.6,2.9,3.5c0.1-0.3,0.1-0.6,0.1-1
					c0.1-2.1-1.2-3.9-2.9-4C100.55,91.817,99.15,93.517,99.05,95.617z"/>
			</g>
			<g>
				<path fill="#1F1F23" d="M102.05,100.217h-0.1c-2-0.1-3.6-2.2-3.5-4.6c0-1.2,0.4-2.3,1.1-3.1c0.7-0.9,1.7-1.3,2.7-1.3
					c2,0.1,3.6,2.2,3.5,4.6c0,1.2-0.4,2.3-1.1,3.1C103.95,99.817,103.05,100.217,102.05,100.217z M102.15,92.517
					c-0.6,0-1.1,0.3-1.6,0.8c-0.5,0.6-0.8,1.4-0.8,2.3c-0.1,1.8,0.9,3.2,2.2,3.3c0.6,0,1.2-0.3,1.6-0.8c0.5-0.6,0.8-1.4,0.8-2.3
					C104.55,94.017,103.55,92.617,102.15,92.517C102.25,92.517,102.15,92.517,102.15,92.517z"/>
			</g>
		</g>
	</g>
	<g>
		<path fill="#1F1F23" d="M106.95,107.117L106.95,107.117c-0.5,0-0.9-0.4-0.9-0.9l0.4-6.5c0.1-1.2,0.7-2.3,1.7-2.9l1.3-0.7
			c0.5-0.3,0.9-0.9,0.9-1.5l0.3-8.9c0-0.5,0.4-0.9,0.9-0.8c0.5,0,0.9,0.4,0.8,0.9l-0.3,8.9c0,1.2-0.7,2.3-1.8,2.9l-1.3,0.7
			c-0.5,0.3-0.8,0.8-0.9,1.4l-0.4,6.5C107.85,106.717,107.45,107.117,106.95,107.117z"/>
	</g>
	<g>
		<path fill="#FFFFFF" d="M66.05,85.717c0,0-2.3,1.5-2.4,4.3c-0.1,3.3,2,4.9,2,4.9s7,5.8,23.4,5c0,0,4.2-4.7-0.5-8.5
			C88.55,91.417,73.55,93.917,66.05,85.717z"/>
	</g>
	<g opacity="0.35">
		<path fill="#361B45" d="M63.75,90.017L63.75,90.017c-0.1,3.3,2,5,2,5s7,5.8,23.4,5c0,0,3.2-3.6,0.9-7c0,0,0,0,0,0.1
			c-0.3,2-2,3.5-3.8,3.5c-14.9,0.2-21.2-5-21.2-5S64.25,90.917,63.75,90.017z"/>
	</g>
	<g>
		<path fill="#1F1F23" d="M85.85,101.117c-14.4,0-20.7-5.1-20.9-5.3c-0.1-0.1-2.5-2-2.4-5.8c0-1.1,0.4-2.2,1-3.1
			c0.5-0.8,1.2-1.3,2.1-1.4s1.8,0.1,2.5,0.7l0,0c6.2,5.3,16.5,4.6,19.4,4.3c0.9-0.1,1.9,0.2,2.5,0.9c2.2,2.3,2.4,5.3,0.5,8.2
			c-0.5,0.9-1.5,1.4-2.5,1.4C87.35,101.117,86.65,101.117,85.85,101.117z M66.15,87.617h-0.1c-0.1,0-0.4,0.1-0.6,0.4
			c-0.4,0.6-0.6,1.3-0.6,2.1c-0.1,2.6,1.5,4,1.5,4c0.1,0.1,6.7,5.3,21.8,4.8c0.3,0,0.5-0.2,0.7-0.4c0.9-1.5,1.6-3.6-0.2-5.6
			c-0.2-0.2-0.5-0.3-0.7-0.3c-3.2,0.4-14.2,1.1-21.1-4.8l0,0C66.55,87.717,66.35,87.617,66.15,87.617z"/>
	</g>
	<g>
		<path fill="#FFFFFF" d="M96.65,33.617c0,0,1.9,5.5-4.4,9.2c-4.7,2.8-16.5,2.8-16.5,2.8s-0.1,0.2-0.3,0.5c-0.4,0.7-1.2,2.2-2.4,4.1
			c-1.3,2.1-2.2,3.4-2.2,3.4s1.3,3.7,5.1,7.9l0,0c1.7,1.8,3.8,3.6,6.5,5.3l-8.5,12.8l-4,6c-15.5-10-22.8-21.2-24.1-30
			c-0.3-2.3-0.3-4.5,0.2-6.5c1.2-5.4,15.3-21.6,24.9-22.6c1.9-0.2,6.9,0.1,11.9,0.7c6.2,0.7,9.7,0.2,11.9,0.5
			c1.3,0.2,1.9,0.4,2.5,1.4C98.45,31.317,96.65,33.617,96.65,33.617z"/>
	</g>
	<g opacity="0.35">
		<path fill="#361B45" d="M69.95,85.617L69.95,85.617c-15.5-10-22.8-21.2-24.1-30c2.1,4.2,6,10.4,12.7,15.5c3,2.3,6.1,4.1,9,5.6
			C70.95,78.417,72.05,82.517,69.95,85.617z"/>
	</g>
	<g opacity="0.35">
		<path fill="#361B45" d="M75.95,61.517c-6.9-4.1-9.7-15.8-9.4-17.4c0.3-1.5,2.3,0.5,8.9,2c-0.4,0.7-1.2,2.2-2.4,4.1
			c-1.3,2.1-2.2,3.4-2.2,3.4S72.05,57.317,75.95,61.517z"/>
	</g>
	<g>
		<path fill="#1F1F23" d="M69.75,85.917c-4.4-1.8-8.3-4.7-11.8-7.9c-0.4-0.4-0.9-0.8-1.3-1.2l-1.2-1.3c-0.4-0.4-0.8-0.9-1.2-1.3
			l-1.1-1.4c-1.6-1.8-2.9-3.8-4.2-5.9c-0.3-0.5-0.6-1.1-0.9-1.6c-0.3-0.5-0.6-1.1-0.8-1.6l-0.9-1.7c-0.2-0.6-0.4-1.1-0.6-1.7
			c-0.8-2.3-1.3-4.8-1.3-7.3c0-0.6,0-1.3,0.1-1.9c0-0.3,0.1-0.6,0.1-0.9l0.2-0.9l0.1-0.5l0.1-0.5c0.1-0.3,0.2-0.6,0.4-0.9
			c0.3-0.6,0.5-1.2,0.8-1.7c1.2-2.1,2.7-4.1,4.2-5.9c3.1-3.7,6.5-7,10.4-9.9c1.9-1.4,4-2.7,6.3-3.7c1.2-0.5,2.4-0.8,3.7-1
			c0.7-0.1,1.3-0.1,1.9-0.1s1.2,0,1.8,0.1c2.4,0.1,4.7,0.3,7.1,0.6c1.2,0.1,2.3,0.3,3.5,0.4c1.1,0.1,2.3,0.2,3.4,0.2s2.3,0,3.5,0
			c0.6,0,1.2,0,1.8,0c0.3,0,0.6,0,1,0.1c0.3,0,0.6,0.1,1,0.2c0.3,0.1,0.7,0.2,1.1,0.4c0.4,0.2,0.8,0.5,1.1,0.9
			c0.3,0.3,0.5,0.7,0.6,1c0.2,0.4,0.3,0.8,0.4,1.2c0.1,0.8,0,1.6-0.2,2.3c-0.1,0.4-0.2,0.7-0.4,1c-0.1,0.2-0.2,0.3-0.3,0.5
			c-0.1,0.2-0.2,0.3-0.3,0.5l0.2-1.2c0.1,0.2,0.1,0.4,0.1,0.6c0,0.2,0.1,0.3,0.1,0.5c0,0.3,0.1,0.7,0.1,1c0,0.7,0,1.4-0.2,2
			c-0.3,1.3-0.9,2.6-1.7,3.7c-0.8,1.1-1.8,1.9-2.9,2.6c-0.5,0.4-1.1,0.7-1.7,0.9s-1.2,0.5-1.8,0.6c-2.4,0.7-4.7,1.1-7.1,1.3
			c-2.4,0.3-4.7,0.4-7.1,0.4l1.1-0.7c-0.4,0.7-0.8,1.4-1.2,2.1c-0.4,0.7-0.8,1.4-1.2,2c-0.4,0.7-0.9,1.3-1.3,2l-1.3,2l0.2-1.1
			c0,0.1,0.1,0.3,0.2,0.4c0.1,0.2,0.1,0.3,0.2,0.5c0.1,0.3,0.3,0.6,0.5,0.9c0.3,0.6,0.7,1.2,1.1,1.8c0.8,1.2,1.7,2.3,2.7,3.3
			c1,1.1,1.9,2.1,3,3.1c0.2,0.3,0.5,0.5,0.8,0.8l0.8,0.8c0.5,0.5,1.1,1,1.6,1.6l0,0c0.2,0.2,0.1,0.5-0.1,0.6
			c-0.1,0.1-0.3,0.1-0.4,0.1c-0.7-0.2-1.5-0.5-2.2-0.9s-1.4-0.7-2-1.2c-0.3-0.2-0.6-0.5-0.9-0.7s-0.6-0.5-0.9-0.8
			c-0.1-0.1-0.3-0.3-0.4-0.4l-0.4-0.4c-0.3-0.3-0.6-0.5-0.8-0.8c-1.1-1.2-2-2.4-2.8-3.8c-0.4-0.7-0.8-1.3-1.2-2
			c-0.2-0.4-0.4-0.7-0.5-1.1c-0.1-0.2-0.2-0.4-0.2-0.6c-0.1-0.2-0.2-0.4-0.2-0.6l-0.2-0.6l0.4-0.6l1.3-1.9c0.4-0.6,0.9-1.3,1.3-1.9
			c0.4-0.7,0.8-1.3,1.2-2c0.4-0.7,0.8-1.3,1.1-2l0.4-0.7h0.8c2.3,0,4.6-0.2,6.8-0.4c2.3-0.2,4.5-0.6,6.6-1.2c0.5-0.1,1-0.3,1.5-0.5
			s0.9-0.4,1.3-0.7c0.9-0.6,1.7-1.2,2.3-2c0.6-0.8,1-1.7,1.2-2.6c0.1-0.5,0.1-1,0.1-1.4c0-0.2,0-0.5-0.1-0.7c0-0.1,0-0.2-0.1-0.3
			c0-0.1-0.1-0.2-0.1-0.3l-0.2-0.7l0.4-0.5c0,0,0.1-0.2,0.2-0.2c0.1-0.1,0.1-0.2,0.2-0.3c0.1-0.2,0.2-0.4,0.2-0.6
			c0.1-0.4,0.2-0.8,0.1-1.2c0-0.2-0.1-0.4-0.2-0.5l-0.1-0.2c-0.1-0.1-0.1-0.2-0.2-0.2c-0.1-0.1-0.2-0.2-0.3-0.2
			c-0.1-0.1-0.3-0.1-0.5-0.2c-0.2,0-0.5-0.1-0.7-0.1s-0.5-0.1-0.8-0.1c-0.5,0-1.1,0-1.7,0c-1.2,0-2.4,0-3.5,0
			c-1.2,0-2.4-0.1-3.6-0.2s-2.4-0.2-3.5-0.4c-2.3-0.2-4.6-0.5-6.9-0.6c-0.6,0-1.1,0-1.7,0s-1.1,0-1.6,0.1c-1,0.1-2,0.4-3.1,0.8
			c-2,0.8-4,2-5.8,3.4c-3.7,2.7-7,5.9-9.9,9.5c-1.5,1.8-2.8,3.6-3.9,5.5c-0.3,0.5-0.5,1-0.7,1.4c-0.1,0.2-0.2,0.5-0.3,0.7l-0.1,0.3
			l-0.1,0.4l-0.1,0.8c0,0.3-0.1,0.5-0.1,0.8c0,0.5-0.1,1.1-0.1,1.6c0,2.2,0.5,4.4,1.2,6.5c0.2,0.5,0.4,1.1,0.6,1.6l0.7,1.5
			c0.2,0.5,0.5,1,0.8,1.5s0.5,1,0.8,1.5c1.2,1.9,2.5,3.8,4,5.5l1.1,1.3c0.4,0.4,0.8,0.8,1.2,1.2l1.2,1.2l1.3,1.2
			c3.3,3.2,7,5.9,10.4,9.2l0,0c0.2,0.2,0.2,0.4,0,0.6C70.05,86.017,69.95,86.017,69.75,85.917z"/>
	</g>
	<g>
		<path fill="#1F1F23" d="M55.05,60.117c-4.9,0-8.6-1.2-8.9-1.3c-0.5-0.2-0.7-0.6-0.6-1.1c0.2-0.5,0.6-0.7,1.1-0.6
			c0.1,0,14,4.4,23.5-4.3c0.4-0.3,0.9-0.3,1.2,0.1c0.3,0.4,0.3,0.9-0.1,1.2C66.25,58.917,60.05,60.117,55.05,60.117z"/>
	</g>
	<g>
		<path fill="#1F1F23" d="M68.35,43.217c1.2,0.3,2.5,0.5,3.8,0.7s2.5,0.3,3.8,0.4c0.7,0,1.2,0.6,1.2,1.3s-0.6,1.2-1.3,1.2
			c-0.1,0-0.1,0-0.2,0c-1.3-0.3-2.6-0.6-3.9-1s-2.5-0.8-3.7-1.3c-0.3-0.1-0.5-0.5-0.4-0.8C67.75,43.317,68.05,43.217,68.35,43.217
			L68.35,43.217z"/>
	</g>
</g>
</svg>
