<?xml version="1.0" encoding="utf-8"?>
<!-- Generator: Adobe Illustrator 17.0.0, SVG Export Plug-In . SVG Version: 6.00 Build 0)  -->
<!DOCTYPE svg PUBLIC "-//W3C//DTD SVG 1.1//EN" "http://www.w3.org/Graphics/SVG/1.1/DTD/svg11.dtd">
<svg version="1.1" id="Camada_1" xmlns="http://www.w3.org/2000/svg" xmlns:xlink="http://www.w3.org/1999/xlink" x="0px" y="0px"
	 width="250px" height="250px" viewBox="0 0 250 250" enable-background="new 0 0 250 250" xml:space="preserve">
<image overflow="visible" width="252" height="249" xlink:href="avatar.jpg"  transform="matrix(1 0 0 1 -1 0.5)">
</image>
<circle fill="#EDDF5E" cx="125" cy="125" r="123.073"/>
<g>
	<defs>
		<circle id="SVGID_1_" cx="125" cy="125" r="123.073"/>
	</defs>
	<clipPath id="SVGID_2_">
		<use xlink:href="#SVGID_1_"  overflow="visible"/>
	</clipPath>
	<g clip-path="url(#SVGID_2_)">
		<g>
			<path fill="#FFFFFF" d="M203.194,207.998v42.486c0,13.864-11.34,25.203-25.203,25.203H83.953
				c-13.859,0-25.199-11.34-25.199-25.203v-42.486c0-0.072,0-0.149,0.005-0.222c0.063-7.563,3.505-14.357,8.884-18.943
				c4.401-3.759,10.105-6.034,16.311-6.034h94.037c3.795,0,7.4,0.85,10.634,2.37c8.065,3.781,13.832,11.72,14.506,21.01
				C203.171,206.782,203.194,207.388,203.194,207.998z"/>
		</g>
		<g>
			<path fill="#1F1F23" d="M177.992,277.495H83.955c-14.893,0-27.01-12.116-27.01-27.009v-42.488
				c0-14.893,12.117-27.009,27.01-27.009h94.037c14.893,0,27.01,12.116,27.01,27.009v42.488
				C205.002,265.379,192.885,277.495,177.992,277.495z M83.955,184.608c-12.898,0-23.391,10.493-23.391,23.391v42.488
				c0,12.898,10.493,23.391,23.391,23.391h94.037c12.898,0,23.391-10.493,23.391-23.391v-42.488
				c0-12.898-10.493-23.391-23.391-23.391H83.955z"/>
		</g>
		<g>
			<path fill="#FFFFFF" d="M226.488,256.894c-0.543,4.835-2.972,8.847-6.636,12.023c-10.191,8.838-29.948,11.208-45.345,6.771
				c-10.544-3.035-19.043-9.263-21.024-18.794l-44.341,18.794l-18.269,7.744c-15.727,5.052-38.651,3.325-48.62-11.159
				c-2.809-4.071-4.591-9.155-4.899-15.379c-0.864-17.401,8.612-34.562,21.404-49.117c4.365-4.971,9.119-9.639,13.981-13.909
				c4.645-4.08,9.386-7.798,13.981-11.068c6.952-4.953,13.574-8.884,19.02-11.521h53.79c5.559,2.958,11.665,6.889,17.867,11.521
				c2.614,1.954,5.247,4.039,7.857,6.224c6.219,5.206,12.335,11.009,17.876,17.156C217.686,222.328,228.293,240.814,226.488,256.894
				z"/>
		</g>
		<g opacity="0.35">
			<path fill="#371A45" d="M219.852,268.916c-10.191,8.838-29.948,11.208-45.345,6.771c-10.544-3.035-19.043-9.263-21.024-18.794
				l-44.341,18.794l-18.269,7.744c-15.727,5.052-38.651,3.325-48.62-11.159c3.872-8.829,9.72-17.283,16.505-25.004
				c4.365-4.971,9.119-9.639,13.981-13.909c4.645-4.08,9.824-6.038,15.455-6.355c10.442-0.588,84.375-6.741,100.429,0.98
				c7.309,3.516,8.965,11.539,14.506,17.686C209.806,253.081,215.655,260.983,219.852,268.916z"/>
		</g>
		<g>
			<g>
				<path fill="#FFFFFF" d="M105.091,249.597c-7.519,3.047-19.157,2.413-27.091,1.456c-4.759-0.574-8.1-4.964-7.401-9.706l0,0
					c0.638-4.327,4.446-7.475,8.815-7.272c7.421,0.345,18.552,0.505,25.601-1.061"/>
			</g>
			<g opacity="0.35">
				<path fill="#371A45" d="M105.093,249.595c-7.521,3.051-19.159,2.412-27.092,1.46c-4.759-0.575-8.1-4.968-7.399-9.707
					c0.139-0.968,0.443-1.876,0.874-2.704c1.253,2.392,3.627,4.154,6.523,4.504c7.92,0.958,19.538,1.591,27.059-1.44
					L105.093,249.595z"/>
			</g>
			<g>
				<path fill="#1F1F23" d="M90.12,253.651c-4.334,0-8.644-0.357-12.337-0.803c-2.786-0.336-5.259-1.75-6.963-3.982
					c-1.707-2.236-2.421-5-2.011-7.784c0.777-5.272,5.371-9.063,10.689-8.815c7.747,0.36,18.392,0.475,25.125-1.02
					c1.001-0.222,3.491-0.221,4.988,4.588c1.548,4.971,1.397,13.316-3.841,15.439l0,0C101.379,253.053,95.73,253.651,90.12,253.651z
					 M79.012,235.875c-3.315,0-6.133,2.415-6.623,5.736c-0.267,1.81,0.197,3.607,1.307,5.06c1.106,1.449,2.712,2.367,4.521,2.586
					c8.049,0.971,19.126,1.527,26.195-1.337c1.831-0.742,2.272-3.71,2.376-4.952c0.332-3.939-0.917-7.417-1.634-8.133
					c-7.127,1.524-17.953,1.414-25.823,1.047C79.224,235.877,79.117,235.875,79.012,235.875z"/>
			</g>
			<g>
				<path fill="#FFFFFF" d="M162.609,249.578c7.521,3.042,19.158,2.401,27.092,1.438c4.758-0.577,8.097-4.97,7.395-9.711v0
					c-0.641-4.327-4.451-7.472-8.82-7.266c-7.421,0.35-18.552,0.517-25.602-1.045"/>
			</g>
			<g opacity="0.35">
				<path fill="#371A45" d="M189.699,251.02c-7.933,0.957-19.57,1.603-27.093-1.443l0.031-7.96
					c7.523,3.026,19.141,2.386,27.06,1.423c2.883-0.346,5.242-2.096,6.5-4.476c0.444,0.835,0.756,1.756,0.902,2.743
					C197.796,246.046,194.457,250.441,189.699,251.02z"/>
			</g>
			<g>
				<path fill="#1F1F23" d="M177.531,253.623c-5.594,0-11.222-0.597-15.601-2.368c-5.239-2.119-5.395-10.463-3.851-15.436
					c1.494-4.81,3.983-4.815,4.985-4.592c6.736,1.492,17.382,1.37,25.125,1.004c5.321-0.249,9.914,3.535,10.695,8.808
					c0.412,2.784-0.3,5.549-2.005,7.785c-1.703,2.233-4.175,3.649-6.961,3.987C186.213,253.262,181.882,253.623,177.531,253.623z
					 M162.537,234.816c-0.718,0.717-1.964,4.196-1.629,8.135c0.105,1.242,0.548,4.21,2.379,4.95l0,0
					c7.07,2.859,18.147,2.295,26.196,1.32c1.809-0.22,3.414-1.139,4.52-2.588c1.108-1.454,1.571-3.252,1.303-5.062
					c-0.508-3.426-3.499-5.88-6.945-5.724C180.491,236.218,169.667,236.337,162.537,234.816z"/>
			</g>
			<g>
				<path fill="#FFFFFF" d="M165.508,227.513l0.009,26.576c0.002,4.931-4.033,8.968-8.964,8.97l-48.943,0.016
					c-4.924,0.002-8.962-4.033-8.963-8.964l-0.009-26.576c-0.002-4.931,4.033-8.962,8.957-8.963l48.943-0.016
					c2.903-0.001,5.495,1.397,7.139,3.55C164.824,223.61,165.507,225.485,165.508,227.513z"/>
			</g>
			<g opacity="0.35">
				<path fill="#371A45" d="M165.508,227.513l0.009,26.576c0.002,4.931-4.033,8.968-8.964,8.97l-48.943,0.016
					c-4.924,0.002-8.962-4.033-8.963-8.964l-0.003-9.941c10.215,7.579,32.505,12.834,46.432,1.483
					c11.045-9.004,16.245-18.005,18.602-23.547C164.824,223.61,165.507,225.485,165.508,227.513z"/>
			</g>
			<g>
				<path fill="#1F1F23" d="M107.608,264.883c-5.938,0-10.769-4.83-10.771-10.768l-0.009-26.58
					c-0.002-5.939,4.829-10.772,10.768-10.775l48.944-0.016c0.001,0,0.002,0,0.004,0c5.938,0,10.769,4.83,10.772,10.768l0.009,26.58
					c0.002,5.939-4.829,10.772-10.768,10.775l-48.944,0.016C107.611,264.883,107.609,264.883,107.608,264.883z M156.556,263.057
					h0.006H156.556z M156.544,220.363c-0.001,0-0.001,0-0.002,0l-48.944,0.016c-1.9,0.001-3.694,0.748-5.049,2.104
					c-1.356,1.356-2.102,3.15-2.101,5.05l0.009,26.58c0.001,1.901,0.748,3.694,2.104,5.049c1.356,1.355,3.149,2.101,5.048,2.101
					c0.001,0,0.001,0,0.002,0l48.944-0.016c3.944-0.001,7.152-3.211,7.151-7.155l-0.009-26.58
					C163.696,223.57,160.487,220.363,156.544,220.363z"/>
			</g>
			<g>
				<circle fill="#90C154" cx="149.415" cy="240.808" r="7.729"/>
			</g>
			<g opacity="0.35">
				<path fill="#371A45" d="M157.142,240.804c0.001,4.268-3.457,7.729-7.725,7.73c-4.268,0.001-7.729-3.457-7.73-7.725
					c0-0.987,0.185-1.929,0.529-2.797c1.114,2.883,3.918,4.923,7.199,4.922c3.281-0.001,6.083-2.043,7.196-4.927
					C156.956,238.875,157.142,239.816,157.142,240.804z"/>
			</g>
			<g>
				<path fill="#1F1F23" d="M149.416,249.894c-5.009,0-9.084-4.074-9.086-9.083c-0.002-5.01,4.073-9.087,9.083-9.089
					c0.001,0,0.002,0,0.002,0c5.009,0,9.085,4.074,9.086,9.083c0.002,5.01-4.073,9.087-9.083,9.089
					C149.418,249.894,149.416,249.894,149.416,249.894z M149.415,234.436c-0.001,0-0.001,0-0.002,0
					c-3.513,0.001-6.371,2.861-6.37,6.373c0.001,3.513,2.86,6.37,6.372,6.37c0.001,0,0.001,0,0.002,0
					c3.513-0.001,6.371-2.861,6.37-6.374C155.786,237.293,152.927,234.436,149.415,234.436z"/>
			</g>
			<g>
				<path fill="#1F1F23" d="M127.52,264.424c-0.749,0-1.357-0.607-1.357-1.357l-0.006-18.274l-9.791-7.366l-0.006-18.86
					c0-0.75,0.607-1.357,1.356-1.358c0,0,0.001,0,0.001,0c0.749,0,1.357,0.607,1.357,1.357l0.006,17.506l9.791,7.366l0.006,19.628
					C128.877,263.816,128.27,264.423,127.52,264.424C127.52,264.424,127.52,264.424,127.52,264.424z"/>
			</g>
		</g>
		<g>
			<path fill="#371A45" d="M256.418,269.939c0,28.998-58.838,52.51-131.417,52.51c-72.583,0-131.421-23.511-131.421-52.51
				c0-1.818,0.235-3.89,0.688-6.179h261.467C256.187,266.049,256.418,268.12,256.418,269.939z"/>
		</g>
		<g>
			<path fill="#FFF2BD" d="M186.117,296.24l-2.038,0.315c-0.408,0.063-0.729,0.384-0.792,0.792l-0.315,2.038l-0.315-2.038
				c-0.063-0.408-0.384-0.729-0.792-0.792l-2.038-0.315l2.038-0.315c0.408-0.063,0.729-0.384,0.792-0.792l0.315-2.038l0.315,2.038
				c0.063,0.408,0.384,0.729,0.792,0.792L186.117,296.24z"/>
		</g>
		<g>
			<path fill="#FFF2BD" d="M129.012,304.721l-2.038,0.315c-0.408,0.063-0.729,0.384-0.792,0.792l-0.315,2.039l-0.315-2.039
				c-0.063-0.408-0.384-0.729-0.792-0.792l-2.038-0.315l2.038-0.315c0.408-0.063,0.729-0.384,0.792-0.792l0.315-2.038l0.315,2.038
				c0.063,0.408,0.384,0.729,0.792,0.792L129.012,304.721z"/>
		</g>
		<g>
			<path fill="#FFF2BD" d="M156.477,310.751l-2.052,0.317c-0.411,0.063-0.734,0.386-0.797,0.797l-0.317,2.052l-0.317-2.052
				c-0.063-0.411-0.386-0.734-0.797-0.797l-2.052-0.317l2.052-0.317c0.411-0.063,0.734-0.386,0.797-0.797l0.317-2.051l0.317,2.051
				c0.063,0.411,0.386,0.734,0.797,0.797L156.477,310.751z"/>
		</g>
		<g>
			<path fill="#FFF2BD" d="M236.795,278.359l-3.257,0.503c-0.653,0.101-1.165,0.613-1.265,1.265l-0.503,3.257l-0.503-3.257
				c-0.101-0.653-0.613-1.165-1.265-1.265l-3.257-0.503l3.257-0.503c0.653-0.101,1.165-0.613,1.265-1.265l0.503-3.257l0.503,3.257
				c0.101,0.653,0.613,1.165,1.265,1.265L236.795,278.359z"/>
		</g>
		<g>
			<ellipse fill="#371A45" cx="125" cy="263.449" rx="152.021" ry="4.682"/>
		</g>
		<g>
			<path fill="#FFFFFF" d="M183.183,282.061c0,10.019-25.859,18.138-57.757,18.138c-22.385,0-41.794-3.998-51.383-9.842
				c-4.075-2.488-6.378-5.306-6.378-8.295c0-5.441,7.622-10.322,19.698-13.642c0.339-0.095,0.683-0.19,1.027-0.276
				c10.028-2.633,22.942-4.22,37.036-4.22c11.362,0,21.956,1.031,30.889,2.813c3.718,0.737,7.151,1.606,10.227,2.583
				c4.777,1.524,8.707,3.306,11.543,5.274C181.36,276.873,183.183,279.401,183.183,282.061z"/>
		</g>
		<g>
			<path fill="#371A45" d="M125.425,302.011c-15.607,0-30.304-1.917-41.384-5.396c-11.896-3.736-18.184-8.768-18.184-14.552
				c0-5.784,6.288-10.817,18.184-14.552c11.08-3.48,25.777-5.396,41.384-5.396s30.304,1.916,41.384,5.396
				c11.896,3.736,18.184,8.768,18.184,14.552c0,5.784-6.288,10.816-18.184,14.552C155.729,300.094,141.032,302.011,125.425,302.011z
				 M125.425,265.732c-32.972,0-55.95,8.606-55.95,16.33s22.978,16.33,55.95,16.33s55.95-8.606,55.95-16.33
				S158.397,265.732,125.425,265.732z"/>
		</g>
		<g>
			<path fill="#371A45" d="M158.846,274.987l-0.566-0.212c-5.28-1.98-3.864-13.555-3.304-17.055l0.141-0.883l0.788-0.424
				c2.611-1.406,5.058-1.702,7.274-0.882c3.48,1.289,4.906,4.906,4.965,5.059l0.063,0.163l0.03,0.173
				c1.5,8.498-5.108,12.803-8.812,13.891L158.846,274.987z M158.412,259.215c-0.667,4.938-0.487,10.421,0.722,11.858
				c1.864-0.786,6.51-3.366,5.573-9.318c-0.232-0.497-1.145-2.235-2.806-2.839C160.902,258.554,159.732,258.654,158.412,259.215z"/>
		</g>
		<g>
			<path fill="#371A45" d="M158.846,274.987l-0.566-0.212c-5.28-1.98-3.864-13.555-3.304-17.055l0.141-0.883l0.788-0.424
				c2.611-1.406,5.058-1.702,7.274-0.882c3.48,1.289,4.906,4.906,4.965,5.059l0.063,0.163l0.03,0.173
				c1.5,8.498-5.108,12.803-8.812,13.891L158.846,274.987z M158.412,259.215c-0.667,4.938-0.487,10.421,0.722,11.858
				c1.864-0.786,6.51-3.366,5.573-9.318c-0.232-0.497-1.145-2.235-2.806-2.839C160.902,258.554,159.732,258.654,158.412,259.215z"/>
		</g>
		<g>
			<path fill="#371A45" d="M84.596,246.377c0.565,0.385,1.232,0.769,1.883,1.086c0.658,0.325,1.334,0.604,2.017,0.835
				c0.682,0.236,1.372,0.422,2.064,0.55c0.688,0.145,1.381,0.2,2.059,0.24l0.036,0.002c1.004,0.06,1.77,0.923,1.709,1.928
				c-0.06,1.004-0.923,1.77-1.928,1.709c-0.131-0.008-0.266-0.032-0.388-0.066c-0.841-0.238-1.664-0.501-2.44-0.853
				c-0.782-0.335-1.528-0.729-2.237-1.165c-0.712-0.432-1.388-0.907-2.027-1.422c-0.646-0.52-1.233-1.046-1.827-1.684
				c-0.299-0.321-0.281-0.822,0.039-1.121c0.276-0.258,0.688-0.28,0.987-0.076L84.596,246.377z"/>
		</g>
		<g opacity="0.35">
			<path fill="#371A45" d="M226.488,256.894c-3.085,27.483-67.079,28.451-73.004,0c-0.909-4.374-0.366-7.807,1.122-10.494
				c9.974,23.751,64.523,22.765,71.303-0.71C226.669,249.512,226.895,253.266,226.488,256.894z"/>
		</g>
		<g>
			<path fill="#371A45" d="M83.044,287.105c-1.081,0.17-2.166,0.317-3.256,0.417c-3.936,0.404-7.911,0.392-11.86-0.009
				c-3.947-0.402-7.869-1.265-11.643-2.634c-3.754-1.411-7.382-3.341-10.492-6.008c-0.805-0.63-1.504-1.386-2.246-2.091
				l-1.021-1.152l-0.506-0.58l-0.463-0.616c-1.289-1.606-2.283-3.421-3.191-5.257c-1.698-3.739-2.594-7.781-2.839-11.796
				c-0.206-4.001,0.083-7.999,0.795-11.911l0.615-2.915c0.252-0.958,0.528-1.909,0.791-2.864c0.241-0.963,0.61-1.88,0.919-2.819
				l0.484-1.401c0.174-0.462,0.369-0.914,0.553-1.372c0.384-0.907,0.722-1.837,1.145-2.725l1.257-2.67
				c0.435-0.881,0.912-1.738,1.367-2.608c0.446-0.876,0.946-1.718,1.446-2.56c0.966-1.708,2.052-3.334,3.111-4.979
				c1.122-1.598,2.21-3.224,3.408-4.763c1.155-1.573,2.395-3.076,3.62-4.591c0.621-0.75,1.266-1.478,1.898-2.219
				c0.628-0.744,1.277-1.468,1.938-2.182c2.599-2.895,5.347-5.646,8.162-8.319c5.644-5.333,11.644-10.273,17.944-14.803
				c6.299-4.532,12.878-8.685,19.921-12.138l0.393-0.193l0.447,0l53.79,0.022h0.48l0.417,0.224
				c7.658,4.111,14.776,9.026,21.556,14.343c6.782,5.319,13.174,11.12,19.155,17.334c2.983,3.115,5.838,6.357,8.561,9.714
				c2.722,3.357,5.3,6.844,7.644,10.5c2.348,3.651,4.492,7.455,6.294,11.445c1.797,3.988,3.258,8.173,4.109,12.537
				c0.183,1.098,0.434,2.181,0.513,3.3c0.113,1.112,0.257,2.22,0.245,3.347l0.035,1.684c-0.001,0.562-0.063,1.125-0.092,1.687
				c-0.04,0.564-0.069,1.123-0.12,1.69c-0.098,0.581-0.145,1.169-0.291,1.743c-0.484,2.31-1.397,4.54-2.682,6.502
				c-1.262,1.981-2.859,3.699-4.614,5.167c-1.752,1.478-3.669,2.709-5.662,3.741c-1.993,1.036-4.061,1.886-6.167,2.585
				c-4.215,1.395-8.572,2.207-12.948,2.574c-4.378,0.362-8.786,0.281-13.149-0.256c-4.36-0.542-8.687-1.536-12.835-3.137
				c-4.129-1.611-8.138-3.813-11.47-6.965c-1.655-1.574-3.153-3.362-4.316-5.378c-1.165-2.011-2.017-4.216-2.499-6.492l2.497,1.307
				l-31.348,13.273l-7.852,3.279c-2.626,1.072-5.252,2.142-7.888,3.184c-5.27,2.091-10.565,4.116-15.918,5.973L83.044,287.105z
				 M95.674,280.089c3.409-1.643,6.829-3.248,10.27-4.802c2.581-1.169,5.173-2.311,7.764-3.451l7.8-3.356l31.262-13.267l2.033-0.863
				l0.464,2.171c0.406,1.897,1.111,3.715,2.083,5.394c0.97,1.682,2.24,3.197,3.671,4.558c2.878,2.726,6.484,4.728,10.281,6.203
				c3.814,1.47,7.863,2.403,11.963,2.908c4.103,0.502,8.269,0.576,12.391,0.231c4.119-0.348,8.206-1.118,12.09-2.409
				c3.866-1.3,7.586-3.101,10.608-5.656c3.038-2.515,5.287-5.847,6.041-9.591c0.122-0.46,0.151-0.942,0.235-1.411l0.102-1.5
				c0.025-0.502,0.084-1.001,0.083-1.505l-0.035-1.514c0.015-1.009-0.122-2.019-0.224-3.028c-0.068-1.012-0.306-2.012-0.472-3.017
				c-0.785-4.01-2.15-7.934-3.858-11.714c-1.711-3.782-3.767-7.429-6.034-10.947c-2.262-3.524-4.765-6.905-7.418-10.169
				c-2.653-3.265-5.441-6.427-8.36-9.47c-5.853-6.072-12.127-11.757-18.774-16.961c-6.639-5.2-13.622-10.005-21.006-13.959
				l0.897,0.224l-53.79,0.022l0.84-0.193c-6.744,3.306-13.184,7.389-19.348,11.801c-6.167,4.42-12.051,9.25-17.57,14.449
				c-2.753,2.606-5.438,5.285-7.97,8.097c-0.644,0.693-1.277,1.396-1.887,2.118c-0.615,0.718-1.243,1.425-1.847,2.152
				c-1.189,1.467-2.395,2.923-3.513,4.442c-1.164,1.487-2.212,3.052-3.297,4.592c-1.02,1.581-2.069,3.144-2.995,4.777
				c-0.481,0.807-0.963,1.613-1.388,2.448c-0.435,0.83-0.894,1.648-1.309,2.487l-1.198,2.536c-0.405,0.843-0.722,1.721-1.088,2.579
				c-0.174,0.432-0.361,0.861-0.526,1.296l-0.457,1.319c-0.291,0.883-0.645,1.749-0.869,2.649l-0.747,2.682l-0.576,2.716
				c-0.667,3.636-0.936,7.334-0.755,10.999c0.218,3.638,1.018,7.206,2.487,10.465c0.794,1.594,1.643,3.174,2.764,4.565l0.399,0.537
				l0.441,0.503l0.885,1.004c0.652,0.612,1.253,1.277,1.963,1.83c2.721,2.344,5.963,4.085,9.379,5.377
				c3.438,1.251,7.066,2.063,10.751,2.443c3.685,0.38,7.422,0.399,11.121,0.024c1.852-0.165,3.689-0.459,5.51-0.813
				c1.816-0.356,3.639-0.851,5.299-1.354L95.674,280.089z"/>
		</g>
		<g opacity="0.35">
			<path fill="#371A45" d="M178.085,274.593c-0.457,1.253-1.054,2.388-1.76,3.411c-6.604,9.634-22.607,9.634-22.607,9.634
				c-22.724,7.45-40.36,4.311-50.886,0.561c-1.524-0.543-2.899-1.099-4.121-1.637c-1.036,0.547-2.139,1.018-3.316,1.393
				c-6.382,2.049-13.949,2.985-21.354,2.402c-15.32-1.203-29.948-8.893-31.97-26.596h45.263c0.054,0.285,0.113,0.561,0.172,0.828
				c0.267,1.217,0.57,2.411,0.882,3.555c10.028-2.633,22.942-4.22,37.036-4.22c11.362,0,21.956,1.031,30.889,2.813
				c-0.032,0.498-0.059,1.013-0.072,1.547c-0.027,0.968-0.027,1.981,0.032,2.967c0.176,2.954,0.846,5.681,2.642,6.355
				c0,0,3.718-1.095,6.002-4.256c0.778-1.086,1.393-2.415,1.624-4.03C171.319,270.843,175.249,272.625,178.085,274.593z"/>
		</g>
		<g opacity="0.35">
			<path fill="#371A45" d="M87.079,262.371c0.081,0.479,0.167,0.945,0.258,1.389C87.246,263.317,87.165,262.851,87.079,262.371z
				 M85.469,248.779c0,0,0.023,0.294,0.068,0.814c0.217,0.068,0.434,0.131,0.651,0.199c-0.258-2.225-0.457-4.274-0.579-5.627
				C85.315,245.767,85.338,247.336,85.469,248.779z M166.456,254.953c0,0-0.018-0.05-0.059-0.136
				c-2.243-5.084-9.861-3.641-10.123,1.909c-0.077,1.542-0.077,3.248,0.095,4.817c0.154-2.049,0.394-3.537,0.394-3.537
				c5.473-2.945,8.314,0.692,9.291,2.42C166.615,258.934,166.841,257.125,166.456,254.953z"/>
		</g>
		<g opacity="0.35">
			<path fill="#371A45" d="M179.117,263.136c0.624,19.979-25.398,19.979-25.398,19.979c-22.724,7.45-40.36,4.311-50.886,0.561
				c-2.438-0.868-4.496-1.769-6.147-2.578c-3.139-1.538-5.514-4.283-6.645-7.594c-0.837-2.443-1.8-5.595-2.533-8.915
				c-0.059-0.267-0.118-0.543-0.172-0.828c-0.09-0.443-0.172-0.909-0.258-1.389c-0.027-0.158-0.054-0.321-0.081-0.484
				c-0.493-2.931-0.882-6.328-1.144-8.924c-0.023-0.235-0.045-0.461-0.068-0.678c-0.018-0.181-0.036-0.362-0.054-0.534
				c-0.014-0.154-0.027-0.303-0.041-0.448c-0.063-0.697-0.118-1.28-0.154-1.71c0.217,0.068,0.434,0.131,0.651,0.199
				c3.772,1.144,8.137,2.253,12.737,3.646c5.527,1.674,8.834,5.631,10.105,10.322c0.081,0.294,0.154,0.588,0.213,0.887
				c0.977,4.537,0.122,9.657-2.388,14.026c10.738,3.058,26.822,4.727,46.865-1.845c0,0,23.095,0,25.244-16.704
				C179.23,261.91,179.117,263.136,179.117,263.136z"/>
		</g>
		<g>
			<path fill="#FFFFFF" d="M105.743,171.281c-23.857,11.541-70.252,48.012-68.389,85.611c1.405,28.354,33.369,33.012,53.518,26.54
				c16.874-5.419,19.634-29.635,3.53-34.515c-13.365-4.05-24.781-5.668-25.352-12.894"/>
		</g>
		<g opacity="0.35">
			<path fill="#371A45" d="M90.874,283.431c-20.151,6.473-52.116,1.814-53.518-26.538c-0.149-2.972,0.009-5.939,0.43-8.884
				c4.112,24.746,33.937,28.65,53.089,22.498c6.676-2.144,11.136-7.228,13.099-12.891
				C107.537,266.745,102.634,279.654,90.874,283.431z"/>
		</g>
		<g>
			<path fill="#1F1F23" d="M106.531,172.91c-4.756,2.336-9.348,5.099-13.803,8.049c-4.45,2.965-8.776,6.129-12.938,9.494
				c-8.317,6.73-16.071,14.187-22.769,22.468c-3.339,4.144-6.402,8.499-9.051,13.074c-2.638,4.576-4.868,9.381-6.393,14.383
				c-1.521,4.995-2.376,10.183-2.229,15.35c0.094,5.139,1.304,10.195,3.955,14.438c2.624,4.254,6.631,7.566,11.225,9.764
				c4.6,2.217,9.728,3.407,14.909,3.857c5.189,0.442,10.47,0.132,15.583-0.891c1.278-0.257,2.545-0.561,3.795-0.915
				c0.615-0.174,1.269-0.368,1.837-0.565c0.582-0.192,1.147-0.428,1.706-0.675c2.22-1.018,4.236-2.47,5.881-4.283
				c3.307-3.598,5.169-8.594,4.927-13.451c-0.119-2.42-0.78-4.79-2.009-6.793c-1.221-2.008-3.016-3.614-5.156-4.648
				c-1.066-0.541-2.186-0.861-3.521-1.261l-3.873-1.122c-2.594-0.737-5.212-1.451-7.842-2.267c-1.315-0.41-2.633-0.847-3.95-1.35
				c-1.315-0.505-2.639-1.067-3.916-1.825c-1.273-0.751-2.521-1.724-3.48-3.05c-0.957-1.315-1.485-3.046-1.27-4.597
				c0.07-0.507,0.537-0.861,1.044-0.791c0.356,0.049,0.636,0.295,0.748,0.612l0.012,0.036c0.402,1.155,0.995,2.031,1.803,2.766
				c0.797,0.743,1.8,1.351,2.879,1.924c2.177,1.13,4.671,2.004,7.208,2.768c2.544,0.769,5.152,1.46,7.768,2.181l3.931,1.107
				c0.67,0.199,1.275,0.362,2.016,0.612c0.711,0.24,1.413,0.52,2.095,0.854c2.74,1.303,5.156,3.432,6.754,6.05
				c1.616,2.611,2.445,5.617,2.604,8.592c0.307,5.969-1.892,11.893-5.875,16.289c-1.984,2.204-4.438,3.991-7.131,5.237
				c-0.677,0.303-1.361,0.59-2.062,0.826c-0.709,0.248-1.353,0.44-2.038,0.638c-1.352,0.389-2.716,0.723-4.089,1.005
				c-5.492,1.123-11.12,1.48-16.716,1.03c-5.587-0.45-11.181-1.742-16.345-4.23c-2.575-1.244-5.031-2.799-7.231-4.691
				c-2.201-1.888-4.137-4.119-5.674-6.599c-3.106-4.971-4.459-10.835-4.554-16.483c-0.156-5.662,0.783-11.291,2.415-16.635
				c1.637-5.354,4.002-10.426,6.767-15.217c2.771-4.794,5.975-9.302,9.446-13.565c6.96-8.52,14.934-16.108,23.465-22.948
				c4.271-3.416,8.697-6.638,13.276-9.636c4.589-2.985,9.312-5.777,14.291-8.173c0.9-0.433,1.982-0.055,2.415,0.846
				c0.431,0.896,0.059,1.97-0.832,2.408L106.531,172.91z"/>
		</g>
		<g>
			<path fill="#371A45" d="M40.829,271.307c-0.564,0-1.091-0.354-1.284-0.918c-1.855-5.428-0.371-12.346,3.873-18.055
				c3.499-4.706,11.87-12.501,28.614-11.883c0.749,0.028,1.333,0.658,1.306,1.407c-0.028,0.749-0.664,1.328-1.407,1.305
				c-15.512-0.591-23.155,6.512-26.335,10.789c-3.663,4.927-5.03,11.034-3.483,15.558c0.242,0.709-0.136,1.48-0.845,1.723
				C41.123,271.284,40.975,271.307,40.829,271.307z"/>
		</g>
		<g>
			<g>
				<path fill="#FFFFFF" d="M205.733,145.404L205.733,145.404c-0.902,0.058-1.679-0.626-1.737-1.528l-3.006-47.019
					c-0.058-0.902,0.626-1.679,1.528-1.737h0c9.458-0.605,17.615,6.572,18.22,16.03l1.025,16.034
					C222.368,136.642,215.191,144.799,205.733,145.404z"/>
				<path fill="#371A45" d="M205.628,145.733c-1.025,0-1.889-0.799-1.955-1.836l-3.006-47.019c-0.033-0.523,0.139-1.027,0.485-1.42
					c0.346-0.393,0.825-0.628,1.347-0.661c4.663-0.298,9.159,1.237,12.665,4.322c3.506,3.085,5.602,7.351,5.899,12.012l1.025,16.033
					c0.298,4.661-1.237,9.159-4.322,12.665c-3.085,3.506-7.351,5.602-12.012,5.899l0,0
					C205.712,145.731,205.67,145.733,205.628,145.733z M203.637,95.41c-0.365,0-0.73,0.012-1.098,0.035
					c-0.35,0.022-0.669,0.179-0.901,0.442c-0.231,0.263-0.346,0.6-0.324,0.949l3.006,47.019c0.046,0.721,0.663,1.279,1.392,1.224
					l0,0c9.264-0.592,16.319-8.611,15.727-17.874l-1.025-16.033c-0.287-4.488-2.304-8.595-5.68-11.565
					C211.634,96.879,207.729,95.41,203.637,95.41z"/>
			</g>
			<g opacity="0.35">
				<path fill="#371A45" d="M221.283,119.666l0.482,7.52c0.603,9.455-6.573,17.613-16.033,18.222
					c-0.901,0.059-1.679-0.63-1.737-1.531l-0.803-12.499c0.29,0.554,0.885,0.911,1.547,0.873l1.115-0.074
					C213.328,131.7,219.382,126.502,221.283,119.666z"/>
			</g>
			<g>
				<path fill="#1F1F23" d="M205.626,147.217c-1.8,0-3.319-1.404-3.435-3.225l-3.006-47.019c-0.059-0.918,0.243-1.804,0.851-2.495
					c0.608-0.691,1.449-1.103,2.367-1.162c5.054-0.323,9.936,1.342,13.74,4.689c3.804,3.347,6.077,7.975,6.4,13.031l1.025,16.033
					c0.323,5.057-1.342,9.936-4.689,13.74c-3.347,3.804-7.975,6.077-13.031,6.4h0C205.774,147.214,205.7,147.217,205.626,147.217z
					 M202.808,96.916l2.983,46.67c4.024-0.302,7.702-2.132,10.372-5.167c2.709-3.078,4.056-7.027,3.795-11.119l-1.025-16.033
					c-0.262-4.092-2.101-7.837-5.179-10.546C210.718,98.051,206.839,96.704,202.808,96.916z"/>
			</g>
			<g>
				<path fill="#FFFFFF" d="M47.322,105.042L47.322,105.042c0.902-0.058,1.679,0.626,1.737,1.528l3.006,47.019
					c0.058,0.902-0.626,1.679-1.528,1.737h0c-9.458,0.605-17.615-6.572-18.22-16.03l-1.025-16.033
					C30.687,113.804,37.864,105.646,47.322,105.042z"/>
				<path fill="#371A45" d="M49.417,155.686c-4.25,0-8.306-1.526-11.525-4.358c-3.506-3.085-5.602-7.351-5.899-12.012l-1.025-16.034
					c-0.298-4.661,1.237-9.159,4.322-12.665c3.085-3.506,7.351-5.602,12.012-5.899l0,0c1.071-0.07,2.013,0.752,2.082,1.831
					l3.006,47.019c0.033,0.523-0.139,1.027-0.485,1.42c-0.346,0.393-0.824,0.628-1.347,0.661
					C50.175,155.674,49.795,155.686,49.417,155.686z M47.342,105.366c-9.264,0.592-16.319,8.611-15.727,17.874l1.025,16.034
					c0.287,4.488,2.304,8.595,5.68,11.565c3.376,2.97,7.702,4.445,12.194,4.161c0.35-0.022,0.669-0.179,0.901-0.442
					c0.231-0.263,0.346-0.6,0.324-0.949l-3.006-47.019C48.688,105.869,48.062,105.321,47.342,105.366L47.342,105.366z"/>
			</g>
			<g opacity="0.35">
				<path fill="#371A45" d="M51.234,140.544l0.832,13.044c0.059,0.901-0.63,1.679-1.531,1.737c-4.964,0.315-9.575-1.51-12.92-4.689
					c-3.021-2.87-5.009-6.849-5.297-11.339l-0.432-6.756c3.064,5.756,9.309,9.503,16.244,9.061l1.716-0.11
					C50.472,141.451,50.982,141.071,51.234,140.544z"/>
			</g>
			<g>
				<path fill="#1F1F23" d="M49.414,157.17c-4.611,0-9.01-1.655-12.503-4.729c-3.804-3.347-6.077-7.975-6.4-13.031l-1.025-16.034
					c-0.323-5.057,1.342-9.936,4.689-13.74c3.347-3.804,7.975-6.077,13.031-6.4h0c1.893-0.13,3.537,1.322,3.658,3.218l3.006,47.019
					c0.059,0.918-0.243,1.804-0.851,2.495c-0.608,0.691-1.448,1.103-2.366,1.162C50.238,157.157,49.825,157.17,49.414,157.17z
					 M47.264,106.86c-4.024,0.302-7.702,2.132-10.372,5.167c-2.709,3.078-4.056,7.027-3.795,11.119l1.025,16.034
					c0.262,4.092,2.101,7.837,5.179,10.546c3.035,2.67,6.917,4.016,10.946,3.804L47.264,106.86z"/>
			</g>
			<g opacity="0.35">
				<path fill="#371A45" d="M188.624,185.17c-1.081,1.321-2.207,2.605-3.37,3.854c-14.786,15.849-35.905,25.696-59.29,25.529
					c-20.49-0.145-39.13-7.956-53.224-20.685c-1.773-1.601-3.474-3.279-5.098-5.034c4.401-3.759,10.105-6.034,16.311-6.034h2.768
					c6.952-4.953,13.574-8.884,19.02-11.521h53.79c5.559,2.958,11.665,6.889,17.867,11.521h0.593
					C181.785,182.8,185.39,183.65,188.624,185.17z"/>
			</g>
			<g>
				<circle fill="#FFFFFF" cx="126.537" cy="125.222" r="80.287"/>
				<path fill="#371A45" d="M126.554,205.834c-0.198,0-0.395-0.001-0.593-0.002c-21.532-0.154-41.715-8.684-56.831-24.018
					c-15.116-15.334-23.356-35.637-23.202-57.168c0.154-21.532,8.683-41.715,24.018-56.831
					c15.334-15.116,35.662-23.372,57.169-23.203c44.449,0.318,80.352,36.738,80.034,81.186l-0.325-0.002l0.325,0.002
					c-0.154,21.532-8.683,41.715-24.018,56.831C167.937,197.607,147.865,205.834,126.554,205.834z M126.521,45.26
					c-21.14,0-41.049,8.16-56.12,23.018c-15.21,14.994-23.671,35.015-23.824,56.373s8.021,41.497,23.015,56.708
					c14.995,15.21,35.015,23.671,56.373,23.824c21.361,0.167,41.497-8.021,56.708-23.015c15.211-14.995,23.671-35.015,23.824-56.373
					c0.315-44.09-35.298-80.217-79.388-80.532C126.913,45.261,126.717,45.26,126.521,45.26z"/>
			</g>
			<g opacity="0.35">
				<path fill="#371A45" d="M206.132,114.677c0.485,3.634,0.718,7.345,0.691,11.12c-0.323,44.339-36.523,80.026-80.862,79.713
					c-44.339-0.323-80.026-36.523-79.713-80.862c0.008-1.275,0.047-2.551,0.117-3.807c5.133,39.121,38.452,69.45,79.021,69.742
					C168.451,190.887,203.831,157.236,206.132,114.677z"/>
			</g>
			<g>
				<path fill="#1F1F23" d="M126.554,207.319c-0.202,0-0.402-0.001-0.604-0.002c-21.928-0.157-42.483-8.844-57.877-24.46
					c-15.395-15.617-23.787-36.293-23.63-58.221c0.157-21.928,8.843-42.483,24.46-57.878c15.473-15.253,35.915-23.632,57.618-23.632
					c0.202,0,0.401,0.001,0.603,0.002c45.267,0.324,81.831,37.415,81.507,82.681l-1.809-0.013l1.809,0.013
					c-0.157,21.928-8.843,42.483-24.46,57.877C168.699,198.94,148.257,207.319,126.554,207.319z M126.522,46.744
					c-20.748,0-40.287,8.009-55.078,22.59C56.515,84.051,48.211,103.7,48.061,124.661s7.872,40.727,22.588,55.655
					c14.716,14.928,34.365,23.232,55.326,23.381c0.192,0.002,0.386,0.002,0.578,0.002c20.748,0.001,40.286-8.008,55.077-22.59
					c14.928-14.716,23.232-34.365,23.382-55.326l0,0c0.309-43.272-34.643-78.727-77.915-79.037
					C126.906,46.745,126.713,46.744,126.522,46.744z"/>
			</g>
			<g>
				<path fill="#1F1F23" d="M206.551,127.857c0.125,15.71-4.859,30.337-13.485,42.474c-6.467,9.099-33.221,25.147-66.41,25.71
					c-30.774,0.521-58.906-15.665-65.517-24.66c-8.818-11.999-14.034-26.544-14.159-42.254
					c-0.331-41.575,35.251-59.094,79.318-59.444C170.364,69.331,206.22,86.282,206.551,127.857z"/>
			</g>
			<g>
				<path fill="#1F1F23" d="M125.167,197.863c-31.17,0-58.685-16.155-65.487-25.411c-9.369-12.748-14.386-27.725-14.51-43.311
					c-0.162-20.295,7.85-36.007,23.812-46.699c13.95-9.344,33.764-14.382,57.3-14.569c23.532-0.184,43.428,4.535,57.525,13.655
					c16.13,10.437,24.391,26.019,24.552,46.314l0,0c0.124,15.587-4.655,30.642-13.819,43.536
					c-6.351,8.937-32.775,25.876-67.855,26.471C126.18,197.858,125.672,197.863,125.167,197.863z M127.631,71.486
					c-0.439,0-0.878,0.002-1.32,0.005c-23.445,0.187-77.932,6.175-77.523,57.621c0.118,14.821,4.893,29.066,13.808,41.197
					c6.335,8.62,33.901,24.432,64.028,23.923c33.374-0.566,59.172-16.795,64.966-24.949c8.721-12.271,13.268-26.591,13.15-41.412
					l0,0c-0.151-19.001-7.856-33.571-22.9-43.305C168.602,76,149.878,71.486,127.631,71.486z"/>
			</g>
			<g opacity="0.7">
				
					<ellipse transform="matrix(-0.9854 -0.1705 0.1705 -0.9854 337.64 273.8199)" fill="#FFFFFF" cx="180.575" cy="122.415" rx="10.296" ry="14.208"/>
			</g>
			<g opacity="0.7">
				
					<ellipse transform="matrix(-0.9524 -0.305 0.305 -0.9524 282.4135 345.4355)" fill="#FFFFFF" cx="168.187" cy="150.66" rx="5.596" ry="6.521"/>
			</g>
			<g opacity="0.35">
				<path fill="#111A28" d="M190.724,89.195c9.828,9.23,15.69,21.962,15.825,38.659c0.125,15.714-4.862,30.339-13.482,42.477
					c-6.469,9.099-33.225,25.146-66.414,25.712c-11.719,0.202-23.051-2.023-32.963-5.356c40.782-1.565,73.371-21.259,81.391-32.545
					c10.949-15.404,17.273-33.97,17.112-53.905C192.155,98.909,191.645,93.899,190.724,89.195z"/>
			</g>
			<g>
				<path fill="#1F1F23" d="M52.709,95.428c-0.407,0-0.815-0.136-1.151-0.415c-0.739-0.613-0.872-1.687-0.311-2.454
					c13.877-20.731,41.034-32.772,74.521-33.039c33.272-0.281,60.638,10.971,75.06,30.827c0.5,0.655,0.505,1.591-0.039,2.251
					c-0.629,0.763-1.748,0.884-2.521,0.266c-0.014-0.011-0.039-0.032-0.052-0.044l-0.166-0.141l-0.127-0.176
					c-13.721-18.918-39.997-29.605-72.126-29.367c-32.297,0.258-58.385,11.732-71.575,31.481l-0.126,0.167
					C53.738,95.21,53.224,95.428,52.709,95.428z"/>
			</g>
			<g opacity="0.7">
				<path fill="#FFFFFF" d="M65.095,153.716c0,0-13.203-40.911,8.771-57.431s53.775-16.707,53.047-14.661
					c0,0-35.138,8.803-48.691,36.745C67.77,139.915,65.095,153.716,65.095,153.716z"/>
			</g>
		</g>
		<g>
			<path fill="#FFF2BD" d="M23.708,273.522L20.614,274c-0.62,0.096-1.106,0.582-1.202,1.202l-0.478,3.094l-0.478-3.094
				c-0.096-0.62-0.582-1.106-1.202-1.202l-3.094-0.478l3.094-0.478c0.62-0.096,1.106-0.582,1.202-1.202l0.478-3.094l0.478,3.094
				c0.096,0.62,0.582,1.106,1.202,1.202L23.708,273.522z"/>
		</g>
		<g>
			<path fill="#FFF2BD" d="M215.378,294.656l-2.474,0.382c-0.496,0.077-0.885,0.465-0.961,0.961l-0.382,2.474l-0.382-2.474
				c-0.077-0.496-0.465-0.885-0.961-0.961l-2.474-0.382l2.474-0.382c0.496-0.077,0.885-0.466,0.961-0.961l0.382-2.474l0.382,2.474
				c0.077,0.496,0.465,0.885,0.961,0.961L215.378,294.656z"/>
		</g>
		<g>
			<path fill="#FFF2BD" d="M55.494,295.164l-2.038,0.315c-0.408,0.063-0.729,0.384-0.792,0.792l-0.315,2.038l-0.315-2.038
				c-0.063-0.408-0.384-0.729-0.792-0.792l-2.038-0.315l2.038-0.315c0.408-0.063,0.729-0.384,0.792-0.792l0.315-2.038l0.315,2.038
				c0.063,0.408,0.384,0.729,0.792,0.792L55.494,295.164z"/>
		</g>
		<g>
			<path fill="#FFF2BD" d="M84.911,301.894l-2.038,0.315c-0.408,0.063-0.729,0.384-0.792,0.792l-0.315,2.038l-0.315-2.038
				c-0.063-0.408-0.384-0.729-0.792-0.792l-2.038-0.315l2.038-0.315c0.408-0.063,0.729-0.384,0.792-0.792l0.315-2.038l0.315,2.038
				c0.063,0.408,0.384,0.729,0.792,0.792L84.911,301.894z"/>
		</g>
		<g>
			<path fill="#FFF2BD" d="M107.387,311.011l-2.359,0.364c-0.473,0.073-0.844,0.444-0.917,0.917l-0.364,2.359l-0.364-2.359
				c-0.073-0.473-0.444-0.844-0.917-0.917l-2.359-0.364l2.359-0.364c0.473-0.073,0.844-0.444,0.917-0.917l0.364-2.359l0.364,2.359
				c0.073,0.473,0.444,0.844,0.917,0.917L107.387,311.011z"/>
		</g>
		<g>
			<path fill="#FFF2BD" d="M30.686,291.63l-2.038,0.315c-0.408,0.063-0.729,0.384-0.792,0.792l-0.315,2.038l-0.315-2.038
				c-0.063-0.408-0.384-0.729-0.792-0.792l-2.038-0.315l2.038-0.315c0.408-0.063,0.729-0.384,0.792-0.792l0.315-2.038l0.315,2.038
				c0.063,0.408,0.384,0.729,0.792,0.792L30.686,291.63z"/>
		</g>
	</g>
</g>
</svg>
