<?xml version="1.0" encoding="utf-8"?>
<!-- Generator: Adobe Illustrator 17.0.0, SVG Export Plug-In . SVG Version: 6.00 Build 0)  -->
<!DOCTYPE svg PUBLIC "-//W3C//DTD SVG 1.1//EN" "http://www.w3.org/Graphics/SVG/1.1/DTD/svg11.dtd">
<svg version="1.1" id="Camada_1" xmlns="http://www.w3.org/2000/svg" xmlns:xlink="http://www.w3.org/1999/xlink" x="0px" y="0px"
	 width="173px" height="157px" viewBox="0 0 173 157" enable-background="new 0 0 173 157" xml:space="preserve">
<g>
	<g>
		<g>
			<g>
				<path fill="#FFFFFF" d="M75.344,63.392l-4.528,8.262l-1.945,3.551c0,0-0.647,0.044-1.772,0.031
					c-5.462-0.066-22.208-1.521-30.866-16.237c-7.165-12.18-2.781-17.934,4.123-17.787c1.669,0.038,3.246,0.786,5,2.04
					c4.318,3.08,9.701,9.204,20.109,15.229C68.346,60.149,71.611,61.809,75.344,63.392z"/>
			</g>
		</g>
		<g>
			<g>
				<path fill="#181932" d="M46.071,70.054c-0.32,0-0.623-0.188-0.755-0.502c-0.175-0.416,0.021-0.895,0.437-1.07l0,0
					c0.388-0.164,9.514-4.164,10.414-16.182c0.034-0.451,0.43-0.785,0.877-0.754c0.45,0.034,0.788,0.426,0.754,0.877
					c-0.977,13.046-10.986,17.389-11.411,17.567C46.284,70.034,46.177,70.054,46.071,70.054z"/>
			</g>
		</g>
		<g opacity="0.25">
			<g>
				<path fill="#361B45" d="M75.344,63.392l-4.528,8.262l-1.945,3.551c0,0-0.647,0.044-1.772,0.031
					c-5.462-0.066-22.208-1.521-30.866-16.237c-3.303-5.613-4.151-9.861-3.432-12.796c0.44,2.335,1.53,5.116,3.432,8.347
					c8.658,14.716,25.404,16.171,30.866,16.237c1.125,0.013,1.772-0.031,1.772-0.031l1.945-3.551l2.561-4.673
					C74.018,62.821,74.675,63.106,75.344,63.392z"/>
			</g>
		</g>
		<g>
			<g>
				<path fill="#181932" d="M67.487,76.332c-2.13,0-6.371-0.201-11.303-1.521c-9.251-2.474-16.475-7.751-20.892-15.26
					c-4.93-8.382-4.202-13.149-2.723-15.673c1.465-2.499,4.249-3.835,7.81-3.756c3.377,0.072,6.284,2.603,10.306,6.107
					c5.211,4.538,12.347,10.754,25.085,16.16c0.555,0.236,0.813,0.876,0.578,1.43c-0.235,0.554-0.876,0.813-1.43,0.578
					c-13.057-5.542-20.345-11.889-25.665-16.523c-3.813-3.321-6.333-5.515-8.92-5.571c-2.749-0.061-4.835,0.892-5.882,2.678
					c-1.673,2.854-0.707,7.636,2.721,13.463c4.168,7.086,10.731,11.877,19.507,14.241c6.61,1.78,12.061,1.435,12.115,1.432
					c0.596-0.047,1.121,0.413,1.162,1.013c0.041,0.601-0.412,1.121-1.012,1.163C68.877,76.298,68.359,76.332,67.487,76.332z"/>
			</g>
		</g>
		<g>
			<g>
				<path fill="#FFFFFF" d="M113.566,103.538c-4.233,4.849-12.74,6.074-14.921,9.352c-1.914,2.875-1.229,6.54-1.043,10.38
					c0.157,3.287-0.405,7.589-3.168,11.316c-4.183,5.638-12.121,6.225-16.423,2.64c-4.912-4.095,1.191-14.393,2.077-15.662
					c0,0-1.342-1.647-2.589-3.13c-0.908-1.081-1.546-2.618-1.879-4.368c-9.955-0.55-17.9,7.457-23.17,8.884
					c-5.851,1.584-12.202-2.611-16.461-10.801c-3.501-6.734-0.952-12.69,4.233-13.315c3.963-0.475,10.807,4.931,10.807,4.931
					s3.111-13.569,14.924-11.979c0,0,1.288-6.694,1.144-16.549c-0.022-1.54-0.079-3.161-0.182-4.843
					c-0.226-3.711-0.672-7.731-1.452-11.913c-0.088-0.453-0.176-0.905-0.267-1.361l37.261-2.536c0.657,0.742,1.285,1.49,1.892,2.244
					c0.575,0.717,1.128,1.436,1.659,2.159c2.63,3.579,4.748,7.272,6.405,10.936C118.865,84.199,118.312,98.099,113.566,103.538z"/>
			</g>
		</g>
		<g>
			<g>
				<path fill="#FFFFFF" d="M82.072,115.649c-12.991-5.741-23.258,5.578-29.621,7.3c-5.851,1.584-12.202-2.611-16.461-10.801
					c-1.307-2.514-1.769-4.918-1.568-6.98c0.336-3.457,2.552-5.943,5.801-6.335c3.963-0.475,10.807,4.931,10.807,4.931
					s3.111-13.569,14.924-11.979c0,0,3.051-15.851-0.757-34.665l12.089,41.928L82.072,115.649z"/>
			</g>
		</g>
		<g opacity="0.25">
			<g>
				<path fill="#361B45" d="M82.072,115.649c-12.991-5.741-23.258,5.578-29.621,7.3c-5.851,1.584-12.202-2.611-16.461-10.801
					c-1.307-2.514-1.769-4.918-1.568-6.98c5.679,9.663,24.565,1.552,28.66-1.832c3.812-3.152,14.475-6.31,21.898-6.101
					L82.072,115.649z"/>
			</g>
		</g>
		<g>
			<g>
				<path fill="#1F1F23" d="M65.87,116.832c-0.039,0-0.079-0.003-0.119-0.009c-0.447-0.065-0.756-0.481-0.691-0.928
					c2.098-14.363-9.277-20.221-9.393-20.279c-0.404-0.202-0.568-0.693-0.366-1.098c0.202-0.404,0.693-0.568,1.098-0.366
					c0.129,0.065,3.203,1.623,6.018,5.115c2.598,3.223,5.446,8.764,4.263,16.865C66.619,116.539,66.269,116.832,65.87,116.832z"/>
			</g>
		</g>
		<g>
			<g>
				<path fill="#FFFFFF" d="M55.175,101.668"/>
			</g>
		</g>
		<g>
			<g>
				<path fill="#1F1F23" d="M49.937,124.377c-5.51,0-11.033-4.262-14.914-11.726c-2.046-3.934-2.304-7.924-0.707-10.947
					c1.185-2.243,3.236-3.646,5.776-3.952c3.342-0.404,8.072,2.594,10.353,4.216c1.258-3.569,5.243-11.993,14.6-11.37
					c0.57-3.719,2.271-17.518-0.918-33.261c-0.12-0.59,0.262-1.166,0.853-1.285c0.587-0.12,1.165,0.262,1.285,0.853
					c3.81,18.807,0.79,34.927,0.759,35.088l-0.195,1.012l-1.021-0.137c-10.671-1.436-13.594,10.628-13.713,11.143l-0.388,1.675
					l-1.351-1.064c-1.807-1.426-7.135-5.041-10.004-4.703c-1.809,0.218-3.267,1.214-4.108,2.805
					c-1.257,2.38-0.997,5.633,0.714,8.922c4.041,7.77,9.868,11.698,15.206,10.253c1.643-0.445,3.655-1.636,5.984-3.015
					c6.122-3.624,14.506-8.586,24.366-4.23c0.551,0.243,0.8,0.888,0.557,1.438c-0.243,0.551-0.888,0.8-1.438,0.557
					c-8.833-3.904-16.341,0.54-22.373,4.112c-2.466,1.46-4.596,2.721-6.525,3.243C51.808,124.254,50.872,124.377,49.937,124.377z"/>
			</g>
		</g>
		<g>
			<g>
				<path fill="none" stroke="#361B45" stroke-width="1.6361" stroke-linecap="round" stroke-miterlimit="10" d="M55.175,101.668"/>
			</g>
		</g>
		<g>
			<g>
				<g>
					<path fill="#EDDF5E" d="M28.733,115.901l-12.531,2.733c-10.139,2.211-16.565,12.222-14.355,22.361l0,0
						c2.211,10.139,12.222,16.565,22.361,14.355l12.531-2.733L28.733,115.901z"/>
				</g>
			</g>
			<g opacity="0.6">
				<g>
					<path fill="#FFFFFF" d="M36.738,151.879l-0.321,0.069l-6.87-31.504l-12.529,2.731c-8.862,1.933-14.889,9.82-14.789,18.547
						c-0.148-0.481-0.273-0.968-0.383-1.468c-2.209-10.138,4.217-20.15,14.355-22.359l12.532-2.734L36.738,151.879z"/>
				</g>
			</g>
			<g>
				<g opacity="0.3">
					<g>
						<path fill="#361B45" d="M2.652,137.765c0.042,0.237,0.088,0.474,0.14,0.711c1.105,5.069,4.16,9.211,8.207,11.809
							c4.046,2.598,9.085,3.651,14.154,2.545l11.104-2.421l-1.712-7.851l-12.53,2.732C14.409,146.949,6.874,143.747,2.652,137.765
							L2.652,137.765z"/>
					</g>
				</g>
			</g>
			<g>
				<g>
					<path fill="#1F1F23" d="M20.165,156.878c-3.765,0-7.456-1.074-10.7-3.157c-4.469-2.869-7.552-7.306-8.684-12.494
						c-2.336-10.71,4.478-21.323,15.188-23.659l12.531-2.732c0.282-0.062,0.578-0.008,0.822,0.148
						c0.243,0.156,0.415,0.403,0.476,0.686l8.006,36.716c0.129,0.589-0.245,1.17-0.833,1.298l-12.531,2.732
						C23.019,156.725,21.586,156.878,20.165,156.878z M27.9,117.199l-11.465,2.5C6.9,121.779,0.834,131.228,2.913,140.762
						c1.007,4.619,3.753,8.569,7.731,11.123c3.978,2.554,8.713,3.405,13.332,2.398l11.465-2.5L27.9,117.199z"/>
				</g>
			</g>
			<g>
				<g>
					
						<rect x="34.739" y="103.137" transform="matrix(0.977 -0.2131 0.2131 0.977 -23.9316 21.8021)" fill="#EDDF5E" width="108.903" height="37.6"/>
				</g>
			</g>
			<g opacity="0.5">
				<g>
					<polygon fill="#FFFFFF" points="139.152,95.648 146.395,128.719 147.184,128.548 139.152,91.878 32.472,115.038 
						33.261,118.637 					"/>
				</g>
			</g>
			<g opacity="0.3">
				<g>
					<polygon fill="#361B45" points="143.958,117.522 37.555,140.725 39.624,150.215 39.426,149.307 145.452,126.186 
						143.581,117.605 143.958,117.522 146.397,128.705 39.993,151.907 39.993,151.907 146.397,128.705 					"/>
				</g>
			</g>
			<g>
				<g>
					<path fill="#1F1F23" d="M39.994,152.998c-0.207,0-0.412-0.059-0.589-0.173c-0.243-0.156-0.415-0.403-0.476-0.685l-8.011-36.737
						c-0.129-0.589,0.245-1.17,0.833-1.298l106.403-23.202c0.189-0.042,0.386-0.031,0.57,0.029l0.042,0.014
						c0.39,0.127,0.676,0.463,0.74,0.869c0.063,0.406-0.106,0.813-0.439,1.053c-1.875,1.352-2.768,3.687-2.275,5.947
						c0.24,1.102,0.789,2.1,1.587,2.888c0.47,0.464,0.729,1.104,0.712,1.756c-0.017,0.654-0.298,1.254-0.79,1.692
						c-1.839,1.633-2.657,4.141-2.133,6.543c0.524,2.403,2.311,4.343,4.664,5.064c0.629,0.193,1.134,0.622,1.422,1.21
						c0.287,0.586,0.318,1.276,0.084,1.893c-0.398,1.049-0.481,2.186-0.241,3.287c0.493,2.259,2.276,4.011,4.543,4.464
						c0.415,0.083,0.745,0.399,0.846,0.81c0.101,0.411-0.046,0.844-0.375,1.109l-0.005,0.004c-0.136,0.111-0.308,0.201-0.477,0.238
						L40.227,152.972C40.15,152.989,40.072,152.998,39.994,152.998z M33.281,116.003l7.546,34.606l102.184-22.282
						c-1.522-1.13-2.626-2.789-3.045-4.716c-0.33-1.515-0.215-3.08,0.332-4.525c0.027-0.072,0.014-0.127-0.003-0.16
						c-0.021-0.042-0.054-0.069-0.102-0.084c-3.106-0.951-5.465-3.513-6.157-6.685c-0.691-3.172,0.387-6.482,2.815-8.639
						c0.038-0.034,0.057-0.072,0.058-0.118c0.001-0.037-0.009-0.092-0.064-0.146c-1.099-1.086-1.855-2.46-2.186-3.976
						c-0.421-1.928-0.108-3.896,0.806-5.557L33.281,116.003z"/>
				</g>
			</g>
			<g>
				<g>
					<path fill="#FBD19E" d="M170.485,107.145l-5.191,4.647l-10.636,9.518l-8.232,7.369c-2.61-0.521-4.792-2.535-5.395-5.301
						c-0.295-1.354-0.171-2.7,0.287-3.906c0.18-0.473,0.07-0.977-0.243-1.32c-0.144-0.158-0.335-0.284-0.563-0.353
						c-2.644-0.81-4.78-2.981-5.411-5.874c-0.63-2.889,0.408-5.756,2.475-7.59c0.555-0.494,0.564-1.336,0.036-1.857
						c-0.918-0.906-1.592-2.078-1.887-3.432c-0.603-2.766,0.543-5.506,2.702-7.064l10.549,3.27l13.63,4.229l6.658,2.064
						c0.941,0.29,1.626,0.938,1.996,1.72C171.85,104.509,171.655,106.095,170.485,107.145z"/>
				</g>
			</g>
			<g opacity="0.7">
				<g>
					<path fill="#FFFFFF" d="M171.002,106.561c-0.003-0.013-0.009-0.025-0.016-0.038c-0.368-0.779-1.053-1.43-1.995-1.719
						l-6.656-2.065l-13.632-4.227l-10.549-3.271c-1.172,0.845-2.046,2.039-2.501,3.397c-0.415-2.624,0.723-5.176,2.775-6.656
						l10.549,3.268l13.629,4.23l6.659,2.065c0.94,0.289,1.625,0.937,1.996,1.719C171.75,104.295,171.7,105.561,171.002,106.561z"/>
				</g>
			</g>
			<g>
				<g opacity="0.3">
					<g>
						<path fill="#361B45" d="M142.034,125.741c0.753,0.507,1.602,0.869,2.504,1.049l8.232-7.369l11.295-9.284l4.532-4.881
							c0.308-0.276,0.546-0.59,0.723-0.924l0.079-0.043l-19.272,10.599c-2.576,1.417-5.341,2.454-8.215,3.081l-0.835,0.182
							c0.313,0.343,0.423,0.847,0.243,1.32c-0.457,1.206-0.582,2.552-0.287,3.906c0.236,1.084,0.718,2.05,1.37,2.858
							C142.272,126.076,142.148,125.912,142.034,125.741z"/>
					</g>
				</g>
			</g>
			<g>
				<g>
					<path fill="#1F1F23" d="M170.485,107.145l-5.191,4.647c-1.433-1.321-2.588-3.356-3.115-5.773
						c-0.526-2.413-0.323-4.741,0.427-6.539l6.658,2.064C171.709,102.301,172.393,105.436,170.485,107.145z"/>
				</g>
			</g>
			<g>
				<g>
					<path fill="#1F1F23" d="M146.427,129.77c-0.071,0-0.143-0.007-0.214-0.021c-3.118-0.623-5.57-3.033-6.247-6.138
						c-0.33-1.515-0.215-3.08,0.332-4.525c0.027-0.072,0.014-0.127-0.003-0.16c-0.021-0.042-0.054-0.069-0.102-0.084
						c-3.106-0.951-5.465-3.513-6.157-6.685c-0.691-3.172,0.387-6.482,2.815-8.639c0.038-0.034,0.057-0.072,0.058-0.118
						c0.001-0.037-0.009-0.092-0.064-0.146c-1.099-1.086-1.855-2.46-2.186-3.976c-0.678-3.109,0.551-6.32,3.129-8.181
						c0.278-0.2,0.634-0.258,0.961-0.157l30.837,9.564c1.527,0.473,2.643,1.688,2.985,3.25c0.342,1.564-0.166,3.136-1.359,4.204l0,0
						l-24.059,21.534C146.952,129.672,146.692,129.77,146.427,129.77z M138.653,93.193c-1.59,1.382-2.317,3.532-1.862,5.619
						c0.24,1.102,0.789,2.1,1.587,2.888c0.47,0.464,0.73,1.104,0.712,1.756c-0.017,0.654-0.298,1.254-0.79,1.692
						c-1.839,1.633-2.657,4.141-2.133,6.543c0.524,2.403,2.311,4.343,4.664,5.064c0.629,0.193,1.134,0.622,1.422,1.21
						c0.287,0.586,0.318,1.276,0.084,1.893c-0.398,1.049-0.481,2.186-0.241,3.287c0.455,2.086,2.01,3.739,4.031,4.337l23.63-21.151
						l0,0.001c0.6-0.538,0.855-1.328,0.683-2.114c-0.171-0.785-0.732-1.395-1.499-1.632L138.653,93.193z M170.485,107.145h0.003
						H170.485z"/>
				</g>
			</g>
			<g>
				<g>
					<path fill="#EDDF5E" d="M37.488,155.435c-4.016,0.876-7.879-1.064-8.702-4.371c-1.042-4.187-2.441-9.956-3.58-15.175
						c-1.138-5.219-2.268-11.047-3.063-15.288c-0.628-3.349,2.076-6.721,6.092-7.597h0c4.156-0.906,8.115,1.2,8.767,4.667
						c0.792,4.213,1.895,9.892,3.007,14.99c1.112,5.098,2.472,10.72,3.506,14.881C44.366,150.965,41.644,154.529,37.488,155.435
						L37.488,155.435z"/>
				</g>
			</g>
			<g opacity="0.6">
				<g>
					<path fill="#FFFFFF" d="M37.332,119.414c-1.292-1.785-3.617-2.879-6.213-2.879c-0.663,0-1.345,0.069-2.03,0.22
						c-3.57,0.779-6.153,3.435-6.467,6.364c-0.17-0.886-0.33-1.728-0.478-2.517c-0.629-3.35,2.074-6.719,6.09-7.595
						c0.654-0.141,1.304-0.211,1.936-0.211c3.385,0,6.285,1.958,6.832,4.877C37.106,118.229,37.216,118.81,37.332,119.414z"/>
				</g>
			</g>
			<g>
				<g opacity="0.3">
					<g>
						<path fill="#361B45" d="M24.956,134.368c0.017,0.073,0.034,0.145,0.052,0.218C24.99,134.514,24.973,134.441,24.956,134.368z"
							/>
					</g>
				</g>
				<g opacity="0.3">
					<g>
						<path fill="#361B45" d="M24.731,133.417c0,0,0,0.002,0,0.002C24.731,133.419,24.731,133.418,24.731,133.417z"/>
					</g>
				</g>
				<g opacity="0.3">
					<g>
						<path fill="#361B45" d="M24.459,132.261c0.016,0.067,0.031,0.133,0.047,0.2C24.491,132.395,24.475,132.328,24.459,132.261z"/>
					</g>
				</g>
				<g opacity="0.3">
					<g>
						<path fill="#361B45" d="M25.451,136.442c0.015,0.063,0.031,0.127,0.046,0.19C25.482,136.569,25.467,136.505,25.451,136.442z"
							/>
					</g>
				</g>
				<g opacity="0.3">
					<g>
						<path fill="#361B45" d="M42.857,144.873c-0.382-1.564-0.789-3.248-1.196-4.976v0
							C42.069,141.626,42.475,143.309,42.857,144.873z"/>
					</g>
				</g>
				<g opacity="0.3">
					<g>
						<path fill="#361B45" d="M28.787,151.064c-0.023-0.091-0.046-0.185-0.069-0.278C28.74,150.878,28.764,150.973,28.787,151.064
							c0.254,1.023,0.801,1.915,1.552,2.633C29.587,152.979,29.041,152.087,28.787,151.064z"/>
					</g>
				</g>
				<g opacity="0.3">
					<g>
						<path fill="#361B45" d="M25.943,138.471c0.007,0.029,0.014,0.058,0.021,0.087C25.958,138.529,25.95,138.5,25.943,138.471z"/>
					</g>
				</g>
				<g opacity="0.3">
					<g>
						<path fill="#361B45" d="M28.186,148.639c0.871,3.249,4.695,5.145,8.672,4.278c4.154-0.906,6.88-4.469,6.027-7.892
							c-0.377-1.517-0.798-3.231-1.233-5.04c0-0.007,0.001-0.014,0.002-0.022c-0.179,2.866-2.665,5.525-6.169,6.289
							c-4.016,0.876-7.88-1.064-8.701-4.371c-0.189-0.759-0.39-1.57-0.599-2.419c-0.009-0.034-0.023-0.065-0.031-0.099
							c-0.487-1.955-1.052-4.257-1.632-6.685c-0.097-0.461-0.193-0.923-0.289-1.385l0-0.001c0.321,1.548,0.647,3.098,0.973,4.596
							c0.936,4.293,2.047,8.957,2.993,12.806C28.195,148.676,28.191,148.658,28.186,148.639z"/>
					</g>
				</g>
				<g opacity="0.3">
					<g>
						<path fill="#361B45" d="M34.078,155.511c1.076,0.189,2.236,0.18,3.41-0.076c0.909-0.198,1.749-0.523,2.499-0.947
							c-0.75,0.423-1.59,0.749-2.499,0.947C36.313,155.691,35.154,155.7,34.078,155.511z"/>
					</g>
				</g>
				<g opacity="0.3">
					<g>
						<path fill="#361B45" d="M32.747,155.158c-0.278-0.101-0.55-0.21-0.808-0.34C32.197,154.948,32.469,155.057,32.747,155.158z"/>
					</g>
				</g>
				<g opacity="0.3">
					<g>
						<path fill="#361B45" d="M40.606,154.102c-0.199,0.136-0.406,0.265-0.62,0.386C40.201,154.368,40.408,154.239,40.606,154.102z"
							/>
					</g>
				</g>
				<g opacity="0.3">
					<g>
						<path fill="#361B45" d="M28.436,149.651c-0.028-0.112-0.055-0.223-0.083-0.337C28.38,149.427,28.408,149.539,28.436,149.651z"
							/>
					</g>
				</g>
				<g opacity="0.3">
					<g>
						<path fill="#361B45" d="M41.178,153.673c-0.182,0.15-0.373,0.294-0.572,0.43C40.805,153.966,40.996,153.823,41.178,153.673z"
							/>
					</g>
				</g>
				<g opacity="0.3">
					<g>
						<path fill="#361B45" d="M28.621,150.396c-0.026-0.107-0.053-0.215-0.08-0.324C28.567,150.181,28.594,150.29,28.621,150.396z"
							/>
					</g>
				</g>
				<g opacity="0.3">
					<g>
						<path fill="#361B45" d="M30.36,153.72c0.22,0.208,0.462,0.395,0.714,0.573C30.821,154.115,30.579,153.928,30.36,153.72z"/>
					</g>
				</g>
			</g>
			<g opacity="0.25">
				<g>
					<path fill="#361B45" d="M36.971,117.517c0.011,0.052,0.019,0.102,0.03,0.154c0.559,2.975,1.273,6.676,2.037,10.389
						c-0.358-1.54-0.705-3.085-1.032-4.583c-0.516-2.367-1.03-4.857-1.511-7.268C36.71,116.616,36.87,117.054,36.971,117.517z"/>
				</g>
			</g>
			<g opacity="0.25">
				<g>
					<path fill="#361B45" d="M41.512,138.357c0.128,0.512,0.176,1.029,0.149,1.54c-0.567-2.392-1.136-4.87-1.652-7.237
						c-0.327-1.501-0.656-3.051-0.971-4.6C39.89,131.757,40.782,135.422,41.512,138.357z"/>
				</g>
			</g>
			<g>
				<g>
					<path fill="#1F1F23" d="M35.526,156.594c-3.689,0-6.856-2.084-7.656-5.301c-0.997-4.004-2.428-9.891-3.586-15.202
						c-1.159-5.317-2.309-11.263-3.069-15.315c-0.728-3.882,2.267-7.701,6.819-8.693c2.499-0.545,5.046-0.12,6.988,1.167
						c1.554,1.029,2.586,2.538,2.908,4.248c0.744,3.957,1.868,9.764,3.002,14.963c1.133,5.195,2.529,10.945,3.5,14.854
						c0.42,1.688,0.109,3.49-0.875,5.073c-1.23,1.978-3.369,3.425-5.868,3.97h0C36.958,156.517,36.232,156.594,35.526,156.594z
						 M37.488,155.435h0.003H37.488z M30.176,113.739c-0.573,0-1.157,0.062-1.739,0.189c-3.488,0.761-5.895,3.677-5.365,6.5
						c0.758,4.039,1.903,9.966,3.057,15.26c1.153,5.288,2.58,11.157,3.573,15.148c0.694,2.787,4.096,4.436,7.584,3.676l0,0
						c2.003-0.437,3.704-1.575,4.666-3.123c0.722-1.162,0.946-2.414,0.646-3.62c-0.975-3.921-2.375-9.69-3.512-14.908
						c-1.138-5.22-2.267-11.047-3.013-15.016c-0.23-1.221-0.954-2.266-2.095-3.022C32.902,114.111,31.572,113.739,30.176,113.739z"
						/>
				</g>
			</g>
		</g>
		<g>
			<g>
				<path fill="#FFFFFF" d="M122.791,55.718c5.017,3.76,9.615,21.664,8.452,32.338s-20.028,11.472-30.817,11.126
					c-10.789-0.346-10.752-24.741-10.61-31.276C90.037,57.701,115.357,50.146,122.791,55.718z"/>
			</g>
		</g>
		<g opacity="0.25">
			<g>
				<path fill="#361B45" d="M100.426,99.182c10.789,0.346,29.654-0.454,30.819-11.127c0.151-1.398,0.205-2.918,0.171-4.516
					c-2.98,2.343-7.131,0.258-7.632-2.606c-3.091-17.682-9.675-24.468-12.861-26.79c-9.706,1.36-20.961,6.974-21.106,13.763
					C89.674,74.44,89.637,98.836,100.426,99.182z"/>
			</g>
		</g>
		<g>
			<g>
				<path fill="#1F1F23" d="M104.191,100.335c-1.282,0-2.551-0.022-3.8-0.062c-10.753-0.345-11.925-20.441-11.666-32.39
					c0.089-4.111,3.619-8.07,9.94-11.147c7.96-3.875,19.697-5.699,24.78-1.89l0,0c5.738,4.3,10.005,23.016,8.883,33.328
					C131.257,98.013,117.204,100.335,104.191,100.335z M115.135,54.908c-4.642,0-10.447,1.322-15.515,3.789
					c-5.468,2.662-8.644,6.027-8.714,9.233c-0.152,6.999,0.09,29.859,9.555,30.163c10.643,0.342,28.649-0.524,29.698-10.154
					c1.12-10.289-3.379-27.867-8.023-31.347l0,0C120.619,55.453,118.116,54.908,115.135,54.908z"/>
			</g>
		</g>
		<g>
			<g>
				<path fill="#FFFFFF" d="M121.732,73.626l4.788-1.909c1.082-0.431,2.3,0.181,2.593,1.309c1.006,3.88,2.555,11.923-1.35,13.57
					c-4.732,1.995-6.409-3.463-7.241-10.963C120.426,74.769,120.924,73.948,121.732,73.626z"/>
			</g>
		</g>
		<g opacity="0.25">
			<g>
				<path fill="#361B45" d="M120.532,75.621c0.814,7.501,2.479,12.965,7.215,10.979c1.946-0.813,2.543-3.218,2.528-5.904
					c-0.395,0.769-0.96,1.364-1.752,1.695c-4.24,1.776-6.021-2.417-6.928-8.703C120.873,74.04,120.442,74.813,120.532,75.621z"/>
			</g>
		</g>
		<g>
			<g>
				<path fill="#1F1F23" d="M125.922,88.103c-0.758,0-1.464-0.191-2.112-0.573c-2.309-1.362-3.614-4.888-4.364-11.791
					c-0.146-1.346,0.634-2.636,1.897-3.136l4.793-1.898c0.809-0.32,1.717-0.278,2.492,0.117c0.773,0.394,1.34,1.101,1.556,1.94
					c1.481,5.766,2.334,13.022-2.015,14.844C127.378,87.938,126.627,88.103,125.922,88.103z M127.251,72.672
					c-0.095,0-0.2,0.016-0.312,0.061l-4.793,1.898c-0.354,0.14-0.572,0.499-0.532,0.872c0.235,2.166,0.952,8.76,3.303,10.147
					c0.635,0.374,1.423,0.356,2.407-0.056c2.598-1.088,2.088-7.062,0.746-12.289c-0.082-0.319-0.307-0.475-0.433-0.54
					C127.556,72.724,127.42,72.672,127.251,72.672z M121.745,73.617h0.003H121.745z"/>
			</g>
		</g>
		<g>
			<g>
				<path fill="#361B45" d="M124.309,57.825c-1.169,0.352-2.347,0.725-3.514,1.107c-1.168,0.384-2.331,0.781-3.48,1.207
					l-0.002,0.001c-0.283,0.105-0.598-0.039-0.703-0.322c-0.096-0.257,0.015-0.541,0.249-0.669c1.094-0.601,2.2-1.172,3.312-1.729
					c1.114-0.557,2.227-1.099,3.36-1.632c0.547-0.257,1.198-0.023,1.455,0.524c0.257,0.547,0.022,1.198-0.524,1.455
					c-0.047,0.022-0.095,0.041-0.144,0.056L124.309,57.825z"/>
			</g>
		</g>
		<g>
			<g>
				<path fill="none" stroke="#361B45" stroke-width="1.6361" stroke-linecap="round" stroke-miterlimit="10" d="M72.21,113.904"/>
			</g>
		</g>
		<g>
			<g>
				<path fill="#FFFFFF" d="M66.709,65.737l-1.513-8.618C65.93,60.05,66.415,62.943,66.709,65.737z"/>
			</g>
		</g>
		<g>
			<g>
				<path fill="#FFFFFF" d="M89.833,124.534"/>
			</g>
		</g>
		<g>
			<g>
				<path fill="#30B0D0" d="M91.802,65.963"/>
			</g>
		</g>
		<g>
			<g>
				<path fill="#FFFFFF" d="M76.274,80.349c-4.853-1.474,11.866,15.373,7.263,17.477c-1.594,0.729-3.135,1.689-4.41,2.953
					c-4.658,4.62-4.789,13.896-1.626,17.655c1.247,1.482,2.588,3.128,2.588,3.128c-0.886,1.27-6.99,11.569-2.078,15.663
					c4.301,3.586,12.24,2.997,16.422-2.642c2.764-3.727,3.325-8.027,3.168-11.314c-0.184-3.843-0.871-7.506,1.044-10.382
					c2.181-3.276,10.687-4.501,14.92-9.351c6.471-7.415,5.15-30.57-11.109-48.955"/>
			</g>
		</g>
		<g>
			<g>
				<path fill="#FFFFFF" d="M98.263,96.951c-4.853-1.474-10.123-1.229-14.725,0.876c-1.594,0.729-3.135,1.689-4.41,2.953
					c-4.658,4.62-4.789,13.896-1.626,17.655c1.247,1.482,2.588,3.128,2.588,3.128c-0.886,1.27-6.99,11.569-2.078,15.663
					c4.301,3.586,12.24,2.997,16.422-2.642c2.764-3.727,3.325-8.027,3.168-11.314c-0.184-3.843-0.871-7.506,1.044-10.382
					c2.181-3.276,10.687-4.501,14.92-9.351c6.471-7.415,5.15-30.57-11.109-48.955L98.263,96.951z"/>
			</g>
		</g>
		<g opacity="0.25">
			<g>
				<path fill="#361B45" d="M113.566,103.538c-4.233,4.849-12.74,6.074-14.921,9.352c-1.914,2.875-1.229,6.54-1.043,10.38
					c0.157,3.287-0.405,7.589-3.168,11.316c-4.183,5.638-12.121,6.225-16.423,2.64c-0.779-0.647-1.279-1.449-1.568-2.347
					c4.808,2.577,12.711,3.017,16.363-1.911c2.762-3.727,1.49-8.551,1.333-11.838c-0.185-3.843-1.587-9.351,1.095-12.48
					c4.292-5.007,10.636-2.403,14.869-7.255c6.005-6.879,5.301-27.321-7.831-44.922l0.185-1.889
					C118.714,72.968,120.037,96.122,113.566,103.538z"/>
			</g>
		</g>
		<g>
			<g>
				<path fill="#1F1F23" d="M98.157,97.299c-0.9-0.103-1.781-0.21-2.661-0.268c-0.881-0.045-1.753-0.088-2.623-0.058
					c-0.868,0.024-1.732,0.078-2.586,0.187c-0.854,0.108-1.703,0.239-2.533,0.453c-0.418,0.093-0.826,0.224-1.238,0.335
					c-0.404,0.139-0.814,0.259-1.209,0.422c-0.798,0.297-1.581,0.648-2.327,1.048c-0.747,0.397-1.456,0.851-2.111,1.359
					c-0.327,0.255-0.64,0.525-0.935,0.81c-0.139,0.146-0.283,0.287-0.419,0.435c-0.13,0.156-0.269,0.302-0.393,0.465
					c-1.011,1.28-1.717,2.835-2.159,4.466c-0.434,1.636-0.597,3.359-0.499,5.05c0.099,1.685,0.468,3.373,1.221,4.765
					c0.19,0.344,0.405,0.662,0.64,0.952l0.868,1.05l1.741,2.105l0.518,0.626l-0.469,0.687c-0.155,0.227-0.33,0.513-0.492,0.786
					c-0.163,0.279-0.324,0.56-0.478,0.847c-0.31,0.572-0.603,1.154-0.878,1.744c-0.55,1.179-1.019,2.39-1.373,3.614
					c-0.345,1.222-0.577,2.471-0.545,3.656c0.017,1.188,0.337,2.283,1.017,3.073l0.125,0.151c0.044,0.048,0.096,0.09,0.143,0.136
					c0.103,0.088,0.176,0.185,0.307,0.269c0.242,0.169,0.468,0.358,0.719,0.516c0.261,0.143,0.515,0.298,0.778,0.437l0.826,0.355
					c1.133,0.413,2.357,0.607,3.581,0.598c1.225-0.009,2.451-0.219,3.614-0.614c1.169-0.385,2.246-1.008,3.208-1.759
					c1.937-1.485,3.296-3.721,4.114-6.089c0.393-1.196,0.666-2.439,0.785-3.706c0.068-0.632,0.095-1.27,0.096-1.909
					c0.003-0.319-0.01-0.639-0.02-0.958l-0.057-0.99c-0.084-1.327-0.209-2.688-0.214-4.104c-0.006-0.706,0.036-1.433,0.133-2.165
					c0.094-0.732,0.271-1.478,0.551-2.198c0.066-0.181,0.137-0.361,0.227-0.535c0.088-0.174,0.161-0.354,0.263-0.521l0.302-0.502
					c0.118-0.168,0.247-0.355,0.384-0.509c0.548-0.635,1.166-1.102,1.782-1.504c1.239-0.79,2.499-1.358,3.734-1.923
					c2.466-1.113,4.897-2.161,6.964-3.636c1.021-0.735,1.957-1.579,2.65-2.544c0.708-0.977,1.242-2.122,1.649-3.32
					c0.407-1.2,0.69-2.458,0.893-3.734c0.182-1.282,0.287-2.58,0.319-3.886c0.048-2.613-0.187-5.243-0.621-7.84
					c-0.902-5.194-2.625-10.253-4.979-14.987c-1.175-2.373-2.621-4.594-4.049-6.816c-1.438-2.224-2.937-4.391-4.257-6.796
					l-0.001-0.002c-0.099-0.18-0.033-0.406,0.147-0.505c0.131-0.072,0.286-0.056,0.399,0.026c2.24,1.641,4.048,3.742,5.627,5.984
					c1.588,2.243,2.867,4.685,4.091,7.137c2.437,4.914,4.231,10.162,5.174,15.592c0.454,2.717,0.703,5.477,0.651,8.254
					c-0.034,1.388-0.144,2.779-0.342,4.165c-0.219,1.385-0.528,2.765-0.987,4.117c-0.461,1.349-1.07,2.679-1.943,3.889
					c-0.887,1.228-1.987,2.201-3.148,3.039c-2.336,1.661-4.9,2.746-7.334,3.85c-1.214,0.553-2.416,1.106-3.45,1.768
					c-0.512,0.331-0.971,0.697-1.304,1.084c-0.088,0.098-0.147,0.191-0.225,0.297l-0.219,0.365c-0.076,0.12-0.126,0.255-0.192,0.381
					c-0.067,0.125-0.119,0.259-0.167,0.395c-0.422,1.069-0.536,2.305-0.538,3.578c0.003,1.279,0.122,2.606,0.209,3.967l0.059,1.027
					c0.012,0.354,0.026,0.708,0.023,1.062c-0.002,0.709-0.031,1.419-0.107,2.126c-0.135,1.416-0.44,2.822-0.889,4.185
					c-0.465,1.358-1.092,2.669-1.882,3.878c-0.211,0.294-0.401,0.597-0.632,0.882l-0.702,0.848c-0.241,0.277-0.519,0.52-0.778,0.781
					c-0.254,0.267-0.548,0.489-0.837,0.716c-1.155,0.904-2.451,1.645-3.844,2.107c-1.388,0.472-2.848,0.724-4.317,0.734
					c-1.467,0.009-2.946-0.221-4.347-0.733l-1.03-0.443c-0.332-0.173-0.657-0.367-0.984-0.552c-0.319-0.201-0.616-0.44-0.922-0.662
					c-0.152-0.101-0.303-0.262-0.452-0.396c-0.074-0.071-0.151-0.138-0.221-0.214l-0.2-0.235c-0.534-0.628-0.928-1.371-1.171-2.133
					c-0.249-0.764-0.341-1.54-0.361-2.293c-0.036-1.513,0.245-2.944,0.628-4.31c0.395-1.364,0.904-2.672,1.493-3.935
					c0.294-0.632,0.607-1.253,0.939-1.866c0.165-0.307,0.338-0.61,0.516-0.913c0.182-0.306,0.357-0.596,0.582-0.926l0.049,1.313
					l-1.727-2.087l-0.865-1.047c-0.338-0.414-0.63-0.851-0.878-1.301c-0.972-1.813-1.365-3.761-1.486-5.686
					c-0.112-1.929,0.075-3.862,0.565-5.734c0.483-1.871,1.282-3.695,2.492-5.291c1.227-1.62,2.823-2.825,4.517-3.757
					c0.85-0.461,1.729-0.851,2.633-1.177c0.904-0.325,1.828-0.594,2.769-0.775c3.744-0.777,7.732-0.412,11.105,1.206
					c0.183,0.088,0.26,0.308,0.173,0.491c-0.069,0.145-0.222,0.224-0.373,0.207L98.157,97.299z"/>
			</g>
		</g>
		<g>
			<g>
				<path fill="#1F1F23" d="M97.501,116.717c-0.036,0-0.073-0.002-0.11-0.007c-0.448-0.061-0.762-0.473-0.701-0.92
					c1.177-8.71-3.918-12.79-6.164-14.14c-3.58-2.153-7.977-2.424-10.453-0.646c-0.368,0.264-0.879,0.18-1.142-0.187
					c-0.263-0.367-0.18-0.878,0.187-1.142c3.031-2.176,8.069-1.941,12.25,0.572c2.523,1.517,8.25,6.088,6.943,15.761
					C98.255,116.42,97.904,116.717,97.501,116.717z"/>
			</g>
		</g>
		<g>
			<g>
				<path fill="#1F1F23" d="M79.993,119.75l0.456,0.309l0.497,0.32c0.339,0.204,0.676,0.411,1.027,0.59
					c0.694,0.373,1.416,0.685,2.161,0.899c0.372,0.111,0.751,0.194,1.136,0.248c0.384,0.056,0.776,0.095,1.175,0.097
					c0.806,0.035,1.628-0.095,2.544-0.263c-0.581,0.721-1.405,1.261-2.326,1.565c-0.922,0.312-1.928,0.36-2.893,0.248
					c-0.969-0.115-1.906-0.392-2.777-0.785c-0.433-0.203-0.857-0.422-1.257-0.683c-0.2-0.13-0.399-0.261-0.59-0.409
					c-0.199-0.15-0.366-0.285-0.582-0.487c-0.439-0.412-0.461-1.101-0.05-1.54c0.372-0.396,0.97-0.453,1.406-0.157L79.993,119.75z"
					/>
			</g>
		</g>
		<g>
			<g>
				<path fill="#FFFFFF" d="M101.213,58.225c22.707-9.638,25.231-19.52,32.135-19.668c6.904-0.148,10.168,6.386,6.131,15.272
					c-6.642,14.618-31.791,16.208-31.791,16.208"/>
			</g>
		</g>
		<g opacity="0.25">
			<g>
				<path fill="#361B45" d="M139.48,53.83c-6.643,14.616-31.793,16.206-31.793,16.206h0c-0.604-1.102,0.026-2.477,1.257-2.731
					c7.524-1.555,20.806-5.595,26.351-15.326c2.269-3.982,3.139-8.409,2.831-12.13C141.491,42.162,142.409,47.375,139.48,53.83z"/>
			</g>
		</g>
		<g>
			<g>
				<path fill="#1F1F23" d="M101.071,57.89c1.599-1.305,3.332-2.235,5.065-3.17c1.725-0.946,3.478-1.826,5.194-2.78
					c1.716-0.953,3.368-2.013,4.978-3.131c1.609-1.12,3.173-2.302,4.69-3.551c1.523-1.244,2.995-2.553,4.524-3.864
					c0.766-0.653,1.555-1.306,2.415-1.916c0.856-0.608,1.811-1.174,2.889-1.55c0.533-0.199,1.104-0.317,1.674-0.397
					c0.285-0.035,0.574-0.047,0.858-0.063c0.275,0.006,0.549-0.004,0.825,0.017c1.101,0.067,2.227,0.28,3.275,0.756
					c1.053,0.456,2.011,1.169,2.768,2.046c0.747,0.886,1.296,1.919,1.621,2.992c0.338,1.073,0.478,2.177,0.48,3.261
					c0.005,1.085-0.122,2.153-0.337,3.19c-0.216,1.038-0.52,2.046-0.886,3.023l-0.286,0.728l-0.309,0.716
					c-0.227,0.474-0.473,0.944-0.711,1.415c-1.024,1.85-2.356,3.508-3.865,4.946c-1.511,1.439-3.192,2.667-4.954,3.726
					c-3.534,2.114-7.368,3.58-11.266,4.675c-0.976,0.272-1.957,0.524-2.943,0.748c-0.985,0.229-1.967,0.475-2.958,0.683
					c-0.992,0.204-1.999,0.328-3.013,0.375c-1.018,0.029-2.043-0.032-3.087-0.364c-0.205-0.065-0.319-0.284-0.253-0.49
					c0.033-0.103,0.104-0.183,0.193-0.229l0.014-0.007c0.94-0.48,1.892-0.772,2.847-1.01c0.957-0.224,1.915-0.414,2.882-0.565
					c0.965-0.157,1.936-0.298,2.889-0.522c0.955-0.212,1.902-0.459,2.843-0.72c3.758-1.054,7.425-2.465,10.73-4.444
					c1.648-0.99,3.2-2.127,4.572-3.435c1.371-1.307,2.558-2.79,3.463-4.425c0.208-0.418,0.425-0.829,0.629-1.252l0.283-0.654
					l0.259-0.661c0.331-0.886,0.603-1.788,0.792-2.699c0.189-0.91,0.295-1.83,0.291-2.735c0-0.905-0.118-1.796-0.381-2.623
					c-0.251-0.832-0.662-1.586-1.196-2.224c-0.547-0.627-1.219-1.134-1.994-1.469c-0.766-0.351-1.63-0.518-2.51-0.573
					c-0.22-0.018-0.445-0.007-0.667-0.014c-0.212,0.015-0.421,0.021-0.63,0.046c-0.414,0.062-0.824,0.141-1.224,0.292
					c-1.611,0.559-3.115,1.807-4.608,3.067c-1.493,1.279-2.996,2.616-4.555,3.89c-1.555,1.28-3.169,2.501-4.827,3.654
					c-1.658,1.154-3.369,2.228-5.087,3.287c-1.72,1.056-3.487,2.037-5.325,2.864c-0.462,0.201-0.919,0.412-1.386,0.603
					c-0.469,0.185-0.943,0.357-1.423,0.514c-0.479,0.161-0.965,0.302-1.464,0.413c-0.496,0.117-0.996,0.221-1.513,0.28
					c-0.208,0.025-0.396-0.124-0.421-0.331C100.919,58.096,100.976,57.969,101.071,57.89z"/>
			</g>
		</g>
		<g>
			<g>
				<g>
					<path fill="#FFFFFF" d="M49.612,52.842c25.39,37.623,78.885,4.235,58.475-34.419C83.01-20.705,27.746,13.859,49.612,52.842z"/>
				</g>
			</g>
			<g>
				<g>
					<path fill="#FFFFFF" d="M49.612,52.842c25.39,37.623,78.885,4.235,58.475-34.419C83.01-20.705,27.746,13.859,49.612,52.842z"/>
				</g>
			</g>
			<g opacity="0.25">
				<g>
					<path fill="#361B45" d="M108.972,54.502c-0.867,1.578-1.86,3.073-2.963,4.484c-0.836,1.078-1.738,2.102-2.696,3.07
						c-8.268,8.362-20.675,12.576-32.497,9.597c-1.307-0.33-2.611-0.748-3.9-1.26c-6.206-2.457-12.099-7.058-16.96-14.261
						c-2.457-4.384-3.941-8.708-4.601-12.881c4.318,3.08,9.701,9.204,20.109,15.229c-0.088-0.453-0.176-0.905-0.267-1.361
						l37.261-2.536c0.657,0.742,1.285,1.49,1.892,2.244C105.987,56.061,107.523,55.285,108.972,54.502z"/>
				</g>
			</g>
			<g>
				<g>
					<path fill="#FFFFFF" d="M49.612,52.842c25.39,37.623,78.885,4.235,58.475-34.419C83.01-20.705,27.746,13.859,49.612,52.842z"/>
				</g>
			</g>
			<g>
				<g>
					<path fill="#361B45" d="M78.219,70.096c-2.053,0-4.102-0.191-6.122-0.577c-9.14-1.748-17.138-7.364-23.13-16.242l-0.034-0.055
						c-5.205-9.279-6.468-18.968-3.653-28.02c2.511-8.076,8.09-15.043,15.71-19.616c7.604-4.564,16.321-6.169,24.543-4.521
						c9.273,1.859,17.298,7.716,23.208,16.938l0.033,0.056c4.865,9.214,5.927,18.779,3.07,27.66
						c-2.555,7.944-8.084,14.787-15.568,19.271C90.667,68.353,84.424,70.096,78.219,70.096z M50.275,52.433
						c12.729,18.834,31.872,19.21,45.203,11.224c13.025-7.803,22.311-25.161,11.937-44.843C94.91-0.665,75.002-1.009,61.79,6.92
						C48.449,14.928,39.159,32.584,50.275,52.433z"/>
				</g>
			</g>
			<g opacity="0.25">
				<g>
					<path fill="#361B45" d="M49.612,52.841c21.364,32.877,69.555,12.047,62.152-24.904c-1.56,12.19-5.701,12.91-11.715,19.413
						c-18.384,21.263-49.872,8.185-55.127-15.972C44.04,38.967,45.781,46.505,49.612,52.841z"/>
				</g>
			</g>
			<g>
				<g>
					<path fill="#293856" d="M78.219,70.409c-2.073,0-4.141-0.192-6.181-0.583c-9.224-1.764-17.292-7.426-23.331-16.374
						l-0.047-0.077c-5.248-9.356-6.52-19.13-3.679-28.266c2.534-8.15,8.162-15.179,15.847-19.791
						C68.5,0.714,77.295-0.905,85.595,0.759c9.358,1.876,17.453,7.781,23.41,17.075l0.046,0.079
						c4.905,9.29,5.975,18.939,3.092,27.903c-2.578,8.016-8.156,14.921-15.705,19.444C90.779,68.65,84.48,70.409,78.219,70.409z
						 M50.541,52.269c12.614,18.654,31.573,19.029,44.775,11.12c12.9-7.728,22.098-24.919,11.827-44.416
						C94.752-0.321,75.035-0.664,61.952,7.189C48.738,15.119,39.538,32.606,50.541,52.269z"/>
				</g>
			</g>
			<g>
				<g>
					<path fill="#1F1F23" d="M78.219,70.409c-2.073,0-4.141-0.192-6.181-0.583c-9.224-1.764-17.292-7.426-23.331-16.374
						l-0.047-0.077c-5.248-9.356-6.52-19.13-3.679-28.266c2.534-8.15,8.162-15.179,15.847-19.791
						C68.5,0.714,77.295-0.905,85.595,0.759c9.358,1.876,17.453,7.781,23.41,17.075l0.046,0.079
						c4.905,9.29,5.975,18.939,3.092,27.903c-2.578,8.016-8.156,14.921-15.705,19.444C90.779,68.65,84.48,70.409,78.219,70.409z
						 M50.541,52.269c12.614,18.654,31.573,19.029,44.775,11.12c12.9-7.728,22.098-24.919,11.827-44.416
						C94.752-0.321,75.035-0.664,61.952,7.189C48.738,15.119,39.538,32.606,50.541,52.269z"/>
				</g>
			</g>
			<g>
				<g>
					<path fill="#1F1F23" d="M55.027,59.644c34.321,20.251,63.457-19.798,37.425-43.028C61.712-7.632,27.206,30.16,55.027,59.644z"
						/>
				</g>
			</g>
			<g>
				<g>
					<path fill="#1F1F23" d="M45.852,36.044c-0.15,36.017,51.359,39.017,56.9,6.111C86.249,61.542,55.506,53.472,45.852,36.044z"/>
				</g>
			</g>
			<g>
				<g>
					<path fill="#1F1F23" d="M75.371,69.385c-2.419,0-4.822-0.303-7.157-0.914c-7.657-2.006-14.365-7.235-19.398-15.12l-0.004-0.006
						c-8.231-13.116-6.813-34.497,8.416-45.421l0.138-0.082c8.26-4.014,18.276-4.286,27.481-0.746
						c9.172,3.527,16.391,10.394,19.805,18.839c3.096,8.262,2.969,16.628-0.358,24.215c-3.015,6.877-8.438,12.544-15.27,15.957
						C84.677,68.277,79.997,69.385,75.371,69.385z M50.41,52.337c11.056,17.319,27.256,17.33,37.77,12.078
						c12.086-6.037,21.02-20.959,14.711-37.796c-3.21-7.939-10.037-14.422-18.723-17.762c-8.69-3.341-18.127-3.105-25.905,0.647
						C43.96,19.824,42.649,39.967,50.41,52.337z"/>
				</g>
			</g>
			<g>
				<g>
					<path fill="#1F1F23" d="M73.815,66.276c-6.373,0-12.956-1.925-19.342-5.693l-0.133-0.078l-0.106-0.112
						c-6.717-7.118-10.352-15.246-10.514-23.506c-0.145-7.399,2.523-14.476,7.512-19.927c4.876-5.328,11.486-8.559,18.612-9.1
						c7.92-0.599,15.971,2.131,23.284,7.9l0.051,0.043c6.112,5.454,9.665,12.179,10.276,19.45
						c0.553,6.584-1.374,13.265-5.427,18.814c-4.388,6.007-10.821,10.128-18.114,11.604C77.912,66.075,75.874,66.276,73.815,66.276z
						 M55.714,58.783c17.497,10.249,32.966,4.382,40.551-6.003c6.884-9.425,8.154-24.001-4.516-35.328
						c-15.258-12.019-30.534-8.17-38.909,0.98C44.235,27.834,41.801,43.944,55.714,58.783z"/>
				</g>
			</g>
			<g>
				<g>
					<path fill="#FFFFFF" d="M117.101,42.233c-2.168,15.857-18.242,15.019-17.699-0.328
						C101.064,25.202,118.247,26.096,117.101,42.233z"/>
				</g>
			</g>
			<g opacity="0.35">
				<g>
					<path fill="#361B45" d="M107.064,53.815c-4.82-0.216-8.38-6.06-7.591-12.714c3.097,6.934,10.303-4.629,10.785-7.927
						C122.66,36.175,115.909,54.401,107.064,53.815z"/>
				</g>
			</g>
			<g>
				<g>
					<path fill="#1F1F23" d="M107.458,54.864c-0.224,0-0.445-0.01-0.665-0.028c-4.437-0.381-8.78-4.539-8.481-12.97l0.005-0.069
						c0.912-9.168,6.441-13.538,11.426-13.109c4.507,0.384,9.072,4.811,8.446,13.622l-0.007,0.071
						C116.994,51.068,111.921,54.864,107.458,54.864z M100.491,41.978c-0.236,6.975,3.086,10.392,6.489,10.684
						c3.607,0.313,7.973-2.858,9.036-10.542c0.508-7.314-2.989-10.963-6.458-11.259C105.646,30.524,101.273,34.238,100.491,41.978z
						 M117.101,42.233h0.003H117.101z"/>
				</g>
			</g>
			<g>
				<g>
					<path fill="#FFFFFF" d="M117.732,43.109c-1.77,12.848-13.823,12.424-13.385,0.011
						C105.645,29.427,118.743,29.902,117.732,43.109z"/>
				</g>
			</g>
			<g>
				<g>
					<path fill="#1F1F23" d="M110.279,53.532c-0.162,0-0.322-0.007-0.481-0.021c-3.356-0.29-6.634-3.625-6.395-10.425l0.004-0.056
						c0.722-7.614,5.023-11.261,8.909-10.928c3.448,0.295,6.909,3.888,6.358,11.078l-0.006,0.057
						C117.681,50.397,113.724,53.532,110.279,53.532z M105.29,43.181c-0.187,5.541,2.209,8.236,4.67,8.448
						c2.682,0.236,5.962-2.368,6.833-8.621c0.442-5.889-2.092-8.805-4.638-9.023C109.219,33.728,105.903,36.809,105.29,43.181z
						 M117.732,43.109h0.003H117.732z"/>
				</g>
			</g>
			<g opacity="0.7">
				<g>
					<path fill="#FFFFFF" d="M96.24,35.037c-1.755,6.505-9.179,4.625-8.61-1.254C88.767,26.41,97.553,28.484,96.24,35.037z"/>
				</g>
			</g>
			<g opacity="0.7">
				<g>
					<path fill="#FFFFFF" d="M92.421,45.263c-0.815,2.449-4.078,1.69-3.439-1.053C89.797,41.761,93.059,42.52,92.421,45.263z"/>
				</g>
			</g>
			<g opacity="0.7">
				<g>
					<path fill="#FFFFFF" d="M49.413,38.559C44.634,13.262,70.881,9.463,78.96,14.697C62.119,16.178,54.852,26.734,49.413,38.559z"
						/>
				</g>
			</g>
			<g opacity="0.25">
				<g>
					<path fill="#361B45" d="M103.755,46.037c-0.265-1.805-0.036-3.689,0.568-5.419c2.447,8.625,11.095,4.638,13.001-1.618
						C119.487,51.783,106.569,58.015,103.755,46.037z"/>
				</g>
			</g>
			<g>
				<g>
					<path fill="#1F1F23" d="M100.105,32.515c-0.323,0-0.596-0.079-0.814-0.181c-1.44-0.675-1.596-2.901-1.61-3.567
						c-0.012-0.602,0.466-1.1,1.068-1.113c0.008,0,0.015,0,0.022,0c0.591,0,1.077,0.473,1.09,1.066
						c0.014,0.59,0.168,1.299,0.33,1.576c0.072-0.034,0.184-0.1,0.34-0.224c0.47-0.377,1.157-0.3,1.533,0.17
						c0.376,0.47,0.3,1.157-0.17,1.533C101.197,32.334,100.594,32.515,100.105,32.515z M100.094,30.334L100.094,30.334
						L100.094,30.334z"/>
				</g>
			</g>
		</g>
		<g>
			<g>
				<g>
					<circle fill="#FFFFFF" cx="67.815" cy="83.948" r="3.694"/>
				</g>
			</g>
			<g opacity="0.35">
				<g>
					<path fill="#361B45" d="M64.133,84.225c0.153,2.034,1.925,3.561,3.96,3.408c2.034-0.153,3.561-1.928,3.407-3.962
						c-0.042-0.562-0.209-1.088-0.473-1.548c-0.498,1.288-1.703,2.248-3.172,2.358c-1.469,0.111-2.805-0.657-3.487-1.857
						C64.176,83.117,64.09,83.663,64.133,84.225z"/>
				</g>
			</g>
			<g>
				<g>
					<path fill="#1F1F23" d="M67.812,88.586c-2.401,0-4.439-1.858-4.622-4.29c-0.093-1.236,0.3-2.433,1.108-3.373
						c0.808-0.94,1.933-1.508,3.168-1.601c1.235-0.093,2.433,0.3,3.373,1.108c0.94,0.808,1.508,1.933,1.601,3.168
						c0.192,2.55-1.727,4.782-4.276,4.973C68.046,88.582,67.928,88.586,67.812,88.586z M67.817,81.198
						c-0.069,0-0.138,0.002-0.208,0.008c-0.732,0.055-1.399,0.392-1.878,0.949c-0.479,0.557-0.712,1.267-0.657,1.999l0,0
						c0.114,1.511,1.438,2.648,2.948,2.535c1.512-0.114,2.649-1.436,2.535-2.948C70.448,82.299,69.24,81.198,67.817,81.198z"/>
				</g>
			</g>
			<g>
				<g>
					<path fill="#FFFFFF" d="M72.343,92.796l19.524-0.308c2.311-0.036,4.174-1.957,4.138-4.271l-0.164-10.39
						c-0.032-2.026-1.509-3.704-3.429-4.066c-0.272-0.053-0.553-0.076-0.841-0.072l-19.521,0.308
						c-2.314,0.036-4.177,1.957-4.138,4.271l0.128,8.229l0.033,2.161C68.108,90.972,70.032,92.831,72.343,92.796z"/>
				</g>
			</g>
			<g opacity="0.25">
				<g>
					<path fill="#361B45" d="M72.343,92.796l19.524-0.308c2.311-0.036,4.174-1.957,4.138-4.271l-0.164-10.39
						c-0.032-2.026-1.509-3.704-3.429-4.066c-1.097,0.754-1.794,1.236-1.794,1.236c-0.819,8.355-0.355,14.532-13.309,13.878
						c-4.466-0.225-7.475-1.489-9.27-2.379l0.033,2.161C68.108,90.972,70.032,92.831,72.343,92.796z"/>
				</g>
			</g>
			<g>
				<g>
					<path fill="#1F1F23" d="M72.276,93.741c-2.802,0-5.103-2.257-5.148-5.068l-0.164-10.392c-0.045-2.839,2.228-5.185,5.067-5.229
						l19.523-0.307c2.823-0.045,5.185,2.229,5.229,5.067l0.164,10.392c0.022,1.371-0.495,2.671-1.454,3.661
						c-0.959,0.99-2.242,1.547-3.613,1.569l-19.523,0.307C72.331,93.741,72.303,93.741,72.276,93.741z M91.637,74.633
						c-0.017,0-0.034,0-0.052,0.001l-19.523,0.307c-0.866,0.014-1.678,0.367-2.286,0.995c-0.608,0.628-0.936,1.45-0.922,2.316
						l0.164,10.392c0.014,0.866,0.367,1.678,0.995,2.286c0.628,0.608,1.45,0.933,2.317,0.922l19.523-0.307
						c0.866-0.014,1.678-0.367,2.286-0.995c0.608-0.627,0.936-1.45,0.922-2.317l-0.164-10.391
						C94.868,76.062,93.411,74.633,91.637,74.633z"/>
				</g>
			</g>
			<g>
				<g>
					<path fill="#FFFFFF" d="M71.558,92.731c0.254,0.049,0.515,0.07,0.785,0.064l19.524-0.308c1.693-0.027,3.146-1.064,3.786-2.531
						c0.234-0.533,0.36-1.122,0.349-1.739l-0.071-4.616l-0.023-1.523l-0.067-4.251c-0.036-2.314-1.96-4.173-4.271-4.138
						l-4.219,0.068c1.95,0.336,3.458,2.027,3.492,4.073l0.09,5.612l0.075,4.78c0.036,2.311-1.827,4.235-4.138,4.271L71.558,92.731z"
						/>
				</g>
			</g>
			<g opacity="0.25">
				<g>
					<path fill="#361B45" d="M71.558,92.731c0.254,0.049,0.515,0.07,0.785,0.064l19.524-0.308c2.311-0.036,4.174-1.957,4.135-4.27
						l-0.094-6.139c-0.474,1.092-1.335,2.438-2.745,2.6c-0.773,0.091-1.544-0.455-2.23-1.236l0.075,4.78
						c0.036,2.311-1.827,4.235-4.138,4.271L71.558,92.731z"/>
				</g>
			</g>
			<g>
				<g>
					<path fill="#1F1F23" d="M72.257,93.741c-0.289,0-0.583-0.027-0.871-0.08l0.156-1.873l15.313-0.24
						c0.865-0.013,1.676-0.366,2.285-0.994c0.609-0.628,0.936-1.451,0.922-2.317l-0.164-10.392c-0.025-1.564-1.163-2.892-2.707-3.16
						l0.146-1.875l4.217-0.067c1.371-0.016,2.672,0.496,3.662,1.455c0.99,0.96,1.547,2.243,1.568,3.614l0.164,10.39
						c0.022,1.371-0.494,2.671-1.454,3.662c-0.96,0.991-2.243,1.548-3.612,1.569L72.358,93.74
						C72.324,93.741,72.291,93.741,72.257,93.741z M90.629,74.648c0.711,0.872,1.139,1.977,1.158,3.168l0.164,10.391
						c0.02,1.233-0.396,2.409-1.178,3.354l1.08-0.017c0.865-0.013,1.677-0.366,2.285-0.994c0.608-0.628,0.936-1.45,0.921-2.316
						v-0.001l-0.164-10.391c-0.013-0.866-0.366-1.678-0.994-2.286c-0.615-0.597-1.419-0.924-2.267-0.924
						c-0.017,0-0.034,0-0.05,0.001L90.629,74.648z"/>
				</g>
			</g>
			<g>
				<g>
					<path fill="#69B479" d="M83.228,83.232c0.008,0.384,0.615,3.474,0.615,3.474s0.982-0.021,2.189-0.047
						c1.507-0.032,2.695-1.619,2.654-3.544c-0.041-1.925-1.297-3.459-2.804-3.427c-1.017,0.022-2.189,0.047-2.189,0.047
						S83.214,82.606,83.228,83.232z"/>
				</g>
			</g>
			<g opacity="0.35">
				<g>
					<path fill="#EA5F5F" d="M83.228,83.232c0.008,0.384,0.615,3.474,0.615,3.474s0.982-0.021,2.189-0.047
						c1.507-0.032,2.695-1.619,2.654-3.544c-0.041-1.925-1.297-3.459-2.804-3.427c-1.017,0.022-2.189,0.047-2.189,0.047
						S83.214,82.606,83.228,83.232z"/>
				</g>
			</g>
			<g>
				<g>
					<path fill="#1F1F23" d="M83.327,87.347l-0.102-0.519c-0.145-0.738-0.618-3.175-0.627-3.582
						c-0.014-0.653,0.392-3.125,0.474-3.614l0.086-0.515l2.71-0.058c0.02,0,0.04-0.001,0.06-0.001c1.826,0,3.339,1.799,3.388,4.044
						c0.048,2.269-1.419,4.148-3.27,4.187L83.327,87.347z M83.857,83.217c0.011,0.218,0.249,1.536,0.502,2.848l1.659-0.036
						c1.157-0.025,2.072-1.326,2.038-2.901c-0.034-1.575-1.002-2.838-2.161-2.811l-1.665,0.036
						C84.057,81.437,83.85,82.861,83.857,83.217z"/>
				</g>
			</g>
			<g>
				<g>
					
						<ellipse transform="matrix(-0.9998 0.0215 -0.0215 -0.9998 169.3048 164.6217)" fill="#EA5F5F" cx="83.768" cy="83.22" rx="2.73" ry="3.486"/>
				</g>
			</g>
			<g opacity="0.35">
				<g>
					<path fill="#361B45" d="M86.497,83.162c0.042,1.924-1.146,3.512-2.653,3.544c-1.509,0.033-2.764-1.502-2.804-3.429
						c-0.006-0.26,0.012-0.515,0.05-0.761c0.416,1.314,1.435,2.235,2.605,2.208c1.302-0.028,2.367-1.215,2.603-2.782
						C86.418,82.322,86.486,82.732,86.497,83.162z"/>
				</g>
			</g>
			<g>
				<g>
					<path fill="#FFFFFF" d="M86.497,83.162c0.003,0.131,0,0.26-0.01,0.388c-0.332-1.502-1.427-2.594-2.7-2.566
						c-1.404,0.031-2.534,1.411-2.643,3.159c-0.062-0.277-0.097-0.566-0.105-0.865c-0.042-1.924,1.146-3.512,2.653-3.544
						C85.199,79.704,86.455,81.236,86.497,83.162z"/>
				</g>
			</g>
			<g>
				<g>
					<path fill="#1F1F23" d="M83.794,87.336c-0.903,0-1.75-0.428-2.39-1.211c-0.618-0.756-0.971-1.762-0.995-2.833
						c-0.049-2.269,1.418-4.147,3.27-4.188c0.925-0.018,1.798,0.41,2.452,1.21c0.618,0.756,0.971,1.762,0.995,2.833
						c0.023,1.071-0.287,2.091-0.872,2.873c-0.62,0.828-1.472,1.295-2.398,1.315C83.836,87.336,83.815,87.336,83.794,87.336z
						 M83.739,80.364c-0.011,0-0.022,0-0.033,0.001c-1.158,0.025-2.072,1.327-2.038,2.901l0,0c0.017,0.791,0.269,1.523,0.71,2.062
						c0.404,0.494,0.916,0.766,1.451,0.748c0.531-0.011,1.035-0.299,1.417-0.81c0.417-0.557,0.638-1.3,0.621-2.091
						c-0.017-0.791-0.269-1.523-0.71-2.062C84.761,80.629,84.259,80.364,83.739,80.364z"/>
				</g>
			</g>
			<g>
				<g>
					<path fill="#1F1F23" d="M78.411,93.255c-0.336,0-0.615-0.266-0.629-0.605l-0.271-6.866l-3.088-1.874
						c-0.184-0.112-0.299-0.311-0.303-0.526l-0.181-9.408c-0.006-0.348,0.27-0.635,0.618-0.642c0.004,0,0.008,0,0.012,0
						c0.342,0,0.623,0.274,0.629,0.618l0.174,9.062l3.081,1.87c0.18,0.11,0.294,0.303,0.302,0.513L79.04,92.6
						c0.014,0.348-0.257,0.64-0.604,0.654C78.427,93.254,78.419,93.255,78.411,93.255z"/>
				</g>
			</g>
			<g>
				<g>
					<path fill="#FFFFFF" d="M115.681,75.291c0,0,2.063,1.261,2.106,3.574c0.049,2.674-1.836,3.981-1.836,3.981
						s-6.398,4.656-21.24,3.743c0,0-3.752-3.941,0.586-6.919C95.296,79.671,108.86,81.895,115.681,75.291z"/>
				</g>
			</g>
			<g opacity="0.25">
				<g>
					<path fill="#361B45" d="M117.785,78.813L117.785,78.813c0.075,2.709-1.835,4.034-1.835,4.034s-6.397,4.655-21.239,3.743
						c0,0-2.867-3.013-0.692-5.76c0.003,0.016,0.005,0.033,0.008,0.049c0.28,1.669,1.733,2.897,3.424,2.948
						c13.439,0.408,19.27-3.834,19.27-3.834S117.285,79.603,117.785,78.813z"/>
				</g>
			</g>
			<g>
				<g>
					<path fill="#1F1F23" d="M98.509,87.654c-1.218,0-2.503-0.038-3.857-0.121l-0.37-0.023l-0.256-0.269
						c-0.082-0.086-2.002-2.135-1.743-4.62c0.152-1.45,0.985-2.705,2.478-3.729l0.313-0.215l0.374,0.061
						c0.13,0.021,13.179,2.066,19.575-4.126l0.525-0.509l0.624,0.382c0.102,0.062,2.507,1.564,2.557,4.363
						c0.057,3.144-2.148,4.71-2.242,4.775C116.257,83.792,110.795,87.654,98.509,87.654z M95.172,85.671
						c13.967,0.769,20.163-3.546,20.225-3.59c0.069-0.049,1.483-1.093,1.445-3.199c-0.02-1.084-0.646-1.892-1.122-2.351
						c-6.607,5.649-17.884,4.445-20.18,4.13c-0.829,0.643-1.292,1.364-1.376,2.148C94.033,84.017,94.783,85.165,95.172,85.671z"/>
				</g>
			</g>
		</g>
		<g>
			<g>
				<path fill="#1F1F23" d="M130.521,64.104c-0.031,0-0.062-0.002-0.093-0.005c-5.36-0.61-9.566-5.87-12.165-15.211
					c-0.047-0.168-0.08-0.292-0.103-0.364c-0.13-0.279-0.096-0.62,0.115-0.871c0.291-0.347,0.807-0.391,1.152-0.101
					c0.211,0.177,0.25,0.315,0.411,0.897c2.371,8.523,6.197,13.504,10.773,14.024c0.449,0.051,0.771,0.457,0.72,0.905
					C131.285,63.795,130.931,64.104,130.521,64.104z M118.375,48.804l0.001,0.001L118.375,48.804z M118.374,48.803L118.374,48.803
					L118.374,48.803z"/>
			</g>
		</g>
		<g>
			<g>
				<path fill="#1F1F23" d="M51.756,102.95c0.278,0.286,0.491,0.535,0.72,0.808c0.223,0.269,0.436,0.542,0.644,0.819
					c0.414,0.554,0.796,1.131,1.15,1.723c0.356,0.59,0.675,1.203,0.957,1.832c0.292,0.624,0.516,1.28,0.721,1.935
					c0.09,0.288-0.07,0.594-0.358,0.684c-0.263,0.082-0.541-0.044-0.656-0.286l-0.012-0.025c-0.272-0.573-0.554-1.137-0.9-1.668
					c-0.335-0.535-0.702-1.051-1.1-1.542c-0.395-0.492-0.813-0.966-1.256-1.414c-0.222-0.223-0.447-0.442-0.677-0.652
					c-0.225-0.205-0.476-0.424-0.684-0.584c-0.479-0.368-0.569-1.054-0.201-1.533c0.368-0.479,1.054-0.569,1.533-0.201
					C51.679,102.876,51.722,102.914,51.756,102.95z"/>
			</g>
		</g>
	</g>
</g>
</svg>
