<?xml version="1.0" encoding="utf-8"?>
<!-- Generator: Adobe Illustrator 17.0.0, SVG Export Plug-In . SVG Version: 6.00 Build 0)  -->
<!DOCTYPE svg PUBLIC "-//W3C//DTD SVG 1.1//EN" "http://www.w3.org/Graphics/SVG/1.1/DTD/svg11.dtd">
<svg version="1.1" id="Camada_1" xmlns="http://www.w3.org/2000/svg" xmlns:xlink="http://www.w3.org/1999/xlink" x="0px" y="0px"
	 width="213px" height="179px" viewBox="0 0 213 179" enable-background="new 0 0 213 179" xml:space="preserve">
<g>
	<text transform="matrix(1 0 0 1 117.075 167.0026)" fill="#1F1F23" font-family="'ProximaNova-Bold'" font-size="53.8835">.</text>
	<g>
		<g>
			<g>
				<g>
					<path fill="#EDDF5E" d="M118.9,142.7c-1.1,3.7-10.1,5.3-10.1,5.3s-3.4,3.4-11.4,6.5h-0.1c-6.6,2.6-34.2,12.8-63.4-2.5
						c-7.3-3.8-12.6-12.3-12.6-12.3s-9.2-1.2-9.2-6.4c0-5.1,5.2-5.8,9.9-5.7c0,0,0.8-14.4,16.9-23.7s66.5,7.5,66.5,7.5l2.2,10.2
						l2.6,12.1C110.1,133.8,120.5,137.2,118.9,142.7z"/>
				</g>
			</g>
			<g>
				<g>
					<path fill="#1F1F23" d="M67.2,161.6c-10.4,0-22.1-2.1-34-8.4c-6.6-3.4-11.5-10.3-12.7-12.2c-2.2-0.4-9.7-2.2-9.7-7.6
						c0-1.9,0.6-3.4,1.8-4.6c1.7-1.6,4.3-2.4,8.2-2.4c0.6-3.8,3.5-15.4,17.4-23.5c16.4-9.5,65.5,6.7,67.6,7.4c0.4,0.1,0.8,0.5,0.9,1
						l4.6,21.6c2.5,1,10.7,4.5,8.9,10.3c-1.2,4-8.8,5.7-10.8,6.1c-1,0.9-4.6,3.8-11.6,6.5C90.7,158.4,79.9,161.6,67.2,161.6z
						 M20.9,128.9c-3.2,0-5.4,0.5-6.5,1.7c-0.7,0.7-1,1.6-1,2.7c0,4,8,5.1,8.1,5.2c0.4,0.1,0.7,0.3,0.9,0.6
						c0.1,0.1,5.2,8.2,12.1,11.8c25.4,13.4,50,7.2,62.4,2.4l0,0c7.6-3,11-6.2,11-6.2c0.2-0.2,0.4-0.3,0.7-0.3
						c3.4-0.6,8.5-2.3,9.1-4.4c1.3-4.2-7.9-7.3-8-7.4c-0.4-0.1-0.8-0.5-0.9-1l-4.6-21.6c-6.1-2-50.4-15.7-64.8-7.3
						c-15.3,8.9-16.2,22.5-16.2,22.6c0,0.7-0.6,1.2-1.3,1.2C21.5,129,21.2,128.9,20.9,128.9z"/>
				</g>
			</g>
			<g opacity="0.35">
				<g>
					<path fill="#361B45" d="M45.9,120.5c-1,3.1-7.9,7.4-18.3,10.1c-6.7,1.7-12.4,0.4-13.4-8.9c-0.9-8.3,10.1-17.1,20.3-15.5
						C46,108.1,47,117.4,45.9,120.5z"/>
				</g>
			</g>
			<g>
				<g>
					<path fill="#FFFFFF" d="M40.9,115.7c-1,3.1-4.6,8.7-15,11.3c-6.7,1.7-12.4,0.4-13.4-8.9c-0.9-8.3,10.1-17.1,20.3-15.5
						C44.3,104.6,41.9,112.6,40.9,115.7z"/>
				</g>
			</g>
			<g opacity="0.35">
				<g>
					<path fill="#361B45" d="M41.1,115c-0.1,0.3-0.2,0.5-0.2,0.8c-1,3.1-4.6,8.7-15,11.3c-6.7,1.7-12.4,0.4-13.4-8.9
						c-0.2-2.3,0.4-4.6,1.7-6.7c1.2,8.9,7.8,10.5,14.6,9.8C36.8,120.4,39.9,117.7,41.1,115z"/>
				</g>
			</g>
			<g>
				<g>
					<path fill="#1F1F23" d="M21.4,129c-2.3,0-4.2-0.5-5.7-1.6c-2.5-1.7-4-4.8-4.4-9.1c-0.4-3.8,1.4-7.9,4.9-11.3
						c4.6-4.4,11.1-6.5,16.8-5.6c4.4,0.7,7.4,2.4,9,5c2,3.3,1.1,7.2,0.2,9.7c-0.9,2.7-4.2,9.2-15.9,12.2
						C24.5,128.8,22.8,129,21.4,129z M30.3,103.8c-4.3,0-9,1.9-12.4,5.1c-3,2.8-4.5,6.1-4.1,9.2c0.4,3.5,1.5,6,3.3,7.2
						c1.9,1.3,4.8,1.5,8.5,0.6c10.4-2.7,13.3-8.2,14.1-10.5l0,0c0.7-2.1,1.5-5.2,0-7.6c-1.1-1.9-3.6-3.2-7.2-3.8
						C31.8,103.8,31,103.8,30.3,103.8z"/>
				</g>
			</g>
			<g>
				<g>
					<path fill="#FFFFFF" d="M175.1,84.6l1.3-10.8c0.2-7.9,1.1-19.5-14.5-24.2c-18-5.4-41.3-3.6-47.6-0.4c-10.5,5.2-17,35.1-17,35.1
						L175.1,84.6z"/>
				</g>
			</g>
			<g>
				<g>
					<path fill="#FFFFFF" d="M176.4,73.9l-0.3,2.7l-0.9,8l-75.8-0.4h-2c0,0,0-0.1,0.1-0.4c0.2-0.7,0.6-2.4,1.2-4.6
						c2.4-8.7,7.9-26.2,15.7-30c6.3-3.2,29.6-5,47.6,0.4C177.5,54.3,176.6,66,176.4,73.9z"/>
				</g>
			</g>
			<g opacity="0.35">
				<g>
					<path fill="#361B45" d="M176.1,76.6l-0.9,8l-75.8-0.4l-1.9-0.4c0.2-0.7,0.6-2.4,1.2-4.6l10.6-8.3l4.2-13.7
						c0,0,4.9,7.9,11.9,9.2c17.1,3,27-3.2,37.9,0.1C170.6,68.6,174.3,72.4,176.1,76.6z"/>
				</g>
			</g>
			<g>
				<g>
					<path fill="#FFFFFF" d="M151.7,49.1L150,61c-0.2,1.1,0.4,2.1,1.4,2.5c3.6,1.5,12.2,4.6,15.9,1.6c3.1-2.5,3.9-7.5,2.1-11
						c-2-3.9-10.6-6.1-14.8-7C153.2,46.8,151.9,47.7,151.7,49.1z"/>
				</g>
			</g>
			<g opacity="0.35">
				<g>
					<path fill="#361B45" d="M151.4,63.5c3.6,1.5,12.1,4.6,15.9,1.6c3.1-2.5,3.9-7.5,2.1-11c-1.2-2.4-4.9-4.1-8.6-5.4
						c1.8,1,3.1,2.1,3.9,3.4c4.4,7.2-3.4,10.1-3.4,10.1s1.5,1.1,1.4,1.8c-0.2,2.6-8,0.3-12.1-1C150.8,63.2,151.1,63.3,151.4,63.5z"
						/>
				</g>
			</g>
			<g>
				<g>
					<path fill="#1F1F23" d="M162.8,67.7c-4.1,0-8.8-1.7-11.9-3c-1.5-0.6-2.4-2.2-2.2-3.9l1.8-11.9c0.1-1,0.7-1.9,1.5-2.5
						s1.9-0.8,2.8-0.6c6,1.3,13.6,3.7,15.7,7.7c2.1,4.1,1,9.7-2.5,12.6C166.7,67.2,164.8,67.7,162.8,67.7z M153,49.3l-1.8,11.9
						c-0.1,0.5,0.2,0.9,0.6,1.1c6.9,2.9,12.3,3.6,14.6,1.8c2.5-2.1,3.4-6.3,1.8-9.4c-1.2-2.4-6.5-4.8-14-6.4c-0.3-0.1-0.6,0-0.8,0.2
						C153.2,48.7,153,49,153,49.3L153,49.3z"/>
				</g>
			</g>
			<g>
				<g>
					<path fill="#1F1F23" d="M176.3,85.9l-80.5-0.4l0.3-1.6c0.3-1.2,6.8-30.5,17.6-36c7-3.5,31-4.9,48.5,0.4
						c16,4.8,15.7,16.8,15.5,24.7v1L176.3,85.9z M98.9,83l75,0.4l1.1-9.6V73c0.2-8,0.5-17.9-13.7-22.1c-18.2-5.5-40.8-3.4-46.6-0.5
						C106.4,54.5,100.4,76.8,98.9,83z"/>
				</g>
			</g>
			<g>
				<g>
					<path fill="#1F1F23" d="M154.5,60.2c1.4,0.1,2.9,0.4,4.3,0.6c1.4,0.2,2.9,0.3,4.2,0.2c1.4-0.1,2.7-0.4,3.8-1.1
						c1.1-0.6,1.8-1.6,2.3-2.8c0.3-0.7,1-1,1.7-0.7s1,1,0.7,1.7c0,0.1-0.1,0.1-0.1,0.2l0,0c-0.4,0.7-1,1.4-1.6,1.9
						c-0.6,0.6-1.4,1-2.1,1.3c-1.5,0.6-3.1,0.8-4.6,0.7s-3-0.4-4.4-0.8C157.3,61,155.9,60.6,154.5,60.2z"/>
				</g>
			</g>
			<g opacity="0.3">
				<g>
					<path fill="#293856" d="M188.3,108.7c-0.1-0.1-0.2-0.2-0.3-0.3C188.1,108.5,188.2,108.6,188.3,108.7L188.3,108.7z"/>
				</g>
			</g>
			<g>
				<g>
					<path fill="#FFFFFF" d="M111.8,77.1c0,0,42.5-16.3,67.4,4.6c17.4,14.6,14.2,36.8,7,48.8c0,0-68.6,22.5-89.2,2.4
						C83.3,119.5,111.8,77.1,111.8,77.1z"/>
				</g>
			</g>
			<g>
				<g>
					<path fill="#1F1F23" d="M186.3,131.8c-0.2,0-0.5-0.1-0.7-0.2c-0.6-0.4-0.8-1.2-0.4-1.8c6.7-11,10.4-32.7-6.7-47.1
						c-12.5-10.5-29.7-11.1-42-9.8c-13.4,1.4-24,5.4-24.1,5.5c-0.7,0.3-1.4-0.1-1.7-0.7c-0.3-0.7,0.1-1.4,0.7-1.7
						c0.4-0.2,11-4.1,24.7-5.6c18.3-1.9,33.6,1.7,44,10.4c18.4,15.4,14.4,38.6,7.3,50.4C187.1,131.5,186.7,131.8,186.3,131.8z"/>
				</g>
			</g>
			<g>
				<g>
					<path fill="#361B45" d="M113,65.3c-0.4-1.6-0.6-3.2-0.8-4.8c-0.1-1.6-0.2-3.2-0.1-4.9c0.1-0.8,0.1-1.6,0.3-2.5
						c0.2-0.8,0.4-1.7,0.7-2.5c0.3-0.8,0.8-1.7,1.5-2.4c0.3-0.4,0.8-0.7,1.2-1c0.2-0.1,0.5-0.2,0.8-0.3s0.5-0.1,0.8-0.2
						c0.7-0.2,1.4,0.3,1.5,1s-0.3,1.3-0.9,1.5h-0.2c-0.5,0.1-0.9,0.4-1.2,0.8c-0.4,0.4-0.7,1-0.9,1.6c-0.5,1.3-0.8,2.7-1,4.2
						c-0.1,0.7-0.2,1.5-0.2,2.3c-0.1,0.8-0.1,1.5-0.1,2.3c-0.1,1.5-0.1,3.1-0.1,4.7l0,0c0,0.4-0.3,0.6-0.7,0.6
						C113.3,65.8,113.1,65.6,113,65.3z"/>
				</g>
			</g>
			<g>
				<g>
					<g>
						<path fill="#FFFFFF" d="M61.1,132.2c8.1,1.7,16.7,1.3,25-1.3c1.7-0.5,3.4-1.2,5-1.9c0.8-0.4,1.6-0.7,2.4-1.1
							c2.4-1.2,4.7-2.6,6.8-4.1c1.8-1.3,3.6-2.8,5.2-4.3c1.9-1.8,3.7-3.8,5.3-5.9c0.6-0.8,1.1-1.5,1.7-2.3
							c9.9-14.5,11.9-33.8,3.7-50.5c-12.1-24.6-41.8-34.5-66.4-22c-4.7,2.4-8.9,5.5-12.6,9c-0.4,0.4-0.8,0.8-1.2,1.3
							c-1.1,1.1-2.1,2.3-3.1,3.6c-2.2,2.9-4.2,5.9-5.7,9.2c-1.6,3.2-2.8,6.6-3.7,10.1c-0.3,1.1-0.5,2.2-0.7,3.3
							c-0.3,1.7-0.5,3.4-0.6,5.1c-0.6,8.6,0.9,17.4,4.9,25.6C34,119.9,46.8,129.2,61.1,132.2z"/>
					</g>
					<g>
						<path fill="#361B45" d="M71,133.3c-3.3,0-6.7-0.3-10-1c-14.9-3.1-27.4-12.7-34.1-26.5c-3.9-7.9-5.6-16.8-5-25.6
							c0.1-1.7,0.3-3.4,0.6-5.1c0.2-1.1,0.4-2.2,0.7-3.4c0.9-3.5,2.1-6.9,3.7-10.1c1.6-3.3,3.5-6.4,5.8-9.2c1-1.2,2-2.4,3.1-3.6
							c0.4-0.5,0.8-0.9,1.3-1.3c3.7-3.6,7.9-6.7,12.6-9c12-6.1,25.5-7.1,38.1-2.9c12.5,4.2,22.6,13.1,28.4,25
							c7.9,16.2,6.5,35.6-3.7,50.6c-0.5,0.8-1.1,1.6-1.7,2.3c-1.6,2.1-3.4,4.1-5.3,5.9c-1.6,1.6-3.4,3-5.2,4.3
							c-2.1,1.6-4.4,3-6.8,4.2c-0.9,0.4-1.7,0.8-2.4,1.1c-1.6,0.7-3.3,1.4-5,1.9C81.2,132.5,76.1,133.3,71,133.3z M61.1,132
							c8.2,1.7,16.9,1.2,24.9-1.3c1.7-0.5,3.4-1.2,5-1.9c0.7-0.3,1.5-0.7,2.4-1.1c2.4-1.2,4.6-2.6,6.8-4.1c1.8-1.3,3.5-2.7,5.2-4.3
							c1.9-1.8,3.7-3.8,5.3-5.9c0.6-0.8,1.1-1.5,1.7-2.3c10.2-15,11.6-34.3,3.7-50.4c-5.8-11.8-15.8-20.7-28.3-24.8
							c-12.5-4.2-26-3.2-37.9,2.8c-4.6,2.4-8.9,5.4-12.5,9c-0.4,0.4-0.8,0.8-1.2,1.3c-1.1,1.1-2.1,2.3-3.1,3.6
							c-2.2,2.8-4.1,5.9-5.7,9.2c-1.6,3.2-2.8,6.6-3.7,10.1c-0.3,1.1-0.5,2.2-0.7,3.3c-0.3,1.7-0.5,3.4-0.6,5.1
							c-0.6,8.8,1.1,17.6,4.9,25.5C33.9,119.3,46.2,128.9,61.1,132z"/>
					</g>
				</g>
				<g opacity="0.35">
					<g>
						<path fill="#361B45" d="M116.2,60.6c8.2,16.7,6.1,36-3.7,50.5c-0.5,0.8-1.1,1.6-1.7,2.3c-1.6,2.1-3.4,4.1-5.3,5.9
							c-1.6,1.5-3.3,3-5.2,4.3c-2.1,1.5-4.4,2.9-6.8,4.2c-0.8,0.4-1.6,0.8-2.4,1.1c-1.7,0.7-3.3,1.4-5,1.9c-8.3,2.7-16.9,3-25,1.3
							c-4.5-0.9-8.8-2.5-12.8-4.6c7.8,1.4,15.9,1,23.8-1.6c1.7-0.5,3.4-1.2,5-1.9c0.8-0.4,1.6-0.7,2.4-1.1c2.4-1.2,4.7-2.6,6.8-4.1
							c1.8-1.3,3.6-2.8,5.2-4.3c1.9-1.8,3.7-3.8,5.3-5.9c0.6-0.8,1.1-1.5,1.7-2.3c9.9-14.5,11.9-33.8,3.7-50.5
							C97.5,46,89.9,38.6,81,34C95.8,36.7,109.1,46,116.2,60.6z"/>
					</g>
				</g>
				<g>
					<g>
						<path fill="#361B45" d="M71,134.2c-3.4,0-6.8-0.3-10.1-1l0,0c-15.2-3.2-27.9-13-34.7-27c-4-8.1-5.7-17.1-5-26.1
							c0.1-1.7,0.3-3.5,0.6-5.2c0.2-1.1,0.4-2.3,0.7-3.4c0.9-3.5,2.1-7,3.7-10.3s3.6-6.5,5.9-9.4c1-1.3,2.1-2.5,3.2-3.7
							c0.4-0.5,0.9-0.9,1.3-1.3c3.7-3.7,8-6.8,12.8-9.2c12.2-6.2,26-7.2,38.8-2.9c12.7,4.3,23,13.3,28.9,25.4
							c8.1,16.4,6.6,36.2-3.8,51.5c-0.5,0.8-1.1,1.6-1.7,2.4c-1.7,2.2-3.5,4.2-5.4,6c-1.7,1.6-3.4,3.1-5.3,4.4
							c-2.2,1.6-4.5,3-6.9,4.2c-0.9,0.4-1.7,0.8-2.5,1.2c-1.6,0.7-3.4,1.4-5.1,1.9C81.4,133.4,76.2,134.2,71,134.2z M61.3,131.2
							c8.1,1.7,16.6,1.2,24.5-1.3c1.7-0.5,3.3-1.2,4.9-1.9c0.7-0.3,1.5-0.7,2.4-1.1c2.3-1.2,4.6-2.5,6.7-4.1
							c1.8-1.3,3.5-2.7,5.1-4.2c1.9-1.8,3.6-3.7,5.2-5.8c0.6-0.7,1.1-1.5,1.7-2.3c10-14.7,11.4-33.7,3.6-49.5
							c-5.7-11.6-15.6-20.3-27.8-24.4c-12.3-4.1-25.6-3.1-37.3,2.8c-4.6,2.3-8.7,5.3-12.3,8.8c-0.4,0.4-0.8,0.8-1.2,1.2
							c-1.1,1.1-2.1,2.3-3,3.5c-2.2,2.8-4.1,5.8-5.6,9s-2.7,6.5-3.6,9.9c-0.3,1.1-0.5,2.2-0.7,3.3c-0.3,1.7-0.5,3.4-0.6,5
							c-0.6,8.6,1,17.3,4.8,25.1C34.5,118.7,46.7,128.1,61.3,131.2L61.3,131.2z"/>
					</g>
				</g>
				<g>
					<g>
						<path fill="#1F1F23" d="M71,134.5c-3.4,0-6.8-0.3-10.2-1l0,0c-15.3-3.2-28-13-34.9-27.1c-4-8.1-5.7-17.2-5.1-26.2
							c0.1-1.7,0.3-3.5,0.6-5.2c0.2-1.1,0.4-2.3,0.7-3.4c0.9-3.6,2.1-7.1,3.8-10.4c1.6-3.3,3.6-6.5,5.9-9.4c1-1.3,2.1-2.5,3.2-3.7
							c0.4-0.5,0.9-0.9,1.3-1.3c3.8-3.7,8.1-6.8,12.9-9.2c12.3-6.2,26.1-7.2,39-2.9c12.8,4.3,23.1,13.4,29.1,25.5
							c8.1,16.5,6.6,36.4-3.8,51.8c-0.6,0.8-1.1,1.6-1.7,2.4c-1.7,2.2-3.5,4.2-5.5,6.1c-1.7,1.6-3.5,3.1-5.3,4.4
							c-2.2,1.6-4.5,3-7,4.3c-0.9,0.5-1.7,0.8-2.5,1.2c-1.7,0.7-3.4,1.4-5.1,2C81.4,133.6,76.2,134.5,71,134.5z M61.3,130.9
							c8,1.7,16.5,1.2,24.3-1.3c1.7-0.5,3.3-1.2,4.9-1.9c0.7-0.3,1.5-0.7,2.4-1.1c2.3-1.2,4.5-2.5,6.6-4c1.7-1.3,3.4-2.7,5-4.2
							c1.9-1.8,3.6-3.7,5.2-5.8c0.6-0.7,1.1-1.5,1.6-2.3c9.9-14.6,11.3-33.5,3.6-49.2C109.4,49.6,99.5,41,87.4,36.9
							c-12.2-4.1-25.4-3.1-37,2.8c-4.5,2.3-8.7,5.3-12.2,8.8c-0.4,0.4-0.8,0.8-1.2,1.2c-1.1,1.1-2.1,2.3-3,3.5
							c-2.2,2.8-4,5.8-5.6,8.9c-1.5,3.1-2.7,6.5-3.6,9.9c-0.3,1.1-0.5,2.2-0.7,3.3c-0.3,1.7-0.5,3.4-0.6,5c-0.6,8.6,1,17.2,4.8,24.9
							C34.8,118.5,46.8,127.9,61.3,130.9L61.3,130.9z"/>
					</g>
				</g>
				<g>
					<g>
						<path fill="#1F1F23" d="M73.8,133.1c34.4-9.3,49.2-49.2,24-73.5C80.7,43,51.1,47.4,36.2,65.2c-10.9,13-15.9,30.3-0.8,52.6
							c0,0,8.2,8.8,16.4,11.5s16.6,3.9,16.6,3.9L73.8,133.1z"/>
					</g>
				</g>
				<g>
					<g>
						<path fill="#1F1F23" d="M97.8,59.6c25.2,24.3,10.4,64.2-24,73.5h-1.1c25.2-21,31.5-58,6.5-83.1C86,51.4,92.5,54.5,97.8,59.6z"
							/>
					</g>
				</g>
				<g>
					<g>
						<path fill="#1F1F23" d="M71,134.5c-3.4,0-6.8-0.3-10.2-1l0,0c-15.3-3.2-28-13-34.9-27.1c-4-8.1-5.7-17.2-5.1-26.2v-0.1V80
							c1.8-6.4,5.3-12.6,10.3-18.6c9-10.7,23-17.6,37.5-18.3c13-0.7,25,3.5,33.7,11.9c9.4,9.1,14.5,20.5,14.6,33
							c0.1,13.3-5.6,26.6-15.7,36.7l-0.2,0.1c-2.2,1.6-4.5,3-7,4.3c-0.9,0.5-1.7,0.8-2.5,1.2c-1.7,0.7-3.4,1.4-5.1,2
							C81.4,133.6,76.2,134.5,71,134.5z M61.3,130.9c8,1.7,16.5,1.2,24.3-1.3c1.7-0.5,3.3-1.2,4.9-1.9c0.7-0.3,1.5-0.7,2.4-1.1
							c2.3-1.2,4.5-2.5,6.5-4c9.5-9.5,15-22.2,14.9-34.7c-0.1-11.8-4.9-22.6-13.8-31.2c-8.2-7.9-19.4-11.9-31.8-11.2
							c-13.7,0.7-27,7.2-35.6,17.4c-4.7,5.6-8,11.5-9.7,17.5c-0.6,8.5,1.1,17.1,4.8,24.8C34.8,118.5,46.8,127.9,61.3,130.9
							L61.3,130.9z"/>
					</g>
				</g>
				<g>
					<g>
						<path fill="#191A32" d="M68.3,134.4L68.3,134.4c-0.4-0.1-8.7-1.3-16.9-3.9c-8.4-2.7-16.6-11.4-16.9-11.8l-0.1-0.2
							c-13.2-19.5-13-37.7,0.8-54.1c8-9.6,20.5-15.7,33.4-16.3c11.6-0.6,22.3,3.2,30.1,10.7c11.2,10.8,15.5,25.6,11.7,40.4
							c-4.4,16.9-18.2,30.4-36.2,35.3H74L68.3,134.4z M73.8,133.1L73.8,133.1L73.8,133.1z M36.4,117c0.8,0.8,8.4,8.6,15.8,11
							c7.5,2.5,15.4,3.7,16.3,3.8h5.1c17-4.6,30.1-17.4,34.2-33.4c3.6-13.9-0.4-27.7-11-37.9c-7.2-7-17.2-10.5-28.1-9.9
							C56.5,51.2,44.7,57,37.1,66C24.2,81.5,23.9,98.6,36.4,117z"/>
					</g>
				</g>
				<g>
					<g>
						<path fill="#FFFFFF" d="M110.5,41.2c7.8,5.9,10.8,15.5,6.8,21.4c-4,6-13.7,6.1-21.4,0.2l-0.1-0.1C88,56.8,85,47.3,89,41.4
							c3.1-4.6,9.6-5.7,15.9-3.3C106.8,38.8,108.7,39.9,110.5,41.2z"/>
					</g>
				</g>
				<g opacity="0.35">
					<g>
						<path fill="#361B45" d="M110.5,41.2c7.8,5.9,10.8,15.5,6.8,21.4c-4,6-13.7,6.1-21.4,0.2l-0.1-0.1c1.2-0.1,2.7-0.5,3.4-2.1
							c1.2-2.8-0.9-10.9-0.9-10.9s2.9-5.1,6.8-11.6C106.8,38.8,108.7,39.9,110.5,41.2z"/>
					</g>
				</g>
				<g>
					<g>
						<path fill="#1F1F23" d="M107.7,68.5c-4.2,0-8.7-1.6-12.7-4.6c-8.3-6.3-11.5-16.7-7.1-23.2c1.8-2.6,4.5-4.3,8-4.9
							c4.9-0.8,10.5,0.8,15.3,4.4c8.3,6.3,11.5,16.7,7.1,23.2c-1.8,2.6-4.5,4.3-8,4.9C109.5,68.4,108.6,68.5,107.7,68.5z M98.5,38.2
							c-0.7,0-1.4,0.1-2.1,0.2c-2.7,0.5-4.9,1.8-6.3,3.8c-3.7,5.4-0.8,14.2,6.5,19.7c4.2,3.1,9.2,4.6,13.3,3.9
							c2.7-0.5,4.9-1.8,6.3-3.8c3.7-5.4,0.8-14.2-6.5-19.7C106.2,39.6,102.1,38.2,98.5,38.2z"/>
					</g>
				</g>
				<g>
					<g>
						<path fill="#FFFFFF" d="M116.7,44.8c4.3,6.3,3.4,13.5-2,16.1c-5.4,2.6-13.4-0.3-17.7-6.6c-4.3-6.3-3.4-13.5,2-16.1
							C104.4,35.6,112.3,38.5,116.7,44.8z"/>
					</g>
					<g>
						<path fill="#361B45" d="M110.3,62c-4.8,0-10.1-2.9-13.4-7.6c-2.4-3.5-3.3-7.5-2.4-10.8c0.7-2.5,2.2-4.4,4.5-5.5
							c5.5-2.7,13.5,0.3,17.9,6.6l0,0c2.4,3.5,3.3,7.5,2.4,10.8c-0.7,2.5-2.2,4.4-4.5,5.5C113.4,61.7,111.8,62,110.3,62z
							 M103.4,37.4c-1.5,0-3,0.3-4.4,0.9c-2.2,1.1-3.7,2.9-4.3,5.3c-0.9,3.3,0,7.1,2.4,10.6c3.2,4.7,8.5,7.5,13.2,7.5
							c1.5,0,3-0.3,4.4-0.9c2.2-1.1,3.7-2.9,4.3-5.3c0.9-3.3,0-7.1-2.4-10.6l0,0C113.3,40.2,108.1,37.4,103.4,37.4z"/>
					</g>
				</g>
				<g opacity="0.35">
					<g>
						<path fill="#361B45" d="M105.6,61.2c-2.5-1-4.6-2.7-6.3-4.8c5.8,1.9,10.9-1,11.6-6.7c0.5-3.7-1-7.8-3.6-11
							c0.4,0.1,0.7,0.3,1.1,0.4c6.2,2.6,10.7,9.7,10,15.8C117.5,61,111.8,63.8,105.6,61.2z"/>
					</g>
				</g>
				<g>
					<g>
						<path fill="#1F1F23" d="M111.2,62.5c-3.5,0-7.5-1.4-10.9-4c-6.9-5.2-9.7-13.6-6.3-18.7c1.3-2,3.4-3.2,5.9-3.7
							c4-0.7,8.8,0.8,12.8,3.9l0,0c6.9,5.2,9.7,13.6,6.3,18.7c-1.3,2-3.4,3.2-5.9,3.7C112.5,62.5,111.9,62.5,111.2,62.5z M102,38.6
							c-0.5,0-1.1,0-1.6,0.1c-1.9,0.3-3.3,1.2-4.2,2.6c-2.6,4-0.1,10.8,5.7,15.2c3.5,2.7,7.6,3.9,10.9,3.4c1.9-0.3,3.3-1.2,4.2-2.6
							c2.6-4,0.1-10.8-5.7-15.2C108.3,39.8,104.9,38.6,102,38.6z"/>
					</g>
				</g>
				<g opacity="0.5">
					<g>
						<path fill="#FFFFFF" d="M50.9,61.8c0,0-13.3,18.1-11.5,35.8c0,0,0,0,0,0.1c0.4,3.7,1.8,7.3,3.9,10.2c2.9,4,5.5,6.2,7.8,8.2
							c7.2,5.9,11.6,7.2,11.6,7.2c-7.1,1-13.3-0.1-19.3-5c-0.6-0.5-1.2-1-1.8-1.5c-0.1-0.1-0.3-0.3-0.4-0.4l0,0
							c-1.1-1.2-2.5-2.8-4-4.8c-4.3-5.9-8.9-15-6.6-24.7C35.1,68.7,50.6,60.6,50.9,61.8z"/>
					</g>
				</g>
				<g opacity="0.5">
					<g>
						<path fill="#FFFFFF" d="M76.6,71.1c3.9,1.7,8.3,0.4,9.8-3s-0.4-7.5-4.3-9.3c-3.9-1.7-8.3-0.4-9.8,3
							C70.8,65.3,72.7,69.4,76.6,71.1z"/>
					</g>
				</g>
				<g opacity="0.5">
					<g>
						<path fill="#FFFFFF" d="M91.2,73.4c1.7,0.6,3.4-0.1,3.9-1.6c0.5-1.4-0.4-3.1-2.1-3.7s-3.4,0.1-3.9,1.6S89.5,72.8,91.2,73.4z"
							/>
					</g>
				</g>
			</g>
			<g>
				<g>
					<path fill="#EDDF5E" d="M39.8,127.5c0,0,17.6-8.9,34.2-5.5c14.4,2.9,21.8,10.9,21.8,10.9s-8.9,13.8-28,14.9
						S39.8,127.5,39.8,127.5z"/>
				</g>
			</g>
			<g opacity="0.7">
				<g>
					<path fill="#EDDF5E" d="M95.9,132.9c0,0-0.5,0.8-1.6,2.1c-2.9-2.4-9.7-7.2-20.2-9.4c-12.5-2.6-27.2,1.2-33.6,3.2
						c-0.4-0.8-0.6-1.3-0.6-1.3s17.6-8.9,34.2-5.5C88.4,125,95.9,132.9,95.9,132.9z"/>
				</g>
			</g>
			<g>
				<g>
					<path fill="#1F1F23" d="M95.9,134.2c-0.3,0-0.7-0.1-0.9-0.4c-0.1-0.1-7.4-7.7-21.2-10.5c-16-3.3-33.2,5.3-33.4,5.4
						c-0.6,0.3-1.4,0.1-1.7-0.6c-0.3-0.6-0.1-1.4,0.6-1.7c0.7-0.4,18.2-9,35-5.6c14.6,3,22.2,10.9,22.5,11.2
						c0.5,0.5,0.5,1.3-0.1,1.8C96.5,134.1,96.2,134.2,95.9,134.2z"/>
				</g>
			</g>
			<g>
				<g>
					<path fill="#FFFFFF" d="M128.5,123.8l32,5c0,0-1.1,14.5-3.5,15c-2.3,0.5-26.1-3.4-27.9-5C126.5,136.6,128.5,123.8,128.5,123.8z
						"/>
				</g>
			</g>
			<g>
				<g>
					<path fill="#FFFFFF" d="M122.9,128.2l37.6,5.8c0,0-0.6,13-3.4,14c-10.1,3.3-30.3-2.4-32.4-4.4
						C119,138.1,122.9,128.2,122.9,128.2z"/>
				</g>
			</g>
			<g opacity="0.35">
				<g>
					<path fill="#361B45" d="M122.9,128.2l37.6,5.8c0,0-0.6,13-3.4,14c-10.1,3.3-30.3-2.4-32.4-4.4
						C119,138.1,122.9,128.2,122.9,128.2z"/>
				</g>
			</g>
			<g>
				<g>
					<path fill="#1F1F23" d="M149.5,150.2c-10.6,0-23.8-3.9-25.7-5.7c-6.2-5.9-2.3-16.3-2.1-16.7c0.2-0.6,0.8-0.9,1.4-0.8l37.6,5.8
						c0.7,0.1,1.1,0.7,1.1,1.3c0,0.1-0.2,3.4-0.7,6.8c-1,6.7-2.5,8-3.7,8.4C155.2,149.9,152.5,150.2,149.5,150.2z M123.8,129.7
						c-0.7,2.5-2.2,9.1,1.8,13c0.7,0.6,5.6,2.5,12.5,3.8c4.5,0.9,13,2.1,18.5,0.3c1-0.5,2.1-5.8,2.5-11.6L123.8,129.7z"/>
				</g>
			</g>
			<g>
				<g>
					<path fill="#FFFFFF" d="M127.3,123.9l32,5c0,0-1.1,14.5-3.5,15c-2.3,0.5-26.1-3.4-27.9-5C125.3,136.7,127.3,123.9,127.3,123.9z
						"/>
				</g>
			</g>
			<g>
				<g>
					<path fill="#1F1F23" d="M155.1,145.1c-5.1,0-26-3.5-28-5.3c-2.8-2.4-1.4-12.9-0.9-16c0.1-0.6,0.7-1,1.3-0.9l32,5
						c0.6,0.1,1,0.6,0.9,1.2c0,0.1-0.3,3.7-0.9,7.4c-1.1,7.1-2.4,8.4-3.6,8.6C155.8,145,155.5,145.1,155.1,145.1z M155.4,142.9
						L155.4,142.9L155.4,142.9z M128.3,125.2c-0.8,5.6-0.9,11.9,0.3,12.9c2,1.4,24.4,5.1,26.9,4.8c0.9-0.8,2.1-6.6,2.7-13
						L128.3,125.2z"/>
				</g>
			</g>
			<g>
				<g>
					<path fill="#FFFFFF" d="M155.8,107.5c-0.5,12.9-3,24.4-8,25.4c-6.8,1.3-9.5-6-9.5-6s3.4-11.1,2.6-29.3
						c-0.3-7.3-1.3-15.8-3.5-25.1c0,0,4.8-7.2,11.7-2.5C153.8,73.3,156.4,91.5,155.8,107.5z"/>
				</g>
			</g>
			<g opacity="0.35">
				<g>
					<path fill="#361B45" d="M155.8,107.5c-0.5,12.9-3,24.4-8,25.4c-6.8,1.3-9.5-6-9.5-6s3.4-11.1,2.6-29.3
						c2.7,3.5,1.4,19.8,4.4,19.4c2.6-0.4,3.3-15.8,4.3-14.5c1,1.2-0.7,15.1,2.4,15.8C153.3,118.5,154.7,113.2,155.8,107.5z"/>
				</g>
			</g>
			<g>
				<g>
					<path fill="#1F1F23" d="M146.2,134.3c-5.1,0-8.2-4.4-9.1-6.9l-0.2-0.4l0.1-0.4c0.1-0.2,6.4-21.8-0.9-53.8l-0.1-0.5l0.3-0.5
						c0.1-0.2,2.5-3.7,6.5-4.5c2.3-0.5,4.7,0.1,7,1.7c4.5,3.1,6.2,15.1,6.8,22c1,10.9,0.6,22.7-1.1,30.9c-1.6,7.5-4.1,11.6-7.5,12.3
						C147.4,134.3,146.8,134.3,146.2,134.3z M139.6,126.8c0.6,1.3,3,5.7,7.9,4.8c2.2-0.4,4.2-4.2,5.4-10.3
						c1.7-7.9,2.1-19.5,1.1-30.1c-1-10.7-3.2-18.4-5.7-20.2c-1.7-1.2-3.4-1.6-5-1.3c-2.2,0.4-3.9,2.2-4.6,3
						C145.5,103,140.5,123.5,139.6,126.8z M138.3,126.9L138.3,126.9L138.3,126.9z"/>
				</g>
			</g>
			<g>
				<g>
					<path fill="#FFFFFF" d="M200.3,155.5c-5.2,0.2-11.2-2.8-14.1-4.4c-0.7-0.4-1.2-0.7-1.5-0.9c-11.4,8.4-25.9,6.6-32-6.1
						c-5.5-11.5-1.9-24,1.4-31.5c1.8-4.1,3.5-6.6,3.5-6.6l18.2,20.3c0,0,5.8-5.9,14.9-4.6c7,1.1,18.4,12.5,19.9,17.2
						C213.5,147.6,206.6,155.2,200.3,155.5z"/>
				</g>
			</g>
			<g>
				<g>
					<path fill="#1F1F23" d="M175.5,126c2.2-2.9,5.5-4.8,9.1-5.5c0.5-0.1,0.9-0.2,1.4-0.2l1.4-0.1c0.9,0,1.8,0,2.8,0.1l0.7,0.1
						c0.2,0,0.5,0.1,0.7,0.1c0.5,0.1,0.9,0.2,1.4,0.4c0.9,0.3,1.7,0.7,2.5,1.1c1.6,0.9,3.1,1.9,4.5,2.9c1.4,1.1,2.7,2.2,4,3.4
						c1.3,1.2,2.5,2.4,3.7,3.8c1.2,1.3,2.3,2.7,3.2,4.3c0.2,0.4,0.5,0.8,0.7,1.3c0.1,0.2,0.2,0.5,0.3,0.7s0.1,0.5,0.2,0.7
						c0.3,0.9,0.5,1.8,0.5,2.8c0.2,1.9-0.1,3.8-0.7,5.6c-1.2,3.6-3.8,6.6-7.3,8.2c-0.9,0.4-1.8,0.7-2.7,0.9
						c-0.2,0.1-0.5,0.1-0.7,0.1s-0.5,0-0.7,0.1c-0.5,0-0.9,0-1.4,0c-1.9-0.1-3.6-0.5-5.3-1s-3.4-1.2-4.9-1.9
						c-1.6-0.8-3.1-1.6-4.6-2.5l1.5-0.1c-2.7,2-5.8,3.6-9.1,4.5s-6.8,1.2-10.2,0.5c-3.4-0.6-6.6-2.2-9.3-4.4
						c-2.6-2.3-4.6-5.2-5.9-8.3L151,143c-0.1-0.2-0.1-0.4-0.2-0.6l-0.4-1.2L150,140l-0.2-0.6l-0.1-0.6c-0.4-1.6-0.6-3.3-0.8-5
						c-0.1-1.7-0.1-3.4,0-5c0.1-1.7,0.3-3.3,0.6-5c0.3-1.6,0.7-3.3,1.2-4.8c0.5-1.6,0.9-3.2,1.5-4.7c0.6-1.6,1.3-3,2.1-4.5
						c0.9-1.4,1.8-2.8,3.1-3.9c0.2-0.2,0.5-0.1,0.6,0s0.1,0.3,0.1,0.4l0,0c-0.9,3.2-2.2,6-3.4,8.9c-0.6,1.5-1.2,2.9-1.6,4.4
						c-0.4,1.5-0.8,3-1.1,4.6c-0.3,1.5-0.5,3.1-0.6,4.7s-0.1,3.1,0,4.7c0.1,1.5,0.3,3.1,0.7,4.6l0.1,0.6l0.2,0.6l0.3,1.1l0.4,1.1
						c0.1,0.2,0.1,0.4,0.2,0.5l0.2,0.5c1.2,2.8,2.9,5.4,5.2,7.4s5.1,3.3,8.1,3.8c3,0.6,6.1,0.3,9-0.5s5.7-2.3,8.2-4.1l0.7-0.5
						l0.7,0.5c1.4,0.9,2.9,1.7,4.4,2.4s3,1.3,4.6,1.8s3.2,0.8,4.7,0.9h1.2c0.2,0,0.4,0,0.5,0c0.2,0,0.4,0,0.5-0.1
						c0.7-0.1,1.4-0.4,2.1-0.7c2.7-1.3,5-3.9,5.9-6.8c0.5-1.5,0.7-3,0.6-4.5c-0.1-0.8-0.2-1.5-0.4-2.3c-0.1-0.2-0.1-0.4-0.2-0.5
						c-0.1-0.2-0.1-0.3-0.2-0.5c-0.1-0.3-0.3-0.7-0.5-1c-0.8-1.4-1.9-2.7-2.9-3.9c-1.1-1.2-2.3-2.4-3.5-3.6c-2.4-2.3-5.1-4.4-8-5.8
						c-0.7-0.4-1.4-0.7-2.2-0.9c-0.4-0.1-0.7-0.2-1.1-0.3c-0.2,0-0.3-0.1-0.5-0.1l-0.6-0.1c-1.6-0.2-3.2-0.2-4.7,0.1
						c-3.1,0.5-6.1,1.8-9,3.5l0,0c-0.2,0.1-0.5,0.1-0.6-0.2C175.4,126.3,175.4,126.1,175.5,126z"/>
				</g>
			</g>
			<g opacity="0.35">
				<g>
					<path fill="#361B45" d="M184.8,150.2c0.1,0,1.3,0,1.3,0l0.1,0.1c0,0,7,5.5,14.2,5.2c6.2-0.3,13.2-7.9,10.3-16.5
						c-0.2-0.7-0.7-1.6-1.3-2.5c0.4,3.6-0.8,11.2-8.5,12.1c-9.2,1.1-7.7-10.5-7.7-10.5C192.4,141.6,189.1,146.3,184.8,150.2z"/>
				</g>
			</g>
			<g opacity="0.35">
				<g>
					<path fill="#361B45" d="M193.1,138.6l-6.9,12.4c-0.7-0.4-1.2-0.7-1.5-0.9c-11.4,8.4-25.9,6.6-32-6.1c-5.5-11.5-1.9-24,1.4-31.5
						c-0.8,7-1.6,25.4,8.8,32.1C177.1,153.6,193.1,138.6,193.1,138.6z"/>
				</g>
			</g>
			<g>
				<g>
					<path fill="#1F1F23" d="M184.1,149.3l1.3-1.2l0.6-0.6c0.2-0.2,0.4-0.4,0.6-0.6c0.8-0.9,1.7-1.7,2.4-2.7
						c0.8-0.9,1.5-1.9,2.2-2.9s1.2-2.1,1.8-3.2l0,0c0-0.1,0.1-0.1,0.2-0.1c0.1,0,0.1,0.1,0.1,0.2c-0.2,1.3-0.4,2.5-0.9,3.7
						s-1,2.4-1.7,3.5s-1.4,2.2-2.3,3.1c-0.4,0.5-0.9,1-1.4,1.4s-1,0.8-1.6,1.2c-0.5,0.3-1.2,0.2-1.5-0.3
						C183.6,150.3,183.7,149.7,184.1,149.3L184.1,149.3z"/>
				</g>
			</g>
			<g>
				<g>
					<path fill="#1F1F23" d="M161.6,146.9c-6.5,0-10.4-4.1-10.6-4.3c-0.4-0.5-0.4-1.2,0.1-1.6c0.5-0.4,1.2-0.4,1.6,0.1l0,0
						c0.2,0.2,5.4,5.6,14,2.7c7.9-2.7,11.8-15.9,11.7-20c0-0.6,0.5-1.1,1.1-1.1s1.1,0.5,1.1,1.1c0.1,5.1-4.4,19.1-13.2,22.2
						C165.2,146.6,163.3,146.9,161.6,146.9z"/>
				</g>
			</g>
			<g opacity="0.35">
				<g>
					<path fill="#1F1F23" d="M118.9,142.7c-1.1,3.7-10.1,5.3-10.1,5.3s-3.4,3.4-11.4,6.5h-0.1c-6.6,2.6-34.2,12.8-63.4-2.5
						c-7.3-3.8-12.6-12.3-12.6-12.3s-9.2-1.2-9.2-6.4c0-0.8,0.1-1.5,0.4-2.1C14.7,139.5,26,134,26,134s5.3,9.9,11.1,13.8
						c13.3,9,34.2,7.5,47.8,5c1.4-0.3,1.4-2.2,0-2.5c0,0,0,0-0.1,0c-18.6-3.8-21.1-23-9.8-27c14.7-5.1,21.8,2.5,26,3.5
						c4.9,1.1,6-2.7,5.6-5.3l0.9,0.2l2.6,12.1c0,0,6,2,8.2,5.3c0.2,0.2,0.3,0.5,0.4,0.7c0,0.1,0,0.1,0.1,0.2
						c0.1,0.2,0.1,0.3,0.2,0.5l0,0c0,0.1,0,0.1,0,0.2v0.1c0,0.1,0,0.1,0,0.2c0,0.1,0,0.1,0,0.2v0.1
						C119.1,141.7,119,142.2,118.9,142.7z"/>
				</g>
			</g>
			<g opacity="0.35">
				<g>
					<path fill="#361B45" d="M118.2,139.1c0.2,0.2,0.3,0.5,0.4,0.7C118.5,139.5,118.4,139.3,118.2,139.1z"/>
				</g>
			</g>
			<g>
				<g>
					<path fill="#FFFFFF" d="M109.7,117c0.4,2.6-0.7,6.4-5.6,5.3c-4.2-1-11.3-8.6-26-3.5c-11.3,3.9-8.8,23.2,9.8,27
						c15.6,3.2,25.8,15.7,40.5,1.6c9-8.7,3.4-26.6,3.4-26.6"/>
				</g>
			</g>
			<g opacity="0.35">
				<g>
					<path fill="#361B45" d="M128.5,147.4c-14.7,14.1-24.9,1.6-40.5-1.6c-15.1-3.1-19.6-16.4-14.7-23.4c-0.4,6.9,3.4,15.1,13.1,16.5
						c19.6,2.8,27.4,12.7,42.1-1.4c2.8-2.7,4.2-6.4,4.8-10.1C134,133.5,133.9,142.1,128.5,147.4z"/>
				</g>
			</g>
			<g>
				<g>
					<path fill="#1F1F23" d="M110.2,116.9c0.3,0.8,0.4,1.6,0.3,2.5s-0.4,1.8-1,2.6c-0.3,0.4-0.7,0.7-1.1,1s-0.9,0.5-1.4,0.6
						c-0.2,0.1-0.5,0.1-0.7,0.1h-0.4c-0.1,0-0.2,0-0.3,0c-0.2,0-0.5,0-0.7,0l-0.7-0.1l-0.3-0.1l-0.3-0.1l-0.7-0.2
						c-0.4-0.2-0.8-0.3-1.2-0.5c-0.7-0.3-1.4-0.7-2.1-1.1c-1.3-0.7-2.7-1.4-4-1.9c-1.3-0.6-2.8-0.9-4.2-1.2
						c-1.4-0.2-2.9-0.4-4.3-0.3c-2.9,0.1-5.8,0.7-8.6,1.7c-1.3,0.5-2.4,1.2-3.3,2.1c-0.9,1-1.6,2.1-2,3.4c-0.8,2.6-0.5,5.5,0.6,8.1
						s2.9,4.9,5.2,6.7c1.1,0.9,2.4,1.6,3.7,2.2c1.3,0.6,2.7,1.1,4.1,1.5l1.1,0.3l0.5,0.1l0.6,0.1c0.8,0.2,1.5,0.4,2.3,0.6
						c1.5,0.4,3,0.9,4.5,1.5c2.9,1.1,5.7,2.3,8.5,3.5c2.8,1.1,5.6,2.1,8.5,2.4c1.4,0.2,2.8,0.1,4.2-0.1c1.4-0.2,2.7-0.7,4-1.3
						s2.5-1.3,3.7-2.2c0.1-0.1,0.3-0.2,0.4-0.3l0.4-0.3l0.8-0.7l0.8-0.7l0.4-0.4c0.1-0.1,0.2-0.3,0.4-0.4c1.9-2,3.2-4.6,3.8-7.5
						c0.3-1.4,0.5-2.9,0.6-4.3c0.1-1.5,0-2.9-0.1-4.4l-0.4-4.4c-0.1-1.5-0.2-3-0.2-4.6l0,0c0-0.2,0.2-0.4,0.5-0.4
						c0.2,0,0.3,0.1,0.4,0.2c0.9,1.4,1.4,2.9,1.9,4.4c0.4,1.5,0.6,3.1,0.7,4.7c0.1,1.6,0.1,3.2,0,4.8s-0.3,3.2-0.6,4.8
						c-0.4,1.6-0.9,3.1-1.6,4.6c-0.7,1.5-1.7,2.9-2.9,4.1c-0.1,0.1-0.3,0.3-0.4,0.4l-0.4,0.4l-0.9,0.8l-0.9,0.8l-0.5,0.4
						c-0.2,0.1-0.3,0.2-0.5,0.4c-1.3,1-2.7,1.8-4.2,2.5s-3.1,1.2-4.7,1.5s-3.3,0.3-4.9,0.1c-3.3-0.4-6.3-1.4-9.2-2.5
						c-2.9-1.1-5.7-2.4-8.5-3.4c-1.4-0.5-2.8-1-4.3-1.4c-0.7-0.2-1.4-0.4-2.2-0.5l-1.1-0.3l-1.2-0.3c-1.5-0.4-3.1-1-4.5-1.7
						c-1.5-0.7-2.9-1.5-4.1-2.5c-2.6-2-4.7-4.6-6-7.7c-1.3-3-1.7-6.6-0.6-9.9c0.5-1.6,1.4-3.2,2.6-4.4c1.2-1.3,2.7-2.2,4.3-2.8
						c3-1,6.1-1.7,9.4-1.8c1.6-0.1,3.2,0.1,4.8,0.3c1.6,0.3,3.2,0.7,4.7,1.3c1.5,0.5,3,1.2,4.3,1.9c0.7,0.4,1.4,0.7,2,1
						c0.3,0.2,0.6,0.3,0.9,0.4l0.4,0.1l0.2,0.1h0.2l0.5,0.1h0.5c0.1,0,0.2,0,0.2,0h0.2c0.1,0,0.3,0,0.4,0c0.5-0.1,1-0.2,1.4-0.6
						c0.4-0.3,0.7-0.9,1-1.5c0.2-0.6,0.4-1.3,0.5-2l0,0c0-0.2,0.2-0.4,0.5-0.4C110,116.6,110.1,116.8,110.2,116.9z"/>
				</g>
			</g>
			<g>
				<g>
					<path fill="#1F1F23" d="M112.5,155.1c-0.3,0-0.6-0.1-0.8-0.3c-0.5-0.5-0.6-1.3-0.2-1.8c10.4-12.6-7-29.4-7.2-29.6
						c-0.5-0.5-0.5-1.3,0-1.8s1.3-0.5,1.8,0c0.2,0.2,4.9,4.6,8.2,10.9c4.5,8.5,4.3,16.2-0.8,22.2
						C113.3,154.9,112.9,155.1,112.5,155.1z"/>
				</g>
			</g>
		</g>
		<g>
			<g>
				<g>
					<path fill="#1F1F23" d="M18.9,40.6c-0.1,0-0.1,0-0.2,0l-5.2-1c-0.4-0.1-0.7-0.4-0.7-0.7c-0.1-0.4,0.1-0.8,0.4-1l4.3-2.9
						l-2.9-0.6c-0.5-0.1-0.9-0.6-0.8-1.1c0.1-0.5,0.6-0.8,1.1-0.8l5.2,1c0.4,0.1,0.7,0.4,0.7,0.7c0.1,0.4-0.1,0.8-0.4,1l-4.3,2.9
						l2.9,0.6c0.5,0.1,0.9,0.6,0.8,1.1S19.3,40.6,18.9,40.6z"/>
				</g>
			</g>
			<g>
				<g>
					<path fill="#1F1F23" d="M10,28.9c-0.1,0-0.1,0-0.2,0l-8.6-1.7c-0.4-0.1-0.7-0.4-0.7-0.7c-0.1-0.4,0.1-0.8,0.4-1l8.5-5.8L3,18.5
						c-0.5-0.1-0.9-0.6-0.8-1.1c0.1-0.5,0.6-0.8,1.1-0.8l8.6,1.7c0.4,0.1,0.7,0.4,0.7,0.7c0.1,0.4-0.1,0.8-0.4,1l-8.5,5.8l6.4,1.2
						c0.5,0.1,0.9,0.6,0.8,1.1C10.8,28.6,10.4,28.9,10,28.9z"/>
				</g>
			</g>
			<g>
				<g>
					<path fill="#1F1F23" d="M30.5,21.1c-0.1,0-0.1,0-0.2,0l-12.1-2.4c-0.4-0.1-0.7-0.4-0.8-0.8c-0.1-0.4,0.1-0.8,0.4-1l12.5-8.5
						l-9.7-1.9c-0.6-0.1-0.9-0.6-0.8-1.2s0.6-0.9,1.2-0.8l12.1,2.4c0.4,0.1,0.7,0.4,0.8,0.8s-0.1,0.8-0.4,1L21,17.2l9.7,1.9
						c0.6,0.1,0.9,0.6,0.8,1.2C31.4,20.8,31,21.1,30.5,21.1z"/>
				</g>
			</g>
		</g>
	</g>
</g>
</svg>
