<?xml version="1.0" encoding="utf-8"?>
<!-- Generator: Adobe Illustrator 17.0.0, SVG Export Plug-In . SVG Version: 6.00 Build 0)  -->
<!DOCTYPE svg PUBLIC "-//W3C//DTD SVG 1.1//EN" "http://www.w3.org/Graphics/SVG/1.1/DTD/svg11.dtd">
<svg version="1.1" id="Camada_1" xmlns="http://www.w3.org/2000/svg" xmlns:xlink="http://www.w3.org/1999/xlink" x="0px" y="0px"
	 width="262px" height="220px" viewBox="0 0 262 220" enable-background="new 0 0 262 220" xml:space="preserve">
<g>
	<text transform="matrix(1 0 0 1 143.9597 200.6584)" fill="#1F1F23" font-family="'ProximaNova-Bold'" font-size="66.4607">.</text>
	<g>
		<g>
			<g>
				<g>
					<path fill="#EDDF5E" d="M146.211,170.682c-1.357,4.564-12.457,6.537-12.457,6.537s-4.194,4.194-14.061,8.017h-0.123
						c-8.141,3.207-42.183,15.788-78.199-3.084c-9.004-4.687-15.541-15.171-15.541-15.171s-11.347-1.48-11.347-7.894
						c0-6.29,6.414-7.154,12.211-7.03c0,0,0.987-17.761,20.845-29.232s82.022,9.251,82.022,9.251l2.714,12.581l3.207,14.924
						C135.357,159.705,148.184,163.898,146.211,170.682z"/>
				</g>
			</g>
			<g>
				<g>
					<path fill="#1F1F23" d="M82.443,193.994c-12.828,0-27.258-2.59-41.936-10.361c-8.141-4.194-14.184-12.704-15.664-15.048
						c-2.714-0.493-11.964-2.714-11.964-9.374c0-2.343,0.74-4.194,2.22-5.674c2.097-1.973,5.304-2.96,10.114-2.96
						c0.74-4.687,4.317-18.995,21.461-28.985c20.228-11.717,80.789,8.264,83.379,9.127c0.493,0.123,0.987,0.617,1.11,1.233
						l5.674,26.642c3.084,1.233,13.198,5.55,10.977,12.704c-1.48,4.934-10.854,7.03-13.321,7.524
						c-1.233,1.11-5.674,4.687-14.308,8.017C111.428,190.047,98.107,193.994,82.443,193.994z M25.336,153.661
						c-3.947,0-6.66,0.617-8.017,2.097c-0.863,0.863-1.233,1.973-1.233,3.33c0,4.934,9.867,6.29,9.991,6.414
						c0.493,0.123,0.863,0.37,1.11,0.74c0.123,0.123,6.414,10.114,14.924,14.554c31.329,16.528,61.671,8.881,76.965,2.96l0,0
						c9.374-3.7,13.568-7.647,13.568-7.647c0.247-0.247,0.493-0.37,0.863-0.37c4.194-0.74,10.484-2.837,11.224-5.427
						c1.603-5.18-9.744-9.004-9.867-9.127c-0.493-0.123-0.987-0.617-1.11-1.233l-5.674-26.642
						c-7.524-2.467-62.164-19.365-79.925-9.004c-18.871,10.977-19.981,27.752-19.981,27.875c0,0.863-0.74,1.48-1.603,1.48
						C26.076,153.785,25.706,153.661,25.336,153.661z"/>
				</g>
			</g>
			<g opacity="0.35">
				<g>
					<path fill="#361B45" d="M56.171,143.3c-1.233,3.824-9.744,9.127-22.571,12.458c-8.264,2.097-15.294,0.493-16.528-10.977
						c-1.11-10.237,12.457-21.091,25.038-19.118C56.295,128.006,57.528,139.477,56.171,143.3z"/>
				</g>
			</g>
			<g>
				<g>
					<path fill="#FFFFFF" d="M50.004,137.38c-1.233,3.824-5.674,10.731-18.501,13.938c-8.264,2.097-15.294,0.493-16.528-10.977
						c-1.11-10.237,12.457-21.091,25.038-19.118C54.198,123.689,51.238,133.556,50.004,137.38z"/>
				</g>
			</g>
			<g opacity="0.35">
				<g>
					<path fill="#361B45" d="M50.251,136.517c-0.123,0.37-0.247,0.617-0.247,0.987c-1.233,3.824-5.674,10.731-18.501,13.938
						c-8.264,2.097-15.294,0.493-16.528-10.977c-0.247-2.837,0.493-5.674,2.097-8.264c1.48,10.977,9.621,12.951,18.008,12.087
						C44.947,143.177,48.771,139.847,50.251,136.517z"/>
				</g>
			</g>
			<g>
				<g>
					<path fill="#1F1F23" d="M25.953,153.785c-2.837,0-5.18-0.617-7.03-1.973c-3.084-2.097-4.934-5.92-5.427-11.224
						c-0.493-4.687,1.727-9.744,6.044-13.938c5.674-5.427,13.691-8.017,20.721-6.907c5.427,0.863,9.127,2.96,11.101,6.167
						c2.467,4.07,1.357,8.881,0.247,11.964c-1.11,3.33-5.18,11.347-19.611,15.048C29.776,153.538,27.68,153.785,25.953,153.785z
						 M36.93,122.702c-5.304,0-11.101,2.343-15.294,6.29c-3.7,3.454-5.55,7.524-5.057,11.347c0.493,4.317,1.85,7.4,4.07,8.881
						c2.343,1.603,5.92,1.85,10.484,0.74c12.828-3.33,16.404-10.114,17.391-12.951l0,0c0.863-2.59,1.85-6.414,0-9.374
						c-1.357-2.343-4.44-3.947-8.881-4.687C38.78,122.702,37.794,122.702,36.93,122.702z"/>
				</g>
			</g>
			<g>
				<g>
					<path fill="#FFFFFF" d="M215.529,99.021l1.603-13.321c0.247-9.744,1.357-24.052-17.885-29.849
						c-22.201-6.66-50.94-4.44-58.711-0.493c-12.951,6.414-20.968,43.293-20.968,43.293L215.529,99.021z"/>
				</g>
			</g>
			<g>
				<g>
					<path fill="#FFFFFF" d="M217.132,85.823l-0.37,3.33l-1.11,9.867l-93.493-0.493h-2.467c0,0,0-0.123,0.123-0.493
						c0.247-0.863,0.74-2.96,1.48-5.674c2.96-10.731,9.744-32.315,19.365-37.002c7.771-3.947,36.509-6.167,58.711,0.493
						C218.489,61.648,217.379,76.079,217.132,85.823z"/>
				</g>
			</g>
			<g opacity="0.35">
				<g>
					<path fill="#361B45" d="M216.762,89.154l-1.11,9.867l-93.493-0.493l-2.343-0.493c0.247-0.863,0.74-2.96,1.48-5.674
						l13.074-10.237l5.18-16.898c0,0,6.044,9.744,14.678,11.347c21.091,3.7,33.302-3.947,46.746,0.123
						C209.978,79.286,214.542,83.973,216.762,89.154z"/>
				</g>
			</g>
			<g>
				<g>
					<path fill="#FFFFFF" d="M186.667,55.235l-2.097,14.678c-0.247,1.357,0.493,2.59,1.727,3.084
						c4.44,1.85,15.048,5.674,19.611,1.973c3.824-3.084,4.81-9.251,2.59-13.568c-2.467-4.81-13.074-7.524-18.255-8.634
						C188.517,52.398,186.913,53.508,186.667,55.235z"/>
				</g>
			</g>
			<g opacity="0.35">
				<g>
					<path fill="#361B45" d="M186.297,72.996c4.44,1.85,14.924,5.674,19.611,1.973c3.824-3.084,4.81-9.251,2.59-13.568
						c-1.48-2.96-6.044-5.057-10.607-6.66c2.22,1.233,3.824,2.59,4.81,4.194c5.427,8.881-4.194,12.457-4.194,12.457
						s1.85,1.357,1.727,2.22c-0.247,3.207-9.867,0.37-14.924-1.233C185.557,72.626,185.927,72.749,186.297,72.996z"/>
				</g>
			</g>
			<g>
				<g>
					<path fill="#1F1F23" d="M200.358,78.176c-5.057,0-10.854-2.097-14.678-3.7c-1.85-0.74-2.96-2.714-2.714-4.81l2.22-14.678
						c0.123-1.233,0.863-2.343,1.85-3.084s2.343-0.987,3.454-0.74c7.4,1.603,16.774,4.564,19.365,9.497
						c2.59,5.057,1.233,11.964-3.084,15.541C205.168,77.559,202.824,78.176,200.358,78.176z M188.27,55.481l-2.22,14.678
						c-0.123,0.617,0.247,1.11,0.74,1.357c8.511,3.577,15.171,4.44,18.008,2.22c3.084-2.59,4.194-7.771,2.22-11.594
						c-1.48-2.96-8.017-5.92-17.268-7.894c-0.37-0.123-0.74,0-0.987,0.247C188.517,54.741,188.27,55.111,188.27,55.481
						L188.27,55.481z"/>
				</g>
			</g>
			<g>
				<g>
					<path fill="#1F1F23" d="M217.009,100.624l-99.29-0.493l0.37-1.973c0.37-1.48,8.387-37.619,21.708-44.403
						c8.634-4.317,38.236-6.044,59.821,0.493c19.735,5.92,19.365,20.721,19.118,30.465v1.233L217.009,100.624z M121.542,97.047
						l92.506,0.493l1.357-11.841v-0.987c0.247-9.867,0.617-22.078-16.898-27.258c-22.448-6.784-50.323-4.194-57.477-0.617
						C130.793,61.895,123.393,89.4,121.542,97.047z"/>
				</g>
			</g>
			<g>
				<g>
					<path fill="#1F1F23" d="M190.12,68.926c1.727,0.123,3.577,0.493,5.304,0.74c1.727,0.247,3.577,0.37,5.18,0.247
						c1.727-0.123,3.33-0.493,4.687-1.357c1.357-0.74,2.22-1.973,2.837-3.454c0.37-0.863,1.233-1.233,2.097-0.863
						c0.863,0.37,1.233,1.233,0.863,2.097c0,0.123-0.123,0.123-0.123,0.247l0,0c-0.493,0.863-1.233,1.727-1.973,2.343
						c-0.74,0.74-1.727,1.233-2.59,1.603c-1.85,0.74-3.824,0.987-5.674,0.863c-1.85-0.123-3.7-0.493-5.427-0.987
						C193.574,69.912,191.847,69.419,190.12,68.926z"/>
				</g>
			</g>
			<g opacity="0.3">
				<g>
					<path fill="#293856" d="M231.81,128.746c-0.123-0.123-0.247-0.247-0.37-0.37C231.563,128.499,231.686,128.623,231.81,128.746
						L231.81,128.746z"/>
				</g>
			</g>
			<g>
				<g>
					<path fill="#FFFFFF" d="M137.453,89.77c0,0,52.42-20.105,83.132,5.674c21.461,18.008,17.514,45.39,8.634,60.191
						c0,0-84.612,27.752-110.021,2.96C102.301,142.067,137.453,89.77,137.453,89.77z"/>
				</g>
			</g>
			<g>
				<g>
					<path fill="#1F1F23" d="M229.343,157.238c-0.247,0-0.617-0.123-0.863-0.247c-0.74-0.493-0.987-1.48-0.493-2.22
						c8.264-13.568,12.828-40.333-8.264-58.094c-15.418-12.951-36.632-13.691-51.803-12.087c-16.528,1.727-29.602,6.66-29.725,6.784
						c-0.863,0.37-1.727-0.123-2.097-0.863c-0.37-0.863,0.123-1.727,0.863-2.097c0.493-0.247,13.568-5.057,30.465-6.907
						c22.571-2.343,41.443,2.097,54.27,12.828c22.695,18.995,17.761,47.61,9.004,62.164
						C230.33,156.868,229.836,157.238,229.343,157.238z"/>
				</g>
			</g>
			<g>
				<g>
					<path fill="#361B45" d="M138.934,75.216c-0.493-1.973-0.74-3.947-0.987-5.92c-0.123-1.973-0.247-3.947-0.123-6.044
						c0.123-0.987,0.123-1.973,0.37-3.084c0.247-0.987,0.493-2.097,0.863-3.084c0.37-0.987,0.987-2.097,1.85-2.96
						c0.37-0.493,0.987-0.863,1.48-1.233c0.247-0.123,0.617-0.247,0.987-0.37s0.617-0.123,0.987-0.247
						c0.863-0.247,1.727,0.37,1.85,1.233c0.123,0.863-0.37,1.603-1.11,1.85h-0.247c-0.617,0.123-1.11,0.493-1.48,0.987
						c-0.493,0.493-0.863,1.233-1.11,1.973c-0.617,1.603-0.987,3.33-1.233,5.18c-0.123,0.863-0.247,1.85-0.247,2.837
						c-0.123,0.987-0.123,1.85-0.123,2.837c-0.123,1.85-0.123,3.824-0.123,5.797l0,0c0,0.493-0.37,0.74-0.863,0.74
						C139.304,75.833,139.057,75.586,138.934,75.216z"/>
				</g>
			</g>
			<g>
				<g>
					<g>
						<path fill="#FFFFFF" d="M74.919,157.731c9.991,2.097,20.598,1.603,30.835-1.603c2.097-0.617,4.194-1.48,6.167-2.343
							c0.987-0.493,1.973-0.863,2.96-1.357c2.96-1.48,5.797-3.207,8.387-5.057c2.22-1.603,4.44-3.454,6.414-5.304
							c2.343-2.22,4.564-4.687,6.537-7.277c0.74-0.987,1.357-1.85,2.097-2.837c12.211-17.885,14.678-41.689,4.564-62.287
							C127.956,39.324,91.324,27.113,60.982,42.53c-5.797,2.96-10.977,6.784-15.541,11.101c-0.493,0.493-0.987,0.987-1.48,1.603
							c-1.357,1.357-2.59,2.837-3.824,4.44c-2.714,3.577-5.18,7.277-7.03,11.347c-1.973,3.947-3.454,8.141-4.564,12.457
							c-0.37,1.357-0.617,2.714-0.863,4.07c-0.37,2.097-0.617,4.194-0.74,6.29c-0.74,10.607,1.11,21.461,6.044,31.575
							C41.494,142.56,57.281,154.031,74.919,157.731z"/>
					</g>
					<g>
						<path fill="#361B45" d="M87.13,159.088c-4.07,0-8.264-0.37-12.334-1.233C56.418,154.031,41,142.19,32.737,125.169
							c-4.81-9.744-6.907-20.721-6.167-31.575c0.123-2.097,0.37-4.194,0.74-6.29c0.247-1.357,0.493-2.714,0.863-4.194
							c1.11-4.317,2.59-8.511,4.564-12.457c1.973-4.07,4.317-7.894,7.154-11.347c1.233-1.48,2.467-2.96,3.824-4.44
							c0.493-0.617,0.987-1.11,1.603-1.603c4.564-4.44,9.744-8.264,15.541-11.101c14.801-7.524,31.452-8.757,46.993-3.577
							c15.418,5.18,27.875,16.158,35.029,30.835c9.744,19.981,8.017,43.91-4.564,62.411c-0.617,0.987-1.357,1.973-2.097,2.837
							c-1.973,2.59-4.194,5.057-6.537,7.277c-1.973,1.973-4.194,3.7-6.414,5.304c-2.59,1.973-5.427,3.7-8.387,5.18
							c-1.11,0.493-2.097,0.987-2.96,1.357c-1.973,0.863-4.07,1.727-6.167,2.343C99.711,158.101,93.421,159.088,87.13,159.088z
							 M74.919,157.485c10.114,2.097,20.845,1.48,30.712-1.603c2.097-0.617,4.194-1.48,6.167-2.343
							c0.863-0.37,1.85-0.863,2.96-1.357c2.96-1.48,5.674-3.207,8.387-5.057c2.22-1.603,4.317-3.33,6.414-5.304
							c2.343-2.22,4.564-4.687,6.537-7.277c0.74-0.987,1.357-1.85,2.097-2.837c12.581-18.501,14.308-42.306,4.564-62.164
							c-7.154-14.554-19.488-25.532-34.906-30.589c-15.418-5.18-32.069-3.947-46.746,3.454c-5.674,2.96-10.977,6.66-15.418,11.101
							c-0.493,0.493-0.987,0.987-1.48,1.603c-1.357,1.357-2.59,2.837-3.824,4.44c-2.714,3.454-5.057,7.277-7.03,11.347
							C31.38,74.846,29.9,79.04,28.79,83.357c-0.37,1.357-0.617,2.714-0.863,4.07c-0.37,2.097-0.617,4.194-0.74,6.29
							c-0.74,10.854,1.357,21.708,6.044,31.452C41.37,141.82,56.541,153.661,74.919,157.485z"/>
					</g>
				</g>
				<g opacity="0.35">
					<g>
						<path fill="#361B45" d="M142.88,69.419c10.114,20.598,7.524,44.403-4.564,62.287c-0.617,0.987-1.357,1.973-2.097,2.837
							c-1.973,2.59-4.194,5.057-6.537,7.277c-1.973,1.85-4.07,3.7-6.414,5.304c-2.59,1.85-5.427,3.577-8.387,5.18
							c-0.987,0.493-1.973,0.987-2.96,1.357c-2.097,0.863-4.07,1.727-6.167,2.343c-10.237,3.33-20.845,3.7-30.835,1.603
							c-5.55-1.11-10.854-3.084-15.788-5.674c9.621,1.727,19.611,1.233,29.355-1.973c2.097-0.617,4.194-1.48,6.167-2.343
							c0.987-0.493,1.973-0.863,2.96-1.357c2.96-1.48,5.797-3.207,8.387-5.057c2.22-1.603,4.44-3.454,6.414-5.304
							c2.343-2.22,4.564-4.687,6.537-7.277c0.74-0.987,1.357-1.85,2.097-2.837c12.211-17.885,14.678-41.689,4.564-62.287
							c-5.797-12.087-15.171-21.215-26.148-26.888C117.719,39.94,134.123,51.411,142.88,69.419z"/>
					</g>
				</g>
				<g>
					<g>
						<path fill="#361B45" d="M87.13,160.198c-4.194,0-8.387-0.37-12.457-1.233l0,0c-18.748-3.947-34.412-16.034-42.799-33.302
							c-4.934-9.991-7.03-21.091-6.167-32.192c0.123-2.097,0.37-4.317,0.74-6.414c0.247-1.357,0.493-2.837,0.863-4.194
							c1.11-4.317,2.59-8.634,4.564-12.704s4.44-8.017,7.277-11.594c1.233-1.603,2.59-3.084,3.947-4.564
							c0.493-0.617,1.11-1.11,1.603-1.603c4.564-4.564,9.867-8.387,15.788-11.347c15.048-7.647,32.069-8.881,47.856-3.577
							c15.664,5.304,28.369,16.404,35.646,31.329c9.991,20.228,8.141,44.65-4.687,63.521c-0.617,0.987-1.357,1.973-2.097,2.96
							c-2.097,2.714-4.317,5.18-6.66,7.4c-2.097,1.973-4.194,3.824-6.537,5.427c-2.714,1.973-5.55,3.7-8.511,5.18
							c-1.11,0.493-2.097,0.987-3.084,1.48c-1.973,0.863-4.194,1.727-6.29,2.343C99.958,159.212,93.544,160.198,87.13,160.198z
							 M75.166,156.498c9.991,2.097,20.475,1.48,30.219-1.603c2.097-0.617,4.07-1.48,6.044-2.343c0.863-0.37,1.85-0.863,2.96-1.357
							c2.837-1.48,5.674-3.084,8.264-5.057c2.22-1.603,4.317-3.33,6.29-5.18c2.343-2.22,4.44-4.564,6.414-7.154
							c0.74-0.863,1.357-1.85,2.097-2.837c12.334-18.131,14.061-41.566,4.44-61.054c-7.03-14.308-19.241-25.038-34.289-30.095
							c-15.171-5.057-31.575-3.824-46.006,3.454c-5.674,2.837-10.731,6.537-15.171,10.854c-0.493,0.493-0.987,0.987-1.48,1.48
							c-1.357,1.357-2.59,2.837-3.7,4.317c-2.714,3.454-5.057,7.154-6.907,11.101c-1.85,3.947-3.33,8.017-4.44,12.211
							c-0.37,1.357-0.617,2.714-0.863,4.07c-0.37,2.097-0.617,4.194-0.74,6.167c-0.74,10.607,1.233,21.338,5.92,30.959
							C42.11,141.08,57.158,152.674,75.166,156.498L75.166,156.498z"/>
					</g>
				</g>
				<g>
					<g>
						<path fill="#1F1F23" d="M87.13,160.568c-4.194,0-8.387-0.37-12.581-1.233l0,0c-18.871-3.947-34.536-16.034-43.046-33.426
							c-4.934-9.991-7.03-21.215-6.29-32.315c0.123-2.097,0.37-4.317,0.74-6.414c0.247-1.357,0.493-2.837,0.863-4.194
							c1.11-4.44,2.59-8.757,4.687-12.828c1.973-4.07,4.44-8.017,7.277-11.594c1.233-1.603,2.59-3.084,3.947-4.564
							c0.493-0.617,1.11-1.11,1.603-1.603c4.687-4.564,9.991-8.387,15.911-11.347c15.171-7.647,32.192-8.881,48.103-3.577
							c15.788,5.304,28.492,16.528,35.892,31.452c9.991,20.351,8.141,44.896-4.687,63.891c-0.74,0.987-1.357,1.973-2.097,2.96
							c-2.097,2.714-4.317,5.18-6.784,7.524c-2.097,1.973-4.317,3.824-6.537,5.427c-2.714,1.973-5.55,3.7-8.634,5.304
							c-1.11,0.617-2.097,0.987-3.084,1.48c-2.097,0.863-4.194,1.727-6.29,2.467C99.958,159.458,93.544,160.568,87.13,160.568z
							 M75.166,156.128c9.867,2.097,20.351,1.48,29.972-1.603c2.097-0.617,4.07-1.48,6.044-2.343c0.863-0.37,1.85-0.863,2.96-1.357
							c2.837-1.48,5.55-3.084,8.141-4.934c2.097-1.603,4.194-3.33,6.167-5.18c2.343-2.22,4.44-4.564,6.414-7.154
							c0.74-0.863,1.357-1.85,1.973-2.837c12.211-18.008,13.938-41.319,4.44-60.684c-6.784-14.184-18.995-24.792-33.919-29.849
							c-15.048-5.057-31.329-3.824-45.636,3.454c-5.55,2.837-10.731,6.537-15.048,10.854c-0.493,0.493-0.987,0.987-1.48,1.48
							c-1.357,1.357-2.59,2.837-3.7,4.317c-2.714,3.454-4.934,7.154-6.907,10.977c-1.85,3.824-3.33,8.017-4.44,12.211
							c-0.37,1.357-0.617,2.714-0.863,4.07c-0.37,2.097-0.617,4.194-0.74,6.167c-0.74,10.607,1.233,21.215,5.92,30.712
							C42.48,140.834,57.281,152.428,75.166,156.128L75.166,156.128z"/>
					</g>
				</g>
				<g>
					<g>
						<path fill="#1F1F23" d="M90.584,158.842c42.429-11.471,60.684-60.684,29.602-90.656c-21.091-20.475-57.6-15.048-75.978,6.907
							c-13.444,16.034-19.611,37.372-0.987,64.878c0,0,10.114,10.854,20.228,14.184s20.475,4.81,20.475,4.81L90.584,158.842z"/>
					</g>
				</g>
				<g>
					<g>
						<path fill="#1F1F23" d="M120.186,68.186c31.082,29.972,12.828,79.185-29.602,90.656h-1.357
							c31.082-25.902,38.853-71.538,8.017-102.497C105.631,58.072,113.649,61.895,120.186,68.186z"/>
					</g>
				</g>
				<g>
					<g>
						<path fill="#1F1F23" d="M87.13,160.568c-4.194,0-8.387-0.37-12.581-1.233l0,0c-18.871-3.947-34.536-16.034-43.046-33.426
							c-4.934-9.991-7.03-21.215-6.29-32.315v-0.123v-0.123c2.22-7.894,6.537-15.541,12.704-22.942
							C49.018,57.208,66.285,48.698,84.17,47.834c16.034-0.863,30.835,4.317,41.566,14.678
							c11.594,11.224,17.885,25.285,18.008,40.703c0.123,16.404-6.907,32.809-19.365,45.266l-0.247,0.123
							c-2.714,1.973-5.55,3.7-8.634,5.304c-1.11,0.617-2.097,0.987-3.084,1.48c-2.097,0.863-4.194,1.727-6.29,2.467
							C99.958,159.458,93.544,160.568,87.13,160.568z M75.166,156.128c9.867,2.097,20.351,1.48,29.972-1.603
							c2.097-0.617,4.07-1.48,6.044-2.343c0.863-0.37,1.85-0.863,2.96-1.357c2.837-1.48,5.55-3.084,8.017-4.934
							c11.717-11.717,18.501-27.382,18.378-42.799c-0.123-14.554-6.044-27.875-17.021-38.483
							c-10.114-9.744-23.928-14.678-39.223-13.814c-16.898,0.863-33.302,8.881-43.91,21.461
							c-5.797,6.907-9.867,14.184-11.964,21.585c-0.74,10.484,1.357,21.091,5.92,30.589
							C42.48,140.834,57.281,152.428,75.166,156.128L75.166,156.128z"/>
					</g>
				</g>
				<g>
					<g>
						<path fill="#191A32" d="M83.8,160.445L83.8,160.445c-0.493-0.123-10.731-1.603-20.845-4.81
							c-10.361-3.33-20.475-14.061-20.845-14.554l-0.123-0.247c-16.281-24.052-16.034-46.5,0.987-66.728
							c9.867-11.841,25.285-19.365,41.196-20.105c14.308-0.74,27.505,3.947,37.126,13.198c13.814,13.321,19.118,31.575,14.431,49.83
							c-5.427,20.845-22.448,37.496-44.65,43.54H90.83L83.8,160.445z M90.584,158.842L90.584,158.842L90.584,158.842z
							 M44.454,138.984c0.987,0.987,10.361,10.607,19.488,13.568c9.251,3.084,18.995,4.564,20.105,4.687h6.29
							c20.968-5.674,37.126-21.461,42.183-41.196c4.44-17.144-0.493-34.166-13.568-46.746c-8.881-8.634-21.215-12.951-34.659-12.211
							c-15.048,0.74-29.602,7.894-38.976,18.995C29.406,95.197,29.036,116.289,44.454,138.984z"/>
					</g>
				</g>
				<g>
					<g>
						<path fill="#FFFFFF" d="M135.85,45.491c9.621,7.277,13.321,19.118,8.387,26.395c-4.934,7.4-16.898,7.524-26.395,0.247
							l-0.123-0.123c-9.621-7.277-13.321-18.995-8.387-26.272c3.824-5.674,11.841-7.03,19.611-4.07
							C131.286,42.53,133.63,43.887,135.85,45.491z"/>
					</g>
				</g>
				<g opacity="0.35">
					<g>
						<path fill="#361B45" d="M135.85,45.491c9.621,7.277,13.321,19.118,8.387,26.395c-4.934,7.4-16.898,7.524-26.395,0.247
							l-0.123-0.123c1.48-0.123,3.33-0.617,4.194-2.59c1.48-3.454-1.11-13.444-1.11-13.444s3.577-6.29,8.387-14.308
							C131.286,42.53,133.63,43.887,135.85,45.491z"/>
					</g>
				</g>
				<g>
					<g>
						<path fill="#1F1F23" d="M132.396,79.163c-5.18,0-10.731-1.973-15.664-5.674c-10.237-7.771-14.184-20.598-8.757-28.615
							c2.22-3.207,5.55-5.304,9.867-6.044c6.044-0.987,12.951,0.987,18.871,5.427c10.237,7.771,14.184,20.598,8.757,28.615
							c-2.22,3.207-5.55,5.304-9.867,6.044C134.617,79.04,133.507,79.163,132.396,79.163z M121.049,41.79
							c-0.863,0-1.727,0.123-2.59,0.247c-3.33,0.617-6.044,2.22-7.771,4.687c-4.564,6.66-0.987,17.514,8.017,24.298
							c5.18,3.824,11.347,5.674,16.404,4.81c3.33-0.617,6.044-2.22,7.771-4.687c4.564-6.66,0.987-17.514-8.017-24.298
							C130.546,43.517,125.489,41.79,121.049,41.79z"/>
					</g>
				</g>
				<g>
					<g>
						<path fill="#FFFFFF" d="M143.497,49.931c5.304,7.771,4.194,16.651-2.467,19.858s-16.528-0.37-21.831-8.141
							c-5.304-7.771-4.194-16.651,2.467-19.858C128.326,38.584,138.07,42.16,143.497,49.931z"/>
					</g>
					<g>
						<path fill="#361B45" d="M135.603,71.146c-5.92,0-12.457-3.577-16.528-9.374c-2.96-4.317-4.07-9.251-2.96-13.321
							c0.863-3.084,2.714-5.427,5.55-6.784c6.784-3.33,16.651,0.37,22.078,8.141l0,0c2.96,4.317,4.07,9.251,2.96,13.321
							c-0.863,3.084-2.714,5.427-5.55,6.784C139.427,70.776,137.453,71.146,135.603,71.146z M127.093,40.804
							c-1.85,0-3.7,0.37-5.427,1.11c-2.714,1.357-4.564,3.577-5.304,6.537c-1.11,4.07,0,8.757,2.96,13.074
							c3.947,5.797,10.484,9.251,16.281,9.251c1.85,0,3.7-0.37,5.427-1.11c2.714-1.357,4.564-3.577,5.304-6.537
							c1.11-4.07,0-8.757-2.96-13.074l0,0C139.304,44.257,132.89,40.804,127.093,40.804z"/>
					</g>
				</g>
				<g opacity="0.35">
					<g>
						<path fill="#361B45" d="M129.806,70.159c-3.084-1.233-5.674-3.33-7.771-5.92c7.154,2.343,13.444-1.233,14.308-8.264
							c0.617-4.564-1.233-9.621-4.44-13.568c0.493,0.123,0.863,0.37,1.357,0.493c7.647,3.207,13.198,11.964,12.334,19.488
							C144.484,69.912,137.453,73.366,129.806,70.159z"/>
					</g>
				</g>
				<g>
					<g>
						<path fill="#1F1F23" d="M136.713,71.762c-4.317,0-9.251-1.727-13.444-4.934c-8.511-6.414-11.964-16.774-7.771-23.065
							c1.603-2.467,4.194-3.947,7.277-4.564c4.934-0.863,10.854,0.987,15.788,4.81l0,0c8.511,6.414,11.964,16.774,7.771,23.065
							c-1.603,2.467-4.194,3.947-7.277,4.564C138.317,71.762,137.577,71.762,136.713,71.762z M125.366,42.284
							c-0.617,0-1.357,0-1.973,0.123c-2.343,0.37-4.07,1.48-5.18,3.207c-3.207,4.934-0.123,13.321,7.03,18.748
							c4.317,3.33,9.374,4.81,13.444,4.194c2.343-0.37,4.07-1.48,5.18-3.207c3.207-4.934,0.123-13.321-7.03-18.748
							C133.136,43.764,128.943,42.284,125.366,42.284z"/>
					</g>
				</g>
				<g opacity="0.5">
					<g>
						<path fill="#FFFFFF" d="M62.338,70.899c0,0-16.404,22.325-14.184,44.156c0,0,0,0,0,0.123c0.493,4.564,2.22,9.004,4.81,12.581
							c3.577,4.934,6.784,7.647,9.621,10.114c8.881,7.277,14.308,8.881,14.308,8.881c-8.757,1.233-16.404-0.123-23.805-6.167
							c-0.74-0.617-1.48-1.233-2.22-1.85c-0.123-0.123-0.37-0.37-0.493-0.493l0,0c-1.357-1.48-3.084-3.454-4.934-5.92
							c-5.304-7.277-10.977-18.501-8.141-30.465C42.851,79.41,61.968,69.419,62.338,70.899z"/>
					</g>
				</g>
				<g opacity="0.5">
					<g>
						<path fill="#FFFFFF" d="M94.037,82.37c4.81,2.097,10.237,0.493,12.087-3.7s-0.493-9.251-5.304-11.471
							c-4.81-2.097-10.237-0.493-12.087,3.7C86.883,75.216,89.227,80.273,94.037,82.37z"/>
					</g>
				</g>
				<g opacity="0.5">
					<g>
						<path fill="#FFFFFF" d="M112.045,85.207c2.097,0.74,4.194-0.123,4.81-1.973c0.617-1.727-0.493-3.824-2.59-4.564
							c-2.097-0.74-4.194,0.123-4.81,1.973S109.948,84.467,112.045,85.207z"/>
					</g>
				</g>
			</g>
			<g>
				<g>
					<path fill="#EDDF5E" d="M48.648,151.934c0,0,21.708-10.977,42.183-6.784c17.761,3.577,26.888,13.444,26.888,13.444
						s-10.977,17.021-34.536,18.378S48.648,151.934,48.648,151.934z"/>
				</g>
			</g>
			<g opacity="0.7">
				<g>
					<path fill="#EDDF5E" d="M117.842,158.595c0,0-0.617,0.987-1.973,2.59c-3.577-2.96-11.964-8.881-24.915-11.594
						c-15.418-3.207-33.549,1.48-41.443,3.947c-0.493-0.987-0.74-1.603-0.74-1.603s21.708-10.977,42.183-6.784
						C108.592,148.851,117.842,158.595,117.842,158.595z"/>
				</g>
			</g>
			<g>
				<g>
					<path fill="#1F1F23" d="M117.842,160.198c-0.37,0-0.863-0.123-1.11-0.493c-0.123-0.123-9.127-9.497-26.148-12.951
						c-19.735-4.07-40.949,6.537-41.196,6.66c-0.74,0.37-1.727,0.123-2.097-0.74c-0.37-0.74-0.123-1.727,0.74-2.097
						c0.863-0.493,22.448-11.101,43.17-6.907c18.008,3.7,27.382,13.444,27.752,13.814c0.617,0.617,0.617,1.603-0.123,2.22
						C118.582,160.075,118.212,160.198,117.842,160.198z"/>
				</g>
			</g>
			<g>
				<g>
					<path fill="#FFFFFF" d="M158.051,147.371l39.469,6.167c0,0-1.357,17.885-4.317,18.501c-2.837,0.617-32.192-4.194-34.412-6.167
						C155.585,163.158,158.051,147.371,158.051,147.371z"/>
				</g>
			</g>
			<g>
				<g>
					<path fill="#FFFFFF" d="M151.144,152.798l46.376,7.154c0,0-0.74,16.034-4.194,17.268c-12.457,4.07-37.372-2.96-39.963-5.427
						C146.334,165.009,151.144,152.798,151.144,152.798z"/>
				</g>
			</g>
			<g opacity="0.35">
				<g>
					<path fill="#361B45" d="M151.144,152.798l46.376,7.154c0,0-0.74,16.034-4.194,17.268c-12.457,4.07-37.372-2.96-39.963-5.427
						C146.334,165.009,151.144,152.798,151.144,152.798z"/>
				</g>
			</g>
			<g>
				<g>
					<path fill="#1F1F23" d="M183.953,179.933c-13.074,0-29.355-4.81-31.699-7.03c-7.647-7.277-2.837-20.105-2.59-20.598
						c0.247-0.74,0.987-1.11,1.727-0.987l46.376,7.154c0.863,0.123,1.357,0.863,1.357,1.603c0,0.123-0.247,4.194-0.863,8.387
						c-1.233,8.264-3.084,9.867-4.564,10.361C190.984,179.563,187.653,179.933,183.953,179.933z M152.254,154.648
						c-0.863,3.084-2.714,11.224,2.22,16.034c0.863,0.74,6.907,3.084,15.418,4.687c5.55,1.11,16.034,2.59,22.818,0.37
						c1.233-0.617,2.59-7.154,3.084-14.308L152.254,154.648z"/>
				</g>
			</g>
			<g>
				<g>
					<path fill="#FFFFFF" d="M156.571,147.494l39.469,6.167c0,0-1.357,17.885-4.317,18.501c-2.837,0.617-32.192-4.194-34.412-6.167
						C154.105,163.282,156.571,147.494,156.571,147.494z"/>
				</g>
			</g>
			<g>
				<g>
					<path fill="#1F1F23" d="M190.86,173.642c-6.29,0-32.069-4.317-34.536-6.537c-3.454-2.96-1.727-15.911-1.11-19.735
						c0.123-0.74,0.863-1.233,1.603-1.11l39.469,6.167c0.74,0.123,1.233,0.74,1.11,1.48c0,0.123-0.37,4.564-1.11,9.127
						c-1.357,8.757-2.96,10.361-4.44,10.607C191.724,173.519,191.354,173.642,190.86,173.642z M191.23,170.929L191.23,170.929
						L191.23,170.929z M157.805,149.098c-0.987,6.907-1.11,14.678,0.37,15.911c2.467,1.727,30.095,6.29,33.179,5.92
						c1.11-0.987,2.59-8.141,3.33-16.034L157.805,149.098z"/>
				</g>
			</g>
			<g>
				<g>
					<path fill="#FFFFFF" d="M191.724,127.266c-0.617,15.911-3.7,30.095-9.867,31.329c-8.387,1.603-11.717-7.4-11.717-7.4
						s4.194-13.691,3.207-36.139c-0.37-9.004-1.603-19.488-4.317-30.959c0,0,5.92-8.881,14.431-3.084
						C189.257,85.083,192.464,107.531,191.724,127.266z"/>
				</g>
			</g>
			<g opacity="0.35">
				<g>
					<path fill="#361B45" d="M191.724,127.266c-0.617,15.911-3.7,30.095-9.867,31.329c-8.387,1.603-11.717-7.4-11.717-7.4
						s4.194-13.691,3.207-36.139c3.33,4.317,1.727,24.422,5.427,23.928c3.207-0.493,4.07-19.488,5.304-17.885
						c1.233,1.48-0.863,18.625,2.96,19.488C188.64,140.834,190.367,134.297,191.724,127.266z"/>
				</g>
			</g>
			<g>
				<g>
					<path fill="#1F1F23" d="M179.883,160.322c-6.29,0-10.114-5.427-11.224-8.511l-0.247-0.493l0.123-0.493
						c0.123-0.247,7.894-26.888-1.11-66.358l-0.123-0.617l0.37-0.617c0.123-0.247,3.084-4.564,8.017-5.55
						c2.837-0.617,5.797,0.123,8.634,2.097c5.55,3.824,7.647,18.625,8.387,27.135c1.233,13.444,0.74,27.999-1.357,38.113
						c-1.973,9.251-5.057,14.308-9.251,15.171C181.363,160.322,180.623,160.322,179.883,160.322z M171.742,151.071
						c0.74,1.603,3.7,7.03,9.744,5.92c2.714-0.493,5.18-5.18,6.66-12.704c2.097-9.744,2.59-24.052,1.357-37.126
						c-1.233-13.198-3.947-22.695-7.03-24.915c-2.097-1.48-4.194-1.973-6.167-1.603c-2.714,0.493-4.81,2.714-5.674,3.7
						C179.02,121.716,172.852,147.001,171.742,151.071z M170.139,151.194L170.139,151.194L170.139,151.194z"/>
				</g>
			</g>
			<g>
				<g>
					<path fill="#FFFFFF" d="M246.611,186.47c-6.414,0.247-13.814-3.454-17.391-5.427c-0.863-0.493-1.48-0.863-1.85-1.11
						c-14.061,10.361-31.945,8.141-39.469-7.524c-6.784-14.184-2.343-29.602,1.727-38.853c2.22-5.057,4.317-8.141,4.317-8.141
						l22.448,25.038c0,0,7.154-7.277,18.378-5.674c8.634,1.357,22.695,15.418,24.545,21.215
						C262.892,176.726,254.381,186.1,246.611,186.47z"/>
				</g>
			</g>
			<g>
				<g>
					<path fill="#1F1F23" d="M216.022,150.084c2.714-3.577,6.784-5.92,11.224-6.784c0.617-0.123,1.11-0.247,1.727-0.247l1.727-0.123
						c1.11,0,2.22,0,3.454,0.123l0.863,0.123c0.247,0,0.617,0.123,0.863,0.123c0.617,0.123,1.11,0.247,1.727,0.493
						c1.11,0.37,2.097,0.863,3.084,1.357c1.973,1.11,3.824,2.343,5.55,3.577c1.727,1.357,3.33,2.714,4.934,4.194
						s3.084,2.96,4.564,4.687c1.48,1.603,2.837,3.33,3.947,5.304c0.247,0.493,0.617,0.987,0.863,1.603
						c0.123,0.247,0.247,0.617,0.37,0.863c0.123,0.247,0.123,0.617,0.247,0.863c0.37,1.11,0.617,2.22,0.617,3.454
						c0.247,2.343-0.123,4.687-0.863,6.907c-1.48,4.44-4.687,8.141-9.004,10.114c-1.11,0.493-2.22,0.863-3.33,1.11
						c-0.247,0.123-0.617,0.123-0.863,0.123s-0.617,0-0.863,0.123c-0.617,0-1.11,0-1.727,0c-2.343-0.123-4.44-0.617-6.537-1.233
						c-2.097-0.617-4.194-1.48-6.044-2.343c-1.973-0.987-3.824-1.973-5.674-3.084l1.85-0.123c-3.33,2.467-7.154,4.44-11.224,5.55
						c-4.07,1.11-8.387,1.48-12.581,0.617c-4.194-0.74-8.141-2.714-11.471-5.427c-3.207-2.837-5.674-6.414-7.277-10.237l-0.37-0.74
						c-0.123-0.247-0.123-0.493-0.247-0.74l-0.493-1.48l-0.493-1.48l-0.247-0.74l-0.123-0.74c-0.493-1.973-0.74-4.07-0.987-6.167
						c-0.123-2.097-0.123-4.194,0-6.167c0.123-2.097,0.37-4.07,0.74-6.167c0.37-1.973,0.863-4.07,1.48-5.92
						c0.617-1.973,1.11-3.947,1.85-5.797c0.74-1.973,1.603-3.7,2.59-5.55c1.11-1.727,2.22-3.454,3.824-4.81
						c0.247-0.247,0.617-0.123,0.74,0c0.123,0.123,0.123,0.37,0.123,0.493l0,0c-1.11,3.947-2.714,7.4-4.194,10.977
						c-0.74,1.85-1.48,3.577-1.973,5.427c-0.493,1.85-0.987,3.7-1.357,5.674c-0.37,1.85-0.617,3.824-0.74,5.797
						c-0.123,1.973-0.123,3.824,0,5.797c0.123,1.85,0.37,3.824,0.863,5.674l0.123,0.74l0.247,0.74l0.37,1.357l0.493,1.357
						c0.123,0.247,0.123,0.493,0.247,0.617l0.247,0.617c1.48,3.454,3.577,6.66,6.414,9.127c2.837,2.467,6.29,4.07,9.991,4.687
						c3.7,0.74,7.524,0.37,11.101-0.617c3.577-0.987,7.03-2.837,10.114-5.057l0.863-0.617l0.863,0.617
						c1.727,1.11,3.577,2.097,5.427,2.96c1.85,0.863,3.7,1.603,5.674,2.22c1.973,0.617,3.947,0.987,5.797,1.11h1.48
						c0.247,0,0.493,0,0.617,0c0.247,0,0.493,0,0.617-0.123c0.863-0.123,1.727-0.493,2.59-0.863c3.33-1.603,6.167-4.81,7.277-8.387
						c0.617-1.85,0.863-3.7,0.74-5.55c-0.123-0.987-0.247-1.85-0.493-2.837c-0.123-0.247-0.123-0.493-0.247-0.617
						c-0.123-0.247-0.123-0.37-0.247-0.617c-0.123-0.37-0.37-0.863-0.617-1.233c-0.987-1.727-2.343-3.33-3.577-4.81
						c-1.357-1.48-2.837-2.96-4.317-4.44c-2.96-2.837-6.29-5.427-9.867-7.154c-0.863-0.493-1.727-0.863-2.714-1.11
						c-0.493-0.123-0.863-0.247-1.357-0.37c-0.247,0-0.37-0.123-0.617-0.123l-0.74-0.123c-1.973-0.247-3.947-0.247-5.797,0.123
						c-3.824,0.617-7.524,2.22-11.101,4.317l0,0c-0.247,0.123-0.617,0.123-0.74-0.247
						C215.899,150.454,215.899,150.208,216.022,150.084z"/>
				</g>
			</g>
			<g opacity="0.35">
				<g>
					<path fill="#361B45" d="M227.493,179.933c0.123,0,1.603,0,1.603,0l0.123,0.123c0,0,8.634,6.784,17.514,6.414
						c7.647-0.37,16.281-9.744,12.704-20.351c-0.247-0.863-0.863-1.973-1.603-3.084c0.493,4.44-0.987,13.814-10.484,14.924
						c-11.347,1.357-9.497-12.951-9.497-12.951C236.867,169.326,232.796,175.123,227.493,179.933z"/>
				</g>
			</g>
			<g opacity="0.35">
				<g>
					<path fill="#361B45" d="M237.73,165.625l-8.511,15.294c-0.863-0.493-1.48-0.863-1.85-1.11
						c-14.061,10.361-31.945,8.141-39.469-7.524c-6.784-14.184-2.343-29.602,1.727-38.853c-0.987,8.634-1.973,31.329,10.854,39.593
						C217.995,184.127,237.73,165.625,237.73,165.625z"/>
				</g>
			</g>
			<g>
				<g>
					<path fill="#1F1F23" d="M226.629,178.823l1.603-1.48l0.74-0.74c0.247-0.247,0.493-0.493,0.74-0.74
						c0.987-1.11,2.097-2.097,2.96-3.33c0.987-1.11,1.85-2.343,2.714-3.577s1.48-2.59,2.22-3.947l0,0
						c0-0.123,0.123-0.123,0.247-0.123c0.123,0,0.123,0.123,0.123,0.247c-0.247,1.603-0.493,3.084-1.11,4.564
						c-0.617,1.48-1.233,2.96-2.097,4.317s-1.727,2.714-2.837,3.824c-0.493,0.617-1.11,1.233-1.727,1.727
						c-0.617,0.493-1.233,0.987-1.973,1.48c-0.617,0.37-1.48,0.247-1.85-0.37C226.013,180.056,226.136,179.316,226.629,178.823
						L226.629,178.823z"/>
				</g>
			</g>
			<g>
				<g>
					<path fill="#1F1F23" d="M198.878,175.863c-8.017,0-12.828-5.057-13.074-5.304c-0.493-0.617-0.493-1.48,0.123-1.973
						c0.617-0.493,1.48-0.493,1.973,0.123l0,0c0.247,0.247,6.66,6.907,17.268,3.33c9.744-3.33,14.554-19.611,14.431-24.668
						c0-0.74,0.617-1.357,1.357-1.357s1.357,0.617,1.357,1.357c0.123,6.29-5.427,23.558-16.281,27.382
						C203.318,175.493,200.974,175.863,198.878,175.863z"/>
				</g>
			</g>
			<g opacity="0.35">
				<g>
					<path fill="#1F1F23" d="M146.211,170.682c-1.357,4.564-12.457,6.537-12.457,6.537s-4.194,4.194-14.061,8.017h-0.123
						c-8.141,3.207-42.183,15.788-78.199-3.084c-9.004-4.687-15.541-15.171-15.541-15.171s-11.347-1.48-11.347-7.894
						c0-0.987,0.123-1.85,0.493-2.59c2.714,10.237,16.651,3.454,16.651,3.454s6.537,12.211,13.691,17.021
						c16.404,11.101,42.183,9.251,58.957,6.167c1.727-0.37,1.727-2.714,0-3.084c0,0,0,0-0.123,0
						c-22.942-4.687-26.025-28.369-12.087-33.302c18.131-6.29,26.888,3.084,32.069,4.317c6.044,1.357,7.4-3.33,6.907-6.537
						l1.11,0.247l3.207,14.924c0,0,7.4,2.467,10.114,6.537c0.247,0.247,0.37,0.617,0.493,0.863c0,0.123,0,0.123,0.123,0.247
						c0.123,0.247,0.123,0.37,0.247,0.617l0,0c0,0.123,0,0.123,0,0.247v0.123c0,0.123,0,0.123,0,0.247c0,0.123,0,0.123,0,0.247
						v0.123C146.457,169.449,146.334,170.066,146.211,170.682z"/>
				</g>
			</g>
			<g opacity="0.35">
				<g>
					<path fill="#361B45" d="M145.347,166.242c0.247,0.247,0.37,0.617,0.493,0.863C145.717,166.735,145.594,166.489,145.347,166.242
						z"/>
				</g>
			</g>
			<g>
				<g>
					<path fill="#FFFFFF" d="M134.863,138.984c0.493,3.207-0.863,7.894-6.907,6.537c-5.18-1.233-13.938-10.607-32.069-4.317
						c-13.938,4.81-10.854,28.615,12.087,33.302c19.241,3.947,31.822,19.365,49.953,1.973c11.101-10.731,4.194-32.809,4.194-32.809"
						/>
				</g>
			</g>
			<g opacity="0.35">
				<g>
					<path fill="#361B45" d="M158.051,176.479c-18.131,17.391-30.712,1.973-49.953-1.973c-18.625-3.824-24.175-20.228-18.131-28.862
						c-0.493,8.511,4.194,18.625,16.158,20.351c24.175,3.454,33.796,15.664,51.927-1.727c3.454-3.33,5.18-7.894,5.92-12.457
						C164.835,159.335,164.712,169.942,158.051,176.479z"/>
				</g>
			</g>
			<g>
				<g>
					<path fill="#1F1F23" d="M135.48,138.86c0.37,0.987,0.493,1.973,0.37,3.084s-0.493,2.22-1.233,3.207
						c-0.37,0.493-0.863,0.863-1.357,1.233c-0.493,0.37-1.11,0.617-1.727,0.74c-0.247,0.123-0.617,0.123-0.863,0.123h-0.493
						c-0.123,0-0.247,0-0.37,0c-0.247,0-0.617,0-0.863,0l-0.863-0.123l-0.37-0.123l-0.37-0.123l-0.863-0.247
						c-0.493-0.247-0.987-0.37-1.48-0.617c-0.863-0.37-1.727-0.863-2.59-1.357c-1.603-0.863-3.33-1.727-4.934-2.343
						c-1.603-0.74-3.454-1.11-5.18-1.48c-1.727-0.247-3.577-0.493-5.304-0.37c-3.577,0.123-7.154,0.863-10.607,2.097
						c-1.603,0.617-2.96,1.48-4.07,2.59c-1.11,1.233-1.973,2.59-2.467,4.194c-0.987,3.207-0.617,6.784,0.74,9.991
						c1.357,3.207,3.577,6.044,6.414,8.264c1.357,1.11,2.96,1.973,4.564,2.714c1.603,0.74,3.33,1.357,5.057,1.85l1.357,0.37
						l0.617,0.123l0.74,0.123c0.987,0.247,1.85,0.493,2.837,0.74c1.85,0.493,3.7,1.11,5.55,1.85
						c3.577,1.357,7.03,2.837,10.484,4.317c3.454,1.357,6.907,2.59,10.484,2.96c1.727,0.247,3.454,0.123,5.18-0.123
						c1.727-0.247,3.33-0.863,4.934-1.603c1.603-0.74,3.084-1.603,4.564-2.714c0.123-0.123,0.37-0.247,0.493-0.37l0.493-0.37
						l0.987-0.863l0.987-0.863l0.493-0.493c0.123-0.123,0.247-0.37,0.493-0.493c2.343-2.467,3.947-5.674,4.687-9.251
						c0.37-1.727,0.617-3.577,0.74-5.304c0.123-1.85,0-3.577-0.123-5.427l-0.493-5.427c-0.123-1.85-0.247-3.7-0.247-5.674l0,0
						c0-0.247,0.247-0.493,0.617-0.493c0.247,0,0.37,0.123,0.493,0.247c1.11,1.727,1.727,3.577,2.343,5.427
						c0.493,1.85,0.74,3.824,0.863,5.797c0.123,1.973,0.123,3.947,0,5.92c-0.123,1.973-0.37,3.947-0.74,5.92
						c-0.493,1.973-1.11,3.824-1.973,5.674c-0.863,1.85-2.097,3.577-3.577,5.057c-0.123,0.123-0.37,0.37-0.493,0.493l-0.493,0.493
						l-1.11,0.987l-1.11,0.987l-0.617,0.493c-0.247,0.123-0.37,0.247-0.617,0.493c-1.603,1.233-3.33,2.22-5.18,3.084
						c-1.85,0.863-3.824,1.48-5.797,1.85c-1.973,0.37-4.07,0.37-6.044,0.123c-4.07-0.493-7.771-1.727-11.347-3.084
						s-7.03-2.96-10.484-4.194c-1.727-0.617-3.454-1.233-5.304-1.727c-0.863-0.247-1.727-0.493-2.714-0.617l-1.357-0.37l-1.48-0.37
						c-1.85-0.493-3.824-1.233-5.55-2.097c-1.85-0.863-3.577-1.85-5.057-3.084c-3.207-2.467-5.797-5.674-7.4-9.497
						c-1.603-3.7-2.097-8.141-0.74-12.211c0.617-1.973,1.727-3.947,3.207-5.427c1.48-1.603,3.33-2.714,5.304-3.454
						c3.7-1.233,7.524-2.097,11.594-2.22c1.973-0.123,3.947,0.123,5.92,0.37c1.973,0.37,3.947,0.863,5.797,1.603
						c1.85,0.617,3.7,1.48,5.304,2.343c0.863,0.493,1.727,0.863,2.467,1.233c0.37,0.247,0.74,0.37,1.11,0.493l0.493,0.123
						l0.247,0.123h0.247l0.617,0.123h0.617c0.123,0,0.247,0,0.247,0h0.247c0.123,0,0.37,0,0.493,0
						c0.617-0.123,1.233-0.247,1.727-0.74c0.493-0.37,0.863-1.11,1.233-1.85c0.247-0.74,0.493-1.603,0.617-2.467l0,0
						c0-0.247,0.247-0.493,0.617-0.493C135.233,138.49,135.357,138.737,135.48,138.86z"/>
				</g>
			</g>
			<g>
				<g>
					<path fill="#1F1F23" d="M138.317,185.977c-0.37,0-0.74-0.123-0.987-0.37c-0.617-0.617-0.74-1.603-0.247-2.22
						c12.828-15.541-8.634-36.262-8.881-36.509c-0.617-0.617-0.617-1.603,0-2.22c0.617-0.617,1.603-0.617,2.22,0
						c0.247,0.247,6.044,5.674,10.114,13.444c5.55,10.484,5.304,19.981-0.987,27.382C139.304,185.73,138.81,185.977,138.317,185.977
						z"/>
				</g>
			</g>
		</g>
		<g>
			<g>
				<g>
					<path fill="#1F1F23" d="M22.869,44.751c-0.123,0-0.123,0-0.247,0l-6.414-1.233c-0.493-0.123-0.863-0.493-0.863-0.863
						c-0.123-0.493,0.123-0.987,0.493-1.233l5.304-3.577l-3.577-0.74c-0.617-0.123-1.11-0.74-0.987-1.357
						c0.123-0.617,0.74-0.987,1.357-0.987l6.414,1.233c0.493,0.123,0.863,0.493,0.863,0.863c0.123,0.493-0.123,0.987-0.493,1.233
						l-5.304,3.577l3.577,0.74c0.617,0.123,1.11,0.74,0.987,1.357C23.856,44.381,23.363,44.751,22.869,44.751z"/>
				</g>
			</g>
			<g>
				<g>
					<path fill="#1F1F23" d="M11.892,30.32c-0.123,0-0.123,0-0.247,0L1.038,28.223c-0.493-0.123-0.863-0.493-0.863-0.863
						c-0.123-0.493,0.123-0.987,0.493-1.233l10.484-7.154l-7.894-1.48c-0.617-0.123-1.11-0.74-0.987-1.357
						c0.123-0.617,0.74-0.987,1.357-0.987l10.607,2.097c0.493,0.123,0.863,0.493,0.863,0.863c0.123,0.493-0.123,0.987-0.493,1.233
						L4.121,26.496l7.894,1.48c0.617,0.123,1.11,0.74,0.987,1.357C12.879,29.95,12.385,30.32,11.892,30.32z"/>
				</g>
			</g>
			<g>
				<g>
					<path fill="#1F1F23" d="M37.177,20.699c-0.123,0-0.123,0-0.247,0l-14.924-2.96c-0.493-0.123-0.863-0.493-0.987-0.987
						c-0.123-0.493,0.123-0.987,0.493-1.233L36.93,5.035L24.966,2.691c-0.74-0.123-1.11-0.74-0.987-1.48s0.74-1.11,1.48-0.987
						l14.924,2.96c0.493,0.123,0.863,0.493,0.987,0.987c0.123,0.493-0.123,0.987-0.493,1.233L25.459,15.889l11.964,2.343
						c0.74,0.123,1.11,0.74,0.987,1.48C38.287,20.329,37.794,20.699,37.177,20.699z"/>
				</g>
			</g>
		</g>
	</g>
</g>
</svg>
