<?xml version="1.0" encoding="utf-8"?>
<!-- Generator: Adobe Illustrator 17.0.0, SVG Export Plug-In . SVG Version: 6.00 Build 0)  -->
<!DOCTYPE svg PUBLIC "-//W3C//DTD SVG 1.1//EN" "http://www.w3.org/Graphics/SVG/1.1/DTD/svg11.dtd">
<svg version="1.1" id="Camada_1" xmlns="http://www.w3.org/2000/svg" xmlns:xlink="http://www.w3.org/1999/xlink" x="0px" y="0px"
	 width="160px" height="300px" viewBox="0 0 160 300" enable-background="new 0 0 160 300" xml:space="preserve">
<g>
	<g>
		<path fill="#FFFFFF" d="M116.8,221.2H43.2c-9.2,0-16.7-7.5-16.7-16.7v-68.6c0-9.2,7.5-16.7,16.7-16.7h73.5
			c9.2,0,16.7,7.5,16.7,16.7v68.6C133.5,213.7,126,221.2,116.8,221.2z"/>
	</g>
	<g>
		<path fill="#181932" d="M116.8,119.2c9.2,0,16.7,7.5,16.7,16.7v68.6c0,9.2-7.5,16.7-16.7,16.7H43.2c-9.2,0-16.7-7.5-16.7-16.7
			v-68.6c0-9.2,7.5-16.7,16.7-16.7H116.8 M116.8,115.6H43.2c-11.1,0-20.2,9.1-20.2,20.2v68.6c0,11.1,9.1,20.2,20.2,20.2h73.5
			c11.1,0,20.2-9.1,20.2-20.2v-68.6C137,124.7,127.9,115.6,116.8,115.6L116.8,115.6z"/>
	</g>
	<g>
		<path fill="#361B45" d="M64,278.1c-0.3,0-0.6-0.1-0.9-0.3c-9-5.7-22.2-3.2-22.3-3.1c-1,0.2-1.9-0.4-2.1-1.4
			c-0.2-1,0.4-1.9,1.4-2.1c0.6-0.1,14.7-2.8,24.9,3.6c0.8,0.5,1.1,1.6,0.6,2.4C65.2,277.8,64.6,278.1,64,278.1z"/>
	</g>
	<g>
		<path fill="#FFFFFF" d="M132,287.7c0,0.3,0.6,10.7-27.3,9.7c-11.8-0.4-19.9-2.7-22.8-8.9c-2.6-5.6-2.2-27.4-2.2-27.4v-35.1h0V261
			c0,0,0.1,8.1-0.3,15.6c-0.3,4.9-0.9,9.6-1.9,11.8c-2.9,6.2-9.6,8.5-21.5,8.9c-27.9,1-28.6-9.4-28.6-9.7c-0.1-1.5,0-2.8,0.4-4
			c2.4-7.2,12.7-10.6,12.7-10.6s-6.6-25-8.8-46.3c-0.7-6.7-1.1-13.4-1.1-20.2c-0.3-27.7,4.2-54.9,8.5-74.2
			c1.3-5.9,2.6-11.1,3.7-15.3c2.1-7.9,3.6-12.6,3.6-12.6h66.8c0,0,1.6,4.9,3.8,13.2c1.1,4.2,2.3,9.2,3.6,14.9
			c4.3,19.3,8.8,46.5,8.5,74.1c-0.1,6.7-0.4,13.4-1.1,20.1c-2.3,21.3-8.8,46.3-8.8,46.3S133,277.7,132,287.7z"/>
	</g>
	<g opacity="0.3">
		<path fill="#361B45" d="M132,287.7c0,0.3-0.7,10.7-28.6,9.7c-11.8-0.4-18.6-2.7-21.5-8.9c-1-2.2-1.6-6.9-1.9-11.8l-0.3-15.8
			l-0.4,15.8c-0.3,4.9-0.9,9.6-1.9,11.8c-2.9,6.2-9.6,8.5-21.5,8.9c-27.9,1-28.6-9.4-28.6-9.7c-0.1-1.5,0-2.8,0.4-4
			c1,1.7,4,4.1,12.9,5.3c14.4,2,29.8,0.2,32.4-9.3c2-7.2,5.2-42.9-5.7-47.5c-16.9-7.2-23.1-13-18.4-14c2.4-0.5,8.7,1.5,30.7,1.5
			s28.3-2,30.7-1.5c4.7,0.9-1.5,6.7-18.4,14c-10.9,4.7-7.7,40.3-5.7,47.5c2.6,9.6,18.1,11.3,32.4,9.3c8.9-1.2,11.9-3.6,12.9-5.3
			C132,284.9,132.1,286.2,132,287.7z"/>
	</g>
	<g>
		<path fill="#181932" d="M108.5,299.2c-1.3,0-2.5,0-3.9-0.1c-9.3-0.3-20.5-1.8-24.3-10c-0.2-0.5-0.4-1.1-0.6-1.8
			c-0.2,0.7-0.4,1.3-0.6,1.8c-3,6.6-9.7,9.5-23,10c-28,1.1-30.3-9.2-30.5-11.3c-0.9-9.2,8.8-14.3,12.8-15.9
			c-1.5-5.8-6.6-26.8-8.5-45c-2.8-26.8-0.5-57.4,7.3-93.7c0.2-1,1.1-1.6,2.1-1.4c1,0.2,1.6,1.1,1.4,2.1
			c-7.7,35.9-10.1,66.2-7.3,92.6c2.2,20.9,8.7,45.8,8.8,46l0.4,1.6l-1.6,0.5c-0.1,0-12.7,4.3-11.9,12.8c0,0.1,1.1,9.1,26.8,8.1
			c11.8-0.4,17.5-2.7,19.9-7.9c1.6-3.4,2-14.7,2.1-22.1c0-1.2,0-2.2,0-3c0-0.6,0-1.1,0-1.6l0-36.9h3.5l0,1.8V261c0,0.5,0,1,0,1.6
			c0,0.8,0,1.8,0,3c0.1,7.4,0.5,18.6,2.1,22.1c2.3,5,8.9,7.5,21.2,7.9c15,0.6,21.2-2.2,23.8-4.6c1.6-1.5,1.7-2.9,1.7-3.3l0-0.2
			c0.9-8.5-11.8-12.8-11.9-12.8l-1.6-0.5l0.4-1.6c0.1-0.2,6.6-25.1,8.8-46c2.8-25.9,0.5-55.6-6.9-90.8c-0.2-1,0.4-1.9,1.4-2.1
			c1-0.2,1.9,0.4,2.1,1.4c7.5,35.6,9.7,65.6,6.9,91.9c-1.9,18.2-7,39.2-8.5,45c3.9,1.6,13.6,6.6,12.8,15.9c0,1-0.4,3.4-2.8,5.7
			C127,297.3,119.4,299.2,108.5,299.2z"/>
	</g>
	<g>
		<path fill="#361B45" d="M118.6,274.7c-0.9-0.2-1.9-0.4-2.8-0.6c-1-0.2-1.9-0.3-2.9-0.4c-2-0.2-4-0.3-5.9-0.2c-2,0.1-4,0.3-5.9,0.8
			c-2,0.4-3.8,1.2-5.7,2.1c1.7-1.2,3.5-2.2,5.4-2.9c1.9-0.7,3.9-1.3,6-1.7c2-0.4,4.1-0.6,6.2-0.7c1,0,2.1-0.1,3.1,0
			c1.1,0,2.1,0.1,3.2,0.2c1,0.1,1.7,1,1.6,2c-0.1,1-1,1.7-2,1.6C118.8,274.8,118.7,274.8,118.6,274.7L118.6,274.7z"/>
	</g>
	<g>
		<path fill="#361B45" d="M40.3,271.3c1.1-0.1,2.1-0.2,3.2-0.2c1.1,0,2.1,0,3.1,0c2.1,0.1,4.2,0.3,6.2,0.7c2,0.4,4.1,1,6,1.7
			c1.9,0.7,3.7,1.8,5.4,2.9c-1.8-0.9-3.7-1.6-5.7-2.1c-2-0.4-3.9-0.7-5.9-0.8c-2-0.1-4,0-5.9,0.2c-1,0.1-2,0.2-2.9,0.4
			c-1,0.2-2,0.4-2.8,0.6l0,0c-0.9,0.3-1.9-0.3-2.2-1.3c-0.3-0.9,0.3-1.9,1.3-2.2C40.1,271.3,40.2,271.3,40.3,271.3z"/>
	</g>
	<g>
		<g>
			<path fill="#FFFFFF" d="M55.9,199c-6.2,2.6-15.9,2.1-22.5,1.2c-4-0.5-6.7-4.3-6.1-8.4v0c0.5-3.7,3.7-6.4,7.3-6.3
				c6.2,0.3,15.4,0.4,21.3-0.9"/>
		</g>
		<g opacity="0.35">
			<path fill="#361B45" d="M55.9,199c-6.2,2.6-15.9,2.1-22.5,1.2c-4-0.5-6.7-4.3-6.1-8.4c0.1-0.9,0.4-1.7,0.8-2.4
				c1.1,2,3,3.5,5.4,3.8c6.6,0.8,16.2,1.4,22.5-1.2L55.9,199z"/>
		</g>
		<g>
			<path fill="#181932" d="M43.4,202.6c-3.6,0-7.2-0.3-10.3-0.7c-2.3-0.3-4.4-1.5-5.9-3.4c-1.5-2-2.2-4.5-1.8-7
				c0.7-4.7,4.6-8,9.2-7.8c9.1,0.4,16.4,0.1,20.8-0.9c0.9-0.2,3.1-0.2,4.4,3.8c1.5,4.6,1.2,12-3.2,13.8
				C52.8,202.1,48.1,202.6,43.4,202.6z M34.2,187.3c-2.6,0-4.8,2-5.2,4.8c-0.2,1.6,0.2,3.1,1.1,4.3c0.9,1.1,2.1,1.9,3.5,2
				c9.4,1.2,17.1,0.8,21.6-1.1l0,0c0.9-0.4,1.5-1.7,1.8-3.5c0.4-3.3-0.5-6.5-1.1-7.4c-6,1.3-14.9,1.2-21.4,0.9
				C34.4,187.3,34.3,187.3,34.2,187.3z"/>
		</g>
		<g opacity="0.3">
			<path fill="#361B45" d="M130.5,205.8c-6.3,0.8-15.2,1.3-21.8-0.5v3.4c0,4.6-3.7,8.4-8.1,8.4H56.1c-4.5,0-8.1-3.8-8.1-8.4v-25
				c0-4.6,3.7-8.4,8.1-8.4h44.4c3.6,0,6.6,2.4,7.7,5.8c0.3,0.8,0.4,1.7,0.4,2.7v5.6c6.3,0.9,14.8,0.8,20.7,0.5c0.1,0,0.1,0,0.2,0
				C130,195.1,130.3,200.5,130.5,205.8z"/>
		</g>
		<g>
			<path fill="#FFFFFF" d="M103.6,199c6.2,2.6,15.9,2.1,22.5,1.2c4-0.5,6.7-4.3,6.1-8.4l0,0c-0.5-3.7-3.7-6.4-7.3-6.3
				c-6.2,0.3-15.4,0.4-21.3-0.9"/>
		</g>
		<g opacity="0.35">
			<path fill="#361B45" d="M126.1,200.2c-6.6,0.8-16.3,1.4-22.5-1.2l0-7c6.2,2.6,15.9,2.1,22.5,1.2c2.4-0.3,4.3-1.8,5.4-3.8
				c0.4,0.7,0.6,1.5,0.8,2.4C132.9,195.9,130.1,199.7,126.1,200.2z"/>
		</g>
		<g>
			<path fill="#181932" d="M116.1,202.6c-4.7,0-9.4-0.5-13.1-2.1c-4.4-1.9-4.7-9.2-3.2-13.8c1.3-4.1,3.5-4,4.4-3.8
				c4.3,1,11.7,1.3,20.8,0.9c4.6-0.2,8.5,3.1,9.2,7.8c0.4,2.5-0.3,5-1.8,7c-1.5,1.9-3.5,3.1-5.9,3.4
				C123.3,202.3,119.7,202.6,116.1,202.6z M103.7,186.5c-0.6,0.9-1.6,4-1.1,7.4c0.2,1.9,0.9,3.1,1.8,3.5l0,0
				c4.5,1.9,12.2,2.3,21.6,1.1c1.4-0.2,2.6-0.9,3.5-2c0.9-1.2,1.3-2.8,1.1-4.3c-0.4-2.8-2.8-4.9-5.5-4.8
				C118.6,187.6,109.6,187.7,103.7,186.5z"/>
		</g>
		<g>
			<path fill="#FFFFFF" d="M106,179.9v22.9c0,4.3-3.4,7.7-7.4,7.7H57.9c-4.1,0-7.4-3.5-7.4-7.7v-22.9c0-4.3,3.3-7.7,7.4-7.7h40.7
				c3.3,0,6.1,2.2,7.1,5.3C105.9,178.2,106,179.1,106,179.9z"/>
		</g>
		<g opacity="0.3">
			<path fill="#181932" d="M106,179.9v22.9c0,4.3-3.4,7.7-7.4,7.7H57.9c-4.1,0-7.4-3.5-7.4-7.7v-7.7c7,4,20.9,10.1,34.9,5.1
				c6.8-2.4,14.6-10.8,14.6-10.8s0.3,8.8,1.6,8.6c3.5-0.4,3.5-18.2,4.1-20.6C105.9,178.2,106,179.1,106,179.9z"/>
		</g>
		<g>
			<path fill="#181932" d="M98.5,212.3H58.1c-5.2,0-9.4-4.2-9.4-9.4v-23.2c0-5.2,4.2-9.4,9.4-9.4h40.4c5.2,0,9.4,4.2,9.4,9.4V203
				C107.8,208.1,103.6,212.3,98.5,212.3z M58.1,173.9c-3.2,0-5.8,2.6-5.8,5.8V203c0,3.2,2.6,5.8,5.8,5.8h40.4c3.2,0,5.8-2.6,5.8-5.8
				v-23.2c0-3.2-2.6-5.8-5.8-5.8H58.1z"/>
		</g>
		<g>
			<ellipse fill="#69B479" cx="92.7" cy="191.4" rx="6.4" ry="6.7"/>
		</g>
		<g>
			<path fill="#FFFFFF" d="M99.1,191.4c0,0.5,0,0.9-0.1,1.3c-0.6-3.1-3.2-5.4-6.3-5.4c-3.1,0-5.7,2.3-6.3,5.4
				c-0.1-0.4-0.1-0.9-0.1-1.3c0-3.7,2.9-6.7,6.4-6.7C96.2,184.7,99.1,187.7,99.1,191.4z"/>
		</g>
		<g opacity="0.35">
			<path fill="#361B45" d="M99.1,191.4c0,3.7-2.9,6.7-6.4,6.7s-6.4-3-6.4-6.7c0-0.6,0.1-1.2,0.2-1.8c0.8,2.8,3.2,4.9,6.2,4.9
				c2.9,0,5.4-2.1,6.2-4.9C99,190.2,99.1,190.8,99.1,191.4z"/>
		</g>
		<g>
			<path fill="#181932" d="M92.7,199.4c-4.3,0-7.7-3.6-7.7-8s3.5-8,7.7-8c4.3,0,7.7,3.6,7.7,8S96.9,199.4,92.7,199.4z M92.7,186
				c-2.8,0-5.1,2.4-5.1,5.3s2.3,5.3,5.1,5.3c2.8,0,5.1-2.4,5.1-5.3S95.5,186,92.7,186z"/>
		</g>
		<g>
			<path fill="#181932" d="M74.5,212.3c-1,0-1.8-0.8-1.8-1.8v-11.7c0-2.4-1.1-4.6-2.9-6l-1-0.8c-2.6-2.1-4.2-5.4-4.2-8.8v-11.1
				c0-1,0.8-1.8,1.8-1.8c1,0,1.8,0.8,1.8,1.8v11.1c0,2.4,1.1,4.6,2.9,6l1,0.8c2.6,2.1,4.2,5.4,4.2,8.8v11.7
				C76.2,211.6,75.5,212.3,74.5,212.3z"/>
		</g>
	</g>
	<g>
		<path fill="#181932" d="M56.1,245.7c-7.5,0-15.8-1.3-23.4-5.4c-0.6-0.3-0.8-1.1-0.5-1.7c0.3-0.6,1.1-0.8,1.7-0.5
			c19.6,10.5,45.1,1.3,45.3,1.2c0.7-0.2,1.4,0.1,1.6,0.7c0.2,0.7-0.1,1.4-0.7,1.6C79.4,241.9,68.9,245.7,56.1,245.7z"/>
	</g>
	<g>
		<path fill="#181932" d="M103.3,245.7c-12.8,0-23.4-3.8-24.1-4.1c-0.7-0.2-1-1-0.7-1.6c0.2-0.7,1-1,1.6-0.7
			c0.3,0.1,25.8,9.3,45.3-1.2c0.6-0.3,1.4-0.1,1.7,0.5c0.3,0.6,0.1,1.4-0.5,1.7C119.1,244.4,110.8,245.7,103.3,245.7z"/>
	</g>
	<g>
		<path fill="#FFFFFF" d="M61.8,225c0,0,7.3,3.2,17.9,3.2c10.6,0,17.9-3.2,17.9-3.2s-4.8-3.8-17.9-3.8S61.8,225,61.8,225z"/>
	</g>
	<g opacity="0.3">
		<path fill="#361B45" d="M61.8,225c0,0,7.3,3.2,17.9,3.2c10.6,0,17.9-3.2,17.9-3.2s-4.8-3.8-17.9-3.8S61.8,225,61.8,225z"/>
	</g>
	<g>
		<path fill="#181932" d="M59.3,224.2c3.4,0.8,6.9,1.4,10.3,1.9c3.4,0.4,6.9,0.7,10.4,0.7c3.5,0,6.9-0.2,10.4-0.6
			c3.4-0.4,6.9-1.1,10.3-2l0,0c0.3-0.1,0.6,0.1,0.7,0.4c0.1,0.3-0.1,0.5-0.3,0.7c-1.6,0.9-3.3,1.6-5,2.2c-0.9,0.3-1.7,0.6-2.6,0.8
			l-1.3,0.4l-1.3,0.3c-3.6,0.8-7.2,1.2-10.9,1.3c-3.7,0-7.3-0.3-10.9-1.1c-1.8-0.4-3.5-0.9-5.3-1.5c-1.7-0.6-3.4-1.3-5-2.3
			c-0.3-0.2-0.4-0.5-0.2-0.8C58.8,224.2,59.1,224.1,59.3,224.2L59.3,224.2z"/>
	</g>
	<g>
		<path fill="#FFFFFF" d="M144,199.3c-4.7,6.1-10,8-15.1,7.3c-10.8-1.5-20.7-15-21.3-27.2c-5.4,1.1-13.9,1-17.6-3
			c-5.1-5.5-0.7-13-0.7-13s-9.9,0.6-9.9-6.5c0-3.9,15-9.4,28.8-8.3c3.2,0.2,8.9,1.4,13.3,4.3c-0.7-5.9-2.2-11.6-3.5-16.4
			c0,0-1.3,0.1-3.3,0.2c-8.2,0.5-29,1.1-28.1-4.6c1.1-7.1,29.7-15.1,29.7-15.1c0.2,0.2,0.3,0.4,0.5,0.6c2.7,3.4,5.3,7.1,7.9,11
			C141.3,153.6,154.4,185.8,144,199.3z"/>
	</g>
	<g>
		<path fill="#181932" d="M116.8,116.7c4.6,4.2,8.2,9.1,11.6,14.2c3.4,5.1,6.3,10.5,9,16c1.4,2.7,2.7,5.5,3.9,8.3
			c1.2,2.8,2.4,5.7,3.4,8.6c1,2.9,2,5.8,2.7,8.8c0.8,3,1.4,6.1,1.7,9.2c0.3,3.1,0.4,6.3-0.1,9.5c-0.5,3.2-1.6,6.4-3.7,9.1
			c-2,2.5-4.4,4.9-7.4,6.4c-3,1.5-6.6,2.1-9.9,1.4c-1.7-0.3-3.3-0.8-4.7-1.5l-0.6-0.3l-0.5-0.3c-0.4-0.2-0.7-0.4-1.1-0.6
			c-0.7-0.5-1.4-0.9-2-1.4c-2.6-1.9-4.8-4.3-6.7-6.9c-1.9-2.6-3.4-5.4-4.5-8.4c-1.2-3-1.9-6.1-2-9.4l2.1,1.6
			c-2.8,0.6-5.7,0.8-8.5,0.6c-1.4-0.1-2.9-0.3-4.3-0.7c-1.4-0.4-2.9-0.9-4.2-1.7c-0.7-0.4-1.3-0.9-1.9-1.5c-0.2-0.1-0.3-0.3-0.4-0.4
			l-0.4-0.5l-0.4-0.5c-0.1-0.2-0.2-0.3-0.3-0.5c-0.2-0.4-0.4-0.7-0.6-1.1l-0.5-1.1l-0.3-1.2c-0.1-0.4-0.1-0.8-0.2-1.2
			c-0.2-1.6,0-3.1,0.3-4.6c0.2-0.7,0.4-1.5,0.7-2.2c0.1-0.3,0.3-0.7,0.4-1c0.2-0.4,0.3-0.7,0.5-1.1l1.6,2.7c-0.4,0-0.7,0-1.1,0
			c-0.3,0-0.7,0-1,0c-0.7,0-1.3-0.1-2-0.3c-1.3-0.3-2.7-0.7-4-1.4c-0.6-0.4-1.3-0.9-1.8-1.5c-0.5-0.6-1-1.3-1.3-2.1
			c-0.3-0.8-0.5-1.5-0.5-2.3l0-0.6l0-0.1l0-0.1l0-0.2c0-0.2,0-0.3,0.1-0.5c0.1-0.3,0.2-0.6,0.3-0.8c0.1-0.2,0.2-0.5,0.4-0.6
			c0.5-0.8,1.1-1.2,1.7-1.7c0.6-0.4,1.1-0.8,1.7-1.1c1.2-0.7,2.3-1.2,3.5-1.7c2.4-0.9,4.8-1.6,7.3-2.2c4.9-1.1,10-1.5,15-1.2
			c2.6,0.1,5.1,0.7,7.6,1.4c2.5,0.8,4.9,1.7,7.2,3.1l-2.9,1.8c-0.2-1.3-0.4-2.7-0.6-4l-0.7-4.1c-0.2-1.4-0.4-2.7-0.6-4.1
			c-0.2-1.4-0.3-2.8-0.4-4.2c0-0.3,0.3-0.6,0.6-0.6c0.2,0,0.4,0.1,0.5,0.3c0.7,1.2,1.3,2.5,1.9,3.9c0.5,1.3,1,2.7,1.4,4
			c0.4,1.4,0.7,2.8,1,4.2c0.3,1.4,0.5,2.8,0.6,4.3l0,0.1c0.1,1-0.6,1.9-1.7,2c-0.4,0-0.9-0.1-1.2-0.3c-1.8-1.2-3.9-2.2-6.1-2.9
			c-2.2-0.7-4.5-1.1-6.8-1.2c-4.7-0.3-9.5,0.2-14.1,1.2c-2.3,0.5-4.6,1.2-6.7,2c-1.1,0.4-2.1,0.9-3.1,1.5c-0.5,0.3-0.9,0.6-1.3,0.9
			c-0.4,0.3-0.7,0.6-0.9,0.9c-0.1,0.1-0.1,0.1-0.1,0.2c0,0.1,0,0.1,0,0.1c0,0,0,0,0,0c0,0,0,0,0,0c0,0,0,0,0,0l0,0l0,0.3
			c0,0.4,0.1,0.9,0.3,1.2c0.3,0.7,0.9,1.4,1.7,1.8c1.6,1,4,1.3,6.1,1.2c1,0,1.8,0.7,1.9,1.7c0,0.3-0.1,0.6-0.2,0.9
			c-0.1,0.2-0.3,0.5-0.4,0.7c-0.1,0.3-0.2,0.5-0.3,0.8c-0.2,0.6-0.4,1.1-0.5,1.7c-0.3,1.2-0.4,2.3-0.2,3.4c0,0.3,0.1,0.6,0.1,0.8
			l0.2,0.8l0.3,0.7c0.1,0.3,0.3,0.5,0.4,0.7c0.1,0.1,0.1,0.2,0.2,0.3l0.3,0.3l0.3,0.3l0.1,0.2l0.1,0.1c0.4,0.4,0.8,0.7,1.3,1
			c0.9,0.6,2.1,1,3.2,1.3c1.2,0.3,2.4,0.5,3.7,0.6c2.5,0.1,5.1,0,7.6-0.5c1-0.2,1.9,0.4,2.1,1.4c0,0.1,0,0.2,0,0.3l0,0
			c0.3,5.6,2.6,11.2,5.9,15.9c1.7,2.3,3.7,4.4,5.9,6.1c0.5,0.4,1.2,0.8,1.7,1.2l0.9,0.5l0.5,0.3l0.5,0.2c1.2,0.6,2.5,1,3.9,1.3
			c2.6,0.5,5.3,0.1,7.7-1.1c2.4-1.2,4.5-3.1,6.2-5.4c1.6-2.1,2.6-4.8,3-7.6c0.4-2.8,0.4-5.7,0.1-8.6c-0.3-2.9-0.9-5.8-1.6-8.7
			c-0.7-2.9-1.6-5.7-2.6-8.5c-2-5.6-4.5-11.1-7.2-16.4c-1.4-2.7-2.8-5.3-4.4-7.9c-1.5-2.6-3.1-5.1-4.7-7.7c-1.6-2.6-3.2-5.1-4.8-7.6
			c-1.6-2.6-3.2-5.1-4.6-7.8l0,0c-0.2-0.3,0-0.7,0.2-0.8C116.3,116.5,116.6,116.5,116.8,116.7z"/>
	</g>
	<g>
		<path fill="#181932" d="M134.5,169.4c-0.8-1.5-1.8-3-2.8-4.4c-1-1.4-2.1-2.8-3.2-4.1c-1.2-1.3-2.4-2.5-3.7-3.6
			c-1.3-1.1-2.7-2-4.1-2.8l0,0c-0.9-0.5-1.2-1.5-0.7-2.4s1.5-1.2,2.4-0.7c0,0,0.1,0,0.1,0.1c1.7,1,3.1,2.3,4.5,3.6
			c1.3,1.3,2.5,2.8,3.6,4.2c1.1,1.5,2.1,3,3,4.6c0.9,1.6,1.8,3.2,2.6,4.8c0.2,0.4,0,1-0.4,1.2C135.2,169.9,134.7,169.8,134.5,169.4
			L134.5,169.4z"/>
	</g>
	<g>
		<path fill="#FFFFFF" d="M69.6,163.4c0,0,4.4,7.5-0.7,13c-3.7,4-12.2,4.1-17.6,3c-0.6,12-10.3,25.4-20.9,27.2
			c-5.2,0.9-10.7-1-15.5-7.2c-10.4-13.6,2.9-46,19.5-71c2.7-4,5.4-7.8,8.1-11.3l0,0l22.9,12.8l-22,6l-2.5,0.7
			c-1.4,4.8-2.9,10.5-3.5,16.4c4.3-2.8,10-4.1,13.3-4.3c13.8-1,28.8,4.4,28.8,8.3C79.5,164.1,69.6,163.4,69.6,163.4z"/>
	</g>
	<g opacity="0.3">
		<path fill="#361B45" d="M69.6,163.4c0,0,4.4,7.5-0.7,13c-3.7,4-12.2,4.1-17.6,3c-0.6,12-10.3,25.4-20.9,27.2
			c-5.2,0.9-10.7-1-15.5-7.2c-3.3-4.3-4.2-10.4-3.4-17.6c0.5,3.5,1.6,6.5,3.4,8.9c4.8,6.2,10.2,8.1,15.5,7.2
			c10.7-1.8,16.5-14.3,17.1-26.4c5.4,1.1,13.7,4.1,17.4,0.1c5.1-5.5-2.9-12.5-2.9-12.5s11.4,2.1,17,0.1
			C77.2,163.9,69.6,163.4,69.6,163.4z"/>
	</g>
	<g opacity="0.3">
		<path fill="#181932" d="M89.2,163.4c0,0-4.4,7.5,0.7,13c3.7,4,12.2,4.1,17.6,3c0.6,12,10.3,25.4,20.9,27.2
			c5.2,0.9,10.7-1,15.5-7.2c3.3-4.3,4.2-10.4,3.4-17.6c-0.5,3.5-1.6,6.5-3.4,8.9c-4.8,6.2-10.2,8.1-15.5,7.2
			c-10.7-1.8-16.5-14.3-17.1-26.4c-5.4,1.1-13.7,4.1-17.4,0.1c-5.1-5.5,2.9-12.5,2.9-12.5s-11.4,2.1-17,0.1
			C81.6,163.9,89.2,163.4,89.2,163.4z"/>
	</g>
	<g>
		<path fill="#181932" d="M43.1,117.4c-1.4,2.7-3,5.3-4.6,7.8c-1.6,2.6-3.2,5.1-4.8,7.6c-1.6,2.6-3.1,5.1-4.7,7.7
			c-1.5,2.6-3,5.2-4.4,7.9c-2.8,5.3-5.2,10.8-7.2,16.4c-1,2.8-1.9,5.7-2.6,8.5c-0.7,2.9-1.3,5.8-1.6,8.7c-0.3,2.9-0.3,5.8,0.1,8.6
			c0.4,2.8,1.4,5.4,3,7.6c1.7,2.3,3.8,4.2,6.2,5.4c2.4,1.2,5.1,1.6,7.7,1.1c1.3-0.2,2.6-0.7,3.9-1.3l0.5-0.2l0.5-0.3l0.9-0.5
			c0.6-0.4,1.2-0.7,1.7-1.2c2.3-1.7,4.2-3.8,5.9-6.1c3.3-4.7,5.6-10.2,5.9-15.9l0,0c0.1-1,0.9-1.7,1.9-1.7c0.1,0,0.2,0,0.3,0
			c2.5,0.5,5.1,0.7,7.6,0.5c1.3-0.1,2.5-0.3,3.7-0.6c1.2-0.3,2.3-0.7,3.2-1.3c0.5-0.3,0.9-0.6,1.3-1l0.1-0.1l0.1-0.2l0.3-0.3
			l0.3-0.3c0.1-0.1,0.1-0.2,0.2-0.3c0.1-0.2,0.3-0.5,0.4-0.7l0.3-0.7l0.2-0.8c0.1-0.3,0.1-0.5,0.1-0.8c0.1-1.1,0-2.3-0.2-3.4
			c-0.1-0.6-0.3-1.2-0.5-1.7c-0.1-0.3-0.2-0.6-0.3-0.8c-0.1-0.3-0.3-0.6-0.4-0.7c-0.5-0.9-0.2-2,0.7-2.4c0.3-0.2,0.6-0.2,0.9-0.2
			c2.1,0.1,4.5-0.3,6.1-1.2c0.8-0.5,1.4-1.1,1.7-1.8c0.2-0.4,0.2-0.8,0.3-1.2l0-0.3l0,0c0,0,0,0,0,0c0,0,0,0,0,0c0,0,0,0,0,0
			c0,0,0,0,0-0.1c0-0.1,0-0.1-0.1-0.2c-0.2-0.3-0.5-0.6-0.9-0.9c-0.4-0.3-0.9-0.6-1.3-0.9c-1-0.5-2-1-3.1-1.5
			c-2.2-0.9-4.4-1.5-6.7-2c-4.6-1-9.4-1.4-14.1-1.2c-2.3,0.1-4.6,0.6-6.8,1.2c-2.2,0.7-4.3,1.6-6.1,2.9c-0.8,0.6-2,0.4-2.6-0.5
			c-0.3-0.4-0.4-0.8-0.3-1.2l0-0.1c0.1-1.4,0.3-2.9,0.6-4.3c0.3-1.4,0.6-2.8,1-4.2c0.4-1.4,0.8-2.7,1.4-4c0.5-1.3,1.1-2.6,1.9-3.9
			c0.2-0.3,0.5-0.4,0.8-0.2c0.2,0.1,0.3,0.3,0.3,0.5c0,1.4-0.2,2.8-0.4,4.2c-0.2,1.4-0.4,2.8-0.6,4.1l-0.7,4.1
			c-0.2,1.3-0.4,2.7-0.6,4l-2.9-1.8c2.3-1.4,4.7-2.4,7.2-3.1c2.5-0.7,5-1.3,7.6-1.4c5.1-0.3,10.1,0.2,15,1.2
			c2.5,0.6,4.9,1.2,7.3,2.2c1.2,0.5,2.4,1,3.5,1.7c0.6,0.3,1.2,0.7,1.7,1.1c0.6,0.4,1.1,0.9,1.7,1.7c0.1,0.2,0.3,0.4,0.4,0.6
			c0.1,0.2,0.2,0.5,0.3,0.8c0,0.1,0.1,0.3,0.1,0.5l0,0.2l0,0.1l0,0.1l0,0.6c-0.1,0.8-0.2,1.6-0.5,2.3c-0.3,0.8-0.8,1.5-1.3,2.1
			c-0.5,0.6-1.2,1.1-1.8,1.5c-1.3,0.8-2.7,1.2-4,1.4c-0.7,0.1-1.3,0.2-2,0.3c-0.3,0-0.7,0-1,0c-0.3,0-0.7,0-1.1,0l1.6-2.7
			c0.2,0.4,0.4,0.7,0.5,1.1c0.2,0.3,0.3,0.7,0.4,1c0.3,0.7,0.5,1.4,0.7,2.2c0.3,1.5,0.5,3,0.3,4.6c-0.1,0.4-0.1,0.8-0.2,1.2
			l-0.3,1.2l-0.5,1.1c-0.2,0.4-0.4,0.7-0.6,1.1c-0.1,0.2-0.2,0.4-0.3,0.5l-0.4,0.5l-0.4,0.5c-0.1,0.2-0.3,0.3-0.4,0.4
			c-0.6,0.6-1.2,1.1-1.9,1.5c-1.4,0.8-2.8,1.4-4.2,1.7c-1.4,0.4-2.9,0.6-4.3,0.7c-2.9,0.2-5.7,0-8.5-0.6l2.1-1.6
			c-0.2,3.2-0.9,6.4-2,9.4c-1.2,3-2.6,5.8-4.5,8.4c-1.9,2.6-4.1,4.9-6.7,6.9c-0.6,0.5-1.3,0.9-2,1.4c-0.4,0.2-0.7,0.4-1.1,0.6
			l-0.5,0.3l-0.6,0.3c-1.5,0.7-3.1,1.2-4.7,1.5c-3.3,0.6-6.9,0.1-9.9-1.4c-3-1.5-5.5-3.9-7.4-6.4c-2.1-2.7-3.2-6-3.7-9.1
			c-0.5-3.2-0.5-6.4-0.1-9.5c0.3-3.1,0.9-6.2,1.7-9.2c0.8-3,1.7-5.9,2.7-8.8c1-2.9,2.2-5.7,3.4-8.6c1.3-2.8,2.6-5.6,3.9-8.3
			c2.8-5.5,5.7-10.9,9-16c3.4-5.1,7-10.1,11.6-14.2c0.2-0.2,0.6-0.2,0.8,0C43.2,116.9,43.2,117.2,43.1,117.4L43.1,117.4z"/>
	</g>
	<g>
		<path fill="#361B45" d="M22.9,168.6c0.8-1.7,1.6-3.3,2.6-4.8c0.9-1.6,1.9-3.1,3-4.6c1.1-1.5,2.3-2.9,3.6-4.2
			c1.3-1.3,2.8-2.5,4.5-3.6c0.8-0.5,1.9-0.3,2.4,0.6c0.5,0.8,0.3,1.9-0.6,2.4c0,0-0.1,0-0.1,0.1l0,0c-1.4,0.7-2.8,1.7-4.1,2.8
			c-1.3,1.1-2.5,2.3-3.7,3.6c-1.1,1.3-2.2,2.7-3.2,4.1c-1,1.4-2,2.9-2.8,4.4l0,0c-0.2,0.4-0.8,0.6-1.2,0.3
			C22.9,169.5,22.7,169,22.9,168.6z"/>
	</g>
	<g>
		<g>
			<path fill="#FFFFFF" d="M144.3,88L144.3,88c-0.7,0-1.4-0.5-1.4-1.3l-2-39.8c0-0.8,0.5-1.4,1.3-1.5l0,0
				c7.7-0.5,14.3,5.7,14.7,13.7l0.7,13.6C158,80.7,152.1,87.6,144.3,88z"/>
			<path fill="#361B45" d="M144.3,88.4c-0.4,0-0.8-0.1-1.1-0.4c-0.3-0.3-0.5-0.7-0.6-1.2l-2-39.8c0-0.9,0.7-1.7,1.6-1.8
				c3.7-0.2,7.3,1,10.1,3.6c3,2.7,4.7,6.3,4.9,10.4l0.7,13.6C158.3,80.9,152.2,87.9,144.3,88.4L144.3,88.4
				C144.3,88.4,144.3,88.4,144.3,88.4z M143,45.8c-0.3,0-0.5,0-0.8,0c-0.6,0-1,0.5-1,1.1l2,39.8c0,0.3,0.1,0.6,0.4,0.8
				c0.2,0.2,0.4,0.3,0.7,0.3l0,0c7.5-0.4,13.3-7.2,12.9-15l-0.7-13.6c-0.2-3.9-1.9-7.4-4.7-10C149.4,47,146.3,45.8,143,45.8z"/>
		</g>
		<g opacity="0.35">
			<path fill="#361B45" d="M157.3,66.4l0.3,6.4c0.4,8-5.5,14.9-13.2,15.3c-0.7,0-1.4-0.5-1.4-1.3l-0.5-10.6c0.2,0.5,0.7,0.8,1.3,0.7
				l0.9-0.1C150.7,76.5,155.6,72.1,157.3,66.4z"/>
		</g>
		<g>
			<path fill="#181932" d="M144.3,89.8c-0.8,0-1.5-0.3-2-0.8c-0.6-0.6-1-1.3-1-2.2l-2-39.8c-0.1-1.7,1.2-3.2,2.9-3.3
				c4.1-0.2,8.1,1.2,11.2,3.9c3.2,2.9,5.2,7,5.4,11.4l0.7,13.6c0.5,9-6.2,16.7-14.9,17.2l0,0l0,0l0,0
				C144.4,89.8,144.3,89.8,144.3,89.8z M142.7,47.2l2,39c6.5-0.6,11.5-6.6,11.1-13.4l-0.7-13.6c-0.2-3.5-1.7-6.7-4.2-9
				C148.6,48.2,145.7,47.2,142.7,47.2z"/>
		</g>
		<g>
			<path fill="#FFFFFF" d="M15.7,52.9L15.7,52.9c0.7,0,1.4,0.5,1.4,1.3l2,39.8c0,0.8-0.5,1.4-1.3,1.5h0C10.1,96,3.5,89.8,3.1,81.8
				L2.4,68.3C2,60.3,7.9,53.4,15.7,52.9z"/>
			<path fill="#361B45" d="M17,95.8c-3.4,0-6.7-1.3-9.3-3.6c-3-2.7-4.7-6.3-4.9-10.4L2.1,68.3c-0.4-8.2,5.7-15.2,13.5-15.6l0,0
				c0.4,0,0.8,0.1,1.2,0.4c0.3,0.3,0.5,0.7,0.6,1.2l2,39.8c0,0.9-0.7,1.7-1.6,1.8C17.6,95.8,17.3,95.8,17,95.8z M15.7,53.3
				c-7.5,0.4-13.3,7.2-12.9,15l0.7,13.6c0.2,3.9,1.9,7.4,4.7,10c2.7,2.4,6.1,3.6,9.7,3.4c0.6,0,1-0.5,1-1.1l-2-39.8
				c0-0.3-0.1-0.6-0.4-0.8C16.2,53.3,15.9,53.2,15.7,53.3L15.7,53.3z"/>
		</g>
		<g opacity="0.35">
			<path fill="#361B45" d="M18.5,83l0.6,11c0,0.8-0.5,1.4-1.3,1.5c-4,0.2-7.8-1.3-10.5-4c-2.4-2.4-4-5.8-4.2-9.6l-0.3-5.7
				c2.4,4.9,7.5,8.1,13.2,7.8l1.4-0.1C17.9,83.8,18.3,83.4,18.5,83z"/>
		</g>
		<g>
			<path fill="#181932" d="M17,97.3c-3.8,0-7.4-1.4-10.3-4c-3.2-2.9-5.2-7-5.4-11.4L0.7,68.3c-0.5-9,6.2-16.7,14.9-17.2
				c0.8,0,1.6,0.2,2.2,0.8c0.6,0.6,1,1.3,1,2.2l2,39.8c0.1,1.7-1.2,3.2-2.9,3.3C17.6,97.3,17.3,97.3,17,97.3z M15.3,54.7
				C8.8,55.4,3.8,61.3,4.2,68.2l0.7,13.6c0.2,3.5,1.7,6.7,4.2,9c2.3,2.1,5.2,3.1,8.2,3.1L15.3,54.7z M15.8,54.7L15.8,54.7L15.8,54.7
				C15.8,54.7,15.8,54.7,15.8,54.7z"/>
		</g>
		<g opacity="0.3">
			<path fill="#361B45" d="M124.7,128.7c-1.4,1.4-2.8,2.6-4.3,3.9c-1.8,1.5-3.7,2.9-5.7,4.2c-10.4,6.8-22.7,10.7-35.9,10.5
				c-13.1-0.2-25.2-4.4-35.3-11.4c-1.6-1.1-3.1-2.3-4.6-3.5c-1.5-1.3-3-2.6-4.4-4.1c2.7-4,5.4-7.8,8.1-11.3l0,0
				c2.1-7.9,3.6-12.6,3.6-12.6h66.8c0,0,1.6,4.9,3.8,13.2C119.5,121.1,122.2,124.8,124.7,128.7z"/>
		</g>
		<g>
			<path fill="#FFFFFF" d="M145.4,71.5c-0.7,37.5-30.5,67.5-66.6,66.9c-36.1-0.5-64.9-31.4-64.2-68.9C15.3,32,45.1,2,81.2,2.6
				C117.3,3.1,146.1,34,145.4,71.5z"/>
			<path fill="#361B45" d="M79.8,138.7c-0.3,0-0.6,0-1,0c-17.1-0.3-33.2-7.3-45.3-19.8C20.8,105.8,14,88.2,14.3,69.5
				C14.9,31.9,45,1.7,81.2,2.3c17.1,0.3,33.2,7.3,45.3,19.8c12.8,13.2,19.6,30.7,19.3,49.4l-0.3,0l0.3,0
				C145.1,108.8,115.6,138.7,79.8,138.7z M80.3,2.9c-35.5,0-64.7,29.7-65.3,66.6c-0.3,18.5,6.5,35.9,19.1,49
				c12,12.4,27.9,19.3,44.8,19.6c0.3,0,0.6,0,0.9,0c35.5,0,64.7-29.7,65.3-66.6l0,0c0.3-18.5-6.5-35.9-19.1-49
				C114,10.1,98.1,3.1,81.2,2.9C80.9,2.9,80.6,2.9,80.3,2.9z"/>
		</g>
		<g opacity="0.35">
			<path fill="#361B45" d="M145,62.1c0.4,3.1,0.5,6.2,0.5,9.4c-0.7,37.5-30.5,67.5-66.6,66.9c-36.1-0.5-64.9-31.4-64.2-68.9
				c0-1.1,0.1-2.2,0.1-3.2c3.8,33.1,30.7,59,63.7,59.5C113.6,126.3,142.7,98,145,62.1z"/>
		</g>
		<g>
			<path fill="#181932" d="M79.8,140.2c-0.3,0-0.6,0-1,0c-17.5-0.3-33.9-7.4-46.3-20.2c-13-13.5-20-31.4-19.7-50.5
				C13.5,31.4,43.7,0.8,80.3,0.8c0.3,0,0.6,0,1,0c17.5,0.3,33.9,7.4,46.3,20.2c13,13.5,20,31.4,19.7,50.5
				C146.5,109.6,116.4,140.2,79.8,140.2z M80.3,4.3C45.6,4.3,17,33.4,16.4,69.6c-0.3,18.2,6.3,35.2,18.7,48
				c11.7,12.1,27.3,18.9,43.8,19.1c0.3,0,0.6,0,0.9,0c34.7,0,63.3-29.1,63.9-65.2l0,0c0.3-18.2-6.3-35.2-18.7-48
				C113.3,11.4,97.7,4.6,81.2,4.3C80.9,4.3,80.6,4.3,80.3,4.3z"/>
		</g>
		<g>
			<path fill="#181932" d="M145.2,73.2c0,13.3-4.2,25.6-11.4,35.9c-5.4,7.7-27.3,21.1-54.3,21.3c-25.1,0.3-47.9-13.6-53.2-21.3
				c-7.1-10.2-11.2-22.5-11.2-35.8c0.1-35.2,29.3-49.8,65.2-49.8C116.2,23.5,145.3,38,145.2,73.2z"/>
		</g>
		<g opacity="0.5">
			<path fill="#FFFFFF" d="M115.8,67.4c-1.2,6.5,1.6,12.5,6.1,13.4c4.6,0.9,9.2-3.7,10.4-10.3s-1.6-12.5-6.1-13.4
				C121.6,56.3,117,60.9,115.8,67.4z"/>
		</g>
		<g opacity="0.5">
			<path fill="#FFFFFF" d="M109.4,91.3c-0.9,2.9,0.3,5.9,2.6,6.7c2.4,0.8,5.1-0.9,6-3.8c0.9-2.9-0.3-5.9-2.6-6.7
				S110.3,88.4,109.4,91.3z"/>
		</g>
		<g opacity="0.35">
			<path fill="#121A28" d="M132.6,40.4c7.9,7.9,12.6,18.7,12.5,32.8c0,13.3-4.2,25.6-11.4,35.9c-5.4,7.7-27.3,21.1-54.3,21.3
				c-9.5,0.1-18.8-1.9-26.8-4.7c33.2-1.1,60-17.5,66.6-27c9.1-13,14.4-28.6,14.4-45.5C133.7,48.6,133.3,44.4,132.6,40.4z"/>
		</g>
		<g>
			<path fill="#181932" d="M20.1,45.6c-0.4,0-0.8-0.1-1.1-0.4c-0.7-0.6-0.9-1.6-0.3-2.4C30.3,25.3,52.6,15.2,80,15.2
				c0,0,0.1,0,0.1,0c27.2,0,49.4,9.7,61,26.6c0.5,0.7,0.5,1.6-0.1,2.3c-0.6,0.7-1.8,0.8-2.5,0.1l-0.2-0.1l-0.1-0.2
				c-10.9-16-32.1-25.2-58.1-25.2c0,0-0.1,0-0.1,0c-26.2,0-47.5,9.5-58.4,26.1l-0.1,0.1C21.2,45.4,20.7,45.6,20.1,45.6z"/>
		</g>
		<g opacity="0.5">
			<path fill="#FFFFFF" d="M29.7,94.7c0,0-10.4-34.7,7.7-48.5s44-13.8,43.4-12.1c0,0-28.7,7.2-40,30.8C32,83.1,29.7,94.7,29.7,94.7z
				"/>
		</g>
	</g>
	<g>
		<path fill="#181932" d="M144.3,169.1c-0.4,0-0.9-0.2-1.1-0.6c-3.1-5.2-12-5.5-12.1-5.5c-0.7,0-1.2-0.6-1.2-1.3
			c0-0.7,0.6-1.3,1.3-1.2c0.4,0,10.3,0.4,14.1,6.8c0.4,0.6,0.2,1.4-0.4,1.7C144.8,169,144.5,169.1,144.3,169.1z"/>
	</g>
	<g>
		<path fill="#361B45" d="M14.5,169.1c-0.2,0-0.4-0.1-0.7-0.2c-0.6-0.4-0.8-1.1-0.4-1.7c3.8-6.4,13.7-6.8,14.1-6.8
			c0.7,0,1.3,0.5,1.3,1.2c0,0.7-0.5,1.3-1.2,1.3c-0.1,0-9,0.4-12,5.5C15.4,168.9,15,169.1,14.5,169.1z"/>
	</g>
</g>
</svg>
