<?xml version="1.0" encoding="utf-8"?>
<!-- Generator: Adobe Illustrator 17.0.0, SVG Export Plug-In . SVG Version: 6.00 Build 0)  -->
<!DOCTYPE svg PUBLIC "-//W3C//DTD SVG 1.1//EN" "http://www.w3.org/Graphics/SVG/1.1/DTD/svg11.dtd">
<svg version="1.1" id="Camada_1" xmlns="http://www.w3.org/2000/svg" xmlns:xlink="http://www.w3.org/1999/xlink" x="0px" y="0px"
	 width="242px" height="272px" viewBox="0 0 242 272" enable-background="new 0 0 242 272" xml:space="preserve">
<g>
	<g>
		<g opacity="0.3">
			<path fill="#361B45" d="M71.9,237.4c-2.1,3.3-5.3,6.4-10.1,8.5c-14.8,6.4-23.6-5.8-42.2-3.3c-3.6,3.8-8.5,7.5-16,10.7
				c28.3-12.3,37.3,7.3,55.3-0.5C67,249.2,70.5,243.1,71.9,237.4z"/>
		</g>
		<g>
			<path fill="#EA5F5F" d="M8.25,251.5c16.5-7.1,38.078,5.948,48.5,1.5c20.5-8.75,13.95-28.5,13.95-28.5s-9.2-17.75-27.45-11.5
				C32.529,216.671,24.75,244.4,8.25,251.5z"/>
		</g>
		<g>
			<path fill="#1F1F23" d="M49.9,256.2c-4.4,0-8.5-1.2-12.8-2.4c-8.6-2.5-18.4-5.3-33.7,1.3c-0.8,0.3-1.7,0-2-0.8
				c-0.1-0.2-0.1-0.4-0.1-0.6c0-0.6,0.3-1.2,0.9-1.4c15.3-6.6,20-15.4,24.2-23.1c3.5-6.4,6.8-12.5,15.2-16.2
				c7.8-3.4,15.8-2.7,23.1,2.1c5.4,3.5,8.6,8,8.7,8.2s0.2,0.3,0.2,0.5s1.2,5.6,0.1,12c-1.5,8.6-6.5,14.9-14.3,18.3
				C56.1,255.6,52.9,256.2,49.9,256.2z M21.3,247.9c6.4,0,11.6,1.5,16.5,2.9c6.9,2,12.9,3.7,20.4,0.5c15.5-6.7,12.9-24.1,12.5-26.6
				c-1.5-2.1-12.3-15.8-27.9-9c-7.5,3.2-10.4,8.6-13.8,14.8c-3.1,5.8-6.6,12.1-14.1,17.8C17.3,248,19.4,247.9,21.3,247.9z"/>
		</g>
	</g>
	<g>
		<path fill="#FFFFFF" d="M164.6,132.6c0,0,19.8,8.3,23.2,13.5s-9,5.3-9,5.3"/>
	</g>
	<g>
		<path fill="#1F1F23" d="M178.8,153.1c-0.6,0-1.1-0.3-1.4-0.7l-14.2-18.8c-0.5-0.6-0.5-1.5,0-2.1s1.3-0.9,2.1-0.5
			c2.1,0.9,20.4,8.7,24,14.1c1.2,1.9,0.9,3.4,0.4,4.3C187.9,152.7,180.9,153.1,178.8,153.1L178.8,153.1z M170.2,137l9.5,12.5
			c3.3-0.2,6.5-1,6.9-1.8c0-0.1,0-0.4-0.3-0.7C184.6,144.4,177,140.3,170.2,137z"/>
	</g>
	<g>
		<g>
			<path fill="#FFFFFF" d="M81.4,88.9c-7.7,5.8-14.8,33.3-13,49.6s30.7,17.6,47.3,17.1s16.5-38,16.3-48
				C131.6,92,92.8,80.4,81.4,88.9z"/>
		</g>
		<g opacity="0.25">
			<path fill="#361B45" d="M115.7,155.6c-16.6,0.5-45.5-0.7-47.3-17.1c-0.2-2.1-0.3-4.5-0.3-6.9c4.6,3.6,10.9,0.4,11.7-4
				c4.7-27.1,14.9-37.6,19.7-41.1c14.9,2.1,32.2,10.7,32.4,21.1C132.2,117.6,132.3,155.1,115.7,155.6z"/>
		</g>
		<g>
			<path fill="#1F1F23" d="M109.9,157.5c-20,0-41.6-3.6-43.3-18.7c-1.7-15.8,4.8-44.6,13.7-51.2c7.8-5.9,25.9-3.1,38.1,2.9
				c9.7,4.7,15.2,10.8,15.3,17.2c0.4,18.4-1.4,49.3-18,49.8C113.8,157.4,111.9,157.5,109.9,157.5z M93.1,87.7
				c-4.6,0-8.4,0.8-10.7,2.6l0,0c-7.1,5.3-14,32.3-12.3,48c1.6,14.7,29.2,16,45.5,15.5c14.4-0.5,14.8-35.5,14.6-46.2
				c-0.1-4.9-5-10-13.3-14.1C109.1,89.8,100.2,87.7,93.1,87.7z M81.4,88.9L81.4,88.9L81.4,88.9z"/>
		</g>
		<g>
			<path fill="#FFFFFF" d="M83,116.4l-7.3-2.9c-1.7-0.7-3.5,0.3-4,2c-1.5,6-3.9,18.3,2.1,20.8c7.3,3.1,9.8-5.3,11.1-16.8
				C85,118.1,84.2,116.9,83,116.4z"/>
		</g>
		<g opacity="0.25">
			<path fill="#361B45" d="M84.8,119.5c-1.2,11.5-3.8,19.9-11.1,16.9c-3-1.2-3.9-4.9-3.9-9.1c0.6,1.2,1.5,2.1,2.7,2.6
				c6.5,2.7,9.2-3.7,10.6-13.4C84.3,117,85,118.2,84.8,119.5z"/>
		</g>
		<g>
			<path fill="#1F1F23" d="M76.6,138.6c-1.1,0-2.2-0.3-3.4-0.8c-6.6-2.8-5.3-13.9-3.1-22.7c0.3-1.3,1.2-2.3,2.4-2.9
				c1.2-0.6,2.6-0.7,3.8-0.2l7.4,2.9c1.9,0.8,3.1,2.7,2.9,4.8c-1.1,10.6-3.1,16-6.7,18.1C78.8,138.3,77.7,138.6,76.6,138.6z
				 M74.5,114.9c-0.2,0-0.4,0-0.6,0.1s-0.6,0.4-0.7,0.9c-2.1,8-2.8,17.2,1.2,18.9c1.5,0.6,2.7,0.7,3.7,0.1
				c3.6-2.1,4.7-12.3,5.1-15.6c0.1-0.6-0.3-1.2-0.8-1.4L75,115C74.9,114.9,74.7,114.9,74.5,114.9z"/>
		</g>
		<g>
			<path fill="#1F1F23" d="M80.3,88.9l8.7,4c2.9,1.4,5.8,2.7,8.6,4.1c0.4,0.2,0.6,0.8,0.4,1.2c-0.2,0.4-0.7,0.6-1.1,0.4l0,0
				C94,97.4,91,96.4,88,95.3l-9-3.2l0,0c-0.9-0.3-1.4-1.3-1.1-2.2c0.3-0.9,1.3-1.4,2.2-1.1C80.2,88.9,80.3,88.9,80.3,88.9z"/>
		</g>
	</g>
	<g>
		<path fill="#FFFFFF" d="M213.3,83.6c-2.9,9.7-24.5,27.8-55.7,28.7c-3,0.1-6.1,0-9.3-0.2l-2.8-11.9l-2.2-9.5c0,0,4.8-0.9,11.4-2.6
			c5.2-1.4,11.5-3.3,17.5-5.8c5.6-2.3,10.8-5.1,14.4-8.4c0,0,0.2-9.8,3-10.8c3.4-1.2,5.9,5.6,5.9,5.6s7.7-7.9,12.2-7.1
			C214.4,62.8,216.5,73,213.3,83.6z"/>
	</g>
	<g opacity="0.35">
		<path fill="#361B45" d="M214.7,75.7c-0.1,2.5-0.6,5.2-1.4,8c-3.1,10.7-28.9,31.3-64.9,28.4l-5-21.3c0,0,1.5-0.3,4-0.8l5.8,11.3
			C183,110.2,209.8,86.7,214.7,75.7z"/>
	</g>
	<g>
		<path fill="#1F1F23" d="M155.2,114.1c-2.3,0-4.6-0.1-7-0.3c-1-0.1-1.7-0.9-1.6-1.9c0.1-1,0.9-1.7,1.9-1.6
			c35.5,2.9,60.3-17.8,63.1-27.2c2-6.7,1.8-13.4-0.5-17.1c-0.9-1.5-2.2-2.4-3.7-2.7c-2.5-0.4-7.7,3.6-10.6,6.6l-2,2l-1-2.6
			c-0.8-2.1-2.6-4.9-3.6-4.6c-0.9,0.6-1.7,5-1.8,9.1v0.8l-0.6,0.5c-12.5,11.4-42.9,17-44.2,17.2c-1,0.2-1.9-0.5-2-1.4
			c-0.2-1,0.5-1.9,1.4-2c0.3-0.1,29.8-5.5,41.9-15.9c0.1-3.6,0.8-10.4,4.1-11.6c3.3-1.2,5.7,1.9,7,4.3c2.8-2.6,8-6.6,11.9-5.9
			c2.5,0.4,4.6,1.9,6.1,4.3c2.8,4.5,3.2,12.2,0.9,19.9C211.8,95,188.3,114.1,155.2,114.1z"/>
	</g>
	<g>
		<path fill="#FFFFFF" d="M181,154.3c0,0-43.6,16.8-58.8,15.6c-15.3-1.2-31.7-3.6-32.6-32.6c-0.6-18,8.4-35.8,15.2-46.6
			c4.2-6.6,7.5-10.6,7.5-10.6l42.1,2.1c0,0,0.2,2.2,0.5,5.9c0.2,2.3,0.5,5.2,0.8,8.4c0.5,4.7,1.2,10.1,2,15.8c1.3,8.7,2.9,18,5,25.9
			C163.6,141.7,178,142.6,181,154.3z"/>
	</g>
	<g>
		<path fill="#1F1F23" d="M156.7,100.6c1.6,5.1,2.5,10.3,3.4,15.5s1.7,10.4,2.8,15.5c0.3,1.3,0.6,2.6,0.9,3.8l0.5,1.9l0.1,0.5l0,0
			l0,0l0,0l0,0l0,0l0,0l0,0c0,0,0,0,0.1,0.1c0,0,0.1,0.1,0.2,0.2c0.3,0.3,0.9,0.6,1.4,0.8c0.5,0.3,1.1,0.5,1.7,0.8
			c1.2,0.5,2.4,1.1,3.7,1.7c2.4,1.2,4.9,2.7,7,4.8c1,1,1.9,2.2,2.7,3.5c0.7,1.3,1.3,2.7,1.7,4.1l0.4,1.5l-1.5,0.6
			c-6.9,2.6-13.9,5.1-20.9,7.4c-7,2.3-14.1,4.4-21.4,6.1c-3.6,0.8-7.3,1.6-11.1,2c-1.9,0.2-3.8,0.4-5.8,0.2c-0.5,0-1-0.1-1.4-0.1
			l-1.4-0.1c-0.9-0.1-1.9-0.2-2.8-0.3c-3.7-0.4-7.5-1.1-11.2-2.4c-1.8-0.7-3.6-1.5-5.3-2.6c-1.7-1.1-3.2-2.3-4.6-3.8
			s-2.5-3.1-3.5-4.8s-1.7-3.5-2.3-5.4l-0.2-0.7l-0.2-0.7l-0.4-1.4L89,148l-0.2-0.7l-0.1-0.7l-0.2-1.4c-0.1-0.5-0.1-0.9-0.2-1.4
			c-0.1-0.9-0.2-1.9-0.3-2.8c-0.3-3.7-0.3-7.6,0.1-11.3c0.4-3.8,1.1-7.5,2.1-11.1c2-7.3,4.9-14.2,8.4-20.8c1.7-3.3,3.5-6.6,5.6-9.7
			s4.5-6,7.6-8.3c0.3-0.2,0.6-0.1,0.8,0.1c0.1,0.2,0.2,0.4,0.1,0.6l0,0c-1.5,3.4-3.4,6.5-5.3,9.6s-3.9,6.1-5.6,9.3
			c-3.4,6.4-6.3,13.1-8.1,20c-0.9,3.5-1.6,7-2,10.6c-0.4,3.6-0.4,7.1-0.1,10.7c0.1,0.9,0.1,1.8,0.3,2.7c0.1,0.4,0.1,0.9,0.2,1.3
			l0.2,1.3l0.1,0.7l0.1,0.6l0.3,1.3l0.4,1.3l0.2,0.6l0.2,0.6c0.5,1.7,1.2,3.3,2.1,4.8c0.8,1.5,1.8,2.9,3,4.1
			c2.3,2.5,5.2,4.3,8.5,5.5s6.8,1.8,10.4,2.2c0.9,0.1,1.8,0.2,2.7,0.3l1.4,0.1c0.5,0,0.9,0.1,1.3,0.1s0.8,0.1,1.3,0h1.3
			c0.9-0.1,1.8-0.1,2.6-0.2c3.5-0.4,7.1-1.1,10.6-2c7.1-1.7,14.1-3.8,21.1-6c7-2.3,13.9-4.7,20.7-7.3l-1.1,2.1
			c-0.6-2.3-1.8-4.3-3.5-6s-3.8-3-6-4.2c-1.1-0.6-2.3-1.1-3.5-1.7c-0.6-0.3-1.2-0.6-1.9-0.9c-0.6-0.3-1.3-0.7-2-1.2
			c-0.2-0.2-0.4-0.3-0.5-0.5l-0.3-0.3c-0.1-0.1-0.2-0.3-0.3-0.4c-0.2-0.2-0.3-0.7-0.4-0.9l-0.1-0.5l-0.5-1.9
			c-0.3-1.3-0.6-2.6-0.9-3.9c-0.6-2.6-1.2-5.2-1.7-7.8c-0.5-2.6-0.9-5.2-1.3-7.9c-0.7-5.3-1.2-10.6-0.9-15.9c0-0.3,0.3-0.6,0.6-0.6
			C156.5,100.2,156.7,100.4,156.7,100.6z"/>
	</g>
	<g>
		<path fill="#EDDF5E" d="M93.8,242.8l-7.5,1.2c-3.4,0.5-6.8-0.9-8.9-3.6l0,0c-6.2-8.2-10.1-17.9-11.1-28.1l0,0
			c-0.4-3.4,1.2-6.8,4-8.7l6.3-4.3"/>
	</g>
	<g opacity="0.6">
		<g>
			<path fill="#FFFFFF" d="M77.9,203.6l-6.2,4.3c-1.6,1.1-2.8,2.5-3.6,4.2c-0.8,1.7-1.1,3.5-0.9,5.4c0.2,1.5,0.4,2.9,0.6,4.4
				c-0.8-2.8-1.3-5.7-1.6-8.6c-0.2-1.7,0.1-3.4,0.8-4.9c0.7-1.5,1.8-2.8,3.2-3.8l6.3-4.3L77.9,203.6z"/>
		</g>
	</g>
	<g>
		<g opacity="0.35">
			<path fill="#361B45" d="M70.9,227.9L70.9,227.9c1.5,3.1,3.4,6,5.4,8.7c2.1,2.8,5.5,4.1,8.9,3.6l7-1.1l-15.8-40l-1.3,0.9
				l11.7,29.6l-7.5,1.2C76.2,231.4,73,230.3,70.9,227.9z M85.5,226.1l-10.3-26l0.4-0.3L86,226.1H85.5z"/>
		</g>
	</g>
	<g>
		<path fill="#EDDF5E" d="M95.1,187.6c-3.9-7.7-17.3-17.8-43.8-1.1c-0.3,0.2-0.2,0.8,0.2,0.8c4.4,0.8,25.1,4.3,28.9,15.1"/>
	</g>
	<g opacity="0.6">
		<g>
			<path fill="#FFFFFF" d="M55.8,187.8c-1.9-0.4-3.4-0.7-4.3-0.8c-0.4-0.1-0.5-0.6-0.2-0.8c26.4-16.8,39.8-6.6,43.8,1.1l-1.6,1.6
				C88.4,182.2,76.5,176.3,55.8,187.8z"/>
		</g>
	</g>
	<g>
		<path fill="#1F1F23" d="M80.4,204.2c-0.7,0-1.4-0.5-1.7-1.2c-1.3-3.6-6.5-10.2-27.3-13.9h-0.2c-0.9-0.2-1.6-0.8-1.8-1.8
			c-0.2-0.9,0.2-1.8,1-2.3c12.8-8.1,24-11,33.3-8.5c8.2,2.2,11.8,7.9,13,10.2c0.4,0.9,0.1,1.9-0.8,2.4c-0.9,0.4-1.9,0.1-2.4-0.8
			c-1-1.9-4-6.6-10.8-8.4c-7.5-2-16.9,0.1-27.6,6.3c19,3.9,25.1,10.6,26.9,15.6c0.3,0.9-0.2,1.9-1.1,2.2
			C80.8,204.2,80.6,204.2,80.4,204.2z"/>
	</g>
	<g>
		<path fill="#D25658" d="M114.9,237.8c2.4,8.3-0.3,25.3-31,31.1c-0.4,0.1-0.7-0.4-0.4-0.7c2.7-3.6,15.2-20.8,10.6-31.2"/>
	</g>
	<g>
		<path fill="#EDDF5E" d="M83.9,268.9c-0.4,0.1-0.7-0.4-0.4-0.7c1.4-1.8,5.3-7.2,8.2-13.5c2.8-5.9,4.6-12.5,2.4-17.6V237h0.1
			l20.8,0.8c0.7,2.3,0.9,5.3,0.3,8.6C113.6,254.7,106,264.7,83.9,268.9z"/>
	</g>
	<g opacity="0.35">
		<path fill="#361B45" d="M91.6,254.7c2.8-5.9,4.6-12.5,2.4-17.6l0.1-0.1l20.8,0.8c0.7,2.3,0.9,5.3,0.3,8.6
			C110.2,250.6,102.7,253.9,91.6,254.7z"/>
	</g>
	<g>
		<path fill="#1F1F23" d="M83.8,270.7c-0.8,0-1.5-0.4-1.9-1c-0.5-0.8-0.4-1.8,0.1-2.5c3.4-4.6,14.4-20.4,10.4-29.4
			c-0.4-0.9,0-1.9,0.9-2.3c0.9-0.4,1.9,0,2.3,0.9c4.1,9.2-3.6,22.7-8.8,30.2c11.8-2.7,20.1-7.6,24.2-14.2c3.9-6.4,2.7-12.3,2.2-14
			c-0.3-0.9,0.3-1.9,1.2-2.2c0.9-0.3,1.9,0.3,2.2,1.2c0.7,2.6,2,9.4-2.6,16.8c-5,8.2-15.1,13.8-29.8,16.6
			C84.1,270.7,83.9,270.7,83.8,270.7z M83.5,267.2L83.5,267.2L83.5,267.2z"/>
	</g>
	<g>
		<path fill="#FFFFFF" d="M239.1,160c0,0-6.9,43.9-63.8,71.1c-48.5,23.1-82,11.7-82,11.7c-6.8-7.6-11.8-16.6-14.6-26.2
			c-1.6-5.6-2.5-11.4-2.7-17.4c0,0,7.4-13.9,27.7-28c0.7-0.5,1.4-1,2.1-1.5c7.9-5.3,17.6-10.5,29.4-15c2.8-1.1,5.7-2.1,8.7-3
			c0.1,0,0.2-0.1,0.4-0.1c12.2-3.8,23.3-5.8,33.3-6.4c0.3,0,0.6,0,1-0.1C217.3,143,239.1,160,239.1,160z"/>
	</g>
	<g>
		<path fill="#EDDF5E" d="M210.1,208.3c-3.8-22.6-12.3-44.2-25-63.3c35-0.2,54.5,15,54.5,15S235.7,184.5,210.1,208.3z"/>
	</g>
	<g opacity="0.6">
		<g>
			<path fill="#FFFFFF" d="M238.9,162.8c0.5-2,0.7-3.2,0.7-3.2s-19.6-15.3-54.5-15c0.8,1.2,1.6,2.5,2.4,3.7
				C217.1,148.7,235.1,160.1,238.9,162.8z"/>
		</g>
	</g>
	<g>
		<path fill="#181932" d="M208.9,211.8l-0.5-3.2c-3.8-22.5-12.1-43.6-24.7-62.6l-1.8-2.7h3.3c27.7-0.2,46,9.3,52.6,13.4
			c2.5,1.5,3.6,4.5,2.9,7.3c-2,7.5-8.9,26.9-29.3,45.7L208.9,211.8z M188.3,146.8c11.3,17.8,19,37.2,22.9,58
			c17.9-17.4,24-34.9,25.9-41.8c0.4-1.3-0.2-2.7-1.3-3.4C229.7,155.8,213.3,147.3,188.3,146.8z"/>
	</g>
	<g>
		<path fill="#1F1F23" d="M116.3,247.4c-14.4,0-22.7-2.8-23.1-2.9l-0.4-0.1l-0.3-0.3C87,238,82.7,231,79.7,223.3s-4.7-15.7-4.8-24
			v-0.5l0.2-0.4c0.2-0.3,4.4-8.2,15.1-18.1c9.8-9.1,27-21.7,53.8-30.2c14-4.5,27.9-6.8,41.2-6.8h1l0.5,0.8
			c12.9,19.4,21.4,40.8,25.2,63.8l0.3,0.9l-0.9,0.8c-9.8,9-21.4,16.8-34.7,23.1c-25.3,12.1-46.6,14.7-59.9,14.7
			C116.5,247.4,116.4,247.4,116.3,247.4z M94.8,241.3c1.9,0.6,9.8,2.7,22,2.6c13-0.1,33.6-2.6,58.2-14.4c12.6-6,23.8-13.4,33.2-21.9
			c-3.8-21.9-11.9-42.3-24-60.9c-12.6,0.2-25.8,2.4-39.2,6.7c-46.9,14.9-64.5,42.7-66.6,46.2c0.2,7.6,1.8,15.1,4.6,22.3
			C85.7,229,89.7,235.6,94.8,241.3z"/>
	</g>
	<g>
		<path fill="#1F1F23" d="M84.8,245.9c-3.5,0-6.7-1.6-8.9-4.4c-6.4-8.4-10.4-18.5-11.5-29c-0.4-4.1,1.4-8.1,4.8-10.4l6.3-4.3
			c0.8-0.5,1.9-0.3,2.4,0.5s0.3,1.9-0.5,2.4l-6.3,4.3c-2.3,1.6-3.6,4.3-3.3,7.1c1,9.9,4.8,19.3,10.8,27.3c1.7,2.2,4.5,3.4,7.2,2.9
			l7.5-1.2c1-0.1,1.9,0.5,2,1.5s-0.5,1.9-1.5,2l-7.5,1.2C85.9,245.8,85.4,245.9,84.8,245.9z"/>
	</g>
	<g opacity="0.35">
		<circle fill="#361B45" cx="168.2" cy="191" r="24.2"/>
	</g>
	<g>
		<circle fill="#EDDF5E" cx="168.8" cy="188" r="21.8"/>
	</g>
	<g opacity="0.6">
		<g>
			<path fill="#FFFFFF" d="M190.2,184.5c-0.1-0.5-0.3-0.9-0.5-1.4c-4.4-11.2-17.1-16.7-28.2-12.2c-9.9,3.9-15.3,14.2-13.4,24.2
				c-3.5-10.8,2-22.6,12.7-26.9c11.2-4.4,23.8,1.1,28.2,12.3C189.5,181.8,189.9,183.2,190.2,184.5z"/>
		</g>
	</g>
	<g opacity="0.35">
		<path fill="#361B45" d="M176.8,208.2c-11.2,4.4-23.8-1.1-28.2-12.2c-1.4-3.5-1.8-7.2-1.4-10.7c0.2,1.6,0.7,3.2,1.3,4.7
			c4.4,11.2,17.1,16.7,28.2,12.2c7.7-3,12.7-9.9,13.6-17.6C191.8,194.5,186.4,204.4,176.8,208.2z"/>
	</g>
	<g>
		<path fill="#1F1F23" d="M168.8,211.5c-3.2,0-6.4-0.7-9.4-2c-5.8-2.5-10.2-7.1-12.5-12.9c-2.3-5.8-2.2-12.2,0.3-18
			s7.1-10.2,12.9-12.5c5.8-2.3,12.2-2.2,18,0.3s10.2,7.1,12.5,12.9c2.3,5.8,2.2,12.2-0.3,18s-7.1,10.2-12.9,12.5l0,0
			C174.6,211,171.7,211.5,168.8,211.5z M168.8,168c-2.5,0-5,0.5-7.4,1.4c-5,2-8.9,5.7-11,10.6c-2.1,4.9-2.2,10.3-0.3,15.3
			c2,5,5.7,8.9,10.6,11c4.9,2.1,10.3,2.2,15.3,0.3l0,0c5-2,8.9-5.7,11-10.6c2.1-4.9,2.2-10.3,0.3-15.3c-2-5-5.7-8.9-10.6-11
			C174.2,168.5,171.5,168,168.8,168z"/>
	</g>
	<g opacity="0.3">
		<g>
			<path fill="#FFFFFF" d="M174,200.6c-7.1,2.8-15.2-0.7-18-7.8c-0.6-1.5-0.9-3.1-1-4.7c0.1,0.1,0.1,0.3,0.2,0.4
				c2.8,7.1,10.9,10.6,18,7.8c5.6-2.2,8.9-7.6,8.8-13.3C184.5,190,181,197.8,174,200.6z"/>
		</g>
	</g>
	<g opacity="0.35">
		<path fill="#361B45" d="M182.9,188.4c-0.1-0.2-0.2-0.4-0.2-0.7c-2.8-7.1-10.9-10.6-18-7.8c-5.4,2.1-8.7,7.2-8.8,12.6
			c-2.3-6.9,1.2-14.6,8-17.3c7.1-2.8,15.2,0.7,18,7.8C182.6,184.8,182.9,186.6,182.9,188.4z"/>
	</g>
	<g>
		<path fill="#1F1F23" d="M168.9,203.3c-2.1,0-4.2-0.4-6.2-1.3c-3.8-1.7-6.8-4.7-8.3-8.6c-3.2-8,0.8-17.1,8.8-20.3
			s17.1,0.8,20.3,8.8s-0.8,17.1-8.8,20.3C172.8,202.9,170.8,203.3,168.9,203.3z M168.9,175.6c-1.5,0-3,0.3-4.4,0.8
			c-6.2,2.4-9.3,9.5-6.8,15.7c1.2,3,3.5,5.4,6.4,6.6c3,1.3,6.2,1.3,9.3,0.2l0,0c6.2-2.4,9.3-9.5,6.8-15.7
			C178.3,178.5,173.7,175.6,168.9,175.6z"/>
	</g>
	<g opacity="0.2">
		<path fill="#FFFFFF" d="M214.1,158c-0.1-3.3-7-5.9-10.9-5.9c-4,0-6.4,0.7-6.5,2.7c0,2.7,3.1,3.7,6.8,3.8
			C206.3,158.7,214.2,162.1,214.1,158z"/>
	</g>
	<g opacity="0.2">
		<path fill="#FFFFFF" d="M224.2,162.2c-0.2-2.9-3.7-5.5-5.6-5.8c-2-0.2-3.1,0.2-3,1.9c0.1,2.4,1.7,3.4,3.5,3.7
			C220.4,162.3,224.5,165.7,224.2,162.2z"/>
	</g>
	<g>
		<g opacity="0.35">
			<path fill="#1F1F23" d="M92.8,239.6c0,0,33.5,11.4,82-11.7c49.2-23.5,61-59.5,63.3-68.8c0.2,0.2,0.4,0.3,0.6,0.4
				c-0.7-0.5-1.9-1.3-3.5-2.2c-6.7,15.2-22.6,39.6-59.2,57.1c-22.9,10.9-42.4,14.1-56.7,14.5c-18.2,0.5-34.6-11.2-39.8-28.7
				c0-0.1-0.1-0.2-0.1-0.3c-0.2-0.7-0.4-1.4-0.6-2.1c-0.1-0.3-0.2-0.6-0.3-0.9c0-0.1-0.1-0.2-0.1-0.3s-0.1-0.2-0.1-0.3
				c0,0,0-0.1,0.1-0.1l0,0c-1.3,1.9-1.9,3.1-1.9,3.1c0.1,5.2,0.8,10.4,2.1,15.4C81.5,223.8,86.3,232.3,92.8,239.6z"/>
		</g>
	</g>
	<g>
		<path fill="#EDDF5E" d="M90.5,227.6c-10,3.9-22.9-0.1-22.9-0.1s0,0,0.1-0.1c0.8-1.3,7.2-11.9,16.6-15.6c9-3.6,18.8,0.1,20.5,0.8
			c0.2,0.1,0.3,0.1,0.3,0.1S100.4,223.7,90.5,227.6z"/>
	</g>
	<g opacity="0.6">
		<g>
			<path fill="#FFFFFF" d="M105.5,213.2c0,0-0.3,0.7-0.9,1.7c-3.3-1.2-11.6-3.4-19.3-0.3c-7.5,3-13.2,10.4-15.5,13.9
				c-1.2-0.3-1.8-0.5-1.8-0.5s0,0,0.1-0.1c0.8-1.3,7.2-11.9,16.6-15.6c9-3.6,18.8,0.1,20.5,0.8C105.4,213.2,105.5,213.2,105.5,213.2
				z"/>
		</g>
	</g>
	<g opacity="0.35">
		<path fill="#361B45" d="M90.5,227.6c-10,3.9-22.9-0.1-22.9-0.1s0,0,0.1-0.1l37.1-14.8c0.2,0.1,0.3,0.1,0.3,0.1
			S100.4,223.7,90.5,227.6z"/>
	</g>
	<g>
		<path fill="#1F1F23" d="M80.2,231.1c-6.9,0-12.8-1.8-13.2-1.9l-2.1-0.6l1.1-1.9c0.3-0.5,7.1-12.4,17.6-16.5s21.7,0.7,22.2,0.9
			l1.6,0.7l-0.7,1.6c-0.2,0.5-5.1,11.7-15.5,15.8C87.6,230.7,83.7,231.1,80.2,231.1z M70.3,226.5c4,0.9,12.6,2.3,19.5-0.5
			c6.9-2.7,11.1-9.2,12.8-12.3c-3.3-1.1-10.8-3-17.7-0.3C78,216.2,72.6,223,70.3,226.5z M67.5,227.6L67.5,227.6L67.5,227.6z"/>
	</g>
	<g opacity="0.25">
		<path fill="#361B45" d="M140.1,191.7c1.4,2,11,18.1,3.3,24.6c-6.7,5.6-19.2,4.7-25.8-4.1c-4.3-5.8-5.2-12.6-5-17.7
			c0.3-6,1.4-11.8-1.6-16.3c-1.6-2.4-4.2-4.6-7.3-6.9c0.7-0.5,1.4-1,2.1-1.5c7.9-5.3,17.6-10.5,29.4-15c2.3,1.1,4.5,2.5,6.4,4.4
			c7.3,7.2,7.5,21.8,2.5,27.7C142.2,189.1,140.1,191.7,140.1,191.7z"/>
	</g>
	<g>
		<path fill="#FFFFFF" d="M144.5,187.3c1.4,2,11,18.1,3.3,24.6c-6.7,5.6-19.2,4.7-25.8-4.1c-4.3-5.8-5.2-12.6-5-17.7
			c0.3-6,1.4-11.8-1.6-16.3c-3.4-5.1-16.8-7.1-23.4-14.7c-3.9-4.5-6-12.6-5.6-22.6c0.1-3,0.4-6.2,1-9.5c2.5-14.1,9.4-30.3,22-44.6
			c0,0,5,20.2,10.3,38.1c3.7,12.5,7.5,23.9,9.8,26.6c0.3,0.4,0.6,0.6,0.8,0.6c3,0.4,6,1.3,8.7,2.5c2.5,1.1,4.9,2.6,6.9,4.6
			c7.3,7.2,7.5,21.8,2.5,27.7C146.6,184.7,144.5,187.3,144.5,187.3z"/>
	</g>
	<g opacity="0.25">
		<path fill="#1F1F23" d="M150.2,208.2c-0.5,1.4-1.2,2.7-2.5,3.7c-6.7,5.6-19.2,4.7-25.8-4.1c-4.3-5.8-5.2-12.6-5-17.7
			c0.3-6,1.4-11.8-1.6-16.3c-3.4-5.1-16.8-7.1-23.4-14.7c-3.9-4.5-6-12.6-5.6-22.6v-0.1c0-0.3,0-0.7,0-1s0-0.6,0.1-0.9
			c0-0.1,0-0.3,0-0.4c0.1-0.7,0.1-1.5,0.2-2.3c0-0.4,0.1-0.7,0.1-1.1c0-0.3,0.1-0.5,0.1-0.8c0-0.2,0.1-0.4,0.1-0.6
			c0-0.3,0.1-0.7,0.2-1c0.1-0.4,0.1-0.8,0.2-1.2c0,0,0,0,0-0.1c0.4-0.4,0.7-0.7,0.7-0.7s1.3,0.6,4.2,1.3c4.5,1.2,12.8,2.7,25.7,2.7
			l-0.2-6.7c0-1.4,0.8-2.7,2.1-3.2c0.3-0.1,0.6-0.2,1-0.2l8-0.9l11.5,28l-10.7-0.3l-8.1-0.2c-1.7-0.1-3.1-1.5-3.2-3.3l-0.1-3.3
			c-7.1,1.6-18.7,2-26.3-0.5c0.6,7,2.5,12.6,5.5,16c6.6,7.6,16.6,3.5,23.3,11.4c4.2,4.9,2,13.5,1.7,19.6c-0.2,5.2-2.2,12.7,2.1,18.6
			C130.2,212.9,142.6,212.2,150.2,208.2z"/>
	</g>
	<g opacity="0.25">
		<path fill="#361B45" d="M172.3,82.3c-4.3,5.9-10,10.8-16.6,14.2c-3.2,1.6-6.5,2.9-10.1,3.7c-3.6,0.9-7.4,1.3-11.4,1.3
			c-7,0-13.5-1.6-19.4-4.4s-12.9-0.1-15.6,5.8c-3.9,8.5-6.1,17-7,24.6c-2.8-0.7-4.2-1.3-4.2-1.3s-0.3,0.2-0.7,0.7
			c2.5-14.1,9.4-30.3,22-44.6l0.1,1.4c1.7-2.3,2.8-3.6,2.8-3.6l42.1,2.1c0,0,0.2,2.2,0.5,5.9C160.1,86.7,166.4,84.8,172.3,82.3z"/>
	</g>
	<g>
		<path fill="#1F1F23" d="M131.1,147.1c2.3,0,4.6,0.3,6.8,1s4.4,1.6,6.4,2.9c1,0.7,1.9,1.4,2.8,2.2c0.9,0.8,1.7,1.8,2.4,2.8
			c1.4,2,2.4,4.2,3.1,6.5c0.7,2.3,1,4.6,1.1,7s-0.1,4.7-0.6,7s-1.4,4.7-3,6.7l-4.2,5.1l0.1-2.1c0.4,0.5,0.6,1,0.9,1.5
			c0.3,0.5,0.5,1,0.8,1.4c0.5,1,1,1.9,1.5,2.9c0.9,2,1.7,4,2.3,6.2c0.6,2.1,1,4.4,1,6.8c0,1.2-0.2,2.4-0.6,3.6
			c-0.4,1.2-1,2.4-1.8,3.4l-0.3,0.4c-0.1,0.1-0.2,0.2-0.3,0.3c-0.2,0.2-0.5,0.5-0.7,0.6c-0.5,0.3-0.9,0.7-1.5,1
			c-0.5,0.3-1,0.6-1.5,0.9L144,216c-2.2,0.8-4.5,1.2-6.8,1.2s-4.6-0.4-6.8-1.2c-2.2-0.7-4.2-1.9-6-3.3c-0.5-0.4-0.9-0.7-1.3-1.1
			c-0.4-0.4-0.8-0.8-1.2-1.2l-1.1-1.3c-0.4-0.4-0.7-0.9-1-1.4c-1.2-1.9-2.2-4-3-6.1c-0.7-2.1-1.2-4.3-1.4-6.6
			c-0.1-1.1-0.2-2.2-0.2-3.3c0-0.6,0-1.1,0-1.7l0.1-1.6c0.1-2.1,0.3-4.2,0.3-6.2s-0.2-3.9-0.8-5.6c-0.1-0.2-0.2-0.4-0.3-0.6
			c-0.1-0.2-0.2-0.4-0.3-0.6l-0.3-0.6c-0.1-0.2-0.2-0.3-0.3-0.5c-0.5-0.6-1.2-1.2-2-1.7c-1.6-1-3.5-1.9-5.4-2.8
			c-3.8-1.7-7.8-3.4-11.5-6c-1.8-1.3-3.6-2.8-4.9-4.8c-1.4-1.9-2.3-4-3.1-6.1c-0.7-2.1-1.2-4.3-1.5-6.5s-0.5-4.4-0.5-6.5
			c-0.1-4.4,0.3-8.7,1-13c1.5-8.5,4.3-16.8,8.1-24.5c1.9-3.8,3.9-7.7,6.4-11.2s5.3-6.8,8.9-9.4c0.3-0.2,0.6-0.1,0.8,0.1
			c0.1,0.2,0.1,0.4,0,0.6l0,0c-2,3.8-4.4,7.2-6.6,10.7c-2.3,3.5-4.5,6.9-6.4,10.7c-3.7,7.4-6.4,15.3-7.8,23.5c-0.7,4.1-1,8.2-1,12.3
			c0,2,0.2,4.1,0.5,6.1s0.8,4,1.4,5.8c0.6,1.9,1.5,3.7,2.6,5.2s2.5,2.8,4.1,4c3.2,2.3,7,4,10.9,5.7c1.9,0.9,3.9,1.8,5.9,3
			c1,0.6,1.9,1.4,2.8,2.4c0.2,0.2,0.4,0.5,0.6,0.8l0.5,0.8c0.2,0.3,0.3,0.5,0.4,0.8s0.3,0.6,0.4,0.8c0.4,1.1,0.7,2.3,0.9,3.5
			c0.2,1.2,0.2,2.3,0.2,3.4c0,2.2-0.2,4.4-0.3,6.4l-0.1,1.6c0,0.5,0,1,0,1.5c0,1,0,2,0.2,3c0.2,2,0.6,3.9,1.2,5.8
			c1.3,3.7,3.4,7.2,6.4,9.5c1.5,1.2,3.2,2.1,5,2.8c1.8,0.6,3.7,0.9,5.7,1c1.9,0,3.8-0.3,5.6-0.9l1.3-0.6c0.4-0.2,0.8-0.5,1.2-0.7
			s0.7-0.5,1.1-0.8c0.2-0.1,0.3-0.3,0.5-0.4c0.1-0.1,0.2-0.1,0.2-0.2l0.2-0.2c1.1-1.2,1.6-2.9,1.6-4.8c0-1.9-0.3-3.8-0.9-5.7
			c-0.6-1.9-1.3-3.8-2.2-5.7c-0.4-0.9-0.9-1.8-1.4-2.7c-0.2-0.4-0.5-0.9-0.7-1.3c-0.3-0.4-0.5-0.9-0.8-1.2l-0.8-1.1l0.8-1l4.2-5.1
			c1.1-1.4,1.9-3.3,2.3-5.3c0.9-4,0.6-8.3-0.6-12.2c-0.6-1.9-1.5-3.8-2.6-5.4c-0.6-0.8-1.2-1.6-1.9-2.3s-1.5-1.4-2.3-2
			c-1.6-1.2-3.4-2.3-5.3-3.2c-1.9-0.9-3.9-1.7-6-2.5l0,0c-0.3-0.1-0.5-0.5-0.4-0.8C130.7,147.3,130.9,147.1,131.1,147.1z"/>
	</g>
	<g>
		<path fill="#1F1F23" d="M117.2,179.8c-0.7,0-1.2-0.5-1.3-1.1c-2.1-15.2,6.9-22.4,10.9-24.8c6.6-3.9,14.5-4.3,19.2-0.9
			c0.6,0.4,0.7,1.2,0.3,1.8s-1.2,0.7-1.8,0.3c-3.9-2.8-10.7-2.4-16.4,1c-3.5,2.1-11.5,8.5-9.6,22.1c0.1,0.7-0.4,1.4-1.1,1.5
			C117.3,179.8,117.2,179.8,117.2,179.8z"/>
	</g>
	<g>
		<path fill="#1F1F23" d="M146.9,187.1c-0.2,0.2-0.3,0.3-0.5,0.4c-0.1,0.1-0.3,0.2-0.4,0.4c-0.3,0.2-0.6,0.4-0.9,0.6
			c-0.6,0.4-1.3,0.8-2,1.1c-1.4,0.6-2.8,1.1-4.4,1.2c-1.5,0.2-3.1,0.1-4.5-0.4s-2.7-1.3-3.6-2.5c1.4,0.3,2.7,0.4,4,0.4
			c0.6,0,1.2-0.1,1.8-0.2c0.6-0.1,1.2-0.2,1.8-0.4c1.2-0.3,2.3-0.8,3.4-1.4c0.5-0.3,1.1-0.6,1.6-0.9l0.8-0.5l0.7-0.5l0.1-0.1
			c0.8-0.5,1.9-0.3,2.4,0.5C147.6,185.6,147.5,186.5,146.9,187.1z"/>
	</g>
	<g>
		<path fill="#FFFFFF" d="M180.6,61.4L180.6,61.4c-0.5,0-1-0.4-1-0.9l-1.7-27.3c0-0.5,0.4-1,0.9-1l0,0c5.5-0.4,10.2,3.8,10.6,9.3
			l0.6,9.3C190.2,56.3,186.1,61,180.6,61.4z"/>
		<path fill="#361B45" d="M180.5,61.6c-0.6,0-1.1-0.5-1.1-1.1l-1.7-27.3c0-0.6,0.4-1.2,1.1-1.2c5.6-0.4,10.4,3.9,10.8,9.5l0.6,9.3
			c0.2,2.7-0.7,5.3-2.5,7.3C185.8,60.2,183.3,61.4,180.5,61.6L180.5,61.6C180.6,61.6,180.5,61.6,180.5,61.6z M180.6,61.4L180.6,61.4
			L180.6,61.4z M179.3,32.4c-0.2,0-0.4,0-0.6,0c-0.2,0-0.4,0.1-0.5,0.3S178,33,178,33.3l1.7,27.3c0,0.4,0.4,0.7,0.8,0.7
			c2.6-0.2,5-1.3,6.7-3.3s2.6-4.5,2.4-7.1l-0.6-9.3c-0.2-2.6-1.3-5-3.3-6.7C184,33.2,181.7,32.4,179.3,32.4z"/>
	</g>
	<g opacity="0.35">
		<path fill="#361B45" d="M189.6,46.5l0.3,4.4c0.4,5.5-3.8,10.2-9.3,10.6c-0.5,0-1-0.4-1-0.9l-0.5-7.3c0.2,0.3,0.5,0.5,0.9,0.5h0.6
			C185,53.4,188.5,50.4,189.6,46.5z"/>
	</g>
	<g>
		<path fill="#1F1F23" d="M180.5,63.1c-1.4,0-2.6-1.1-2.7-2.5l-1.7-27.3c-0.1-1.5,1-2.8,2.5-2.9c3.1-0.2,6.1,0.8,8.5,2.9
			s3.8,4.9,4,8l0.6,9.3c0.2,3.1-0.8,6.1-2.9,8.5c-2.1,2.4-4.9,3.8-8.1,4l0,0C180.6,63.1,180.6,63.1,180.5,63.1z M180.6,61.4
			L180.6,61.4L180.6,61.4z M179.6,34l1.6,25.6c4.1-0.7,7.1-4.4,6.9-8.6l-0.6-9.3c-0.1-2.2-1.1-4.2-2.8-5.6
			C183.3,34.7,181.5,34,179.6,34z"/>
	</g>
	<g>
		<path fill="#FFFFFF" d="M88.6,38L88.6,38c0.5,0,1,0.4,1,0.9l1.7,27.3c0,0.5-0.4,1-0.9,1l0,0c-5.5,0.4-10.2-3.8-10.6-9.3l-0.6-9.3
			C79,43,83.1,38.3,88.6,38z"/>
		<path fill="#361B45" d="M89.8,67.4c-2.5,0-4.8-0.9-6.7-2.5c-2-1.8-3.3-4.3-3.4-7l-0.6-9.3c-0.2-2.7,0.7-5.3,2.5-7.3s4.3-3.3,7-3.4
			l0,0c0.6,0,1.2,0.4,1.2,1.1l1.7,27.3c0,0.3-0.1,0.6-0.3,0.8c-0.2,0.2-0.5,0.4-0.8,0.4C90.3,67.3,90.1,67.4,89.8,67.4z M88.6,38.2
			c-2.6,0.2-5,1.3-6.7,3.3s-2.6,4.5-2.4,7.1l0.6,9.3c0.2,2.6,1.3,5,3.3,6.7c2,1.7,4.5,2.6,7.1,2.4c0.2,0,0.4-0.1,0.5-0.3
			c0.1-0.2,0.2-0.3,0.2-0.6l-1.7-27.3C89.4,38.4,89.1,38.1,88.6,38.2L88.6,38.2z"/>
	</g>
	<g opacity="0.35">
		<path fill="#361B45" d="M90.9,58.6l0.5,7.6c0,0.5-0.4,1-0.9,1c-2.9,0.2-5.6-0.9-7.5-2.7c-1.8-1.7-2.9-4-3.1-6.6L79.6,54
			c1.8,3.3,5.4,5.5,9.4,5.3l1-0.1C90.5,59.1,90.8,58.9,90.9,58.6z"/>
	</g>
	<g>
		<path fill="#181932" d="M89.9,68.9c-6.1,0-11.3-4.8-11.7-11l-0.6-9.3c-0.2-3.1,0.8-6.1,2.9-8.5s4.9-3.8,8.1-4l0,0
			c1.5-0.1,2.8,1,2.9,2.5L93.1,66c0,0.7-0.2,1.4-0.7,2c-0.5,0.5-1.1,0.9-1.9,0.9C90.4,68.9,90.1,68.9,89.9,68.9z M87.9,39.8
			c-4.1,0.7-7.1,4.4-6.9,8.6l0.6,9.3c0.1,2.2,1.1,4.2,2.8,5.6c1.4,1.3,3.2,2,5.1,2L87.9,39.8z"/>
	</g>
	<g>
		<circle fill="#FFFFFF" cx="134.6" cy="49.7" r="46.6"/>
		<path fill="#361B45" d="M134.6,96.5c-0.1,0-0.2,0-0.3,0c-25.8-0.2-46.6-21.3-46.4-47.1C88,23.7,109,2.9,134.6,2.9
			c0.1,0,0.2,0,0.3,0c12.5,0.1,24.2,5,33,13.9s13.6,20.7,13.5,33.2C181.2,75.7,160.2,96.5,134.6,96.5z M134.6,3.3
			c-12.3,0-23.8,4.7-32.6,13.4S88.3,37,88.2,49.4c-0.1,12.4,4.7,24.1,13.4,32.9s20.3,13.7,32.7,13.8c12.4,0.1,24.1-4.7,32.9-13.4
			C176,74,180.9,62.4,181,50s-4.7-24.1-13.4-32.9S147.3,3.4,134.9,3.3C134.8,3.3,134.7,3.3,134.6,3.3z"/>
	</g>
	<g opacity="0.35">
		<path fill="#361B45" d="M180.8,43.6c0.3,2.1,0.4,4.3,0.4,6.5C181,75.7,160,96.4,134.3,96.3c-25.8-0.2-46.5-21.2-46.3-47
			c0-0.7,0-1.5,0.1-2.2c3,22.7,22.3,40.3,45.9,40.5C158.9,87.8,179.5,68.3,180.8,43.6z"/>
	</g>
	<g>
		<path fill="#1F1F23" d="M134.6,98c-0.1,0-0.2,0-0.4,0c-12.9-0.1-25-5.2-34.1-14.4s-14-21.4-13.9-34.3s5.2-25,14.4-34.1
			s21.4-14,34.3-13.9c12.9,0.1,25,5.2,34.1,14.4c9.1,9.2,14,21.4,13.9,34.3s-5.2,25-14.4,34.1C159.4,93.1,147.4,98,134.6,98z
			 M134.6,4.8c-11.9,0-23,4.6-31.5,12.9c-8.5,8.4-13.3,19.6-13.4,31.6s4.5,23.3,12.9,31.8s19.6,13.3,31.6,13.4S157.5,90,166,81.6
			S179.3,62,179.4,50c0.1-12-4.5-23.3-12.9-31.8S146.9,4.9,134.9,4.8C134.8,4.8,134.7,4.8,134.6,4.8z"/>
	</g>
	<g>
		<path fill="#1F1F23" d="M181,51.2c0.1,9.1-2.8,17.6-7.8,24.6c-3.8,5.3-19.3,14.6-38.5,14.9c-17.9,0.3-34.2-9.1-38-14.3
			c-5.1-7-8.1-15.4-8.2-24.5c-0.2-24.1,20.5-34.3,46-34.5S180.8,27.1,181,51.2z"/>
	</g>
	<g>
		<path fill="#1F1F23" d="M133.8,91.8c-18.1,0-34.1-9.4-38-14.7C90.4,69.7,87.5,61,87.4,52c-0.1-11.8,4.6-20.9,13.8-27.1
			c8.1-5.4,19.6-8.3,33.3-8.5c13.7-0.1,25.2,2.6,33.4,7.9c9.4,6.1,14.2,15.1,14.2,26.9l0,0c0.1,9-2.7,17.8-8,25.3
			c-3.7,5.2-19,15-39.4,15.4C134.4,91.8,134.1,91.8,133.8,91.8z M135.2,18.5c-0.2,0-0.5,0-0.7,0c-13.6,0.1-45.2,3.6-45,33.4
			c0.1,8.6,2.8,16.9,8,23.9c3.6,4.9,19.2,13.9,36.3,13.9c0.3,0,0.6,0,0.8,0C154,89.4,169,80,172.4,75.2c5.1-7.1,7.7-15.4,7.6-24l0,0
			C179.8,21.9,149.1,18.5,135.2,18.5z"/>
	</g>
	<g opacity="0.7">
		
			<ellipse transform="matrix(0.9854 0.1705 -0.1705 0.9854 10.6271 -27.5826)" fill="#FFFFFF" cx="165.911" cy="48.084" rx="6" ry="8.2"/>
	</g>
	<g opacity="0.7">
		
			<ellipse transform="matrix(0.9524 0.305 -0.305 0.9524 27.2232 -45.3383)" fill="#FFFFFF" cx="158.727" cy="64.465" rx="3.2" ry="3.8"/>
	</g>
	<g opacity="0.35">
		<path fill="#1F1F23" d="M171.9,28.8c5.7,5.4,9.1,12.7,9.2,22.4c0.1,9.1-2.8,17.6-7.8,24.7c-3.8,5.3-19.3,14.6-38.5,14.9
			c-6.8,0.1-13.4-1.2-19.1-3.1c23.7-0.9,42.6-12.3,47.2-18.9c6.4-8.9,10-19.7,9.9-31.3C172.7,34.4,172.4,31.5,171.9,28.8z"/>
	</g>
	<g>
		<path fill="#1F1F23" d="M93.1,32.4l-2.8-2.2l1.3,1l-1.4-0.9c8.2-12.2,24.2-19.4,43.9-19.5c19.6-0.1,35.6,6.5,44.1,18.2
			c0.5,0.6,0.5,1.6-0.1,2.2c-0.6,0.7-1.7,0.8-2.5,0.2c-0.1-0.1-0.2-0.2-0.3-0.3c-7.8-10.8-22.9-16.9-41.3-16.7
			c-18.5,0.1-33.4,6.7-41,18C93.2,32.3,93.2,32.4,93.1,32.4z M91.8,31.3L91.8,31.3L91.8,31.3z"/>
	</g>
	<g opacity="0.7">
		<path fill="#FFFFFF" d="M98.9,66.2c0,0-7.7-23.7,5.1-33.3s31.2-9.7,30.8-8.5c0,0-20.4,5.1-28.3,21.3
			C100.5,58.2,98.9,66.2,98.9,66.2z"/>
	</g>
	<g>
		<path fill="#FFFFFF" d="M164,118l1.3,9.7l1,7.6c0.3,2.1-1.1,4-3.1,4.4c-1.3,0.3-2.9,0.6-4.8,0.9c-6.7,1.1-16.5,2.4-26.3,2.3
			c-2.1,0-3.8-1.7-3.9-3.9l-0.5-20.1c-0.1-2.3,1.8-4.1,4.1-4.1c6.8,0.2,20.5,0.4,28.1-0.3C161.8,114.3,163.7,115.9,164,118z"/>
	</g>
	<g>
		<path fill="#FFFFFF" d="M131.4,114.8l-8,0.9c-1.8,0.2-3.1,1.7-3,3.5l0.6,19.9c0.1,1.7,1.4,3.1,3.2,3.3l7.4,0.5"/>
	</g>
	<g opacity="0.25">
		<path fill="#361B45" d="M131.4,114.8l-8,0.9c-1.8,0.2-3.1,1.7-3,3.5l0.6,19.9c0.1,1.7,1.4,3.1,3.2,3.3l7.4,0.5"/>
	</g>
	<g>
		<path fill="#181932" d="M133.6,144.4c-0.5,0-1.1,0-1.6,0c-3,0-5.3-2.4-5.4-5.4l-0.5-20.1c0-1.5,0.5-3,1.6-4c1.1-1.1,2.5-1.6,4-1.6
			c7.2,0.2,20.5,0.4,27.9-0.3c3-0.3,5.6,1.8,6,4.8l2.2,17.3c0.4,2.9-1.5,5.5-4.4,6.1C157.4,142.4,145.7,144.4,133.6,144.4z
			 M131.6,116.4c-0.6,0-1.2,0.2-1.7,0.7s-0.7,1.1-0.7,1.8l0.5,20.1c0,1.3,1.1,2.3,2.4,2.3c12.3,0.2,24.6-1.9,30.8-3.2
			c1.2-0.2,2.1-1.4,1.9-2.7l-2.2-17.3c-0.2-1.3-1.3-2.2-2.6-2.1C152.3,116.8,138.9,116.6,131.6,116.4L131.6,116.4L131.6,116.4z"/>
	</g>
	<g>
		<path fill="#1F1F23" d="M131.5,144.3C131.5,144.3,131.4,144.3,131.5,144.3l-7.5-0.5c-2.6-0.2-4.5-2.2-4.6-4.8l-0.6-19.9
			c-0.1-2.6,1.9-4.8,4.4-5l8-0.9c0.9-0.1,1.6,0.5,1.7,1.4c0.1,0.9-0.5,1.6-1.4,1.7l-8,0.9c-0.9,0.1-1.6,0.9-1.6,1.9l0.6,19.9
			c0,0.9,0.8,1.7,1.7,1.8l7.4,0.5c0.9,0.1,1.5,0.8,1.5,1.6C133,143.7,132.3,144.3,131.5,144.3z"/>
	</g>
	<g>
		<path fill="#361B45" d="M148.3,143.7c-0.8,0-1.5-0.6-1.5-1.5l-0.6-10.2l-5.2-3.5c-0.4-0.3-0.6-0.7-0.7-1.2l-0.8-12.3
			c-0.1-0.9,0.6-1.6,1.4-1.7c0.9-0.1,1.6,0.6,1.7,1.4l0.8,11.5l5.2,3.5c0.4,0.3,0.7,0.7,0.7,1.2l0.6,10.9
			C150,142.9,149.3,143.6,148.3,143.7C148.4,143.7,148.4,143.7,148.3,143.7z"/>
	</g>
	<g>
		<path fill="#3DA2DB" d="M162.8,127.3c0.1,0.6-0.3,5.7-0.3,5.7s-1.6,0.2-3.5,0.4c-2.4,0.3-4.6-2-5-5.1c-0.3-3.1,1.4-5.8,3.8-6
			c1.6-0.2,3.5-0.4,3.5-0.4S162.7,126.2,162.8,127.3z"/>
	</g>
	<g>
		<path fill="#FFFFFF" d="M162.8,127.3c0.1,0.6-0.3,5.7-0.3,5.7s0,0-0.1,0c0.1-1.5,0.2-3.2,0.1-3.5c-0.1-1-1.4-5.5-1.4-5.5
			s-1.9,0.2-3.5,0.4c-1.7,0.2-3,1.6-3.6,3.4c-0.1-2.9,1.5-5.3,3.8-5.6c1.6-0.2,3.5-0.4,3.5-0.4S162.7,126.2,162.8,127.3z"/>
	</g>
	<g>
		<path fill="#1F1F23" d="M158.7,134.6c-2.9,0-5.5-2.7-5.9-6.3c-0.4-3.8,1.8-7.2,5-7.5l2.5-0.3c1.3-0.1,2.4,0.7,2.8,1.9
			c1.1,3.8,1.2,4.5,1.2,4.7l0,0c0,0.2,0.1,0.6-0.2,4.8c-0.1,1.3-1.1,2.3-2.3,2.4l-2.4,0.3C159,134.6,158.9,134.6,158.7,134.6z
			 M160.4,123.2l-2.4,0.3c-1.7,0.2-2.9,2.3-2.6,4.6c0.2,2.3,1.9,4.1,3.5,4l2.4-0.3c0.2-2.8,0.2-4.1,0.2-4.4
			C161.5,127,161.2,125.8,160.4,123.2z"/>
	</g>
	<g>
		
			<ellipse transform="matrix(-0.9946 0.1035 -0.1035 -0.9946 336.2895 237.1308)" fill="#90C154" cx="161.992" cy="127.291" rx="4.4" ry="5.6"/>
	</g>
	<g>
		<path fill="#FFFFFF" d="M166.4,126.9c0,0.4,0,0.7,0,1.1c-0.7-2.5-2.6-4.3-4.8-4c-2.1,0.2-3.7,2.3-3.8,4.9
			c-0.1-0.4-0.2-0.7-0.2-1.1c-0.3-3.1,1.4-5.8,3.8-6C163.8,121.5,166,123.8,166.4,126.9z"/>
	</g>
	<g>
		<path fill="#1F1F23" d="M162.2,134.3c-1.4,0-2.8-0.6-3.8-1.7c-1.1-1.2-1.9-2.8-2.1-4.6c-0.2-1.8,0.2-3.5,1.1-4.9
			c0.9-1.5,2.3-2.4,3.9-2.6c1.6-0.2,3.1,0.4,4.4,1.7c1.1,1.2,1.9,2.8,2.1,4.6l0,0c0.2,1.8-0.2,3.5-1.1,4.9c-0.9,1.5-2.3,2.4-3.9,2.6
			C162.5,134.3,162.4,134.3,162.2,134.3z M161.8,123.1c-0.1,0-0.1,0-0.2,0c-0.8,0.1-1.4,0.6-1.9,1.3c-0.6,0.9-0.8,2-0.7,3.2
			c0.1,1.2,0.6,2.3,1.3,3c0.6,0.7,1.4,1,2.2,0.9s1.4-0.6,1.9-1.3c0.6-0.9,0.8-2,0.7-3.2l0,0c-0.1-1.2-0.6-2.3-1.3-3
			C163.1,123.4,162.4,123.1,161.8,123.1z"/>
	</g>
	<g>
		<path fill="#FFFFFF" d="M88,121.9c0,0,10.5,4.8,35.5,3.9c0,0,4.6,4.4,0,8c-4.6,3.6-30.3,5.7-37.2-1.7
			C81.9,127.3,88,121.9,88,121.9z"/>
	</g>
	<g opacity="0.25">
		<path fill="#361B45" d="M123.5,133.8c-4.6,3.6-30.3,5.7-37.2-1.7c-2.1-2.2-1.8-4.6-0.9-6.6c0.2,0.4,0.5,0.8,0.9,1.2
			c6.9,7.4,32.7,5.3,37.2,1.7c0.5-0.4,0.9-0.8,1.2-1.2C125.6,128.8,126.4,131.5,123.5,133.8z"/>
	</g>
	<g>
		<path fill="#1F1F23" d="M105.4,138.6c-5.8,0-15.8-0.7-20.2-5.5c-1.4-1.5-2.1-3.2-2-5.1c0.2-3.9,3.7-7.1,3.8-7.3l0.8-0.7l0.9,0.4
			c0.2,0.1,10.7,4.6,34.8,3.8h0.7l0.5,0.5c0.3,0.3,2.7,2.6,2.5,5.7c-0.1,1.2-0.6,3-2.6,4.6c-3.1,2.4-11.8,3.6-18.7,3.6
			C105.6,138.6,105.5,138.6,105.4,138.6z M88.4,123.7c-0.8,0.9-2.1,2.6-2.1,4.4c0,1,0.3,2,1.2,2.9c6.3,6.8,31.3,4.6,35.1,1.6
			c0.9-0.7,1.4-1.5,1.4-2.3c0.1-1.1-0.6-2.2-1.1-2.9C102.3,128,91.6,124.8,88.4,123.7z"/>
	</g>
	<g opacity="0.25">
		<path fill="#361B45" d="M178,158.7c-3.8,4.5-15.8,8.9-22.3,4.9c-5.4-3.4-5.6-8.3-9.4-11.1c-0.2-0.2-0.9-0.5-1.9-0.9
			c12.2-3.8,23.3-5.8,33.3-6.4C181.9,150.5,181.1,155,178,158.7z"/>
	</g>
	<g>
		<path fill="#FFFFFF" d="M125.5,101.2c13.6,17,36.1,27.4,49.5,39.5c7.4,6.6,6.2,9.8,2.5,14.3c-3.8,4.5-12.6,8.9-19.1,4.9
			c-5.4-3.4-5.8-6.6-9.6-9.4c-1.5-1.1-25.9-7.6-39.5-28.7"/>
	</g>
	<g opacity="0.25">
		<path fill="#361B45" d="M177.5,155c-3.8,4.5-12.6,8.9-19.1,4.9c-5.4-3.4-5.8-6.6-9.6-9.4c-1.5-1.1-25.9-7.6-39.5-28.7l0.3-0.4
			c15.1,15.9,30.8,16.8,41.3,24.9c3.8,2.9,4.1,3.9,9.5,7.3c6.5,4.1,15.3-0.3,19.1-4.9c0.2-0.3,0.5-0.6,0.7-0.9
			C180.9,150.4,179.6,152.5,177.5,155z"/>
	</g>
	<g>
		<path fill="#1F1F23" d="M126,100.9c2.9,2,5.3,4.4,7.8,6.6s5.1,4.4,7.7,6.6c2.6,2.1,5.4,4.2,8.2,6.1c2.8,2,5.6,3.9,8.5,5.8
			c2.8,1.9,5.7,3.9,8.5,5.9c0.7,0.5,1.4,1,2.1,1.5c0.7,0.5,1.4,1,2.1,1.6c1.4,1.1,2.8,2.1,4.1,3.3c1.3,1.1,2.7,2.3,3.9,3.7
			c0.3,0.4,0.6,0.7,0.9,1.1c0.3,0.4,0.6,0.8,0.8,1.2l0.4,0.6l0.2,0.3c0.1,0.1,0.1,0.2,0.2,0.4l0.3,0.7c0.1,0.2,0.2,0.5,0.3,0.8
			c0.3,1,0.4,2.2,0.2,3.4c-0.2,1.1-0.7,2.1-1.2,2.9c-0.5,0.8-1.1,1.6-1.6,2.3c-0.3,0.3-0.6,0.7-0.9,1.1c-0.3,0.4-0.7,0.7-1,1
			c-1.4,1.3-2.9,2.3-4.6,3.2c-1.7,0.9-3.4,1.5-5.3,1.9c-1.9,0.4-3.9,0.5-5.8,0.1l-0.7-0.2c-0.2-0.1-0.5-0.1-0.7-0.2
			c-0.5-0.2-1-0.3-1.4-0.6c-0.4-0.2-0.9-0.5-1.3-0.7c-0.4-0.3-0.8-0.5-1.2-0.8c-0.8-0.5-1.5-1.1-2.2-1.8c-0.7-0.6-1.3-1.3-1.9-2
			c-1.2-1.4-2.1-2.8-3.2-3.8c-0.1-0.1-0.3-0.3-0.4-0.4c-0.1-0.1-0.3-0.2-0.4-0.4L148,152l-0.1-0.1h-0.1l0,0l0,0h-0.1
			c-0.1,0-0.1-0.1-0.2-0.1c-0.7-0.3-1.6-0.6-2.4-0.9c-1.6-0.6-3.2-1.3-4.8-2c-6.4-2.8-12.6-6.3-18.1-10.6c-1.4-1.1-2.7-2.2-4-3.4
			s-2.6-2.4-3.8-3.7c-0.6-0.6-1.2-1.3-1.8-2c-0.3-0.3-0.6-0.7-0.8-1.1c-0.3-0.4-0.5-0.7-0.8-1.1c-0.5-0.7-0.9-1.5-1.3-2.3
			s-0.7-1.7-0.9-2.6c-0.1-0.3,0.1-0.7,0.5-0.7c0.2,0,0.3,0,0.5,0.1l0,0c0.8,0.5,1.4,1.1,2,1.7s1.2,1.2,1.8,1.8
			c0.3,0.3,0.6,0.6,0.9,0.9s0.6,0.6,0.8,0.9c0.3,0.3,0.6,0.6,0.8,0.9c0.3,0.3,0.6,0.6,0.8,0.9c1.1,1.3,2.2,2.5,3.5,3.6
			c1.2,1.1,2.5,2.2,3.8,3.2c5.3,4.1,11.2,7.5,17.3,10.2c1.5,0.7,3.1,1.3,4.7,1.9c0.8,0.3,1.6,0.6,2.4,1c0.1,0,0.2,0.1,0.4,0.2
			c0.1,0,0.1,0,0.2,0.1c0.1,0.1,0.2,0.1,0.3,0.2l0.1,0.1l0.1,0.1l0.1,0.1l0.3,0.2c0.4,0.3,0.7,0.6,1.1,1c1.4,1.3,2.4,2.9,3.4,4.1
			c1,1.2,2.1,2.3,3.4,3.2c0.3,0.2,0.7,0.4,1,0.7l0.9,0.5c0.3,0.2,0.7,0.3,1,0.4c0.2,0.1,0.3,0.1,0.5,0.1l0.5,0.1
			c1.4,0.3,2.9,0.2,4.4-0.1c3-0.6,5.9-2.2,8.2-4.3c0.3-0.3,0.6-0.5,0.8-0.8c0.3-0.3,0.5-0.6,0.8-0.9c0.5-0.6,1-1.3,1.3-1.9
			c0.4-0.6,0.6-1.2,0.7-1.8c0.1-0.6,0.1-1.1-0.1-1.7c-0.3-1.2-1.2-2.5-2.3-3.7s-2.3-2.3-3.6-3.4c-1.3-1.1-2.6-2.1-3.9-3.2
			c-0.7-0.5-1.4-1-2-1.5c-0.7-0.5-1.4-1-2.1-1.5c-2.8-2-5.6-3.9-8.4-5.8c-2.8-1.9-5.7-3.9-8.5-5.9s-5.6-4.1-8.4-6.1
			c-2.8-2.1-5.5-4.3-7.9-6.8c-2.5-2.4-4.7-5.3-6.2-8.5c-0.1-0.3,0-0.7,0.3-0.8C125.6,100.7,125.8,100.7,126,100.9L126,100.9z"/>
	</g>
	<g>
		<path fill="#1F1F23" d="M126.6,140.8c-0.1,0-0.2,0-0.4,0c-0.8-0.2-1.3-1-1.1-1.9c0.2-0.9,5.3-21.1,19.4-21.1c0.1,0,0.2,0,0.2,0
			c0.9,0,1.5,0.7,1.5,1.6s-0.7,1.6-1.6,1.5c-0.1,0-0.1,0-0.2,0c-11.7,0-16.4,18.6-16.4,18.8C127.9,140.3,127.3,140.8,126.6,140.8z"
			/>
	</g>
	<g>
		<path fill="#1F1F23" d="M184.1,108.7c-0.3,0-0.5-0.1-0.8-0.2c-7.8-4.4-8.4-25.6-8.4-28c0-0.9,0.7-1.6,1.5-1.6l0,0
			c0.8,0,1.5,0.7,1.6,1.5c0.1,6,1.5,22.3,6.9,25.3c0.7,0.4,1,1.4,0.6,2.1C185.2,108.4,184.7,108.7,184.1,108.7z"/>
	</g>
	<g>
		<path fill="#1F1F23" d="M197,68.9c0,0.1,0,0.3,0,0.4v0.5c0,0.3,0,0.6,0.1,1c0,0.7,0.1,1.3,0.2,2c0.1,0.7,0.2,1.3,0.4,2
			c0.1,0.7,0.3,1.4,0.4,2.2c-0.7-0.3-1.4-0.9-1.9-1.5c-0.3-0.3-0.5-0.6-0.7-1c-0.2-0.3-0.4-0.7-0.5-1.1c-0.3-0.7-0.5-1.5-0.7-2.3
			c-0.1-0.4-0.1-0.8-0.1-1.2c0-0.2,0-0.4,0-0.6s0-0.4,0.1-0.7c0.1-0.8,0.8-1.3,1.6-1.2c0.6,0.1,1.1,0.6,1.2,1.2L197,68.9z"/>
	</g>
</g>
</svg>
