<?xml version="1.0" encoding="utf-8"?>
<!-- Generator: Adobe Illustrator 17.0.0, SVG Export Plug-In . SVG Version: 6.00 Build 0)  -->
<!DOCTYPE svg PUBLIC "-//W3C//DTD SVG 1.1//EN" "http://www.w3.org/Graphics/SVG/1.1/DTD/svg11.dtd">
<svg version="1.1" id="Camada_1" xmlns="http://www.w3.org/2000/svg" xmlns:xlink="http://www.w3.org/1999/xlink" x="0px" y="0px"
	 width="238px" height="183px" viewBox="0 0 238 183" enable-background="new 0 0 238 183" xml:space="preserve">
<g>
	<g>
		<path id="SVGID_1_" fill="#FFFFFF" d="M216.2,24.8h-95.8L101.3,2.1c-0.6-0.7-1.4-1.1-2.3-1H21.8C10.3,1.1,1,10.5,1,22.1v138.8
			c0,11.5,9.3,20.9,20.8,21h194.4c11.5-0.1,20.8-9.5,20.8-21V45.8C237,34.3,227.7,24.9,216.2,24.8z"/>
	</g>
	<g>
		<path id="SVGID_2_" fill="none" stroke="#DADADA" stroke-width="1.0755" stroke-miterlimit="10" d="M216.2,24.8h-95.8L101.3,2.1
			c-0.6-0.7-1.4-1.1-2.3-1H21.8C10.3,1.1,1,10.5,1,22.1v138.8c0,11.5,9.3,20.9,20.8,21h194.4c11.5-0.1,20.8-9.5,20.8-21V45.8
			C237,34.3,227.7,24.9,216.2,24.8z"/>
	</g>
</g>
</svg>
