<?xml version="1.0" encoding="utf-8"?>
<!-- Generator: Adobe Illustrator 17.0.0, SVG Export Plug-In . SVG Version: 6.00 Build 0)  -->
<!DOCTYPE svg PUBLIC "-//W3C//DTD SVG 1.1//EN" "http://www.w3.org/Graphics/SVG/1.1/DTD/svg11.dtd">
<svg version="1.1" id="Camada_1" xmlns="http://www.w3.org/2000/svg" xmlns:xlink="http://www.w3.org/1999/xlink" x="0px" y="0px"
	 width="306px" height="266px" viewBox="0 0 306 266" enable-background="new 0 0 306 266" xml:space="preserve">
<g>
	<g>
		<g opacity="0.35">
			<path fill="#181932" d="M276.1,251.1l-50.3-8.7c-5.2-0.9-8.7-5.8-7.8-11L236,128c0.9-5.2,5.8-8.7,11-7.8l50.3,8.7
				c5.2,0.9,8.7,5.8,7.8,11l-17.9,103.4C286.3,248.6,281.3,252,276.1,251.1z"/>
			<path fill="#181932" d="M277.8,251.5c-0.6,0-1.1,0-1.7-0.1l-50.3-8.7c-5.3-0.9-8.9-6-8-11.3L235.7,128c0.4-2.6,1.9-4.8,4-6.3
				s4.7-2.1,7.3-1.6l50.3,8.7c5.3,0.9,8.9,6,8,11.3l-17.9,103.4c-0.4,2.6-1.9,4.8-4,6.3C281.7,250.9,279.8,251.5,277.8,251.5z
				 M245.4,120.3c-1.9,0-3.7,0.6-5.3,1.7c-2,1.4-3.4,3.6-3.8,6l-17.9,103.4c-0.9,5,2.5,9.9,7.6,10.7l50.3,8.7
				c2.4,0.4,4.9-0.1,6.9-1.6c2-1.4,3.4-3.6,3.8-6l17.9-103.4c0.9-5-2.5-9.9-7.6-10.7l-50.3-8.7C246.4,120.3,245.9,120.3,245.4,120.3
				z"/>
		</g>
		<g>
			<path fill="#D1E6F8" d="M264.7,240.2l-50.3-8.7c-5.2-0.9-8.7-5.8-7.8-11l18-103.5c0.9-5.2,5.8-8.7,11-7.8l50.3,8.7
				c5.2,0.9,8.7,5.8,7.8,11l-17.9,103.4C274.9,237.6,269.9,241.1,264.7,240.2z"/>
			<path fill="#262B5F" d="M266.4,240.6c-0.6,0-1.1,0-1.7-0.1l-50.3-8.7c-5.3-0.9-8.9-6-8-11.3L224.3,117c0.4-2.6,1.9-4.8,4-6.3
				s4.7-2.1,7.3-1.6l50.3,8.7c5.3,0.9,8.9,6,8,11.3L276,232.5C275.2,237.2,271.1,240.6,266.4,240.6z M264.8,239.9
				c5,0.9,9.9-2.5,10.7-7.6l18-103.3c0.9-5-2.5-9.9-7.6-10.7l-50.3-8.7c-2.4-0.4-4.9,0.1-6.9,1.6c-2,1.4-3.4,3.6-3.8,6L207,220.6
				c-0.9,5,2.5,9.9,7.6,10.7L264.8,239.9z"/>
		</g>
		<g opacity="0.3">
			<path fill="#262B5F" d="M293.4,128.9l-17.9,103.4c-0.9,5.2-5.8,8.7-11,7.8l-50.3-8.7c-3.9-0.7-6.9-3.7-7.7-7.3
				c1.3,1.1,2.8,1.9,4.6,2.2l50.3,8.7c5.2,0.9,10.1-2.6,11-7.8l17.9-103.4c0.2-1.3,0.2-2.5-0.1-3.7
				C292.7,122.2,294,125.5,293.4,128.9z"/>
		</g>
		<g opacity="0.55">
			<path fill="#FFFFFF" d="M293.5,124.7c-1.2-0.8-2.5-1.4-4-1.7l-50.3-8.7c-5.2-0.9-10.1,2.6-11,7.8l-17.9,103.4
				c-0.3,1.5-0.2,3,0.2,4.3c-2.8-2.1-4.4-5.7-3.8-9.3L224.6,117c0.9-5.2,5.8-8.7,11-7.8l50.3,8.7
				C289.6,118.6,292.5,121.3,293.5,124.7z"/>
		</g>
		<g>
			<path fill="#1F1F23" d="M266.4,242.2c-0.6,0-1.3-0.1-1.9-0.2l0,0l-50.3-8.7c-6.2-1.1-10.3-7-9.3-13.2l17.9-103.4
				c0.5-3,2.2-5.6,4.7-7.4s5.5-2.4,8.5-1.9l50.3,8.7c6.2,1.1,10.3,7,9.3,13.2l-17.9,103.4C276.6,238.3,271.8,242.2,266.4,242.2z
				 M265.1,238.4c4.2,0.7,8.2-2.1,8.9-6.3l17.9-103.4c0.7-4.2-2.1-8.2-6.3-8.9l-50.3-8.7c-2-0.4-4.1,0.1-5.8,1.3
				c-1.7,1.2-2.8,3-3.2,5l-17.9,103.4c-0.7,4.2,2.1,8.2,6.3,8.9L265.1,238.4L265.1,238.4z"/>
		</g>
		<g>
			<path fill="#263168" d="M265.7,222l-46-8c-2-0.3-3.3-2.2-3-4.2l14.4-83.2c0.3-2,2.2-3.3,4.2-3l46,8c2,0.3,3.3,2.2,3,4.2
				L269.9,219C269.6,221,267.7,222.4,265.7,222z"/>
			<path fill="#262B5F" d="M266.3,222.3c-0.2,0-0.4,0-0.7-0.1l-46-8c-2.1-0.4-3.6-2.4-3.2-4.5l14.4-83.2c0.2-1,0.7-1.9,1.6-2.5
				c0.9-0.6,1.9-0.8,2.9-0.7l46,8c2.1,0.4,3.6,2.4,3.2,4.5L270.1,219C269.8,221,268.2,222.3,266.3,222.3z M265.7,221.8
				c1.8,0.3,3.6-0.9,3.9-2.8l14.4-83.2c0.3-1.8-0.9-3.6-2.8-3.9l-46-8c-0.9-0.2-1.8,0-2.5,0.6c-0.7,0.5-1.2,1.3-1.4,2.2L217,209.9
				c-0.3,1.8,0.9,3.6,2.8,3.9L265.7,221.8z"/>
		</g>
		<g>
			<path fill="#90C154" d="M284.7,136.4l-14.4,83.2c-0.2,1.1-0.8,2-1.7,2.5c-0.7,0.5-1.6,0.6-2.5,0.5l-46-8c-2-0.3-3.3-2.2-3-4.2
				l14.4-83.2c0.3-2,2.2-3.3,4.2-3l46,8C283.7,132.5,285,134.4,284.7,136.4z"/>
		</g>
		<g>
			<circle fill="#1F1F23" cx="241.2" cy="226.4" r="3.9"/>
		</g>
		<g opacity="0.5">
			<path fill="#FFFFFF" d="M263.5,167.7l-30.5-5.3c-1.4-0.2-2.3-1.6-2.1-2.9l3.4-19.6c0.2-1.4,1.6-2.3,2.9-2.1l30.5,5.3
				c1.4,0.2,2.3,1.6,2.1,2.9l-3.4,19.6C266.2,167.1,264.9,168,263.5,167.7z"/>
		</g>
		<g opacity="0.5">
			<circle fill="#FFFFFF" cx="238.7" cy="133" r="3.1"/>
		</g>
		<g opacity="0.5">
			<path fill="#FFFFFF" d="M256.4,208.6l-30.5-5.3c-1.4-0.2-2.3-1.6-2.1-2.9l3.4-19.6c0.2-1.4,1.6-2.3,2.9-2.1l30.5,5.3
				c1.4,0.2,2.3,1.6,2.1,2.9l-3.4,19.6C259.1,207.9,257.8,208.9,256.4,208.6z"/>
		</g>
		<g opacity="0.5">
			<circle fill="#FFFFFF" cx="231.6" cy="173.8" r="3.1"/>
		</g>
		<g opacity="0.15">
			<path fill="#FFFFFF" d="M275.6,188.4l-5.4,31.1c-0.2,1.1-0.8,2-1.7,2.5l-39-84l1.9-10.9c0.3-2,2.2-3.3,4.2-3l11,1.9L275.6,188.4z
				"/>
		</g>
		<g opacity="0.15">
			<polygon fill="#FFFFFF" points="280.9,158 277.8,175.8 255.5,127.6 267.8,129.7 			"/>
		</g>
		<g opacity="0.15">
			<polygon fill="#FFFFFF" points="248,219.4 235.6,217.2 221.2,186.2 224.3,168.4 			"/>
		</g>
		<g>
			<path fill="#1F1F23" d="M266.3,223.8c-0.3,0-0.6,0-0.9-0.1l0,0l-46-8c-2.9-0.5-4.9-3.3-4.4-6.2l14.4-83.2c0.2-1.4,1-2.7,2.2-3.5
				s2.6-1.2,4-0.9l46,8c2.9,0.5,4.9,3.3,4.4,6.2l-14.4,83.2C271.2,222,268.9,223.8,266.3,223.8z M266,220.3c1,0.2,2-0.5,2.2-1.6
				l14.4-83.2c0.2-1-0.5-2-1.6-2.2l-46-8c-0.5-0.1-1,0-1.4,0.3s-0.7,0.7-0.8,1.2L218.4,210c-0.2,1,0.5,2,1.6,2.2L266,220.3
				L266,220.3z"/>
		</g>
		<g>
			<path fill="#1F1F23" d="M265.1,124c-0.1,0-0.1,0-0.2,0l-11.4-2c-0.7-0.1-1.2-0.8-1.1-1.5c0.1-0.7,0.8-1.2,1.5-1.1l11.4,2
				c0.7,0.1,1.2,0.8,1.1,1.5S265.7,124,265.1,124z"/>
		</g>
	</g>
	<g>
		<g opacity="0.3">
			
				<ellipse transform="matrix(0.3823 -0.924 0.924 0.3823 106.8324 262.4165)" fill="#181932" cx="249.698" cy="51.3" rx="37.599" ry="47.598"/>
		</g>
		<g>
			<path fill="#FFFFFF" d="M256.4,57.2l10.7,12c2.3,2.6,2.1,6.6-0.5,9c-2.6,2.3-6.6,2.1-9-0.5l-10.7-12c1.8-1.1,3.5-2.3,5.1-3.8
				C253.6,60.4,255.1,58.8,256.4,57.2z"/>
			<path fill="#262B5F" d="M262.3,80c-1.8,0-3.6-0.7-4.9-2.2l-10.9-12.2l0.3-0.2c1.8-1.1,3.5-2.3,5.1-3.8c1.6-1.4,3-3,4.3-4.6
				l0.2-0.2L267.2,69c2.4,2.7,2.2,6.9-0.5,9.3C265.5,79.4,263.9,80,262.3,80z M247.3,65.7l10.5,11.8c2.2,2.5,6.1,2.7,8.6,0.5
				s2.7-6.1,0.5-8.6l-10.5-11.8c-1.3,1.6-2.7,3.1-4.2,4.4C250.7,63.4,249,64.6,247.3,65.7z"/>
		</g>
		<g opacity="0.3">
			<path fill="#181932" d="M256.4,57.2l6.8,7.6c-1.1,0.5-2.1,1.1-3.1,1.9c-2.8,2.5-4,6.2-3.6,9.6l-9.6-10.7c1.8-1.1,3.5-2.3,5.1-3.8
				C253.6,60.4,255.1,58.8,256.4,57.2z"/>
			<path fill="#181932" d="M256.8,77.1l-10.3-11.6l0.3-0.2c1.8-1.1,3.5-2.3,5.1-3.8c1.6-1.4,3-3,4.3-4.6l0.2-0.2l7.2,8.1l-0.3,0.1
				c-1.1,0.5-2.1,1.1-3,1.9c-2.7,2.4-4,5.9-3.5,9.4L256.8,77.1z M247.3,65.7l8.8,9.9c-0.2-3.4,1.2-6.8,3.7-9.1
				c0.9-0.8,1.8-1.4,2.8-1.8l-6.3-7.1c-1.3,1.6-2.7,3.1-4.2,4.4C250.7,63.4,249,64.6,247.3,65.7z"/>
		</g>
		<g>
			<path fill="#1F1F23" d="M262.3,81.5c-2.3,0-4.5-0.9-6.1-2.7l-10.7-12c-0.4-0.4-0.5-1-0.4-1.5s0.4-1,0.9-1.3
				c1.7-1,3.3-2.2,4.8-3.6c1.5-1.4,2.9-2.8,4.1-4.4c0.3-0.4,0.8-0.7,1.4-0.7c0.5,0,1.1,0.2,1.4,0.6l10.7,12c3,3.4,2.7,8.6-0.7,11.6
				C266.2,80.9,264.3,81.5,262.3,81.5z M249.7,66l9.3,10.4c1.7,1.9,4.5,2,6.4,0.4c0.9-0.8,1.4-1.9,1.5-3.1s-0.3-2.4-1.1-3.3
				L256.4,60c-1,1.1-2.1,2.2-3.2,3.2C252.1,64.2,250.9,65.1,249.7,66z"/>
		</g>
		<g>
			<path fill="#FFFFFF" d="M267.6,32c2.6,17.1-7.5,33.3-23.3,38.7c-2,0.7-4,1.2-6.2,1.5c-2.1,0.3-4.3,0.5-6.4,0.4
				c-16.7-0.4-31.3-12.8-33.9-29.9c-3-19.3,10.3-37.3,29.5-40.2C246.7-0.4,264.7,12.8,267.6,32z"/>
			<path fill="#262B5F" d="M232.8,72.9c-0.4,0-0.7,0-1.1,0c-17.2-0.5-31.5-13.1-34.1-30.2c-1.4-9.4,0.9-18.8,6.5-26.4
				S218,3.7,227.4,2.2c9.4-1.4,18.8,0.9,26.4,6.5c7.7,5.6,12.7,13.9,14.1,23.3c2.6,17-7.3,33.4-23.5,39c-2,0.7-4.1,1.2-6.2,1.5
				C236.4,72.8,234.6,72.9,232.8,72.9z M232.8,2.4c-1.8,0-3.6,0.1-5.4,0.4c-9.2,1.4-17.4,6.4-22.9,13.9s-7.8,16.8-6.4,26
				c2.6,16.8,16.7,29.3,33.6,29.7c2.1,0.1,4.2-0.1,6.3-0.4s4.2-0.8,6.1-1.5c16-5.5,25.7-21.7,23.2-38.4c-1.4-9.2-6.4-17.4-13.9-22.9
				C247.4,4.7,240.2,2.4,232.8,2.4z"/>
		</g>
		<g opacity="0.3">
			<path fill="#181932" d="M267.6,32c2.6,17.1-7.5,33.3-23.3,38.7c-2,0.7-4,1.2-6.2,1.5c-2.1,0.3-4.3,0.5-6.4,0.4
				c-12.8-0.3-24.4-7.7-30.2-18.9c6.3,6.8,15.2,11,24.9,11.3c2.1,0.1,4.2-0.1,6.4-0.4c2.1-0.3,4.2-0.8,6.2-1.5
				c15.8-5.4,26-21.6,23.3-38.7c-0.6-4-1.9-7.7-3.6-11C263.3,18.4,266.5,24.8,267.6,32z"/>
			<path fill="#181932" d="M232.8,72.9c-0.4,0-0.7,0-1.1,0c-12.8-0.3-24.5-7.6-30.5-19l-0.9-1.7l1.3,1.4
				c6.4,6.9,15.4,10.9,24.7,11.2c2.1,0.1,4.2-0.1,6.3-0.4s4.2-0.8,6.1-1.5c16-5.5,25.7-21.7,23.2-38.4c-0.6-3.9-1.8-7.5-3.6-11
				l-0.9-1.7l1.3,1.4c4.8,5.2,8,11.7,9.1,18.8c2.6,17-7.3,33.4-23.5,39c-2,0.7-4.1,1.2-6.2,1.5C236.4,72.8,234.6,72.9,232.8,72.9z
				 M202.7,55.4c6.1,10.2,17.1,16.7,29.1,17c2.1,0.1,4.2-0.1,6.3-0.4s4.2-0.8,6.1-1.5c16-5.5,25.7-21.7,23.2-38.4
				c-1-6.3-3.6-12.2-7.6-17c1.3,3,2.3,6.1,2.8,9.4c2.6,17-7.3,33.4-23.5,39c-2,0.7-4.1,1.2-6.2,1.5c-2.1,0.3-4.3,0.5-6.4,0.4
				C217.6,65.1,209.1,61.5,202.7,55.4z"/>
		</g>
		<g>
			<circle fill="#D06914" cx="232.8" cy="37.4" r="26.9"/>
		</g>
		<g opacity="0.3">
			<path fill="#181932" d="M255.2,22.6c-4.8-2.4-10.4-3.4-16.1-2.5c-14.7,2.2-24.7,16-22.5,30.6c0.6,4,2.1,7.6,4.1,10.7
				c-7.5-3.8-13.2-11-14.6-20c-2.2-14.7,7.8-28.4,22.5-30.6C239.4,9.2,249.6,14.1,255.2,22.6z"/>
		</g>
		<g>
			<path fill="#1F1F23" d="M232.8,74.5c-0.4,0-0.7,0-1.1,0C213.8,74,198.8,60.8,196.1,43c-1.5-9.8,0.9-19.6,6.8-27.6
				c5.9-8,14.5-13.2,24.3-14.7s19.6,0.9,27.6,6.8S268,22,269.5,31.8l0,0c2.7,17.8-7.6,34.9-24.6,40.7c-2.1,0.7-4.3,1.3-6.5,1.6
				C236.5,74.4,234.7,74.5,232.8,74.5z M232.8,3.9c-1.7,0-3.4,0.1-5.1,0.4c-8.8,1.4-16.6,6.1-21.9,13.3c-5.3,7.2-7.5,16-6.1,24.9
				c2.5,16,16,27.9,32.1,28.4c2,0.1,4-0.1,6-0.4s4-0.8,5.9-1.5c15.3-5.3,24.6-20.7,22.1-36.7l0,0c-1.4-8.8-6.1-16.6-13.3-21.9
				C246.8,6.2,239.9,3.9,232.8,3.9z"/>
		</g>
		<g>
			<path fill="#1F1F23" d="M232.7,66.1c-6.1,0-11.9-1.9-16.9-5.6c-6.2-4.5-10.2-11.2-11.4-18.8s0.7-15.2,5.2-21.3
				c4.5-6.2,11.2-10.2,18.8-11.4c15.6-2.4,30.3,8.4,32.7,24c1.2,7.6-0.7,15.2-5.2,21.3c-4.5,6.2-11.2,10.2-18.8,11.4
				C235.6,66,234.2,66.1,232.7,66.1z M232.8,12.4c-1.3,0-2.5,0.1-3.8,0.3c-6.6,1-12.4,4.5-16.4,9.9s-5.6,12-4.6,18.6
				s4.5,12.4,9.9,16.4s12,5.6,18.6,4.6s12.4-4.5,16.4-9.9s5.6-12,4.6-18.6l0,0C255.6,21.2,244.9,12.4,232.8,12.4z"/>
		</g>
		<g opacity="0.3">
			<path fill="#FFFFFF" d="M248.8,41.3c2,2.6-0.2,7.6-4.8,11.2c-4.7,3.6-10.1,4.3-12.1,1.7s2.6-2.7,7.3-6.3
				C243.8,44.4,246.8,38.7,248.8,41.3z"/>
		</g>
		<g opacity="0.3">
			<path fill="#FFFFFF" d="M249.5,37.2c-1.4,0.1-2.1-1.4-2.2-3.3c-0.1-1.8,0.5-3.4,1.9-3.4s2.6,1.4,2.7,3.2
				C252,35.6,250.9,37.1,249.5,37.2z"/>
		</g>
		<g opacity="0.3">
			<circle fill="#262B5F" cx="227.9" cy="35.7" r="1.6"/>
		</g>
		<g opacity="0.3">
			<circle fill="#262B5F" cx="226.2" cy="41.6" r="1"/>
		</g>
		<g opacity="0.3">
			<circle fill="#262B5F" cx="240.5" cy="28.1" r="1"/>
		</g>
		<g opacity="0.3">
			<circle fill="#262B5F" cx="233.5" cy="39.1" r="1.3"/>
		</g>
	</g>
	<g>
		<g>
			<g opacity="0.35">
				<path fill="#181932" d="M202.4,79.1c-1.1-1.3-2.6-2.2-4.3-2.4l-22.2-2.6V57.3c0-3.5-2.9-6.4-6.4-6.4h-26l-2.7-8.4
					c-1.1-3.4-4.7-5.2-8.1-4.1L94.4,50.9H42.8c-3.5,0-6.4,2.9-6.4,6.4v12.5l-24.2,7.9c-1.6,0.5-3,1.7-3.7,3.2
					c-0.8,1.5-0.9,3.3-0.4,4.9l28.3,86.8v62.2c0,3.5,2.9,6.4,6.4,6.4h2.1l-0.3,2.7c-0.4,3.5,2.1,6.7,5.6,7.1l12.2,1.4l0.7,2
					c0.5,1.6,1.7,3,3.2,3.7c0.9,0.5,1.9,0.7,2.9,0.7c0.7,0,1.3-0.1,2-0.3l11.5-3.8l93.3,10.9c0.3,0,0.5,0,0.8,0c1.4,0,2.8-0.5,4-1.4
					c1.3-1.1,2.2-2.6,2.4-4.3l4.6-39.5l3.9-1.3c1.6-0.5,3-1.7,3.7-3.2c0.8-1.5,0.9-3.3,0.4-4.9l-5.1-15.6l13.1-111.9
					C203.9,82.1,203.4,80.4,202.4,79.1z"/>
			</g>
			<g>
				<path fill="#FFFFFF" d="M168.8,256L43.1,241.3c-2.5-0.3-4.3-2.6-4-5.1L59.7,60c0.3-2.5,2.6-4.3,5.1-4l125.8,14.7
					c2.5,0.3,4.3,2.6,4,5.1L173.9,252C173.6,254.5,171.3,256.3,168.8,256z"/>
				<path fill="#262B5F" d="M169.4,256.3c-0.2,0-0.4,0-0.6,0L43,241.6c-1.3-0.1-2.4-0.8-3.2-1.8s-1.2-2.3-1-3.6L59.4,59.9
					c0.2-1.3,0.8-2.4,1.8-3.2s2.3-1.2,3.6-1l125.8,14.7c2.6,0.3,4.6,2.7,4.2,5.4L174.2,252C173.9,254.5,171.8,256.3,169.4,256.3z
					 M168.9,255.8c2.4,0.3,4.5-1.4,4.8-3.8l20.6-176.3c0.3-2.4-1.4-4.5-3.8-4.8L64.7,56.2c-1.1-0.1-2.3,0.2-3.2,0.9S60,58.8,59.9,60
					L39.3,236.3c-0.1,1.1,0.2,2.3,0.9,3.2s1.7,1.5,2.9,1.6L168.9,255.8z"/>
			</g>
			<g opacity="0.35">
				<path fill="#181932" d="M189.8,79.4l-20.6,176.3c0,0.1,0,0.2-0.1,0.4c-0.1,0-0.2,0-0.3,0L43.1,241.3c-2.5-0.3-4.3-2.6-4-5.1
					L59.7,60c0-0.1,0-0.2,0.1-0.4c0.1,0,0.2,0,0.3,0l125.8,14.7C188.3,74.6,190.1,76.9,189.8,79.4z"/>
			</g>
			<g>
				<path fill="#1F1F23" d="M169.4,257.9c-0.2,0-0.5,0-0.7,0l0,0L42.9,243.1c-1.7-0.2-3.2-1-4.3-2.4c-1.1-1.3-1.5-3-1.3-4.7
					L57.9,59.7c0.2-1.7,1-3.2,2.4-4.3c1.3-1.1,3-1.5,4.7-1.3l125.8,14.7c3.5,0.4,6,3.6,5.6,7.1l-20.6,176.3
					C175.4,255.5,172.6,257.9,169.4,257.9z M169.1,254.2c1.5,0.2,2.9-0.9,3-2.4l20.6-176.3c0.2-1.5-0.9-2.9-2.4-3L64.5,57.8
					c-0.7-0.1-1.4,0.1-2,0.6s-0.9,1.1-1,1.8L40.9,236.4c-0.1,0.7,0.1,1.4,0.6,2s1.1,0.9,1.8,1L169.1,254.2L169.1,254.2z"/>
			</g>
			<g>
				<path fill="#FFFFFF" d="M183.7,209.7l-9,2.9l-83.8,27.3l-27.7,9c-2.4,0.8-5-0.5-5.8-2.9l-2-6.1l-16.6-51L2.6,77.3
					c-0.8-2.4,0.5-5,2.9-5.8l33.4-10.9l22.4-7.3l64.6-21c2.4-0.8,5,0.5,5.8,2.9l5.9,18.1l37.2,114.1l11.9,36.6
					C187.4,206.4,186.1,208.9,183.7,209.7z"/>
				<path fill="#262B5F" d="M61.9,249.4c-0.8,0-1.5-0.2-2.2-0.5c-1.2-0.6-2-1.6-2.4-2.8L2.3,77.3c-0.8-2.5,0.6-5.3,3.1-6.1L125.8,32
					c2.5-0.8,5.3,0.6,6.1,3.1l54.9,168.7c0.4,1.2,0.3,2.5-0.3,3.7s-1.6,2-2.8,2.4l0,0L63.4,249.2C62.9,249.3,62.4,249.4,61.9,249.4z
					 M127.3,32.3c-0.4,0-0.9,0.1-1.3,0.2L5.6,71.7c-2.3,0.7-3.5,3.2-2.8,5.4l55,168.7c0.4,1.1,1.1,2,2.1,2.5s2.2,0.6,3.3,0.3
					l120.4-39.2c1.1-0.4,2-1.1,2.5-2.1s0.6-2.2,0.3-3.3l-55-168.7C130.8,33.5,129.1,32.3,127.3,32.3z"/>
			</g>
			<g opacity="0.35">
				<path fill="#181932" d="M174.7,167.4v45.2l-83.8,27.3H60.7l-0.3-1l-16.6-51L39,173.1V57.9c0-2.5,2-4.6,4.6-4.6h94L174.7,167.4z"
					/>
				<path fill="#181932" d="M91,240.2H60.5l-0.4-1.2l-21.4-65.8V57.9c0-2.7,2.2-4.8,4.8-4.8h94.2L175,167.4v45.4L91,240.2z
					 M60.9,239.7h30l83.6-27.2v-45L137.4,53.6H43.5c-2.4,0-4.3,1.9-4.3,4.3v115.2L60.9,239.7z"/>
			</g>
			<g>
				<path fill="#1F1F23" d="M61.9,251c-1,0-2-0.2-2.9-0.7c-1.5-0.8-2.7-2.1-3.2-3.7L0.8,77.8c-1.1-3.4,0.7-7,4.1-8.1l120.4-39.2
					c3.4-1.1,7,0.7,8.1,4.1l55,168.7c0.5,1.6,0.4,3.4-0.4,4.9c-0.8,1.5-2.1,2.7-3.7,3.2L63.8,250.7C63.2,250.9,62.5,251,61.9,251z
					 M127.3,33.9c-0.3,0-0.6,0-0.8,0.1L6.1,73.2c-1.4,0.5-2.2,2-1.8,3.5l55,168.7c0.2,0.7,0.7,1.3,1.4,1.6s1.4,0.4,2.1,0.2
					L183.1,208l0,0c0.7-0.2,1.3-0.7,1.6-1.4s0.4-1.4,0.2-2.1l-55-168.7C129.5,34.6,128.5,33.9,127.3,33.9z"/>
			</g>
			<g>
				<path fill="#FFFFFF" d="M162.1,231.5H35.5c-2.5,0-4.6-2-4.6-4.6V49.4c0-2.5,2-4.6,4.6-4.6h126.6c2.5,0,4.6,2,4.6,4.6v177.5
					C166.7,229.4,164.6,231.5,162.1,231.5z"/>
				<path fill="#262B5F" d="M162.1,231.7H35.5c-2.7,0-4.8-2.2-4.8-4.8V49.4c0-2.7,2.2-4.8,4.8-4.8h126.6c2.7,0,4.8,2.2,4.8,4.8
					v177.5C166.9,229.5,164.8,231.7,162.1,231.7z M35.5,45.1c-2.4,0-4.3,1.9-4.3,4.3v177.5c0,2.4,1.9,4.3,4.3,4.3h126.6
					c2.4,0,4.3-1.9,4.3-4.3V49.4c0-2.4-1.9-4.3-4.3-4.3C162.1,45.1,35.5,45.1,35.5,45.1z"/>
			</g>
			<g>
				<path fill="#1F1F23" d="M162.1,233.3H35.5c-3.5,0-6.4-2.9-6.4-6.4V49.4c0-3.5,2.9-6.4,6.4-6.4h126.6c3.5,0,6.4,2.9,6.4,6.4
					v177.5C168.5,230.4,165.6,233.3,162.1,233.3z M35.5,46.7c-1.5,0-2.7,1.2-2.7,2.7v177.5c0,1.5,1.2,2.7,2.7,2.7h126.6
					c1.5,0,2.7-1.2,2.7-2.7V49.4c0-1.5-1.2-2.7-2.7-2.7H35.5z"/>
			</g>
			<g opacity="0.3">
				<circle fill="#675B5D" cx="98.8" cy="85.4" r="13.3"/>
			</g>
			<g opacity="0.3">
				<path fill="#675B5D" d="M120.7,122.7H76.9c-2.2,0-3.8-2.1-3.3-4.3c2.5-9.2,12.8-16.1,25.1-16.1s22.6,6.9,25.1,16.1
					C124.5,120.5,122.9,122.7,120.7,122.7z"/>
			</g>
			<g opacity="0.29">
				<path fill="#675B5D" d="M134.9,137.7h-6.6c-1,0-1.8-0.8-1.8-1.8s0.8-1.8,1.8-1.8h6.6c1,0,1.8,0.8,1.8,1.8
					C136.8,136.9,136,137.7,134.9,137.7z"/>
			</g>
			<g opacity="0.29">
				<path fill="#675B5D" d="M120.8,137.7H92c-1,0-1.8-0.8-1.8-1.8s0.8-1.8,1.8-1.8h28.8c1,0,1.8,0.8,1.8,1.8
					C122.6,136.9,121.8,137.7,120.8,137.7z"/>
			</g>
			<g opacity="0.29">
				<path fill="#675B5D" d="M114.3,147.3H85.5c-1,0-1.8-0.8-1.8-1.8s0.8-1.8,1.8-1.8h28.8c1,0,1.8,0.8,1.8,1.8
					C116.1,146.5,115.3,147.3,114.3,147.3z"/>
			</g>
			<g opacity="0.29">
				<path fill="#675B5D" d="M99.4,170.2H70.6c-1,0-1.8-0.8-1.8-1.8s0.8-1.8,1.8-1.8h28.8c1,0,1.8,0.8,1.8,1.8
					S100.4,170.2,99.4,170.2z"/>
			</g>
			<g opacity="0.29">
				<path fill="#675B5D" d="M86.2,163.4H70.6c-1,0-1.8-0.8-1.8-1.8s0.8-1.8,1.8-1.8h15.6c1,0,1.8,0.8,1.8,1.8
					C88.1,162.6,87.2,163.4,86.2,163.4z"/>
			</g>
			<g opacity="0.29">
				<path fill="#675B5D" d="M88.2,186.8H70.6c-1,0-1.8-0.8-1.8-1.8s0.8-1.8,1.8-1.8h17.6c1,0,1.8,0.8,1.8,1.8S89.2,186.8,88.2,186.8
					z"/>
			</g>
			<g opacity="0.29">
				<path fill="#675B5D" d="M113,193.2H70.6c-1,0-1.8-0.8-1.8-1.8s0.8-1.8,1.8-1.8H113c1,0,1.8,0.8,1.8,1.8S114,193.2,113,193.2z"/>
			</g>
			<g opacity="0.29">
				<path fill="#675B5D" d="M99.4,215.2H70.6c-1,0-1.8-0.8-1.8-1.8s0.8-1.8,1.8-1.8h28.8c1,0,1.8,0.8,1.8,1.8
					S100.4,215.2,99.4,215.2z"/>
			</g>
			<g opacity="0.29">
				<path fill="#675B5D" d="M82.8,137.7H58.4c-1,0-1.8-0.8-1.8-1.8s0.8-1.8,1.8-1.8h24.4c1,0,1.8,0.8,1.8,1.8
					C84.7,136.9,83.8,137.7,82.8,137.7z"/>
			</g>
			<g opacity="0.3">
				<path fill="#675B5D" d="M53.5,169.6h-8.9c-1.3,0-2.4-1.1-2.4-2.4v-8.9c0-1.3,1.1-2.4,2.4-2.4h8.9c1.3,0,2.4,1.1,2.4,2.4v8.9
					C55.9,168.6,54.9,169.6,53.5,169.6z"/>
			</g>
			<g opacity="0.3">
				<path fill="#675B5D" d="M53.5,192.4h-8.9c-1.3,0-2.4-1.1-2.4-2.4v-8.9c0-1.3,1.1-2.4,2.4-2.4h8.9c1.3,0,2.4,1.1,2.4,2.4v8.9
					C55.9,191.3,54.9,192.4,53.5,192.4z"/>
			</g>
			<g opacity="0.3">
				<path fill="#675B5D" d="M53.5,215.1h-8.9c-1.3,0-2.4-1.1-2.4-2.4v-8.9c0-1.3,1.1-2.4,2.4-2.4h8.9c1.3,0,2.4,1.1,2.4,2.4v8.9
					C55.9,214,54.9,215.1,53.5,215.1z"/>
			</g>
			<g opacity="0.2">
				<path fill="#181932" d="M162.3,96.7v126c0,2.4-1.9,4.3-4.3,4.3H30.9v-0.1C102.1,224.3,146.8,180.6,162.3,96.7z"/>
			</g>
		</g>
		<g>
			<g opacity="0.3">
				<path fill="#262B5F" d="M67.5,103.7l-6.1,18.4c-0.3,0.8-1,1.3-1.7,1.3c-0.2,0-0.4,0-0.6-0.1c-1-0.3-1.5-1.4-1.2-2.3l0.6-2
					c-1.5-0.8-2.4-2.3-2.4-4c0-0.5,0.1-0.9,0.2-1.4c0.7-2.1,2.8-3.3,4.9-3l2.7-8.1c0.5-1.6-0.3-3.3-1.9-3.9l-2.4-0.8l-25.5,77
					c-0.3,1-0.9,1.9-1.7,2.6l-1.7,1.5v-65l9.7-29.5c0.5-1.5,1.5-2.6,3-3.3l1.9-5.8c0.8-2.3,2.4-4.3,4.6-5.4c2.2-1.1,4.7-1.3,7.1-0.5
					c4.8,1.6,7.5,6.8,5.9,11.7L61,86.7c0.6,1,0.8,2,0.8,3c0,0.6-0.1,1.1-0.3,1.7l-1,2.9l2.3,0.8c1.7,0.6,3.1,1.8,3.9,3.4
					C67.9,100.2,68.1,102,67.5,103.7z"/>
			</g>
			<g>
				<g>
					<path fill="#F2EEA5" d="M35.6,105.6c-0.2-0.6-0.3-1.2-0.2-1.8l2.1-17.4l14,10.5c0.5,0.4,0.9,0.9,1.2,1.5
						C53.8,102.6,37.8,109.5,35.6,105.6z"/>
					<path fill="#262B5F" d="M38.5,107c-1.4,0-2.6-0.4-3.1-1.2l0,0c-0.2-0.6-0.3-1.3-0.2-1.9L37.3,86l14.4,10.8
						c0.6,0.4,1,0.9,1.3,1.5c0.7,2.5-3.6,5.4-7.7,7.1C42.9,106.3,40.4,107,38.5,107z M35.8,105.5c0.9,1.5,4.7,1.3,9.2-0.6
						c4.1-1.7,8-4.4,7.4-6.5c-0.2-0.5-0.6-0.9-1.1-1.3L37.7,86.9l-2,16.9C35.6,104.4,35.7,105,35.8,105.5z"/>
				</g>
				<g>
					<path fill="#5F5B57" d="M36.5,94.7l1-8.3l6.7,5C42,92.9,39.1,94.1,36.5,94.7z"/>
					<path fill="#262B5F" d="M36.2,95.1l1.1-9.1l7.3,5.5l-0.3,0.2c-2.3,1.5-5.2,2.7-7.8,3.3L36.2,95.1z M37.7,86.9l-0.9,7.5
						c2.3-0.6,4.9-1.7,6.9-2.9L37.7,86.9z"/>
				</g>
				<g>
					<path fill="#262B5F" d="M38.5,108.2c-2,0-3.6-0.6-4.3-2.2c-0.1-0.2-0.1-0.4-0.1-0.7c0.1-0.8,0.7-1.4,1.5-1.3
						c0.6,0,1,0.4,1.2,0.9c0.4,0.6,3.5,0.8,8-1.2c2.1-0.9,3.9-2,5.1-3.1c1-0.9,1.4-1.6,1.3-1.9c-0.2-0.5-0.1-1.1,0.2-1.5
						c0.5-0.6,1.4-0.6,2-0.1l0,0c0.2,0.1,0.3,0.3,0.3,0.5c1.4,3.3-3.2,6.7-7.9,8.7C43.5,107.4,40.7,108.2,38.5,108.2z"/>
				</g>
			</g>
			<g>
				<path fill="#181932" d="M55.5,121.8c-0.2,0-0.4,0-0.6-0.1c-1-0.3-1.5-1.4-1.2-2.3l6.1-18.4c0.3-0.8,0.2-1.6-0.2-2.3
					c-0.4-0.7-1-1.3-1.8-1.5l-6-2c-1-0.3-1.5-1.4-1.2-2.3c0.3-1,1.4-1.5,2.3-1.2l6,2c1.7,0.6,3.1,1.8,3.9,3.4
					c0.8,1.6,0.9,3.4,0.4,5.1l-6.1,18.4C57,121.3,56.3,121.8,55.5,121.8z"/>
			</g>
			<g>
				<path fill="#EDDF5E" d="M54.9,86.1l-14.1-4.6l2.3-7c1.3-3.9,5.5-6,9.4-4.7l0,0c3.9,1.3,6,5.5,4.7,9.4L54.9,86.1z"/>
			</g>
			<g opacity="0.3">
				<path fill="#262B5F" d="M52.5,69.7c-0.6-0.2-1.3-0.3-1.9-0.4c2.4,1.9,3.5,5.1,2.5,8.1l-2.3,7L41,81.2l-0.1,0.2L55,86l2.3-7
					C58.5,75.2,56.4,71,52.5,69.7z"/>
			</g>
			<g opacity="0.51">
				<path fill="#FFFFFF" d="M55.9,72.1c-3.6-0.7-7.2,1.4-8.4,5l-2,6l-4.7-1.6l2.3-7c1.3-3.9,5.5-6,9.4-4.7
					C53.9,70.2,55,71,55.9,72.1z"/>
			</g>
			<g>
				<path fill="#1F1F23" d="M54.9,88c-0.2,0-0.4,0-0.6-0.1l-14.1-4.6c-0.5-0.2-0.8-0.5-1.1-0.9C38.9,82,38.8,81.5,39,81l2.3-7
					c1.7-5,6.9-7.6,11.8-6c4.8,1.6,7.5,6.8,5.9,11.7l-2.3,7c-0.2,0.5-0.5,0.8-0.9,1.1C55.4,87.9,55.2,88,54.9,88z M43.1,80.3
					l10.6,3.5l1.7-5.3c1-2.9-0.6-6.1-3.5-7c-2.9-1-6.1,0.6-7,3.5L43.1,80.3z"/>
			</g>
			<g>
				<path fill="#EDDF5E" d="M27.8,173.8L27.8,173.8c-0.2,0.3-0.4,0.5-0.7,0.7L14,186.2L10.5,169c-0.1-0.4-0.1-0.7-0.1-1.1l0,0
					c0-0.2,0-0.3,0.1-0.5c0-0.2,0.1-0.3,0.1-0.5l27.6-83.4c2.2-6.6,19.9-0.7,17.7,5.8l-27.6,83.4c0,0.1-0.1,0.3-0.2,0.4l0,0
					C28.1,173.4,27.9,173.6,27.8,173.8z"/>
			</g>
			<g>
				<path fill="#EDDF5E" d="M27.8,173.8L27.8,173.8c-0.2,0.3-0.4,0.5-0.7,0.7L14,186.2L10.5,169c-0.1-0.4-0.1-0.7-0.1-1.1l0,0
					C12.1,163.2,29.4,169.1,27.8,173.8z"/>
			</g>
			<g opacity="0.3">
				<path fill="#262B5F" d="M55.9,89.4l-27.6,83.4c0,0.1-0.1,0.3-0.2,0.4l0,0c-0.2,0.5-0.6,1-1,1.4L14,186.2l0.7-3l8.6-12.8
					c0.4-0.4-0.4,0.1-0.2-0.4l0,0c0.1-0.1,0.1-0.3,0.2-0.4L51,86.1c0.5-1.5,0-2.9-1.1-4.1C53.8,83.6,56.9,86.4,55.9,89.4z"/>
			</g>
			<g opacity="0.51">
				<path fill="#FFFFFF" d="M46.4,80.9c-1.3,0.4-2.3,1.2-2.8,2.5L16,166.8c-0.2,0.7-0.3,1.4-0.1,2.1l0.1,14.8l-2,2.5L10.5,169
					c-0.2-0.7-0.1-1.4,0.1-2.1l27.6-83.4C39.1,80.8,42.7,80.2,46.4,80.9z"/>
			</g>
			<g>
				<path fill="#1F1F23" d="M14,188.1c-0.2,0-0.4,0-0.6-0.1c-0.6-0.2-1.1-0.7-1.2-1.4l-3.5-17.2c-0.2-1-0.2-2.1,0.2-3.1L36.5,83
					c0.7-2,2.4-3.4,4.8-3.9c4.7-1,11.6,1.3,14.8,4.9c1.7,1.9,2.2,4,1.6,6l0,0l-27.6,83.4c-0.3,1-0.9,1.9-1.7,2.6l-13.1,11.7
					C14.9,187.9,14.5,188.1,14,188.1z M43.7,82.5c-0.6,0-1.1,0-1.6,0.2c-1.7,0.4-2,1.2-2.1,1.5l-27.6,83.4c-0.1,0.4-0.2,0.8-0.1,1.2
					l2.9,14.1l10.7-9.5c0.3-0.3,0.5-0.6,0.6-1L54.1,89l0,0c0.1-0.3,0.4-1.1-0.8-2.4C51.4,84.2,47,82.5,43.7,82.5z M55.9,89.4
					L55.9,89.4L55.9,89.4z"/>
			</g>
			<g>
				<path fill="#1F1F23" d="M52,102.6c-0.2,0-0.4,0-0.6-0.1c-0.9-0.3-1.4-1.3-1.1-2.2c0.1-0.3-0.3-1-1.3-1.8c-1.2-1-3.1-1.9-5.2-2.6
					c-4.6-1.5-7.6-1-7.8-0.3c-0.3,0.9-1.3,1.4-2.2,1.1s-1.4-1.3-1.1-2.2c0.4-1.1,1.5-2.9,5.3-3.1c2-0.1,4.5,0.3,7,1.2
					c2.5,0.8,4.7,2,6.3,3.2c2.9,2.4,2.8,4.5,2.4,5.6C53.4,102.1,52.8,102.6,52,102.6z"/>
			</g>
			<g>
				<path fill="#1F1F23" d="M55,117.7l0.3,0.1l2.8-8.4l-0.3-0.1c-2.3-0.8-4.8,0.5-5.6,2.8l0,0C51.4,114.4,52.7,116.9,55,117.7z"/>
			</g>
			<g>
				<path fill="#1F1F23" d="M27.8,175.6c-0.2,0-0.4,0-0.6-0.1c-0.9-0.3-1.4-1.3-1.1-2.2c0.1-0.2-0.1-0.5-0.5-0.9
					c-2.2-2.5-9.3-5-12.6-4.3c-0.5,0.1-0.9,0.3-1,0.5c-0.3,0.9-1.3,1.4-2.2,1.1c-0.9-0.3-1.4-1.3-1.1-2.2c0.3-1,1.3-2.3,3.6-2.8
					c4.5-0.9,12.9,2,15.9,5.4c1.6,1.8,1.5,3.4,1.2,4.4C29.2,175.1,28.5,175.6,27.8,175.6z"/>
			</g>
			<g>
				<path fill="#1F1F23" d="M12.6,192.9c-0.2,0-0.4,0-0.6-0.1c-1-0.3-1.5-1.4-1.2-2.3l1.8-5.5c0.3-1,1.4-1.5,2.3-1.2
					c1,0.3,1.5,1.4,1.2,2.3l-1.8,5.5C14.1,192.4,13.3,192.9,12.6,192.9z"/>
			</g>
		</g>
	</g>
</g>
</svg>
